<?xml version="1.0" standalone="no"?>
<!DOCTYPE svg PUBLIC "-//W3C//DTD SVG 1.1//EN" "http://www.w3.org/Graphics/SVG/1.1/DTD/svg11.dtd" >
<svg>
<metadata>
Created by FontForge 20090622 at Thu Dec  6 04:44:30 2018
 By deploy user
Copyright (c) 2013 by 4CPlus. All rights reserved.
</metadata>
<defs>
<font id="DivyaBhaskar2" horiz-adv-x="0" >
  <font-face 
    font-family="Divya Bhaskar 2"
    font-weight="400"
    font-stretch="normal"
    units-per-em="2048"
    panose-1="2 11 6 6 3 8 4 2 2 4"
    ascent="1638"
    descent="-410"
    x-height="680"
    cap-height="938"
    bbox="-1188 -1056 8786 1554"
    underline-thickness="102"
    underline-position="-103"
    unicode-range="U+0020-U+25CC"
  />
<missing-glyph 
 />
    <glyph glyph-name=".notdef" 
 />
    <glyph glyph-name="NULL" 
 />
    <glyph glyph-name="nonmarkingreturn" horiz-adv-x="266" 
 />
    <glyph glyph-name="space" unicode=" " horiz-adv-x="520" 
 />
    <glyph glyph-name="exclam" unicode="!" horiz-adv-x="573" 
d="M494 1014q0 -38 -4.5 -76.5t-6.5 -63.5q-2 -40 -4.5 -84.5t-5.5 -91t-7 -92t-7 -86.5q-8 -98 -17 -194h-69q0 3 -2 29.5l-5.5 70l-8 98.5l-9 115t-8.5 120t-6 113q-2 42 -6.5 84t-1.5 84q1 21 5 39.5t13.5 32t25.5 21.5t40 8q26 0 42.5 -10.5t26 -28.5t13 -41t2.5 -47z
M500 86q0 -19 -7 -36t-19.5 -29.5t-29.5 -19.5t-36 -7q-20 0 -36.5 7t-29.5 19.5t-20 29.5t-7 36q0 18 7 34.5t20 29t29.5 19.5t36.5 7q19 0 36 -7t29.5 -19.5t19.5 -29t7 -34.5z" />
    <glyph glyph-name="quotedbl" unicode="&#x22;" horiz-adv-x="680" 
d="M506 1298q-39 -17 -64.5 -43t-41 -57t-22 -66t-7.5 -69q38 -5 60.5 -23.5t31.5 -44t6 -53.5t-17.5 -52t-39.5 -40t-58 -16q-21 0 -41 7t-35.5 21.5t-25 36.5t-8.5 51q1 106 28.5 184.5t62 130.5t68 77.5t48.5 25.5l55 -70v0z" />
    <glyph glyph-name="numbersign" unicode="#" horiz-adv-x="1065" 
d="M686 362l129 -372l-319 235l-318 -235l123 381l-303 221h379l119 366l118 -366h392z" />
    <glyph glyph-name="dollar" unicode="$" horiz-adv-x="1024" 
d="M922 297q0 -54 -27 -104t-78 -89.5t-124.5 -65.5t-166.5 -32v-102h-63v102q-48 1 -90 5.5t-84 12t-85.5 19t-94.5 27.5v227h43q12 -113 87.5 -170.5t223.5 -67.5v467q-101 48 -168.5 89.5t-109 81t-59 81.5t-17.5 92q0 48 23 92t68 79t111 58t152 31v74h63v-74
q47 -2 87.5 -7t79.5 -13.5t78.5 -21l84.5 -27.5v-240h-39q-6 65 -27 111.5t-57 77t-87.5 46.5t-119.5 21v-405l148 -85t107 -67.5t71.5 -56t43 -51t21 -53.5t5.5 -62zM463 1077q-100 -9 -149.5 -50.5t-49.5 -104.5q0 -29 10 -55.5t33 -52.5t61.5 -53t94.5 -56v372zM762 258
q0 26 -6.5 49t-30.5 49.5t-71 58.5t-128 77v-433q57 7 101 25t74 44t45.5 59t15.5 71z" />
    <glyph glyph-name="percent" unicode="%" horiz-adv-x="1487" 
d="M1442 268q0 -54 -18 -104t-50 -88.5t-77.5 -61t-100.5 -22.5q-54 0 -99 22.5t-77.5 61t-50 88.5t-17.5 104q0 55 17.5 104.5t50 87t77.5 59.5t99 22q55 0 100.5 -22t77.5 -59.5t50 -87t18 -104.5zM1321 268q0 30 -8.5 57.5t-24.5 48.5t-39.5 33.5t-54.5 12.5
q-29 0 -52 -13t-39 -34t-24 -48.5t-8 -56.5q0 -30 8 -58.5t23.5 -51t38.5 -36t53 -13.5q31 0 54.5 13.5t39.5 36t24.5 51t8.5 58.5zM354 -86h-129l914 1110h127zM623 719q0 -55 -18 -105t-50 -88.5t-77.5 -61t-100.5 -22.5t-100 22.5t-77 61t-49.5 88.5t-17.5 105
q0 54 17.5 103.5t49.5 87t77 59.5t100 22t100.5 -22t77.5 -59.5t50 -87t18 -103.5zM502 719q0 30 -8.5 57.5t-24.5 48t-39.5 33t-54.5 12.5q-29 0 -52 -12.5t-39 -33.5t-24 -48.5t-8 -56.5q0 -30 8 -59t23.5 -51.5t38.5 -36t53 -13.5q31 0 54.5 13.5t39.5 36t24.5 51.5
t8.5 59z" />
    <glyph glyph-name="ampersand" unicode="&#x26;" horiz-adv-x="1274" 
d="M1225 195q-12 -47 -33 -87t-52 -69.5t-71.5 -46.5t-91.5 -17q-43 0 -80.5 13.5t-70.5 36t-62.5 51t-56.5 57.5q-39 -35 -80 -64t-85 -50t-92 -32.5t-102 -11.5t-105 17.5t-91 50t-64.5 79t-24.5 105.5q0 72 32 129.5t81.5 103.5t109 82t115.5 66l-26 57t-24 58.5t-18 60
t-7 62.5q0 61 21.5 109.5t59.5 83t89 53t110 18.5q43 0 82 -13.5t68.5 -39t47 -62t17.5 -82.5q0 -56 -25 -99.5t-63.5 -77.5t-85 -61t-90.5 -50l102 -168.5t111 -161.5l48 61.5t45.5 70t34 75t13.5 76.5q0 34 -20 60.5t-55 31.5v28h335v-28q-44 -6 -74.5 -22t-53.5 -40.5
t-41 -55.5l-37 -67q-34 -63 -73.5 -121.5t-84.5 -115.5q23 -27 49 -54t56 -48t63.5 -34.5t71.5 -13.5q58 0 96 31.5t53 87.5zM727 918q0 27 -8.5 51.5t-24.5 42.5t-39 28.5t-51 10.5q-30 0 -56 -11.5t-44.5 -31t-29.5 -45.5t-11 -56q0 -27 6.5 -57t16.5 -60t21.5 -58.5
l22.5 -53.5q37 18 72.5 41t63 52t44.5 65.5t17 81.5zM666 180q-69 91 -128 182t-110 193q-37 -21 -73 -48t-65 -60.5t-47 -73t-18 -86.5q0 -45 14.5 -84t41.5 -68t65 -46t84 -17q34 0 65.5 9t60.5 24t56.5 34.5t53.5 40.5z" />
    <glyph glyph-name="quotesingle" unicode="'" horiz-adv-x="500" 
d="M354 1155q-2 -101 -27 -175.5t-58 -123.5t-64.5 -74t-46.5 -26l-49 67q10 5 25 16t31 26t30 33.5t22 37.5q9 25 14 53.5t5 54.5q-37 6 -59 25.5t-31 44.5t-5.5 52.5t17 50.5t36.5 38t54 15q22 0 41.5 -9t34 -24.5t23 -36.5t7.5 -45z" />
    <glyph glyph-name="parenleft" unicode="(" horiz-adv-x="614" 
d="M109 420q0 56 9.5 120.5t27.5 131.5t43 134.5t56 130.5t67.5 118.5t76.5 99.5h105q-60 -74 -105.5 -163t-76.5 -185t-46.5 -194.5t-15.5 -192.5q0 -123 16 -215.5t46.5 -172.5t75 -156l101.5 -167h-104q-40 43 -76.5 97.5t-67 115.5t-55 126.5t-42 130t-26.5 126
t-9 115.5z" />
    <glyph glyph-name="parenright" unicode=")" horiz-adv-x="614" 
d="M535 420q0 -54 -9.5 -115.5t-26.5 -126t-41.5 -130t-55.5 -126.5t-67.5 -115.5t-76.5 -97.5h-104l101.5 167t75 156t46.5 172.5t16 215.5q0 94 -15.5 192.5t-46.5 194.5t-76 185t-105 163h104q40 -44 76.5 -99.5t67.5 -118.5t56.5 -130.5t43.5 -134.5t27.5 -131.5
t9.5 -120.5z" />
    <glyph glyph-name="asterisk" unicode="*" horiz-adv-x="831" 
d="M567 913l164 -172l-104 -77l-95 225l35 24v43l-35 23l89 229l114 -80l-168 -172l232 45v-135zM494 956h2v-43l-234 -49v135l232 -43l-168 172l118 74l86 -223zM453 659l-113 78l154 174l36 -22z" />
    <glyph glyph-name="plus" unicode="+" horiz-adv-x="936" 
d="M526 408v-330h-118v330h-330v118h330v332h118v-332h332v-118h-332z" />
    <glyph glyph-name="comma" unicode="," horiz-adv-x="471" 
d="M387 43q-1 -51 -17.5 -93.5t-40.5 -76.5t-52 -59.5t-52.5 -43t-42 -26t-20.5 -8.5l-45 82q4 1 18 7t32 17.5t35.5 27t28.5 34.5q5 8 9 19t7 22.5t4.5 21l2.5 15.5q-9 2 -23.5 7.5t-28 17t-23 30.5t-9.5 49q0 53 27 82t75 29q34 0 56.5 -14.5t35.5 -37t18.5 -50t4.5 -52.5
z" />
    <glyph glyph-name="hyphen" unicode="-" horiz-adv-x="649" 
d="M74 412v108h504v-108h-504z" />
    <glyph glyph-name="hyphen" unicode="&#x2010;" horiz-adv-x="649" 
d="M74 412v108h504v-108h-504z" />
    <glyph glyph-name="period" unicode="." horiz-adv-x="512" 
d="M408 96q0 -23 -9 -42.5t-24 -34t-35 -23t-43 -8.5t-43 8.5t-35 23t-24 34t-9 42.5t9 43.5t24 35.5t35 23.5t43 8.5t43 -8.5t35 -23.5t24 -35.5t9 -43.5z" />
    <glyph glyph-name="slash" unicode="/" horiz-adv-x="610" 
d="M176 -295h-98l377 1505h104z" />
    <glyph glyph-name="zero" unicode="0" horiz-adv-x="827" 
d="M33 508q0 103 22.5 194t69.5 168q48 82 116 123t154 41q87 0 156 -40t117 -122q49 -77 73.5 -169t24.5 -195q0 -102 -26 -196.5t-72 -172.5q-47 -78 -116.5 -118.5t-156.5 -40.5q-86 0 -154 40.5t-116 120.5q-92 156 -92 367zM139 508q0 -87 16 -160.5t50 -138.5
q32 -62 80 -91.5t110 -29.5q124 0 193 121q35 65 52 138.5t17 160.5q0 85 -17 159.5t-52 139.5q-35 62 -84 91.5t-109 29.5q-127 0 -190 -121q-34 -65 -50 -139.5t-16 -159.5z" />
    <glyph glyph-name="one" unicode="1" horiz-adv-x="535" 
d="M29 717v96q51 0 96.5 14.5t81 41t57.5 64.5t25 85h76v-1018h-103v717h-233z" />
    <glyph glyph-name="two" unicode="2" horiz-adv-x="758" 
d="M33 0q0 87 24.5 153t66.5 118.5t97 96.5t117 87q45 31 85 63.5t69 67t46 71.5t17 78q0 42 -17 74.5t-49 58.5q-59 54 -143 54q-43 0 -78.5 -17t-66.5 -49q-64 -61 -64 -158v-63h-96v63q0 68 21 125t67 107q46 48 100 73t117 25q60 0 114 -22t99 -64q43 -38 67.5 -92.5
t24.5 -114.5q0 -52 -18.5 -101.5t-51 -94.5t-75.5 -85t-92 -73q-57 -38 -108 -77t-83 -66v2q-29 -28 -47 -60t-26 -74h501v-106h-618z" />
    <glyph glyph-name="three" unicode="3" horiz-adv-x="752" 
d="M121 307q0 -48 17.5 -90.5t51.5 -73.5q35 -26 75.5 -40.5t88.5 -14.5q45 0 83 14t69 45q63 63 63 154q0 82 -63 127q-32 25 -71 37t-81 12h-84v109h84q36 0 68 13.5t56 37.5t38 56.5t14 70.5q0 35 -16 64t-42.5 50t-61.5 32.5t-72 11.5q-38 0 -73 -14.5t-61 -40.5
t-41.5 -62t-15.5 -78h-100q0 65 24 122t62 97q45 40 97 62t108 22q57 0 107.5 -20.5t95.5 -55.5q42 -35 65 -84t23 -106q0 -30 -8 -60.5t-21 -59t-31 -53.5t-37 -44q30 -17 55.5 -42.5t43.5 -57.5t28.5 -69t10.5 -77q0 -66 -23.5 -124t-71.5 -103q-46 -45 -102 -69.5
t-119 -24.5q-66 0 -125 24t-108 66q-48 43 -73 104t-25 133h98z" />
    <glyph glyph-name="four" unicode="4" horiz-adv-x="748" 
d="M33 254v96l418 674h94v-664h133v-106h-133v-254h-103v254h-409zM154 360h288v465z" />
    <glyph glyph-name="five" unicode="5" horiz-adv-x="762" 
d="M127 307q0 -45 18 -81.5t48 -62.5t70 -40t85 -14q100 0 170 67q72 69 72 174q0 53 -18.5 96t-53.5 78t-77 54.5t-93 19.5q-59 0 -111.5 -26t-93.5 -80h-112l98 536h496v-108h-404l-15 -85t-13 -83q-3 -16 -6 -28l-6 -23.5t-5.5 -24.5t-5.5 -31q37 28 83 45t95 17
q72 0 131.5 -26t110.5 -77q49 -54 74.5 -116.5t25.5 -137.5q0 -74 -24 -136t-76 -116q-53 -46 -112 -72t-130 -26q-63 0 -119 19t-108 61q-48 38 -71 96.5t-23 130.5h100z" />
    <glyph glyph-name="six" unicode="6" horiz-adv-x="752" 
d="M33 508q0 103 21.5 195.5t68.5 170.5q94 160 260 160q54 0 102 -19.5t88 -60.5q42 -37 63 -92t21 -121h-98q0 47 -13.5 81t-39.5 59q-26 23 -57 35t-66 12q-60 0 -109 -34t-81 -97q-25 -53 -42.5 -118.5t-25.5 -133.5q40 54 101 86.5t130 32.5q65 0 121 -25.5t103 -73.5
q43 -48 68.5 -107t25.5 -128q0 -71 -23 -133.5t-69 -112.5q-92 -104 -226 -104q-141 0 -233 118q-47 60 -68.5 129.5t-21.5 151.5v129zM147 311q0 -46 16.5 -86.5t47.5 -72.5q32 -31 67 -47.5t78 -16.5q47 0 85 18t69 52q34 37 48.5 79.5t14.5 92.5q0 49 -15.5 89t-49.5 70
q-61 68 -152 68q-42 0 -79 -20t-68 -54h2q-29 -34 -46.5 -76.5t-17.5 -95.5z" />
    <glyph glyph-name="seven" unicode="7" horiz-adv-x="799" 
d="M37 911v113h706v-115q-88 -71 -159 -172t-117 -211q-45 -115 -73.5 -250.5t-28.5 -275.5h-115q4 132 26.5 259.5t64 244.5t100 220t134.5 187h-538z" />
    <glyph glyph-name="eight" unicode="8" horiz-adv-x="780" 
d="M33 299q0 40 11.5 77.5t31.5 70.5t48.5 60t63.5 46q-52 38 -83 92t-31 117q0 57 23 105t67 85q48 35 98.5 54.5t110.5 19.5t111 -19.5t98 -54.5q43 -37 66.5 -85t23.5 -105q0 -65 -30.5 -117t-84.5 -92q33 -19 61.5 -46t49.5 -60t33 -70.5t12 -77.5q0 -66 -26.5 -125
t-74.5 -102q-51 -44 -112.5 -68t-126.5 -24t-127 24t-113 68q-49 43 -74.5 102t-25.5 125zM131 299q0 -90 74 -152q35 -27 76.5 -43t91.5 -16q48 0 90.5 16t77.5 43q71 62 71 152q0 46 -17 81t-54 62q-35 26 -77.5 40t-90.5 14t-90.5 -14t-77.5 -40q-74 -54 -74 -143z
M174 762q0 -37 16 -66t43.5 -49.5t63.5 -31.5t76 -11t76.5 11t64 31.5t43.5 49.5t16 66t-16 66t-43.5 49.5t-64 31.5t-76.5 11t-76 -11t-63.5 -31.5t-43.5 -49.5t-16 -66z" />
    <glyph glyph-name="nine" unicode="9" horiz-adv-x="737" 
d="M29 698q0 68 21 125t69 107q46 48 99.5 73t115.5 25q141 0 231 -119q24 -30 41.5 -67.5t29 -76.5t16 -75.5t3.5 -64.5l2 -123q0 -105 -13 -196.5t-54 -170.5q-45 -78 -114.5 -116.5t-149.5 -38.5q-53 0 -110 19.5t-99 59.5q-41 41 -64.5 94t-23.5 119h98q0 -40 18 -73.5
t46.5 -58t64 -38.5t70.5 -14q29 0 56.5 7t52 21t44.5 36.5t33 54.5q28 57 37 126t12 146q-54 -51 -110.5 -80.5t-116.5 -29.5q-125 0 -215 94q-48 51 -69 108.5t-21 126.5zM127 698q0 -48 15 -88t46 -69q32 -34 67 -51t79 -17q43 0 79 17t68 51q62 59 62 157q0 96 -62 158
q-32 32 -68 49t-79 17q-44 0 -79 -17t-67 -49q-61 -61 -61 -158z" />
    <glyph glyph-name="colon" unicode=":" horiz-adv-x="467" 
d="M399 717q-1 -22 -9.5 -40.5t-22.5 -32t-32 -21t-38 -7.5q-21 0 -40 9.5t-32.5 25.5t-21 37t-6.5 43q1 21 9 39.5t21.5 32t31.5 21t38 7.5q21 0 40 -9t33 -25t22 -36.5t7 -43.5zM399 205q-1 -22 -9.5 -40.5t-22.5 -32t-32 -21t-38 -7.5q-21 0 -40 9.5t-32.5 25.5t-21 37
t-6.5 43q1 21 9 39.5t21.5 32t31.5 21t38 7.5q21 0 40 -9.5t33 -25.5t22 -36.5t7 -42.5z" />
    <glyph glyph-name="semicolon" unicode=";" horiz-adv-x="629" 
d="M498 528q0 -23 -8.5 -43t-23.5 -35t-35 -23.5t-42 -8.5q-23 0 -43 8.5t-35 23.5t-23.5 35t-8.5 43q0 22 8.5 42t23.5 35t34.5 23.5t41.5 8.5q23 0 43.5 -8.5t35.5 -23.5t23.5 -35t8.5 -42zM514 47q0 -51 -20 -94t-51.5 -77.5t-71 -60.5t-78.5 -42l-80 53q32 10 58.5 23.5
t46.5 32.5t32.5 44.5t16.5 59.5q-42 9 -66.5 35t-24.5 71q0 50 29 83.5t80 33.5q35 0 59.5 -14t40 -36.5t22.5 -51.5t7 -60z" />
    <glyph glyph-name="less" unicode="&#x3c;" horiz-adv-x="613" 
d="M58 410v108l509 262v-114l-404 -203l404 -204v-114z" />
    <glyph glyph-name="equal" unicode="=" horiz-adv-x="936" 
d="M70 580v116h800v-116h-800zM70 244v112h800v-112h-800z" />
    <glyph glyph-name="greater" unicode="&#x3e;" horiz-adv-x="1069" 
d="M715 1024l280 -500l-282 -522h-246l285 522l-285 500h248zM285 1024l280 -500l-282 -522h-246l285 522l-285 500h248z" />
    <glyph glyph-name="question" unicode="?" horiz-adv-x="926" 
d="M899 877q0 -50 -11.5 -84.5t-30 -61t-42 -47l-48.5 -41.5t-48.5 -46.5t-42 -60.5t-30 -83.5t-11.5 -116.5h-148q0 76 21 135.5t52 108t67.5 88l67.5 74.5t52 67.5t21 67.5q0 34 -15 61t-41.5 46t-63 29.5t-79.5 10.5q-38 0 -72 -9.5t-60.5 -27t-42 -43t-15.5 -57.5
q0 -42 22.5 -78.5t53.5 -60.5h-144q-26 20 -43.5 54.5t-17.5 71.5q0 57 28 104t74.5 80t108 51.5t129.5 18.5q63 0 119 -17t98.5 -49t67 -78.5t24.5 -106.5zM668 117q0 -22 -8 -41.5t-22 -34t-33.5 -23t-41.5 -8.5t-42.5 7.5t-36.5 22t-25.5 34t-9.5 43.5q0 23 9 43.5
t24 35.5t35.5 24t43.5 9t42.5 -9t34 -24.5t22.5 -36t8 -42.5z" />
    <glyph glyph-name="at" unicode="A" horiz-adv-x="734" 
d="M-1 0l295 938h110l315 -938h-117l-89 284h-322l-84 -284h-108zM221 385h260l-80 260q-37 120 -54 195q-15 -91 -42 -180z" />
    <glyph glyph-name="A" unicode="B" horiz-adv-x="705" 
d="M79 0v938h289q88 0 139 -27t83.5 -84.5t32.5 -127.5q0 -65 -28 -116.5t-79 -83.5q67 -24 105.5 -82.5t38.5 -144.5q0 -85 -34.5 -149.5t-93 -93.5t-160.5 -29h-293zM181 544h167q65 0 92 9q40 13 61.5 45t21.5 86q0 51 -19.5 84.5t-52 46.5t-116.5 13h-154v-284zM181 111
h191q64 0 94 11q43 17 66 55t23 96q0 53 -22 89.5t-58.5 53.5t-115.5 17h-178v-322z" />
    <glyph glyph-name="B" unicode="C" horiz-adv-x="773" 
d="M629 329l103 -31q-34 -158 -119 -236t-207 -78q-106 0 -182 52t-124.5 167.5t-48.5 272.5q0 154 48.5 261.5t131 162t184.5 54.5q111 0 191 -69.5t112 -203.5l-100 -29q-51 196 -205 196q-77 0 -133.5 -39.5t-90 -122.5t-33.5 -210q0 -193 68 -289.5t180 -96.5
q84 0 144.5 59.5t80.5 179.5z" />
    <glyph glyph-name="C" unicode="D" horiz-adv-x="773" 
d="M81 0v938h265q99 0 150 -17q67 -22 116.5 -81.5t77 -150.5t27.5 -215q0 -159 -47 -270t-120 -157.5t-192 -46.5h-277zM182 111h164q99 0 150.5 32t78.5 104q37 95 37 229q0 142 -39 223.5t-99 109.5q-41 19 -130 19h-162v-717z" />
    <glyph glyph-name="D" unicode="E" horiz-adv-x="718" 
d="M85 0v938h556v-110h-454v-288h425v-110h-425v-319h472v-111h-574z" />
    <glyph glyph-name="E" unicode="F" horiz-adv-x="660" 
d="M90 0v938h519v-110h-417v-291h361v-111h-361v-426h-102z" />
    <glyph glyph-name="F" unicode="G" horiz-adv-x="854" 
d="M445 368v110l326 1v-348q-75 -73 -155 -110t-164 -37q-113 0 -201 56.5t-139.5 164.5t-51.5 260q0 153 51.5 267t135.5 168t198 54q85 0 148.5 -31t104.5 -89t61 -158l-91 -31q-19 79 -47 118.5t-74.5 62t-103.5 22.5q-84 0 -144.5 -40.5t-97.5 -126.5t-37 -209
q0 -188 79 -282t205 -94q60 0 123 29t100 68v175h-226z" />
    <glyph glyph-name="G" unicode="H" horiz-adv-x="781" 
d="M83 0v938h101v-385h400v385h102v-938h-102v442h-400v-442h-101z" />
    <glyph glyph-name="H" unicode="I" horiz-adv-x="296" 
d="M102 0v938h102v-938h-102z" />
    <glyph glyph-name="I" unicode="J" horiz-adv-x="522" 
d="M29 266l91 16q4 -108 33.5 -147.5t81.5 -39.5q36 0 64 20t38 51q13 41 13 126v646h102v-639q0 -173 -56.5 -244t-159.5 -71q-101 0 -150 64q-57 73 -57 218z" />
    <glyph glyph-name="J" unicode="K" horiz-adv-x="747" 
d="M79 0v938h102v-465l382 465h138l-323 -380l338 -558h-135l-274 475l-126 -150v-325h-102z" />
    <glyph glyph-name="K" unicode="L" horiz-adv-x="584" 
d="M77 0v938h102v-827h378v-111h-480z" />
    <glyph glyph-name="L" unicode="M" horiz-adv-x="894" 
d="M80 0v938h153l182 -664l37 -139q13 52 41 150l184 653h137v-938h-98v785l-224 -785h-91l-223 799v-799h-98z" />
    <glyph glyph-name="M" unicode="N" horiz-adv-x="755" 
d="M80 0v938h104l405 -736v736h97v-938h-104l-404 737v-737h-98z" />
    <glyph glyph-name="N" unicode="O" horiz-adv-x="841" 
d="M54 457q0 240 106 369t263 129q102 0 185.5 -57.5t132.5 -167.5t49 -262q0 -208 -94 -339q-105 -145 -274 -145q-170 0 -274 148q-94 135 -94 325zM159 455q0 -173 76.5 -269t186.5 -96q112 0 187.5 97t75.5 284q0 121 -39 216q-30 73 -90.5 117t-131.5 44
q-116 0 -190.5 -96t-74.5 -297z" />
    <glyph glyph-name="O" unicode="P" horiz-adv-x="710" 
d="M83 0v938h290q103 0 151 -18q67 -24 106.5 -90t39.5 -162q0 -127 -64.5 -207t-223.5 -80h-197v-381h-102zM185 492h199q94 0 137.5 42.5t43.5 128.5q0 56 -21.5 95.5t-52 54.5t-109.5 15h-197v-336z" />
    <glyph glyph-name="P" unicode="Q" horiz-adv-x="849" 
d="M669 100q71 -59 130 -87l-30 -86q-84 37 -165 115q-85 -58 -188 -58q-169 0 -273 148q-94 133 -94 336q0 153 50.5 264.5t132.5 167t185 55.5q102 0 185.5 -57.5t133 -167t49.5 -259.5q0 -117 -30.5 -212t-85.5 -159zM444 259q88 -29 145 -89q90 101 90 301
q0 121 -34 205.5t-94.5 128t-132.5 43.5q-114 0 -189 -95.5t-75 -284.5q0 -185 76 -281.5t188 -96.5q54 0 102 25q-47 38 -101 54z" />
    <glyph glyph-name="Q" unicode="R" horiz-adv-x="781" 
d="M83 0v938h341q107 0 157.5 -26t83.5 -87t33 -142q0 -106 -55.5 -172t-161.5 -84q43 -26 66 -52q45 -54 80 -120l134 -255h-128l-102 195q-60 115 -90.5 154.5t-59 53.5t-79.5 14h-118v-417h-101zM184 524h219q72 0 109 17.5t59 54.5t22 86q0 71 -42 112t-123 41h-244
v-311z" />
    <glyph glyph-name="R" unicode="S" horiz-adv-x="702" 
d="M49 301l96 11q7 -78 34.5 -121t78 -69.5t113.5 -26.5q91 0 141.5 44.5t50.5 115.5q0 42 -18.5 73t-55.5 51t-159 56q-109 32 -155 64.5t-71.5 82.5t-25.5 114q0 114 73.5 186t198.5 72q86 0 150 -34t100 -97t38 -149l-98 -9q-8 91 -55 135.5t-132 44.5q-86 0 -131.5 -39
t-45.5 -100q0 -57 33 -88q34 -32 150 -64q114 -31 160 -54q70 -36 106 -94.5t36 -139.5t-37.5 -147.5t-102.5 -101t-157 -34.5q-143 0 -227.5 86t-87.5 232z" />
    <glyph glyph-name="S" unicode="T" horiz-adv-x="671" 
d="M280 0v828h-253v110h610v-110h-255v-828h-102z" />
    <glyph glyph-name="T" unicode="U" horiz-adv-x="765" 
d="M586 938h102v-542q0 -136 -26.5 -223.5t-96.5 -138t-178 -50.5q-153 0 -228.5 91t-75.5 321v542h101v-541q0 -128 20 -184.5t65 -86.5t110 -30q109 0 158 61.5t49 239.5v541z" />
    <glyph glyph-name="U" unicode="V" horiz-adv-x="734" 
d="M303 0l-298 938h110l201 -681q23 -80 40 -154q18 77 41 154l208 681h103l-300 -938h-105z" />
    <glyph glyph-name="V" unicode="W" horiz-adv-x="1038" 
d="M219 0l-204 938h104l117 -615q19 -95 33 -192l34 174l147 633h123l110 -475q40 -173 60 -332q15 92 38 204l121 603h102l-211 -938h-98l-163 715l-24 110q-11 -61 -22 -110l-163 -715h-104z" />
    <glyph glyph-name="W" unicode="X" horiz-adv-x="731" 
d="M5 0l298 489l-263 449h121l140 -240q43 -75 62 -116q25 50 61 107l155 249h110l-270 -442l291 -496h-125l-194 335q-16 28 -33 62q-26 -51 -37 -70l-194 -327h-122z" />
    <glyph glyph-name="X" unicode="Y" horiz-adv-x="731" 
d="M300 0v397l-297 541h124l151 -283q45 -83 79 -158q34 73 84 165l149 276h118l-307 -541v-397h-101z" />
    <glyph glyph-name="Y" unicode="Z" horiz-adv-x="668" 
d="M23 0v115l394 601q41 63 80 112h-430v110h551v-110l-431 -651l-47 -66h491v-111h-608z" />
    <glyph glyph-name="Z" unicode="[" horiz-adv-x="333" 
d="M75 -260v1198h209v-95h-115v-1008h115v-95h-209z" />
    <glyph glyph-name="bracketleft" unicode="\" horiz-adv-x="312" 
d="M223 -16l-223 970h76l223 -970h-76z" />
    <glyph glyph-name="backslash" unicode="]" horiz-adv-x="304" 
d="M232 -260h-209v95h114v1008h-114v95h209v-1198z" />
    <glyph glyph-name="bracketright" unicode="^" horiz-adv-x="803" 
d="M0 1024h555v-641l-555 -444v1085z" />
    <glyph glyph-name="asciicircum" unicode="_" horiz-adv-x="629" 
d="M-8 -99h612v-65h-612v65z" />
    <glyph glyph-name="underscore" unicode="`" horiz-adv-x="273" 
d="M244 764h-76l-121 179h126z" />
    <glyph glyph-name="grave" unicode="a" horiz-adv-x="639" 
d="M433 84q-48 -49 -99 -74t-106 -25q-87 0 -139 52.5t-52 141.5q0 58 24.5 103.5t66.5 71.5t128 38q115 16 169 39l1 30q0 70 -25 98q-36 41 -109 41q-65 0 -98 -27.5t-48 -102.5l-93 16q20 109 80.5 159t173.5 50q87 0 137 -33t63 -81.5t13 -142.5v-153q0 -161 6 -203
t24 -82h-98q-15 35 -19 84zM425 341q-52 -25 -154 -43q-60 -11 -83.5 -24t-36.5 -37t-13 -55q0 -49 30 -78t83 -29q50 0 91.5 26t62 70t20.5 128v42z" />
    <glyph glyph-name="a" unicode="b" horiz-adv-x="629" 
d="M156 0h-88v938h95v-334q30 46 68 68.5t85 22.5q65 0 118.5 -39t85.5 -118.5t32 -192.5q0 -173 -72.5 -266.5t-169.5 -93.5q-48 0 -87 25t-67 75v-85zM155 345q0 -106 19 -158.5t54.5 -80t78.5 -27.5q58 0 103 66t45 196q0 134 -43.5 196.5t-106.5 62.5
q-59 0 -104.5 -65.5t-45.5 -189.5z" />
    <glyph glyph-name="b" unicode="c" horiz-adv-x="618" 
d="M435 249l92 -15q-16 -121 -80 -185t-155 -64q-109 0 -179.5 89.5t-70.5 265.5q0 178 71 266.5t183 88.5q87 0 146 -53.5t76 -161.5l-92 -17q-13 69 -46.5 103t-79.5 34q-70 0 -116 -61.5t-46 -196.5q0 -138 44 -200.5t112 -62.5q54 0 92 41.5t49 128.5z" />
    <glyph glyph-name="c" unicode="d" horiz-adv-x="634" 
d="M431 0v86q-26 -50 -66.5 -75.5t-86.5 -25.5q-99 0 -171 93t-72 262q0 116 32 196.5t85.5 119.5t118.5 39q47 0 87 -24.5t66 -68.5v336h95v-938h-88zM132 339q0 -132 45.5 -196t106.5 -64q60 0 104.5 61.5t44.5 185.5q0 143 -44.5 208.5t-111.5 65.5q-59 0 -102 -63
t-43 -198z" />
    <glyph glyph-name="d" unicode="e" horiz-adv-x="666" 
d="M451 219l97 -15q-24 -109 -88 -164t-158 -55q-118 0 -191.5 89.5t-73.5 259.5q0 176 74 268.5t187 92.5q108 0 180.5 -91t72.5 -263l-1 -31h-416q6 -114 53.5 -172.5t115.5 -58.5q106 0 148 140zM140 405h311q-6 88 -38 132q-45 63 -115 63q-64 0 -108.5 -52.5
t-49.5 -142.5z" />
    <glyph glyph-name="e" unicode="f" horiz-adv-x="388" 
d="M96 0v590h-84v90h84v72q0 80 16.5 120t51 61t86.5 21q40 0 88 -11l-14 -101q-30 7 -56 7q-42 0 -60.5 -22.5t-18.5 -84.5v-62h109v-90h-109v-590h-93z" />
    <glyph glyph-name="f" unicode="g" horiz-adv-x="645" 
d="M51 -56l92 -17q7 -54 39 -80.5t89 -26.5q62 0 98.5 29.5t50.5 88.5q8 36 8 151q-31 -44 -69 -66.5t-85 -22.5q-100 0 -166 84q-75 98 -75 261q0 109 33 191t87 120.5t122 38.5q49 0 89.5 -24.5t71.5 -72.5v82h88v-588q0 -157 -26 -223.5t-84 -105.5t-140 -39
q-108 0 -166.5 58.5t-56.5 161.5zM130 352q0 -134 44 -195.5t108 -61.5t109 60.5t45 191.5q0 128 -46 190.5t-112 62.5q-59 0 -103.5 -62.5t-44.5 -185.5z" />
    <glyph glyph-name="g" unicode="h" horiz-adv-x="655" 
d="M69 0v938h94v-336q33 46 75 69.5t93 23.5q89 0 140.5 -56.5t51.5 -207.5v-431h-94v431q0 88 -31.5 126.5t-86.5 38.5q-61 0 -104.5 -49.5t-43.5 -174.5v-372h-94z" />
    <glyph glyph-name="h" unicode="i" horiz-adv-x="273" 
d="M69 806v132h94v-132h-94zM69 0v680h94v-680h-94z" />
    <glyph glyph-name="i" unicode="j" horiz-adv-x="288" 
d="M68 804v134h95v-134h-95zM-51 -264l18 98q28 -9 44 -9q30 0 43.5 24t13.5 116v715h95v-717q0 -139 -35.5 -189t-104.5 -50q-38 0 -74 12z" />
    <glyph glyph-name="j" unicode="k" horiz-adv-x="598" 
d="M72 0v938h94v-535l224 277h122l-213 -252l234 -428h-116l-185 348l-66 -79v-269h-94z" />
    <glyph glyph-name="k" unicode="l" horiz-adv-x="267" 
d="M67 0v938h94v-938h-94z" />
    <glyph glyph-name="l" unicode="m" horiz-adv-x="933" 
d="M70 0v680h85v-96q28 53 72 82t97 29q59 0 99.5 -30.5t57.5 -88.5q34 60 77 89.5t95 29.5q80 0 126.5 -54.5t46.5 -173.5v-467h-94v428q0 73 -11 103.5t-34.5 47t-52.5 16.5q-61 0 -99.5 -48t-38.5 -152v-395h-95v442q0 84 -26 118.5t-71 34.5q-65 0 -102.5 -52
t-37.5 -190v-353h-94z" />
    <glyph glyph-name="m" unicode="n" horiz-adv-x="650" 
d="M69 0v680h85v-97q31 56 75.5 84t102.5 28q44 0 82 -17.5t61.5 -46t35 -74t11.5 -139.5v-418h-94v413q0 75 -13 109.5t-40 53.5t-63 19q-68 0 -108.5 -50.5t-40.5 -173.5v-371h-94z" />
    <glyph glyph-name="n" unicode="o" horiz-adv-x="660" 
d="M34 340q0 176 74 265.5t187 89.5q111 0 186 -89.5t75 -258.5q0 -183 -73.5 -272.5t-187.5 -89.5q-112 0 -186.5 89.5t-74.5 265.5zM131 340q0 -132 48 -196.5t119 -64.5q66 0 114 65t48 196t-48 195.5t-120 64.5q-67 0 -114 -65t-47 -195z" />
    <glyph glyph-name="o" unicode="p" horiz-adv-x="660" 
d="M69 -260v940h87v-89q32 55 71 79.5t89 24.5q66 0 119 -39t85.5 -118.5t32.5 -191.5q0 -174 -72.5 -267.5t-170.5 -93.5q-44 0 -81.5 22t-65.5 63v-330h-94zM154 336q0 -132 44.5 -194.5t106.5 -62.5q60 0 105.5 65t45.5 200q0 133 -44 197t-107 64q-57 0 -104 -69
t-47 -200z" />
    <glyph glyph-name="p" unicode="q" horiz-adv-x="624" 
d="M424 -260v332q-22 -39 -62 -63t-80 -24q-100 0 -173 94.5t-73 266.5q0 150 61.5 249.5t173.5 99.5q52 0 92.5 -26.5t69.5 -79.5v91h85v-940h-94zM132 342q0 -133 46.5 -198t110.5 -65q57 0 101 62.5t44 186.5q0 140 -46.5 208t-110.5 68q-58 0 -101.5 -63.5t-43.5 -198.5
z" />
    <glyph glyph-name="q" unicode="r" horiz-adv-x="409" 
d="M69 0v680h85v-103q33 71 60 94.5t61 23.5q48 0 97 -37l-32 -107q-35 25 -69 25q-30 0 -55 -21t-35 -59q-18 -66 -18 -140v-356h-94z" />
    <glyph glyph-name="r" unicode="s" horiz-adv-x="598" 
d="M33 203l94 18q8 -72 45 -107t99 -35q61 0 94.5 30.5t33.5 77.5q0 40 -28 63q-20 15 -96 38q-111 34 -148 57.5t-57.5 63.5t-20.5 90q0 87 56 141.5t154 54.5q62 0 109 -22.5t72 -60t35 -108.5l-92 -15q-13 111 -121 111q-62 0 -92 -24.5t-30 -62.5t29 -60q17 -13 102 -41
q117 -38 152 -60t54 -60t19 -90q0 -98 -62 -158t-168 -60q-201 0 -233 219z" />
    <glyph glyph-name="s" unicode="t" horiz-adv-x="377" 
d="M280 103l12 -102q-39 -10 -70 -10q-49 0 -79 19.5t-41.5 53.5t-11.5 135v391h-69v90h69v168l94 69v-237h96v-90h-96v-397q0 -55 9 -71q12 -23 45 -23q16 0 42 4z" />
    <glyph glyph-name="t" unicode="u" horiz-adv-x="629" 
d="M435 0v100q-33 -58 -77 -86.5t-100 -28.5q-66 0 -112.5 35.5t-62.5 89.5t-16 149v421h94v-377q0 -105 10.5 -140.5t39 -57t65.5 -21.5q68 0 111 56q37 48 37 176v364h95v-680h-84z" />
    <glyph glyph-name="u" unicode="v" horiz-adv-x="613" 
d="M225 0l-212 680h100l120 -407q20 -69 36 -137q12 53 34 129l125 415h97l-211 -680h-89z" />
    <glyph glyph-name="v" unicode="w" horiz-adv-x="844" 
d="M172 0l-171 680h98l89 -393l32 -146l30 141l88 398h97l83 -395l29 -129l32 131l95 393h92l-175 -680h-98l-89 407l-21 116l-112 -523h-99z" />
    <glyph glyph-name="w" unicode="x" horiz-adv-x="592" 
d="M8 0l203 353l-188 327h118l86 -160l39 -76q23 44 42 75l94 161h113l-193 -320l207 -360h-116l-114 211l-30 57l-147 -268h-114z" />
    <glyph glyph-name="x" unicode="y" horiz-adv-x="608" 
d="M67 -262l-11 108q32 -10 54 -10q30 0 49.5 12t32.5 38q4 9 37 113l-212 681h102l117 -394q21 -74 40 -157q16 79 38 155l119 396h95l-212 -692q-41 -134 -65 -179t-54.5 -65t-69.5 -20q-27 0 -60 14z" />
    <glyph glyph-name="y" unicode="z" horiz-adv-x="613" 
d="M21 0v93l355 497q-60 -4 -107 -4h-227v94h456v-76l-302 -432l-58 -79q63 6 119 6h258v-99h-494z" />
    <glyph glyph-name="z" unicode="{" horiz-adv-x="1018" 
d="M0 973h707v-707h-707v707z" />
    <glyph glyph-name="braceleft" unicode="|" horiz-adv-x="668" 
d="M303 1253h70v-1452h-70v1452z" />
    <glyph glyph-name="bar" unicode="}" horiz-adv-x="1018" 
d="M707 618q0 -72 -28 -136t-76.5 -112t-113 -76t-137.5 -28q-72 0 -136 28t-112 76t-76 112t-28 136q0 73 28 137.5t76 113t112 76.5t136 28q73 0 137.5 -28t113 -76.5t76.5 -113t28 -137.5z" />
    <glyph glyph-name="braceright" unicode="~" horiz-adv-x="942" 
d="M59 936h822v-125h-117q20 -26 33 -56.5t18 -64.5h66v-100h-72q-15 -65 -52.5 -113.5t-90.5 -81t-116.5 -49t-129.5 -16.5h-101l80 -158q10 -22 19 -32.5t37 -10.5h403v-133h-465q-57 0 -84.5 25.5t-44.5 66.5l-108 242h-95v133h385q79 0 133 33.5t74 93.5h-594v100h603
q-11 63 -65.5 90.5t-135.5 30.5h-402v125z" />
    <glyph glyph-name="asciitilde" unicode="@" horiz-adv-x="1153" 
d="M608 104q-37 -52 -79.5 -79t-79.5 -27q-77 0 -129 70q-63 84 -63 217q0 108 45.5 210t107.5 150.5t121 48.5q44 0 85.5 -29.5t71.5 -88.5l17 99h95l-76 -429q-16 -89 -16 -99q0 -19 11 -31t26 -12q28 0 80 45t87 130.5t35 180.5q0 114 -49 206t-136 144t-189 52
q-121 0 -218.5 -65t-159 -194t-61.5 -295q0 -156 55 -265.5t157.5 -166.5t242.5 -57q126 0 221.5 52.5t145.5 140.5h95q-31 -77 -103 -148t-159.5 -105.5t-200.5 -34.5q-166 0 -281.5 66.5t-182.5 196t-67 312.5q0 194 73.5 351.5t186 231.5t262.5 74q125 0 225 -61.5
t160.5 -178.5t60.5 -258q0 -192 -111 -338q-94 -123 -205 -123q-52 0 -74.5 26t-26.5 81zM354 278q0 -89 35 -137t78 -48q37 0 82 37.5t77 116.5t32 167q0 90 -36 137t-86 47q-39 0 -78.5 -33t-71.5 -119t-32 -168z" />
    <glyph glyph-name="glyph45" unicode="&#xf7;" horiz-adv-x="1124" 
d="M562 1075q36 0 61.5 -25.5t25.5 -61.5t-25.5 -61.5t-62.5 -25.5q-36 0 -61.5 25.5t-25.5 61.5t25.5 61.5t62.5 25.5zM1101 640h-1078v82h1078v-82zM562 455q37 0 62.5 -26t25.5 -62t-26 -62t-62 -26t-62 26t-26 62t25.5 62t62.5 26z" />
    <glyph glyph-name="glyph46" unicode="&#xd7;" horiz-adv-x="1155" 
d="M165 328l353 353l-352 352l58 58l352 -352l352 352l56 -57l-352 -352l354 -354l-57 -58l-354 354l-353 -353z" />
    <glyph glyph-name="glyph47" unicode="&#x2018;" horiz-adv-x="680" 
d="M506 1298q-39 -17 -64.5 -43t-41 -57t-22 -66t-7.5 -69q38 -5 60.5 -23.5t31.5 -44t6 -53.5t-17.5 -52t-39.5 -40t-58 -16q-21 0 -41 7t-35.5 21.5t-25 36.5t-8.5 51q1 106 28.5 184.5t62 130.5t68 77.5t48.5 25.5l55 -70v0z" />
    <glyph glyph-name="glyph2" unicode="&#x2019;" horiz-adv-x="500" 
d="M354 1155q-2 -101 -27 -175.5t-58 -123.5t-64.5 -74t-46.5 -26l-49 67q10 5 25 16t31 26t30 33.5t22 37.5q9 25 14 53.5t5 54.5q-37 6 -59 25.5t-31 44.5t-5.5 52.5t17 50.5t36.5 38t54 15q22 0 41.5 -9t34 -24.5t23 -36.5t7.5 -45z" />
    <glyph glyph-name="glyph3" unicode="&#x2013;" horiz-adv-x="682" 
d="M83 535h517v-151h-517v151z" />
    <glyph glyph-name="glyph4" unicode="&#x2014;" horiz-adv-x="856" 
d="M826 258l8 -14q0 -2 -17 -2h-744l-24 39q-7 10 -7 12t15 2h746z" />
    <glyph glyph-name="glyph51" unicode="&#x200b;" 
d="M11 644h-19v17h19v-17z" />
    <glyph glyph-name="glyph6" unicode="&#x200c;" 
d="M18 -135h-36v916h36v-916z" />
    <glyph glyph-name="glyph7" unicode="&#x200d;" 
d="M107 675l-24 -24l-65 67v-853h-36v853l-65 -67l-24 24l84 84l-84 82l24 25l83 -85l83 85l24 -25l-84 -82z" />
    <glyph glyph-name="glyph8" unicode="&#x25cc;" horiz-adv-x="464" 
d="M436 406l-54 -38q-26 43 -66 63l39 55q53 -30 81 -80zM289 516l-12 -65q-46 14 -88 0l-13 65q35 8 57 8q13 0 26.5 -2t29.5 -6zM465 290q0 -27 -8 -58l-64 13q13 43 0 91l64 10q8 -30 8 -56zM436 172l-16.5 -23t-18.5 -23l-17.5 -14t-28.5 -21l-38 56q39 21 65 64z
M147 431q-33 -19 -64 -63l-53 38q28 47 78 80zM73 244l-66 -12q-11 39 -1 114l67 -10q-12 -52 0 -92zM289 63q-34 -10 -56 -10q-17 0 -57 10l13 64q52 -10 88 1zM147 147l-39 -56q-52 38 -78 81l54 39q22 -38 63 -64z" />
    <glyph glyph-name="glyph9" unicode="&#xb6;" horiz-adv-x="390" 
d="M392 471h-38v-462h-46v462h-60v-462h-45v284q-49 2 -78.5 32t-29.5 78q0 58 36 87q33 27 91 27h170v-46z" />
    <glyph glyph-name="glyph10" unicode="&#x201c;" horiz-adv-x="902" 
d="M446 1298q-39 -17 -64.5 -43t-41 -57t-22 -66t-7.5 -69q38 -5 60.5 -23.5t31.5 -44t6 -53.5t-17.5 -52t-39.5 -40t-58 -16q-21 0 -41 7t-35.5 21.5t-25 36.5t-8.5 51q1 106 28.5 184.5t62 130.5t68 77.5t48.5 25.5zM846 1298q-39 -17 -64.5 -43t-41 -57t-22 -66t-7.5 -69
q38 -5 60.5 -23.5t31.5 -44t6 -53.5t-17.5 -52t-39.5 -40t-58 -16q-21 0 -41 7t-35.5 21.5t-25 36.5t-8.5 51q1 106 28.5 184.5t62 130.5t68 77.5t48.5 25.5z" />
    <glyph glyph-name="glyph11" unicode="&#x201d;" horiz-adv-x="828" 
d="M354 1155q-2 -101 -27 -175.5t-58 -123.5t-64.5 -74t-46.5 -26l-49 67q10 5 25 16t31 26t30 33.5t22 37.5q9 25 14 53.5t5 54.5q-37 6 -59 25.5t-31 44.5t-5.5 52.5t17 50.5t36.5 38t54 15q22 0 41.5 -9t34 -24.5t23 -36.5t7.5 -45zM754 1155q-2 -101 -27 -175.5
t-58 -123.5t-64.5 -74t-46.5 -26l-49 67q10 5 25 16t31 26t30 33.5t22 37.5q9 25 14 53.5t5 54.5q-37 6 -59 25.5t-31 44.5t-5.5 52.5t17 50.5t36.5 38t54 15q22 0 41.5 -9t34 -24.5t23 -36.5t7.5 -45z" />
    <glyph glyph-name="glyph12" unicode="&#xa9;" horiz-adv-x="1556" 
d="M778 1387q179 0 349 -91.5t265.5 -262t95.5 -355.5q0 -184 -94 -353t-263 -262.5t-353 -93.5t-352.5 93.5t-262.5 262.5t-94 353q0 185 95.5 355.5t265.5 262t348 91.5zM778 1326q-163 0 -318 -84t-242 -239.5t-87 -324.5q0 -168 85.5 -322t239.5 -240t322 -86t322.5 86
t240 240t85.5 322q0 169 -87 324.5t-242 239.5t-319 84zM1129 1134l20 -280h-39q-36 119 -114.5 177.5t-188.5 58.5q-82 0 -146 -34t-105 -91q-30 -43 -50 -114t-20 -150q0 -212 91 -312.5t240 -100.5q195 0 312 162l37 -19q-139 -203 -383 -203q-200 0 -331.5 129.5
t-131.5 314.5q0 192 140 327.5t358 135.5q46 0 76.5 -6t108.5 -32q25 -8 37 -8q16 0 27 8.5t22 36.5h40z" />
    <glyph glyph-name="glyph13" unicode="&#xae;" horiz-adv-x="1556" 
d="M778 1387q179 0 349 -91.5t265.5 -262t95.5 -355.5q0 -184 -94 -353t-263 -262.5t-353 -93.5t-352.5 93.5t-262.5 262.5t-94 353q0 185 95.5 355.5t265.5 262t348 91.5zM778 1326q-163 0 -318 -84t-242 -239.5t-87 -324.5q0 -168 85.5 -322t239.5 -240t322 -86t322.5 86
t240 240t85.5 322q0 169 -87 324.5t-242 239.5t-319 84zM386 1114h386q145 0 221 -65.5t76 -158.5q0 -76 -51.5 -133.5t-170.5 -88.5l209 -298q38 -53 68 -73q19 -12 53 -15v-33h-184l-294 405h-76v-309q6 -33 28.5 -48t89.5 -15v-33h-367v33q48 0 68 11.5t29 33.5
q7 16 7 93v523q0 74 -3 87q-7 23 -25.5 35.5t-63.5 12.5v36zM623 697q118 0 172.5 23t83.5 64.5t29 94.5q0 81 -56.5 136t-144.5 55q-38 0 -84 -16v-357z" />
    <glyph glyph-name="glyph14" horiz-adv-x="381" 
d="M216 450q8 9 21 18t22 17l39 12l27 -88q-9 -3 -19.5 -7t-19.5 -7l-55 1l22.5 -16.5l22.5 -16.5q6 -11 12.5 -19t12.5 -18l-35.5 -26.5l-35.5 -26.5q-6 9 -12 17t-12 17l-17 55q-4 -12 -8.5 -27.5t-8.5 -26.5l-24 -36q-18 13 -35.5 27t-35.5 27q6 9 12.5 17.5t12.5 18.5
l44 33h-53q-11 3 -20.5 7t-20.5 7l13.5 44l13.5 44q10 -3 20 -6.5t20 -6.5l39 -33l2 3q-4 12 -7.5 25t-7.5 24v44h88v-42z" />
    <glyph glyph-name="glyph15" unicode="&#xa81;" 
d="M-176 1339q0 -19 -8.5 -34.5t-22.5 -26.5t-31 -17t-35 -6t-35.5 6.5t-31 17.5t-21.5 27t-8 35t8.5 35t22 26.5t30.5 16.5t35 6t35 -6t31 -17.5t22.5 -27.5t8.5 -35zM172 1362q-11 -68 -52.5 -126t-102.5 -101.5t-135.5 -68t-150.5 -24.5q-85 0 -159 25.5t-131 69t-95 102
t-51 123.5h176q6 -47 28 -86.5t56.5 -68.5t79.5 -45.5t96 -16.5q44 0 89.5 18.5t83.5 48.5t64 69t32 81h172z" />
    <glyph glyph-name="glyph16" unicode="&#xa82;" 
d="M39 1181q0 -19 -7.5 -36t-20.5 -30t-31 -20.5t-38 -7.5q-19 0 -36 7.5t-30 20.5t-20.5 30t-7.5 36q0 20 7 38t20 32t30 22.5t37 8.5q21 0 39 -8.5t30.5 -22.5t20 -32t7.5 -38z" />
    <glyph glyph-name="glyph17" unicode="&#xa83;" horiz-adv-x="461" 
d="M332 783q2 -39 -12 -66t-36.5 -40.5t-49 -14.5t-50 11.5t-40 38t-17.5 65.5q-2 40 12 67t36 41t48.5 15t50 -12t40 -39t18.5 -66zM332 232q2 -40 -12 -67.5t-36 -41.5t-48.5 -15t-50 11.5t-40 38.5t-18.5 66q-2 39 12.5 66.5t36.5 41.5t48.5 15t49.5 -11t39.5 -38
t18.5 -66z" />
    <glyph glyph-name="glyph18" horiz-adv-x="1473" 
d="M1206 0v506h-235v-135q0 -66 -39 -123.5t-99 -100.5t-132 -67.5t-138 -24.5q-74 0 -145 22.5t-127 68t-90.5 113t-34.5 157.5h-98v112h280q36 0 68.5 9t56.5 28t38.5 48t14.5 69q0 37 -13 65.5t-35.5 48t-53 29t-66.5 9.5h-235v102h252q60 0 111 -17.5t88.5 -49t59 -76
t21.5 -99.5q0 -79 -32 -132.5t-83.5 -85.5t-116.5 -46t-132 -14q0 -62 16.5 -111.5t48.5 -84.5t80 -54t111 -19q61 0 115.5 17.5t95.5 51.5t65.5 83.5t24.5 114.5v385h121v-176h237v313h131v-936h-131z" />
    <glyph glyph-name="glyph19" unicode="&#xa85;" horiz-adv-x="1473" 
d="M1206 0v506h-235v-135q0 -66 -39 -123.5t-99 -100.5t-132 -67.5t-138 -24.5q-74 0 -145 22.5t-127 68t-90.5 113t-34.5 157.5h-98v112h280q36 0 68.5 9t56.5 28t38.5 48t14.5 69q0 37 -13 65.5t-35.5 48t-53 29t-66.5 9.5h-235v102h252q60 0 111 -17.5t88.5 -49t59 -76
t21.5 -99.5q0 -79 -32 -132.5t-83.5 -85.5t-116.5 -46t-132 -14q0 -62 16.5 -111.5t48.5 -84.5t80 -54t111 -19q61 0 115.5 17.5t95.5 51.5t65.5 83.5t24.5 114.5v385h121v-176h237v313h131v-936h-131z" />
    <glyph glyph-name="glyph20" unicode="&#xa86;" horiz-adv-x="1862" 
d="M1206 0v506h-235v-135q0 -66 -39 -123.5t-99 -100.5t-132 -67.5t-138 -24.5q-74 0 -145 22.5t-127 68t-90.5 113t-34.5 157.5h-98v112h280q36 0 68.5 9t56.5 28t38.5 48t14.5 69q0 37 -13 65.5t-35.5 48t-53 29t-66.5 9.5h-235v102h252q60 0 111 -17.5t88.5 -49t59 -76
t21.5 -99.5q0 -79 -32 -132.5t-83.5 -85.5t-116.5 -46t-132 -14q0 -62 16.5 -111.5t48.5 -84.5t80 -54t111 -19q61 0 115.5 17.5t95.5 51.5t65.5 83.5t24.5 114.5v385h121v-176h237v313h131v-936h-131zM1588 0v936h129v-936h-129z" />
    <glyph glyph-name="glyph21" unicode="&#xa87;" horiz-adv-x="1018" 
d="M948 834q-49 0 -64.5 -22.5t-15.5 -72.5v-430q0 -73 -30.5 -130.5t-84 -97.5t-126 -61.5t-156.5 -21.5q-75 0 -145 17.5t-124 52.5t-86 87.5t-32 123.5q0 40 13.5 77t36 68t51 55t59.5 37q-65 34 -104.5 84.5t-39.5 124.5q0 45 21.5 83.5t57.5 67t83 44.5t98 16h209v-98
h-153q-37 0 -70.5 -5.5t-59 -20t-40.5 -39.5t-15 -64t14.5 -64t40 -39.5t60.5 -20t76 -5.5h147v-111h-127q-49 0 -90.5 -14t-72 -39t-47.5 -60t-17 -77q0 -56 22.5 -91t58.5 -54.5t82 -26.5t93 -7q57 0 106.5 13t85.5 40t57 68t21 98v422q0 39 11.5 75t34 63t57 43t80.5 16
h106v-104h-82z" />
    <glyph glyph-name="glyph22" unicode="&#xa88;" horiz-adv-x="1018" 
d="M948 1192q-49 0 -64.5 -22.5t-15.5 -71.5v-789q0 -73 -31 -130.5t-84.5 -97.5t-126 -61.5t-155.5 -21.5q-75 0 -145 17.5t-124 53t-86 88.5t-32 124q0 40 13.5 76.5t36 67.5t51 54.5t59.5 36.5q-65 34 -104.5 84.5t-39.5 124.5q0 45 21.5 83.5t57.5 67t83 44.5t98 16h209
v-98h-153q-37 0 -70.5 -5.5t-59 -20t-40.5 -39.5t-15 -64t14.5 -64t40 -39.5t60.5 -20t76 -5.5h147v-111h-127q-49 0 -90.5 -13.5t-72 -38.5t-47.5 -59.5t-17 -76.5q0 -56 22 -91.5t58 -55.5t82 -27t94 -7q57 0 106.5 13t85.5 40t57 68t21 98v781q0 39 11.5 74.5t34 62.5
t57 43t80.5 16h106v-104h-82z" />
    <glyph glyph-name="glyph23" unicode="&#xa89;" horiz-adv-x="1057" 
d="M819 1167q-34 31 -81 51.5t-115 20.5q-84 0 -153.5 -26.5t-119 -74.5t-77 -116t-27.5 -150v-536q0 -59 24 -103.5t63.5 -75t91 -46t105.5 -15.5q39 0 92 10.5t100.5 33.5t80.5 58.5t33 86.5q0 37 -14 72.5t-40 63.5t-63.5 45t-85.5 17h-152v113h152q45 0 79 4.5
t57.5 18.5t35.5 40t12 68q0 34 -12 56.5t-34.5 35.5t-55 18t-74.5 5h-192v102h225q67 0 117.5 -17t85 -46t52 -69t17.5 -85q0 -71 -32 -121t-111 -76q77 -37 123.5 -97.5t46.5 -149.5q0 -54 -20.5 -97t-54.5 -75t-78.5 -55t-93.5 -37t-98.5 -20.5t-92.5 -6.5q-77 0 -151 25
t-132.5 71t-94.5 111t-36 145v528q0 109 38.5 195.5t104.5 146.5t154.5 91.5t189.5 31.5q82 0 149.5 -19.5t110.5 -60.5z" />
    <glyph glyph-name="glyph24" unicode="&#xa8a;" horiz-adv-x="1442" 
d="M1169 0v879q0 76 -42 133.5t-108 96t-146.5 58t-157.5 19.5q-92 0 -176.5 -18t-149.5 -56.5t-104 -98t-39 -141.5v-536q0 -59 24 -103.5t63.5 -75t91 -46t105.5 -15.5q39 0 88.5 12t93 37t73.5 62t30 88t-13.5 90t-37.5 65.5t-57.5 40t-73.5 13.5h-152v112h193
q68 0 105.5 24.5t37.5 80.5q0 60 -39 86.5t-116 26.5h-213v102h225q66 0 116.5 -16.5t85 -45.5t52.5 -68.5t18 -84.5q0 -28 -9 -54.5t-27 -49t-45 -40t-62 -26.5q77 -37 113 -104t36 -154q0 -81 -40.5 -138.5t-102.5 -93.5t-135.5 -52.5t-138.5 -16.5q-77 0 -151 25
t-132.5 71t-94.5 111t-36 145v528q0 74 23.5 133.5t64.5 105.5t97.5 79t122.5 54.5t139 31.5t147 10q63 0 131.5 -10.5t133.5 -32t123 -54.5t102 -78t69.5 -103t25.5 -129v-879h-131z" />
    <glyph glyph-name="glyph25" unicode="&#xa8b;" horiz-adv-x="1679" 
d="M1718 137q-20 -21 -56 -40.5t-77 -35t-81.5 -25t-69.5 -9.5q-58 0 -107 12.5t-84.5 39t-55.5 67.5t-20 98q0 43 16 79.5t44 68t67 57.5t84 49l-92 143l-330 -178v-463h-135v391l-549 -295l-147 92l389 193q-1 69 -10 145t-29 140t-52.5 105.5t-80.5 41.5q-40 0 -73 -32
t-58 -77.5t-42 -94.5t-24 -83l-96 119q16 45 43.5 95t65 92t84 70t100.5 28t95.5 -24t72 -63.5t52 -91.5t35 -107t20 -109.5t8.5 -100.5l196 98v404h135v-338l273 135q-5 17 -8.5 36t-3.5 38q0 26 10 49t27 40.5t40 27.5t49 10q27 0 51 -11t42 -29t28.5 -40.5t10.5 -46.5
q0 -40 -19 -75t-57 -50l180 -272q-48 0 -98.5 -12.5t-91.5 -35t-67 -54t-26 -68.5q0 -53 33 -77t92 -24q36 0 70 10t65 26t57.5 37t47.5 42l57 -117v0z" />
    <glyph glyph-name="glyph26" unicode="&#xa8c;" horiz-adv-x="1331" 
d="M1331 -29l-57.5 -45t-62.5 -39.5t-70 -28t-80 -10.5q-48 0 -99 14t-92 42.5t-67.5 70t-26.5 97.5q0 61 25 103.5t63 74.5t82 57t82 51.5t63 58.5t25 77q0 36 -11.5 68.5t-33.5 56.5t-52.5 38.5t-68.5 14.5q-62 0 -110.5 -32.5t-85 -81t-61.5 -106t-40 -108.5l-118 55
l92 168q-16 24 -39 48t-50 42.5t-56.5 30.5t-59.5 12q-60 0 -104 -22.5t-72.5 -60t-42 -87.5t-13.5 -104q0 -56 27.5 -106.5t72.5 -93t101 -75.5t113 -55l-58 -100q-71 36 -141 81.5t-125 102.5t-89 126t-34 151q0 78 25 143t71 112t110.5 73t142.5 26q40 0 80.5 -12t78 -32
t70 -47.5t57.5 -57.5q34 38 77.5 68.5t92.5 41.5v164h131v-162q51 -12 97 -36.5t81.5 -61t56.5 -83t21 -101.5q0 -65 -24.5 -106.5t-61.5 -70.5t-79.5 -51t-79.5 -47t-61.5 -58.5t-24.5 -86.5q0 -31 13.5 -51t34.5 -32t46.5 -17t50.5 -5q36 0 65 7.5t52 20.5t42 29t35 33
l74 -86v0z" />
    <glyph glyph-name="glyph27" unicode="&#xa8d;" horiz-adv-x="1546" 
d="M1186 1073l-385 469h113l454 -469h-182zM1206 0v506h-235v-135q0 -66 -39 -123.5t-99 -100.5t-132 -67.5t-138 -24.5q-74 0 -145 22.5t-127 68t-90.5 113t-34.5 157.5h-98v112h280q36 0 68.5 9t56.5 28t38.5 48t14.5 69q0 37 -13 65.5t-35.5 48t-53 29t-66.5 9.5h-235
v102h252q60 0 111 -17.5t88.5 -49t59 -76t21.5 -99.5q0 -79 -32 -132.5t-83.5 -85.5t-116.5 -46t-132 -14q0 -62 16.5 -111.5t48.5 -84.5t80 -54t111 -19q61 0 115.5 17.5t95.5 51.5t65.5 83.5t24.5 114.5v385h121v-176h237v313h131v-936h-131z" />
    <glyph glyph-name="glyph28" horiz-adv-x="401" 
d="M-129 801h678v-962h-678v962z" />
    <glyph glyph-name="glyph29" unicode="&#xa8f;" horiz-adv-x="1481" 
d="M1204 978l-470 455h183l424 -455h-137zM1206 0v506h-235v-135q0 -66 -39 -123.5t-99 -100.5t-132 -67.5t-138 -24.5q-74 0 -145 22.5t-127 68t-90.5 113t-34.5 157.5h-98v112h280q36 0 68.5 9t56.5 28t38.5 48t14.5 69q0 37 -13 65.5t-35.5 48t-53 29t-66.5 9.5h-235v102
h252q60 0 111 -17.5t88.5 -49t59 -76t21.5 -99.5q0 -79 -32 -132.5t-83.5 -85.5t-116.5 -46t-132 -14q0 -62 16.5 -111.5t48.5 -84.5t80 -54t111 -19q61 0 115.5 17.5t95.5 51.5t65.5 83.5t24.5 114.5v385h121v-176h237v313h131v-936h-131z" />
    <glyph glyph-name="glyph30" unicode="&#xa90;" horiz-adv-x="1541" 
d="M1202 974l-568 281l152 84l362 -281l-323 371l143 41l361 -496h-127zM1206 0v506h-235v-135q0 -66 -39 -123.5t-99 -100.5t-132 -67.5t-138 -24.5q-74 0 -145 22.5t-127 68t-90.5 113t-34.5 157.5h-98v112h280q36 0 68.5 9t56.5 28t38.5 48t14.5 69q0 37 -13 65.5
t-35.5 48t-53 29t-66.5 9.5h-235v102h252q60 0 111 -17.5t88.5 -49t59 -76t21.5 -99.5q0 -79 -32 -132.5t-83.5 -85.5t-116.5 -46t-132 -14q0 -62 16.5 -111.5t48.5 -84.5t80 -54t111 -19q61 0 115.5 17.5t95.5 51.5t65.5 83.5t24.5 114.5v385h121v-176h237v313h131v-936
h-131z" />
    <glyph glyph-name="glyph31" unicode="&#xa91;" horiz-adv-x="1868" 
d="M1566 1073l-385 469h113l454 -469h-182zM1206 0v506h-235v-135q0 -66 -39 -123.5t-99 -100.5t-132 -67.5t-138 -24.5q-74 0 -145 22.5t-127 68t-90.5 113t-34.5 157.5h-98v112h280q36 0 68.5 9t56.5 28t38.5 48t14.5 69q0 37 -13 65.5t-35.5 48t-53 29t-66.5 9.5h-235
v102h252q60 0 111 -17.5t88.5 -49t59 -76t21.5 -99.5q0 -79 -32 -132.5t-83.5 -85.5t-116.5 -46t-132 -14q0 -62 16.5 -111.5t48.5 -84.5t80 -54t111 -19q61 0 115.5 17.5t95.5 51.5t65.5 83.5t24.5 114.5v385h121v-176h237v313h131v-936h-131zM1588 0v936h129v-936h-129z
" />
    <glyph glyph-name="glyph32" horiz-adv-x="761" 
d="M51 801h678v-962h-678v962z" />
    <glyph glyph-name="glyph33" unicode="&#xa93;" horiz-adv-x="1866" 
d="M1574 978l-470 455h183l424 -455h-137zM1206 0v506h-235v-135q0 -66 -39 -123.5t-99 -100.5t-132 -67.5t-138 -24.5q-74 0 -145 22.5t-127 68t-90.5 113t-34.5 157.5h-98v112h280q36 0 68.5 9t56.5 28t38.5 48t14.5 69q0 37 -13 65.5t-35.5 48t-53 29t-66.5 9.5h-235v102
h252q60 0 111 -17.5t88.5 -49t59 -76t21.5 -99.5q0 -79 -32 -132.5t-83.5 -85.5t-116.5 -46t-132 -14q0 -62 16.5 -111.5t48.5 -84.5t80 -54t111 -19q61 0 115.5 17.5t95.5 51.5t65.5 83.5t24.5 114.5v385h121v-176h237v313h131v-936h-131zM1588 0v936h129v-936h-129z" />
    <glyph glyph-name="glyph34" unicode="&#xa94;" horiz-adv-x="1859" 
d="M1582 974l-568 281l152 84l362 -281l-323 371l143 41l361 -496h-127zM1206 0v506h-235v-135q0 -66 -39 -123.5t-99 -100.5t-132 -67.5t-138 -24.5q-74 0 -145 22.5t-127 68t-90.5 113t-34.5 157.5h-98v112h280q36 0 68.5 9t56.5 28t38.5 48t14.5 69q0 37 -13 65.5
t-35.5 48t-53 29t-66.5 9.5h-235v102h252q60 0 111 -17.5t88.5 -49t59 -76t21.5 -99.5q0 -79 -32 -132.5t-83.5 -85.5t-116.5 -46t-132 -14q0 -62 16.5 -111.5t48.5 -84.5t80 -54t111 -19q61 0 115.5 17.5t95.5 51.5t65.5 83.5t24.5 114.5v385h121v-176h237v313h131v-936
h-131zM1588 0v936h129v-936h-129z" />
    <glyph glyph-name="glyph35" unicode="&#xa95;" horiz-adv-x="1114" 
d="M750 492q43 -22 82.5 -45t68.5 -50t46.5 -59t17.5 -72q0 -71 -30.5 -123.5t-83.5 -87t-125 -52t-155 -17.5q-61 0 -121 14t-115.5 38t-105.5 55t-92 65l56 114q36 -38 81 -71t94.5 -58.5t101.5 -40t101 -14.5q55 0 102 12t80.5 35t52.5 56t19 75q0 35 -23.5 61.5
t-62 48.5t-88.5 41.5l-104 41.5l-443 -68l-22 111l280 43q-35 20 -64 42.5t-51 49t-34 57t-12 66.5q0 55 26.5 95.5t70.5 67t102.5 39.5t123.5 13q45 0 90 -6.5t86 -18t76.5 -26t63.5 -29.5l-33 -98q-63 31 -128 51t-122 20q-38 0 -75 -7t-66 -23t-47.5 -40.5t-18.5 -58.5
q0 -25 16.5 -47t44.5 -42t66 -38.5t80 -36.5l500 76l26 -108z" />
    <glyph glyph-name="glyph36" unicode="&#xa96;" horiz-adv-x="1253" 
d="M978 0v528h-253v-41q0 -41 -19 -86t-56.5 -83.5t-92 -63.5t-125.5 -25q-68 0 -122 22t-91.5 59.5t-57.5 87t-20 104.5v270q0 25 -11 42t-42 17h-88v105h123q37 0 64.5 -13.5t46.5 -36t28.5 -53.5t9.5 -65v-274q0 -36 10.5 -66.5t30.5 -53t50 -35.5t69 -13q78 0 122 45
t44 121v299h125v-150h255v295h129v-936h-129z" />
    <glyph glyph-name="glyph37" unicode="&#xa97;" horiz-adv-x="1253" 
d="M750 584q0 -72 -22 -137.5t-65 -114.5t-107 -78t-148 -29q-45 0 -91 14.5t-87.5 39t-75 57t-54.5 67.5l68 107q31 -82 92 -129t148 -47q49 0 88.5 19t67 52t42.5 79t15 100q0 51 -17 92t-48.5 70t-76 45t-100.5 16t-93.5 -15.5t-74.5 -37.5v112q35 17 74.5 31t93.5 14
q88 0 157 -25t116.5 -69.5t72.5 -104t25 -128.5zM968 0v936h129v-936h-129z" />
    <glyph glyph-name="glyph38" unicode="&#xa98;" horiz-adv-x="1111" 
d="M848 0v206q-33 -27 -68.5 -50t-75 -40t-84.5 -26.5t-96 -9.5q-85 0 -161.5 19t-134.5 55t-92 89t-34 122t37.5 117.5t102.5 80.5q-62 20 -100 62t-38 108q0 56 29 99.5t77 73.5t108.5 45.5t123.5 15.5q34 0 63 -3.5t56 -10t53 -15l54 -18.5v-105q-45 22 -90 33.5
t-101 11.5q-50 0 -93 -7.5t-74.5 -23.5t-49.5 -41.5t-18 -62.5q0 -28 12 -49t32.5 -35.5t46.5 -21.5t54 -7h266v-108h-231q-38 0 -71 -11t-58.5 -31t-40 -47.5t-14.5 -60.5q0 -41 26.5 -71.5t67 -50.5t89 -29.5t93.5 -9.5q89 0 176 44t158 119v580h129v-936h-129z" />
    <glyph glyph-name="glyph39" unicode="&#xa99;" horiz-adv-x="1145" 
d="M1077 651q0 -22 -9 -41.5t-24.5 -33.5t-35.5 -22.5t-41 -8.5q-23 0 -42.5 8.5t-33.5 22.5t-22.5 33.5t-8.5 41.5t8.5 42t22.5 35.5t33.5 24.5t42.5 9t43 -9t35 -24t23.5 -35.5t8.5 -42.5zM913 256q0 -71 -34.5 -120.5t-94 -80.5t-138.5 -45t-167 -14q-64 0 -117.5 10
t-101.5 28.5t-91.5 44t-86.5 56.5l55 115q34 -32 76 -59.5t87 -48t91 -32.5t88 -12q55 0 108 9.5t94.5 29t67 49t25.5 70.5q0 52 -26.5 86.5t-70.5 58.5t-100 41l-114 34t-114 37.5t-100 51t-70.5 74.5t-26.5 109q0 56 32 96.5t82 67t111 39t119 12.5q34 0 71.5 -4t75 -11.5
t73 -18t66.5 -22.5l-32 -98q-51 23 -104 35t-118 12q-44 0 -84.5 -5.5t-72.5 -18.5t-51 -36t-19 -57q0 -42 26.5 -70t69.5 -48t98 -35.5l112 -32.5t112 -39.5t98 -56.5t69.5 -82.5t26.5 -118.5z" />
    <glyph glyph-name="glyph40" unicode="&#xa9a;" horiz-adv-x="1161" 
d="M888 0v193q-16 -14 -47 -36.5t-74.5 -43.5t-98 -36.5t-115.5 -15.5q-81 0 -141 19.5t-102 51t-68.5 71.5t-41.5 80t-20.5 76.5t-5.5 62.5h-129v108h346q15 0 43.5 5.5t56.5 21t48.5 44t19.5 73.5q-1 42 -14 70t-35.5 44.5t-52.5 23.5t-64 7h-280v103h323q61 0 110 -20
t82 -54.5t49.5 -82t14.5 -101.5q-2 -60 -27 -101.5t-62.5 -69t-82 -43t-86 -22.5t-75.5 -8t-50 0q0 -38 10 -80t37.5 -78t75.5 -59.5t123 -24.5q51 -1 102.5 16t96.5 42t80 53.5t54 50.5v596h129v-936h-129z" />
    <glyph glyph-name="glyph41" unicode="&#xa9b;" horiz-adv-x="1206" 
d="M1126 555q0 -77 -19 -151t-54.5 -140.5t-86 -122.5t-113 -97t-136 -64t-154.5 -23q-53 0 -107 7.5t-105 24t-95.5 44t-78 66.5t-52.5 91t-19 119q0 79 39.5 137t104.5 82q-37 11 -67.5 27.5t-53 40.5t-35 56.5t-12.5 74.5q0 45 20.5 83.5t54.5 66.5t76 43.5t86 15.5h207
v-98h-153q-32 0 -60 -7t-48.5 -21t-32 -37t-11.5 -54q0 -37 15 -62.5t41 -41t61 -22.5t76 -7h106v-105h-76q-92 0 -144 -44t-52 -140q0 -63 30.5 -107.5t77 -72.5t100.5 -41t101 -13q69 0 125.5 17t101.5 47.5t79 72t59 89.5q-55 36 -104 77.5t-85.5 88t-58 98.5t-21.5 109
q0 54 15 105.5t44.5 91t72 63.5t98.5 24q81 0 129 -34.5t73.5 -90.5t33 -126t7.5 -140zM999 651q0 39 -5.5 74.5t-19 62.5t-35.5 43.5t-56 16.5q-32 0 -53 -15.5t-34 -41t-18.5 -57.5t-5.5 -64q0 -43 17 -86.5t44 -82.5t60 -71.5t65 -54.5q22 66 31.5 137t9.5 139z" />
    <glyph glyph-name="glyph42" unicode="&#xa9c;" horiz-adv-x="1204" 
d="M1186 836q-36 -30 -78.5 -70.5t-86 -87l-85.5 -95.5t-76 -96q32 -71 50 -139t18 -125q0 -41 -6.5 -81t-23 -71.5t-46 -51t-74.5 -19.5q-41 0 -69.5 16.5t-46.5 44t-26.5 64.5t-8.5 78q0 71 25 140.5t67 137.5q-38 57 -85 120t-97 116.5t-101 88t-96 34.5t-76 -17
t-50.5 -45.5t-28.5 -65t-9 -75.5q0 -41 10 -76t31 -60.5t53 -40t76 -14.5q38 0 73.5 15.5t63.5 40.5v-129q-32 -25 -64.5 -33t-72.5 -8q-61 0 -114.5 25t-93.5 67.5t-63.5 97.5t-23.5 115q0 63 20 119.5t56.5 99t89.5 67.5t119 25q67 0 132 -28.5t125 -76.5t113.5 -111.5
t96.5 -133.5q39 50 81.5 97.5l85 91.5l82 85l72.5 78l62 -114v0z" />
    <glyph glyph-name="glyph43" unicode="&#xa9d;" horiz-adv-x="1167" 
d="M1100 389q0 -38 -7 -82.5t-22 -88.5t-38 -85t-54.5 -72t-73 -50t-92.5 -19q-54 0 -91.5 13t-66.5 38v100q29 -24 55 -36.5t66 -12.5q56 0 92.5 28.5t57.5 73t29 99t8 106.5q0 47 -10.5 91t-34.5 78.5t-62 55.5t-92 21q-35 0 -73.5 -17t-69.5 -40q6 -56 6 -109
q0 -52 -9.5 -108t-29.5 -110.5t-51.5 -103.5t-74 -86t-97.5 -59t-123 -22q-50 0 -98 16t-93 39v119q37 -28 76.5 -47t93.5 -19q78 0 130 34t82.5 88.5t43 122.5t12.5 136q0 64 -9.5 128t-34.5 116t-67.5 84.5t-109.5 32.5q-45 0 -91.5 -17.5t-84.5 -48.5v125q41 17 84 27
t103 10q69 0 122 -20t92 -54.5t65.5 -80.5t41.5 -99q15 13 33.5 25.5t39.5 22t43 15t44 5.5q28 0 59.5 -5.5t57.5 -11.5q16 8 31.5 19t27.5 25.5t19.5 31.5t7.5 37q0 18 -2.5 35.5t-10.5 40.5h146q0 -46 -6 -82t-21 -63.5t-40 -49t-62 -39.5q34 -28 59.5 -63t41.5 -74.5
t24 -81t8 -82.5z" />
    <glyph glyph-name="glyph44" unicode="&#xa9e;" horiz-adv-x="1276" 
d="M1008 0v471h-252q-2 -14 -8.5 -46.5t-23 -74t-44.5 -85.5t-72 -81t-106 -60.5t-146 -23.5q-41 0 -86 13t-86.5 32t-76 40.5t-54.5 37.5l43 121l58 -44.5t61 -40.5t61.5 -29t59.5 -11q62 0 115 20.5t91.5 61t60.5 100.5t24 138q0 51 -13.5 92t-37 74t-54 57t-63 40
t-64.5 24t-59 8q-50 0 -91 -15.5t-87 -40.5l-17 121q34 23 89.5 37t115.5 14q86 0 149.5 -23.5t108.5 -59.5t74 -79.5t45.5 -84.5t23.5 -74t9 -47h252v354h129v-936h-129z" />
    <glyph glyph-name="ch173" unicode="&#xa9f;" horiz-adv-x="977" 
d="M905 150q-38 -40 -76.5 -70t-84.5 -50t-101 -30t-125 -10q-90 0 -169 17.5t-138.5 54.5t-94 94.5t-34.5 136.5q0 58 25.5 101t67.5 75t96 54.5t110 40.5t110 33t96 31t67.5 35.5t25.5 45.5q0 33 -17 56.5t-45.5 39t-66 22.5t-78.5 7q-54 0 -113 -15.5t-122 -50.5l-15 117
q28 10 60.5 19.5t65.5 16.5t65 11t59 4q66 0 128 -14.5t110 -43t77 -69.5t29 -94q0 -49 -25.5 -83.5t-67 -59.5t-95 -43t-109 -34.5l-108.5 -33.5t-94.5 -39.5t-67 -53.5t-25.5 -75q0 -107 70 -153t215 -46q50 0 97 13t90 36t80 55.5t67 71.5l61 -120v0z" />
    <glyph glyph-name="ch174" unicode="&#xaa0;" horiz-adv-x="1001" 
d="M965 295q0 -81 -37 -138.5t-98 -93.5t-139.5 -52.5t-160.5 -16.5q-98 0 -182 17.5t-145.5 56.5t-97 100.5t-35.5 148.5q0 47 26 88t67 75.5t90.5 61t96.5 44.5q-57 29 -93 68t-36 98q0 57 28.5 95.5t76.5 62t109.5 34t127.5 10.5q59 0 117.5 -14t114.5 -33v-121
q-51 34 -113.5 49t-118.5 15q-38 0 -73 -4.5t-62.5 -17t-44 -33.5t-16.5 -54t25.5 -56t67.5 -41.5t96 -34t110 -33.5t110 -41t96 -55.5t67.5 -77.5t25.5 -107zM829 295q0 35 -15.5 62.5t-42 50t-62 40t-76 33t-84.5 29.5t-86 29q-44 -17 -89.5 -43.5t-83 -59.5t-61.5 -70.5
t-24 -76.5q0 -51 26.5 -87t71 -59t103.5 -34t124 -11q59 0 113 11.5t95.5 35.5t66 61.5t24.5 88.5z" />
    <glyph glyph-name="ch175" unicode="&#xaa1;" horiz-adv-x="954" 
d="M913 256q0 -71 -34.5 -120.5t-94 -80.5t-138.5 -45t-167 -14q-66 0 -122 11t-104.5 30t-90.5 44t-80 54l55 115q35 -32 73.5 -60t80.5 -48.5t89 -32t99 -11.5q55 0 108.5 9.5t94.5 29t66.5 49t25.5 70.5q0 52 -26.5 86.5t-70.5 59.5t-100 43l-114 36t-114 39.5t-100 53
t-70.5 76.5t-26.5 110q0 45 27 83t72 66t103.5 44t120.5 16q90 0 167 -23.5t140 -54.5l-32 -98l-52.5 25.5t-55 22.5t-61.5 15.5t-73 5.5q-38 0 -75 -6.5t-66 -21t-47.5 -38t-18.5 -57.5q0 -42 26.5 -70t69.5 -48t98 -35.5l112 -32.5t112 -39.5t98 -56.5t69.5 -82.5
t26.5 -118.5z" />
    <glyph glyph-name="glyph48" unicode="&#xaa2;" horiz-adv-x="944" 
d="M874 221q0 -42 -17.5 -76t-46.5 -59.5t-66.5 -43.5t-77.5 -29.5t-79.5 -17t-72.5 -5.5q-51 0 -103 7.5t-100 23.5t-90 41t-73.5 60t-49.5 80t-18 101q0 63 25 107.5t66 76t93.5 53t107.5 37.5t107.5 29.5t93.5 29t66 35.5t25 50q0 40 -16.5 67t-45 43.5t-67.5 23.5t-84 7
q-38 0 -71 -4.5t-63 -12.5t-58.5 -19l-57.5 -23v112q55 20 114.5 33t135.5 13q71 0 136 -16.5t114.5 -48.5t78.5 -81t29 -113q0 -50 -25.5 -82.5t-67 -54.5t-94.5 -36t-108 -26.5t-108 -26.5t-94.5 -36t-67 -54.5t-25.5 -82.5q0 -54 21 -92t57.5 -62t85.5 -34.5t104 -10.5
q10 0 20 3l21 6q0 44 15.5 89.5t43.5 82t68 59.5t88 23q63 0 97 -37.5t34 -108.5z" />
    <glyph glyph-name="glyph49" unicode="&#xaa3;" horiz-adv-x="1296" 
d="M893 623q0 -67 -22.5 -125t-62.5 -100.5t-96.5 -66.5t-123.5 -24q-18 0 -41 2.5t-46.5 8t-45 12.5t-37.5 16v123q17 -8 30 -15t26.5 -12t29 -8.5t37.5 -3.5q42 0 81 10.5t68.5 32t47.5 55.5t18 82q0 93 -49.5 148t-145.5 55q-35 0 -72.5 -10t-66.5 -29v125
q42 14 84.5 23.5t85.5 9.5q64 0 119 -24.5t95.5 -67t63.5 -98.5t23 -119zM909 39q-36 -15 -78 -27.5t-84.5 -22t-84.5 -15t-78 -5.5q-92 0 -175.5 28.5t-146.5 82t-100 130.5t-37 175v551h129v-555q0 -62 26 -117.5t69 -97.5t99 -67t117 -25q42 0 83.5 6.5t80.5 18
t73.5 27.5t61.5 34zM1028 0v936h129v-936h-129z" />
    <glyph glyph-name="glyph50" unicode="&#xaa4;" horiz-adv-x="1106" 
d="M828 0v608h-263q-70 0 -129.5 -14t-103.5 -43.5t-69 -75t-25 -108.5q0 -136 85 -201.5t236 -65.5q29 0 59 10l58 19v-106q-15 -9 -34 -14.5t-39 -9.5t-39 -5.5t-34 -1.5q-95 0 -173.5 26t-134.5 75t-87 118.5t-31 155.5q0 76 35.5 141.5t93.5 113t132 74.5t151 27h312
v213h129v-936h-129z" />
    <glyph glyph-name="ch179" unicode="&#xaa5;" horiz-adv-x="1143" 
d="M868 0v246q-32 -26 -70.5 -50.5t-80.5 -44t-85 -31t-83 -11.5q-78 0 -159 22t-148 66t-109.5 110.5t-42.5 155.5q0 42 13.5 59.5t34.5 22t48 1.5t54 -3q26 0 60 2.5t69.5 10t69 20t60 31.5t42.5 46t16 64q0 33 -9 62.5t-27 51.5t-45 35t-62 13q-65 0 -99 -31t-34 -96
q0 -34 21 -63.5t50 -45.5h-127q-18 8 -31.5 23.5t-22.5 35t-14 41.5t-5 43q0 52 22 90.5t57.5 63.5t80.5 37t91 12q56 0 107.5 -18.5t90.5 -53t62 -83t23 -107.5q0 -62 -26 -113.5t-69 -88.5t-97.5 -58t-112.5 -21q-17 0 -41.5 3t-47.5 1.5t-39.5 -11.5t-16.5 -36
q0 -30 15 -55t39 -45t55 -35t63 -25t62 -15t54 -5q41 0 90 12t96.5 34t89.5 53t68 69v545h129v-936h-129z" />
    <glyph glyph-name="glyph52" unicode="&#xaa6;" horiz-adv-x="891" 
d="M852 219q-32 -29 -74 -55.5t-91.5 -47.5t-105.5 -33.5t-114 -12.5q-68 0 -133.5 19.5t-117.5 56t-84 88t-32 116.5q0 42 11 74.5t30.5 57.5t47 43.5t61.5 33.5q-34 6 -61.5 23t-47 41t-30.5 54.5t-11 63.5q0 53 26 95.5t69.5 72.5t99.5 46t117 16q35 0 68.5 -6t64 -15.5
t57.5 -21t49 -23.5v-114q-32 18 -60 31.5t-57 23.5t-60.5 15t-70.5 5q-32 0 -60.5 -9.5t-50 -27t-34 -43t-12.5 -57.5q0 -29 14.5 -50t38.5 -34.5t53.5 -20t59.5 -6.5h211v-112h-201q-37 0 -70 -10.5t-58 -30.5t-39.5 -49t-14.5 -66q0 -42 16.5 -75t46.5 -56t71.5 -35
t92.5 -12q57 0 111 15t103 39t92.5 55.5t78.5 64.5v-127v0z" />
    <glyph glyph-name="glyph53" unicode="&#xaa7;" horiz-adv-x="1131" 
d="M858 0v199q-35 -31 -78.5 -57t-91 -45t-96 -29.5t-92.5 -10.5q-75 0 -148 15.5t-131.5 51.5t-94.5 95.5t-36 147.5q0 39 16.5 71t42.5 57t59 43.5t66 30.5q-29 8 -62.5 21.5t-62.5 34t-48 48t-19 62.5q0 45 25 84.5t65 73.5t91 62t104 49.5t102 37.5t86 25l51 -98
q-27 -5 -65 -14t-79.5 -23t-82.5 -33.5t-74 -44.5t-53.5 -55.5t-20.5 -67.5q0 -32 28 -52t71.5 -30.5t95.5 -14t100 -3.5t85 2t51 2v-111h-228q-37 0 -73.5 -15.5t-66 -41t-47.5 -60t-18 -71.5q0 -49 28.5 -80.5t70 -49.5t88.5 -25t84 -7q38 0 85 12t95.5 33.5t95 52.5
t82.5 70v594h129v-936h-129z" />
    <glyph glyph-name="glyph54" unicode="&#xaa8;" horiz-adv-x="1190" 
d="M908 0v629h-259q37 -32 52.5 -78t15.5 -94q0 -44 -21.5 -84.5t-61.5 -72t-97.5 -50.5t-128.5 -19q-78 0 -139 20t-103 54.5t-64 82t-22 101.5q0 58 24 105.5t63.5 81t91 51.5t106.5 18h543v191h129v-936h-129zM590 483q0 50 -17.5 87t-60.5 59q-3 3 -25.5 5.5t-54 0.5
t-67 -9.5t-66 -24.5t-50.5 -45.5t-20 -70.5q0 -37 15 -64.5t39 -46t55.5 -27.5t64.5 -9q34 0 67.5 10.5t60 29t43 45.5t16.5 60z" />
    <glyph glyph-name="glyph55" horiz-adv-x="1190" 
d="M908 0v629h-259q37 -32 52.5 -78t15.5 -94q0 -44 -21.5 -84.5t-61.5 -72t-97.5 -50.5t-128.5 -19q-78 0 -139 20t-103 54.5t-64 82t-22 101.5q0 58 24 105.5t63.5 81t91 51.5t106.5 18h543v191h129v-936h-129zM590 483q0 50 -17.5 87t-60.5 59q-3 3 -25.5 5.5t-54 0.5
t-67 -9.5t-66 -24.5t-50.5 -45.5t-20 -70.5q0 -37 15 -64.5t39 -46t55.5 -27.5t64.5 -9q34 0 67.5 10.5t60 29t43 45.5t16.5 60zM806 107q0 -21 -8 -39t-21.5 -31.5t-31.5 -21t-39 -7.5t-39 8t-31.5 21.5t-21.5 31.5t-8 38q0 42 29 71t71 29t71 -28t29 -70v-2z" />
    <glyph glyph-name="glyph56" unicode="&#xaaa;" horiz-adv-x="961" 
d="M688 0v262l-31 -19.5t-48.5 -25t-65 -22t-78.5 -9.5q-44 0 -97 21t-99.5 59.5t-77.5 92.5t-31 120v318q0 21 -5.5 27.5t-25.5 6.5h-92v105h110q36 0 64 -14t46.5 -37t28 -53.5t9.5 -63.5v-295q0 -31 14 -60t40 -51.5t62 -36.5t81 -14q25 0 53.5 8.5t55.5 21t50 26
t37 22.5v547h129v-936h-129z" />
    <glyph glyph-name="glyph57" unicode="&#xaab;" horiz-adv-x="1114" 
d="M750 492q43 -22 82 -46.5t68 -53.5t46 -62.5t17 -73.5q0 -71 -35 -120.5t-94 -80.5t-138.5 -45t-167.5 -14h-4l314 -205h-242l-225 223q-68 19 -125.5 50t-114.5 71l55 115q34 -32 72.5 -59.5t81 -48t90 -32.5t98.5 -12q55 0 108.5 9.5t94.5 29t66.5 49t25.5 70.5
q0 34 -23 62t-61.5 52t-88 45.5l-103.5 43.5l-443 -68l-22 111l280 43q-35 20 -64 42.5t-51 49t-34 57t-12 66.5q0 55 29.5 93.5t78 63t110 35.5t126.5 11q34 0 72 -4t75.5 -11.5t73 -18t65.5 -22.5l-32 -98q-51 23 -103.5 35t-117.5 12q-44 0 -85 -5.5t-73 -18.5t-51 -36
t-19 -57q0 -25 16.5 -47t44.5 -42t66 -38.5t80 -36.5l500 76l26 -108z" />
    <glyph glyph-name="glyph58" unicode="&#xaac;" horiz-adv-x="1333" 
d="M1059 0v549h-234v-19q0 -63 -26 -126t-73 -114t-113 -82.5t-146 -31.5q-99 0 -169.5 33.5t-115 91.5t-65.5 135.5t-21 165.5q0 72 22 140t64 121t103 85.5t139 32.5q49 0 83 -13.5t66 -33.5v-107q-35 25 -65 35t-70 10q-48 0 -87 -26.5t-66 -68.5t-41.5 -93.5
t-14.5 -101.5q0 -72 12 -126.5t38.5 -91.5t68.5 -56t101 -19q57 0 103.5 19.5t78.5 54.5t49.5 84t17.5 108v209h125v-105h236v277h129v-936h-129z" />
    <glyph glyph-name="glyph105" unicode="&#xaad;" horiz-adv-x="1401" 
d="M1118 0v444h-317q0 -37 -5 -69.5t-20 -56.5t-42 -38t-70 -14q-32 0 -60 11.5t-49 32.5t-33 49t-12 61q0 71 38.5 111t110.5 40v131q0 35 -12 66.5t-33.5 55.5t-51.5 38.5t-66 14.5q-47 0 -84 -17t-64.5 -46.5t-46.5 -68t-31 -82t-17 -89.5t-5 -89q0 -55 7.5 -112
t23.5 -112.5t40 -108t56 -97.5h-117q-35 52 -61 104t-44 105.5t-27 110.5t-9 119q0 87 21.5 173t67 154t115.5 110t168 42q75 0 133 -23.5t97.5 -63t60.5 -92.5t21 -112v-113h317v367h129v-936h-129z" />
    <glyph glyph-name="glyph106" unicode="&#xaae;" horiz-adv-x="1054" 
d="M778 0v440h-336v-39q0 -27 -11 -53.5t-31.5 -46.5t-50.5 -32.5t-68 -12.5q-32 0 -59.5 11t-47.5 31t-31.5 48t-11.5 62q0 40 14 68.5t37.5 47t54.5 26t66 5.5v211q0 40 -23 54t-61 14h-147v98h155q104 0 159.5 -44.5t55.5 -121.5v-211h336v381h129v-936h-129z" />
    <glyph glyph-name="glyph61" unicode="&#xaaf;" horiz-adv-x="1143" 
d="M868 0v239q-37 -22 -80.5 -42.5t-89 -36t-92 -24.5t-88.5 -9q-81 0 -159.5 24t-140.5 70.5t-100 115t-38 157.5q0 21 9 39.5t24 32t34.5 21t40.5 7.5q54 0 107.5 -6t107.5 -6q31 0 60 4.5t51.5 17t35.5 35.5t13 61q0 42 -18.5 68.5t-47 41.5t-63.5 20.5t-69 5.5h-226v104
h307q51 0 98 -20.5t82.5 -55t57 -80t21.5 -94.5q0 -54 -24 -96t-63 -70t-88 -42.5t-98 -14.5q-38 0 -76.5 9t-76.5 9q-22 0 -32.5 -8.5t-10.5 -30.5q0 -51 27.5 -90t69.5 -65.5t91 -40.5t92 -14q41 0 90 9.5t98 27.5t92 43t72 56v564h129v-936h-129z" />
    <glyph glyph-name="glyph62" unicode="&#xab0;" horiz-adv-x="969" 
d="M455 -4q-57 0 -85 25.5t-44 66.5l-111 283h-115v133h406q50 0 90.5 7.5t69.5 25t45 47.5t16 75q0 42 -16.5 71t-46.5 47t-71 26t-89 8h-365v125h383q79 0 144.5 -21t113 -58t73.5 -88t26 -110q0 -81 -34.5 -136.5t-91 -89t-128 -48t-146.5 -14.5h-100l82 -199
q9 -22 18 -32.5t37 -10.5h383v-133h-444z" />
    <glyph glyph-name="glyph63" horiz-adv-x="993" 
d="M455 -4q-57 0 -85 25.5t-44 66.5l-111 283h-115v133h406q50 0 90.5 7.5t69.5 25t45 47.5t16 75q0 42 -16.5 71t-46.5 47t-71 26t-89 8h-365v125h383q79 0 144.5 -21t113 -58t73.5 -88t26 -110q0 -81 -34.5 -136.5t-91 -89t-128 -48t-146.5 -14.5h-100l82 -199
q9 -22 18 -32.5t37 -10.5h383v-133h-444zM168 32q0 -21 -8 -39t-21.5 -31.5t-31.5 -21t-39 -7.5t-39 8t-31.5 21.5t-21.5 31.5t-8 38q0 42 29 71t71 29t71 -28t29 -70v-2z" />
    <glyph glyph-name="glyph64" unicode="&#xab2;" horiz-adv-x="1131" 
d="M698 41q-37 -14 -77.5 -20.5t-77.5 -6.5q-83 0 -167 34.5t-152 97t-111 149.5t-43 192q0 55 15 111t43 107.5t68 96.5t91.5 78.5t113 52.5t131.5 19q49 0 85.5 -5t80.5 -23v-111q-6 1 -24 5t-39.5 8t-43 7t-34.5 3q-75 0 -139 -27.5t-110.5 -75t-72.5 -111t-26 -135.5
q0 -84 33 -149.5t87.5 -110.5t126 -68.5t148.5 -23.5q22 0 49.5 8.5t44.5 22.5v-125zM858 0v426h-373v119h373v391h129v-936h-129z" />
    <glyph glyph-name="glyph65" unicode="&#xab3;" horiz-adv-x="1276" 
d="M1014 0v682q0 32 -5.5 62t-19 52.5t-36 36t-56.5 13.5q-64 0 -95 -32t-43.5 -84.5t-12.5 -119t-1.5 -136.5t-11.5 -136.5t-42 -119t-93 -84.5t-164 -32q-96 0 -160.5 35t-103.5 94.5t-55.5 138.5t-16.5 167q0 79 13 154t44 133t83.5 93t130.5 35q45 0 76.5 -10t60.5 -24
v-107q-28 17 -55 26t-56 9q-56 0 -90.5 -23t-53.5 -64.5t-25.5 -100t-6.5 -130.5q0 -75 9.5 -135.5t33.5 -103t65 -65.5t103 -23q58 0 93.5 20.5t55 56t27.5 83t11 100.5t4 109.5t7.5 109.5t22 100.5t46 83t80.5 56t126 20.5q72 0 119 -20t75.5 -53.5t40 -78t11.5 -92.5
v-696h-135z" />
    <glyph glyph-name="glyph66" horiz-adv-x="1230" 
d="M446 28q0 -21 -8 -39t-21.5 -31.5t-31.5 -21t-39 -7.5t-39 8t-31.5 21.5t-21.5 31.5t-8 38q0 42 29 71t71 29t71 -28t29 -70v-2zM1014 0v682q0 32 -5.5 62t-19 52.5t-36 36t-56.5 13.5q-64 0 -95 -32t-43.5 -84.5t-12.5 -119t-1.5 -136.5t-11.5 -136.5t-42 -119
t-93 -84.5t-164 -32q-96 0 -160.5 35t-103.5 94.5t-55.5 138.5t-16.5 167q0 79 13 154t44 133t83.5 93t130.5 35q45 0 76.5 -10t60.5 -24v-107q-28 17 -55 26t-56 9q-56 0 -90.5 -23t-53.5 -64.5t-25.5 -100t-6.5 -130.5q0 -75 9.5 -135.5t33.5 -103t65 -65.5t103 -23
q58 0 93.5 20.5t55 56t27.5 83t11 100.5t4 109.5t7.5 109.5t22 100.5t46 83t80.5 56t126 20.5q72 0 119 -20t75.5 -53.5t40 -78t11.5 -92.5v-696h-135z" />
    <glyph glyph-name="glyph67" unicode="&#xab5;" horiz-adv-x="1026" 
d="M758 0v210q-30 -23 -64.5 -42t-70.5 -33.5t-73 -22.5t-73 -8q-87 0 -157.5 31.5t-119.5 84.5t-75.5 122.5t-26.5 146.5q0 75 29 137.5t79 107.5t116 70t141 25q19 0 41.5 -3t45 -8.5t44 -12.5t39.5 -14l-21 -113q-32 14 -67 21.5t-58 7.5q-121 0 -189.5 -59t-68.5 -169
q0 -53 17 -98.5t48.5 -78.5t76.5 -52t102 -19q68 0 143 30t142 96v579h129v-936h-129z" />
    <glyph glyph-name="glyph68" unicode="&#xab6;" horiz-adv-x="1256" 
d="M780 639q0 -75 -27.5 -133t-74 -100t-107.5 -68.5t-129 -38.5q42 -14 89 -43t87 -69t66.5 -88t26.5 -99h-156q0 47 -16.5 86t-44 70.5t-63 54.5t-72.5 38.5t-72.5 23.5t-63.5 8h-139v112h278q54 0 104.5 18t90 51t63 79.5t23.5 103.5q0 47 -14.5 89.5t-42.5 74.5t-69 51
t-93 19q-38 0 -70.5 -10t-56.5 -29.5t-37.5 -47t-13.5 -61.5q0 -46 32 -75t80 -29q40 0 63.5 17t43.5 40l72 -72q-31 -40 -82 -66t-107 -26q-50 0 -93 16t-74.5 44.5t-49.5 69t-18 89.5q0 59 24.5 106t66 79.5t94.5 49.5t110 17q85 0 154 -24t117.5 -69.5t74.5 -111
t26 -147.5zM978 0v936h129v-936h-129z" />
    <glyph glyph-name="glyph69" unicode="&#xab7;" horiz-adv-x="1018" 
d="M738 0v327q-12 -19 -37 -44.5t-59 -48t-75 -38.5t-86 -16q-50 0 -109 17.5t-110 50.5t-85 81t-34 109v350q0 22 -8 32.5t-31 10.5h-104v105h195l543 -430v430h129v-936h-129zM281 780v-327q0 -34 18 -62t47 -48t65.5 -31t73.5 -11q45 0 81 15t64 37.5t47.5 49.5t31.5 52z
" />
    <glyph glyph-name="glyph70" unicode="&#xab8;" horiz-adv-x="1312" 
d="M1028 0v543h-252q-21 -51 -61.5 -84.5t-91 -53t-107 -27t-110.5 -7.5h-27l82 -199q9 -22 18 -32.5t37 -10.5h279v-133h-340q-57 0 -85 25.5t-44 66.5l-111 283h-115v133h365q24 0 55 5.5t58.5 21t46.5 44t20 74.5q0 44 -15.5 74.5t-42 50t-62.5 28.5t-76 9h-310v125h369
q56 0 106 -20t88.5 -55.5t63 -83t29.5 -101.5h233v260h129v-936h-129z" />
    <glyph glyph-name="glyph71" unicode="&#xab9;" horiz-adv-x="1044" 
d="M963 455q0 -56 -19.5 -101t-56.5 -76.5t-89.5 -49t-119.5 -17.5q-29 0 -60 5t-61.5 13.5t-59 20.5t-51.5 26l25 111q46 -35 90 -54.5t92 -19.5q42 0 74.5 12t55 32.5t34.5 47.5t12 58q0 36 -21 59.5t-58.5 38t-90 20t-114.5 5.5q-57 0 -110 -19.5t-94.5 -53.5t-66 -81
t-24.5 -102q0 -67 23 -119t63.5 -87.5t96 -54t120.5 -18.5q52 0 106 12t104 31t94.5 43.5t78.5 48.5l-12 -116q-75 -59 -164.5 -91t-204.5 -32q-84 0 -163.5 26.5t-141 77t-98.5 122.5t-37 163q0 50 18.5 101t52.5 95.5t81.5 78.5t105.5 51q-37 30 -59.5 70.5t-22.5 88.5
q0 43 25.5 75t66 53t91 31.5t101.5 10.5q26 0 56 -5.5t60 -15t59 -21t53 -23.5l-21 -109q-57 37 -110.5 59.5t-106.5 22.5q-57 0 -96 -29.5t-39 -85.5q0 -19 7 -34.5t17.5 -28t24 -21.5t25.5 -16q11 2 21 2h20q82 0 157.5 -14.5t133.5 -43t92.5 -72t34.5 -101.5z" />
    <glyph glyph-name="glyph72" horiz-adv-x="550" 
d="M465 471v-98q28 -17 47 -47t19 -59q0 -53 -25.5 -97t-89.5 -85q-14 15 -25 32t-25 32q25 14 47 29t38 32t25 36.5t9 42.5q0 25 -14 38.5t-37 13.5q-21 0 -41.5 -13t-39.5 -34t-34 -47t-24 -51l-58 49l24 39q-9 12 -27 21.5t-39 9.5q-28 0 -52.5 -19t-24.5 -51
q0 -38 17 -70t43 -59t57 -49.5t60 -40.5l-13 -14.5t-13 -15.5q-33 22 -71 51t-70.5 63.5t-53.5 74t-21 84.5q0 23 9 43t24 34.5t35.5 23t43.5 8.5q31 0 55 -16t44 -36l17 -17q30 39 63 57.5t56 24.5v80h-407l-32 59h592l29 -59h-117z" />
    <glyph glyph-name="glyph73" horiz-adv-x="466" 
d="M395 425l-101 72l8 -71l8 -70q1 -6 0 -10t-3 -3q-2 0 -4 1q-3 0 -5 2h1q-13 5 -26 12t-26 12l17 124l-57 -38.5l-57 -38.5q-9 -7 -13 -7l-2 12l-2 25l-2 25l113 48l-67 23l-67 24l-12 5q0 1 1 2t3 2t3 2.5t3 2.5h-1l25 19l25 19l101 -74q-4 37 -8.5 72t-8.5 72q-1 5 0 8
t7 1q1 -1 1.5 -0.5t2.5 -1.5l26.5 -15.5l26.5 -15.5l-14 -119l56 42t56 41q11 8 13 -2l4 -56l-114 -49l63.5 -24l63.5 -24q14 -4 14 -8l-8 -8zM440 463q1 1 2 1t2 1q1 0 1 1t-12 6l-132 50l117 51l-2 27l-2 27q-2 6 -9 0l-116 -86l14 122l-26.5 15.5l-26.5 15.5l-7 4
q0 -1 -0.5 -3.5t0.5 -5.5l17 -149l-103 75l-23 -17.5l-23 -17.5l-9 -6h1l-2 -2q2 -1 4.5 -1.5t4.5 -1.5l70 -25l70 -24l-117 -50l2 -24.5t2 -23.5l2 -10l2.5 2.5t6.5 4.5l118 80l-17 -127q11 -5 26 -12.5t26 -12.5q0 -1 2 -1q2 -1 4 -1q2 -1 1 11l-16 146l103 -73l42 31z
" />
    <glyph glyph-name="glyph74" unicode="&#xabc;" horiz-adv-x="20" 
d="M-414 -313q0 -21 -8 -39t-21.5 -31.5t-31.5 -21t-39 -7.5t-39 8t-31.5 21.5t-21.5 31.5t-8 38q0 42 29 71t71 29t71 -28t29 -70v-2z" />
    <glyph glyph-name="glyph75" unicode="&#xabd;" horiz-adv-x="963" 
d="M895 281q0 -89 -33.5 -151.5t-88.5 -101.5t-126 -57t-147 -18q-67 0 -131.5 18t-124 50.5t-113 77.5t-98.5 98l100 100q31 -49 77 -92.5t96.5 -75.5t99.5 -51t88 -19q42 0 89 12t87 37t66 63t26 89q0 50 -25 83.5t-66.5 56.5t-94 39l-107.5 31.5t-107.5 33.5t-94 46
t-66.5 68t-25 99q0 65 26.5 107.5t72.5 67t107 34.5t130 10h281v-100h-248q-46 0 -88 -5t-73.5 -19t-50 -38.5t-18.5 -62.5q0 -40 25 -66t65.5 -44t93 -31.5l106.5 -28.5t106.5 -34t93 -48.5t65.5 -72.5t25 -105z" />
    <glyph glyph-name="glyph76" unicode="&#xabe;" horiz-adv-x="449" 
d="M178 0v936h129v-936h-129z" />
    <glyph glyph-name="glyph77" unicode="&#xabf;" horiz-adv-x="425" 
d="M950 1020q-24 50 -53 98.5t-67.5 87t-87 62.5t-111.5 24q-87 0 -146 -27t-95.5 -75t-52 -113.5t-15.5 -142.5v-934h-132v934q0 97 24 181.5t73.5 147t125.5 98.5t181 36q92 0 162 -27.5t122.5 -72t91 -100.5t68.5 -114z" />
    <glyph glyph-name="glyph78" unicode="&#xac0;" horiz-adv-x="449" 
d="M178 0v946q0 34 -6 73.5t-18 79t-30.5 76.5t-44 65.5t-58 45.5t-72.5 17q-63 0 -102.5 -30.5t-39.5 -98.5q0 -22 5.5 -44.5t14 -45.5t18 -45l18.5 -42h-107q-31 45 -51 91t-20 102q0 58 22.5 100t60 69t86.5 39.5t101 12.5q59 0 108 -21t88 -56t68 -81.5t48.5 -98.5
t29.5 -105.5t10 -102.5v-946h-129z" />
    <glyph glyph-name="glyph79" unicode="&#xac1;" 
d="M125 -276q0 -76 -30.5 -130t-81.5 -88t-118 -49.5t-139 -15.5q-87 0 -165.5 27.5t-146.5 70.5t-124 96.5t-98 104.5l61 90q55 -68 111.5 -120.5t115.5 -89.5t121 -56t129 -19q47 0 90 13.5t76 37t52.5 55t19.5 66.5q0 86 -45.5 121t-142.5 35q-29 0 -55.5 -7.5t-51.5 -20
t-47.5 -28.5t-42.5 -32l-90 111q56 37 132 63.5t179 26.5q70 0 124 -21t91 -56.5t56.5 -83t19.5 -101.5z" />
    <glyph glyph-name="glyph80" unicode="&#xac2;" 
d="M289 -506q-45 70 -99.5 137t-115 119t-126 83.5t-132.5 31.5q-40 0 -77.5 -11t-67 -31.5t-47 -50.5t-17.5 -67q0 -32 10 -60t29.5 -49.5t48 -34t65.5 -12.5q28 0 54 8.5t48.5 22t42 30t34.5 32.5l36 -111q-19 -16 -41.5 -31.5t-47.5 -27.5t-53 -19.5t-58 -7.5
q-73 0 -128.5 22.5t-92.5 59.5t-55.5 85.5t-18.5 100.5q0 61 23.5 110t66.5 84t102.5 54t130.5 19q88 0 173.5 -39.5t162.5 -103t143.5 -144t116.5 -162.5z" />
    <glyph glyph-name="glyph81" unicode="&#xac3;" 
d="M23 -463q-67 -43 -151.5 -70.5t-178.5 -27.5q-73 0 -143.5 23t-126 63.5t-89.5 95.5t-34 119q0 61 24.5 109t66 81.5t95 51.5t111.5 18h266v-113h-217q-40 0 -76.5 -9t-64 -29t-44 -51t-16.5 -74q0 -46 19.5 -79t53.5 -54.5t81 -31.5t102 -10q41 0 76.5 7t68 19.5
t63 30.5t62.5 40l52 -109v0z" />
    <glyph glyph-name="glyph82" unicode="&#xac4;" 
d="M264 -775q-51 -61 -123 -112.5t-162 -80.5q-70 -23 -144 -22.5t-139 22.5t-114.5 64t-68.5 103q-23 75 -3 140.5t68 114.5q-57 14 -107.5 41.5t-88.5 65t-60 83t-22 96.5q0 61 24.5 109t66 81.5t95 51.5t111.5 18h266v-113h-217q-40 0 -76.5 -9t-64 -29t-44 -51
t-16.5 -74q0 -46 19.5 -79t53.5 -54.5t81 -31.5t102 -10q42 0 74 7l91 29q27 12 53 27.5t52 33.5l52 -109q-6 -3 -11.5 -6.5t-11.5 -6.5q-43 -20 -70 -31.5l-43.5 -18.5t-25.5 -10t-16 -5l-47 -15q-38 -12 -70 -31.5t-52.5 -46.5t-26.5 -61.5t7 -76.5q14 -44 42.5 -69.5
t67.5 -35.5t86.5 -5.5t100.5 21.5q39 12 70.5 29.5t58.5 39.5t51 48.5t48 56.5l83 -88v0z" />
    <glyph glyph-name="glyph83" 
d="M-304 1073l-385 469h113l454 -469h-182z" />
    <glyph glyph-name="glyph84" unicode="&#xac5;" 
d="M-304 1073l-385 469h113l454 -469h-182z" />
    <glyph glyph-name="glyph85" unicode="&#xac7;" 
d="M-306 978l-470 455h183l424 -455h-137z" />
    <glyph glyph-name="glyph132" unicode="&#xac8;" 
d="M-298 974l-568 281l152 84l362 -281l-323 371l143 41l361 -496h-127z" />
    <glyph glyph-name="glyph133" unicode="&#xac9;" horiz-adv-x="449" 
d="M178 0v936h129v-936h-129zM146 1073l-385 469h113l454 -469h-182z" />
    <glyph glyph-name="glyph134" horiz-adv-x="173" 
d="M126 471v-470l-66 35v435h-70l-28 59h93q-8 22 -22.5 41t-37.5 29q-24 10 -38.5 24t-23.5 32.5t-13.5 40.5t-6.5 48l40 4q4 -41 19.5 -64.5t45.5 -37.5q45 -17 68.5 -46.5t35.5 -70.5h58l29 -59h-83z" />
    <glyph glyph-name="glyph89" unicode="&#xacb;" horiz-adv-x="449" 
d="M178 0v936h129v-936h-129zM164 978l-470 455h183l424 -455h-137z" />
    <glyph glyph-name="glyph90" unicode="&#xacc;" horiz-adv-x="449" 
d="M178 0v936h129v-936h-129zM172 974l-568 281l152 84l362 -281l-323 371l143 41l361 -496h-127z" />
    <glyph glyph-name="glyph91" unicode="&#xacd;" 
d="M160 -518l-516 467h235l393 -467h-112z" />
    <glyph glyph-name="glyph92" horiz-adv-x="466" 
d="M415 425l-101 72l8 -71l8 -70q1 -6 0 -10t-3 -3q-2 0 -4 1q-3 0 -5 2h1q-13 5 -26 12t-26 12l17 124l-57 -38.5l-57 -38.5q-9 -7 -13 -7l-2 12l-2 25l-2 25l113 48l-67 23l-67 24l-12 5q0 1 1 2t3 2t3 2.5t3 2.5h-1l25 19l25 19l101 -74q-4 37 -8.5 72t-8.5 72q-1 5 0 8
t7 1q1 -1 1.5 -0.5t2.5 -1.5l26.5 -15.5l26.5 -15.5l-14 -119l56 42t56 41q11 8 13 -2l4 -56l-114 -49l63.5 -24l63.5 -24q14 -4 14 -8l-8 -8zM460 463q1 1 2 1t2 1q1 0 1 1t-12 6l-132 50l117 51l-2 27l-2 27q-2 6 -9 0l-116 -86l14 122l-26.5 15.5l-26.5 15.5l-7 4
q0 -1 -0.5 -3.5t0.5 -5.5l17 -149l-103 75l-23 -17.5l-23 -17.5l-9 -6h1l-2 -2q2 -1 4.5 -1.5t4.5 -1.5l70 -25l70 -24l-117 -50l2 -24.5t2 -23.5l2 -10l2.5 2.5t6.5 4.5l118 80l-17 -127q11 -5 26 -12.5t26 -12.5q0 -1 2 -1q2 -1 4 -1q2 -1 1 11l-16 146l103 -73l42 31z
" />
    <glyph glyph-name="glyph93" horiz-adv-x="466" 
d="M415 425l-101 72l8 -71l8 -70q1 -6 0 -10t-3 -3q-2 0 -4 1q-3 0 -5 2h1q-13 5 -26 12t-26 12l17 124l-57 -38.5l-57 -38.5q-9 -7 -13 -7l-2 12l-2 25l-2 25l113 48l-67 23l-67 24l-12 5q0 1 1 2t3 2t3 2.5t3 2.5h-1l25 19l25 19l101 -74q-4 37 -8.5 72t-8.5 72q-1 5 0 8
t7 1q1 -1 1.5 -0.5t2.5 -1.5l26.5 -15.5l26.5 -15.5l-14 -119l56 42t56 41q11 8 13 -2l4 -56l-114 -49l63.5 -24l63.5 -24q14 -4 14 -8l-8 -8zM460 463q1 1 2 1t2 1q1 0 1 1t-12 6l-132 50l117 51l-2 27l-2 27q-2 6 -9 0l-116 -86l14 122l-26.5 15.5l-26.5 15.5l-7 4
q0 -1 -0.5 -3.5t0.5 -5.5l17 -149l-103 75l-23 -17.5l-23 -17.5l-9 -6h1l-2 -2q2 -1 4.5 -1.5t4.5 -1.5l70 -25l70 -24l-117 -50l2 -24.5t2 -23.5l2 -10l2.5 2.5t6.5 4.5l118 80l-17 -127q11 -5 26 -12.5t26 -12.5q0 -1 2 -1q2 -1 4 -1q2 -1 1 11l-16 146l103 -73l42 31z
" />
    <glyph glyph-name="glyph94" unicode="&#xad0;" horiz-adv-x="1788" 
d="M1040 1309q0 -20 -8 -35.5t-21.5 -26t-31 -16.5t-35.5 -6t-35.5 6.5t-31 17.5t-21.5 27t-8 35t8 34.5t21.5 26.5t31 17t35.5 6t35.5 -6.5t31 -18t21.5 -27.5t8 -34zM1360 1321q-1 -5 -9.5 -29t-27.5 -56.5t-50 -69t-77 -67.5t-109 -50.5t-145 -18.5q-66 1 -134.5 19.5
t-126 55t-98.5 90.5t-53 126h177q0 -3 2.5 -17.5t11 -35.5t24.5 -44.5t43 -44t66 -33.5t94 -13q48 0 84.5 13t63.5 33t44.5 43.5t28 44.5t15 36t4.5 18h172zM1681 502q0 -51 -5.5 -108.5t-19 -114t-36 -108t-57 -91t-82.5 -63t-111 -23.5q-67 0 -118 14t-90 42.5t-69 71.5
t-55 101l113 68q13 -33 30.5 -65.5t39.5 -58t49.5 -41t60.5 -15.5q47 0 81.5 19t58.5 50.5t39 72t23.5 84t11.5 86.5t3 79q0 51 -4.5 109t-19.5 107t-43 81t-74 32q-33 0 -54 -17t-36 -44.5t-26.5 -63l-24.5 -73t-30.5 -73t-45 -63t-68 -44.5t-98.5 -17q-12 0 -31 0.5
t-38.5 1.5l-38.5 2t-31 2v109q10 -1 25.5 -2t32.5 -2.5t32.5 -2.5t25.5 -1q52 0 82 29.5t50 74.5t37 96.5t43.5 96.5t69 74.5t114.5 29.5q86 0 141 -38.5t87 -100.5t44 -141.5t12 -161.5zM897 270q0 -69 -28 -123t-77.5 -91t-117.5 -56.5t-148 -19.5q-71 0 -136 28
t-122 75.5t-103.5 109.5t-78.5 131l107 51q31 -72 71 -124.5t83.5 -87t88.5 -51t86 -16.5q50 0 92.5 11t74 33.5t49.5 55t18 76.5q0 43 -15 73t-43 49t-66.5 27.5t-86.5 8.5h-162v115h162q40 0 74 11.5t58.5 32t38 49.5t13.5 64q0 39 -19 68t-51 48t-75.5 28.5t-91.5 9.5
q-29 0 -55.5 -3t-55 -10.5t-59 -19t-66.5 -28.5l-29 104q76 28 153 46t142 18q70 0 133.5 -17.5t111.5 -50.5t76.5 -79.5t28.5 -104.5q0 -81 -38.5 -134.5t-112.5 -80.5q36 -15 68 -37t56 -50t38 -62.5t14 -76.5z" />
    <glyph glyph-name="glyph95" unicode="&#x951;" 
d="M-59 792q0 11 -6 13l-55 27v-185q0 -9 7 -13h-1l27.5 -14l27.5 -14v186zM-57 603l-58 29q-7 4 -7 15v188l57 -28q8 -3 8 -15v-189z" />
    <glyph glyph-name="glyph96" unicode="&#x952;" 
d="M-207 -496q0 -55 -17 -95t-47 -68t-70 -45.5t-85.5 -27t-94 -13t-95.5 -3.5q-71 0 -149.5 18.5t-154.5 50t-145.5 73t-122.5 88.5l27 121q59 -56 124.5 -101.5t135 -77.5t141 -49.5t142.5 -17.5q46 0 94.5 8.5t88.5 26t65.5 43t25.5 59.5q0 29 -12.5 51.5t-34.5 38
t-52 23.5t-65 8q-57 0 -114 -28.5t-103 -73.5l-63 92q28 19 62.5 37.5t74.5 32.5t85.5 23t96.5 9q54 0 102 -12.5t83.5 -38t56 -63.5t20.5 -89z" />
    <glyph glyph-name="glyph97" unicode="&#x953;" 
d="M180 -766q-167 184 -327.5 279.5t-301.5 95.5q-32 0 -63.5 -4t-56 -16t-39.5 -33.5t-15 -55.5q0 -35 19 -60.5t48 -42.5t63 -25.5t63 -8.5q45 0 89.5 14t84.5 35l39 -104q-48 -16 -97.5 -24.5t-99.5 -8.5q-51 0 -112 12t-113.5 39t-87.5 70.5t-35 105.5q0 55 20.5 97.5
t55 71t81 43t97.5 14.5q116 0 216.5 -28t191.5 -78.5t174 -121t164 -155.5z" />
    <glyph glyph-name="glyph98" unicode="&#x954;" 
d="M-639 -45q6 -9 13.5 -22t14 -27t11 -27.5t4.5 -23.5q0 -21 -8 -35t-21.5 -22t-30 -11.5t-34.5 -3.5q-25 0 -61.5 13.5t-70.5 35t-58.5 49t-24.5 56.5q0 26 9.5 43.5t25 29.5t35 20.5t40.5 16.5l574 242v-84z" />
    <glyph glyph-name="glyph99" 
d="M-696 -78l-99 103l584 282v-84z" />
    <glyph glyph-name="glyph100" 
d="M-106 -344l-326 311l-305 -311h-187l426 375h131l439 -375h-178z" />
    <glyph glyph-name="glyph101" horiz-adv-x="466" 
d="M415 425l-101 72l8 -71l8 -70q1 -6 0 -10t-3 -3q-2 0 -4 1q-3 0 -5 2h1q-13 5 -26 12t-26 12l17 124l-57 -38.5l-57 -38.5q-9 -7 -13 -7l-2 12l-2 25l-2 25l113 48l-67 23l-67 24l-12 5q0 1 1 2t3 2t3 2.5t3 2.5h-1l25 19l25 19l101 -74q-4 37 -8.5 72t-8.5 72q-1 5 0 8
t7 1q1 -1 1.5 -0.5t2.5 -1.5l26.5 -15.5l26.5 -15.5l-14 -119l56 42t56 41q11 8 13 -2l4 -56l-114 -49l63.5 -24l63.5 -24q14 -4 14 -8l-8 -8zM460 463q1 1 2 1t2 1q1 0 1 1t-12 6l-132 50l117 51l-2 27l-2 27q-2 6 -9 0l-116 -86l14 122l-26.5 15.5l-26.5 15.5l-7 4
q0 -1 -0.5 -3.5t0.5 -5.5l17 -149l-103 75l-23 -17.5l-23 -17.5l-9 -6h1l-2 -2q2 -1 4.5 -1.5t4.5 -1.5l70 -25l70 -24l-117 -50l2 -24.5t2 -23.5l2 -10l2.5 2.5t6.5 4.5l118 80l-17 -127q11 -5 26 -12.5t26 -12.5q0 -1 2 -1q2 -1 4 -1q2 -1 1 11l-16 146l103 -73l42 31z
" />
    <glyph glyph-name="glyph102" horiz-adv-x="1114" 
d="M750 492q43 -22 82.5 -45t68.5 -50t46.5 -59t17.5 -72q0 -71 -30.5 -123.5t-83.5 -87t-125 -52t-155 -17.5q-61 0 -121 14t-115.5 38t-105.5 55t-92 65l56 114q36 -38 81 -71t94.5 -58.5t101.5 -40t101 -14.5q55 0 102 12t80.5 35t52.5 56t19 75q0 35 -23.5 61.5
t-62 48.5t-88.5 41.5l-104 41.5l-443 -68l-22 111l280 43q-35 20 -64 42.5t-51 49t-34 57t-12 66.5q0 55 26.5 95.5t70.5 67t102.5 39.5t123.5 13q45 0 90 -6.5t86 -18t76.5 -26t63.5 -29.5l-33 -98q-63 31 -128 51t-122 20q-38 0 -75 -7t-66 -23t-47.5 -40.5t-18.5 -58.5
q0 -25 16.5 -47t44.5 -42t66 -38.5t80 -36.5l500 76l26 -108zM286 -133q0 -21 -8 -39t-21.5 -31.5t-31.5 -21t-39 -7.5t-39 8t-31.5 21.5t-21.5 31.5t-8 38q0 42 29 71t71 29t71 -28t29 -70v-2z" />
    <glyph glyph-name="glyph103" horiz-adv-x="1253" 
d="M978 0v528h-253v-41q0 -41 -19 -86t-56.5 -83.5t-92 -63.5t-125.5 -25q-68 0 -122 22t-91.5 59.5t-57.5 87t-20 104.5v270q0 25 -11 42t-42 17h-88v105h123q37 0 64.5 -13.5t46.5 -36t28.5 -53.5t9.5 -65v-274q0 -36 10.5 -66.5t30.5 -53t50 -35.5t69 -13q78 0 122 45
t44 121v299h125v-150h255v295h129v-936h-129zM266 97q0 -21 -8 -39t-21.5 -31.5t-31.5 -21t-39 -7.5t-39 8t-31.5 21.5t-21.5 31.5t-8 38q0 42 29 71t71 29t71 -28t29 -70v-2z" />
    <glyph glyph-name="glyph104" horiz-adv-x="1253" 
d="M750 584q0 -72 -22 -137.5t-65 -114.5t-107 -78t-148 -29q-45 0 -91 14.5t-87.5 39t-75 57t-54.5 67.5l68 107q31 -82 92 -129t148 -47q49 0 88.5 19t67 52t42.5 79t15 100q0 51 -17 92t-48.5 70t-76 45t-100.5 16t-93.5 -15.5t-74.5 -37.5v112q35 17 74.5 31t93.5 14
q88 0 157 -25t116.5 -69.5t72.5 -104t25 -128.5zM968 0v936h129v-936h-129zM386 67q0 -21 -8 -39t-21.5 -31.5t-31.5 -21t-39 -7.5t-39 8t-31.5 21.5t-21.5 31.5t-8 38q0 42 29 71t71 29t71 -28t29 -70v-2z" />
    <glyph glyph-name="ch233" horiz-adv-x="1204" 
d="M1186 836q-36 -30 -78.5 -70.5t-86 -87l-85.5 -95.5t-76 -96q32 -71 50 -139t18 -125q0 -41 -6.5 -81t-23 -71.5t-46 -51t-74.5 -19.5q-41 0 -69.5 16.5t-46.5 44t-26.5 64.5t-8.5 78q0 71 25 140.5t67 137.5q-38 57 -85 120t-97 116.5t-101 88t-96 34.5t-76 -17
t-50.5 -45.5t-28.5 -65t-9 -75.5q0 -41 10 -76t31 -60.5t53 -40t76 -14.5q38 0 73.5 15.5t63.5 40.5v-129q-32 -25 -64.5 -33t-72.5 -8q-61 0 -114.5 25t-93.5 67.5t-63.5 97.5t-23.5 115q0 63 20 119.5t56.5 99t89.5 67.5t119 25q67 0 132 -28.5t125 -76.5t113.5 -111.5
t96.5 -133.5q39 50 81.5 97.5l85 91.5l82 85l72.5 78zM366 107q0 -21 -8 -39t-21.5 -31.5t-31.5 -21t-39 -7.5t-39 8t-31.5 21.5t-21.5 31.5t-8 38q0 42 29 71t71 29t71 -28t29 -70v-2z" />
    <glyph glyph-name="ch234" horiz-adv-x="954" 
d="M913 256q0 -71 -34.5 -120.5t-94 -80.5t-138.5 -45t-167 -14q-66 0 -122 11t-104.5 30t-90.5 44t-80 54l55 115q35 -32 73.5 -60t80.5 -48.5t89 -32t99 -11.5q55 0 108.5 9.5t94.5 29t66.5 49t25.5 70.5q0 52 -26.5 86.5t-70.5 59.5t-100 43l-114 36t-114 39.5t-100 53
t-70.5 76.5t-26.5 110q0 45 27 83t72 66t103.5 44t120.5 16q90 0 167 -23.5t140 -54.5l-32 -98l-52.5 25.5t-55 22.5t-61.5 15.5t-73 5.5q-38 0 -75 -6.5t-66 -21t-47.5 -38t-18.5 -57.5q0 -42 26.5 -70t69.5 -48t98 -35.5l112 -32.5t112 -39.5t98 -56.5t69.5 -82.5
t26.5 -118.5zM616 -193q0 -21 -8 -39t-21.5 -31.5t-31.5 -21t-39 -7.5t-39 8t-31.5 21.5t-21.5 31.5t-8 38q0 42 29 71t71 29t71 -28t29 -70v-2z" />
    <glyph glyph-name="glyph107" horiz-adv-x="944" 
d="M874 221q0 -42 -17.5 -76t-46.5 -59.5t-66.5 -43.5t-77.5 -29.5t-79.5 -17t-72.5 -5.5q-51 0 -103 7.5t-100 23.5t-90 41t-73.5 60t-49.5 80t-18 101q0 63 25 107.5t66 76t93.5 53t107.5 37.5t107.5 29.5t93.5 29t66 35.5t25 50q0 40 -16.5 67t-45 43.5t-67.5 23.5t-84 7
q-38 0 -71 -4.5t-63 -12.5t-58.5 -19l-57.5 -23v112q55 20 114.5 33t135.5 13q71 0 136 -16.5t114.5 -48.5t78.5 -81t29 -113q0 -50 -25.5 -82.5t-67 -54.5t-94.5 -36t-108 -26.5t-108 -26.5t-94.5 -36t-67 -54.5t-25.5 -82.5q0 -54 21 -92t57.5 -62t85.5 -34.5t104 -10.5
q10 0 20 3l21 6q0 44 15.5 89.5t43.5 82t68 59.5t88 23q63 0 97 -37.5t34 -108.5zM586 -203q0 -21 -8 -39t-21.5 -31.5t-31.5 -21t-39 -7.5t-39 8t-31.5 21.5t-21.5 31.5t-8 38q0 42 29 71t71 29t71 -28t29 -70v-2z" />
    <glyph glyph-name="glyph108" horiz-adv-x="1114" 
d="M750 492q43 -22 82 -46.5t68 -53.5t46 -62.5t17 -73.5q0 -71 -35 -120.5t-94 -80.5t-138.5 -45t-167.5 -14h-4l314 -205h-242l-225 223q-68 19 -125.5 50t-114.5 71l55 115q34 -32 72.5 -59.5t81 -48t90 -32.5t98.5 -12q55 0 108.5 9.5t94.5 29t66.5 49t25.5 70.5
q0 34 -23 62t-61.5 52t-88 45.5l-103.5 43.5l-443 -68l-22 111l280 43q-35 20 -64 42.5t-51 49t-34 57t-12 66.5q0 55 29.5 93.5t78 63t110 35.5t126.5 11q34 0 72 -4t75.5 -11.5t73 -18t65.5 -22.5l-32 -98q-51 23 -103.5 35t-117.5 12q-44 0 -85 -5.5t-73 -18.5t-51 -36
t-19 -57q0 -25 16.5 -47t44.5 -42t66 -38.5t80 -36.5l500 76l26 -108zM276 -153q0 -21 -8 -39t-21.5 -31.5t-31.5 -21t-39 -7.5t-39 8t-31.5 21.5t-21.5 31.5t-8 38q0 42 29 71t71 29t71 -28t29 -70v-2z" />
    <glyph glyph-name="glyph109" horiz-adv-x="1143" 
d="M868 0v239q-37 -22 -80.5 -42.5t-89 -36t-92 -24.5t-88.5 -9q-81 0 -159.5 24t-140.5 70.5t-100 115t-38 157.5q0 21 9 39.5t24 32t34.5 21t40.5 7.5q54 0 107.5 -6t107.5 -6q31 0 60 4.5t51.5 17t35.5 35.5t13 61q0 42 -18.5 68.5t-47 41.5t-63.5 20.5t-69 5.5h-226v104
h307q51 0 98 -20.5t82.5 -55t57 -80t21.5 -94.5q0 -54 -24 -96t-63 -70t-88 -42.5t-98 -14.5q-38 0 -76.5 9t-76.5 9q-22 0 -32.5 -8.5t-10.5 -30.5q0 -51 27.5 -90t69.5 -65.5t91 -40.5t92 -14q41 0 90 9.5t98 27.5t92 43t72 56v564h129v-936h-129zM276 7q0 -21 -8 -39
t-21.5 -31.5t-31.5 -21t-39 -7.5t-39 8t-31.5 21.5t-21.5 31.5t-8 38q0 42 29 71t71 29t71 -28t29 -70v-2z" />
    <glyph glyph-name="glyph110" unicode="&#xae0;" horiz-adv-x="1679" 
d="M1718 137q-20 -21 -56 -40.5t-77 -35t-81.5 -25t-69.5 -9.5q-58 0 -107 12.5t-84.5 39t-55.5 67.5t-20 98q0 43 16 79.5t44 68t67 57.5t84 49l-92 143l-330 -178v-463h-135v391l-549 -295l-147 92l389 193q-1 69 -10 145t-29 140t-52.5 105.5t-80.5 41.5q-40 0 -73 -32
t-58 -77.5t-42 -94.5t-24 -83l-96 119q16 45 43.5 95t65 92t84 70t100.5 28t95.5 -24t72 -63.5t52 -91.5t35 -107t20 -109.5t8.5 -100.5l196 98v404h135v-338l273 135q-5 17 -8.5 36t-3.5 38q0 26 10 49t27 40.5t40 27.5t49 10q27 0 51 -11t42 -29t28.5 -40.5t10.5 -46.5
q0 -40 -19 -75t-57 -50l180 -272q-48 0 -98.5 -12.5t-91.5 -35t-67 -54t-26 -68.5q0 -53 33 -77t92 -24q36 0 70 10t65 26t57.5 37t47.5 42l57 -117v0z" />
    <glyph glyph-name="glyph111" unicode="&#xae1;" horiz-adv-x="1331" 
d="M1657 -247q-32 -72 -87 -142t-133 -123q-61 -41 -132.5 -61t-140 -17t-127 30t-94.5 80q-29 42 -37.5 87.5t-1 89.5t29.5 84.5t56 74.5q-41 8 -79.5 26t-68.5 45t-48 63.5t-18 81.5q0 61 25 103.5t63 74.5t82 57t82 51.5t63 58.5t25 77q0 36 -11.5 68.5t-33.5 56.5
t-52.5 38.5t-68.5 14.5q-62 0 -110.5 -32.5t-85 -81t-61.5 -106t-40 -108.5l-118 55l92 168q-16 24 -39 48t-50 42.5t-56.5 30.5t-59.5 12q-60 0 -104 -22.5t-72.5 -60t-42 -87.5t-13.5 -104q0 -56 27.5 -106.5t72.5 -93t101 -75.5t113 -55l-58 -100q-71 36 -141 81.5
t-125 102.5t-89 126t-34 151q0 78 25 143t71 112t110.5 73t142.5 26q40 0 80.5 -12t78 -32t70 -47.5t57.5 -57.5q34 38 77.5 68.5t92.5 41.5v164h131v-162q51 -12 97 -36.5t81.5 -61t56.5 -83t21 -101.5q0 -65 -24.5 -106.5t-61.5 -70.5t-79.5 -51t-79.5 -47t-61.5 -58.5
t-24.5 -86.5q0 -31 13.5 -51t34.5 -32t46.5 -17t50.5 -5q36 0 65 7.5t52 20.5t42 29t35 33l7 -9l2 1l8 -12l57 -66q-6 -4 -8 -6l6 -10l-180 -121q-33 -22 -58.5 -50t-37.5 -59.5t-8.5 -66.5t27.5 -71q26 -38 60.5 -55t74.5 -15.5t84.5 19t90.5 48.5q34 23 59.5 48.5t45.5 54
t36 60.5t30 68l104 -62v0z" />
    <glyph glyph-name="glyph112" unicode="&#xae2;" 
d="M173 -275q-11 -10 -19 -15.5t-13 -9.5q-9 -6 -19 -11t-19 -9q-31 -11 -55 -11q-33 0 -61 15q-16 8 -27 20t-16 25q-2 5 -3 11.5t-1 11.5q0 33 59 78q59 46 58 77q-2 38 -41 38q-40 0 -98 -87l-44 33l12 15q4 4 4 10q0 14 -15.5 26t-32.5 12q-23 0 -39.5 -16t-16.5 -36
q0 -17 6 -32.5t17 -29.5q8 -9 22.5 -20t34.5 -22l-15 -22q-29 18 -51 35t-36 31q-16 17 -25 37.5t-9 42.5q0 30 27 54q13 11 27 17t30 6q73 0 95 -63q60 57 87 57q26 0 64 -32q37 -33 37 -64q0 -37 -22 -65q-8 -9 -24.5 -21.5t-33.5 -23.5q-28 -19 -28 -45q0 -3 0.5 -8.5
t1.5 -10.5q7 -18 32 -18q19 0 34 7q32 10 65 48q7 7 14 2z" />
    <glyph glyph-name="glyph113" unicode="&#xae3;" 
d="M259 -378q-11 -10 -19 -15.5t-13 -9.5q-9 -6 -19 -11t-19 -9q-31 -11 -55 -11q-33 0 -61 15q-16 8 -27 20t-16 25q-4 10 -4.5 22.5t4.5 21.5q-68 8 -86 59q-2 5 -3 11.5t-1 11.5q0 33 59 78q59 46 58 77q-2 38 -41 38q-40 0 -98 -87l-44 33l12 15q4 4 4 10q0 14 -15.5 26
t-32.5 12q-23 0 -39.5 -16t-16.5 -36q0 -17 6 -32.5t17 -29.5q8 -9 22.5 -20t34.5 -22l-15 -22q-29 18 -51 35t-36 31q-16 17 -25 37.5t-9 42.5q0 30 27 54q13 11 27 17t30 6q73 0 95 -63q60 57 87 57q26 0 64 -32q37 -33 37 -64q0 -37 -22 -65q-8 -9 -24.5 -21.5
t-33.5 -23.5q-28 -19 -28 -45q0 -3 0.5 -8.5t1.5 -10.5q7 -18 32 -18q19 0 34 7q32 10 65 48q8 8 14 2l35 -35q-25 -28 -63 -46h1q-34 -25 -34 -50q0 -30 33 -30q13 0 35 8q32 10 65 48q7 7 14 2z" />
    <glyph glyph-name="glyph160" unicode="&#x964;" horiz-adv-x="449" 
d="M236 0v1075h116v-1075h-116z" />
    <glyph glyph-name="glyph161" unicode="&#x965;" horiz-adv-x="945" 
d="M236 0v1075h116v-1075h-116zM636 0v1075h116v-1075h-116z" />
    <glyph glyph-name="glyph162" unicode="&#xae6;" horiz-adv-x="936" 
d="M862 463q0 -80 -29.5 -157t-81.5 -137t-122.5 -97t-151.5 -37q-82 0 -155.5 36t-129 95.5t-88 136.5t-32.5 160q0 81 30.5 158.5t84 138t125 98t153.5 37.5q84 0 156.5 -36.5t126 -96.5t84 -138t30.5 -161zM713 463q0 50 -16 107.5t-47 107t-75.5 82.5t-101.5 33
q-61 0 -107.5 -32t-78 -81.5t-48 -108t-16.5 -112.5q0 -56 16 -112t47 -101t77 -73t106 -28q57 0 102 30.5t76.5 77t48.5 103t17 107.5z" />
    <glyph glyph-name="glyph163" unicode="&#xae7;" horiz-adv-x="936" 
d="M864 8q-35 -12 -73.5 -22.5t-75.5 -10.5q-39 0 -67 15t-46 40.5t-26.5 58.5t-8.5 69v270q-37 -34 -86 -58t-114 -24q-58 0 -109.5 24.5t-90 65t-61 93t-22.5 108.5q0 70 23 130.5t64.5 105t100.5 69.5t131 25q55 0 110 -18.5t99 -53t71.5 -84t27.5 -111.5v-536
q0 -15 3.5 -29.5t10.5 -26t18.5 -19t26.5 -7.5q12 0 25.5 6.5t26 16t23.5 20l19 18.5v-135zM571 707q0 34 -12.5 63t-34.5 49t-52.5 31.5t-65.5 11.5q-43 0 -76.5 -19.5t-56 -50t-34.5 -69t-12 -76.5t10.5 -70.5t31.5 -56.5t52 -37.5t72 -13.5q56 0 104 23.5t74 58.5v156z
" />
    <glyph glyph-name="glyph164" unicode="&#xae8;" horiz-adv-x="936" 
d="M846 616q0 -51 -18 -95.5t-49 -81t-72 -64.5t-86.5 -48.5t-93 -32t-91.5 -13.5q25 -49 49 -87t50 -63.5t57.5 -39t73.5 -13.5q21 0 44.5 6.5t47 17.5t45 25.5t39.5 30.5v-133q-26 -12 -51.5 -22.5t-52 -19t-54.5 -13.5t-59 -5q-59 0 -110 28t-93.5 73.5t-78 104
t-64.5 120.5q-32 6 -61 16t-51.5 26t-36 38t-13.5 51t11 53t30 41t42.5 26t49.5 9q28 0 53 -12t48 -33t44 -49.5t39 -61.5q45 9 93 29t88 50t66 70t26 91q0 39 -15 70t-40 55t-57.5 41t-68 28t-71.5 16t-68 5q-69 0 -120.5 -17t-100.5 -38v108q54 25 111 42.5t120 17.5
q50 0 103 -10t103 -29.5t94 -48.5t77 -67.5t52.5 -86.5t19.5 -105z" />
    <glyph glyph-name="glyph165" unicode="&#xae9;" horiz-adv-x="936" 
d="M848 258q0 -68 -33.5 -121.5t-88.5 -90.5t-125.5 -56t-143.5 -19q-96 0 -188.5 35t-174.5 92l88 113q25 -26 56 -48.5t64 -39t67.5 -26t66.5 -9.5q45 0 93 9t88 28.5t66 50.5t26 76q0 54 -31 90.5t-79 58.5t-105 31.5t-109 9.5q-32 0 -61.5 -5t-69.5 -17v153
q44 -11 75 -14.5t66 -3.5q42 0 88 8.5t83.5 26.5t62 46.5t24.5 68.5q0 45 -17.5 74.5t-48 47t-72.5 24.5t-91 7q-25 0 -52 -7t-53 -19t-50.5 -28t-43.5 -34l-59 113q23 18 56.5 34t70.5 27.5t73.5 18t65.5 6.5q73 0 138.5 -18.5t115 -53.5t78.5 -84.5t29 -110.5
q0 -38 -12 -68.5t-33 -55t-49.5 -42.5t-61.5 -30q42 -14 80 -39t67 -57.5t46.5 -71t17.5 -80.5z" />
    <glyph glyph-name="glyph166" unicode="&#xaea;" horiz-adv-x="936" 
d="M881 819l-67 -39l-77.5 -46l-83 -52.5t-84.5 -58.5q40 -39 74.5 -81t59.5 -85t39 -87t14 -87q0 -65 -23 -120.5t-62.5 -97t-94 -65t-117.5 -23.5t-116.5 22t-93 62t-61.5 95t-22 120q0 44 16 88t44 87.5t67 86t84 83.5q-80 61 -169.5 112t-170.5 86l59 117
q34 -14 79 -36.5t95.5 -52.5t103 -66t103.5 -76l91.5 66.5l91.5 62l87 55.5l78 47zM621 283q0 63 -42 130t-108 130q-35 -32 -65 -64.5t-52 -66.5t-34.5 -68t-12.5 -68q0 -38 8.5 -71.5t26.5 -59t47 -40.5t70 -15q43 0 74 14.5t50.5 40.5t28.5 61t9 77z" />
    <glyph glyph-name="glyph167" unicode="&#xaeb;" horiz-adv-x="936" 
d="M739 0q-23 0 -44 6t-37 18t-25.5 30.5t-9.5 43.5v213q-16 -14 -36.5 -28t-43 -25.5t-46.5 -19t-48 -7.5q-55 0 -106 26t-90.5 69t-63 98.5t-23.5 114.5v264q0 17 -9.5 24t-23 9t-28.5 1t-27 -1v104h63q34 0 62.5 -14.5t49 -38.5t31.5 -54.5t11 -62.5v-276q0 -30 15 -58.5
t38 -50.5t50.5 -35.5t52.5 -13.5q29 0 53.5 8t45.5 22t39 32.5t34 39.5v498h127v-789q0 -23 8.5 -32.5t22.5 -12t31 -0.5t34 2v-104h-107z" />
    <glyph glyph-name="glyph168" unicode="&#xaec;" horiz-adv-x="936" 
d="M858 -78q0 -59 -25.5 -103.5t-68.5 -74t-99.5 -44.5t-117.5 -15q-7 0 -17.5 1.5t-21.5 3.5t-21.5 4.5t-17.5 4.5l-37 113q34 -11 66.5 -14t60.5 -3q34 0 65 7.5t53.5 23t36 39.5t13.5 57q0 35 -26.5 57.5t-69.5 37.5t-98 26l-112 23t-112 28t-98 42t-69.5 64.5
t-26.5 94.5q0 34 14 66.5t37 59t53.5 46.5t63.5 29q-32 19 -65 42.5t-59.5 51.5t-43.5 60t-17 69q0 70 35.5 117t91.5 75.5t123.5 40t132.5 11.5q26 0 60 -6t67 -14.5t60.5 -18.5t42.5 -19v-114q-50 27 -103 43t-114 16q-38 0 -82.5 -7.5t-82.5 -23.5t-63.5 -41.5
t-25.5 -62.5q0 -62 38 -97t101 -52t145.5 -21t171.5 -4l2 -119l-48 3.5t-43.5 2.5t-51 1.5t-70.5 0.5q-105 0 -164 -31t-59 -106q0 -33 25.5 -55t67.5 -38t95.5 -28.5l109.5 -26t109.5 -30.5t95.5 -42.5t67.5 -62t25.5 -88.5z" />
    <glyph glyph-name="glyph169" unicode="&#xaed;" horiz-adv-x="936" 
d="M897 459q0 -80 -28 -161t-79 -146.5t-123 -106.5t-159 -41q-100 0 -185.5 32.5t-148.5 92t-99 143.5t-36 187q0 131 49.5 253t132.5 222l111 -88q-39 -33 -69 -79t-50.5 -98.5t-31.5 -107t-11 -104.5q0 -69 25.5 -131t69.5 -108.5t104.5 -73.5t130.5 -27q17 0 33.5 2.5
t31.5 7.5q-102 63 -155.5 153.5t-53.5 192.5q0 56 18.5 107t53.5 89.5t85 61.5t114 23t114.5 -24.5t85 -65.5t52.5 -94.5t18 -110.5zM770 465q0 33 -7.5 64.5t-24.5 55.5t-43.5 39t-63.5 15q-39 0 -66 -18t-44 -47t-24.5 -64.5t-7.5 -69.5q0 -31 10 -68.5t29.5 -74.5
t46.5 -70t62 -55q31 27 56 62.5t42 75t26 79.5t9 76z" />
    <glyph glyph-name="glyph170" unicode="&#xaee;" horiz-adv-x="936" 
d="M301 469q-26 -19 -42 -40t-25 -45t-12 -52t-3 -62q0 -43 20.5 -77t56 -58t82 -36.5t97.5 -12.5q42 0 80.5 14t72.5 36.5t63 51.5t52 60l60 -111q-17 -26 -49 -54.5t-74.5 -52.5t-93 -39.5t-103.5 -15.5q-80 0 -151.5 21t-125.5 62t-86 102t-32 141q0 81 32 148.5
t107 121.5l521 373l94 -86z" />
    <glyph glyph-name="glyph171" unicode="&#xaef;" horiz-adv-x="936" 
d="M442 418v108h414v-108h-414zM737 35q-42 -22 -91 -34.5t-107 -12.5q-105 0 -189.5 41t-144 109t-91.5 154.5t-32 178.5q0 95 34 180.5t96.5 150t150.5 102.5t196 38q48 0 88.5 -11t83.5 -30v-102q-34 18 -75 29.5t-83 11.5q-87 0 -154.5 -31.5t-113 -84t-69 -121.5
t-23.5 -144q0 -81 26 -148t73.5 -115t115.5 -74t152 -26q45 0 85 14t72 35v-110z" />
    <glyph glyph-name="glyph172" unicode="&#xaf0;" horiz-adv-x="692" 
d="M664 936q0 -56 -21.5 -105.5t-58 -86t-86 -57.5t-105.5 -21t-105 21t-86 57.5t-58 86t-21 105.5t21 105t58 86t86 58t105 21t105.5 -21t86 -58t58 -86t21.5 -105zM561 936q0 34 -14 64t-37.5 52.5t-55 35t-65.5 12.5q-35 0 -65 -12.5t-52.5 -35t-35.5 -52.5t-13 -64
t13 -65t35.5 -55t52.5 -38t65 -14t66.5 13.5t55 37t37 55t13.5 66.5z" />
    <glyph glyph-name="glyph173" unicode="&#xaf1;" horiz-adv-x="1573" 
d="M825 285q0 -58 -30.5 -100t-79.5 -70.5t-110 -43t-122 -16.5l301 -274l-110 -86l-533 493l115 76l123 -112q22 0 53.5 3.5t65.5 10.5t67.5 18.5t60.5 27.5t43.5 37t16.5 48q0 37 -17.5 67t-45 51t-61.5 32.5t-68 11.5h-289v119h272q34 0 71 8t68 25t50.5 42t19.5 60
q0 46 -19 75.5t-51.5 47t-76.5 24t-93 6.5q-39 0 -79 -4.5t-78.5 -13t-73.5 -20t-65 -25.5v117l64.5 18.5t78.5 19.5t83 15t79 6q60 0 125 -14.5t119.5 -46t90 -80.5t35.5 -119q0 -42 -15.5 -76.5t-41.5 -61t-59.5 -45t-69.5 -30.5q39 -12 73 -31.5t59 -47t39.5 -63
t14.5 -79.5zM1514 836q0 -56 -21.5 -105.5t-58 -86t-86 -57.5t-105.5 -21t-105 21t-86 57.5t-58 86t-21 105.5t21 105t58 86t86 58t105 21t105.5 -21t86 -58t58 -86t21.5 -105zM1411 836q0 34 -14 64t-37.5 52.5t-55 35t-65.5 12.5q-35 0 -65 -12.5t-52.5 -35t-35.5 -52.5
t-13 -64t13 -65t35.5 -55t52.5 -38t65 -14t66.5 13.5t55 37t37 55t13.5 66.5z" />
    <glyph glyph-name="glyph174" unicode="&#x972;" horiz-adv-x="1473" 
d="M1206 0v506h-235v-135q0 -66 -39 -123.5t-99 -100.5t-132 -67.5t-138 -24.5q-74 0 -145 22.5t-127 68t-90.5 113t-34.5 157.5h-98v112h280q36 0 68.5 9t56.5 28t38.5 48t14.5 69q0 37 -13 65.5t-35.5 48t-53 29t-66.5 9.5h-235v102h252q60 0 111 -17.5t88.5 -49t59 -76
t21.5 -99.5q0 -79 -32 -132.5t-83.5 -85.5t-116.5 -46t-132 -14q0 -62 16.5 -111.5t48.5 -84.5t80 -54t111 -19q61 0 115.5 17.5t95.5 51.5t65.5 83.5t24.5 114.5v385h121v-176h237v313h131v-936h-131z" />
    <glyph glyph-name="glyph129" horiz-adv-x="466" 
d="M415 425l-101 72l8 -71l8 -70q1 -6 0 -10t-3 -3q-2 0 -4 1q-3 0 -5 2h1q-13 5 -26 12t-26 12l17 124l-57 -38.5l-57 -38.5q-9 -7 -13 -7l-2 12l-2 25l-2 25l113 48l-67 23l-67 24l-12 5q0 1 1 2t3 2t3 2.5t3 2.5h-1l25 19l25 19l101 -74q-4 37 -8.5 72t-8.5 72q-1 5 0 8
t7 1q1 -1 1.5 -0.5t2.5 -1.5l26.5 -15.5l26.5 -15.5l-14 -119l56 42t56 41q11 8 13 -2l4 -56l-114 -49l63.5 -24l63.5 -24q14 -4 14 -8l-8 -8zM460 463q1 1 2 1t2 1q1 0 1 1t-12 6l-132 50l117 51l-2 27l-2 27q-2 6 -9 0l-116 -86l14 122l-26.5 15.5l-26.5 15.5l-7 4
q0 -1 -0.5 -3.5t0.5 -5.5l17 -149l-103 75l-23 -17.5l-23 -17.5l-9 -6h1l-2 -2q2 -1 4.5 -1.5t4.5 -1.5l70 -25l70 -24l-117 -50l2 -24.5t2 -23.5l2 -10l2.5 2.5t6.5 4.5l118 80l-17 -127q11 -5 26 -12.5t26 -12.5q0 -1 2 -1q2 -1 4 -1q2 -1 1 11l-16 146l103 -73l42 31z
" />
    <glyph glyph-name="glyph130" horiz-adv-x="466" 
d="M415 425l-101 72l8 -71l8 -70q1 -6 0 -10t-3 -3q-2 0 -4 1q-3 0 -5 2h1q-13 5 -26 12t-26 12l17 124l-57 -38.5l-57 -38.5q-9 -7 -13 -7l-2 12l-2 25l-2 25l113 48l-67 23l-67 24l-12 5q0 1 1 2t3 2t3 2.5t3 2.5h-1l25 19l25 19l101 -74q-4 37 -8.5 72t-8.5 72q-1 5 0 8
t7 1q1 -1 1.5 -0.5t2.5 -1.5l26.5 -15.5l26.5 -15.5l-14 -119l56 42t56 41q11 8 13 -2l4 -56l-114 -49l63.5 -24l63.5 -24q14 -4 14 -8l-8 -8zM460 463q1 1 2 1t2 1q1 0 1 1t-12 6l-132 50l117 51l-2 27l-2 27q-2 6 -9 0l-116 -86l14 122l-26.5 15.5l-26.5 15.5l-7 4
q0 -1 -0.5 -3.5t0.5 -5.5l17 -149l-103 75l-23 -17.5l-23 -17.5l-9 -6h1l-2 -2q2 -1 4.5 -1.5t4.5 -1.5l70 -25l70 -24l-117 -50l2 -24.5t2 -23.5l2 -10l2.5 2.5t6.5 4.5l118 80l-17 -127q11 -5 26 -12.5t26 -12.5q0 -1 2 -1q2 -1 4 -1q2 -1 1 11l-16 146l103 -73l42 31z
" />
    <glyph glyph-name="glyph177" horiz-adv-x="466" 
d="M415 425l-101 72l8 -71l8 -70q1 -6 0 -10t-3 -3q-2 0 -4 1q-3 0 -5 2h1q-13 5 -26 12t-26 12l17 124l-57 -38.5l-57 -38.5q-9 -7 -13 -7l-2 12l-2 25l-2 25l113 48l-67 23l-67 24l-12 5q0 1 1 2t3 2t3 2.5t3 2.5h-1l25 19l25 19l101 -74q-4 37 -8.5 72t-8.5 72q-1 5 0 8
t7 1q1 -1 1.5 -0.5t2.5 -1.5l26.5 -15.5l26.5 -15.5l-14 -119l56 42t56 41q11 8 13 -2l4 -56l-114 -49l63.5 -24l63.5 -24q14 -4 14 -8l-8 -8zM460 463q1 1 2 1t2 1q1 0 1 1t-12 6l-132 50l117 51l-2 27l-2 27q-2 6 -9 0l-116 -86l14 122l-26.5 15.5l-26.5 15.5l-7 4
q0 -1 -0.5 -3.5t0.5 -5.5l17 -149l-103 75l-23 -17.5l-23 -17.5l-9 -6h1l-2 -2q2 -1 4.5 -1.5t4.5 -1.5l70 -25l70 -24l-117 -50l2 -24.5t2 -23.5l2 -10l2.5 2.5t6.5 4.5l118 80l-17 -127q11 -5 26 -12.5t26 -12.5q0 -1 2 -1q2 -1 4 -1q2 -1 1 11l-16 146l103 -73l42 31z
" />
    <glyph glyph-name="glyph178" horiz-adv-x="466" 
d="M415 425l-101 72l8 -71l8 -70q1 -6 0 -10t-3 -3q-2 0 -4 1q-3 0 -5 2h1q-13 5 -26 12t-26 12l17 124l-57 -38.5l-57 -38.5q-9 -7 -13 -7l-2 12l-2 25l-2 25l113 48l-67 23l-67 24l-12 5q0 1 1 2t3 2t3 2.5t3 2.5h-1l25 19l25 19l101 -74q-4 37 -8.5 72t-8.5 72q-1 5 0 8
t7 1q1 -1 1.5 -0.5t2.5 -1.5l26.5 -15.5l26.5 -15.5l-14 -119l56 42t56 41q11 8 13 -2l4 -56l-114 -49l63.5 -24l63.5 -24q14 -4 14 -8l-8 -8zM460 463q1 1 2 1t2 1q1 0 1 1t-12 6l-132 50l117 51l-2 27l-2 27q-2 6 -9 0l-116 -86l14 122l-26.5 15.5l-26.5 15.5l-7 4
q0 -1 -0.5 -3.5t0.5 -5.5l17 -149l-103 75l-23 -17.5l-23 -17.5l-9 -6h1l-2 -2q2 -1 4.5 -1.5t4.5 -1.5l70 -25l70 -24l-117 -50l2 -24.5t2 -23.5l2 -10l2.5 2.5t6.5 4.5l118 80l-17 -127q11 -5 26 -12.5t26 -12.5q0 -1 2 -1q2 -1 4 -1q2 -1 1 11l-16 146l103 -73l42 31z
" />
    <glyph glyph-name="glyph179" horiz-adv-x="466" 
d="M415 425l-101 72l8 -71l8 -70q1 -6 0 -10t-3 -3q-2 0 -4 1q-3 0 -5 2h1q-13 5 -26 12t-26 12l17 124l-57 -38.5l-57 -38.5q-9 -7 -13 -7l-2 12l-2 25l-2 25l113 48l-67 23l-67 24l-12 5q0 1 1 2t3 2t3 2.5t3 2.5h-1l25 19l25 19l101 -74q-4 37 -8.5 72t-8.5 72q-1 5 0 8
t7 1q1 -1 1.5 -0.5t2.5 -1.5l26.5 -15.5l26.5 -15.5l-14 -119l56 42t56 41q11 8 13 -2l4 -56l-114 -49l63.5 -24l63.5 -24q14 -4 14 -8l-8 -8zM460 463q1 1 2 1t2 1q1 0 1 1t-12 6l-132 50l117 51l-2 27l-2 27q-2 6 -9 0l-116 -86l14 122l-26.5 15.5l-26.5 15.5l-7 4
q0 -1 -0.5 -3.5t0.5 -5.5l17 -149l-103 75l-23 -17.5l-23 -17.5l-9 -6h1l-2 -2q2 -1 4.5 -1.5t4.5 -1.5l70 -25l70 -24l-117 -50l2 -24.5t2 -23.5l2 -10l2.5 2.5t6.5 4.5l118 80l-17 -127q11 -5 26 -12.5t26 -12.5q0 -1 2 -1q2 -1 4 -1q2 -1 1 11l-16 146l103 -73l42 31z
" />
    <glyph glyph-name="glyph180" horiz-adv-x="466" 
d="M415 425l-101 72l8 -71l8 -70q1 -6 0 -10t-3 -3q-2 0 -4 1q-3 0 -5 2h1q-13 5 -26 12t-26 12l17 124l-57 -38.5l-57 -38.5q-9 -7 -13 -7l-2 12l-2 25l-2 25l113 48l-67 23l-67 24l-12 5q0 1 1 2t3 2t3 2.5t3 2.5h-1l25 19l25 19l101 -74q-4 37 -8.5 72t-8.5 72q-1 5 0 8
t7 1q1 -1 1.5 -0.5t2.5 -1.5l26.5 -15.5l26.5 -15.5l-14 -119l56 42t56 41q11 8 13 -2l4 -56l-114 -49l63.5 -24l63.5 -24q14 -4 14 -8l-8 -8zM460 463q1 1 2 1t2 1q1 0 1 1t-12 6l-132 50l117 51l-2 27l-2 27q-2 6 -9 0l-116 -86l14 122l-26.5 15.5l-26.5 15.5l-7 4
q0 -1 -0.5 -3.5t0.5 -5.5l17 -149l-103 75l-23 -17.5l-23 -17.5l-9 -6h1l-2 -2q2 -1 4.5 -1.5t4.5 -1.5l70 -25l70 -24l-117 -50l2 -24.5t2 -23.5l2 -10l2.5 2.5t6.5 4.5l118 80l-17 -127q11 -5 26 -12.5t26 -12.5q0 -1 2 -1q2 -1 4 -1q2 -1 1 11l-16 146l103 -73l42 31z
" />
    <glyph glyph-name="glyph181" horiz-adv-x="466" 
d="M415 425l-101 72l8 -71l8 -70q1 -6 0 -10t-3 -3q-2 0 -4 1q-3 0 -5 2h1q-13 5 -26 12t-26 12l17 124l-57 -38.5l-57 -38.5q-9 -7 -13 -7l-2 12l-2 25l-2 25l113 48l-67 23l-67 24l-12 5q0 1 1 2t3 2t3 2.5t3 2.5h-1l25 19l25 19l101 -74q-4 37 -8.5 72t-8.5 72q-1 5 0 8
t7 1q1 -1 1.5 -0.5t2.5 -1.5l26.5 -15.5l26.5 -15.5l-14 -119l56 42t56 41q11 8 13 -2l4 -56l-114 -49l63.5 -24l63.5 -24q14 -4 14 -8l-8 -8zM460 463q1 1 2 1t2 1q1 0 1 1t-12 6l-132 50l117 51l-2 27l-2 27q-2 6 -9 0l-116 -86l14 122l-26.5 15.5l-26.5 15.5l-7 4
q0 -1 -0.5 -3.5t0.5 -5.5l17 -149l-103 75l-23 -17.5l-23 -17.5l-9 -6h1l-2 -2q2 -1 4.5 -1.5t4.5 -1.5l70 -25l70 -24l-117 -50l2 -24.5t2 -23.5l2 -10l2.5 2.5t6.5 4.5l118 80l-17 -127q11 -5 26 -12.5t26 -12.5q0 -1 2 -1q2 -1 4 -1q2 -1 1 11l-16 146l103 -73l42 31z
" />
    <glyph glyph-name="glyph182" horiz-adv-x="466" 
d="M415 425l-101 72l8 -71l8 -70q1 -6 0 -10t-3 -3q-2 0 -4 1q-3 0 -5 2h1q-13 5 -26 12t-26 12l17 124l-57 -38.5l-57 -38.5q-9 -7 -13 -7l-2 12l-2 25l-2 25l113 48l-67 23l-67 24l-12 5q0 1 1 2t3 2t3 2.5t3 2.5h-1l25 19l25 19l101 -74q-4 37 -8.5 72t-8.5 72q-1 5 0 8
t7 1q1 -1 1.5 -0.5t2.5 -1.5l26.5 -15.5l26.5 -15.5l-14 -119l56 42t56 41q11 8 13 -2l4 -56l-114 -49l63.5 -24l63.5 -24q14 -4 14 -8l-8 -8zM460 463q1 1 2 1t2 1q1 0 1 1t-12 6l-132 50l117 51l-2 27l-2 27q-2 6 -9 0l-116 -86l14 122l-26.5 15.5l-26.5 15.5l-7 4
q0 -1 -0.5 -3.5t0.5 -5.5l17 -149l-103 75l-23 -17.5l-23 -17.5l-9 -6h1l-2 -2q2 -1 4.5 -1.5t4.5 -1.5l70 -25l70 -24l-117 -50l2 -24.5t2 -23.5l2 -10l2.5 2.5t6.5 4.5l118 80l-17 -127q11 -5 26 -12.5t26 -12.5q0 -1 2 -1q2 -1 4 -1q2 -1 1 11l-16 146l103 -73l42 31z
" />
    <glyph glyph-name="glyph183" unicode="&#x97b;" horiz-adv-x="432" 
d="M-45 613h633v-778h-633v778z" />
    <glyph glyph-name="glyph184" unicode="&#x97c;" horiz-adv-x="539" 
d="M-45 613h633v-778h-633v778z" />
    <glyph glyph-name="glyph139" unicode="&#x97d;" horiz-adv-x="926" 
d="M899 877q0 -50 -11.5 -84.5t-30 -61t-42 -47l-48.5 -41.5t-48.5 -46.5t-42 -60.5t-30 -83.5t-11.5 -116.5h-148q0 76 21 135.5t52 108t67.5 88l67.5 74.5t52 67.5t21 67.5q0 34 -15 61t-41.5 46t-63 29.5t-79.5 10.5q-38 0 -72 -9.5t-60.5 -27t-42 -43t-15.5 -57.5
q0 -42 22.5 -78.5t53.5 -60.5h-144q-26 20 -43.5 54.5t-17.5 71.5q0 57 28 104t74.5 80t108 51.5t129.5 18.5q63 0 119 -17t98.5 -49t67 -78.5t24.5 -106.5zM668 117q0 -22 -8 -41.5t-22 -34t-33.5 -23t-41.5 -8.5t-42.5 7.5t-36.5 22t-25.5 34t-9.5 43.5q0 23 9 43.5
t24 35.5t35.5 24t43.5 9t42.5 -9t34 -24.5t22.5 -36t8 -42.5z" />
    <glyph glyph-name="glyph140" unicode="&#x97e;" horiz-adv-x="508" 
d="M-45 613h633v-778h-633v778z" />
    <glyph glyph-name="glyph141" unicode="&#x97f;" horiz-adv-x="444" 
d="M-45 613h633v-778h-633v778z" />
    <glyph glyph-name="glyph142" horiz-adv-x="392" 
d="M315 425l-101 72l8 -71l8 -70q1 -6 0 -10t-3 -3q-2 0 -4 1q-3 0 -5 2h1q-13 5 -26 12t-26 12l17 124l-57 -38.5l-57 -38.5q-9 -7 -13 -7l-2 12l-2 25l-2 25l113 48l-67 23l-67 24l-12 5q0 1 1 2t3 2t3 2.5t3 2.5h-1l25 19l25 19l101 -74q-4 37 -8.5 72t-8.5 72q-1 5 0 8
t7 1q1 -1 1.5 -0.5t2.5 -1.5l26.5 -15.5l26.5 -15.5l-14 -119l56 42t56 41q11 8 13 -2l4 -56l-114 -49l63.5 -24l63.5 -24q14 -4 14 -8l-8 -8zM360 463q1 1 2 1t2 1q1 0 1 1t-12 6l-132 50l117 51l-2 27l-2 27q-2 6 -9 0l-116 -86l14 122l-26.5 15.5l-26.5 15.5l-7 4
q0 -1 -0.5 -3.5t0.5 -5.5l17 -149l-103 75l-23 -17.5l-23 -17.5l-9 -6h1l-1 -1l4 -2l4 -2l70 -25l70 -24l-117 -50l2 -24.5t2 -23.5l2 -10l2.5 2.5t6.5 4.5l118 80l-17 -127q11 -5 26 -12.5t26 -12.5q0 -1 2 -1q2 -1 4 -1q2 -1 1 11l-16 146l103 -73l42 31z" />
    <glyph glyph-name="glyph143" horiz-adv-x="995" 
d="M803 500l-53 -8q43 -22 82 -46.5t68 -53.5t46 -62.5t17 -73.5q0 -71 -35 -120.5t-94 -80.5t-138.5 -45t-167.5 -14q-64 0 -117.5 10t-101.5 28.5t-91.5 44t-86.5 56.5l55 115q34 -32 72.5 -59.5t81 -48t90 -32.5t98.5 -12q55 0 108.5 9.5t94.5 29t66.5 49t25.5 70.5
q0 34 -23 62t-61.5 52t-88 45.5l-103.5 43.5l-443 -68l-22 111l280 43q-35 20 -64 42.5t-51 49t-34 57t-12 66.5q0 55 29.5 93.5t78 63t110 35.5t126.5 11q34 0 72 -4t75.5 -11.5t73 -18t65.5 -22.5l-32 -98q-51 23 -103.5 35t-117.5 12q-44 0 -85 -5.5t-73 -18.5t-51 -36
t-19 -57q0 -25 16.5 -47t44.5 -42t66 -38.5t80 -36.5l125 19h457v-111z" />
    <glyph glyph-name="glyph144" horiz-adv-x="819" 
d="M725 528v-41q0 -41 -19 -86t-56.5 -83.5t-92 -63.5t-125.5 -25q-68 0 -122 22t-91.5 59.5t-57.5 87t-20 104.5v270q0 25 -11 42t-42 17h-88v105h123q37 0 64.5 -13.5t46.5 -36t28.5 -53.5t9.5 -65v-274q0 -36 10.5 -66.5t30.5 -53t50 -35.5t69 -13q78 0 122 45t44 121
v299h125v-150h276v-113h-274z" />
    <glyph glyph-name="glyph145" horiz-adv-x="805" 
d="M750 584q0 -72 -22 -137.5t-65 -114.5t-107 -78t-148 -29q-45 0 -91 14.5t-87.5 39t-75 57t-54.5 67.5l68 107q31 -82 92 -129t148 -47q49 0 88.5 19t67 52t42.5 79t15 100q0 51 -17 92t-48.5 70t-76 45t-100.5 16t-93.5 -15.5t-74.5 -37.5v112q35 17 74.5 31t93.5 14
q88 0 157 -25t116.5 -69.5t72.5 -104t25 -128.5z" />
    <glyph glyph-name="glyph146" horiz-adv-x="680" 
d="M872 227q-35 -31 -73 -57.5t-80 -46.5t-90.5 -31.5t-104.5 -11.5q-85 0 -161.5 19t-134.5 55t-92 89t-34 122t37.5 117.5t102.5 80.5q-62 20 -100 62t-38 108q0 56 29 99.5t77 73.5t108.5 45.5t123.5 15.5q34 0 63 -3.5t56 -10t53 -15l54 -18.5v-105q-45 22 -90 33.5
t-101 11.5q-50 0 -93 -7.5t-74.5 -23.5t-49.5 -41.5t-18 -62.5q0 -28 12 -49t32.5 -35.5t46.5 -21.5t54 -7h266v-108h-231q-38 0 -71 -11t-58.5 -31t-40 -47.5t-14.5 -60.5q0 -41 26.5 -71.5t67 -50.5t89 -29.5t93.5 -9.5q48 0 96.5 13.5t94.5 38.5t88.5 60t78.5 78v-156v0z
" />
    <glyph glyph-name="glyph147" horiz-adv-x="1145" 
d="M1077 651q0 -22 -9 -41.5t-24.5 -33.5t-35.5 -22.5t-41 -8.5q-23 0 -42.5 8.5t-33.5 22.5t-22.5 33.5t-8.5 41.5t8.5 42t22.5 35.5t33.5 24.5t42.5 9t43 -9t35 -24t23.5 -35.5t8.5 -42.5zM913 256q0 -71 -34.5 -120.5t-94 -80.5t-138.5 -45t-167 -14q-64 0 -117.5 10
t-101.5 28.5t-91.5 44t-86.5 56.5l55 115q34 -32 76 -59.5t87 -48t91 -32.5t88 -12q55 0 108 9.5t94.5 29t67 49t25.5 70.5q0 52 -26.5 86.5t-70.5 58.5t-100 41l-114 34t-114 37.5t-100 51t-70.5 74.5t-26.5 109q0 56 32 96.5t82 67t111 39t119 12.5q34 0 71.5 -4t75 -11.5
t73 -18t66.5 -22.5l-32 -98q-51 23 -104 35t-118 12q-44 0 -84.5 -5.5t-72.5 -18.5t-51 -36t-19 -57q0 -42 26.5 -70t69.5 -48t98 -35.5l112 -32.5t112 -39.5t98 -56.5t69.5 -82.5t26.5 -118.5zM860 -518l-516 467h235l393 -467h-112z" />
    <glyph glyph-name="glyph148" horiz-adv-x="705" 
d="M903 207q-2 -3 -29.5 -26t-74 -50t-109.5 -48.5t-137 -21.5q-81 0 -141 19.5t-102 51t-68.5 71.5t-41.5 80t-20.5 76.5t-5.5 62.5h-129v108h346q15 0 43.5 5.5t56.5 21t48.5 44t19.5 73.5q-1 42 -14 70t-35.5 44.5t-52.5 23.5t-64 7h-280v103h323q61 0 110 -20t82 -54.5
t49.5 -82t14.5 -101.5q-2 -60 -27 -101.5t-62.5 -69t-82 -43t-86 -22.5t-75.5 -8t-50 0q0 -38 10 -80t37.5 -78t75.5 -59.5t123 -24.5q39 -1 78.5 9.5t76 26.5t69.5 36.5t58.5 41.5t42.5 39.5t23 30.5v-155v0z" />
    <glyph glyph-name="glyph149" horiz-adv-x="1206" 
d="M1126 555q0 -77 -19 -151t-54.5 -140.5t-86 -122.5t-113 -97t-136 -64t-154.5 -23q-53 0 -107 7.5t-105 24t-95.5 44t-78 66.5t-52.5 91t-19 119q0 79 39.5 137t104.5 82q-37 11 -67.5 27.5t-53 40.5t-35 56.5t-12.5 74.5q0 45 20.5 83.5t54.5 66.5t76 43.5t86 15.5h207
v-98h-153q-32 0 -60 -7t-48.5 -21t-32 -37t-11.5 -54q0 -37 15 -62.5t41 -41t61 -22.5t76 -7h106v-105h-76q-92 0 -144 -44t-52 -140q0 -63 30.5 -107.5t77 -72.5t100.5 -41t101 -13q69 0 125.5 17t101.5 47.5t79 72t59 89.5q-55 36 -104 77.5t-85.5 88t-58 98.5t-21.5 109
q0 54 15 105.5t44.5 91t72 63.5t98.5 24q81 0 129 -34.5t73.5 -90.5t33 -126t7.5 -140zM999 651q0 39 -5.5 74.5t-19 62.5t-35.5 43.5t-56 16.5q-32 0 -53 -15.5t-34 -41t-18.5 -57.5t-5.5 -64q0 -43 17 -86.5t44 -82.5t60 -71.5t65 -54.5q22 66 31.5 137t9.5 139zM890 -548
l-516 467h235l393 -467h-112z" />
    <glyph glyph-name="glyph150" horiz-adv-x="975" 
d="M1153 629q-19 6 -41 8t-41 2q-42 0 -80 -12t-68.5 -34.5t-53 -54t-33.5 -71.5q34 -53 52.5 -106t18.5 -119q0 -38 -7.5 -77.5t-24.5 -72t-45 -53.5t-68 -21q-43 0 -72 21.5t-46 55.5t-24.5 74.5t-7.5 78.5q0 33 5.5 61t15.5 53.5t23.5 50.5t29.5 52q-11 22 -32.5 61
t-49.5 84t-61 91t-66 84t-64.5 61.5t-56.5 23.5q-46 0 -80.5 -16t-57 -44t-33.5 -65t-11 -79q0 -38 11 -70.5t32.5 -56t54 -37t74.5 -13.5q34 0 66 15.5t55 34.5v-109q-29 -23 -59.5 -37t-77.5 -14q-66 0 -119 25t-89.5 66.5t-56.5 96t-20 113.5q0 64 21.5 118t62 93
t99 60.5t132.5 21.5q46 0 88 -19.5t80 -52t71 -74t62 -86.5t53 -89l44 -81q27 54 59 91t72 59.5t89 32.5t109 10q17 0 34 -0.5t32 -3.5v-131v0z" />
    <glyph glyph-name="glyph151" horiz-adv-x="1167" 
d="M1100 389q0 -38 -7 -82.5t-22 -88.5t-38 -85t-54.5 -72t-73 -50t-92.5 -19q-54 0 -91.5 13t-66.5 38v100q29 -24 55 -36.5t66 -12.5q56 0 92.5 28.5t57.5 73t29 99t8 106.5q0 47 -10.5 91t-34.5 78.5t-62 55.5t-92 21q-35 0 -73.5 -17t-69.5 -40q6 -56 6 -109
q0 -52 -9.5 -108t-29.5 -110.5t-51.5 -103.5t-74 -86t-97.5 -59t-123 -22q-50 0 -98 16t-93 39v119q37 -28 76.5 -47t93.5 -19q78 0 130 34t82.5 88.5t43 122.5t12.5 136q0 64 -9.5 128t-34.5 116t-67.5 84.5t-109.5 32.5q-45 0 -91.5 -17.5t-84.5 -48.5v125q41 17 84 27
t103 10q69 0 122 -20t92 -54.5t65.5 -80.5t41.5 -99q15 13 33.5 25.5t39.5 22t43 15t44 5.5q32 0 57.5 -4t49.5 -12t48 -19.5t52 -26.5q34 -28 59.5 -63t41.5 -74.5t24 -81t8 -82.5z" />
    <glyph glyph-name="glyph152" horiz-adv-x="825" 
d="M756 471q-2 -14 -8.5 -46.5t-23 -74t-44.5 -85.5t-72 -81t-106 -60.5t-146 -23.5q-41 0 -86 13t-86.5 32t-76 40.5t-54.5 37.5l43 121l58 -44.5t61 -40.5t61.5 -29t59.5 -11q62 0 115 20.5t91.5 61t60.5 100.5t24 138q0 51 -13.5 92t-37 74t-54 57t-63 40t-64.5 24t-59 8
q-50 0 -91 -15.5t-87 -40.5l-17 121q34 23 89.5 37t115.5 14q86 0 149.5 -23.5t108.5 -59.5t74 -79.5t45.5 -84.5t23.5 -74t9 -47h262v-111h-262z" />
    <glyph glyph-name="glyph153" horiz-adv-x="977" 
d="M905 150q-38 -40 -76.5 -70t-84.5 -50t-101 -30t-125 -10q-90 0 -169 17.5t-138.5 54.5t-94 94.5t-34.5 136.5q0 58 25.5 101t67.5 75t96 54.5t110 40.5t110 33t96 31t67.5 35.5t25.5 45.5q0 33 -17 56.5t-45.5 39t-66 22.5t-78.5 7q-54 0 -113 -15.5t-122 -50.5l-15 117
q28 10 60.5 19.5t65.5 16.5t65 11t59 4q66 0 128 -14.5t110 -43t77 -69.5t29 -94q0 -49 -25.5 -83.5t-67 -59.5t-95 -43t-109 -34.5l-108.5 -33.5t-94.5 -39.5t-67 -53.5t-25.5 -75q0 -107 70 -153t215 -46q50 0 97 13t90 36t80 55.5t67 71.5zM890 -548l-516 467h235
l393 -467h-112z" />
    <glyph glyph-name="glyph154" horiz-adv-x="1001" 
d="M965 295q0 -81 -37 -138.5t-98 -93.5t-139.5 -52.5t-160.5 -16.5q-98 0 -182 17.5t-145.5 56.5t-97 100.5t-35.5 148.5q0 47 26 88t67 75.5t90.5 61t96.5 44.5q-57 29 -93 68t-36 98q0 57 28.5 95.5t76.5 62t109.5 34t127.5 10.5q59 0 117.5 -14t114.5 -33v-121
q-51 34 -113.5 49t-118.5 15q-38 0 -73 -4.5t-62.5 -17t-44 -33.5t-16.5 -54t25.5 -56t67.5 -41.5t96 -34t110 -33.5t110 -41t96 -55.5t67.5 -77.5t25.5 -107zM829 295q0 35 -15.5 62.5t-42 50t-62 40t-76 33t-84.5 29.5t-86 29q-44 -17 -89.5 -43.5t-83 -59.5t-61.5 -70.5
t-24 -76.5q0 -51 26.5 -87t71 -59t103.5 -34t124 -11q59 0 113 11.5t95.5 35.5t66 61.5t24.5 88.5zM890 -548l-516 467h235l393 -467h-112z" />
    <glyph glyph-name="glyph155" horiz-adv-x="954" 
d="M913 256q0 -71 -34.5 -120.5t-94 -80.5t-138.5 -45t-167 -14q-66 0 -122 11t-104.5 30t-90.5 44t-80 54l55 115q35 -32 73.5 -60t80.5 -48.5t89 -32t99 -11.5q55 0 108.5 9.5t94.5 29t66.5 49t25.5 70.5q0 52 -26.5 86.5t-70.5 59.5t-100 43l-114 36t-114 39.5t-100 53
t-70.5 76.5t-26.5 110q0 45 27 83t72 66t103.5 44t120.5 16q90 0 167 -23.5t140 -54.5l-32 -98l-52.5 25.5t-55 22.5t-61.5 15.5t-73 5.5q-38 0 -75 -6.5t-66 -21t-47.5 -38t-18.5 -57.5q0 -42 26.5 -70t69.5 -48t98 -35.5l112 -32.5t112 -39.5t98 -56.5t69.5 -82.5
t26.5 -118.5zM890 -548l-516 467h235l393 -467h-112z" />
    <glyph glyph-name="glyph156" horiz-adv-x="944" 
d="M874 221q0 -42 -17.5 -76t-46.5 -59.5t-66.5 -43.5t-77.5 -29.5t-79.5 -17t-72.5 -5.5q-51 0 -103 7.5t-100 23.5t-90 41t-73.5 60t-49.5 80t-18 101q0 63 25 107.5t66 76t93.5 53t107.5 37.5t107.5 29.5t93.5 29t66 35.5t25 50q0 40 -16.5 67t-45 43.5t-67.5 23.5t-84 7
q-38 0 -71 -4.5t-63 -12.5t-58.5 -19l-57.5 -23v112q55 20 114.5 33t135.5 13q71 0 136 -16.5t114.5 -48.5t78.5 -81t29 -113q0 -50 -25.5 -82.5t-67 -54.5t-94.5 -36t-108 -26.5t-108 -26.5t-94.5 -36t-67 -54.5t-25.5 -82.5q0 -54 21 -92t57.5 -62t85.5 -34.5t104 -10.5
q10 0 20 3l21 6q0 44 15.5 89.5t43.5 82t68 59.5t88 23q63 0 97 -37.5t34 -108.5zM890 -548l-516 467h235l393 -467h-112z" />
    <glyph glyph-name="glyph157" horiz-adv-x="868" 
d="M893 623q0 -67 -22.5 -125t-62.5 -100.5t-96.5 -66.5t-123.5 -24q-18 0 -41 2.5t-46.5 8t-45 12.5t-37.5 16v123q17 -8 30 -15t26.5 -12t29 -8.5t37.5 -3.5q42 0 81 10.5t68.5 32t47.5 55.5t18 82q0 93 -49.5 148t-145.5 55q-35 0 -72.5 -10t-66.5 -29v125
q42 14 84.5 23.5t85.5 9.5q64 0 119 -24.5t95.5 -67t63.5 -98.5t23 -119zM909 39q-36 -15 -78 -27.5t-84.5 -22t-84.5 -15t-78 -5.5q-92 0 -175.5 28.5t-146.5 82t-100 130.5t-37 175v551h129v-555q0 -62 26 -117.5t69 -97.5t99 -67t117 -25q42 0 83.5 6.5t80.5 18
t73.5 27.5t61.5 34z" />
    <glyph glyph-name="glyph158" horiz-adv-x="623" 
d="M565 608q-70 0 -129.5 -14t-103.5 -43.5t-69 -75t-25 -108.5q0 -136 85 -201.5t236 -65.5q29 0 59 10l58 19v-106q-15 -9 -34 -14.5t-39 -9.5t-39 -5.5t-34 -1.5q-95 0 -173.5 26t-134.5 75t-87 118.5t-31 155.5q0 76 35.5 141.5t93.5 113t132 74.5t151 27h336v-115h-287
z" />
    <glyph glyph-name="glyph159" horiz-adv-x="680" 
d="M872 250q-32 -26 -71 -51.5t-81.5 -45.5t-86.5 -32t-84 -12q-78 0 -159 22t-148 66t-109.5 110.5t-42.5 155.5q0 42 13.5 59.5t34.5 22t48 1.5t54 -3q26 0 60 2.5t69.5 10t69 20t60 31.5t42.5 46t16 64q0 33 -9 62.5t-27 51.5t-45 35t-62 13q-65 0 -99 -31t-34 -96
q0 -34 21 -63.5t50 -45.5h-127q-18 8 -31.5 23.5t-22.5 35t-14 41.5t-5 43q0 52 22 90.5t57.5 63.5t80.5 37t91 12q56 0 107.5 -18.5t90.5 -53t62 -83t23 -107.5q0 -62 -26 -113.5t-69 -88.5t-97.5 -58t-112.5 -21q-17 0 -41.5 3t-47.5 1.5t-39.5 -11.5t-16.5 -36
q0 -30 15 -55t39 -45t55 -35t63 -25t62 -15t54 -5q42 0 92 12.5t98.5 35.5t90.5 55t67 71v-147v0z" />
    <glyph glyph-name="ch288" horiz-adv-x="891" 
d="M852 219q-32 -29 -74 -55.5t-91.5 -47.5t-105.5 -33.5t-114 -12.5q-68 0 -133.5 19.5t-117.5 56t-84 88t-32 116.5q0 42 11 74.5t30.5 57.5t47 43.5t61.5 33.5q-34 6 -61.5 23t-47 41t-30.5 54.5t-11 63.5q0 53 26 95.5t69.5 72.5t99.5 46t117 16q35 0 68.5 -6t64 -15.5
t57.5 -21t49 -23.5v-114q-32 18 -60 31.5t-57 23.5t-60.5 15t-70.5 5q-32 0 -60.5 -9.5t-50 -27t-34 -43t-12.5 -57.5q0 -29 14.5 -50t38.5 -34.5t53.5 -20t59.5 -6.5h211v-112h-201q-37 0 -70 -10.5t-58 -30.5t-39.5 -49t-14.5 -66q0 -42 16.5 -75t46.5 -56t71.5 -35
t92.5 -12q57 0 111 15t103 39t92.5 55.5t78.5 64.5v-127zM900 -508l-516 467h235l393 -467h-112z" />
    <glyph glyph-name="ch289" horiz-adv-x="680" 
d="M872 213q-34 -34 -78.5 -62.5t-94 -49.5t-101 -32.5t-98.5 -11.5q-75 0 -148 15.5t-131.5 51.5t-94.5 95.5t-36 147.5q0 39 16.5 71t42.5 57t59 43.5t66 30.5q-29 8 -62.5 21.5t-62.5 34t-48 48t-19 62.5q0 45 25 84.5t65 73.5t91 62t104 49.5t102 37.5t86 25l51 -98
q-27 -5 -65 -14t-79.5 -23t-82.5 -33.5t-74 -44.5t-53.5 -55.5t-20.5 -67.5q0 -32 28 -52t71.5 -30.5t95.5 -14t100 -3.5t85 2t51 2v-111h-228q-37 0 -73.5 -15.5t-66 -41t-47.5 -60t-18 -71.5q0 -49 28.5 -80.5t70 -49.5t88.5 -25t84 -7q40 0 89.5 13t100.5 37t99 58t83 76
v-145v0z" />
    <glyph glyph-name="ch290" horiz-adv-x="743" 
d="M649 629q37 -32 52.5 -78t15.5 -94q0 -44 -21.5 -84.5t-61.5 -72t-97.5 -50.5t-128.5 -19q-78 0 -139 20t-103 54.5t-64 82t-22 101.5q0 58 24 105.5t63.5 81t91 51.5t106.5 18h555v-116h-271zM590 483q0 50 -17.5 87t-60.5 59q-3 3 -25.5 5.5t-54 0.5t-67 -9.5
t-66 -24.5t-50.5 -45.5t-20 -70.5q0 -37 15 -64.5t39 -46t55.5 -27.5t64.5 -9q34 0 67.5 10.5t60 29t43 45.5t16.5 60z" />
    <glyph glyph-name="ch291" horiz-adv-x="483" 
d="M694 266q-8 -5 -27 -18t-48.5 -26.5t-68.5 -24.5t-85 -11q-44 0 -97 21t-99.5 59.5t-77.5 92.5t-31 120v318q0 21 -5.5 27.5t-25.5 6.5h-92v105h110q36 0 64 -14t46.5 -37t28 -53.5t9.5 -63.5v-295q0 -31 14 -60t40 -51.5t62 -36.5t81 -14q27 0 57 9.5t58.5 23t51.5 27.5
t35 22v-127v0z" />
    <glyph glyph-name="ch292" horiz-adv-x="967" 
d="M1128 494l-376 18q36 -16 75.5 -40.5t73 -56t55 -69.5t21.5 -82q0 -53 -20.5 -93.5t-54.5 -70t-79 -49.5t-94 -32.5t-99.5 -18t-94.5 -6.5l319 -207h-242l-225 225q-42 12 -83.5 29t-78.5 36.5t-69 39.5t-56 37l90 90q56 -71 140 -103t196 -32q38 0 91 7t102 25t83 49.5
t34 81.5q0 41 -30.5 76t-74 63t-90.5 47.5t-80 30.5l-457 -63l-22 129l317 23q-27 13 -53.5 31.5t-48.5 42t-35.5 51.5t-13.5 61q0 56 29.5 94t74 61.5t96.5 33.5t97 10q40 0 84 -5.5t86 -14t79.5 -19.5t63.5 -23l-29 -98q-21 7 -46 14.5t-51.5 13.5t-52 9.5t-46.5 3.5
q-31 0 -71.5 -4.5t-76.5 -18t-61 -38.5t-25 -66q0 -23 19.5 -42t46.5 -33.5t55.5 -24.5t46.5 -15l561 -2v-106z" />
    <glyph glyph-name="ch293" horiz-adv-x="852" 
d="M825 549v-19q0 -63 -26 -126t-73 -114t-113 -82.5t-146 -31.5q-99 0 -169.5 33.5t-115 91.5t-65.5 135.5t-21 165.5q0 72 22 140t64 121t103 85.5t139 32.5q49 0 83 -13.5t66 -33.5v-107q-35 25 -65 35t-70 10q-48 0 -87 -26.5t-66 -68.5t-41.5 -93.5t-14.5 -101.5
q0 -72 12 -126.5t38.5 -91.5t68.5 -56t101 -19q57 0 103.5 19.5t78.5 54.5t49.5 84t17.5 108v209h125v-105h242v-110h-240z" />
    <glyph glyph-name="ch294" horiz-adv-x="934" 
d="M801 444q0 -37 -5 -69.5t-20 -56.5t-42 -38t-70 -14q-32 0 -60 11.5t-49 32.5t-33 49t-12 61q0 71 38.5 111t110.5 40v131q0 35 -12 66.5t-33.5 55.5t-51.5 38.5t-66 14.5q-47 0 -84 -17t-64.5 -46.5t-46.5 -68t-31 -82t-17 -89.5t-5 -89q0 -55 7.5 -112t23.5 -112.5
t40 -108t56 -97.5h-117q-35 52 -61 104t-44 105.5t-27 110.5t-9 119q0 87 21.5 173t67 154t115.5 110t168 42q75 0 133 -23.5t97.5 -63t60.5 -92.5t21 -112v-113h325v-125h-325z" />
    <glyph glyph-name="ch295" horiz-adv-x="588" 
d="M442 440v-39q0 -27 -11 -53.5t-31.5 -46.5t-50.5 -32.5t-68 -12.5q-32 0 -59.5 11t-47.5 31t-31.5 48t-11.5 62q0 40 14 68.5t37.5 47t54.5 26t66 5.5v211q0 40 -23 54t-61 14h-147v98h155q104 0 159.5 -44.5t55.5 -121.5v-211h342v-115h-342z" />
    <glyph glyph-name="ch296" horiz-adv-x="680" 
d="M872 242q-37 -23 -80.5 -43.5t-90 -36.5t-93.5 -25.5t-90 -9.5q-81 0 -159.5 24t-140.5 70.5t-100 115t-38 157.5q0 21 9 39.5t24 32t34.5 21t40.5 7.5q54 0 107.5 -6t107.5 -6q31 0 60 4.5t51.5 17t35.5 35.5t13 61q0 42 -18.5 68.5t-47 41.5t-63.5 20.5t-69 5.5h-226
v104h307q51 0 98 -20.5t82.5 -55t57 -80t21.5 -94.5q0 -54 -24 -96t-63 -70t-88 -42.5t-98 -14.5q-38 0 -76.5 9t-76.5 9q-22 0 -32.5 -8.5t-10.5 -30.5q0 -51 27.5 -90t69.5 -65.5t91 -40.5t92 -14q42 0 92 10t99.5 28.5t93 44.5t71.5 58v-135v0z" />
    <glyph glyph-name="ch297" horiz-adv-x="969" 
d="M455 -4q-57 0 -85 25.5t-44 66.5l-111 283h-115v133h406q50 0 90.5 7.5t69.5 25t45 47.5t16 75q0 42 -16.5 71t-46.5 47t-71 26t-89 8h-365v125h383q79 0 144.5 -21t113 -58t73.5 -88t26 -110q0 -81 -34.5 -136.5t-91 -89t-128 -48t-146.5 -14.5h-100l82 -199
q9 -22 18 -32.5t37 -10.5h383v-133h-444zM890 -548l-516 467h235l393 -467h-112z" />
    <glyph glyph-name="ch298" horiz-adv-x="676" 
d="M485 426v119h385v-119h-385zM698 41q-37 -14 -77.5 -20.5t-77.5 -6.5q-83 0 -167 34.5t-152 97t-111 149.5t-43 192q0 55 15 111t43 107.5t68 96.5t91.5 78.5t113 52.5t131.5 19q49 0 85.5 -5t80.5 -23v-111q-6 1 -24 5t-39.5 8t-43 7t-34.5 3q-75 0 -139 -27.5
t-110.5 -75t-72.5 -111t-26 -135.5q0 -84 33 -149.5t87.5 -110.5t126 -68.5t148.5 -23.5q22 0 49.5 8.5t44.5 22.5v-125z" />
    <glyph glyph-name="ch299" horiz-adv-x="852" 
d="M936 834q-64 0 -99.5 -31.5t-55 -83.5t-27.5 -118.5l-17 -135.5t-23.5 -135.5t-47 -118.5t-87.5 -83.5t-145 -31.5q-95 0 -166.5 39.5t-119 103t-71.5 142.5t-24 158q0 81 19.5 153t59.5 126t99.5 86t139.5 32q28 0 46.5 -3t33.5 -7.5t29.5 -10.5t33.5 -12v-102
q-26 12 -50.5 20t-55.5 8q-64 0 -107 -26t-69.5 -71t-38 -105t-11.5 -127q0 -55 15 -109t45 -97t76.5 -70t109.5 -27q65 0 101 32t54.5 83.5t26 118l16 136t23.5 136t48.5 118t91.5 83.5t153 32h111v-102h-117z" />
    <glyph glyph-name="ch300" horiz-adv-x="582" 
d="M772 221q-31 -24 -66.5 -45.5t-74 -37.5t-77.5 -25t-77 -9q-87 0 -157.5 31.5t-119.5 84.5t-75.5 122.5t-26.5 146.5q0 75 29 137.5t79 107.5t116 70t141 25q19 0 41.5 -3t45 -8.5t44 -12.5t39.5 -14l-21 -113q-32 14 -67 21.5t-58 7.5q-121 0 -189.5 -59t-68.5 -169
q0 -53 17 -98.5t48.5 -78.5t76.5 -52t102 -19q37 0 77.5 9t81 28.5t80 48.5t74.5 70z" />
    <glyph glyph-name="ch301" horiz-adv-x="875" 
d="M780 639q0 -75 -27.5 -133t-74 -100t-107.5 -68.5t-129 -38.5q42 -14 89 -43t87 -69t66.5 -88t26.5 -99h-156q0 47 -16.5 86t-44 70.5t-63 54.5t-72.5 38.5t-72.5 23.5t-63.5 8h-139v112h278q54 0 104.5 18t90 51t63 79.5t23.5 103.5q0 47 -14.5 89.5t-42.5 74.5t-69 51
t-93 19q-38 0 -70.5 -10t-56.5 -29.5t-37.5 -47t-13.5 -61.5q0 -46 32 -75t80 -29q40 0 63.5 17t43.5 40l72 -72q-31 -40 -82 -66t-107 -26q-50 0 -93 16t-74.5 44.5t-49.5 69t-18 89.5q0 59 24.5 106t66 79.5t94.5 49.5t110 17q85 0 154 -24t117.5 -69.5t74.5 -111
t26 -147.5z" />
    <glyph glyph-name="ch302" horiz-adv-x="559" 
d="M741 332q-11 -18 -35.5 -44t-59 -50t-77 -41t-88.5 -17q-50 0 -109 17.5t-110 50.5t-85 81t-34 109v350q0 22 -8 32.5t-31 10.5h-104v105h195l546 -432v-172zM281 780v-327q0 -34 18 -62t47 -48t65.5 -31t73.5 -11q45 0 81 15t64 37.5t47.5 49.5t31.5 52z" />
    <glyph glyph-name="glyph175" horiz-adv-x="850" 
d="M776 543q-21 -51 -61.5 -84.5t-91 -53t-107 -27t-110.5 -7.5h-27l82 -199q9 -22 18 -32.5t37 -10.5h279v-133h-340q-57 0 -85 25.5t-44 66.5l-111 283h-115v133h365q24 0 55 5.5t58.5 21t46.5 44t20 74.5q0 44 -15.5 74.5t-42 50t-62.5 28.5t-76 9h-310v125h369
q56 0 106 -20t88.5 -55.5t63 -83t29.5 -101.5h239v-133h-258z" />
    <glyph glyph-name="glyph176" horiz-adv-x="862" 
d="M662 467q-75 0 -137 14.5t-106.5 44.5t-69.5 75t-25 106q0 66 21 116.5t60.5 85t95.5 52.5t126 18q78 0 136.5 -22t106.5 -50l-10 -110q-18 12 -43.5 24.5t-53.5 22t-57.5 16t-56.5 6.5q-41 0 -74 -12t-56.5 -33t-36.5 -50.5t-13 -63.5q0 -36 15.5 -60.5t44 -38.5t69 -20
t90.5 -6h356v-115h-382zM874 45q-21 -19 -52.5 -40t-72 -38.5t-89.5 -29t-103 -11.5q-98 0 -185 26.5t-152 78t-103.5 128t-38.5 177.5q0 69 23 123t65 100l117 -53q-19 -23 -32 -44t-21.5 -45t-12.5 -52t-4 -64q0 -62 30 -110.5t78.5 -83t110 -52.5t123.5 -18
q42 0 86.5 11.5t86.5 30.5t80 44t66 51v-129z" />
    <glyph glyph-name="ch305" horiz-adv-x="466" 
d="M355 425l-101 72l8 -71l8 -70q1 -6 0 -10t-3 -3q-2 0 -4 1q-3 0 -5 2h1q-13 5 -26 12t-26 12l17 124l-57 -38.5l-57 -38.5q-9 -7 -13 -7l-2 12l-2 25l-2 25l113 48l-67 23l-67 24l-12 5q0 1 1 2t3 2t3 2.5t3 2.5h-1l25 19l25 19l101 -74q-4 37 -8.5 72t-8.5 72q-1 5 0 8
t7 1q1 -1 1.5 -0.5t2.5 -1.5l26.5 -15.5l26.5 -15.5l-14 -119l56 42t56 41q11 8 13 -2l4 -56l-114 -49l63.5 -24l63.5 -24q14 -4 14 -8l-8 -8zM400 463q1 1 2 1t2 1q1 0 1 1t-12 6l-132 50l117 51l-2 27l-2 27q-2 6 -9 0l-116 -86l14 122l-26.5 15.5l-26.5 15.5l-7 4
q0 -1 -0.5 -3.5t0.5 -5.5l17 -149l-103 75l-23 -17.5l-23 -17.5l-9 -6h1l-2 -2q2 -1 4.5 -1.5t4.5 -1.5l70 -25l70 -24l-117 -50l2 -24.5t2 -23.5l2 -10l2.5 2.5t6.5 4.5l118 80l-17 -127q11 -5 26 -12.5t26 -12.5q0 -1 2 -1q2 -1 4 -1q2 -1 1 11l-16 146l103 -73l42 31z
" />
    <glyph glyph-name="ch306" horiz-adv-x="1114" 
d="M750 492q43 -22 82.5 -45t68.5 -50t46.5 -59t17.5 -72q0 -71 -30.5 -123.5t-83.5 -87t-125 -52t-155 -17.5q-61 0 -121 14t-115.5 38t-105.5 55t-92 65l56 114q36 -38 81 -71t94.5 -58.5t101.5 -40t101 -14.5q55 0 102 12t80.5 35t52.5 56t19 75q0 35 -23.5 61.5
t-62 48.5t-88.5 41.5l-104 41.5l-443 -68l-22 111l280 43q-35 20 -64 42.5t-51 49t-34 57t-12 66.5q0 55 26.5 95.5t70.5 67t102.5 39.5t123.5 13q45 0 90 -6.5t86 -18t76.5 -26t63.5 -29.5l-33 -98q-63 31 -128 51t-122 20q-38 0 -75 -7t-66 -23t-47.5 -40.5t-18.5 -58.5
q0 -25 16.5 -47t44.5 -42t66 -38.5t80 -36.5l500 76l26 -108zM960 -518l-516 467h235l393 -467h-112z" />
    <glyph glyph-name="ch307" horiz-adv-x="1253" 
d="M978 0v528h-253v-41q0 -41 -19 -86t-56.5 -83.5t-92 -63.5t-125.5 -25q-68 0 -122 22t-91.5 59.5t-57.5 87t-20 104.5v270q0 25 -11 42t-42 17h-88v105h123q37 0 64.5 -13.5t46.5 -36t28.5 -53.5t9.5 -65v-274q0 -36 10.5 -66.5t30.5 -53t50 -35.5t69 -13q78 0 122 45
t44 121v299h125v-150h255v295h129v-936h-129zM1370 -518l-516 467h235l393 -467h-112z" />
    <glyph glyph-name="ch308" horiz-adv-x="1253" 
d="M750 584q0 -72 -22 -137.5t-65 -114.5t-107 -78t-148 -29q-45 0 -91 14.5t-87.5 39t-75 57t-54.5 67.5l68 107q31 -82 92 -129t148 -47q49 0 88.5 19t67 52t42.5 79t15 100q0 51 -17 92t-48.5 70t-76 45t-100.5 16t-93.5 -15.5t-74.5 -37.5v112q35 17 74.5 31t93.5 14
q88 0 157 -25t116.5 -69.5t72.5 -104t25 -128.5zM968 0v936h129v-936h-129zM1370 -518l-516 467h235l393 -467h-112z" />
    <glyph glyph-name="ch309" horiz-adv-x="1111" 
d="M848 0v206q-33 -27 -68.5 -50t-75 -40t-84.5 -26.5t-96 -9.5q-85 0 -161.5 19t-134.5 55t-92 89t-34 122t37.5 117.5t102.5 80.5q-62 20 -100 62t-38 108q0 56 29 99.5t77 73.5t108.5 45.5t123.5 15.5q34 0 63 -3.5t56 -10t53 -15l54 -18.5v-105q-45 22 -90 33.5
t-101 11.5q-50 0 -93 -7.5t-74.5 -23.5t-49.5 -41.5t-18 -62.5q0 -28 12 -49t32.5 -35.5t46.5 -21.5t54 -7h266v-108h-231q-38 0 -71 -11t-58.5 -31t-40 -47.5t-14.5 -60.5q0 -41 26.5 -71.5t67 -50.5t89 -29.5t93.5 -9.5q89 0 176 44t158 119v580h129v-936h-129zM1270 -518
l-516 467h235l393 -467h-112z" />
    <glyph glyph-name="ch310" horiz-adv-x="1145" 
d="M1077 651q0 -22 -9 -41.5t-24.5 -33.5t-35.5 -22.5t-41 -8.5q-23 0 -42.5 8.5t-33.5 22.5t-22.5 33.5t-8.5 41.5t8.5 42t22.5 35.5t33.5 24.5t42.5 9t43 -9t35 -24t23.5 -35.5t8.5 -42.5zM913 256q0 -71 -34.5 -120.5t-94 -80.5t-138.5 -45t-167 -14q-64 0 -117.5 10
t-101.5 28.5t-91.5 44t-86.5 56.5l55 115q34 -32 76 -59.5t87 -48t91 -32.5t88 -12q55 0 108 9.5t94.5 29t67 49t25.5 70.5q0 52 -26.5 86.5t-70.5 58.5t-100 41l-114 34t-114 37.5t-100 51t-70.5 74.5t-26.5 109q0 56 32 96.5t82 67t111 39t119 12.5q34 0 71.5 -4t75 -11.5
t73 -18t66.5 -22.5l-32 -98q-51 23 -104 35t-118 12q-44 0 -84.5 -5.5t-72.5 -18.5t-51 -36t-19 -57q0 -42 26.5 -70t69.5 -48t98 -35.5l112 -32.5t112 -39.5t98 -56.5t69.5 -82.5t26.5 -118.5zM870 -518l-516 467h235l393 -467h-112z" />
    <glyph glyph-name="ch311" horiz-adv-x="1161" 
d="M888 0v193q-16 -14 -47 -36.5t-74.5 -43.5t-98 -36.5t-115.5 -15.5q-81 0 -141 19.5t-102 51t-68.5 71.5t-41.5 80t-20.5 76.5t-5.5 62.5h-129v108h346q15 0 43.5 5.5t56.5 21t48.5 44t19.5 73.5q-1 42 -14 70t-35.5 44.5t-52.5 23.5t-64 7h-280v103h323q61 0 110 -20
t82 -54.5t49.5 -82t14.5 -101.5q-2 -60 -27 -101.5t-62.5 -69t-82 -43t-86 -22.5t-75.5 -8t-50 0q0 -38 10 -80t37.5 -78t75.5 -59.5t123 -24.5q51 -1 102.5 16t96.5 42t80 53.5t54 50.5v596h129v-936h-129zM1318 -518l-516 467h235l393 -467h-112z" />
    <glyph glyph-name="ch312" horiz-adv-x="1206" 
d="M1126 555q0 -77 -19 -151t-54.5 -140.5t-86 -122.5t-113 -97t-136 -64t-154.5 -23q-53 0 -107 7.5t-105 24t-95.5 44t-78 66.5t-52.5 91t-19 119q0 79 39.5 137t104.5 82q-37 11 -67.5 27.5t-53 40.5t-35 56.5t-12.5 74.5q0 45 20.5 83.5t54.5 66.5t76 43.5t86 15.5h207
v-98h-153q-32 0 -60 -7t-48.5 -21t-32 -37t-11.5 -54q0 -37 15 -62.5t41 -41t61 -22.5t76 -7h106v-105h-76q-92 0 -144 -44t-52 -140q0 -63 30.5 -107.5t77 -72.5t100.5 -41t101 -13q69 0 125.5 17t101.5 47.5t79 72t59 89.5q-55 36 -104 77.5t-85.5 88t-58 98.5t-21.5 109
q0 54 15 105.5t44.5 91t72 63.5t98.5 24q81 0 129 -34.5t73.5 -90.5t33 -126t7.5 -140zM999 651q0 39 -5.5 74.5t-19 62.5t-35.5 43.5t-56 16.5q-32 0 -53 -15.5t-34 -41t-18.5 -57.5t-5.5 -64q0 -43 17 -86.5t44 -82.5t60 -71.5t65 -54.5q22 66 31.5 137t9.5 139zM910 -538
l-516 467h235l393 -467h-112z" />
    <glyph glyph-name="glyph185" horiz-adv-x="1204" 
d="M1186 836q-36 -30 -78.5 -70.5t-86 -87l-85.5 -95.5t-76 -96q32 -71 50 -139t18 -125q0 -41 -6.5 -81t-23 -71.5t-46 -51t-74.5 -19.5q-41 0 -69.5 16.5t-46.5 44t-26.5 64.5t-8.5 78q0 71 25 140.5t67 137.5q-38 57 -85 120t-97 116.5t-101 88t-96 34.5t-76 -17
t-50.5 -45.5t-28.5 -65t-9 -75.5q0 -41 10 -76t31 -60.5t53 -40t76 -14.5q38 0 73.5 15.5t63.5 40.5v-129q-32 -25 -64.5 -33t-72.5 -8q-61 0 -114.5 25t-93.5 67.5t-63.5 97.5t-23.5 115q0 63 20 119.5t56.5 99t89.5 67.5t119 25q67 0 132 -28.5t125 -76.5t113.5 -111.5
t96.5 -133.5q39 50 81.5 97.5l85 91.5l82 85l72.5 78zM1170 -518l-516 467h235l393 -467h-112z" />
    <glyph glyph-name="glyph186" horiz-adv-x="1167" 
d="M1100 389q0 -38 -7 -82.5t-22 -88.5t-38 -85t-54.5 -72t-73 -50t-92.5 -19q-54 0 -91.5 13t-66.5 38v100q29 -24 55 -36.5t66 -12.5q56 0 92.5 28.5t57.5 73t29 99t8 106.5q0 47 -10.5 91t-34.5 78.5t-62 55.5t-92 21q-35 0 -73.5 -17t-69.5 -40q6 -56 6 -109
q0 -52 -9.5 -108t-29.5 -110.5t-51.5 -103.5t-74 -86t-97.5 -59t-123 -22q-50 0 -98 16t-93 39v119q37 -28 76.5 -47t93.5 -19q78 0 130 34t82.5 88.5t43 122.5t12.5 136q0 64 -9.5 128t-34.5 116t-67.5 84.5t-109.5 32.5q-45 0 -91.5 -17.5t-84.5 -48.5v125q41 17 84 27
t103 10q69 0 122 -20t92 -54.5t65.5 -80.5t41.5 -99q15 13 33.5 25.5t39.5 22t43 15t44 5.5q28 0 59.5 -5.5t57.5 -11.5q16 8 31.5 19t27.5 25.5t19.5 31.5t7.5 37q0 18 -2.5 35.5t-10.5 40.5h146q0 -46 -6 -82t-21 -63.5t-40 -49t-62 -39.5q34 -28 59.5 -63t41.5 -74.5
t24 -81t8 -82.5zM1170 -518l-516 467h235l393 -467h-112z" />
    <glyph glyph-name="glyph187" horiz-adv-x="1276" 
d="M1008 0v471h-252q-2 -14 -8.5 -46.5t-23 -74t-44.5 -85.5t-72 -81t-106 -60.5t-146 -23.5q-41 0 -86 13t-86.5 32t-76 40.5t-54.5 37.5l43 121l58 -44.5t61 -40.5t61.5 -29t59.5 -11q62 0 115 20.5t91.5 61t60.5 100.5t24 138q0 51 -13.5 92t-37 74t-54 57t-63 40
t-64.5 24t-59 8q-50 0 -91 -15.5t-87 -40.5l-17 121q34 23 89.5 37t115.5 14q86 0 149.5 -23.5t108.5 -59.5t74 -79.5t45.5 -84.5t23.5 -74t9 -47h252v354h129v-936h-129zM1410 -518l-516 467h235l393 -467h-112z" />
    <glyph glyph-name="glyph188" horiz-adv-x="977" 
d="M905 150q-38 -40 -76.5 -70t-84.5 -50t-101 -30t-125 -10q-90 0 -169 17.5t-138.5 54.5t-94 94.5t-34.5 136.5q0 58 25.5 101t67.5 75t96 54.5t110 40.5t110 33t96 31t67.5 35.5t25.5 45.5q0 33 -17 56.5t-45.5 39t-66 22.5t-78.5 7q-54 0 -113 -15.5t-122 -50.5l-15 117
q28 10 60.5 19.5t65.5 16.5t65 11t59 4q66 0 128 -14.5t110 -43t77 -69.5t29 -94q0 -49 -25.5 -83.5t-67 -59.5t-95 -43t-109 -34.5l-108.5 -33.5t-94.5 -39.5t-67 -53.5t-25.5 -75q0 -107 70 -153t215 -46q50 0 97 13t90 36t80 55.5t67 71.5zM930 -518l-516 467h235
l393 -467h-112z" />
    <glyph glyph-name="glyph189" horiz-adv-x="1001" 
d="M965 295q0 -81 -37 -138.5t-98 -93.5t-139.5 -52.5t-160.5 -16.5q-98 0 -182 17.5t-145.5 56.5t-97 100.5t-35.5 148.5q0 47 26 88t67 75.5t90.5 61t96.5 44.5q-57 29 -93 68t-36 98q0 57 28.5 95.5t76.5 62t109.5 34t127.5 10.5q59 0 117.5 -14t114.5 -33v-121
q-51 34 -113.5 49t-118.5 15q-38 0 -73 -4.5t-62.5 -17t-44 -33.5t-16.5 -54t25.5 -56t67.5 -41.5t96 -34t110 -33.5t110 -41t96 -55.5t67.5 -77.5t25.5 -107zM829 295q0 35 -15.5 62.5t-42 50t-62 40t-76 33t-84.5 29.5t-86 29q-44 -17 -89.5 -43.5t-83 -59.5t-61.5 -70.5
t-24 -76.5q0 -51 26.5 -87t71 -59t103.5 -34t124 -11q59 0 113 11.5t95.5 35.5t66 61.5t24.5 88.5zM870 -518l-516 467h235l393 -467h-112z" />
    <glyph glyph-name="glyph190" horiz-adv-x="954" 
d="M913 256q0 -71 -34.5 -120.5t-94 -80.5t-138.5 -45t-167 -14q-66 0 -122 11t-104.5 30t-90.5 44t-80 54l55 115q35 -32 73.5 -60t80.5 -48.5t89 -32t99 -11.5q55 0 108.5 9.5t94.5 29t66.5 49t25.5 70.5q0 52 -26.5 86.5t-70.5 59.5t-100 43l-114 36t-114 39.5t-100 53
t-70.5 76.5t-26.5 110q0 45 27 83t72 66t103.5 44t120.5 16q90 0 167 -23.5t140 -54.5l-32 -98l-52.5 25.5t-55 22.5t-61.5 15.5t-73 5.5q-38 0 -75 -6.5t-66 -21t-47.5 -38t-18.5 -57.5q0 -42 26.5 -70t69.5 -48t98 -35.5l112 -32.5t112 -39.5t98 -56.5t69.5 -82.5
t26.5 -118.5zM870 -518l-516 467h235l393 -467h-112z" />
    <glyph glyph-name="glyph191" horiz-adv-x="944" 
d="M874 221q0 -42 -17.5 -76t-46.5 -59.5t-66.5 -43.5t-77.5 -29.5t-79.5 -17t-72.5 -5.5q-51 0 -103 7.5t-100 23.5t-90 41t-73.5 60t-49.5 80t-18 101q0 63 25 107.5t66 76t93.5 53t107.5 37.5t107.5 29.5t93.5 29t66 35.5t25 50q0 40 -16.5 67t-45 43.5t-67.5 23.5t-84 7
q-38 0 -71 -4.5t-63 -12.5t-58.5 -19l-57.5 -23v112q55 20 114.5 33t135.5 13q71 0 136 -16.5t114.5 -48.5t78.5 -81t29 -113q0 -50 -25.5 -82.5t-67 -54.5t-94.5 -36t-108 -26.5t-108 -26.5t-94.5 -36t-67 -54.5t-25.5 -82.5q0 -54 21 -92t57.5 -62t85.5 -34.5t104 -10.5
q10 0 20 3l21 6q0 44 15.5 89.5t43.5 82t68 59.5t88 23q63 0 97 -37.5t34 -108.5zM870 -518l-516 467h235l393 -467h-112z" />
    <glyph glyph-name="glyph192" horiz-adv-x="1296" 
d="M893 623q0 -67 -22.5 -125t-62.5 -100.5t-96.5 -66.5t-123.5 -24q-18 0 -41 2.5t-46.5 8t-45 12.5t-37.5 16v123q17 -8 30 -15t26.5 -12t29 -8.5t37.5 -3.5q42 0 81 10.5t68.5 32t47.5 55.5t18 82q0 93 -49.5 148t-145.5 55q-35 0 -72.5 -10t-66.5 -29v125
q42 14 84.5 23.5t85.5 9.5q64 0 119 -24.5t95.5 -67t63.5 -98.5t23 -119zM909 39q-36 -15 -78 -27.5t-84.5 -22t-84.5 -15t-78 -5.5q-92 0 -175.5 28.5t-146.5 82t-100 130.5t-37 175v551h129v-555q0 -62 26 -117.5t69 -97.5t99 -67t117 -25q42 0 83.5 6.5t80.5 18
t73.5 27.5t61.5 34zM1028 0v936h129v-936h-129zM1410 -518l-516 467h235l393 -467h-112z" />
    <glyph glyph-name="glyph193" horiz-adv-x="1106" 
d="M828 0v608h-263q-70 0 -129.5 -14t-103.5 -43.5t-69 -75t-25 -108.5q0 -136 85 -201.5t236 -65.5q29 0 59 10l58 19v-106q-15 -9 -34 -14.5t-39 -9.5t-39 -5.5t-34 -1.5q-95 0 -173.5 26t-134.5 75t-87 118.5t-31 155.5q0 76 35.5 141.5t93.5 113t132 74.5t151 27h312
v213h129v-936h-129zM1250 -518l-516 467h235l393 -467h-112z" />
    <glyph glyph-name="glyph194" horiz-adv-x="1143" 
d="M868 0v246q-32 -26 -70.5 -50.5t-80.5 -44t-85 -31t-83 -11.5q-78 0 -159 22t-148 66t-109.5 110.5t-42.5 155.5q0 42 13.5 59.5t34.5 22t48 1.5t54 -3q26 0 60 2.5t69.5 10t69 20t60 31.5t42.5 46t16 64q0 33 -9 62.5t-27 51.5t-45 35t-62 13q-65 0 -99 -31t-34 -96
q0 -34 21 -63.5t50 -45.5h-127q-18 8 -31.5 23.5t-22.5 35t-14 41.5t-5 43q0 52 22 90.5t57.5 63.5t80.5 37t91 12q56 0 107.5 -18.5t90.5 -53t62 -83t23 -107.5q0 -62 -26 -113.5t-69 -88.5t-97.5 -58t-112.5 -21q-17 0 -41.5 3t-47.5 1.5t-39.5 -11.5t-16.5 -36
q0 -30 15 -55t39 -45t55 -35t63 -25t62 -15t54 -5q41 0 90 12t96.5 34t89.5 53t68 69v545h129v-936h-129zM1270 -518l-516 467h235l393 -467h-112z" />
    <glyph glyph-name="glyph195" horiz-adv-x="891" 
d="M852 219q-32 -29 -74 -55.5t-91.5 -47.5t-105.5 -33.5t-114 -12.5q-68 0 -133.5 19.5t-117.5 56t-84 88t-32 116.5q0 42 11 74.5t30.5 57.5t47 43.5t61.5 33.5q-34 6 -61.5 23t-47 41t-30.5 54.5t-11 63.5q0 53 26 95.5t69.5 72.5t99.5 46t117 16q35 0 68.5 -6t64 -15.5
t57.5 -21t49 -23.5v-114q-32 18 -60 31.5t-57 23.5t-60.5 15t-70.5 5q-32 0 -60.5 -9.5t-50 -27t-34 -43t-12.5 -57.5q0 -29 14.5 -50t38.5 -34.5t53.5 -20t59.5 -6.5h211v-112h-201q-37 0 -70 -10.5t-58 -30.5t-39.5 -49t-14.5 -66q0 -42 16.5 -75t46.5 -56t71.5 -35
t92.5 -12q57 0 111 15t103 39t92.5 55.5t78.5 64.5v-127zM970 -518l-516 467h235l393 -467h-112z" />
    <glyph glyph-name="glyph196" horiz-adv-x="1131" 
d="M858 0v199q-35 -31 -78.5 -57t-91 -45t-96 -29.5t-92.5 -10.5q-75 0 -148 15.5t-131.5 51.5t-94.5 95.5t-36 147.5q0 39 16.5 71t42.5 57t59 43.5t66 30.5q-29 8 -62.5 21.5t-62.5 34t-48 48t-19 62.5q0 45 25 84.5t65 73.5t91 62t104 49.5t102 37.5t86 25l51 -98
q-27 -5 -65 -14t-79.5 -23t-82.5 -33.5t-74 -44.5t-53.5 -55.5t-20.5 -67.5q0 -32 28 -52t71.5 -30.5t95.5 -14t100 -3.5t85 2t51 2v-111h-228q-37 0 -73.5 -15.5t-66 -41t-47.5 -60t-18 -71.5q0 -49 28.5 -80.5t70 -49.5t88.5 -25t84 -7q38 0 85 12t95.5 33.5t95 52.5
t82.5 70v594h129v-936h-129zM1270 -518l-516 467h235l393 -467h-112z" />
    <glyph glyph-name="glyph197" horiz-adv-x="1190" 
d="M908 0v629h-259q37 -32 52.5 -78t15.5 -94q0 -44 -21.5 -84.5t-61.5 -72t-97.5 -50.5t-128.5 -19q-78 0 -139 20t-103 54.5t-64 82t-22 101.5q0 58 24 105.5t63.5 81t91 51.5t106.5 18h543v191h129v-936h-129zM590 483q0 50 -17.5 87t-60.5 59q-3 3 -25.5 5.5t-54 0.5
t-67 -9.5t-66 -24.5t-50.5 -45.5t-20 -70.5q0 -37 15 -64.5t39 -46t55.5 -27.5t64.5 -9q34 0 67.5 10.5t60 29t43 45.5t16.5 60zM1294 -518l-516 467h235l393 -467h-112z" />
    <glyph glyph-name="glyph198" horiz-adv-x="961" 
d="M688 0v262l-31 -19.5t-48.5 -25t-65 -22t-78.5 -9.5q-44 0 -97 21t-99.5 59.5t-77.5 92.5t-31 120v318q0 21 -5.5 27.5t-25.5 6.5h-92v105h110q36 0 64 -14t46.5 -37t28 -53.5t9.5 -63.5v-295q0 -31 14 -60t40 -51.5t62 -36.5t81 -14q25 0 53.5 8.5t55.5 21t50 26
t37 22.5v547h129v-936h-129zM1090 -518l-516 467h235l393 -467h-112z" />
    <glyph glyph-name="glyph202" horiz-adv-x="1114" 
d="M750 492q43 -22 82 -46.5t68 -53.5t46 -62.5t17 -73.5q0 -71 -35 -120.5t-94 -80.5t-138.5 -45t-167.5 -14h-4l314 -205h-242l-225 223q-68 19 -125.5 50t-114.5 71l55 115q34 -32 72.5 -59.5t81 -48t90 -32.5t98.5 -12q55 0 108.5 9.5t94.5 29t66.5 49t25.5 70.5
q0 34 -23 62t-61.5 52t-88 45.5l-103.5 43.5l-443 -68l-22 111l280 43q-35 20 -64 42.5t-51 49t-34 57t-12 66.5q0 55 29.5 93.5t78 63t110 35.5t126.5 11q34 0 72 -4t75.5 -11.5t73 -18t65.5 -22.5l-32 -98q-51 23 -103.5 35t-117.5 12q-44 0 -85 -5.5t-73 -18.5t-51 -36
t-19 -57q0 -25 16.5 -47t44.5 -42t66 -38.5t80 -36.5l500 76l26 -108zM640 -518l-516 467h235l393 -467h-112z" />
    <glyph glyph-name="glyph203" horiz-adv-x="1333" 
d="M1059 0v549h-234v-19q0 -63 -26 -126t-73 -114t-113 -82.5t-146 -31.5q-99 0 -169.5 33.5t-115 91.5t-65.5 135.5t-21 165.5q0 72 22 140t64 121t103 85.5t139 32.5q49 0 83 -13.5t66 -33.5v-107q-35 25 -65 35t-70 10q-48 0 -87 -26.5t-66 -68.5t-41.5 -93.5
t-14.5 -101.5q0 -72 12 -126.5t38.5 -91.5t68.5 -56t101 -19q57 0 103.5 19.5t78.5 54.5t49.5 84t17.5 108v209h125v-105h236v277h129v-936h-129zM1470 -518l-516 467h235l393 -467h-112z" />
    <glyph glyph-name="glyph204" horiz-adv-x="1401" 
d="M1118 0v444h-317q0 -37 -5 -69.5t-20 -56.5t-42 -38t-70 -14q-32 0 -60 11.5t-49 32.5t-33 49t-12 61q0 71 38.5 111t110.5 40v131q0 35 -12 66.5t-33.5 55.5t-51.5 38.5t-66 14.5q-47 0 -84 -17t-64.5 -46.5t-46.5 -68t-31 -82t-17 -89.5t-5 -89q0 -55 7.5 -112
t23.5 -112.5t40 -108t56 -97.5h-117q-35 52 -61 104t-44 105.5t-27 110.5t-9 119q0 87 21.5 173t67 154t115.5 110t168 42q75 0 133 -23.5t97.5 -63t60.5 -92.5t21 -112v-113h317v367h129v-936h-129zM1540 -518l-516 467h235l393 -467h-112z" />
    <glyph glyph-name="glyph205" horiz-adv-x="1054" 
d="M778 0v440h-336v-39q0 -27 -11 -53.5t-31.5 -46.5t-50.5 -32.5t-68 -12.5q-32 0 -59.5 11t-47.5 31t-31.5 48t-11.5 62q0 40 14 68.5t37.5 47t54.5 26t66 5.5v211q0 40 -23 54t-61 14h-147v98h155q104 0 159.5 -44.5t55.5 -121.5v-211h336v381h129v-936h-129zM1200 -518
l-516 467h235l393 -467h-112z" />
    <glyph glyph-name="glyph206" horiz-adv-x="1143" 
d="M868 0v239q-37 -22 -80.5 -42.5t-89 -36t-92 -24.5t-88.5 -9q-81 0 -159.5 24t-140.5 70.5t-100 115t-38 157.5q0 21 9 39.5t24 32t34.5 21t40.5 7.5q54 0 107.5 -6t107.5 -6q31 0 60 4.5t51.5 17t35.5 35.5t13 61q0 42 -18.5 68.5t-47 41.5t-63.5 20.5t-69 5.5h-226v104
h307q51 0 98 -20.5t82.5 -55t57 -80t21.5 -94.5q0 -54 -24 -96t-63 -70t-88 -42.5t-98 -14.5q-38 0 -76.5 9t-76.5 9q-22 0 -32.5 -8.5t-10.5 -30.5q0 -51 27.5 -90t69.5 -65.5t91 -40.5t92 -14q41 0 90 9.5t98 27.5t92 43t72 56v564h129v-936h-129zM1270 -518l-516 467h235
l393 -467h-112z" />
    <glyph glyph-name="glyph207" horiz-adv-x="969" 
d="M455 -4q-57 0 -85 25.5t-44 66.5l-111 283h-115v133h406q50 0 90.5 7.5t69.5 25t45 47.5t16 75q0 42 -16.5 71t-46.5 47t-71 26t-89 8h-365v125h383q79 0 144.5 -21t113 -58t73.5 -88t26 -110q0 -81 -34.5 -136.5t-91 -89t-128 -48t-146.5 -14.5h-100l82 -199
q9 -22 18 -32.5t37 -10.5h383v-133h-444zM970 -518l-516 467h235l393 -467h-112z" />
    <glyph glyph-name="glyph208" horiz-adv-x="1131" 
d="M698 41q-37 -14 -77.5 -20.5t-77.5 -6.5q-83 0 -167 34.5t-152 97t-111 149.5t-43 192q0 55 15 111t43 107.5t68 96.5t91.5 78.5t113 52.5t131.5 19q49 0 85.5 -5t80.5 -23v-111q-6 1 -24 5t-39.5 8t-43 7t-34.5 3q-75 0 -139 -27.5t-110.5 -75t-72.5 -111t-26 -135.5
q0 -84 33 -149.5t87.5 -110.5t126 -68.5t148.5 -23.5q22 0 49.5 8.5t44.5 22.5v-125zM858 0v426h-373v119h373v391h129v-936h-129zM1280 -518l-516 467h235l393 -467h-112z" />
    <glyph glyph-name="glyph209" horiz-adv-x="1276" 
d="M1014 0v682q0 32 -5.5 62t-19 52.5t-36 36t-56.5 13.5q-64 0 -95 -32t-43.5 -84.5t-12.5 -119t-1.5 -136.5t-11.5 -136.5t-42 -119t-93 -84.5t-164 -32q-96 0 -160.5 35t-103.5 94.5t-55.5 138.5t-16.5 167q0 79 13 154t44 133t83.5 93t130.5 35q45 0 76.5 -10t60.5 -24
v-107q-28 17 -55 26t-56 9q-56 0 -90.5 -23t-53.5 -64.5t-25.5 -100t-6.5 -130.5q0 -75 9.5 -135.5t33.5 -103t65 -65.5t103 -23q58 0 93.5 20.5t55 56t27.5 83t11 100.5t4 109.5t7.5 109.5t22 100.5t46 83t80.5 56t126 20.5q72 0 119 -20t75.5 -53.5t40 -78t11.5 -92.5
v-696h-135zM1430 -518l-516 467h235l393 -467h-112z" />
    <glyph glyph-name="glyph210" horiz-adv-x="1026" 
d="M758 0v210q-30 -23 -64.5 -42t-70.5 -33.5t-73 -22.5t-73 -8q-87 0 -157.5 31.5t-119.5 84.5t-75.5 122.5t-26.5 146.5q0 75 29 137.5t79 107.5t116 70t141 25q19 0 41.5 -3t45 -8.5t44 -12.5t39.5 -14l-21 -113q-32 14 -67 21.5t-58 7.5q-121 0 -189.5 -59t-68.5 -169
q0 -53 17 -98.5t48.5 -78.5t76.5 -52t102 -19q68 0 143 30t142 96v579h129v-936h-129zM1170 -518l-516 467h235l393 -467h-112z" />
    <glyph glyph-name="glyph211" horiz-adv-x="1256" 
d="M780 639q0 -75 -27.5 -133t-74 -100t-107.5 -68.5t-129 -38.5q42 -14 89 -43t87 -69t66.5 -88t26.5 -99h-156q0 47 -16.5 86t-44 70.5t-63 54.5t-72.5 38.5t-72.5 23.5t-63.5 8h-139v112h278q54 0 104.5 18t90 51t63 79.5t23.5 103.5q0 47 -14.5 89.5t-42.5 74.5t-69 51
t-93 19q-38 0 -70.5 -10t-56.5 -29.5t-37.5 -47t-13.5 -61.5q0 -46 32 -75t80 -29q40 0 63.5 17t43.5 40l72 -72q-31 -40 -82 -66t-107 -26q-50 0 -93 16t-74.5 44.5t-49.5 69t-18 89.5q0 59 24.5 106t66 79.5t94.5 49.5t110 17q85 0 154 -24t117.5 -69.5t74.5 -111
t26 -147.5zM978 0v936h129v-936h-129zM1400 -518l-516 467h235l393 -467h-112z" />
    <glyph glyph-name="glyph212" horiz-adv-x="1018" 
d="M738 0v327q-12 -19 -37 -44.5t-59 -48t-75 -38.5t-86 -16q-50 0 -109 17.5t-110 50.5t-85 81t-34 109v350q0 22 -8 32.5t-31 10.5h-104v105h195l543 -430v430h129v-936h-129zM281 780v-327q0 -34 18 -62t47 -48t65.5 -31t73.5 -11q45 0 81 15t64 37.5t47.5 49.5t31.5 52z
M1150 -518l-516 467h235l393 -467h-112z" />
    <glyph glyph-name="glyph213" horiz-adv-x="1312" 
d="M1028 0v543h-252q-21 -51 -61.5 -84.5t-91 -53t-107 -27t-110.5 -7.5h-27l82 -199q9 -22 18 -32.5t37 -10.5h279v-133h-340q-57 0 -85 25.5t-44 66.5l-111 283h-115v133h365q24 0 55 5.5t58.5 21t46.5 44t20 74.5q0 44 -15.5 74.5t-42 50t-62.5 28.5t-76 9h-310v125h369
q56 0 106 -20t88.5 -55.5t63 -83t29.5 -101.5h233v260h129v-936h-129zM1450 -518l-516 467h235l393 -467h-112z" />
    <glyph glyph-name="glyph214" horiz-adv-x="1044" 
d="M963 455q0 -56 -19.5 -101t-56.5 -76.5t-89.5 -49t-119.5 -17.5q-29 0 -60 5t-61.5 13.5t-59 20.5t-51.5 26l25 111q46 -35 90 -54.5t92 -19.5q42 0 74.5 12t55 32.5t34.5 47.5t12 58q0 36 -21 59.5t-58.5 38t-90 20t-114.5 5.5q-57 0 -110 -19.5t-94.5 -53.5t-66 -81
t-24.5 -102q0 -67 23 -119t63.5 -87.5t96 -54t120.5 -18.5q52 0 106 12t104 31t94.5 43.5t78.5 48.5l-12 -116q-75 -59 -164.5 -91t-204.5 -32q-84 0 -163.5 26.5t-141 77t-98.5 122.5t-37 163q0 50 18.5 101t52.5 95.5t81.5 78.5t105.5 51q-37 30 -59.5 70.5t-22.5 88.5
q0 43 25.5 75t66 53t91 31.5t101.5 10.5q26 0 56 -5.5t60 -15t59 -21t53 -23.5l-21 -109q-57 37 -110.5 59.5t-106.5 22.5q-57 0 -96 -29.5t-39 -85.5q0 -19 7 -34.5t17.5 -28t24 -21.5t25.5 -16q11 2 21 2h20q82 0 157.5 -14.5t133.5 -43t92.5 -72t34.5 -101.5zM920 -558
l-516 467h235l393 -467h-112z" />
    <glyph glyph-name="glyph215" horiz-adv-x="466" 
d="M415 425l-101 72l8 -71l8 -70q1 -6 0 -10t-3 -3q-2 0 -4 1q-3 0 -5 2h1q-13 5 -26 12t-26 12l17 124l-57 -38.5l-57 -38.5q-9 -7 -13 -7l-2 12l-2 25l-2 25l113 48l-67 23l-67 24l-12 5q0 1 1 2t3 2t3 2.5t3 2.5h-1l25 19l25 19l101 -74q-4 37 -8.5 72t-8.5 72q-1 5 0 8
t7 1q1 -1 1.5 -0.5t2.5 -1.5l26.5 -15.5l26.5 -15.5l-14 -119l56 42t56 41q11 8 13 -2l4 -56l-114 -49l63.5 -24l63.5 -24q14 -4 14 -8l-8 -8zM460 463q1 1 2 1t2 1q1 0 1 1t-12 6l-132 50l117 51l-2 27l-2 27q-2 6 -9 0l-116 -86l14 122l-26.5 15.5l-26.5 15.5l-7 4
q0 -1 -0.5 -3.5t0.5 -5.5l17 -149l-103 75l-23 -17.5l-23 -17.5l-9 -6h1l-2 -2q2 -1 4.5 -1.5t4.5 -1.5l70 -25l70 -24l-117 -50l2 -24.5t2 -23.5l2 -10l2.5 2.5t6.5 4.5l118 80l-17 -127q11 -5 26 -12.5t26 -12.5q0 -1 2 -1q2 -1 4 -1q2 -1 1 11l-16 146l103 -73l42 31z
" />
    <glyph glyph-name="glyph216" horiz-adv-x="1114" 
d="M750 492q43 -22 82 -46.5t68 -53.5t46 -62.5t17 -73.5q0 -71 -35 -120.5t-94 -80.5t-138.5 -45t-167.5 -14q-64 0 -117.5 10t-101.5 28.5t-91.5 44t-86.5 56.5l55 115q34 -32 72.5 -59.5t81 -48t90 -32.5t98.5 -12q55 0 108.5 9.5t94.5 29t66.5 49t25.5 70.5q0 27 -15 50
t-40.5 43.5t-60 38.5t-74.5 36l-207 -225l-104 90l196 166l-414 -64l-22 111l280 43q-35 20 -64 42.5t-51 49t-34 57t-12 66.5q0 55 29.5 93.5t78 63t110 35.5t126.5 11q34 0 72 -4t75.5 -11.5t73 -18t65.5 -22.5l-32 -98q-51 23 -103.5 35t-117.5 12q-44 0 -85 -5.5
t-73 -18.5t-51 -36t-19 -57q0 -25 16.5 -47t44.5 -42t66 -38.5t80 -36.5l500 76l26 -108z" />
    <glyph glyph-name="glyph217" horiz-adv-x="1253" 
d="M978 0v216l-474 -294l-99 103l573 276v227h-253v-41q0 -41 -19 -86t-56.5 -83.5t-92 -63.5t-125.5 -25q-68 0 -122 22t-91.5 59.5t-57.5 87t-20 104.5v270q0 25 -11 42t-42 17h-88v105h123q37 0 64.5 -13.5t46.5 -36t28.5 -53.5t9.5 -65v-274q0 -36 10.5 -66.5t30.5 -53
t50 -35.5t69 -13q78 0 122 45t44 121v299h125v-150h255v295h129v-936h-129z" />
    <glyph glyph-name="glyph218" horiz-adv-x="1253" 
d="M968 0v210l-464 -288l-99 103l563 272v639h129v-936h-129zM750 584q0 -72 -22 -137.5t-65 -114.5t-107 -78t-148 -29q-45 0 -91 14.5t-87.5 39t-75 57t-54.5 67.5l68 107q31 -82 92 -129t148 -47q49 0 88.5 19t67 52t42.5 79t15 100q0 51 -17 92t-48.5 70t-76 45
t-100.5 16t-93.5 -15.5t-74.5 -37.5v112q35 17 74.5 31t93.5 14q88 0 157 -25t116.5 -69.5t72.5 -104t25 -128.5z" />
    <glyph glyph-name="glyph219" horiz-adv-x="1111" 
d="M848 0v195l-434 -269l-99 103l117 56q-69 9 -129.5 31.5t-105 58t-70 83.5t-25.5 107q0 69 37.5 117.5t102.5 80.5q-62 20 -100 62t-38 108q0 56 29 99.5t77 73.5t108.5 45.5t123.5 15.5q34 0 63 -3.5t56 -10t53 -15l54 -18.5v-105q-45 22 -90 33.5t-101 11.5
q-50 0 -93 -7.5t-74.5 -23.5t-49.5 -41.5t-18 -62.5q0 -28 12 -49t32.5 -35.5t46.5 -21.5t54 -7h266v-108h-231q-38 0 -71 -11t-58.5 -31t-40 -47.5t-14.5 -60.5q0 -41 26.5 -71.5t67 -50.5t89 -29.5t93.5 -9.5q89 0 176 44t158 119v580h129v-936h-129z" />
    <glyph glyph-name="glyph220" horiz-adv-x="1145" 
d="M840 -338l-326 311l-305 -311h-187l383 338q-49 5 -92 17t-82 29.5t-76 40t-73 48.5l55 115q34 -32 76 -59.5t87 -48t91 -32.5t88 -12q55 0 108 9.5t94.5 29t67 49t25.5 70.5q0 52 -26.5 86.5t-70.5 58.5t-100 41l-114 34t-114 37.5t-100 51t-70.5 74.5t-26.5 109
q0 56 32 96.5t82 67t111 39t119 12.5q34 0 71.5 -4t75 -11.5t73 -18t66.5 -22.5l-32 -98q-51 23 -104 35t-118 12q-44 0 -84.5 -5.5t-72.5 -18.5t-51 -36t-19 -57q0 -42 26.5 -70t69.5 -48t98 -35.5l112 -32.5t112 -39.5t98 -56.5t69.5 -82.5t26.5 -118.5q0 -57 -22.5 -100
t-62 -73.5t-94 -49.5t-118.5 -28l402 -343h-178zM1077 651q0 -22 -9 -41.5t-24.5 -33.5t-35.5 -22.5t-41 -8.5q-23 0 -42.5 8.5t-33.5 22.5t-22.5 33.5t-8.5 41.5t8.5 42t22.5 35.5t33.5 24.5t42.5 9t43 -9t35 -24t23.5 -35.5t8.5 -42.5z" />
    <glyph glyph-name="glyph221" horiz-adv-x="1161" 
d="M888 0v183l-437 -271l-99 103l111 53q-61 11 -106.5 35t-77.5 55.5t-52.5 68t-32 72t-16 68t-4.5 55.5h-129v108h346q15 0 43.5 5.5t56.5 21t48.5 44t19.5 73.5q-1 42 -14 70t-35.5 44.5t-52.5 23.5t-64 7h-280v103h323q61 0 110 -20t82 -54.5t49.5 -82t14.5 -101.5
q-2 -60 -27 -101.5t-62.5 -69t-82 -43t-86 -22.5t-75.5 -8t-50 0q0 -38 10 -80t37.5 -78t75.5 -59.5t123 -24.5q51 -1 102.5 16t96.5 42t80 53.5t54 50.5v596h129v-936h-129z" />
    <glyph glyph-name="glyph224" horiz-adv-x="1206" 
d="M880 -358l-326 311l-305 -311h-187l370 327q-64 11 -123 35.5t-104 65.5t-72 100t-27 139q0 79 39.5 137t104.5 82q-37 11 -67.5 27.5t-53 40.5t-35 56.5t-12.5 74.5q0 45 20.5 83.5t54.5 66.5t76 43.5t86 15.5h207v-98h-153q-32 0 -60 -7t-48.5 -21t-32 -37t-11.5 -54
q0 -37 15 -62.5t41 -41t61 -22.5t76 -7h106v-105h-76q-92 0 -144 -44t-52 -140q0 -63 30.5 -107.5t77 -72.5t100.5 -41t101 -13q69 0 125.5 17t101.5 47.5t79 72t59 89.5q-55 36 -104 77.5t-85.5 88t-58 98.5t-21.5 109q0 54 15 105.5t44.5 91t72 63.5t98.5 24
q81 0 129 -34.5t73.5 -90.5t33 -126t7.5 -140q0 -102 -33 -198t-92.5 -175t-142.5 -135.5t-183 -77.5l383 -327h-178zM999 651q0 39 -5.5 74.5t-19 62.5t-35.5 43.5t-56 16.5q-32 0 -53 -15.5t-34 -41t-18.5 -57.5t-5.5 -64q0 -43 17 -86.5t44 -82.5t60 -71.5t65 -54.5
q22 66 31.5 137t9.5 139z" />
    <glyph glyph-name="glyph225" horiz-adv-x="1249" 
d="M899 498q18 -23 30.5 -52t20 -60t10.5 -62.5t3 -59.5q0 -46 -10.5 -87t-29.5 -71.5t-45.5 -48.5t-58.5 -18q-35 0 -61.5 18.5t-44.5 50t-27 74.5t-8 92q1 37 8.5 69.5t18 59t21 45t17.5 27.5l-112 129l-217 -430l-101 74l248 422q-3 4 -18 18.5t-37.5 33.5l-49.5 40
t-53.5 38t-50.5 28.5t-39 11.5q-24 0 -45.5 -5.5t-38 -19t-26.5 -35.5t-10 -55q0 -43 27.5 -63.5t62.5 -20.5q26 0 45 8.5t39 28.5l34 -70q-26 -23 -55.5 -38t-60.5 -15q-42 0 -81.5 9t-71 30t-50.5 54.5t-19 82.5q0 47 16.5 87t46.5 69.5t73 46t96 16.5q43 0 95 -23
t106.5 -59.5t107 -80.5t97 -86t77 -76.5t45.5 -51.5l312 375l75 -106z" />
    <glyph glyph-name="glyph226" horiz-adv-x="1167" 
d="M1100 389q0 -38 -7 -82.5t-22 -88.5t-38 -85t-54.5 -72t-73 -50t-92.5 -19q-54 0 -91.5 13t-66.5 38v100q29 -24 55 -36.5t66 -12.5q56 0 92.5 28.5t57.5 73t29 99t8 106.5q0 47 -10.5 91t-34.5 78.5t-62 55.5t-92 21q-35 0 -73.5 -17t-69.5 -40q6 -56 6 -109
q0 -52 -9.5 -108t-29.5 -110.5t-51.5 -103.5t-74 -86t-97.5 -59t-123 -22q-50 0 -98 16t-93 39v119q37 -28 76.5 -47t93.5 -19q78 0 130 34t82.5 88.5t43 122.5t12.5 136q0 64 -9.5 128t-34.5 116t-67.5 84.5t-109.5 32.5q-45 0 -91.5 -17.5t-84.5 -48.5v125q41 17 84 27
t103 10q69 0 122 -20t92 -54.5t65.5 -80.5t41.5 -99q15 13 33.5 25.5t39.5 22t43 15t44 5.5q28 0 59.5 -5.5t57.5 -11.5q16 8 31.5 19t27.5 25.5t19.5 31.5t7.5 37q0 18 -2.5 35.5t-10.5 40.5h146q0 -46 -6 -82t-21 -63.5t-40 -49t-62 -39.5q34 -28 59.5 -63t41.5 -74.5
t24 -81t8 -82.5z" />
    <glyph glyph-name="glyph227" horiz-adv-x="1276" 
d="M1008 0v216l-474 -294l-99 103l573 276v170h-252q-2 -14 -8.5 -46.5t-23 -74t-44.5 -85.5t-72 -81t-106 -60.5t-146 -23.5q-41 0 -86 13t-86.5 32t-76 40.5t-54.5 37.5l43 121l58 -44.5t61 -40.5t61.5 -29t59.5 -11q62 0 115 20.5t91.5 61t60.5 100.5t24 138
q0 51 -13.5 92t-37 74t-54 57t-63 40t-64.5 24t-59 8q-50 0 -91 -15.5t-87 -40.5l-17 121q34 23 89.5 37t115.5 14q86 0 149.5 -23.5t108.5 -59.5t74 -79.5t45.5 -84.5t23.5 -74t9 -47h252v354h129v-936h-129z" />
    <glyph glyph-name="glyph228" horiz-adv-x="977" 
d="M840 -338l-326 311l-305 -311h-187l381 336q-69 9 -128 31.5t-101.5 59t-67 87.5t-24.5 117q0 58 25.5 101t67.5 75t96 54.5t110 40.5t110 33t96 31t67.5 35.5t25.5 45.5q0 33 -17 56.5t-45.5 39t-66 22.5t-78.5 7q-54 0 -113 -15.5t-122 -50.5l-15 117q28 10 60.5 19.5
t65.5 16.5t65 11t59 4q66 0 128 -14.5t110 -43t77 -69.5t29 -94q0 -49 -25.5 -83.5t-67 -59.5t-95 -43t-109 -34.5l-108.5 -33.5t-94.5 -39.5t-67 -53.5t-25.5 -75q0 -107 70 -153t215 -46q50 0 97 13t90 36t80 55.5t67 71.5l61 -120q-59 -64 -124 -102t-156 -51l393 -335
h-178z" />
    <glyph glyph-name="glyph229" horiz-adv-x="1001" 
d="M840 -338l-326 311l-305 -311h-187l386 339q-74 10 -136 33t-107 61.5t-70 93.5t-25 128q0 47 26 88t67 75.5t90.5 61t96.5 44.5q-57 29 -93 68t-36 98q0 57 28.5 95.5t76.5 62t109.5 34t127.5 10.5q59 0 117.5 -14t114.5 -33v-121q-51 34 -113.5 49t-118.5 15
q-38 0 -73 -4.5t-62.5 -17t-44 -33.5t-16.5 -54t25.5 -56t67.5 -41.5t96 -34t110 -33.5t110 -41t96 -55.5t67.5 -77.5t25.5 -107q0 -70 -27.5 -121.5t-74.5 -87.5t-109 -57t-131 -29l395 -338h-178zM829 295q0 35 -15.5 62.5t-42 50t-62 40t-76 33t-84.5 29.5t-86 29
q-44 -17 -89.5 -43.5t-83 -59.5t-61.5 -70.5t-24 -76.5q0 -51 26.5 -87t71 -59t103.5 -34t124 -11q59 0 113 11.5t95.5 35.5t66 61.5t24.5 88.5z" />
    <glyph glyph-name="glyph240" horiz-adv-x="954" 
d="M840 -338l-326 311l-305 -311h-187l384 338q-51 5 -96 17.5t-85 30.5t-75 40.5t-68 46.5l55 115q35 -32 73.5 -60t80.5 -48.5t89 -32t99 -11.5q55 0 108.5 9.5t94.5 29t66.5 49t25.5 70.5q0 52 -26.5 86.5t-70.5 59.5t-100 43l-114 36t-114 39.5t-100 53t-70.5 76.5
t-26.5 110q0 45 27 83t72 66t103.5 44t120.5 16q90 0 167 -23.5t140 -54.5l-32 -98l-52.5 25.5t-55 22.5t-61.5 15.5t-73 5.5q-38 0 -75 -6.5t-66 -21t-47.5 -38t-18.5 -57.5q0 -42 26.5 -70t69.5 -48t98 -35.5l112 -32.5t112 -39.5t98 -56.5t69.5 -82.5t26.5 -118.5
q0 -57 -22.5 -100t-62 -73.5t-94 -49.5t-118.5 -28l402 -343h-178z" />
    <glyph glyph-name="glyph241" horiz-adv-x="944" 
d="M840 -338l-326 311l-305 -311h-187l382 337q-63 10 -121.5 32.5t-103.5 60t-72 90t-27 121.5q0 63 25 107.5t66 76t93.5 53t107.5 37.5t107.5 29.5t93.5 29t66 35.5t25 50q0 40 -16.5 67t-45 43.5t-67.5 23.5t-84 7q-38 0 -71 -4.5t-63 -12.5t-58.5 -19l-57.5 -23v112
q55 20 114.5 33t135.5 13q71 0 136 -16.5t114.5 -48.5t78.5 -81t29 -113q0 -50 -25.5 -82.5t-67 -54.5t-94.5 -36t-108 -26.5t-108 -26.5t-94.5 -36t-67 -54.5t-25.5 -82.5q0 -54 21 -92t57.5 -62t85.5 -34.5t104 -10.5q10 0 20 3l21 6q0 44 15.5 89.5t43.5 82t68 59.5
t88 23q63 0 97 -37.5t34 -108.5q0 -48 -22.5 -85t-58.5 -64t-81.5 -44.5t-90.5 -26.5l397 -339h-178z" />
    <glyph glyph-name="glyph242" horiz-adv-x="1396" 
d="M909 39q-36 -15 -78 -27.5t-84.5 -22t-84.5 -15t-78 -5.5q-92 0 -175.5 28.5t-146.5 82t-100 130.5t-37 175v551h129v-555q0 -62 26 -117.5t69 -97.5t99 -67t117 -25q42 0 83.5 6.5t80.5 18t73.5 27.5t61.5 34zM1128 0v370l-260 -144l-86 89l346 153v468h129v-936h-129z
M893 623q0 -67 -22.5 -125t-62.5 -100.5t-96.5 -66.5t-123.5 -24q-18 0 -41 2.5t-46.5 8t-45 12.5t-37.5 16v123q17 -8 30 -15t26.5 -12t29 -8.5t37.5 -3.5q42 0 81 10.5t68.5 32t47.5 55.5t18 82q0 93 -49.5 148t-145.5 55q-35 0 -72.5 -10t-66.5 -29v125q42 14 84.5 23.5
t85.5 9.5q64 0 119 -24.5t95.5 -67t63.5 -98.5t23 -119z" />
    <glyph glyph-name="glyph243" horiz-adv-x="1103" 
d="M818 0v452l-537 -350l-117 93l401 229q-2 34 -7.5 79t-15 93t-23.5 94.5t-33 83.5t-43 59.5t-54 22.5q-22 0 -47 -17t-49.5 -45t-46.5 -63t-39.5 -70t-28.5 -67.5t-12 -54.5l-94 94q8 31 26 67t42.5 71.5t54 69t62 59t65.5 41t65 15.5q56 0 98 -23t72.5 -61t51 -87
t33 -102t18 -106t6.5 -98l152 92v365h129v-936h-129z" />
    <glyph glyph-name="glyph244" horiz-adv-x="1143" 
d="M868 0v230l-464 -288l-99 103l149 72q-68 11 -133.5 38t-116.5 70t-82.5 102.5t-31.5 135.5q0 42 13.5 59.5t34.5 22t48 1.5t54 -3q26 0 60 2.5t69.5 10t69 20t60 31.5t42.5 46t16 64q0 33 -9 62.5t-27 51.5t-45 35t-62 13q-65 0 -99 -31t-34 -96q0 -34 21 -63.5
t50 -45.5h-127q-18 8 -31.5 23.5t-22.5 35t-14 41.5t-5 43q0 52 22 90.5t57.5 63.5t80.5 37t91 12q56 0 107.5 -18.5t90.5 -53t62 -83t23 -107.5q0 -62 -26 -113.5t-69 -88.5t-97.5 -58t-112.5 -21q-17 0 -41.5 3t-47.5 1.5t-39.5 -11.5t-16.5 -36q0 -30 15 -55t39 -45
t55 -35t63 -25t62 -15t54 -5q41 0 90 12t96.5 34t89.5 53t68 69v545h129v-936h-129z" />
    <glyph glyph-name="glyph245" horiz-adv-x="950" 
d="M809 -80q-17 31 -36 57.5l-38 53.5l-37.5 55.5t-33.5 63.5q-16 -4 -31 -5.5t-31 -3.5l-379 -245l-82 106l295 141q-67 10 -130.5 36t-113 68t-80 101.5t-30.5 136.5q0 58 23 99t61.5 69.5t87 46t99 29.5t99 20.5t87 17.5t61.5 20.5t23 31.5q0 23 -7.5 40t-19.5 30t-28 24
l-33 23h133q18 -7 36 -18.5t32.5 -26.5t24 -33t9.5 -39q0 -41 -23.5 -66.5t-62 -41.5t-87.5 -26t-100.5 -19t-100.5 -20.5t-87.5 -31.5t-62 -50.5t-23.5 -78.5q0 -68 30.5 -114t78 -74t105 -40.5t112.5 -12.5q35 0 57 4t37 28q-5 17 -9.5 40t-4.5 40q0 59 34 93t93 34
q62 0 94.5 -39t32.5 -98q0 -65 -33 -104t-82 -62q11 -24 28 -50.5t38.5 -48.5t46.5 -36t53 -12z" />
    <glyph glyph-name="glyph246" horiz-adv-x="1131" 
d="M858 0v187l-444 -275l-99 103l97 47q-63 7 -121.5 27.5t-103 57.5t-71 91t-26.5 129q0 39 16.5 71t42.5 57t59 43.5t66 30.5q-29 8 -62.5 21.5t-62.5 34t-48 48t-19 62.5q0 45 25 84.5t65 73.5t91 62t104 49.5t102 37.5t86 25l51 -98q-27 -5 -65 -14t-79.5 -23
t-82.5 -33.5t-74 -44.5t-53.5 -55.5t-20.5 -67.5q0 -32 28 -52t71.5 -30.5t95.5 -14t100 -3.5t85 2t51 2v-111h-228q-37 0 -73.5 -15.5t-66 -41t-47.5 -60t-18 -71.5q0 -49 28.5 -80.5t70 -49.5t88.5 -25t84 -7q38 0 85 12t95.5 33.5t95 52.5t82.5 70v594h129v-936h-129z
" />
    <glyph glyph-name="glyph247" horiz-adv-x="1190" 
d="M908 0v210l-464 -288l-99 103l563 272v332h-259q37 -32 52.5 -78t15.5 -94q0 -44 -21.5 -84.5t-61.5 -72t-97.5 -50.5t-128.5 -19q-78 0 -139 20t-103 54.5t-64 82t-22 101.5q0 58 24 105.5t63.5 81t91 51.5t106.5 18h543v191h129v-936h-129zM590 483q0 50 -17.5 87
t-60.5 59q-3 3 -25.5 5.5t-54 0.5t-67 -9.5t-66 -24.5t-50.5 -45.5t-20 -70.5q0 -37 15 -64.5t39 -46t55.5 -27.5t64.5 -9q34 0 67.5 10.5t60 29t43 45.5t16.5 60z" />
    <glyph glyph-name="glyph248" horiz-adv-x="961" 
d="M688 0v257l-444 -275l-99 103l239 116q-40 14 -80 39.5t-72 61t-52 80.5t-20 97v318q0 21 -5.5 27.5t-25.5 6.5h-92v105h110q36 0 64 -14t46.5 -37t28 -53.5t9.5 -63.5v-295q0 -31 14 -60t40 -51.5t62 -36.5t81 -14q25 0 53.5 8.5t55.5 21t50 26t37 22.5v547h129v-936
h-129z" />
    <glyph glyph-name="glyph249" horiz-adv-x="1126" 
d="M743 510q33 -17 69 -41.5t66.5 -55.5t50 -67.5t19.5 -77.5q0 -79 -42 -134.5t-109.5 -91t-152 -51.5t-169.5 -16l303 -215h-213l-229 236q-44 9 -79 20.5t-67.5 26t-64.5 33.5l-70 43l78 108q37 -35 86.5 -62t102.5 -45.5t103.5 -28t88.5 -9.5q50 0 102.5 12.5t96 37.5
t71 63.5t27.5 91.5q0 34 -13.5 60t-35.5 46.5t-49.5 36t-55.5 27.5l-229 -232l-117 74l254 190l-495 -94l-19 125l326 58q-29 10 -60.5 25.5t-57.5 37t-43 49.5t-17 64q0 60 31.5 100.5t78.5 65.5t102 36t103 11q42 0 85 -4.5t84.5 -12.5t78.5 -18.5t67 -22.5l-26 -100
q-22 11 -49 20t-55.5 15.5t-56.5 10t-52 3.5q-33 0 -74.5 -3t-78.5 -15.5t-62 -38.5t-25 -72q0 -20 23.5 -43.5t53.5 -44t59 -33t40 -10.5l512 88l19 -125z" />
    <glyph glyph-name="glyph281" horiz-adv-x="1333" 
d="M1059 0v210l-465 -288l-99 103l564 272v252h-234v-19q0 -63 -26 -126t-73 -114t-113 -82.5t-146 -31.5q-99 0 -169.5 33.5t-115 91.5t-65.5 135.5t-21 165.5q0 72 22 140t64 121t103 85.5t139 32.5q49 0 83 -13.5t66 -33.5v-107q-35 25 -65 35t-70 10q-48 0 -87 -26.5
t-66 -68.5t-41.5 -93.5t-14.5 -101.5q0 -72 12 -126.5t38.5 -91.5t68.5 -56t101 -19q57 0 103.5 19.5t78.5 54.5t49.5 84t17.5 108v209h125v-105h236v277h129v-936h-129z" />
    <glyph glyph-name="glyph282" horiz-adv-x="1401" 
d="M1118 0v166l-394 -244l-99 103l493 238v181h-317q0 -37 -5 -69.5t-20 -56.5t-42 -38t-70 -14q-32 0 -60 11.5t-49 32.5t-33 49t-12 61q0 71 38.5 111t110.5 40v131q0 35 -12 66.5t-33.5 55.5t-51.5 38.5t-66 14.5q-47 0 -84 -17t-64.5 -46.5t-46.5 -68t-31 -82t-17 -89.5
t-5 -89q0 -55 7.5 -112t23.5 -112.5t40 -108t56 -97.5h-117q-35 52 -61 104t-44 105.5t-27 110.5t-9 119q0 87 21.5 173t67 154t115.5 110t168 42q75 0 133 -23.5t97.5 -63t60.5 -92.5t21 -112v-113h317v367h129v-936h-129z" />
    <glyph glyph-name="glyph283" horiz-adv-x="1054" 
d="M778 0v191l-434 -269l-99 103l533 257v158h-336v-39q0 -27 -11 -53.5t-31.5 -46.5t-50.5 -32.5t-68 -12.5q-32 0 -59.5 11t-47.5 31t-31.5 48t-11.5 62q0 40 14 68.5t37.5 47t54.5 26t66 5.5v211q0 40 -23 54t-61 14h-147v98h155q104 0 159.5 -44.5t55.5 -121.5v-211h336
v381h129v-936h-129z" />
    <glyph glyph-name="glyph284" horiz-adv-x="1143" 
d="M868 0v236l-464 -288l-99 103l162 78q-74 7 -144 34t-124 73.5t-86.5 111t-32.5 146.5q0 21 9 39.5t24 32t34.5 21t40.5 7.5q54 0 107.5 -6t107.5 -6q31 0 60 4.5t51.5 17t35.5 35.5t13 61q0 42 -18.5 68.5t-47 41.5t-63.5 20.5t-69 5.5h-226v104h307q51 0 98 -20.5
t82.5 -55t57 -80t21.5 -94.5q0 -54 -24 -96t-63 -70t-88 -42.5t-98 -14.5q-38 0 -76.5 9t-76.5 9q-22 0 -32.5 -8.5t-10.5 -30.5q0 -51 27.5 -90t69.5 -65.5t91 -40.5t92 -14q41 0 90 9.5t98 27.5t92 43t72 56v564h129v-936h-129z" />
    <glyph glyph-name="glyph285" horiz-adv-x="1177" 
d="M908 0v359l-284 -177l-99 103l305 141h-345v119h423v391h129v-936h-129zM698 41q-37 -14 -77.5 -20.5t-77.5 -6.5q-83 0 -167 34.5t-152 97t-111 149.5t-43 192q0 55 15 111t43 107.5t68 96.5t91.5 78.5t113 52.5t131.5 19q49 0 85.5 -5t80.5 -23v-111q-6 1 -24 5
t-39.5 8t-43 7t-34.5 3q-75 0 -139 -27.5t-110.5 -75t-72.5 -111t-26 -135.5q0 -84 33 -149.5t87.5 -110.5t126 -68.5t148.5 -23.5q22 0 49.5 8.5t44.5 22.5v-125z" />
    <glyph glyph-name="glyph286" horiz-adv-x="1276" 
d="M1014 0v164l-390 -242l-99 103l489 236v421q0 32 -5.5 62t-19 52.5t-36 36t-56.5 13.5q-64 0 -95 -32t-43.5 -84.5t-12.5 -119t-1.5 -136.5t-11.5 -136.5t-42 -119t-93 -84.5t-164 -32q-96 0 -160.5 35t-103.5 94.5t-55.5 138.5t-16.5 167q0 79 13 154t44 133t83.5 93
t130.5 35q45 0 76.5 -10t60.5 -24v-107q-28 17 -55 26t-56 9q-56 0 -90.5 -23t-53.5 -64.5t-25.5 -100t-6.5 -130.5q0 -75 9.5 -135.5t33.5 -103t65 -65.5t103 -23q58 0 93.5 20.5t55 56t27.5 83t11 100.5t4 109.5t7.5 109.5t22 100.5t46 83t80.5 56t126 20.5q72 0 119 -20
t75.5 -53.5t40 -78t11.5 -92.5v-696h-135z" />
    <glyph glyph-name="glyph287" horiz-adv-x="466" 
d="M415 425l-101 72l8 -71l8 -70q1 -6 0 -10t-3 -3q-2 0 -4 1q-3 0 -5 2h1q-13 5 -26 12t-26 12l17 124l-57 -38.5l-57 -38.5q-9 -7 -13 -7l-2 12l-2 25l-2 25l113 48l-67 23l-67 24l-12 5q0 1 1 2t3 2t3 2.5t3 2.5h-1l25 19l25 19l101 -74q-4 37 -8.5 72t-8.5 72q-1 5 0 8
t7 1q1 -1 1.5 -0.5t2.5 -1.5l26.5 -15.5l26.5 -15.5l-14 -119l56 42t56 41q11 8 13 -2l4 -56l-114 -49l63.5 -24l63.5 -24q14 -4 14 -8l-8 -8zM460 463q1 1 2 1t2 1q1 0 1 1t-12 6l-132 50l117 51l-2 27l-2 27q-2 6 -9 0l-116 -86l14 122l-26.5 15.5l-26.5 15.5l-7 4
q0 -1 -0.5 -3.5t0.5 -5.5l17 -149l-103 75l-23 -17.5l-23 -17.5l-9 -6h1l-2 -2q2 -1 4.5 -1.5t4.5 -1.5l70 -25l70 -24l-117 -50l2 -24.5t2 -23.5l2 -10l2.5 2.5t6.5 4.5l118 80l-17 -127q11 -5 26 -12.5t26 -12.5q0 -1 2 -1q2 -1 4 -1q2 -1 1 11l-16 146l103 -73l42 31z
" />
    <glyph glyph-name="glyph288" horiz-adv-x="1026" 
d="M758 0v199l-434 -269l-99 103l165 80q-68 14 -122.5 49.5t-92 86t-57.5 112t-20 128.5q0 75 29 137.5t79 107.5t116 70t141 25q19 0 41.5 -3t45 -8.5t44 -12.5t39.5 -14l-21 -113q-32 14 -67 21.5t-58 7.5q-121 0 -189.5 -59t-68.5 -169q0 -53 17 -98.5t48.5 -78.5
t76.5 -52t102 -19q68 0 143 30t142 96v579h129v-936h-129z" />
    <glyph glyph-name="glyph289" horiz-adv-x="1233" 
d="M983 0v342l-477 -279l-107 101l492 223l-184.5 71t-196.5 87l-112.5 -35l-110 -32l-102 -28.5t-87.5 -25.5l-84 104l84 19l92 21l95 22.5l94 23.5q-41 24 -75 48.5t-59 48.5t-38.5 47.5t-13.5 46.5q0 52 28 89.5t72.5 62t100 36t110.5 11.5q65 0 129 -13t114.5 -41
t81.5 -71t31 -103q0 -25 -16.5 -49t-46.5 -47t-71 -44.5t-89 -41.5l91 -37.5l90.5 -36l86.5 -33l78 -28.5v483h129v-942h-129zM715 780q0 31 -15 53.5t-42 36.5t-63.5 20.5t-78.5 6.5q-36 0 -66.5 -6.5t-52.5 -20t-34.5 -34.5t-12.5 -50q0 -13 12 -28.5t33.5 -32.5
t51.5 -35.5t65 -36.5q44 15 81 31t64 32t42.5 32t15.5 32z" />
    <glyph glyph-name="glyph290" horiz-adv-x="1018" 
d="M738 0v294l-454 -282l-99 103l177 85q-42 14 -81 36.5t-70 52.5t-49.5 67.5t-18.5 81.5v350q0 22 -8 32.5t-31 10.5h-104v105h195l543 -430v430h129v-936h-129zM281 780v-327q0 -34 18 -62t47 -48t65.5 -31t73.5 -11q45 0 81 15t64 37.5t47.5 49.5t31.5 52z" />
    <glyph glyph-name="glyph291" horiz-adv-x="1364" 
d="M1098 0v485l-324 -260l-123 84l365 234h-240q-21 -51 -61.5 -84.5t-91 -53t-107 -27t-110.5 -7.5h-48l82 -199q10 -22 19 -32.5t37 -10.5h217v-133h-258q-57 0 -85 25.5t-44 66.5l-111 283h-115v133h365q24 0 55 5.5t58.5 21t46.5 44t20 74.5q0 44 -15.5 74.5t-42 50
t-62.5 28.5t-76 9h-310v125h369q56 0 106 -20t88.5 -55.5t63 -83t29.5 -101.5h303v260h129v-936h-129z" />
    <glyph glyph-name="glyph292" horiz-adv-x="1272" 
d="M999 -205v324l-450 -70l2 94l448 109v151q0 35 -22.5 61t-59 43.5t-81 28.5t-89 17t-83 8t-62.5 2q-89 0 -168 -27t-138.5 -79t-94.5 -128.5t-35 -176.5q0 -102 41 -168t109.5 -104.5t157.5 -54t185 -15.5l-26 -99q-126 0 -237 24.5t-193.5 80.5t-130 146.5t-47.5 221.5
q0 64 17 130t53 125.5t90.5 108.5t129.5 81q-22 9 -44.5 22.5t-41 31t-30 40t-11.5 49.5q0 51 30 87.5t78.5 60.5t109.5 38.5t122 21.5t116 9t93 2q73 0 144.5 -15t140.5 -32v-123q-66 26 -126 38.5t-132 12.5q-15 0 -51.5 -0.5t-82.5 -3t-96 -8t-91.5 -15.5t-68 -26
t-26.5 -39q0 -36 33.5 -55t88.5 -29t125 -14.5t143 -12t143 -21.5t125 -43t88.5 -76t33.5 -121v-613h-129z" />
    <glyph glyph-name="glyph293" horiz-adv-x="680" 
d="M610 625q-54 0 -106 -19.5t-92.5 -56.5t-65 -89.5t-24.5 -119.5q0 -52 16 -90t42.5 -65t61.5 -43.5t73.5 -25.5t77 -12.5t73.5 -3.5v-102q-121 0 -211.5 25.5t-151 71.5t-91 110.5t-30.5 142.5q0 51 13 92.5t35 75.5t50.5 61t59.5 48h-295v118h834v-118h-269z" />
    <glyph glyph-name="glyph294" horiz-adv-x="1036" 
d="M750 492q43 -22 82 -46.5t68 -53.5t46 -62.5t17 -73.5q0 -71 -35 -120.5t-94 -80.5t-138.5 -45t-167.5 -14q-64 0 -117.5 10t-101.5 28.5t-91.5 44t-86.5 56.5l55 115q34 -32 72.5 -59.5t81 -48t90 -32.5t98.5 -12q55 0 108.5 9.5t94.5 29t66.5 49t25.5 70.5q0 27 -15 50
t-40.5 43.5t-60 38.5t-74.5 36l-207 -225l-104 90l196 166l-414 -64l-22 111l280 43q-35 20 -64 42.5t-51 49t-34 57t-12 66.5q0 55 29.5 93.5t78 63t110 35.5t126.5 11q34 0 72 -4t75.5 -11.5t73 -18t65.5 -22.5l-32 -98q-51 23 -103.5 35t-117.5 12q-44 0 -85 -5.5
t-73 -18.5t-51 -36t-19 -57q0 -25 16.5 -47t44.5 -42t66 -38.5t80 -36.5l573 -1l26 -108z" />
    <glyph glyph-name="glyph295" horiz-adv-x="807" 
d="M725 528v-41q0 -41 -19 -86t-56.5 -83.5t-92 -63.5t-125.5 -25q-68 0 -122 22t-91.5 59.5t-57.5 87t-20 104.5v270q0 25 -11 42t-42 17h-88v105h123q37 0 64.5 -13.5t46.5 -36t28.5 -53.5t9.5 -65v-274q0 -36 10.5 -66.5t30.5 -53t50 -35.5t69 -13q78 0 122 45t44 121
v299h125v-150h276v-113h-274zM504 -78l-99 103l584 282v-84z" />
    <glyph glyph-name="glyph296" horiz-adv-x="772" 
d="M750 584q0 -72 -22 -137.5t-65 -114.5t-107 -78t-148 -29q-45 0 -91 14.5t-87.5 39t-75 57t-54.5 67.5l68 107q31 -82 92 -129t148 -47q49 0 88.5 19t67 52t42.5 79t15 100q0 51 -17 92t-48.5 70t-76 45t-100.5 16t-93.5 -15.5t-74.5 -37.5v112q35 17 74.5 31t93.5 14
q88 0 157 -25t116.5 -69.5t72.5 -104t25 -128.5zM504 -78l-99 103l584 282v-84z" />
    <glyph glyph-name="glyph297" horiz-adv-x="632" 
d="M848 195l-434 -269l-99 103l117 56q-69 9 -129.5 31.5t-105 58t-70 83.5t-25.5 107q0 69 37.5 117.5t102.5 80.5q-62 20 -100 62t-38 108q0 56 29 99.5t77 73.5t108.5 45.5t123.5 15.5q34 0 63 -3.5t56 -10t53 -15l54 -18.5v-105q-45 22 -90 33.5t-101 11.5
q-50 0 -93 -7.5t-74.5 -23.5t-49.5 -41.5t-18 -62.5q0 -28 12 -49t32.5 -35.5t46.5 -21.5t54 -7h266v-108h-231q-38 0 -71 -11t-58.5 -31t-40 -47.5t-14.5 -60.5q0 -41 26.5 -71.5t67 -50.5t89 -29.5t93.5 -9.5q89 0 176 44t158 119v-161z" />
    <glyph glyph-name="glyph298" horiz-adv-x="702" 
d="M888 183l-437 -271l-99 103l111 53q-61 11 -106.5 35t-77.5 55.5t-52.5 68t-32 72t-16 68t-4.5 55.5h-129v108h346q15 0 43.5 5.5t56.5 21t48.5 44t19.5 73.5q-1 42 -14 70t-35.5 44.5t-52.5 23.5t-64 7h-280v103h323q61 0 110 -20t82 -54.5t49.5 -82t14.5 -101.5
q-2 -60 -27 -101.5t-62.5 -69t-82 -43t-86 -22.5t-75.5 -8t-50 0q0 -38 10 -80t37.5 -78t75.5 -59.5t123 -24.5q51 -1 102.5 16t96.5 42t80 53.5t54 50.5v-157z" />
    <glyph glyph-name="glyph299" horiz-adv-x="1106" 
d="M1153 629q-19 6 -41 8t-41 2q-42 0 -80 -12t-68.5 -34.5t-53 -54t-33.5 -71.5q34 -53 52.5 -106t18.5 -119q0 -38 -7.5 -77.5t-24.5 -72t-45 -53.5t-68 -21q-43 0 -72 21.5t-46 55.5t-24.5 74.5t-7.5 78.5q0 33 5.5 61t15.5 53.5t23.5 50.5t29.5 52q-5 11 -12.5 25
t-17.5 31l-173 -344l-101 74l216 368q-28 44 -60.5 89t-64.5 81t-62.5 58.5t-54.5 22.5q-46 0 -80.5 -16t-57 -44t-33.5 -65t-11 -79q0 -38 6 -63t22 -40t43.5 -21.5t69.5 -6.5q34 0 66 15.5t55 34.5v-109q-29 -23 -59.5 -37t-77.5 -14q-132 0 -193 68t-61 187
q0 64 21.5 118t62 93t99 60.5t132.5 21.5q46 0 88 -19.5t80 -52t71 -74t62 -86.5t53 -89l44 -81q27 54 59 91t72 59.5t89 32.5t109 10q17 0 34 -0.5t32 -3.5v-131v0z" />
    <glyph glyph-name="glyph300" horiz-adv-x="1106" 
d="M115 594l355 62q-10 39 -26.5 73t-41 59t-58 39.5t-76.5 14.5q-45 0 -91.5 -17.5t-84.5 -48.5v125q41 17 84 27t103 10q69 0 122 -20t92 -54.5t65.5 -80.5t41.5 -99q15 13 33.5 25.5t39.5 22t43 15t44 5.5q25 0 53 -3t55.5 -10.5t53 -19t45.5 -29.5q34 -28 59.5 -63
t41.5 -74.5t24 -81t8 -82.5q0 -38 -7 -82.5t-22 -88.5t-38 -85t-54.5 -72t-73 -50t-92.5 -19q-54 0 -91.5 13t-66.5 38v100q29 -24 55 -36.5t66 -12.5q56 0 92.5 28.5t57.5 73t29 99t8 106.5q0 47 -10.5 91t-34.5 78.5t-62 55.5t-92 21q-35 0 -73.5 -17t-69.5 -40
q6 -56 6 -109q0 -52 -9.5 -108t-29.5 -110.5t-51.5 -103.5t-74 -86t-97.5 -59t-123 -22q-50 0 -98 16t-93 39v119q37 -28 76.5 -47t93.5 -19q78 0 130 34t82.5 88.5t43 122.5t12.5 136q0 16 -0.5 31.5t-1.5 31.5l-372 -61v111z" />
    <glyph glyph-name="glyph301" horiz-adv-x="834" 
d="M756 471q-2 -14 -8.5 -46.5t-23 -74t-44.5 -85.5t-72 -81t-106 -60.5t-146 -23.5q-41 0 -86 13t-86.5 32t-76 40.5t-54.5 37.5l43 121l58 -44.5t61 -40.5t61.5 -29t59.5 -11q62 0 115 20.5t91.5 61t60.5 100.5t24 138q0 51 -13.5 92t-37 74t-54 57t-63 40t-64.5 24t-59 8
q-50 0 -91 -15.5t-87 -40.5l-17 121q34 23 89.5 37t115.5 14q86 0 149.5 -23.5t108.5 -59.5t74 -79.5t45.5 -84.5t23.5 -74t9 -47h262v-111h-262zM534 -78l-99 103l584 282v-84z" />
    <glyph glyph-name="glyph302" horiz-adv-x="922" 
d="M909 39q-36 -15 -78 -27.5t-84.5 -22t-84.5 -15t-78 -5.5q-92 0 -175.5 28.5t-146.5 82t-100 130.5t-37 175v551h129v-555q0 -62 26 -117.5t69 -97.5t99 -67t117 -25q42 0 83.5 6.5t80.5 18t73.5 27.5t61.5 34zM1128 370l-260 -144l-86 89l346 153v-98zM893 623
q0 -67 -22.5 -125t-62.5 -100.5t-96.5 -66.5t-123.5 -24q-18 0 -41 2.5t-46.5 8t-45 12.5t-37.5 16v123q17 -8 30 -15t26.5 -12t29 -8.5t37.5 -3.5q42 0 81 10.5t68.5 32t47.5 55.5t18 82q0 93 -49.5 148t-145.5 55q-35 0 -72.5 -10t-66.5 -29v125q42 14 84.5 23.5t85.5 9.5
q64 0 119 -24.5t95.5 -67t63.5 -98.5t23 -119z" />
    <glyph glyph-name="glyph303" horiz-adv-x="623" 
d="M818 452l-537 -350l-117 93l401 229q-2 34 -7.5 79t-15 93t-23.5 94.5t-33 83.5t-43 59.5t-54 22.5q-22 0 -47 -17t-49.5 -45t-46.5 -63t-39.5 -70t-28.5 -67.5t-12 -54.5l-94 94q8 31 26 67t42.5 71.5t54 69t62 59t65.5 41t65 15.5q56 0 98 -23t72.5 -61t51 -87t33 -102
t18 -106t6.5 -98l152 92v-119z" />
    <glyph glyph-name="glyph304" horiz-adv-x="658" 
d="M868 230l-464 -288l-99 103l149 72q-68 11 -133.5 38t-116.5 70t-82.5 102.5t-31.5 135.5q0 42 13.5 59.5t34.5 22t48 1.5t54 -3q26 0 60 2.5t69.5 10t69 20t60 31.5t42.5 46t16 64q0 33 -9 62.5t-27 51.5t-45 35t-62 13q-65 0 -99 -31t-34 -96q0 -34 21 -63.5t50 -45.5
h-127q-18 8 -31.5 23.5t-22.5 35t-14 41.5t-5 43q0 52 22 90.5t57.5 63.5t80.5 37t91 12q56 0 107.5 -18.5t90.5 -53t62 -83t23 -107.5q0 -62 -26 -113.5t-69 -88.5t-97.5 -58t-112.5 -21q-17 0 -41.5 3t-47.5 1.5t-39.5 -11.5t-16.5 -36q0 -30 15 -55t39 -45t55 -35t63 -25
t62 -15t54 -5q41 0 90 12t96.5 34t89.5 53t68 69v-161z" />
    <glyph glyph-name="glyph305" horiz-adv-x="641" 
d="M858 187l-444 -275l-99 103l97 47q-63 7 -121.5 27.5t-103 57.5t-71 91t-26.5 129q0 39 16.5 71t42.5 57t59 43.5t66 30.5q-29 8 -62.5 21.5t-62.5 34t-48 48t-19 62.5q0 45 25 84.5t65 73.5t91 62t104 49.5t102 37.5t86 25l51 -98q-27 -5 -65 -14t-79.5 -23t-82.5 -33.5
t-74 -44.5t-53.5 -55.5t-20.5 -67.5q0 -32 28 -52t71.5 -30.5t95.5 -14t100 -3.5t85 2t51 2v-111h-228q-37 0 -73.5 -15.5t-66 -41t-47.5 -60t-18 -71.5q0 -49 28.5 -80.5t70 -49.5t88.5 -25t84 -7q38 0 85 12t95.5 33.5t95 52.5t82.5 70v-155z" />
    <glyph glyph-name="ch290_glyph62_glyph91.blwf.half" horiz-adv-x="729" 
d="M908 629h-259q37 -32 52.5 -78t15.5 -94q0 -44 -21.5 -84.5t-61.5 -72t-97.5 -50.5t-128.5 -19q-78 0 -139 20t-103 54.5t-64 82t-22 101.5q0 58 24 105.5t63.5 81t91 51.5t106.5 18h543v-116zM444 -78l-99 103l563 272v-87zM590 483q0 50 -17.5 87t-60.5 59
q-3 3 -25.5 5.5t-54 0.5t-67 -9.5t-66 -24.5t-50.5 -45.5t-20 -70.5q0 -37 15 -64.5t39 -46t55.5 -27.5t64.5 -9q34 0 67.5 10.5t60 29t43 45.5t16.5 60z" />
    <glyph glyph-name="ch291_glyph62_glyph91.blwf.half" horiz-adv-x="500" 
d="M688 257l-444 -275l-99 103l239 116q-40 14 -80 39.5t-72 61t-52 80.5t-20 97v318q0 21 -5.5 27.5t-25.5 6.5h-92v105h110q36 0 64 -14t46.5 -37t28 -53.5t9.5 -63.5v-295q0 -31 14 -60t40 -51.5t62 -36.5t81 -14q25 0 53.5 8.5t55.5 21t50 26t37 22.5v-132z" />
    <glyph glyph-name="ch292_glyph62_glyph91.blwf.half" horiz-adv-x="965" 
d="M743 510q33 -17 69 -41.5t66.5 -55.5t50 -67.5t19.5 -77.5q0 -79 -42 -134.5t-109.5 -91t-152 -51.5t-169.5 -16l303 -215h-213l-229 236q-44 9 -79 20.5t-67.5 26t-64.5 33.5l-70 43l78 108q37 -35 86.5 -62t102.5 -45.5t103.5 -28t88.5 -9.5q50 0 102.5 12.5t96 37.5
t71 63.5t27.5 91.5q0 34 -13.5 60t-35.5 46.5t-49.5 36t-55.5 27.5l-229 -232l-117 74l254 190l-495 -94l-19 125l326 58q-29 10 -60.5 25.5t-57.5 37t-43 49.5t-17 64q0 60 31.5 100.5t78.5 65.5t102 36t103 11q42 0 85 -4.5t84.5 -12.5t78.5 -18.5t67 -22.5l-26 -100
q-22 11 -49 20t-55.5 15.5t-56.5 10t-52 3.5q-33 0 -74.5 -3t-78.5 -15.5t-62 -38.5t-25 -72q0 -20 23.5 -43.5t53.5 -44t59 -33t40 -10.5h652l19 -125z" />
    <glyph glyph-name="ch293_glyph62_glyph91.blwf.half" horiz-adv-x="860" 
d="M825 549v-19q0 -63 -26 -126t-73 -114t-113 -82.5t-146 -31.5q-99 0 -169.5 33.5t-115 91.5t-65.5 135.5t-21 165.5q0 72 22 140t64 121t103 85.5t139 32.5q49 0 83 -13.5t66 -33.5v-107q-35 25 -65 35t-70 10q-48 0 -87 -26.5t-66 -68.5t-41.5 -93.5t-14.5 -101.5
q0 -72 12 -126.5t38.5 -91.5t68.5 -56t101 -19q57 0 103.5 19.5t78.5 54.5t49.5 84t17.5 108v209h125v-105h236v-110h-234zM594 -78l-99 103l564 272v-87z" />
    <glyph glyph-name="ch294_glyph62_glyph91.blwf.half" horiz-adv-x="913" 
d="M1118 166l-394 -244l-99 103l493 238v-97zM801 444q0 -37 -5 -69.5t-20 -56.5t-42 -38t-70 -14q-32 0 -60 11.5t-49 32.5t-33 49t-12 61q0 71 38.5 111t110.5 40v131q0 35 -12 66.5t-33.5 55.5t-51.5 38.5t-66 14.5q-47 0 -84 -17t-64.5 -46.5t-46.5 -68t-31 -82
t-17 -89.5t-5 -89q0 -55 7.5 -112t23.5 -112.5t40 -108t56 -97.5h-117q-35 52 -61 104t-44 105.5t-27 110.5t-9 119q0 87 21.5 173t67 154t115.5 110t168 42q75 0 133 -23.5t97.5 -63t60.5 -92.5t21 -112v-113h317v-125h-317z" />
    <glyph glyph-name="ch295_glyph62_glyph91.blwf.half" horiz-adv-x="571" 
d="M442 440v-39q0 -27 -11 -53.5t-31.5 -46.5t-50.5 -32.5t-68 -12.5q-32 0 -59.5 11t-47.5 31t-31.5 48t-11.5 62q0 40 14 68.5t37.5 47t54.5 26t66 5.5v211q0 40 -23 54t-61 14h-147v98h155q104 0 159.5 -44.5t55.5 -121.5v-211h336v-115h-336zM778 191l-434 -269l-99 103
l533 257v-91z" />
    <glyph glyph-name="ch296_glyph62_glyph91.blwf.half" horiz-adv-x="676" 
d="M868 236l-464 -288l-99 103l162 78q-74 7 -144 34t-124 73.5t-86.5 111t-32.5 146.5q0 21 9 39.5t24 32t34.5 21t40.5 7.5q54 0 107.5 -6t107.5 -6q31 0 60 4.5t51.5 17t35.5 35.5t13 61q0 42 -18.5 68.5t-47 41.5t-63.5 20.5t-69 5.5h-226v104h307q51 0 98 -20.5
t82.5 -55t57 -80t21.5 -94.5q0 -54 -24 -96t-63 -70t-88 -42.5t-98 -14.5q-38 0 -76.5 9t-76.5 9q-22 0 -32.5 -8.5t-10.5 -30.5q0 -51 27.5 -90t69.5 -65.5t91 -40.5t92 -14q41 0 90 9.5t98 27.5t92 43t72 56v-136z" />
    <glyph glyph-name="ch298_glyph62_glyph91.blwf.half" horiz-adv-x="720" 
d="M908 359l-284 -177l-99 103l305 141h-345v119h423v-186zM698 41q-37 -14 -77.5 -20.5t-77.5 -6.5q-83 0 -167 34.5t-152 97t-111 149.5t-43 192q0 55 15 111t43 107.5t68 96.5t91.5 78.5t113 52.5t131.5 19q49 0 85.5 -5t80.5 -23v-111q-6 1 -24 5t-39.5 8t-43 7t-34.5 3
q-75 0 -139 -27.5t-110.5 -75t-72.5 -111t-26 -135.5q0 -84 33 -149.5t87.5 -110.5t126 -68.5t148.5 -23.5q22 0 49.5 8.5t44.5 22.5v-125z" />
    <glyph glyph-name="ch300_glyph62_glyph91.blwf.half" horiz-adv-x="579" 
d="M758 199l-434 -269l-99 103l165 80q-68 14 -122.5 49.5t-92 86t-57.5 112t-20 128.5q0 75 29 137.5t79 107.5t116 70t141 25q19 0 41.5 -3t45 -8.5t44 -12.5t39.5 -14l-21 -113q-32 14 -67 21.5t-58 7.5q-121 0 -189.5 -59t-68.5 -169q0 -53 17 -98.5t48.5 -78.5
t76.5 -52t102 -19q68 0 143 30t142 96v-158z" />
    <glyph glyph-name="ch301_glyph62_glyph91.blwf.half" horiz-adv-x="790" 
d="M983 342l-477 -279l-107 101l492 223l-184.5 71t-196.5 87l-112.5 -35l-110 -32l-102 -28.5t-87.5 -25.5l-84 104l84 19l92 21l95 22.5l94 23.5q-41 24 -75 48.5t-59 48.5t-38.5 47.5t-13.5 46.5q0 52 28 89.5t72.5 62t100 36t110.5 11.5q65 0 129 -13t114.5 -41
t81.5 -71t31 -103q0 -25 -16.5 -49t-46.5 -47t-71 -44.5t-89 -41.5l91 -37.5l90.5 -36l86.5 -33l78 -28.5v-117zM715 780q0 31 -15 53.5t-42 36.5t-63.5 20.5t-78.5 6.5q-36 0 -66.5 -6.5t-52.5 -20t-34.5 -34.5t-12.5 -50q0 -13 12 -28.5t33.5 -32.5t51.5 -35.5t65 -36.5
q44 15 81 31t64 32t42.5 32t15.5 32z" />
    <glyph glyph-name="ch302_glyph62_glyph91.blwf.half" horiz-adv-x="562" 
d="M738 294l-454 -282l-99 103l177 85q-42 14 -81 36.5t-70 52.5t-49.5 67.5t-18.5 81.5v350q0 22 -8 32.5t-31 10.5h-104v105h195l543 -430v-212zM281 780v-327q0 -34 18 -62t47 -48t65.5 -31t73.5 -11q45 0 81 15t64 37.5t47.5 49.5t31.5 52z" />
    <glyph glyph-name="glyph175_glyph62_glyph91.blwf.half" horiz-adv-x="922" 
d="M1098 485l-324 -260l-123 84l365 234h-240q-21 -51 -61.5 -84.5t-91 -53t-107 -27t-110.5 -7.5h-48l82 -199q10 -22 19 -32.5t37 -10.5h217v-133h-258q-57 0 -85 25.5t-44 66.5l-111 283h-115v133h365q24 0 55 5.5t58.5 21t46.5 44t20 74.5q0 44 -15.5 74.5t-42 50
t-62.5 28.5t-76 9h-310v125h369q56 0 106 -20t88.5 -55.5t63 -83t29.5 -101.5h303v-191z" />
    <glyph glyph-name="glyph371" horiz-adv-x="825" 
d="M1014 682q-9 46 -25 82q-14 31 -36 56.5t-56 25.5q-64 0 -95 -32t-43.5 -84.5t-12.5 -119t-1.5 -136.5t-11.5 -136.5t-42 -119t-93 -84.5t-164 -32q-96 0 -160.5 35t-103.5 94.5t-55.5 138.5t-16.5 167q0 79 13 154t44 133t83.5 93t130.5 35q45 0 76.5 -10t60.5 -24v-107
q-28 17 -55 26t-56 9q-56 0 -90.5 -23t-53.5 -64.5t-25.5 -100t-6.5 -130.5q0 -75 9.5 -135.5t33.5 -103t65 -65.5t103 -23q58 0 93.5 20.5t55 56t27.5 83t11 100.5t4 109.5t7.5 109.5t22 100.5t46 83t80.5 56t126 20.5q36 0 59.5 -11t38 -29.5t21 -41.5t8.5 -47
q4 -57 -16 -129zM1014 164l-390 -242l-99 103l489 236v-97z" />
    <glyph glyph-name="glyph102_glyph91.half" horiz-adv-x="995" 
d="M803 500l-53 -8q43 -22 82 -46.5t68 -53.5t46 -62.5t17 -73.5q0 -71 -35 -120.5t-94 -80.5t-138.5 -45t-167.5 -14q-64 0 -117.5 10t-101.5 28.5t-91.5 44t-86.5 56.5l55 115q34 -32 72.5 -59.5t81 -48t90 -32.5t98.5 -12q55 0 108.5 9.5t94.5 29t66.5 49t25.5 70.5
q0 34 -23 62t-61.5 52t-88 45.5l-103.5 43.5l-443 -68l-22 111l280 43q-35 20 -64 42.5t-51 49t-34 57t-12 66.5q0 55 29.5 93.5t78 63t110 35.5t126.5 11q34 0 72 -4t75.5 -11.5t73 -18t65.5 -22.5l-32 -98q-51 23 -103.5 35t-117.5 12q-44 0 -85 -5.5t-73 -18.5t-51 -36
t-19 -57q0 -25 16.5 -47t44.5 -42t66 -38.5t80 -36.5l125 19h457v-111zM229 -81q0 -21 -8 -39t-21.5 -31.5t-31.5 -21t-39 -7.5t-39 8t-31.5 21.5t-21.5 31.5t-8 38q0 42 29 71t71 29t71 -28t29 -70v-2z" />
    <glyph glyph-name="glyph103_glyph91.half" horiz-adv-x="819" 
d="M725 528v-41q0 -41 -19 -86t-56.5 -83.5t-92 -63.5t-125.5 -25q-68 0 -122 22t-91.5 59.5t-57.5 87t-20 104.5v270q0 25 -11 42t-42 17h-88v105h123q37 0 64.5 -13.5t46.5 -36t28.5 -53.5t9.5 -65v-274q0 -36 10.5 -66.5t30.5 -53t50 -35.5t69 -13q78 0 122 45t44 121
v299h125v-150h276v-113h-274zM229 129q0 -21 -8 -39t-21.5 -31.5t-31.5 -21t-39 -7.5t-39 8t-31.5 21.5t-21.5 31.5t-8 38q0 42 29 71t71 29t71 -28t29 -70v-2z" />
    <glyph glyph-name="glyph104_glyph91.half" horiz-adv-x="805" 
d="M750 584q0 -72 -22 -137.5t-65 -114.5t-107 -78t-148 -29q-45 0 -91 14.5t-87.5 39t-75 57t-54.5 67.5l68 107q31 -82 92 -129t148 -47q49 0 88.5 19t67 52t42.5 79t15 100q0 51 -17 92t-48.5 70t-76 45t-100.5 16t-93.5 -15.5t-74.5 -37.5v112q35 17 74.5 31t93.5 14
q88 0 157 -25t116.5 -69.5t72.5 -104t25 -128.5zM249 89q0 -21 -8 -39t-21.5 -31.5t-31.5 -21t-39 -7.5t-39 8t-31.5 21.5t-21.5 31.5t-8 38q0 42 29 71t71 29t71 -28t29 -70v-2z" />
    <glyph glyph-name="ch233_glyph91.half" horiz-adv-x="975" 
d="M1153 629q-19 6 -41 8t-41 2q-42 0 -80 -12t-68.5 -34.5t-53 -54t-33.5 -71.5q34 -53 52.5 -106t18.5 -119q0 -38 -7.5 -77.5t-24.5 -72t-45 -53.5t-68 -21q-43 0 -72 21.5t-46 55.5t-24.5 74.5t-7.5 78.5q0 33 5.5 61t15.5 53.5t23.5 50.5t29.5 52q-11 22 -32.5 61
t-49.5 84t-61 91t-66 84t-64.5 61.5t-56.5 23.5q-46 0 -80.5 -16t-57 -44t-33.5 -65t-11 -79q0 -38 11 -70.5t32.5 -56t54 -37t74.5 -13.5q34 0 66 15.5t55 34.5v-109q-29 -23 -59.5 -37t-77.5 -14q-66 0 -119 25t-89.5 66.5t-56.5 96t-20 113.5q0 64 21.5 118t62 93
t99 60.5t132.5 21.5q46 0 88 -19.5t80 -52t71 -74t62 -86.5t53 -89l44 -81q27 54 59 91t72 59.5t89 32.5t109 10q17 0 34 -0.5t32 -3.5v-131zM239 119q0 -21 -8 -39t-21.5 -31.5t-31.5 -21t-39 -7.5t-39 8t-31.5 21.5t-21.5 31.5t-8 38q0 42 29 71t71 29t71 -28t29 -70v-2z
" />
    <glyph glyph-name="glyph55_glyph91.half" horiz-adv-x="743" 
d="M649 629q37 -32 52.5 -78t15.5 -94q0 -44 -21.5 -84.5t-61.5 -72t-97.5 -50.5t-128.5 -19q-78 0 -139 20t-103 54.5t-64 82t-22 101.5q0 58 24 105.5t63.5 81t91 51.5t106.5 18h555v-116h-271zM590 483q0 50 -17.5 87t-60.5 59q-3 3 -25.5 5.5t-54 0.5t-67 -9.5
t-66 -24.5t-50.5 -45.5t-20 -70.5q0 -37 15 -64.5t39 -46t55.5 -27.5t64.5 -9q34 0 67.5 10.5t60 29t43 45.5t16.5 60zM399 69q0 -21 -8 -39t-21.5 -31.5t-31.5 -21t-39 -7.5t-39 8t-31.5 21.5t-21.5 31.5t-8 38q0 42 29 71t71 29t71 -28t29 -70v-2z" />
    <glyph glyph-name="glyph108_glyph91.half" horiz-adv-x="967" 
d="M1128 494l-376 18q36 -16 75.5 -40.5t73 -56t55 -69.5t21.5 -82q0 -53 -20.5 -93.5t-54.5 -70t-79 -49.5t-94 -32.5t-99.5 -18t-94.5 -6.5l319 -207h-242l-225 225q-42 12 -83.5 29t-78.5 36.5t-69 39.5t-56 37l90 90q56 -71 140 -103t196 -32q38 0 91 7t102 25t83 49.5
t34 81.5q0 41 -30.5 76t-74 63t-90.5 47.5t-80 30.5l-457 -63l-22 129l317 23q-27 13 -53.5 31.5t-48.5 42t-35.5 51.5t-13.5 61q0 56 29.5 94t74 61.5t96.5 33.5t97 10q40 0 84 -5.5t86 -14t79.5 -19.5t63.5 -23l-29 -98q-21 7 -46 14.5t-51.5 13.5t-52 9.5t-46.5 3.5
q-31 0 -71.5 -4.5t-76.5 -18t-61 -38.5t-25 -66q0 -23 19.5 -42t46.5 -33.5t55.5 -24.5t46.5 -15l561 -2v-106zM249 -81q0 -21 -8 -39t-21.5 -31.5t-31.5 -21t-39 -7.5t-39 8t-31.5 21.5t-21.5 31.5t-8 38q0 42 29 71t71 29t71 -28t29 -70v-2z" />
    <glyph glyph-name="glyph109_glyph91.half" horiz-adv-x="680" 
d="M872 242q-37 -23 -80.5 -43.5t-90 -36.5t-93.5 -25.5t-90 -9.5q-81 0 -159.5 24t-140.5 70.5t-100 115t-38 157.5q0 21 9 39.5t24 32t34.5 21t40.5 7.5q54 0 107.5 -6t107.5 -6q31 0 60 4.5t51.5 17t35.5 35.5t13 61q0 42 -18.5 68.5t-47 41.5t-63.5 20.5t-69 5.5h-226
v104h307q51 0 98 -20.5t82.5 -55t57 -80t21.5 -94.5q0 -54 -24 -96t-63 -70t-88 -42.5t-98 -14.5q-38 0 -76.5 9t-76.5 9q-22 0 -32.5 -8.5t-10.5 -30.5q0 -51 27.5 -90t69.5 -65.5t91 -40.5t92 -14q42 0 92 10t99.5 28.5t93 44.5t71.5 58v-135zM229 49q0 -21 -8 -39
t-21.5 -31.5t-31.5 -21t-39 -7.5t-39 8t-31.5 21.5t-21.5 31.5t-8 38q0 42 29 71t71 29t71 -28t29 -70v-2z" />
    <glyph glyph-name="glyph66_glyph91.half" horiz-adv-x="852" 
d="M936 834q-64 0 -99.5 -31.5t-55 -83.5t-27.5 -118.5l-17 -135.5t-23.5 -135.5t-47 -118.5t-87.5 -83.5t-145 -31.5q-95 0 -166.5 39.5t-119 103t-71.5 142.5t-24 158q0 81 19.5 153t59.5 126t99.5 86t139.5 32q28 0 46.5 -3t33.5 -7.5t29.5 -10.5t33.5 -12v-102
q-26 12 -50.5 20t-55.5 8q-64 0 -107 -26t-69.5 -71t-38 -105t-11.5 -127q0 -55 15 -109t45 -97t76.5 -70t109.5 -27q65 0 101 32t54.5 83.5t26 118l16 136t23.5 136t48.5 118t91.5 83.5t153 32h111v-102h-117zM229 19q0 -21 -8 -39t-21.5 -31.5t-31.5 -21t-39 -7.5t-39 8
t-31.5 21.5t-21.5 31.5t-8 38q0 42 29 71t71 29t71 -28t29 -70v-2z" />
    <glyph glyph-name="glyph380" horiz-adv-x="466" 
d="M415 425l-101 72l8 -71l8 -70q1 -6 0 -10t-3 -3q-2 0 -4 1q-3 0 -5 2h1q-13 5 -26 12t-26 12l17 124l-57 -38.5l-57 -38.5q-9 -7 -13 -7l-2 12l-2 25l-2 25l113 48l-67 23l-67 24l-12 5q0 1 1 2t3 2t3 2.5t3 2.5h-1l25 19l25 19l101 -74q-4 37 -8.5 72t-8.5 72q-1 5 0 8
t7 1q1 -1 1.5 -0.5t2.5 -1.5l26.5 -15.5l26.5 -15.5l-14 -119l56 42t56 41q11 8 13 -2l4 -56l-114 -49l63.5 -24l63.5 -24q14 -4 14 -8l-8 -8z" />
    <glyph glyph-name="glyph220_glyph79.blws" horiz-adv-x="1145" 
d="M840 -338l-326 311l-305 -311h-187l383 338q-49 5 -92 17t-82 29.5t-76 40t-73 48.5l55 115q34 -32 76 -59.5t87 -48t91 -32.5t88 -12q55 0 108 9.5t94.5 29t67 49t25.5 70.5q0 52 -26.5 86.5t-70.5 58.5t-100 41l-114 34t-114 37.5t-100 51t-70.5 74.5t-26.5 109
q0 56 32 96.5t82 67t111 39t119 12.5q34 0 71.5 -4t75 -11.5t73 -18t66.5 -22.5l-32 -98q-51 23 -104 35t-118 12q-44 0 -84.5 -5.5t-72.5 -18.5t-51 -36t-19 -57q0 -42 26.5 -70t69.5 -48t98 -35.5l112 -32.5t112 -39.5t98 -56.5t69.5 -82.5t26.5 -118.5q0 -57 -22.5 -100
t-62 -73.5t-94 -49.5t-118.5 -28l402 -343h-178zM903 -496q0 -55 -17 -95t-47 -68t-70 -45.5t-85.5 -27t-94 -13t-95.5 -3.5q-71 0 -149.5 18.5t-154.5 50t-145.5 73t-122.5 88.5l27 121q59 -56 124.5 -101.5t135 -77.5t141 -49.5t142.5 -17.5q46 0 94.5 8.5t88.5 26
t65.5 43t25.5 59.5q0 29 -12.5 51.5t-34.5 38t-52 23.5t-65 8q-57 0 -114 -28.5t-103 -73.5l-63 92q28 19 62.5 37.5t74.5 32.5t85.5 23t96.5 9q54 0 102 -12.5t83.5 -38t56 -63.5t20.5 -89zM1077 651q0 -22 -9 -41.5t-24.5 -33.5t-35.5 -22.5t-41 -8.5q-23 0 -42.5 8.5
t-33.5 22.5t-22.5 33.5t-8.5 41.5t8.5 42t22.5 35.5t33.5 24.5t42.5 9t43 -9t35 -24t23.5 -35.5t8.5 -42.5z" />
    <glyph glyph-name="glyph224_glyph79.blws" horiz-adv-x="1206" 
d="M880 -358l-326 311l-305 -311h-187l370 327q-64 11 -123 35.5t-104 65.5t-72 100t-27 139q0 79 39.5 137t104.5 82q-37 11 -67.5 27.5t-53 40.5t-35 56.5t-12.5 74.5q0 45 20.5 83.5t54.5 66.5t76 43.5t86 15.5h207v-98h-153q-32 0 -60 -7t-48.5 -21t-32 -37t-11.5 -54
q0 -37 15 -62.5t41 -41t61 -22.5t76 -7h106v-105h-76q-92 0 -144 -44t-52 -140q0 -63 30.5 -107.5t77 -72.5t100.5 -41t101 -13q69 0 125.5 17t101.5 47.5t79 72t59 89.5q-55 36 -104 77.5t-85.5 88t-58 98.5t-21.5 109q0 54 15 105.5t44.5 91t72 63.5t98.5 24
q81 0 129 -34.5t73.5 -90.5t33 -126t7.5 -140q0 -102 -33 -198t-92.5 -175t-142.5 -135.5t-183 -77.5l383 -327h-178zM903 -496q0 -55 -17 -95t-47 -68t-70 -45.5t-85.5 -27t-94 -13t-95.5 -3.5q-71 0 -149.5 18.5t-154.5 50t-145.5 73t-122.5 88.5l27 121
q59 -56 124.5 -101.5t135 -77.5t141 -49.5t142.5 -17.5q46 0 94.5 8.5t88.5 26t65.5 43t25.5 59.5q0 29 -12.5 51.5t-34.5 38t-52 23.5t-65 8q-57 0 -114 -28.5t-103 -73.5l-63 92q28 19 62.5 37.5t74.5 32.5t85.5 23t96.5 9q54 0 102 -12.5t83.5 -38t56 -63.5t20.5 -89z
M999 651q0 39 -5.5 74.5t-19 62.5t-35.5 43.5t-56 16.5q-32 0 -53 -15.5t-34 -41t-18.5 -57.5t-5.5 -64q0 -43 17 -86.5t44 -82.5t60 -71.5t65 -54.5q22 66 31.5 137t9.5 139z" />
    <glyph glyph-name="glyph228_glyph79.blws" horiz-adv-x="977" 
d="M840 -338l-326 311l-305 -311h-187l381 336q-69 9 -128 31.5t-101.5 59t-67 87.5t-24.5 117q0 58 25.5 101t67.5 75t96 54.5t110 40.5t110 33t96 31t67.5 35.5t25.5 45.5q0 33 -17 56.5t-45.5 39t-66 22.5t-78.5 7q-54 0 -113 -15.5t-122 -50.5l-15 117q28 10 60.5 19.5
t65.5 16.5t65 11t59 4q66 0 128 -14.5t110 -43t77 -69.5t29 -94q0 -49 -25.5 -83.5t-67 -59.5t-95 -43t-109 -34.5l-108.5 -33.5t-94.5 -39.5t-67 -53.5t-25.5 -75q0 -107 70 -153t215 -46q50 0 97 13t90 36t80 55.5t67 71.5l61 -120q-59 -64 -124 -102t-156 -51l393 -335
h-178zM903 -496q0 -55 -17 -95t-47 -68t-70 -45.5t-85.5 -27t-94 -13t-95.5 -3.5q-71 0 -149.5 18.5t-154.5 50t-145.5 73t-122.5 88.5l27 121q59 -56 124.5 -101.5t135 -77.5t141 -49.5t142.5 -17.5q46 0 94.5 8.5t88.5 26t65.5 43t25.5 59.5q0 29 -12.5 51.5t-34.5 38
t-52 23.5t-65 8q-57 0 -114 -28.5t-103 -73.5l-63 92q28 19 62.5 37.5t74.5 32.5t85.5 23t96.5 9q54 0 102 -12.5t83.5 -38t56 -63.5t20.5 -89z" />
    <glyph glyph-name="glyph229_glyph79.blws" horiz-adv-x="1001" 
d="M840 -338l-326 311l-305 -311h-187l386 339q-74 10 -136 33t-107 61.5t-70 93.5t-25 128q0 47 26 88t67 75.5t90.5 61t96.5 44.5q-57 29 -93 68t-36 98q0 57 28.5 95.5t76.5 62t109.5 34t127.5 10.5q59 0 117.5 -14t114.5 -33v-121q-51 34 -113.5 49t-118.5 15
q-38 0 -73 -4.5t-62.5 -17t-44 -33.5t-16.5 -54t25.5 -56t67.5 -41.5t96 -34t110 -33.5t110 -41t96 -55.5t67.5 -77.5t25.5 -107q0 -70 -27.5 -121.5t-74.5 -87.5t-109 -57t-131 -29l395 -338h-178zM829 295q0 35 -15.5 62.5t-42 50t-62 40t-76 33t-84.5 29.5t-86 29
q-44 -17 -89.5 -43.5t-83 -59.5t-61.5 -70.5t-24 -76.5q0 -51 26.5 -87t71 -59t103.5 -34t124 -11q59 0 113 11.5t95.5 35.5t66 61.5t24.5 88.5zM903 -496q0 -55 -17 -95t-47 -68t-70 -45.5t-85.5 -27t-94 -13t-95.5 -3.5q-71 0 -149.5 18.5t-154.5 50t-145.5 73
t-122.5 88.5l27 121q59 -56 124.5 -101.5t135 -77.5t141 -49.5t142.5 -17.5q46 0 94.5 8.5t88.5 26t65.5 43t25.5 59.5q0 29 -12.5 51.5t-34.5 38t-52 23.5t-65 8q-57 0 -114 -28.5t-103 -73.5l-63 92q28 19 62.5 37.5t74.5 32.5t85.5 23t96.5 9q54 0 102 -12.5t83.5 -38
t56 -63.5t20.5 -89z" />
    <glyph glyph-name="glyph240_glyph79.blws" horiz-adv-x="954" 
d="M840 -338l-326 311l-305 -311h-187l384 338q-51 5 -96 17.5t-85 30.5t-75 40.5t-68 46.5l55 115q35 -32 73.5 -60t80.5 -48.5t89 -32t99 -11.5q55 0 108.5 9.5t94.5 29t66.5 49t25.5 70.5q0 52 -26.5 86.5t-70.5 59.5t-100 43l-114 36t-114 39.5t-100 53t-70.5 76.5
t-26.5 110q0 45 27 83t72 66t103.5 44t120.5 16q90 0 167 -23.5t140 -54.5l-32 -98l-52.5 25.5t-55 22.5t-61.5 15.5t-73 5.5q-38 0 -75 -6.5t-66 -21t-47.5 -38t-18.5 -57.5q0 -42 26.5 -70t69.5 -48t98 -35.5l112 -32.5t112 -39.5t98 -56.5t69.5 -82.5t26.5 -118.5
q0 -57 -22.5 -100t-62 -73.5t-94 -49.5t-118.5 -28l402 -343h-178zM903 -496q0 -55 -17 -95t-47 -68t-70 -45.5t-85.5 -27t-94 -13t-95.5 -3.5q-71 0 -149.5 18.5t-154.5 50t-145.5 73t-122.5 88.5l27 121q59 -56 124.5 -101.5t135 -77.5t141 -49.5t142.5 -17.5
q46 0 94.5 8.5t88.5 26t65.5 43t25.5 59.5q0 29 -12.5 51.5t-34.5 38t-52 23.5t-65 8q-57 0 -114 -28.5t-103 -73.5l-63 92q28 19 62.5 37.5t74.5 32.5t85.5 23t96.5 9q54 0 102 -12.5t83.5 -38t56 -63.5t20.5 -89z" />
    <glyph glyph-name="glyph241_glyph79.blws" horiz-adv-x="944" 
d="M840 -338l-326 311l-305 -311h-187l382 337q-63 10 -121.5 32.5t-103.5 60t-72 90t-27 121.5q0 63 25 107.5t66 76t93.5 53t107.5 37.5t107.5 29.5t93.5 29t66 35.5t25 50q0 40 -16.5 67t-45 43.5t-67.5 23.5t-84 7q-38 0 -71 -4.5t-63 -12.5t-58.5 -19l-57.5 -23v112
q55 20 114.5 33t135.5 13q71 0 136 -16.5t114.5 -48.5t78.5 -81t29 -113q0 -50 -25.5 -82.5t-67 -54.5t-94.5 -36t-108 -26.5t-108 -26.5t-94.5 -36t-67 -54.5t-25.5 -82.5q0 -54 21 -92t57.5 -62t85.5 -34.5t104 -10.5q10 0 20 3l21 6q0 44 15.5 89.5t43.5 82t68 59.5
t88 23q63 0 97 -37.5t34 -108.5q0 -48 -22.5 -85t-58.5 -64t-81.5 -44.5t-90.5 -26.5l397 -339h-178zM903 -496q0 -55 -17 -95t-47 -68t-70 -45.5t-85.5 -27t-94 -13t-95.5 -3.5q-71 0 -149.5 18.5t-154.5 50t-145.5 73t-122.5 88.5l27 121q59 -56 124.5 -101.5t135 -77.5
t141 -49.5t142.5 -17.5q46 0 94.5 8.5t88.5 26t65.5 43t25.5 59.5q0 29 -12.5 51.5t-34.5 38t-52 23.5t-65 8q-57 0 -114 -28.5t-103 -73.5l-63 92q28 19 62.5 37.5t74.5 32.5t85.5 23t96.5 9q54 0 102 -12.5t83.5 -38t56 -63.5t20.5 -89z" />
    <glyph glyph-name="glyph286_glyph79.blws" horiz-adv-x="1276" 
d="M1014 0v164l-390 -242l-99 103l489 236v421q0 32 -5.5 62t-19 52.5t-36 36t-56.5 13.5q-64 0 -95 -32t-43.5 -84.5t-12.5 -119t-1.5 -136.5t-11.5 -136.5t-42 -119t-93 -84.5t-164 -32q-96 0 -160.5 35t-103.5 94.5t-55.5 138.5t-16.5 167q0 79 13 154t44 133t83.5 93
t130.5 35q45 0 76.5 -10t60.5 -24v-107q-28 17 -55 26t-56 9q-56 0 -90.5 -23t-53.5 -64.5t-25.5 -100t-6.5 -130.5q0 -75 9.5 -135.5t33.5 -103t65 -65.5t103 -23q58 0 93.5 20.5t55 56t27.5 83t11 100.5t4 109.5t7.5 109.5t22 100.5t46 83t80.5 56t126 20.5q72 0 119 -20
t75.5 -53.5t40 -78t11.5 -92.5v-696h-135zM1303 -256q0 -55 -17 -95t-47 -68t-70 -45.5t-85.5 -27t-94 -13t-95.5 -3.5q-71 0 -149.5 18.5t-154.5 50t-145.5 73t-122.5 88.5l27 121q59 -56 124.5 -101.5t135 -77.5t141 -49.5t142.5 -17.5q46 0 94.5 8.5t88.5 26t65.5 43
t25.5 59.5q0 29 -12.5 51.5t-34.5 38t-52 23.5t-65 8q-57 0 -114 -28.5t-103 -73.5l-63 92q28 19 62.5 37.5t74.5 32.5t85.5 23t96.5 9q54 0 102 -12.5t83.5 -38t56 -63.5t20.5 -89z" />
    <glyph glyph-name="ch234_glyph79.blws" horiz-adv-x="954" 
d="M913 256q0 -71 -34.5 -120.5t-94 -80.5t-138.5 -45t-167 -14q-66 0 -122 11t-104.5 30t-90.5 44t-80 54l55 115q35 -32 73.5 -60t80.5 -48.5t89 -32t99 -11.5q55 0 108.5 9.5t94.5 29t66.5 49t25.5 70.5q0 52 -26.5 86.5t-70.5 59.5t-100 43l-114 36t-114 39.5t-100 53
t-70.5 76.5t-26.5 110q0 45 27 83t72 66t103.5 44t120.5 16q90 0 167 -23.5t140 -54.5l-32 -98l-52.5 25.5t-55 22.5t-61.5 15.5t-73 5.5q-38 0 -75 -6.5t-66 -21t-47.5 -38t-18.5 -57.5q0 -42 26.5 -70t69.5 -48t98 -35.5l112 -32.5t112 -39.5t98 -56.5t69.5 -82.5
t26.5 -118.5zM616 -193q0 -21 -8 -39t-21.5 -31.5t-31.5 -21t-39 -7.5t-39 8t-31.5 21.5t-21.5 31.5t-8 38q0 42 29 71t71 29t71 -28t29 -70v-2zM903 -526q0 -55 -17 -95t-47 -68t-70 -45.5t-85.5 -27t-94 -13t-95.5 -3.5q-71 0 -149.5 18.5t-154.5 50t-145.5 73
t-122.5 88.5l27 121q59 -56 124.5 -101.5t135 -77.5t141 -49.5t142.5 -17.5q46 0 94.5 8.5t88.5 26t65.5 43t25.5 59.5q0 29 -12.5 51.5t-34.5 38t-52 23.5t-65 8q-57 0 -114 -28.5t-103 -73.5l-63 92q28 19 62.5 37.5t74.5 32.5t85.5 23t96.5 9q54 0 102 -12.5t83.5 -38
t56 -63.5t20.5 -89z" />
    <glyph glyph-name="glyph107_glyph79.blws" horiz-adv-x="944" 
d="M874 221q0 -42 -17.5 -76t-46.5 -59.5t-66.5 -43.5t-77.5 -29.5t-79.5 -17t-72.5 -5.5q-51 0 -103 7.5t-100 23.5t-90 41t-73.5 60t-49.5 80t-18 101q0 63 25 107.5t66 76t93.5 53t107.5 37.5t107.5 29.5t93.5 29t66 35.5t25 50q0 40 -16.5 67t-45 43.5t-67.5 23.5t-84 7
q-38 0 -71 -4.5t-63 -12.5t-58.5 -19l-57.5 -23v112q55 20 114.5 33t135.5 13q71 0 136 -16.5t114.5 -48.5t78.5 -81t29 -113q0 -50 -25.5 -82.5t-67 -54.5t-94.5 -36t-108 -26.5t-108 -26.5t-94.5 -36t-67 -54.5t-25.5 -82.5q0 -54 21 -92t57.5 -62t85.5 -34.5t104 -10.5
q10 0 20 3l21 6q0 44 15.5 89.5t43.5 82t68 59.5t88 23q63 0 97 -37.5t34 -108.5zM586 -203q0 -21 -8 -39t-21.5 -31.5t-31.5 -21t-39 -7.5t-39 8t-31.5 21.5t-21.5 31.5t-8 38q0 42 29 71t71 29t71 -28t29 -70v-2zM893 -536q0 -55 -17 -95t-47 -68t-70 -45.5t-85.5 -27
t-94 -13t-95.5 -3.5q-71 0 -149.5 18.5t-154.5 50t-145.5 73t-122.5 88.5l27 121q59 -56 124.5 -101.5t135 -77.5t141 -49.5t142.5 -17.5q46 0 94.5 8.5t88.5 26t65.5 43t25.5 59.5q0 29 -12.5 51.5t-34.5 38t-52 23.5t-65 8q-57 0 -114 -28.5t-103 -73.5l-63 92
q28 19 62.5 37.5t74.5 32.5t85.5 23t96.5 9q54 0 102 -12.5t83.5 -38t56 -63.5t20.5 -89z" />
    <glyph glyph-name="glyph390" horiz-adv-x="1276" 
d="M1014 0v164l-390 -242l-99 103l489 236v421q0 32 -5.5 62t-19 52.5t-36 36t-56.5 13.5q-64 0 -95 -32t-43.5 -84.5t-12.5 -119t-1.5 -136.5t-11.5 -136.5t-42 -119t-93 -84.5t-164 -32q-96 0 -160.5 35t-103.5 94.5t-55.5 138.5t-16.5 167q0 79 13 154t44 133t83.5 93
t130.5 35q45 0 76.5 -10t60.5 -24v-107q-28 17 -55 26t-56 9q-56 0 -90.5 -23t-53.5 -64.5t-25.5 -100t-6.5 -130.5q0 -75 9.5 -135.5t33.5 -103t65 -65.5t103 -23q58 0 93.5 20.5t55 56t27.5 83t11 100.5t4 109.5t7.5 109.5t22 100.5t46 83t80.5 56t126 20.5q72 0 119 -20
t75.5 -53.5t40 -78t11.5 -92.5v-696h-135zM456 -63q0 -21 -8 -39t-21.5 -31.5t-31.5 -21t-39 -7.5t-39 8t-31.5 21.5t-21.5 31.5t-8 38q0 42 29 71t71 29t71 -28t29 -70v-2zM1253 -296q0 -55 -17 -95t-47 -68t-70 -45.5t-85.5 -27t-94 -13t-95.5 -3.5q-71 0 -149.5 18.5
t-154.5 50t-145.5 73t-122.5 88.5l27 121q59 -56 124.5 -101.5t135 -77.5t141 -49.5t142.5 -17.5q46 0 94.5 8.5t88.5 26t65.5 43t25.5 59.5q0 29 -12.5 51.5t-34.5 38t-52 23.5t-65 8q-57 0 -114 -28.5t-103 -73.5l-63 92q28 19 62.5 37.5t74.5 32.5t85.5 23t96.5 9
q54 0 102 -12.5t83.5 -38t56 -63.5t20.5 -89z" />
    <glyph glyph-name="glyph220_glyph80.blws" horiz-adv-x="1145" 
d="M840 -338l-326 311l-305 -311h-187l383 338q-49 5 -92 17t-82 29.5t-76 40t-73 48.5l55 115q34 -32 76 -59.5t87 -48t91 -32.5t88 -12q55 0 108 9.5t94.5 29t67 49t25.5 70.5q0 52 -26.5 86.5t-70.5 58.5t-100 41l-114 34t-114 37.5t-100 51t-70.5 74.5t-26.5 109
q0 56 32 96.5t82 67t111 39t119 12.5q34 0 71.5 -4t75 -11.5t73 -18t66.5 -22.5l-32 -98q-51 23 -104 35t-118 12q-44 0 -84.5 -5.5t-72.5 -18.5t-51 -36t-19 -57q0 -42 26.5 -70t69.5 -48t98 -35.5l112 -32.5t112 -39.5t98 -56.5t69.5 -82.5t26.5 -118.5q0 -57 -22.5 -100
t-62 -73.5t-94 -49.5t-118.5 -28l402 -343h-178zM1130 -766q-167 184 -327.5 279.5t-301.5 95.5q-32 0 -63.5 -4t-56 -16t-39.5 -33.5t-15 -55.5q0 -35 19 -60.5t48 -42.5t63 -25.5t63 -8.5q45 0 89.5 14t84.5 35l39 -104q-48 -16 -97.5 -24.5t-99.5 -8.5q-51 0 -112 12
t-113.5 39t-87.5 70.5t-35 105.5q0 55 20.5 97.5t55 71t81 43t97.5 14.5q116 0 216.5 -28t191.5 -78.5t174 -121t164 -155.5zM1077 651q0 -22 -9 -41.5t-24.5 -33.5t-35.5 -22.5t-41 -8.5q-23 0 -42.5 8.5t-33.5 22.5t-22.5 33.5t-8.5 41.5t8.5 42t22.5 35.5t33.5 24.5
t42.5 9t43 -9t35 -24t23.5 -35.5t8.5 -42.5z" />
    <glyph glyph-name="glyph224_glyph80.blws" horiz-adv-x="1206" 
d="M880 -358l-326 311l-305 -311h-187l370 327q-64 11 -123 35.5t-104 65.5t-72 100t-27 139q0 79 39.5 137t104.5 82q-37 11 -67.5 27.5t-53 40.5t-35 56.5t-12.5 74.5q0 45 20.5 83.5t54.5 66.5t76 43.5t86 15.5h207v-98h-153q-32 0 -60 -7t-48.5 -21t-32 -37t-11.5 -54
q0 -37 15 -62.5t41 -41t61 -22.5t76 -7h106v-105h-76q-92 0 -144 -44t-52 -140q0 -63 30.5 -107.5t77 -72.5t100.5 -41t101 -13q69 0 125.5 17t101.5 47.5t79 72t59 89.5q-55 36 -104 77.5t-85.5 88t-58 98.5t-21.5 109q0 54 15 105.5t44.5 91t72 63.5t98.5 24
q81 0 129 -34.5t73.5 -90.5t33 -126t7.5 -140q0 -102 -33 -198t-92.5 -175t-142.5 -135.5t-183 -77.5l383 -327h-178zM1170 -776q-167 184 -327.5 279.5t-301.5 95.5q-32 0 -63.5 -4t-56 -16t-39.5 -33.5t-15 -55.5q0 -35 19 -60.5t48 -42.5t63 -25.5t63 -8.5q45 0 89.5 14
t84.5 35l39 -104q-48 -16 -97.5 -24.5t-99.5 -8.5q-51 0 -112 12t-113.5 39t-87.5 70.5t-35 105.5q0 55 20.5 97.5t55 71t81 43t97.5 14.5q116 0 216.5 -28t191.5 -78.5t174 -121t164 -155.5zM999 651q0 39 -5.5 74.5t-19 62.5t-35.5 43.5t-56 16.5q-32 0 -53 -15.5t-34 -41
t-18.5 -57.5t-5.5 -64q0 -43 17 -86.5t44 -82.5t60 -71.5t65 -54.5q22 66 31.5 137t9.5 139z" />
    <glyph glyph-name="glyph228_glyph80.blws" horiz-adv-x="977" 
d="M840 -338l-326 311l-305 -311h-187l381 336q-69 9 -128 31.5t-101.5 59t-67 87.5t-24.5 117q0 58 25.5 101t67.5 75t96 54.5t110 40.5t110 33t96 31t67.5 35.5t25.5 45.5q0 33 -17 56.5t-45.5 39t-66 22.5t-78.5 7q-54 0 -113 -15.5t-122 -50.5l-15 117q28 10 60.5 19.5
t65.5 16.5t65 11t59 4q66 0 128 -14.5t110 -43t77 -69.5t29 -94q0 -49 -25.5 -83.5t-67 -59.5t-95 -43t-109 -34.5l-108.5 -33.5t-94.5 -39.5t-67 -53.5t-25.5 -75q0 -107 70 -153t215 -46q50 0 97 13t90 36t80 55.5t67 71.5l61 -120q-59 -64 -124 -102t-156 -51l393 -335
h-178zM1170 -776q-167 184 -327.5 279.5t-301.5 95.5q-32 0 -63.5 -4t-56 -16t-39.5 -33.5t-15 -55.5q0 -35 19 -60.5t48 -42.5t63 -25.5t63 -8.5q45 0 89.5 14t84.5 35l39 -104q-48 -16 -97.5 -24.5t-99.5 -8.5q-51 0 -112 12t-113.5 39t-87.5 70.5t-35 105.5
q0 55 20.5 97.5t55 71t81 43t97.5 14.5q116 0 216.5 -28t191.5 -78.5t174 -121t164 -155.5z" />
    <glyph glyph-name="glyph229_glyph80.blws" horiz-adv-x="1001" 
d="M840 -338l-326 311l-305 -311h-187l386 339q-74 10 -136 33t-107 61.5t-70 93.5t-25 128q0 47 26 88t67 75.5t90.5 61t96.5 44.5q-57 29 -93 68t-36 98q0 57 28.5 95.5t76.5 62t109.5 34t127.5 10.5q59 0 117.5 -14t114.5 -33v-121q-51 34 -113.5 49t-118.5 15
q-38 0 -73 -4.5t-62.5 -17t-44 -33.5t-16.5 -54t25.5 -56t67.5 -41.5t96 -34t110 -33.5t110 -41t96 -55.5t67.5 -77.5t25.5 -107q0 -70 -27.5 -121.5t-74.5 -87.5t-109 -57t-131 -29l395 -338h-178zM829 295q0 35 -15.5 62.5t-42 50t-62 40t-76 33t-84.5 29.5t-86 29
q-44 -17 -89.5 -43.5t-83 -59.5t-61.5 -70.5t-24 -76.5q0 -51 26.5 -87t71 -59t103.5 -34t124 -11q59 0 113 11.5t95.5 35.5t66 61.5t24.5 88.5zM1170 -776q-167 184 -327.5 279.5t-301.5 95.5q-32 0 -63.5 -4t-56 -16t-39.5 -33.5t-15 -55.5q0 -35 19 -60.5t48 -42.5
t63 -25.5t63 -8.5q45 0 89.5 14t84.5 35l39 -104q-48 -16 -97.5 -24.5t-99.5 -8.5q-51 0 -112 12t-113.5 39t-87.5 70.5t-35 105.5q0 55 20.5 97.5t55 71t81 43t97.5 14.5q116 0 216.5 -28t191.5 -78.5t174 -121t164 -155.5z" />
    <glyph glyph-name="glyph240_glyph80.blws" horiz-adv-x="954" 
d="M840 -338l-326 311l-305 -311h-187l384 338q-51 5 -96 17.5t-85 30.5t-75 40.5t-68 46.5l55 115q35 -32 73.5 -60t80.5 -48.5t89 -32t99 -11.5q55 0 108.5 9.5t94.5 29t66.5 49t25.5 70.5q0 52 -26.5 86.5t-70.5 59.5t-100 43l-114 36t-114 39.5t-100 53t-70.5 76.5
t-26.5 110q0 45 27 83t72 66t103.5 44t120.5 16q90 0 167 -23.5t140 -54.5l-32 -98l-52.5 25.5t-55 22.5t-61.5 15.5t-73 5.5q-38 0 -75 -6.5t-66 -21t-47.5 -38t-18.5 -57.5q0 -42 26.5 -70t69.5 -48t98 -35.5l112 -32.5t112 -39.5t98 -56.5t69.5 -82.5t26.5 -118.5
q0 -57 -22.5 -100t-62 -73.5t-94 -49.5t-118.5 -28l402 -343h-178zM1170 -776q-167 184 -327.5 279.5t-301.5 95.5q-32 0 -63.5 -4t-56 -16t-39.5 -33.5t-15 -55.5q0 -35 19 -60.5t48 -42.5t63 -25.5t63 -8.5q45 0 89.5 14t84.5 35l39 -104q-48 -16 -97.5 -24.5t-99.5 -8.5
q-51 0 -112 12t-113.5 39t-87.5 70.5t-35 105.5q0 55 20.5 97.5t55 71t81 43t97.5 14.5q116 0 216.5 -28t191.5 -78.5t174 -121t164 -155.5z" />
    <glyph glyph-name="glyph241_glyph80.blws" horiz-adv-x="944" 
d="M840 -338l-326 311l-305 -311h-187l382 337q-63 10 -121.5 32.5t-103.5 60t-72 90t-27 121.5q0 63 25 107.5t66 76t93.5 53t107.5 37.5t107.5 29.5t93.5 29t66 35.5t25 50q0 40 -16.5 67t-45 43.5t-67.5 23.5t-84 7q-38 0 -71 -4.5t-63 -12.5t-58.5 -19l-57.5 -23v112
q55 20 114.5 33t135.5 13q71 0 136 -16.5t114.5 -48.5t78.5 -81t29 -113q0 -50 -25.5 -82.5t-67 -54.5t-94.5 -36t-108 -26.5t-108 -26.5t-94.5 -36t-67 -54.5t-25.5 -82.5q0 -54 21 -92t57.5 -62t85.5 -34.5t104 -10.5q10 0 20 3l21 6q0 44 15.5 89.5t43.5 82t68 59.5
t88 23q63 0 97 -37.5t34 -108.5q0 -48 -22.5 -85t-58.5 -64t-81.5 -44.5t-90.5 -26.5l397 -339h-178zM1170 -776q-167 184 -327.5 279.5t-301.5 95.5q-32 0 -63.5 -4t-56 -16t-39.5 -33.5t-15 -55.5q0 -35 19 -60.5t48 -42.5t63 -25.5t63 -8.5q45 0 89.5 14t84.5 35l39 -104
q-48 -16 -97.5 -24.5t-99.5 -8.5q-51 0 -112 12t-113.5 39t-87.5 70.5t-35 105.5q0 55 20.5 97.5t55 71t81 43t97.5 14.5q116 0 216.5 -28t191.5 -78.5t174 -121t164 -155.5z" />
    <glyph glyph-name="glyph397" horiz-adv-x="1276" 
d="M1014 0v164l-390 -242l-99 103l489 236v421q0 32 -5.5 62t-19 52.5t-36 36t-56.5 13.5q-64 0 -95 -32t-43.5 -84.5t-12.5 -119t-1.5 -136.5t-11.5 -136.5t-42 -119t-93 -84.5t-164 -32q-96 0 -160.5 35t-103.5 94.5t-55.5 138.5t-16.5 167q0 79 13 154t44 133t83.5 93
t130.5 35q45 0 76.5 -10t60.5 -24v-107q-28 17 -55 26t-56 9q-56 0 -90.5 -23t-53.5 -64.5t-25.5 -100t-6.5 -130.5q0 -75 9.5 -135.5t33.5 -103t65 -65.5t103 -23q58 0 93.5 20.5t55 56t27.5 83t11 100.5t4 109.5t7.5 109.5t22 100.5t46 83t80.5 56t126 20.5q72 0 119 -20
t75.5 -53.5t40 -78t11.5 -92.5v-696h-135zM1670 -546q-167 184 -327.5 279.5t-301.5 95.5q-32 0 -63.5 -4t-56 -16t-39.5 -33.5t-15 -55.5q0 -35 19 -60.5t48 -42.5t63 -25.5t63 -8.5q45 0 89.5 14t84.5 35l39 -104q-48 -16 -97.5 -24.5t-99.5 -8.5q-51 0 -112 12t-113.5 39
t-87.5 70.5t-35 105.5q0 55 20.5 97.5t55 71t81 43t97.5 14.5q116 0 216.5 -28t191.5 -78.5t174 -121t164 -155.5z" />
    <glyph glyph-name="ch234_glyph80.blws" horiz-adv-x="954" 
d="M913 256q0 -71 -34.5 -120.5t-94 -80.5t-138.5 -45t-167 -14q-66 0 -122 11t-104.5 30t-90.5 44t-80 54l55 115q35 -32 73.5 -60t80.5 -48.5t89 -32t99 -11.5q55 0 108.5 9.5t94.5 29t66.5 49t25.5 70.5q0 52 -26.5 86.5t-70.5 59.5t-100 43l-114 36t-114 39.5t-100 53
t-70.5 76.5t-26.5 110q0 45 27 83t72 66t103.5 44t120.5 16q90 0 167 -23.5t140 -54.5l-32 -98l-52.5 25.5t-55 22.5t-61.5 15.5t-73 5.5q-38 0 -75 -6.5t-66 -21t-47.5 -38t-18.5 -57.5q0 -42 26.5 -70t69.5 -48t98 -35.5l112 -32.5t112 -39.5t98 -56.5t69.5 -82.5
t26.5 -118.5zM616 -193q0 -21 -8 -39t-21.5 -31.5t-31.5 -21t-39 -7.5t-39 8t-31.5 21.5t-21.5 31.5t-8 38q0 42 29 71t71 29t71 -28t29 -70v-2zM1170 -816q-167 184 -327.5 279.5t-301.5 95.5q-32 0 -63.5 -4t-56 -16t-39.5 -33.5t-15 -55.5q0 -35 19 -60.5t48 -42.5
t63 -25.5t63 -8.5q45 0 89.5 14t84.5 35l39 -104q-48 -16 -97.5 -24.5t-99.5 -8.5q-51 0 -112 12t-113.5 39t-87.5 70.5t-35 105.5q0 55 20.5 97.5t55 71t81 43t97.5 14.5q116 0 216.5 -28t191.5 -78.5t174 -121t164 -155.5z" />
    <glyph glyph-name="glyph107_glyph80.blws" horiz-adv-x="944" 
d="M874 221q0 -42 -17.5 -76t-46.5 -59.5t-66.5 -43.5t-77.5 -29.5t-79.5 -17t-72.5 -5.5q-51 0 -103 7.5t-100 23.5t-90 41t-73.5 60t-49.5 80t-18 101q0 63 25 107.5t66 76t93.5 53t107.5 37.5t107.5 29.5t93.5 29t66 35.5t25 50q0 40 -16.5 67t-45 43.5t-67.5 23.5t-84 7
q-38 0 -71 -4.5t-63 -12.5t-58.5 -19l-57.5 -23v112q55 20 114.5 33t135.5 13q71 0 136 -16.5t114.5 -48.5t78.5 -81t29 -113q0 -50 -25.5 -82.5t-67 -54.5t-94.5 -36t-108 -26.5t-108 -26.5t-94.5 -36t-67 -54.5t-25.5 -82.5q0 -54 21 -92t57.5 -62t85.5 -34.5t104 -10.5
q10 0 20 3l21 6q0 44 15.5 89.5t43.5 82t68 59.5t88 23q63 0 97 -37.5t34 -108.5zM586 -203q0 -21 -8 -39t-21.5 -31.5t-31.5 -21t-39 -7.5t-39 8t-31.5 21.5t-21.5 31.5t-8 38q0 42 29 71t71 29t71 -28t29 -70v-2zM1170 -826q-167 184 -327.5 279.5t-301.5 95.5
q-32 0 -63.5 -4t-56 -16t-39.5 -33.5t-15 -55.5q0 -35 19 -60.5t48 -42.5t63 -25.5t63 -8.5q45 0 89.5 14t84.5 35l39 -104q-48 -16 -97.5 -24.5t-99.5 -8.5q-51 0 -112 12t-113.5 39t-87.5 70.5t-35 105.5q0 55 20.5 97.5t55 71t81 43t97.5 14.5q116 0 216.5 -28
t191.5 -78.5t174 -121t164 -155.5z" />
    <glyph glyph-name="glyph400" horiz-adv-x="1276" 
d="M1014 0v164l-390 -242l-99 103l489 236v421q0 32 -5.5 62t-19 52.5t-36 36t-56.5 13.5q-64 0 -95 -32t-43.5 -84.5t-12.5 -119t-1.5 -136.5t-11.5 -136.5t-42 -119t-93 -84.5t-164 -32q-96 0 -160.5 35t-103.5 94.5t-55.5 138.5t-16.5 167q0 79 13 154t44 133t83.5 93
t130.5 35q45 0 76.5 -10t60.5 -24v-107q-28 17 -55 26t-56 9q-56 0 -90.5 -23t-53.5 -64.5t-25.5 -100t-6.5 -130.5q0 -75 9.5 -135.5t33.5 -103t65 -65.5t103 -23q58 0 93.5 20.5t55 56t27.5 83t11 100.5t4 109.5t7.5 109.5t22 100.5t46 83t80.5 56t126 20.5q72 0 119 -20
t75.5 -53.5t40 -78t11.5 -92.5v-696h-135zM456 -63q0 -21 -8 -39t-21.5 -31.5t-31.5 -21t-39 -7.5t-39 8t-31.5 21.5t-21.5 31.5t-8 38q0 42 29 71t71 29t71 -28t29 -70v-2zM1670 -546q-167 184 -327.5 279.5t-301.5 95.5q-32 0 -63.5 -4t-56 -16t-39.5 -33.5t-15 -55.5
q0 -35 19 -60.5t48 -42.5t63 -25.5t63 -8.5q45 0 89.5 14t84.5 35l39 -104q-48 -16 -97.5 -24.5t-99.5 -8.5q-51 0 -112 12t-113.5 39t-87.5 70.5t-35 105.5q0 55 20.5 97.5t55 71t81 43t97.5 14.5q116 0 216.5 -28t191.5 -78.5t174 -121t164 -155.5z" />
    <glyph glyph-name="glyph401" horiz-adv-x="466" 
d="M415 425l-101 72l8 -71l8 -70q1 -6 0 -10t-3 -3q-2 0 -4 1q-3 0 -5 2h1q-13 5 -26 12t-26 12l17 124l-57 -38.5l-57 -38.5q-9 -7 -13 -7l-2 12l-2 25l-2 25l113 48l-67 23l-67 24l-12 5q0 1 1 2t3 2t3 2.5t3 2.5h-1l25 19l25 19l101 -74q-4 37 -8.5 72t-8.5 72q-1 5 0 8
t7 1q1 -1 1.5 -0.5t2.5 -1.5l26.5 -15.5l26.5 -15.5l-14 -119l56 42t56 41q11 8 13 -2l4 -56l-114 -49l63.5 -24l63.5 -24q14 -4 14 -8l-8 -8zM460 463q1 1 2 1t2 1q1 0 1 1t-12 6l-132 50l117 51l-2 27l-2 27q-2 6 -9 0l-116 -86l14 122l-26.5 15.5l-26.5 15.5l-7 4
q0 -1 -0.5 -3.5t0.5 -5.5l17 -149l-103 75l-23 -17.5l-23 -17.5l-9 -6h1l-2 -2q2 -1 4.5 -1.5t4.5 -1.5l70 -25l70 -24l-117 -50l2 -24.5t2 -23.5l2 -10l2.5 2.5t6.5 4.5l118 80l-17 -127q11 -5 26 -12.5t26 -12.5q0 -1 2 -1q2 -1 4 -1q2 -1 1 11l-16 146l103 -73l42 31z
" />
    <glyph glyph-name="glyph402" horiz-adv-x="1114" 
d="M750 492q43 -22 82 -46.5t68 -53.5t46 -62.5t17 -73.5q0 -71 -35 -120.5t-94 -80.5t-138.5 -45t-167.5 -14q-64 0 -117.5 10t-101.5 28.5t-91.5 44t-86.5 56.5l55 115q34 -32 72.5 -59.5t81 -48t90 -32.5t98.5 -12q55 0 108.5 9.5t94.5 29t66.5 49t25.5 70.5q0 25 -12 46
t-33 39.5t-49.5 35t-62.5 31.5l-144 -99q10 -20 17.5 -45t7.5 -47q0 -53 -51 -53q-19 0 -49.5 10.5t-60 27t-50.5 37.5t-21 42q0 18 9 40t26 31l201 105l-4 2l-443 -68l-22 111l280 43q-35 20 -64 42.5t-51 49t-34 57t-12 66.5q0 55 29.5 93.5t78 63t110 35.5t126.5 11
q34 0 72 -4t75.5 -11.5t73 -18t65.5 -22.5l-32 -98q-51 23 -103.5 35t-117.5 12q-44 0 -85 -5.5t-73 -18.5t-51 -36t-19 -57q0 -25 16.5 -47t44.5 -42t66 -38.5t80 -36.5l500 76l26 -108z" />
    <glyph glyph-name="glyph403" horiz-adv-x="1987" 
d="M1708 0v629h-259q37 -32 52.5 -78t15.5 -94q0 -44 -21.5 -84.5t-61.5 -72t-97.5 -50.5t-128.5 -19q-78 0 -139 20t-103 54.5t-64 82t-22 101.5q0 19 3 39h-158v-41q0 -41 -19 -86t-56.5 -83.5t-92 -63.5t-125.5 -25q-68 0 -122 22t-91.5 59.5t-57.5 87t-20 104.5v270
q0 25 -11 42t-42 17h-88v105h123q37 0 64.5 -13.5t46.5 -36t28.5 -53.5t9.5 -65v-274q0 -36 10.5 -66.5t30.5 -53t50 -35.5t69 -13q78 0 122 45t44 121v299h125v-150h210q41 50 102.5 77t129.5 27h543v191h129v-936h-129zM1390 483q0 50 -17.5 87t-60.5 59q-4 3 -26 5.5
t-53.5 0.5t-67 -9.5t-66 -24.5t-50.5 -45.5t-20 -70.5q0 -37 15 -64.5t39 -46t55.5 -27.5t64.5 -9q34 0 67.5 10.5t60 29t43 45.5t16.5 60z" />
    <glyph glyph-name="glyph404" horiz-adv-x="1927" 
d="M750 584q0 -72 -22 -137.5t-65 -114.5t-107 -78t-148 -29q-45 0 -91 14.5t-87.5 39t-75 57t-54.5 67.5l68 107q31 -82 92 -129t148 -47q49 0 88.5 19t67 52t42.5 79t15 100q0 51 -17 92t-48.5 70t-76 45t-100.5 16t-93.5 -15.5t-74.5 -37.5v112q35 17 74.5 31t93.5 14
q88 0 157 -25t116.5 -69.5t72.5 -104t25 -128.5zM1648 0v629h-259q37 -32 52.5 -78t15.5 -94q0 -44 -21.5 -84.5t-61.5 -72t-97.5 -50.5t-128.5 -19q-78 0 -139 20t-103 54.5t-64 82t-22 101.5q0 58 24 105.5t63.5 81t91 51.5t106.5 18h543v191h129v-936h-129zM1330 483
q0 50 -17.5 87t-60.5 59q-4 3 -26 5.5t-53.5 0.5t-67 -9.5t-66 -24.5t-50.5 -45.5t-20 -70.5q0 -37 15 -64.5t39 -46t55.5 -27.5t64.5 -9q34 0 67.5 10.5t60 29t43 45.5t16.5 60z" />
    <glyph glyph-name="glyph405" horiz-adv-x="1887" 
d="M872 227q-35 -31 -73 -57.5t-80 -46.5t-90.5 -31.5t-104.5 -11.5q-85 0 -161.5 19t-134.5 55t-92 89t-34 122t37.5 117.5t102.5 80.5q-62 20 -100 62t-38 108q0 56 29 99.5t77 73.5t108.5 45.5t123.5 15.5q34 0 63 -3.5t56 -10t53 -15l54 -18.5v-105q-45 22 -90 33.5
t-101 11.5q-50 0 -93 -7.5t-74.5 -23.5t-49.5 -41.5t-18 -62.5q0 -28 12 -49t32.5 -35.5t46.5 -21.5t54 -7h266v-108h-231q-38 0 -71 -11t-58.5 -31t-40 -47.5t-14.5 -60.5q0 -41 26.5 -71.5t67 -50.5t89 -29.5t93.5 -9.5q85 0 167 39t151 107q-52 64 -52 150q0 58 24 105.5
t63.5 81t91 51.5t106.5 18h543v191h129v-936h-129v629h-259q37 -32 52.5 -78t15.5 -94q0 -44 -21.5 -84.5t-61.5 -72t-97.5 -50.5t-128.5 -19q-76 0 -135 18.5t-101 50.5v-73zM1290 483q0 50 -17.5 87t-60.5 59q-3 3 -25.5 5.5t-54 0.5t-67 -9.5t-66 -24.5t-50.5 -45.5
t-20 -70.5q0 -37 15 -64.5t39 -46t55.5 -27.5t64.5 -9q34 0 67.5 10.5t60 29t43 45.5t16.5 60z" />
    </font>
</defs>
</svg>
