<svg xmlns="http://www.w3.org/2000/svg" width="48.184" height="48.183" viewBox="0 0 48.184 48.183">
    <defs>
        <style>
            .cls-1,.cls-2{fill:#fff;fill-rule:evenodd}.cls-2{fill:#006cff}.cls-3{filter:url(#Bubble_Solid_3_)}
        </style>
        <filter id="Bubble_Solid_3_" width="48.184" height="48.183" x="0" y="0" filterUnits="userSpaceOnUse">
            <feOffset dy="2"/>
            <feGaussianBlur result="blur" stdDeviation="3"/>
            <feFlood flood-opacity=".161"/>
            <feComposite in2="blur" operator="in"/>
            <feComposite in="SourceGraphic"/>
        </filter>
    </defs>
    <g id="Group_27581" data-name="Group 27581" transform="translate(9 7)">
        <g class="cls-3" transform="translate(-9 -7)">
            <path id="Bubble_Solid_3_2" d="M30.092 11.5C21.589 11.5 15 17.728 15 26.139a14.322 14.322 0 0 0 4.74 10.828 1.216 1.216 0 0 1 .407.859l.082 2.684a1.209 1.209 0 0 0 1.694 1.069l2.994-1.321a1.2 1.2 0 0 1 .8-.061 16.414 16.414 0 0 0 4.37.58c8.5 0 15.092-6.228 15.092-14.639S38.594 11.5 30.092 11.5z" class="cls-1" data-name="Bubble_Solid_3_" transform="translate(-6 -4.5)"/>
        </g>
        <path id="Bolt_4_" d="M209.846 354.852l4.433-7.033a2.266 2.266 0 0 1 3.273-.6l3.525 2.645a.906.906 0 0 0 1.09 0l4.761-3.614a.716.716 0 0 1 1.038.954l-4.43 7.03a2.266 2.266 0 0 1-3.273.6l-3.525-2.645a.906.906 0 0 0-1.09 0l-4.764 3.617a.716.716 0 0 1-1.038-.954z" class="cls-2" transform="translate(-203.814 -335.932)"/>
    </g>
</svg>
