<svg xmlns="http://www.w3.org/2000/svg" width="49.859" height="44.722" viewBox="0 0 49.859 44.722">
    <defs>
        <style>
            .cls-1{fill:#c8daea}.cls-2{fill:#a9c9dd}.cls-3{fill:url(#linear-gradient)}.cls-4{filter:url(#Path_131755)}.cls-5{filter:url(#Path_131753)}
        </style>
        <filter id="Path_131753" width="39.485" height="41.194" x="8.077" y="1.909" filterUnits="userSpaceOnUse">
            <feOffset dy="3"/>
            <feGaussianBlur result="blur" stdDeviation="3"/>
            <feFlood flood-opacity=".161"/>
            <feComposite in2="blur" operator="in"/>
            <feComposite in="SourceGraphic"/>
        </filter>
        <linearGradient id="linear-gradient" x1=".66" x2=".851" y1=".437" y2=".802" gradientUnits="objectBoundingBox">
            <stop offset="0" stop-color="#eff7fc"/>
            <stop offset="1" stop-color="#fff"/>
        </linearGradient>
        <filter id="Path_131755" width="49.859" height="44.722" x="0" y="0" filterUnits="userSpaceOnUse">
            <feOffset dy="3"/>
            <feGaussianBlur result="blur-2" stdDeviation="3"/>
            <feFlood flood-opacity=".161"/>
            <feComposite in2="blur-2" operator="in"/>
            <feComposite in="SourceGraphic"/>
        </filter>
    </defs>
    <g id="Group_27587" data-name="Group 27587" transform="translate(9 6)">
        <g class="cls-5" transform="translate(-9 -6)">
            <path id="Path_131753-2" d="M85.906 103.194c-.949 0-.788-.358-1.115-1.262L82 92.746 103.485 80" class="cls-1" data-name="Path 131753" transform="translate(-64.92 -72.09)"/>
        </g>
        <path id="Path_131754" d="M98 151.876a1.877 1.877 0 0 0 1.465-.732l3.906-3.8-4.871-2.937" class="cls-2" data-name="Path 131754" transform="translate(-86.017 -126.773)"/>
        <g class="cls-4" transform="translate(-9 -6)">
            <path id="Path_131755-2" d="M61.4 89.815l11.807 8.723c1.347.743 2.32.358 2.655-1.251l4.806-22.648c.492-1.973-.752-2.868-2.041-2.282L50.406 83.239c-1.926.773-1.915 1.847-.351 2.326l7.242 2.26 16.767-10.577c.792-.48 1.518-.222.922.307" class="cls-3" data-name="Path 131755" transform="translate(-39.92 -66.18)"/>
        </g>
    </g>
</svg>
