<svg width="36" height="36" viewBox="0 0 36 36" xmlns="http://www.w3.org/2000/svg"><title>Artboard 2</title><g fill-rule="nonzero" fill="none"><path d="M21.5 32.7L11.5 21s-4 0-5.5-.2c-4.2-.3-6-3-5.8-7 0 0 0-5.4.2-8 .2-3.7 2-5 6-4.8 3 .2 6.7.7 8.6 1 2.4.6 4 1.7 5 5l1.6 8.2c.4 2.3.3 4.8-3 5.4l3 12" fill="#e1306c"/><path d="M12 16.3c-1.6 0-3-1.2-3.2-2.7 0-1.4-.4-5.7-.5-6.6 0-1.3 1-2 2.4-1.8 1.2.2 2.6 1 2.7 2.4l1 6.4c0 1.4-1 2.4-2.5 2.3zm7.6-1L18.4 9c-.5-2.5-.6-4.7-3.8-5.3-1.2-.2-6-1-9-1-2.8.2-3 2.5-3 4-.2 1.8 0 6 0 7.2 0 2.6 1 3.5 1.7 4 1 .6 1.7.7 4 .7h4.2l5.3 7-2.2-7H18c1.7-.6 1.8-2 1.6-3.4z" fill="#FFF"/><g fill="#e1306c"><path d="M31 29l-2.4-2.6c-.6-.5-1.6-.5-2.2 0-.5.6-.5 1.6 0 2.2L29 31l-2.6 2.4c-.5.6-.5 1.6 0 2.2.6.5 1.6.5 2.2 0L31 33l2.4 2.6c.6.5 1.6.5 2.2 0 .5-.6.5-1.6 0-2.2L33 31l2.6-2.4c.5-.6.5-1.6 0-2.2-.6-.5-1.6-.5-2.2 0L31 29z"/></g></g></svg>
