<svg xmlns="http://www.w3.org/2000/svg" width="44.559" height="32.407" viewBox="0 0 44.559 32.407">
  <g id="Group_27039" data-name="Group 27039" transform="translate(0 1.738)">
    <path id="Path_131768" data-name="Path 131768" d="M-11.125-11.652h-5.12l-1.97,15.981h-3.344l1.944-15.981H-24.76l.337-2.761h13.648Zm3.435,7.8a8.012,8.012,0,0,0,.311,2.307A5.076,5.076,0,0,0-6.472.227,4.012,4.012,0,0,0-5.014,1.354a4.66,4.66,0,0,0,1.964.4,5.711,5.711,0,0,0,2.566-.57A5.7,5.7,0,0,0,1.486-.428,7.562,7.562,0,0,0,2.75-2.936,11.275,11.275,0,0,0,3.2-6.221a7.859,7.859,0,0,0-.318-2.307,5.167,5.167,0,0,0-.92-1.776A4.091,4.091,0,0,0,.488-11.445a4.607,4.607,0,0,0-1.957-.4,5.641,5.641,0,0,0-2.547.57A5.656,5.656,0,0,0-5.98-9.656,7.707,7.707,0,0,0-7.243-7.129,11.292,11.292,0,0,0-7.69-3.849ZM-.9,4.225a10.076,10.076,0,0,1-2.527.311A7.818,7.818,0,0,1-6.641,3.9a7.136,7.136,0,0,1-2.43-1.75A7.668,7.668,0,0,1-10.607-.48a9.889,9.889,0,0,1-.531-3.292,12.443,12.443,0,0,1,.343-2.962A11.177,11.177,0,0,1-9.81-9.345a10.321,10.321,0,0,1,1.542-2.177,9.7,9.7,0,0,1,2.022-1.665,9.5,9.5,0,0,1,2.43-1.063,10.12,10.12,0,0,1,2.761-.369,7.818,7.818,0,0,1,3.214.635,7.069,7.069,0,0,1,2.424,1.75A7.712,7.712,0,0,1,6.113-9.6a9.946,9.946,0,0,1,.531,3.3,12.512,12.512,0,0,1-.318,2.851A11.17,11.17,0,0,1,5.413-.914,10.567,10.567,0,0,1,3.981,1.225,9.332,9.332,0,0,1,2.1,2.89L5.841,8.01H3.093a3.173,3.173,0,0,1-1.056-.162,1.719,1.719,0,0,1-.8-.6Z" transform="translate(24.76 22.66)" fill="#fff"/>
    <path id="Path_131767" data-name="Path 131767" d="M3.195-3.309H-2.374L-3.1,2.6H-5.887l.728-5.912H-10.7l.314-2.528h5.541l.728-5.884h2.77l-.728,5.884h5.6Z" transform="translate(40.808 10.182)" fill="#ffbf00" stroke="#000" stroke-width="0.4"/>
  </g>
</svg>