<svg width="24" height="24" viewBox="0 0 24 24" fill="none" xmlns="http://www.w3.org/2000/svg">
<path d="M19.2 3.80078L4.8 3.80078C3.256 3.80078 2 5.05678 2 6.60078L2 17.4008C2 18.9448 3.256 20.2008 4.8 20.2008L19.2 20.2008C20.744 20.2008 22.001 18.9448 22.001 17.4008L22.001 6.60078C22 5.05678 20.744 3.80078 19.2 3.80078ZM4.8 5.80078L19.2 5.80078C19.477 5.80078 19.715 5.95878 19.859 6.17878L12 11.6808L4.139 6.17678C4.281 5.95578 4.518 5.80078 4.8 5.80078ZM19.2 18.2008L4.8 18.2008C4.359 18.2008 4 17.8428 4 17.4008L4 8.52078L11.427 13.7198C11.599 13.8408 11.8 13.9008 12 13.9008C12.2 13.9008 12.401 13.8398 12.573 13.7198L20 8.52078L20 17.4008C20 17.8348 19.633 18.2008 19.2 18.2008Z" fill="#ffffff"/>
</svg>
