<svg width="116" height="28" viewBox="0 0 116 28" xmlns="http://www.w3.org/2000/svg" xmlns:xlink="http://www.w3.org/1999/xlink"><title>Artboard</title><defs><path d="M8 4.7H6L3.3 14c-.2.4 0 .8.5.8 1 0 1.5-.5 2.2-1.8l.5.3C5.7 15 4.2 16 2.5 16 1 16 0 14.4.6 12.2L3 4.7H1l.3-.7h2l1-3.8h3.3L6.3 4h2s0 .7-.2.7z" id="a"/><path d="M10.2 18.8c-1.4 0-2.3-1-2.3-2 0-2.3 2-4.7 2-7 0-.7-.2-1.2-.8-1.2C8 8.6 7 10 5 13.2l-1.7 5.4h-3L5.7.8H4l.4-.7h4.9L5.8 10.8c1.8-3.3 3.5-4 5-4C12 7 13 8 13 9.4c0 3-2.3 5.8-2.3 7.3 0 .6.2 1 .8 1 .8 0 1.5-.5 2.2-1.7h.6c-1 2-2.5 2.8-4 2.8z" id="c"/><path d="M7 1C5.3 1 4.6 3.2 4 6H4C7.6 6 8 4.2 8 2.3 8 1.4 7.7 1 7 1zM4 6.5h-.3c-.3 1-.5 2.2-.5 3.2 0 1.3.3 2 1.4 2 1.8 0 3-1 4.2-2.2l.4.4c-1.3 1.4-2.8 2.3-4.7 2.3C2 12.3.3 10.5.3 7.8c0-4 3.3-7.5 7-7.5 2 0 3.4 1.2 3.4 2.7C10.7 5 8 6.5 4 6.5z" id="e"/><path d="M7.5 1c-.5 0-1 .3-1.3.6-2 1.5-3 6-3 8.3 0 1.3.2 1.6 1 1.6 1 0 2.5-1.5 3.6-4.4L9.2 3c0-1-.7-2-1.7-2zm-1 20.2h-3L7 9.8c-.5 1.6-2 2.6-3.4 2.6-2 0-3.5-1.7-3.5-3.8C0 4.6 3.3.4 7.8.4c.7 0 1.7.5 2 1.4l.5-1 3-.5-6.6 21z" id="g"/><path d="M10.4 10.3c-.2.5 0 .8.6.8 1 0 1.4-.3 2-1.6l.7.2c-1 2-2.4 2.8-3.8 2.8-1.6 0-3-1.2-2.2-4-1.8 3.3-3.3 4-4.7 4-1.4 0-2.4-1-2.4-2.5C.6 7 3 3.7 3 2.3c0-.6-.3-1-.7-1-.4 0-1 .7-1.5 1.6l-.6-.2C1 1.3 2.2.4 3.6.4s2 .8 2 2c0 2.3-2 4.7-2 7 0 .8.2 1.3 1 1.3 1.2 0 2.2-1.4 4-4.6L10.3.7h3.2l-3 9.7z" id="i"/><path d="M3 12.4c-1.4 0-2.2-1-2.2-2.3 0-2.5 2.5-5.5 2.5-7.5 0-.7-.3-1-.8-1-.4 0-1 .8-1.5 1.5l-.6-.2C1 1.4 2.4.4 4 .4c1.4 0 2.2 1 2.2 2 0 2.8-2.6 6-2.6 7.7 0 .7.2 1.2.8 1.2 1 0 1.5-.5 2.2-1.8l.6.3c-.7 1.5-2.3 2.7-4 2.7z" id="k"/><path d="M10.2 12.4c-1.5 0-2.3-1-2.3-2C8 8 10 5.5 10 3c0-.6-.2-1-.8-1C7.8 2 6.8 3.3 5 6.6L3.3 12h-3L3 3c.4-.7 0-1.2-.4-1.2C2 1.6 1.6 2 1 3l-.6-.2C1 1.4 2.4.4 4 .4s2.6 1.3 1.8 4c1.8-3.3 3.5-4 5-4 1.4 0 2.2 1 2.2 2.4 0 3-2.3 6-2.3 7.3 0 .7.2 1.2.8 1.2.8 0 1.4-.5 2.2-1.8l.6.3c-1 1.7-2.5 2.7-4 2.7z" id="m"/><path d="M8 4.7H6L3 14c0 .5 0 1 .5 1 1 0 1.5-.6 2.2-2l.7.3c-1 2-2.4 2.7-4 2.7-1.7 0-2.7-1.5-2-3.7l2.4-7.6h-2l.3-.7h2L4.2.3h3.2L6 4h2.2l-.2.7z" id="o"/></defs><g fill="none" fill-rule="evenodd"><g transform="translate(0 2.864)"><mask id="b" fill="#fff"><use xlink:href="#a"/></mask><path fill="#e1306c" fill-rule="nonzero" mask="url(#b)" d="M-1.7-2h12v20h-12"/></g><g transform="translate(7.407)"><mask id="d" fill="#fff"><use xlink:href="#c"/></mask><path fill="#e1306c" fill-rule="nonzero" mask="url(#d)" d="M-1.8-2h18v23h-18"/></g><g transform="translate(22.634 6.545)"><mask id="f" fill="#fff"><use xlink:href="#e"/></mask><path fill="#e1306c" fill-rule="nonzero" mask="url(#f)" d="M-1.7-1.7h14.4v16H-1.7"/></g><g transform="translate(39.095 5.727)"><mask id="h" fill="#fff"><use xlink:href="#g"/></mask><path fill="#e1306c" fill-rule="nonzero" mask="url(#h)" d="M-2-1.8h17.2v25H-2"/></g><g transform="translate(53.086 5.727)"><mask id="j" fill="#fff"><use xlink:href="#i"/></mask><path fill="#e1306c" fill-rule="nonzero" mask="url(#j)" d="M-1.8-1.7h17.6v16H-1.8"/></g><g transform="translate(67.9 5.727)"><mask id="l" fill="#fff"><use xlink:href="#k"/></mask><path fill="#e1306c" fill-rule="nonzero" mask="url(#l)" d="M-1.7-1.7h11v16h-11"/></g><g transform="translate(76.132 5.727)"><mask id="n" fill="#fff"><use xlink:href="#m"/></mask><path fill="#e1306c" fill-rule="nonzero" mask="url(#n)" d="M-2-1.7h18.3v16H-2"/></g><g transform="translate(91.77 2.045)"><mask id="p" fill="#fff"><use xlink:href="#o"/></mask><path fill="#e1306c" fill-rule="nonzero" mask="url(#p)" d="M-2-2h12.2v20h-12"/></g><g fill-rule="nonzero" fill="#e1306c"><path d="M109 14l-2.4-2.6c-.6-.5-1.6-.5-2.2 0-.5.6-.5 1.6 0 2.2L107 16l-2.6 2.4c-.5.6-.5 1.6 0 2.2.6.5 1.6.5 2.2 0L109 18l2.4 2.6c.6.5 1.6.5 2.2 0 .5-.6.5-1.6 0-2.2L111 16l2.6-2.4c.5-.6.5-1.6 0-2.2-.6-.5-1.6-.5-2.2 0L109 14z"/></g></g></svg>
