<?xml version="1.0" standalone="no"?>
<!DOCTYPE svg PUBLIC "-//W3C//DTD SVG 1.1//EN" "http://www.w3.org/Graphics/SVG/1.1/DTD/svg11.dtd">
<svg xmlns="http://www.w3.org/2000/svg"><metadata>This SVG WebFont was generated by YouWorkForThem.
Copyright (c) Mark Simonson, 2005. All rights reserved.</metadata><defs><font horiz-adv-x="972" id="ywftsvg"><font-face ascent="1618" bbox="-651 -686 1985 2189" cap-height="1366" descent="-430" font-family="" font-stretch="condensed" font-weight="500" panose-1="2 0 5 6 3 0 0 2 0 4" underline-position="0" underline-thickness="0" unicode-range="U+000D-FB04" units-per-em="2048" x-height="989"/><missing-glyph d="M137 -184v1724h719v-1724h-719zM791 1479h-590v-1602h590v1602z" horiz-adv-x="993"/><glyph d="M166 0v836h-129v153h129v107q0 135 69.5 212.5t184.5 77.5q82 0 139 -30l-39 -135q-29 16 -63 16q-53 0 -84 -37t-31 -104v-107h166v-153h-166v-836h-176zM707 0v836h-129v153h129v107q0 135 69.5 212.5t184.5 77.5q82 0 139 -32l-39 -135q-25 18 -66 18q-53 0 -82.5 -37 t-29.5 -104v-107h166v-153h-166v-836h-176zM1296 1155q-47 0 -80.5 33t-33.5 80t33.5 80.5t80.5 33.5t81 -33.5t34 -80.5t-34 -80t-81 -33zM1384 989v-1106q0 -139 -66.5 -211.5t-191.5 -72.5q-53 0 -96 12l23 149q25 -8 49 -8q106 0 106 131v1106h176z" glyph-name="uniE004" horiz-adv-x="1511" unicode="ffj"/><glyph d="M166 0v836h-129v153h129v107q0 135 69.5 212.5t184.5 77.5q82 0 139 -32l-39 -135q-25 18 -65 18q-53 0 -83 -37t-30 -104v-107h166v-153h-166v-836h-176zM756 1155q-47 0 -81 33t-34 80t34 80.5t81 33.5t80.5 -33.5t33.5 -80.5t-33.5 -80t-80.5 -33zM844 989v-1106 q0 -139 -66.5 -211.5t-191.5 -72.5q-53 0 -97 12l23 149q25 -8 49 -8q106 0 107 131v1106h176z" glyph-name="uniE005" horiz-adv-x="970" unicode="fj"/><glyph d="M166 0v836h-129v153h129v107q0 135 69.5 212.5t184.5 77.5q82 0 139 -30l-39 -135q-29 16 -63 16q-53 0 -84 -37t-31 -104v-107h166v-153h-166v-836h-176zM707 0v836h-129v153h129v107q0 135 69.5 212.5t184.5 77.5q80 0 139 -30l-39 -135q-29 16 -64 16q-53 0 -83.5 -37 t-30.5 -104v-107h166v-153h-166v-836h-176z" glyph-name="uniFB00" horiz-adv-x="1081" unicode="ff"/><glyph d="M166 0v836h-129v153h129v107q0 135 69.5 212.5t184.5 77.5q82 0 139 -32l-39 -135q-25 18 -65 18q-53 0 -83 -37t-30 -104v-107h166v-153h-166v-836h-176zM756 1155q-47 0 -81 33t-34 80t34 80.5t81 33.5t80.5 -33.5t33.5 -80.5t-33.5 -80t-80.5 -33zM668 0v989h176v-989 h-176z" glyph-name="uniFB01" horiz-adv-x="970" unicode="fi"/><glyph d="M166 0v836h-129v153h129v107q0 135 69.5 212.5t184.5 77.5q82 0 139 -32l-39 -135q-25 18 -65 18q-53 0 -83 -37t-30 -104v-107h166v-153h-166v-836h-176zM668 0v1366h176v-1366h-176z" glyph-name="uniFB02" horiz-adv-x="970" unicode="fl"/><glyph d="M166 0v836h-129v153h129v107q0 135 69.5 212.5t184.5 77.5q82 0 139 -30l-39 -135q-29 16 -63 16q-53 0 -84 -37t-31 -104v-107h166v-153h-166v-836h-176zM707 0v836h-129v153h129v107q0 135 69.5 212.5t184.5 77.5q82 0 139 -32l-39 -135q-25 18 -66 18q-53 0 -82.5 -37 t-29.5 -104v-107h166v-153h-166v-836h-176zM1296 1155q-47 0 -80.5 33t-33.5 80t33.5 80.5t80.5 33.5t81 -33.5t34 -80.5t-34 -80t-81 -33zM1208 0v989h176v-989h-176z" glyph-name="uniFB03" horiz-adv-x="1511" unicode="ffi"/><glyph d="M166 0v836h-129v153h129v107q0 135 69.5 212.5t184.5 77.5q82 0 139 -30l-39 -135q-29 16 -63 16q-53 0 -84 -37t-31 -104v-107h166v-153h-166v-836h-176zM707 0v836h-129v153h129v107q0 135 69.5 212.5t184.5 77.5q82 0 139 -32l-39 -135q-25 18 -66 18q-53 0 -82.5 -37 t-29.5 -104v-107h166v-153h-166v-836h-176zM1208 0v1366h176v-1366h-176z" glyph-name="uniFB04" horiz-adv-x="1511" unicode="ffl"/><glyph d="M166 0v836h-129v153h129v107q0 135 69.5 212.5t184.5 77.5q82 0 139 -32l-39 -135q-25 18 -65 18q-53 0 -83 -37t-30 -104v-107h166v-153h-166v-836h-176zM668 0v1366h176v-514q43 78 111.5 120t144.5 42q166 0 262 -142.5t96 -377.5q0 -238 -96 -378.5t-262 -140.5 q-76 0 -144.5 43t-111.5 117v-135h-176zM844 279q29 -61 87 -104.5t120 -43.5q111 0 168 101.5t57 261t-57.5 262t-167.5 102.5q-61 0 -120 -44t-87 -107v-428z" glyph-name="f_b.liga" horiz-adv-x="1538" unicode="fb"/><glyph d="M166 0v836h-129v153h129v107q0 135 69.5 212.5t184.5 77.5q82 0 139 -32l-39 -135q-25 18 -65 18q-53 0 -83 -37t-30 -104v-107h166v-153h-166v-836h-176zM1210 0v692q0 166 -149 166q-66 0 -125 -43t-92 -104v-711h-176v1366h176v-514q45 66 124 114t165 48 q254 0 253 -266v-748h-176z" glyph-name="f_h.liga" horiz-adv-x="1513" unicode="fh"/><glyph d="M166 0v836h-129v153h129v107q0 135 69.5 212.5t184.5 77.5q82 0 139 -32l-39 -135q-25 18 -65 18q-53 0 -83 -37t-30 -104v-107h166v-153h-166v-836h-176zM1225 0l-252 430l-129 -170v-260h-176v1366h176v-889l379 512h207l-336 -444l338 -545h-207z" glyph-name="f_k.liga" horiz-adv-x="1456" unicode="fk"/><glyph d="M137 -184v1724h719v-1724h-719zM791 1479h-590v-1602h590v1602z" glyph-name=".notdef" horiz-adv-x="993"/><glyph glyph-name="glyph1" horiz-adv-x="0"/><glyph glyph-name="glyph2" horiz-adv-x="681"/><glyph glyph-name="glyph3" horiz-adv-x="0"/><glyph glyph-name="glyph3" horiz-adv-x="0"/><glyph glyph-name="space" horiz-adv-x="438" unicode=" "/><glyph d="M168 395l-35 971h215l-33 -971h-147zM117 102q0 51 35.5 87t87 36t88.5 -35.5t37 -87.5q0 -49 -37 -85.5t-88.5 -36.5t-87 36.5t-35.5 85.5z" glyph-name="exclam" horiz-adv-x="481" unicode="!"/><glyph d="M166 829q-59 422 -60 455q0 41 30 71.5t73 30.5q41 0 71.5 -30.5t30.5 -71.5l-59 -455h-86zM479 829q-61 422 -61 455q0 41 29.5 71.5t72.5 30.5t73 -30.5t30 -71.5l-60 -455h-84z" glyph-name="quotedbl" horiz-adv-x="729" unicode="&quot;"/><glyph d="M422 0l106 367h-180l-102 -367h-140l105 367h-174l33 118h176l110 394h-176l31 118h180l103 369h139l-105 -369h179l104 369h137l-104 -369h174l-31 -118h-178l-111 -394h181l-31 -118h-184l-103 -367h-139zM672 879h-178l-109 -394h174z" glyph-name="numbersign" horiz-adv-x="1054" unicode="#"/><glyph d="M911 365q0 -145 -86 -250t-250 -129v-191h-139v180q-231 14 -379 172l103 152q113 -129 276 -147v462q-80 39 -129 69t-103 78t-80 111.5t-26 145.5q0 143 93.5 242.5t244.5 121.5v191h139v-189q190 -18 310 -141l-99 -147q-86 92 -211 110v-424q76 -35 124.5 -64.5 t102.5 -78.5t81.5 -117.5t27.5 -156.5zM297 1028q0 -53 36 -91t103 -73v330q-63 -14 -101 -58.5t-38 -107.5zM571 176q72 18 107 66.5t35 109.5q0 111 -142 183v-359z" glyph-name="dollar" horiz-adv-x="978" unicode="$"/><glyph d="M57 1047q0 147 81 243t212 96t213 -96t82 -243q0 -145 -82 -240.5t-213 -95.5t-212 95.5t-81 240.5zM264 0l717 1366h109l-721 -1366h-105zM514 1047q0 98 -45 160.5t-119 62.5t-118 -62.5t-44 -160.5q0 -96 45.5 -159t116.5 -63q74 0 119 64t45 158zM700 311 q0 147 81 243.5t212 96.5t213 -96t82 -244q0 -145 -82 -240.5t-213 -95.5t-212 95.5t-81 240.5zM1157 311q0 98 -45 161t-118.5 63t-118 -62.5t-44.5 -161.5q0 -96 44.5 -158.5t118 -62.5t118.5 62.5t45 158.5z" glyph-name="percent" horiz-adv-x="1345" unicode="%"/><glyph d="M1053 0h-213q-12 16 -46 57t-53 66q-137 -147 -319 -148q-156 0 -255 99.5t-99 275.5q0 143 65.5 235.5t181.5 172.5q-88 186 -88 301q0 143 84 235t213 92q117 0 195 -74.5t78 -197.5q0 -57 -17.5 -109.5t-39 -85t-67.5 -73.5t-72 -60.5t-85 -58.5q49 -86 115 -178 q39 -59 112 -162q63 127 105 287l145 -64q-70 -213 -151 -350q78 -100 211 -260zM397 1057q0 -88 58 -209q90 61 137 119.5t47 140.5q0 70 -30.5 107.5t-80.5 37.5q-59 0 -95 -51t-36 -145zM446 119q106 0 205 119q-104 137 -145 200q-61 88 -121 193q-133 -119 -133 -271 q0 -111 56 -176t138 -65z" glyph-name="ampersand" horiz-adv-x="1079" unicode="&amp;"/><glyph d="M166 829q-59 422 -60 455q0 41 30 71.5t73 30.5q41 0 71.5 -30.5t30.5 -71.5l-59 -455h-86z" glyph-name="quotesingle" horiz-adv-x="417" unicode="'"/><glyph d="M342 -408q-250 410 -250 905.5t250 905.5l117 -68q-174 -414 -174 -837q0 -426 174 -836z" glyph-name="parenleft" horiz-adv-x="497" unicode="("/><glyph d="M213 498q0 426 -176 837l115 68q254 -406 254 -905.5t-254 -905.5l-115 70q176 408 176 836z" glyph-name="parenright" horiz-adv-x="497" unicode=")"/><glyph d="M283 788l12 232l-197 -125l-49 86l207 106l-207 105l49 88l197 -127l-12 233h100l-10 -233l194 127l51 -88l-206 -105l206 -106l-51 -86l-194 125l10 -232h-100z" glyph-name="asterisk" horiz-adv-x="665" unicode="*"/><glyph d="M514 631v-371h-127v371h-328v119h328v356h127v-356h328v-119h-328z" glyph-name="plus" horiz-adv-x="901" unicode="+"/><glyph d="M201 -264l-84 67q49 33 89 88.5t48 104.5q-8 -4 -29 -4q-47 0 -77.5 31.5t-30.5 81t34.5 85t86.5 35.5q57 0 97 -44t40 -122q0 -96 -48 -182t-126 -141z" glyph-name="comma" horiz-adv-x="481" unicode=","/><glyph d="M61 420v151h426v-151h-426z" glyph-name="hyphen" horiz-adv-x="548" unicode="-"/><glyph d="M117 102.5q0 51.5 36.5 87t88.5 35.5q49 0 86 -35.5t37 -87t-37 -87t-86 -35.5q-51 0 -88 35.5t-37 87z" glyph-name="period" horiz-adv-x="481" unicode="."/><glyph d="M0 -41l393 1448h133l-393 -1448h-133z" glyph-name="slash" horiz-adv-x="526" unicode="/"/><glyph d="M88 682q0 133 24.5 253t75 224.5t139.5 165.5t205.5 61t204.5 -61t138.5 -165.5t75 -224.5t24.5 -253q0 -131 -24.5 -252t-74 -225.5t-138.5 -167t-205.5 -62.5t-205.5 62.5t-139.5 167t-75 225.5t-24.5 252zM776 682q0 530 -244 530q-246 0 -245 -530q0 -532 245 -532 q244 0 244 532z" glyph-name="zero" horiz-adv-x="1062" unicode="0"/><glyph d="M352 0v1112l-211 -223l-114 121l348 356h170v-1366h-193z" glyph-name="one" horiz-adv-x="684" unicode="1"/><glyph d="M102 0v158q385 420 494 566t109 277q0 96 -60.5 153.5t-148.5 57.5q-182 0 -289 -165l-123 118q152 221 414 221q174 0 289.5 -104t115.5 -281q0 -154 -107.5 -316.5t-410.5 -512.5h524v-172h-807z" glyph-name="two" horiz-adv-x="1019" unicode="2"/><glyph d="M53 201l125 118q109 -170 293 -169q115 0 175.5 63t60.5 174q0 225 -250 225q-94 0 -113 -2v176q18 -2 109 -2q106 0 170.5 53.5t64.5 155.5q0 106 -60.5 162.5t-162.5 56.5q-164 0 -277 -153l-116 110q66 102 171 159.5t234 57.5q182 0 294 -94t112 -270 q0 -119 -73 -206t-175 -109q102 -16 184 -108.5t82 -227.5q0 -176 -113.5 -286t-310.5 -110q-143 0 -253 63t-171 163z" glyph-name="three" horiz-adv-x="993" unicode="3"/><glyph d="M590 0v334h-545v166l490 866h249v-860h146v-172h-146v-334h-194zM590 1159l-367 -653h367v653z" glyph-name="four" horiz-adv-x="976" unicode="4"/><glyph d="M98 197l125 120q104 -168 287 -167q106 0 169.5 79.5t63.5 192.5q0 133 -59 204.5t-164 71.5q-141 0 -239 -123l-144 46v745h731v-172h-536v-442q92 117 252 116q156 0 257 -116.5t101 -323.5q0 -199 -118.5 -326t-307.5 -127q-273 1 -418 222z" glyph-name="five" horiz-adv-x="1026" unicode="5"/><glyph d="M88 682q0 197 50 351.5t162 253.5t273 99q209 0 328 -163l-102 -142q-84 131 -224 131q-141 0 -215.5 -149.5t-74.5 -355.5v-35q41 80 121.5 136t177.5 56q158 0 261 -114.5t103 -323.5q0 -188 -110.5 -319.5t-296.5 -131.5q-123 0 -213 57.5t-141.5 159t-75 223.5 t-23.5 267zM750 420q0 141 -61.5 208.5t-160.5 67.5q-74 0 -137 -53t-104 -135q4 -63 17 -119.5t39 -114t74 -91t113 -33.5q106 0 163 80.5t57 189.5z" glyph-name="six" horiz-adv-x="1028" unicode="6"/><glyph d="M201 0l424 1194h-576v172h795v-135l-432 -1231h-211z" glyph-name="seven" horiz-adv-x="890" unicode="7"/><glyph d="M84 340q0 125 79 223.5t189 141.5q-104 39 -176 124.5t-72 206.5q0 170 119 260t287 90q166 0 285.5 -90t119.5 -260q0 -121 -72.5 -207t-178.5 -124q111 -43 190.5 -141.5t79.5 -223.5q0 -168 -118 -266.5t-306 -98.5q-190 0 -308 97.5t-118 267.5zM719 1008 q0 94 -57.5 149t-151.5 55q-96 0 -153.5 -55t-57.5 -149q0 -53 24.5 -98.5t62.5 -71t67.5 -41t56.5 -21.5q27 8 55.5 22.5t66.5 41t62.5 71t24.5 97.5zM737 365q0 109 -82 179t-145 81q-66 -8 -147.5 -80t-81.5 -180q0 -100 65.5 -157.5t163.5 -57.5q96 0 161.5 58.5 t65.5 156.5z" glyph-name="eight" horiz-adv-x="1017" unicode="8"/><glyph d="M127 141l100 140q86 -129 224 -129q98 0 166.5 76.5t96 186t27.5 240.5v39q-41 -80 -121.5 -137t-175.5 -57q-158 0 -262 114.5t-104 323.5q0 188 111.5 319.5t295.5 131.5q121 0 212 -57.5t142.5 -159t76 -223.5t24.5 -267q0 -195 -50 -350.5t-163 -255t-274 -99.5 q-211 0 -326 164zM737 856q-6 139 -62.5 248.5t-176.5 109.5q-106 0 -164 -80.5t-58 -189.5q0 -141 61.5 -208.5t158.5 -67.5q78 0 140 53t101 135z" glyph-name="nine" horiz-adv-x="1028" unicode="9"/><glyph d="M117 880.5q0 51.5 36.5 87.5t88.5 36q49 0 86 -36t37 -87.5t-37 -87t-86 -35.5q-51 0 -88 35.5t-37 87zM117 102.5q0 51.5 36.5 87t88.5 35.5q49 0 86 -35.5t37 -87t-37 -87t-86 -35.5q-51 0 -88 35.5t-37 87z" glyph-name="colon" horiz-adv-x="481" unicode=":"/><glyph d="M242 758q-51 0 -88 36.5t-37 86.5q0 51 36.5 87t88.5 36q49 0 86 -36t37 -87q0 -49 -37 -86t-86 -37zM201 -262l-84 69q49 31 89 86.5t48 104.5q-8 -4 -29 -4q-47 0 -77.5 31.5t-30.5 81t34.5 85t86.5 35.5q57 0 97 -45t40 -121q0 -96 -48 -182t-126 -141z" glyph-name="semicolon" horiz-adv-x="481" unicode=";"/><glyph d="M59 623v125l783 368v-141l-641 -291l641 -287v-141z" glyph-name="less" horiz-adv-x="901" unicode="&lt;"/><glyph d="M59 821v119h783v-119h-783zM59 428v117h783v-117h-783z" glyph-name="equal" horiz-adv-x="901" unicode="="/><glyph d="M59 256v141l639 287l-639 291v141l783 -368v-125z" glyph-name="greater" horiz-adv-x="901" unicode=">"/><glyph d="M268 559q0 59 25.5 114.5t51.5 83t75 74.5q43 39 65.5 64t43 67t20.5 89q0 68 -48 117t-132 49q-127 0 -217 -113l-101 125q131 160 346 160q156 0 252 -88.5t96 -219.5q0 -72 -30.5 -136t-59 -96t-86.5 -85q-47 -47 -66.5 -68.5t-42 -63.5t-22.5 -85q0 -61 43 -101 l-147 -59q-66 68 -66 172zM270 102.5q0 51.5 37 87t88 35.5t87 -35.5t36 -87t-36 -87t-87 -35.5t-88 35.5t-37 87z" glyph-name="question" horiz-adv-x="794" unicode="?"/><glyph d="M72 471q0 217 103.5 410.5t277.5 310.5t368 117q238 0 385.5 -161t147.5 -411q0 -246 -104.5 -404.5t-237.5 -158.5q-76 0 -122 43t-52 109l-2 14q-113 -166 -271 -166q-111 0 -181.5 77t-70.5 220q0 213 127 382t301 169q150 0 205 -150l23 117h159l-116 -547 q-4 -20 -4 -47q0 -96 73 -96q66 0 131.5 116.5t65.5 319.5q0 229 -127 364.5t-334 135.5q-178 0 -333.5 -109.5t-247 -285.5t-91.5 -367q0 -240 137.5 -393.5t358.5 -153.5q170 0 332 115l37 -55q-178 -129 -379 -129q-248 0 -403.5 171t-155.5 443zM856 465l64 293 q-41 135 -152 135q-121 0 -205 -130t-84 -276q0 -84 38 -134t108 -50q127 0 231 162z" glyph-name="at" horiz-adv-x="1425" unicode="@"/><glyph d="M858 0l-80 289h-485l-80 -289h-203l408 1366h233l410 -1366h-203zM535 1186l-201 -725h403z" glyph-name="A" horiz-adv-x="1071" unicode="A"/><glyph d="M137 0v1366h486q162 0 253 -96t91 -252q0 -125 -58.5 -206t-152.5 -107q98 -14 165.5 -112.5t67.5 -223.5q0 -168 -91 -268.5t-261 -100.5h-500zM332 782h250q92 0 138 56.5t46 148.5t-46 149.5t-138 57.5h-250v-412zM332 172h258q96 0 147 57.5t51 161.5q0 94 -51 156.5 t-147 62.5h-258v-438z" glyph-name="B" horiz-adv-x="1081" unicode="B"/><glyph d="M627 -25q-244 0 -391.5 198t-147.5 509t147.5 509t391.5 198q279 0 422 -285l-162 -74q-88 184 -260 184q-154 0 -247 -149.5t-93 -382.5t93 -382.5t247 -149.5q178 0 260 200l164 -74q-143 -301 -424 -301z" glyph-name="C" horiz-adv-x="1105" unicode="C"/><glyph d="M137 0v1366h385q264 0 413.5 -190.5t149.5 -493.5q0 -305 -148.5 -493.5t-412.5 -188.5h-387zM332 172h190q174 0 268.5 141.5t94.5 368.5q0 231 -93.5 371.5t-269.5 140.5h-190v-1022z" glyph-name="D" horiz-adv-x="1173" unicode="D"/><glyph d="M137 0v1366h725v-172h-530v-412h516v-172h-516v-438h530v-172h-725z" glyph-name="E" horiz-adv-x="954" unicode="E"/><glyph d="M137 0v1366h725v-172h-530v-412h516v-172h-516v-610h-195z" glyph-name="F" horiz-adv-x="935" unicode="F"/><glyph d="M88 682q0 317 149.5 512t393.5 195q279 0 420 -275l-158 -78q-90 178 -262 178q-154 0 -249 -146t-95 -386t95 -387.5t249 -147.5q150 0 243 107v287h-307v172h492v-533q-168 -207 -428 -207q-244 0 -393.5 196t-149.5 513z" glyph-name="G" horiz-adv-x="1165" unicode="G"/><glyph d="M862 0v616h-530v-616h-195v1366h195v-578h530v578h197v-1366h-197z" glyph-name="H" horiz-adv-x="1193" unicode="H"/><glyph d="M137 0v1366h195v-1366h-195z" glyph-name="I" horiz-adv-x="468" unicode="I"/><glyph d="M16 94l82 152q82 -96 191 -96q98 0 152.5 57t54.5 162v997h194v-1004q0 -193 -104.5 -290t-280.5 -97t-289 119z" glyph-name="J" horiz-adv-x="827" unicode="J"/><glyph d="M815 0l-375 584l-108 -162v-422h-195v1366h195v-684l450 684h230l-451 -647l488 -719h-234z" glyph-name="K" horiz-adv-x="1069" unicode="K"/><glyph d="M137 0v1366h195v-1194h485v-172h-680z" glyph-name="L" horiz-adv-x="876" unicode="L"/><glyph d="M1100 0v1049l-346 -1049h-78l-344 1049v-1049h-195v1366h269l309 -942l313 942h264v-1366h-192z" glyph-name="M" horiz-adv-x="1429" unicode="M"/><glyph d="M868 0l-536 999v-999h-195v1366h197l526 -969v969h195v-1366h-187z" glyph-name="N" horiz-adv-x="1191" unicode="N"/><glyph d="M88 682q0 309 141.5 508t389 199t391 -199t143.5 -508t-143.5 -508t-391 -199t-389 199t-141.5 508zM952 682q0 233 -88 382.5t-246 149.5q-156 0 -243.5 -149.5t-87.5 -382.5q0 -231 88 -381.5t243.5 -150.5t244.5 150.5t89 381.5z" glyph-name="O" horiz-adv-x="1241" unicode="O"/><glyph d="M137 0v1366h441q186 0 288.5 -120t102.5 -298t-103.5 -298t-287.5 -120h-246v-530h-195zM768 948.5q0 110.5 -57.5 178t-155.5 67.5h-223v-492h223q98 0 155.5 68t57.5 178.5z" glyph-name="P" horiz-adv-x="1024" unicode="P"/><glyph d="M1153 682q0 -342 -168 -541l80 -125l-137 -88l-70 109q-106 -61 -240 -62q-248 0 -389 199t-141 508t141.5 508t389 199t391 -199t143.5 -508zM618 150q78 0 144 40l-150 234l138 86l122 -193q80 141 80 365q0 233 -88 382.5t-246 149.5q-156 0 -243.5 -149.5 t-87.5 -382.5q0 -231 87.5 -381.5t243.5 -150.5z" glyph-name="Q" horiz-adv-x="1241" unicode="Q"/><glyph d="M762 0l-248 530h-182v-530h-195v1366h445q172 0 279.5 -113.5t107.5 -302.5q0 -168 -77 -265t-187 -122l276 -563h-219zM768 948.5q0 110.5 -57.5 178t-155.5 67.5h-223v-492h223q98 0 155.5 68t57.5 178.5z" glyph-name="R" horiz-adv-x="1067" unicode="R"/><glyph d="M53 147l101 152q127 -150 321 -149q113 0 173.5 58t60.5 144q0 49 -19.5 88t-62.5 71t-78 51.5t-100 49.5q-59 27 -85 40.5t-79.5 43t-79 56t-56 66.5t-44 90t-13.5 110q0 160 115 265.5t295 105.5q231 0 377 -146l-99 -147q-111 119 -284 118q-90 0 -147.5 -51 t-57.5 -135q0 -41 17.5 -74.5t60.5 -63.5t72.5 -46.5t95.5 -46.5q70 -33 106.5 -51.5t95 -59.5t89 -81t54 -102.5t23.5 -137.5q0 -168 -111.5 -279t-316.5 -111q-266 0 -424 172z" glyph-name="S" horiz-adv-x="978" unicode="S"/><glyph d="M367 0v1194h-318v172h832v-172h-320v-1194h-194z" glyph-name="T" horiz-adv-x="929" unicode="T"/><glyph d="M137 451v915h195v-917q0 -145 68.5 -223.5t193.5 -78.5t193.5 78t68.5 224v917h195v-915q0 -227 -121 -351.5t-336 -124.5t-336 124.5t-121 351.5z" glyph-name="U" horiz-adv-x="1187" unicode="U"/><glyph d="M418 0l-408 1366h211l314 -1135l315 1135h211l-410 -1366h-233z" glyph-name="V" horiz-adv-x="1071" unicode="V"/><glyph d="M956 0l-208 1030l-209 -1030h-205l-307 1366h209l210 -1067l222 1067h159l224 -1067l209 1067h208l-305 -1366h-207z" glyph-name="W" horiz-adv-x="1495" unicode="W"/><glyph d="M834 0l-299 543l-299 -543h-226l406 698l-383 668h225l277 -514l274 514h227l-381 -668l404 -698h-225z" glyph-name="X" horiz-adv-x="1069" unicode="X"/><glyph d="M426 0v573l-422 793h217l301 -608l303 608h215l-419 -793v-573h-195z" glyph-name="Y" horiz-adv-x="1044" unicode="Y"/><glyph d="M80 0v164l551 1030h-551v172h784v-160l-553 -1034h568v-172h-799z" glyph-name="Z" horiz-adv-x="958" unicode="Z"/><glyph d="M78 -389v1778h340v-125h-207v-1528h207v-125h-340z" glyph-name="bracketleft" horiz-adv-x="452" unicode="["/><glyph d="M2 1407h131l393 -1448h-131z" glyph-name="backslash" horiz-adv-x="526" unicode="\"/><glyph d="M35 -389v125h205v1528h-205v125h340v-1778h-340z" glyph-name="bracketright" horiz-adv-x="452" unicode="]"/><glyph d="M610 682l-219 549l-215 -549h-137l289 684h131l286 -684h-135z" glyph-name="asciicircum" horiz-adv-x="784" unicode="^"/><glyph d="M-6 -207v125h876v-125h-876z" glyph-name="underscore" horiz-adv-x="864" unicode="_"/><glyph d="M274 1139l-274 295h170l227 -295h-123z" glyph-name="grave" horiz-adv-x="397" unicode="`"/><glyph d="M637 0v102q-92 -127 -260 -127q-125 0 -213 89.5t-88 240.5q0 150 87 237t214 87q174 0 260 -123v158q0 96 -51 148t-146 52q-133 0 -247 -116l-72 122q137 143 348 144q160 0 252 -81t92 -249v-684h-176zM637 217v168q-31 55 -84 87t-115 32q-84 0 -134 -57.5 t-50 -145.5t50 -145.5t134 -57.5q61 0 114.5 32t84.5 87z" glyph-name="a" horiz-adv-x="940" unicode="a"/><glyph d="M127 0v1366h176v-514q43 78 111.5 120t144.5 42q166 0 262.5 -142.5t96.5 -377.5q0 -238 -96.5 -378.5t-262.5 -140.5q-76 0 -144.5 43t-111.5 117v-135h-176zM303 279q29 -61 87.5 -104.5t119.5 -43.5q111 0 168 101.5t57 261t-57 262t-168 102.5q-61 0 -119.5 -44 t-87.5 -107v-428z" glyph-name="b" horiz-adv-x="997" unicode="b"/><glyph d="M78 496q0 225 115.5 371.5t306.5 146.5q188 0 293 -133l-93 -119q-74 96 -184 96q-121 0 -188.5 -103.5t-67.5 -259t67.5 -260t188.5 -104.5q109 0 184 96l93 -118q-102 -133 -293 -133.5t-306.5 146.5t-115.5 374z" glyph-name="c" horiz-adv-x="841" unicode="c"/><glyph d="M694 0v135q-45 -74 -113.5 -117t-144.5 -43q-166 0 -262 140.5t-96 378.5q0 236 96 378t262 142q164 0 258 -162v514h174v-1366h-174zM694 279v430q-29 61 -87 105t-122 44q-109 0 -167 -102.5t-58 -261.5q0 -158 58.5 -260.5t166.5 -102.5q63 0 121.5 43.5t87.5 104.5z " glyph-name="d" horiz-adv-x="997" unicode="d"/><glyph d="M78 496q0 221 112.5 369.5t301.5 148.5q190 0 295.5 -147.5t105.5 -377.5v-51h-635q6 -141 78 -229t194 -88q135 0 228 115l90 -107q-133 -154 -334 -154q-199 0 -317.5 145t-118.5 376zM489 868q-113 0 -170 -93t-63 -212h465q-2 121 -59.5 213t-172.5 92z" glyph-name="e" horiz-adv-x="964" unicode="e"/><glyph d="M166 0v836h-129v153h129v107q0 135 69.5 212.5t184.5 77.5q82 0 139 -30l-39 -135q-29 16 -63 16q-53 0 -84 -37t-31 -104v-107h166v-153h-166v-836h-176z" glyph-name="f" horiz-adv-x="540" unicode="f"/><glyph d="M119 -276l78 137q98 -113 256 -113q104 0 171.5 63.5t67.5 194.5v152q-43 -76 -111.5 -120t-144.5 -44q-166 0 -262 137t-96 373q0 233 96 371.5t262 138.5q76 0 144.5 -42t111.5 -120v137h176v-971q0 -117 -33.5 -201.5t-93 -130.5t-129 -66.5t-153.5 -20.5 q-209 0 -340 125zM692 299v410q-27 61 -85 105t-122 44q-109 0 -167 -98t-58 -256q0 -160 57.5 -257t167.5 -97q63 0 121.5 44t85.5 105z" glyph-name="g" horiz-adv-x="995" unicode="g"/><glyph d="M670 0v692q0 166 -150 166q-66 0 -125 -43t-92 -104v-711h-176v1366h176v-514q45 66 124 114t165 48q254 0 254 -266v-748h-176z" glyph-name="h" unicode="h"/><glyph d="M215 1155q-47 0 -81 33t-34 80t34 80.5t81 33.5t81 -33.5t34 -80.5t-34 -80t-81 -33zM127 0v989h176v-989h-176z" glyph-name="i" horiz-adv-x="430" unicode="i"/><glyph d="M215 1155q-47 0 -81 33t-34 80t34 80.5t81 33.5t81 -33.5t34 -80.5t-34 -80t-81 -33zM303 989v-1106q0 -139 -66.5 -211.5t-191.5 -72.5q-53 0 -96 12l22 149q25 -8 49 -8q106 0 107 131v1106h176z" glyph-name="j" horiz-adv-x="430" unicode="j"/><glyph d="M684 0l-252 430l-129 -170v-260h-176v1366h176v-889l379 512h207l-336 -444l338 -545h-207z" glyph-name="k" horiz-adv-x="915" unicode="k"/><glyph d="M127 0v1366h176v-1366h-176z" glyph-name="l" horiz-adv-x="430" unicode="l"/><glyph d="M1145 0v702q0 156 -131 156q-61 0 -116.5 -44t-86.5 -103v-711h-174v702q0 156 -133 156q-59 0 -113.5 -44t-87.5 -103v-711h-176v989h176v-137q33 59 111 110.5t161 51.5q94 0 152.5 -47t75.5 -129q37 72 115.5 124t164.5 52q236 0 236 -258v-756h-174z" glyph-name="m" horiz-adv-x="1447" unicode="m"/><glyph d="M670 0v688q0 170 -150 170q-68 0 -126 -43t-91 -104v-711h-176v989h176v-137q45 68 123 115t164 47q254 0 254 -269v-745h-174z" glyph-name="n" unicode="n"/><glyph d="M493.5 -25q-196.5 0 -306 149.5t-109.5 371t109.5 370t306 148.5t306 -148.5t109.5 -370t-109.5 -371t-306 -149.5zM494 131q115 0 174 104.5t59 260.5q0 154 -59.5 258t-173.5 104q-113 0 -172.5 -104.5t-59.5 -258t59.5 -259t172.5 -105.5z" glyph-name="o" horiz-adv-x="987" unicode="o"/><glyph d="M303 -377h-176v1366h176v-135q43 74 111.5 117t144.5 43q166 0 262.5 -140.5t96.5 -378t-96.5 -379t-262.5 -141.5t-256 164v-516zM735 496q0 158 -58.5 260t-166.5 102q-61 0 -119.5 -43t-87.5 -104v-430q29 -61 87.5 -105.5t119.5 -44.5q109 0 167 102.5t58 262.5z" glyph-name="p" horiz-adv-x="995" unicode="p"/><glyph d="M868 -377h-176v516q-90 -164 -256 -164t-262 141.5t-96 379t96 378t262 140.5q76 0 144.5 -43t111.5 -117v135h176v-1366zM692 281v430q-27 61 -85 104t-122 43q-109 0 -167 -102.5t-58 -259.5q0 -160 58.5 -262.5t166.5 -102.5q63 0 121.5 44.5t85.5 105.5z" glyph-name="q" horiz-adv-x="995" unicode="q"/><glyph d="M127 0v989h176v-151q106 174 277 174v-178q-25 6 -52 6q-63 0 -127.5 -44t-97.5 -106v-690h-176z" glyph-name="r" horiz-adv-x="612" unicode="r"/><glyph d="M49 115l82 125q109 -123 264 -123q82 0 129 36.5t47 100t-49 100.5t-147 76q-55 20 -85 32.5t-77 40t-70.5 56.5t-43 76t-19.5 104q0 117 88 196t240 79q190 0 313 -127l-78 -121q-82 106 -233 106q-74 0 -119 -34.5t-45 -87.5q0 -39 29.5 -71t61.5 -48.5t97 -42.5 q70 -27 110 -45.5t92 -56t77.5 -93t25.5 -129.5q0 -127 -93 -208t-249 -81q-225 1 -348 140z" glyph-name="s" horiz-adv-x="806" unicode="s"/><glyph d="M375 -25q-213 0 -213 234v627h-131v153h131v271h174v-271h166v-153h-166v-592q0 -113 78 -113q53 0 84 35l45 -131q-59 -60 -168 -60z" glyph-name="t" horiz-adv-x="559" unicode="t"/><glyph d="M670 0v133q-49 -68 -125 -113t-164 -45q-254 0 -254 267v747h176v-692q0 -166 150 -166q66 0 124 41t93 102v715h174v-989h-174z" glyph-name="u" unicode="u"/><glyph d="M334 0l-326 989h189l231 -780l236 780h186l-326 -989h-190z" glyph-name="v" horiz-adv-x="858" unicode="v"/><glyph d="M868 0l-200 760l-201 -760h-182l-265 989h183l182 -756l199 756h164l200 -756l185 756h184l-266 -989h-183z" glyph-name="w" horiz-adv-x="1335" unicode="w"/><glyph d="M637 0l-211 379l-215 -379h-193l299 504l-282 485h192l199 -358l197 358h192l-283 -485l299 -504h-194z" glyph-name="x" horiz-adv-x="849" unicode="x"/><glyph d="M113 -231q27 -14 63 -15q82 0 115 90l47 136l-330 1009h189l231 -776l236 776h186l-393 -1186q-37 -113 -101.5 -158.5t-167.5 -45.5q-61 0 -104 14z" glyph-name="y" horiz-adv-x="858" unicode="y"/><glyph d="M84 0v135l410 701h-410v153h629v-131l-412 -704h420v-154h-637z" glyph-name="z" horiz-adv-x="804" unicode="z"/><glyph d="M358 -389q-96 0 -168.5 71.5t-72.5 184.5v436q0 61 -28 101t-79 40v111q51 0 79 40t28 101v437q0 113 72.5 184.5t168.5 71.5h95v-125h-95q-45 0 -76.5 -37t-31.5 -94v-451q0 -143 -92 -182q92 -39 92 -183v-450q0 -55 31.5 -93t76.5 -38h95v-125h-95z" glyph-name="braceleft" horiz-adv-x="487" unicode="{"/><glyph d="M137 -41v1448h125v-1448h-125z" glyph-name="bar" horiz-adv-x="399" unicode="|"/><glyph d="M35 -264h92q45 0 77 38t32 93v450q0 141 94 183q-94 41 -94 182v451q0 57 -32 94t-77 37h-92v125h92q98 0 171 -72t73 -184v-437q0 -61 27.5 -101t78.5 -40v-111q-51 0 -78.5 -39.5t-27.5 -101.5v-436q0 -115 -73 -185.5t-171 -70.5h-92v125z" glyph-name="braceright" horiz-adv-x="487" unicode="}"/><glyph d="M872 1352q-8 -100 -20 -174t-39 -153t-78 -121t-123 -42q-47 0 -81.5 19.5t-58 61.5t-34 70.5t-26.5 84.5q-20 76 -40 111.5t-57 35.5q-59 0 -87.5 -93t-45.5 -292l-127 14q8 98 20.5 173t40 153t78 121t121.5 43q47 0 82 -19.5t58.5 -61.5t34 -70.5t26.5 -86.5 q20 -76 39.5 -111.5t56.5 -35.5q59 0 88 93t45 294z" glyph-name="asciitilde" horiz-adv-x="927" unicode="~"/><glyph glyph-name="uni00A0" horiz-adv-x="438" unicode=" "/><glyph d="M242 1010q49 0 86 -37t37 -86q0 -51 -37 -87t-86 -36q-51 0 -88 36t-37 87q0 49 37 86t88 37zM168 594h147l35 -971h-217z" glyph-name="exclamdown" horiz-adv-x="481" unicode="¡"/><glyph d="M567 137q74 14 133 90l93 -118q-82 -109 -226 -129v-185h-135v187q-162 27 -258 168t-96 346q0 203 96 344t258 168v149h135v-149q141 -20 226 -127l-93 -119q-57 76 -133 90v-715zM260 495.5q0 -122.5 45 -217t127 -126.5v686q-82 -31 -127 -125.5t-45 -217z" glyph-name="cent" horiz-adv-x="841" unicode="¢"/><glyph d="M846 221l72 -153q-35 -41 -101.5 -68t-144.5 -27q-82 0 -180 50q-74 41 -132 40q-82 0 -200 -77l-68 139q100 53 158.5 134t58.5 169q0 66 -26 125h-232v121h158q-39 63 -55.5 92t-37 92.5t-20.5 126.5q0 168 119 284.5t287 116.5q131 0 227 -62t137 -177l-155 -80 q-23 70 -73 114t-122 44q-90 0 -149.5 -65.5t-59.5 -178.5q0 -121 88 -256l31 -51h229v-121h-180q8 -33 8 -82q0 -166 -139 -272q47 18 92 18q59 0 133 -37q70 -33 115 -33q105 0 162 74z" glyph-name="sterling" horiz-adv-x="942" unicode="£"/><glyph d="M932 682q0 -176 -78 -303l154 -152l-107 -106l-147 145q-96 -74 -235.5 -73.5t-239.5 77.5l-146 -145l-106 104l151 152q-76 129 -76 301q0 176 78 303l-153 154l106 106l148 -149q100 74 237 73q135 0 236 -73l147 149l107 -108l-154 -154q78 -127 78 -301zM518 352 q117 0 178.5 95.5t61.5 234.5q0 137 -61.5 232.5t-178.5 95.5t-179.5 -95.5t-62.5 -232.5q0 -139 62.5 -234.5t179.5 -95.5z" glyph-name="currency" horiz-adv-x="1034" unicode="¤"/><glyph d="M1040 1366l-358 -674h315v-119h-376v-206h376v-119h-376v-248h-195v248h-381v119h381v206h-381v119h317l-358 674h217l301 -608l303 608h215z" glyph-name="yen" horiz-adv-x="1044" unicode="¥"/><glyph d="M137 760v647h125v-647h-125zM137 -41v647h125v-647h-125z" glyph-name="brokenbar" horiz-adv-x="399" unicode="¦"/><glyph d="M573 385q166 -96 166 -260q0 -129 -96 -210t-246 -81q-213 0 -346 143l80 115q111 -129 260 -129q80 0 130 43t50 111q0 37 -14 64.5t-50 51t-61.5 36t-81 35t-83 34.5t-73.5 40t-68.5 55.5t-41 72.5t-18.5 100q0 90 55 154.5t141 89.5q-197 102 -196 270q0 117 89 191.5 t230 74.5q205 0 320 -129l-76 -106q-92 106 -233 106q-72 0 -118 -37.5t-46 -97.5q0 -45 32.5 -78.5t62.5 -48t103 -45.5q70 -27 107 -45t89 -55t75.5 -90t23.5 -123q0 -174 -166 -252zM414 797q-172 -39 -172 -166q0 -66 50 -108t154 -85q127 57 127 168q1 125 -159 191z " glyph-name="section" horiz-adv-x="811" unicode="§"/><glyph d="M182 1161q-43 0 -73.5 30t-30.5 73t30.5 73.5t73.5 30.5t73 -30.5t30 -73.5t-30 -73t-73 -30zM545 1161q-41 0 -72 30t-31 73t31 73.5t72 30.5q43 0 73.5 -30.5t30.5 -73.5t-30.5 -73t-73.5 -30z" glyph-name="dieresis" horiz-adv-x="729" unicode="¨"/><glyph d="M797 -25q-293 0 -500 207t-207 500t207 500t500 207t499.5 -207t206.5 -500t-206.5 -500t-499.5 -207zM796.5 1323q-264.5 0 -452.5 -188.5t-188 -452.5t188 -452.5t452.5 -188.5t453 188.5t188.5 452.5t-188.5 452.5t-453 188.5zM1104 383q-117 -137 -301 -137 q-178 0 -302 127t-124 311q0 186 124 310t302 124q186 0 299 -133l-53 -53q-39 53 -107 85t-139 32q-143 0 -245.5 -102.5t-102.5 -262.5q0 -156 103.5 -261.5t244.5 -105.5q74 0 139.5 33t106.5 86z" glyph-name="copyright" horiz-adv-x="1593" unicode="©"/><glyph d="M446 668v67q-63 -84 -178 -84q-86 0 -145.5 57.5t-59.5 156t59.5 154.5t145.5 56q117 0 178 -82v103q0 61 -35.5 94t-95.5 33q-98 0 -168 -82l-55 88q98 98 244 98q242 0 242 -233v-426h-132zM446 811v109q-41 72 -131 71q-53 0 -85.5 -34.5t-32.5 -90.5q0 -57 32.5 -92 t85.5 -35q90 0 131 72z" glyph-name="ordfeminine" horiz-adv-x="681" unicode="ª"/><glyph d="M317 129l-256 369l256 362h158l-256 -362l256 -369h-158zM606 129l-256 369l256 362h158l-256 -362l256 -369h-158z" glyph-name="guillemotleft" horiz-adv-x="825" unicode="«"/><glyph d="M842 428h-123v393h-660v119h783v-512z" glyph-name="logicalnot" horiz-adv-x="907" unicode="¬"/><glyph d="M61 420v151h426v-151h-426z" glyph-name="uni00AD" horiz-adv-x="548" unicode="­"/><glyph d="M506 518q-180 0 -307 127t-127 307.5t127 307t307 126.5q182 0 308 -125.5t126 -308.5q0 -180 -127 -307t-307 -127zM506 1325q-156 0 -265.5 -108.5t-109.5 -264.5q0 -154 109.5 -264t265.5 -110q154 0 263.5 110.5t109.5 263.5q0 156 -108.5 264.5t-264.5 108.5z M625 702l-129 197h-90v-197h-66v498h203q66 0 111.5 -42t45.5 -109q0 -72 -46 -110t-81 -38l134 -199h-82zM543 1141h-137v-180h137q35 0 62.5 25.5t27.5 62.5q0 41 -27.5 66.5t-62.5 25.5z" glyph-name="registered" horiz-adv-x="1011" unicode="®"/><glyph d="M47 1167v109h535v-109h-535z" glyph-name="macron" horiz-adv-x="628" unicode="¯"/><glyph d="M299 877q-104 0 -179 73.5t-75 180t75 181t179 74.5q106 0 181 -74.5t75 -181t-75 -180t-181 -73.5zM299 1280q-59 0 -102 -44t-43 -105.5t43 -104.5t102 -43q61 0 105.5 43t44.5 104.5t-44.5 105.5t-105.5 44z" glyph-name="degree" horiz-adv-x="604" unicode="°"/><glyph d="M514 649v-370h-127v370h-328v117h328v358h127v-358h328v-117h-328zM59 41v117h783v-117h-783z" glyph-name="plusminus" horiz-adv-x="901" unicode="±"/><glyph d="M82 862v103q238 227 313.5 318t75.5 171q0 59 -39 93t-96 34q-123 0 -186 -102l-82 82q98 133 272 133q117 0 192.5 -61.5t75.5 -172.5q0 -96 -74.5 -196.5t-265.5 -288.5h344v-113h-530z" glyph-name="uni00B2" horiz-adv-x="679" unicode="²"/><glyph d="M336 848q-188 0 -277 133l82 84q72 -104 191 -104q72 0 109.5 35.5t37.5 97.5q0 133 -164 133q-59 0 -69 -2v112q12 -2 65 -2q156 0 156 123q0 59 -39 91t-102 32q-111 0 -179 -96l-79 80q94 129 268 129q121 0 193.5 -57.5t72.5 -161.5q0 -74 -47 -125.5t-111 -63.5 q66 -8 118 -62.5t52 -138.5q0 -106 -74.5 -171.5t-203.5 -65.5z" glyph-name="uni00B3" horiz-adv-x="679" unicode="³"/><glyph d="M123 1139h-123l227 295h170z" glyph-name="acute" horiz-adv-x="397" unicode="´"/><glyph d="M303 -377h-176v1366h176v-692q0 -168 154 -168q63 0 120.5 42t92.5 103v715h174v-753q0 -104 76 -105q14 0 34 4l13 -149q-35 -10 -84 -11q-178 0 -207 175q-39 -78 -102.5 -126.5t-135.5 -48.5q-96 0 -135 62v-414z" glyph-name="uni00B5" horiz-adv-x="997" unicode="µ"/><glyph d="M684 -205v1473h-178v-1473h-98v867q-145 0 -249 103t-104 248.5t103.5 249t249.5 103.5h376v-1571h-100z" glyph-name="paragraph" horiz-adv-x="919" unicode="¶"/><glyph d="M239.5 377q-51.5 0 -87 37t-35.5 88q0 49 35.5 86t87 37t88.5 -37t37 -86q0 -51 -37 -88t-88.5 -37z" glyph-name="periodcentered" horiz-adv-x="481" unicode="·"/><glyph d="M0 -332l41 82q66 -57 143 -57q43 0 75 23.5t32 62.5q0 61 -66 61q-39 0 -63 -30l-74 43l64 170h98l-53 -136q29 23 67 23q53 0 89 -38t36 -95q0 -76 -57.5 -123t-143.5 -47q-110 0 -188 61z" glyph-name="cedilla" horiz-adv-x="389" unicode="¸"/><glyph d="M233 862v641l-129 -133l-79 82l227 229h119v-819h-138z" glyph-name="uni00B9" horiz-adv-x="485" unicode="¹"/><glyph d="M68 989.5q0 143.5 77.5 240.5t213 97t213 -97t77.5 -240.5t-77.5 -241t-213 -97.5t-213 97.5t-77.5 241zM512 989.5q0 100.5 -39 162.5t-114.5 62t-114.5 -62t-39 -162.5t39 -165t114.5 -64.5t114.5 64.5t39 165z" glyph-name="ordmasculine" horiz-adv-x="716" unicode="º"/><glyph d="M219 129h-158l256 369l-256 362h158l256 -362zM508 129h-158l256 369l-256 362h158l256 -362z" glyph-name="guillemotright" horiz-adv-x="825" unicode="»"/><glyph d="M233 547v641l-129 -133l-79 82l227 229h119v-819h-138zM344 0h-106l718 1366h109zM1243 199v-199h-137v199h-346v104l303 516h180v-510h94v-110h-94zM1106 682l-217 -373h217v373z" glyph-name="onequarter" horiz-adv-x="1386" unicode="¼"/><glyph d="M233 547v641l-129 -133l-79 82l227 229h119v-819h-138zM344 0h-106l718 1366h109zM868 0v102q238 227 313.5 318.5t75.5 171.5q0 59 -38.5 93t-96.5 34q-123 0 -186 -103l-82 82q98 133 272 133q117 0 193 -61t76 -172q0 -96 -75 -196.5t-265 -288.5h344v-113h-531z" glyph-name="onehalf" horiz-adv-x="1466" unicode="½"/><glyph d="M336 532q-188 0 -277 134l82 84q72 -104 191 -105q72 0 109.5 36t37.5 97q0 133 -164 133q-59 0 -69 -2v113q12 -2 65 -2q156 0 156 123q0 59 -39 91t-102 32q-111 0 -179 -97l-79 80q94 129 268 129q121 0 193.5 -57t72.5 -162q0 -74 -47 -125t-111 -63q66 -8 118 -62.5 t52 -138.5q0 -106 -74.5 -172t-203.5 -66zM508 0h-107l719 1366h109zM1407 199v-199h-137v199h-346v104l303 516h180v-510h94v-110h-94zM1270 682l-217 -373h217v373z" glyph-name="threequarters" horiz-adv-x="1550" unicode="¾"/><glyph d="M524 887q0 -51 -36.5 -87t-88 -36t-87.5 36t-36 87q0 49 36 86t87.5 37t88 -37t36.5 -86zM526 426q0 -59 -25.5 -113.5t-51 -83t-74.5 -73.5q-45 -43 -65.5 -65.5t-42 -66.5t-21.5 -90q0 -68 48 -116.5t132 -48.5q129 0 219 110l98 -125q-131 -156 -346 -155 q-156 0 -251 86t-95 217q0 72 30 136t59.5 98t84.5 85q45 43 68.5 67.5t44 65.5t20.5 84q0 61 -45 101l148 59q65 -68 65 -172z" glyph-name="questiondown" horiz-adv-x="686" unicode="¿"/><glyph d="M473 1481l-274 295h170l227 -295h-123zM858 0l-80 289h-485l-80 -289h-203l408 1366h233l410 -1366h-203zM535 1186l-201 -725h403z" glyph-name="Agrave" horiz-adv-x="1071" unicode="À"/><glyph d="M592 1481h-123l227 295h170zM858 0l-80 289h-485l-80 -289h-203l408 1366h233l410 -1366h-203zM535 1186l-201 -725h403z" glyph-name="Aacute" horiz-adv-x="1071" unicode="Á"/><glyph d="M678 1481l-143 207l-136 -207h-108l162 295h165l168 -295h-108zM858 0l-80 289h-485l-80 -289h-203l408 1366h233l410 -1366h-203zM535 1186l-201 -725h403z" glyph-name="Acircumflex" horiz-adv-x="1071" unicode="Â"/><glyph d="M502 1583q-41 72 -74 72q-76 0 -76 -166h-98q0 123 47 198.5t133 75.5q35 0 62.5 -18.5t40 -35.5t32.5 -52q45 -72 76 -72q76 0 76 166h98q0 -123 -47 -198.5t-133 -75.5q-35 0 -63.5 19.5t-39.5 34.5t-34 52zM858 0l-80 289h-485l-80 -289h-203l408 1366h233l410 -1366 h-203zM535 1186l-201 -725h403z" glyph-name="Atilde" horiz-adv-x="1071" unicode="Ã"/><glyph d="M352 1503q-43 0 -73.5 30t-30.5 73t30.5 73.5t73.5 30.5t73 -30.5t30 -73.5t-30 -73t-73 -30zM715 1503q-41 0 -72 30t-31 73t31 73.5t72 30.5q43 0 73.5 -30.5t30.5 -73.5t-30.5 -73t-73.5 -30zM858 0l-80 289h-485l-80 -289h-203l408 1366h233l410 -1366h-203z M535 1186l-201 -725h403z" glyph-name="Adieresis" horiz-adv-x="1071" unicode="Ä"/><glyph d="M346 1640q0 76 56.5 132.5t132.5 56.5q78 0 133 -55.5t55 -133t-55.5 -134t-133 -56.5t-133 56t-55.5 134zM637 1640q0 41 -29.5 72t-72.5 31q-41 0 -72 -31t-31 -72q0 -43 31 -73.5t72 -30.5q43 0 72.5 30.5t29.5 73.5zM858 0l-80 289h-485l-80 -289h-203l408 1366h233 l410 -1366h-203zM535 1186l-201 -725h403z" glyph-name="Aring" horiz-adv-x="1071" unicode="Å"/><glyph d="M741 0v289h-393l-131 -289h-203l648 1366h804v-172h-528v-412h514v-172h-514v-438h528v-172h-725zM741 1188l-321 -727h321v727z" glyph-name="AE" horiz-adv-x="1558" unicode="Æ"/><glyph d="M1051 276q-133 -281 -387 -299l-35 -90q29 23 67 23q53 0 89 -38t36 -95q0 -76 -57 -123t-143 -47q-113 0 -189 61l41 82q66 -57 143 -57q43 0 75 23.5t32 62.5q0 61 -66 61q-39 0 -63 -30l-74 43l47 127q-219 25 -349 218t-130 484q0 311 147.5 509t391.5 198 q279 0 422 -285l-162 -74q-88 184 -260 184q-154 0 -247 -149.5t-93 -382.5t93 -382.5t247 -149.5q178 0 260 200z" glyph-name="Ccedilla" horiz-adv-x="1105" unicode="Ç"/><glyph d="M449 1481l-275 295h170l227 -295h-122zM137 0v1366h725v-172h-530v-412h516v-172h-516v-438h530v-172h-725z" glyph-name="Egrave" horiz-adv-x="954" unicode="È"/><glyph d="M567 1481h-123l228 295h170zM137 0v1366h725v-172h-530v-412h516v-172h-516v-438h530v-172h-725z" glyph-name="Eacute" horiz-adv-x="954" unicode="É"/><glyph d="M653 1481l-143 207l-135 -207h-109l162 295h166l168 -295h-109zM137 0v1366h725v-172h-530v-412h516v-172h-516v-438h530v-172h-725z" glyph-name="Ecircumflex" horiz-adv-x="954" unicode="Ê"/><glyph d="M328 1503q-43 0 -74 30t-31 73t31 73.5t74 30.5t72.5 -30.5t29.5 -73.5t-29.5 -73t-72.5 -30zM690 1503q-41 0 -71.5 30t-30.5 73t30.5 73.5t71.5 30.5q43 0 74 -30.5t31 -73.5t-31 -73t-74 -30zM137 0v1366h725v-172h-530v-412h516v-172h-516v-438h530v-172h-725z" glyph-name="Edieresis" horiz-adv-x="954" unicode="Ë"/><glyph d="M174 1481l-274 295h170l227 -295h-123zM137 0v1366h195v-1366h-195z" glyph-name="Igrave" horiz-adv-x="468" unicode="Ì"/><glyph d="M293 1481h-123l227 295h170zM137 0v1366h195v-1366h-195z" glyph-name="Iacute" horiz-adv-x="468" unicode="Í"/><glyph d="M379 1481l-143 207l-136 -207h-108l162 295h165l168 -295h-108zM137 0v1366h195v-1366h-195z" glyph-name="Icircumflex" horiz-adv-x="468" unicode="Î"/><glyph d="M53 1503q-43 0 -73.5 30t-30.5 73t30.5 73.5t73.5 30.5t73 -30.5t30 -73.5t-30 -73t-73 -30zM416 1503q-41 0 -72 30t-31 73t31 73.5t72 30.5q43 0 73.5 -30.5t30.5 -73.5t-30.5 -73t-73.5 -30zM137 0v1366h195v-1366h-195z" glyph-name="Idieresis" horiz-adv-x="468" unicode="Ï"/><glyph d="M571 1366q264 0 413 -190.5t149 -493.5q0 -305 -148.5 -493.5t-413.5 -188.5h-385v602h-155v146h155v618h385zM571 172q172 0 267.5 141.5t95.5 368.5q0 231 -94.5 371.5t-268.5 140.5h-190v-446h248v-146h-248v-430h190z" glyph-name="Eth" horiz-adv-x="1222" unicode="Ð"/><glyph d="M563 1583q-41 72 -74 72q-76 0 -75 -166h-99q0 123 47.5 198.5t133.5 75.5q35 0 62.5 -18.5t39.5 -35.5t33 -52q45 -72 76 -72q76 0 75 166h99q0 -123 -47.5 -198.5t-133.5 -75.5q-35 0 -63.5 19.5t-39.5 34.5t-34 52zM868 0l-536 999v-999h-195v1366h197l526 -969v969 h195v-1366h-187z" glyph-name="Ntilde" horiz-adv-x="1191" unicode="Ñ"/><glyph d="M557 1481l-274 295h170l227 -295h-123zM88 682q0 309 141.5 508t389 199t391 -199t143.5 -508t-143.5 -508t-391 -199t-389 199t-141.5 508zM952 682q0 233 -88 382.5t-246 149.5q-156 0 -243.5 -149.5t-87.5 -382.5q0 -231 88 -381.5t243.5 -150.5t244.5 150.5t89 381.5 z" glyph-name="Ograve" horiz-adv-x="1241" unicode="Ò"/><glyph d="M676 1481h-123l227 295h170zM88 682q0 309 141.5 508t389 199t391 -199t143.5 -508t-143.5 -508t-391 -199t-389 199t-141.5 508zM952 682q0 233 -88 382.5t-246 149.5q-156 0 -243.5 -149.5t-87.5 -382.5q0 -231 88 -381.5t243.5 -150.5t244.5 150.5t89 381.5z" glyph-name="Oacute" horiz-adv-x="1241" unicode="Ó"/><glyph d="M762 1481l-144 207l-135 -207h-108l162 295h165l168 -295h-108zM88 682q0 309 141.5 508t389 199t391 -199t143.5 -508t-143.5 -508t-391 -199t-389 199t-141.5 508zM952 682q0 233 -88 382.5t-246 149.5q-156 0 -243.5 -149.5t-87.5 -382.5q0 -231 88 -381.5 t243.5 -150.5t244.5 150.5t89 381.5z" glyph-name="Ocircumflex" horiz-adv-x="1241" unicode="Ô"/><glyph d="M586 1583q-41 72 -74 72q-76 0 -76 -166h-98q0 123 47 198.5t133 75.5q35 0 62.5 -18.5t40 -35.5t32.5 -52q45 -72 76 -72q76 0 76 166h98q0 -123 -47 -198.5t-133 -75.5q-35 0 -63.5 19.5t-39.5 34.5t-34 52zM88 682q0 309 141.5 508t389 199t391 -199t143.5 -508 t-143.5 -508t-391 -199t-389 199t-141.5 508zM952 682q0 233 -88 382.5t-246 149.5q-156 0 -243.5 -149.5t-87.5 -382.5q0 -231 88 -381.5t243.5 -150.5t244.5 150.5t89 381.5z" glyph-name="Otilde" horiz-adv-x="1241" unicode="Õ"/><glyph d="M436 1503q-43 0 -73.5 30t-30.5 73t30.5 73.5t73.5 30.5t73 -30.5t30 -73.5t-30 -73t-73 -30zM799 1503q-41 0 -72 30t-31 73t31 73.5t72 30.5q43 0 73.5 -30.5t30.5 -73.5t-30.5 -73t-73.5 -30zM88 682q0 309 141.5 508t389 199t391 -199t143.5 -508t-143.5 -508 t-391 -199t-389 199t-141.5 508zM952 682q0 233 -88 382.5t-246 149.5q-156 0 -243.5 -149.5t-87.5 -382.5q0 -231 88 -381.5t243.5 -150.5t244.5 150.5t89 381.5z" glyph-name="Odieresis" horiz-adv-x="1241" unicode="Ö"/><glyph d="M451 600l-258 -258l-84 84l258 258l-258 258l84 84l258 -258l258 258l84 -84l-258 -258l258 -258l-84 -84z" glyph-name="multiply" horiz-adv-x="901" unicode="×"/><glyph d="M987 1219q166 -197 166 -537q0 -309 -143.5 -508t-391.5 -199q-164 0 -284 93l-37 -68h-137l86 154q-158 195 -158 528q0 309 141.5 508t388.5 199q160 0 279 -86l37 63h137zM287 682q0 -201 65 -342l453 799q-76 76 -187 75q-156 0 -243.5 -149.5t-87.5 -382.5zM618 150 q156 0 245 150.5t89 381.5q0 207 -69 350l-455 -801q77 -81 190 -81z" glyph-name="Oslash" horiz-adv-x="1241" unicode="Ø"/><glyph d="M532 1481l-274 295h170l227 -295h-123zM137 451v915h195v-917q0 -145 68.5 -223.5t193.5 -78.5t193.5 78t68.5 224v917h195v-915q0 -227 -121 -351.5t-336 -124.5t-336 124.5t-121 351.5z" glyph-name="Ugrave" horiz-adv-x="1187" unicode="Ù"/><glyph d="M651 1481h-123l228 295h170zM137 451v915h195v-917q0 -145 68.5 -223.5t193.5 -78.5t193.5 78t68.5 224v917h195v-915q0 -227 -121 -351.5t-336 -124.5t-336 124.5t-121 351.5z" glyph-name="Uacute" horiz-adv-x="1187" unicode="Ú"/><glyph d="M737 1481l-143 207l-135 -207h-109l162 295h166l168 -295h-109zM137 451v915h195v-917q0 -145 68.5 -223.5t193.5 -78.5t193.5 78t68.5 224v917h195v-915q0 -227 -121 -351.5t-336 -124.5t-336 124.5t-121 351.5z" glyph-name="Ucircumflex" horiz-adv-x="1187" unicode="Û"/><glyph d="M412 1503q-43 0 -74 30t-31 73t31 73.5t74 30.5t72.5 -30.5t29.5 -73.5t-29.5 -73t-72.5 -30zM774 1503q-41 0 -71.5 30t-30.5 73t30.5 73.5t71.5 30.5q43 0 74 -30.5t31 -73.5t-31 -73t-74 -30zM137 451v915h195v-917q0 -145 68.5 -223.5t193.5 -78.5t193.5 78t68.5 224 v917h195v-915q0 -227 -121 -351.5t-336 -124.5t-336 124.5t-121 351.5z" glyph-name="Udieresis" horiz-adv-x="1187" unicode="Ü"/><glyph d="M580 1481h-123l227 295h170zM426 0v573l-422 793h217l301 -608l303 608h215l-419 -793v-573h-195z" glyph-name="Yacute" horiz-adv-x="1044" unicode="Ý"/><glyph d="M137 0v1366h195v-240h246q186 0 288.5 -120.5t102.5 -298.5q0 -176 -102.5 -295t-288.5 -119h-246v-293h-195zM768 709q0 109 -58.5 177t-154.5 68h-223v-489h223q98 0 155.5 66.5t57.5 177.5z" glyph-name="Thorn" horiz-adv-x="1024" unicode="Þ"/><glyph d="M739 -25q-113 0 -187.5 36t-141.5 108l77 123q94 -125 238 -125q78 0 125 41t47 104q0 33 -13.5 58.5t-46 48t-56 35t-72.5 32.5q-68 29 -99.5 45.5t-81 52t-71 85t-21.5 114.5q0 53 23.5 98.5t48 69t70.5 57.5q35 27 51 43.5t32.5 43t16.5 55.5q0 57 -51.5 94t-120.5 37 q-84 0 -139.5 -53.5t-55.5 -151.5v-1026h-174v1026q0 156 101.5 258t269.5 102q143 0 244.5 -74.5t101.5 -191.5q0 -57 -24.5 -105t-49 -71.5t-71.5 -60.5q-35 -29 -52.5 -44.5t-34 -42t-16.5 -55.5q0 -55 43 -86.5t135 -68.5q68 -27 104 -44.5t87 -55t74.5 -92t23.5 -128.5 q0 -123 -91 -207t-243 -84z" glyph-name="germandbls" horiz-adv-x="1105" unicode="ß"/><glyph d="M416 1139l-275 295h170l228 -295h-123zM637 0v102q-92 -127 -260 -127q-125 0 -213 89.5t-88 240.5q0 150 87 237t214 87q174 0 260 -123v158q0 96 -51 148t-146 52q-133 0 -247 -116l-72 122q137 143 348 144q160 0 252 -81t92 -249v-684h-176zM637 217v168 q-31 55 -84 87t-115 32q-84 0 -134 -57.5t-50 -145.5t50 -145.5t134 -57.5q61 0 114.5 32t84.5 87z" glyph-name="agrave" horiz-adv-x="940" unicode="à"/><glyph d="M535 1139h-123l227 295h170zM637 0v102q-92 -127 -260 -127q-125 0 -213 89.5t-88 240.5q0 150 87 237t214 87q174 0 260 -123v158q0 96 -51 148t-146 52q-133 0 -247 -116l-72 122q137 143 348 144q160 0 252 -81t92 -249v-684h-176zM637 217v168q-31 55 -84 87t-115 32 q-84 0 -134 -57.5t-50 -145.5t50 -145.5t134 -57.5q61 0 114.5 32t84.5 87z" glyph-name="aacute" horiz-adv-x="940" unicode="á"/><glyph d="M621 1139l-144 207l-135 -207h-109l162 295h166l168 -295h-108zM637 0v102q-92 -127 -260 -127q-125 0 -213 89.5t-88 240.5q0 150 87 237t214 87q174 0 260 -123v158q0 96 -51 148t-146 52q-133 0 -247 -116l-72 122q137 143 348 144q160 0 252 -81t92 -249v-684h-176z M637 217v168q-31 55 -84 87t-115 32q-84 0 -134 -57.5t-50 -145.5t50 -145.5t134 -57.5q61 0 114.5 32t84.5 87z" glyph-name="acircumflex" horiz-adv-x="940" unicode="â"/><glyph d="M444 1241q-41 72 -73 72q-76 0 -76 -166h-98q0 123 47 198.5t133 75.5q35 0 62.5 -18.5t40 -35.5t32.5 -52q45 -72 76 -72q76 0 76 166h98q0 -123 -47 -198.5t-133 -75.5q-35 0 -64 19.5t-40 34.5t-34 52zM637 0v102q-92 -127 -260 -127q-125 0 -213 89.5t-88 240.5 q0 150 87 237t214 87q174 0 260 -123v158q0 96 -51 148t-146 52q-133 0 -247 -116l-72 122q137 143 348 144q160 0 252 -81t92 -249v-684h-176zM637 217v168q-31 55 -84 87t-115 32q-84 0 -134 -57.5t-50 -145.5t50 -145.5t134 -57.5q61 0 114.5 32t84.5 87z" glyph-name="atilde" horiz-adv-x="940" unicode="ã"/><glyph d="M295 1161q-43 0 -74 30t-31 73t31 73.5t74 30.5t72.5 -30.5t29.5 -73.5t-29.5 -73t-72.5 -30zM657 1161q-41 0 -71.5 30t-30.5 73t30.5 73.5t71.5 30.5q43 0 74 -30.5t31 -73.5t-31 -73t-74 -30zM637 0v102q-92 -127 -260 -127q-125 0 -213 89.5t-88 240.5q0 150 87 237 t214 87q174 0 260 -123v158q0 96 -51 148t-146 52q-133 0 -247 -116l-72 122q137 143 348 144q160 0 252 -81t92 -249v-684h-176zM637 217v168q-31 55 -84 87t-115 32q-84 0 -134 -57.5t-50 -145.5t50 -145.5t134 -57.5q61 0 114.5 32t84.5 87z" glyph-name="adieresis" horiz-adv-x="940" unicode="ä"/><glyph d="M289 1298.5q0 77.5 56 133t132 55.5q78 0 133.5 -55.5t55.5 -133t-55.5 -134t-133.5 -56.5t-133 56.5t-55 134zM580 1298q0 41 -30 72t-73 31q-41 0 -71.5 -31t-30.5 -72q0 -43 30.5 -73.5t71.5 -30.5q43 0 73 30.5t30 73.5zM637 0v102q-92 -127 -260 -127 q-125 0 -213 89.5t-88 240.5q0 150 87 237t214 87q174 0 260 -123v158q0 96 -51 148t-146 52q-133 0 -247 -116l-72 122q137 143 348 144q160 0 252 -81t92 -249v-684h-176zM637 217v168q-31 55 -84 87t-115 32q-84 0 -134 -57.5t-50 -145.5t50 -145.5t134 -57.5 q61 0 114.5 32t84.5 87z" glyph-name="aring" horiz-adv-x="940" unicode="å"/><glyph d="M840 438q6 -141 72.5 -229t183.5 -88q127 0 215 117l88 -109q-131 -154 -318 -154q-217 0 -325 195q-47 -86 -136.5 -140.5t-201.5 -54.5q-152 0 -247 87.5t-95 239t89 239.5t224 88q182 0 279 -121v156q0 96 -55.5 148t-155.5 52q-147 0 -264 -116l-72 122 q141 143 352 144q113 0 189.5 -49.5t103.5 -135.5q102 184 297 185q182 0 281.5 -147.5t99.5 -379.5v-49h-604zM1272 563q0 121 -52.5 213t-162.5 92q-106 0 -160.5 -93t-58.5 -212h434zM668 385q-74 119 -217 119q-88 0 -142.5 -52.5t-54.5 -140.5q0 -90 53 -141t144 -51 q92 0 154.5 68.5t62.5 160.5v37z" glyph-name="ae" horiz-adv-x="1515" unicode="æ"/><glyph d="M516 131q109 0 184 96l93 -118q-94 -123 -263 -134l-34 -88q29 23 67 23q53 0 89 -38t36 -95q0 -76 -57.5 -123t-143.5 -47q-111 0 -188 61l41 82q66 -57 143 -57q43 0 75 23.5t32 62.5q0 61 -66 61q-39 0 -63 -30l-74 43l47 127q-162 27 -259 169t-97 347 q0 225 115.5 371.5t306.5 146.5q188 0 293 -133l-93 -119q-74 96 -184 96q-121 0 -188.5 -103.5t-67.5 -259t67.5 -260t188.5 -104.5z" glyph-name="ccedilla" horiz-adv-x="841" unicode="ç"/><glyph d="M430 1139l-274 295h170l227 -295h-123zM78 496q0 221 112.5 369.5t301.5 148.5q190 0 295.5 -147.5t105.5 -377.5v-51h-635q6 -141 78 -229t194 -88q135 0 228 115l90 -107q-133 -154 -334 -154q-199 0 -317.5 145t-118.5 376zM489 868q-113 0 -170 -93t-63 -212h465 q-2 121 -59.5 213t-172.5 92z" glyph-name="egrave" horiz-adv-x="964" unicode="è"/><glyph d="M549 1139h-123l227 295h170zM78 496q0 221 112.5 369.5t301.5 148.5q190 0 295.5 -147.5t105.5 -377.5v-51h-635q6 -141 78 -229t194 -88q135 0 228 115l90 -107q-133 -154 -334 -154q-199 0 -317.5 145t-118.5 376zM489 868q-113 0 -170 -93t-63 -212h465 q-2 121 -59.5 213t-172.5 92z" glyph-name="eacute" horiz-adv-x="964" unicode="é"/><glyph d="M635 1139l-143 207l-136 -207h-108l162 295h165l168 -295h-108zM78 496q0 221 112.5 369.5t301.5 148.5q190 0 295.5 -147.5t105.5 -377.5v-51h-635q6 -141 78 -229t194 -88q135 0 228 115l90 -107q-133 -154 -334 -154q-199 0 -317.5 145t-118.5 376zM489 868 q-113 0 -170 -93t-63 -212h465q-2 121 -59.5 213t-172.5 92z" glyph-name="ecircumflex" horiz-adv-x="964" unicode="ê"/><glyph d="M309 1161q-43 0 -73.5 30t-30.5 73t30.5 73.5t73.5 30.5t73 -30.5t30 -73.5t-30 -73t-73 -30zM672 1161q-41 0 -72 30t-31 73t31 73.5t72 30.5q43 0 73.5 -30.5t30.5 -73.5t-30.5 -73t-73.5 -30zM78 496q0 221 112.5 369.5t301.5 148.5q190 0 295.5 -147.5t105.5 -377.5 v-51h-635q6 -141 78 -229t194 -88q135 0 228 115l90 -107q-133 -154 -334 -154q-199 0 -317.5 145t-118.5 376zM489 868q-113 0 -170 -93t-63 -212h465q-2 121 -59.5 213t-172.5 92z" glyph-name="edieresis" horiz-adv-x="964" unicode="ë"/><glyph d="M154 1139l-275 295h170l227 -295h-122zM127 0v989h176v-989h-176z" glyph-name="igrave" horiz-adv-x="430" unicode="ì"/><glyph d="M272 1139h-122l227 295h170zM127 0v989h176v-989h-176z" glyph-name="iacute" horiz-adv-x="430" unicode="í"/><glyph d="M358 1139l-143 207l-135 -207h-109l162 295h166l168 -295h-109zM127 0v989h176v-989h-176z" glyph-name="icircumflex" horiz-adv-x="430" unicode="î"/><glyph d="M33 1161q-43 0 -74 30t-31 73t31 73.5t74 30.5t72.5 -30.5t29.5 -73.5t-29.5 -73t-72.5 -30zM395 1161q-41 0 -71.5 30t-30.5 73t30.5 73.5t71.5 30.5q43 0 74 -30.5t31 -73.5t-31 -73t-74 -30zM127 0v989h176v-989h-176z" glyph-name="idieresis" horiz-adv-x="430" unicode="ï"/><glyph d="M651 1204q258 -330 258 -684q0 -244 -108.5 -394.5t-306.5 -150.5q-195 0 -305.5 143.5t-110.5 356.5t101.5 355.5t269.5 142.5q158 0 249 -156q-63 158 -198 318l-254 -113l-41 92l223 98q-55 59 -115 109l125 111q63 -57 150 -150l182 80l39 -88zM494 131 q115 0 174 99.5t59 244.5q0 143 -59.5 242.5t-173.5 99.5q-113 0 -172.5 -99.5t-59.5 -242.5q0 -145 59.5 -244.5t172.5 -99.5z" glyph-name="eth" horiz-adv-x="987" unicode="ð"/><glyph d="M455 1241q-41 72 -74 72q-76 0 -76 -166h-98q0 123 47 198.5t133 75.5q35 0 62.5 -18.5t40 -35.5t32.5 -52q45 -72 76 -72q76 0 76 166h98q0 -123 -47 -198.5t-133 -75.5q-35 0 -63.5 19.5t-39.5 34.5t-34 52zM670 0v688q0 170 -150 170q-68 0 -126 -43t-91 -104v-711 h-176v989h176v-137q45 68 123 115t164 47q254 0 254 -269v-745h-174z" glyph-name="ntilde" unicode="ñ"/><glyph d="M432 1139l-274 295h170l227 -295h-123zM493.5 -25q-196.5 0 -306 149.5t-109.5 371t109.5 370t306 148.5t306 -148.5t109.5 -370t-109.5 -371t-306 -149.5zM494 131q115 0 174 104.5t59 260.5q0 154 -59.5 258t-173.5 104q-113 0 -172.5 -104.5t-59.5 -258t59.5 -259 t172.5 -105.5z" glyph-name="ograve" horiz-adv-x="987" unicode="ò"/><glyph d="M551 1139h-123l227 295h170zM493.5 -25q-196.5 0 -306 149.5t-109.5 371t109.5 370t306 148.5t306 -148.5t109.5 -370t-109.5 -371t-306 -149.5zM494 131q115 0 174 104.5t59 260.5q0 154 -59.5 258t-173.5 104q-113 0 -172.5 -104.5t-59.5 -258t59.5 -259t172.5 -105.5z " glyph-name="oacute" horiz-adv-x="987" unicode="ó"/><glyph d="M637 1139l-143 207l-136 -207h-108l162 295h166l167 -295h-108zM493.5 -25q-196.5 0 -306 149.5t-109.5 371t109.5 370t306 148.5t306 -148.5t109.5 -370t-109.5 -371t-306 -149.5zM494 131q115 0 174 104.5t59 260.5q0 154 -59.5 258t-173.5 104q-113 0 -172.5 -104.5 t-59.5 -258t59.5 -259t172.5 -105.5z" glyph-name="ocircumflex" horiz-adv-x="987" unicode="ô"/><glyph d="M461 1241q-41 72 -74 72q-76 0 -76 -166h-98q0 123 47 198.5t133 75.5q35 0 62.5 -18.5t40 -35.5t32.5 -52q45 -72 76 -72q76 0 76 166h98q0 -123 -47 -198.5t-133 -75.5q-35 0 -63.5 19.5t-39.5 34.5t-34 52zM493.5 -25q-196.5 0 -306 149.5t-109.5 371t109.5 370 t306 148.5t306 -148.5t109.5 -370t-109.5 -371t-306 -149.5zM494 131q115 0 174 104.5t59 260.5q0 154 -59.5 258t-173.5 104q-113 0 -172.5 -104.5t-59.5 -258t59.5 -259t172.5 -105.5z" glyph-name="otilde" horiz-adv-x="987" unicode="õ"/><glyph d="M311 1161q-43 0 -73.5 30t-30.5 73t30.5 73.5t73.5 30.5t73 -30.5t30 -73.5t-30 -73t-73 -30zM674 1161q-41 0 -72 30t-31 73t31 73.5t72 30.5q43 0 73.5 -30.5t30.5 -73.5t-30.5 -73t-73.5 -30zM493.5 -25q-196.5 0 -306 149.5t-109.5 371t109.5 370t306 148.5 t306 -148.5t109.5 -370t-109.5 -371t-306 -149.5zM494 131q115 0 174 104.5t59 260.5q0 154 -59.5 258t-173.5 104q-113 0 -172.5 -104.5t-59.5 -258t59.5 -259t172.5 -105.5z" glyph-name="odieresis" horiz-adv-x="987" unicode="ö"/><glyph d="M455 926q-41 0 -71 29.5t-30 70.5t30 70.5t71 29.5t70.5 -29.5t29.5 -70.5t-29.5 -70.5t-70.5 -29.5zM59 631v119h789v-119h-789zM455 248q-41 0 -71 28.5t-30 69.5t30 72t71 31t70.5 -31t29.5 -72t-29.5 -69.5t-70.5 -28.5z" glyph-name="divide" horiz-adv-x="907" unicode="÷"/><glyph d="M797 868q113 -147 112 -372q0 -221 -109.5 -371t-305.5 -150q-137 0 -240 82l-39 -57h-113l84 127q-109 143 -108 369q0 221 109.5 369.5t306.5 148.5q135 0 235 -78l35 53h115zM262 496q0 -117 33 -207l340 508q-55 61 -141 61q-113 0 -172.5 -104t-59.5 -258zM494 131 q115 0 174 104.5t59 260.5q0 121 -37 213l-342 -510q58 -68 146 -68z" glyph-name="oslash" horiz-adv-x="987" unicode="ø"/><glyph d="M424 1139l-274 295h169l228 -295h-123zM670 0v133q-49 -68 -125 -113t-164 -45q-254 0 -254 267v747h176v-692q0 -166 150 -166q66 0 124 41t93 102v715h174v-989h-174z" glyph-name="ugrave" unicode="ù"/><glyph d="M543 1139h-123l227 295h170zM670 0v133q-49 -68 -125 -113t-164 -45q-254 0 -254 267v747h176v-692q0 -166 150 -166q66 0 124 41t93 102v715h174v-989h-174z" glyph-name="uacute" unicode="ú"/><glyph d="M629 1139l-144 207l-135 -207h-108l161 295h166l168 -295h-108zM670 0v133q-49 -68 -125 -113t-164 -45q-254 0 -254 267v747h176v-692q0 -166 150 -166q66 0 124 41t93 102v715h174v-989h-174z" glyph-name="ucircumflex" unicode="û"/><glyph d="M303 1161q-43 0 -73.5 30t-30.5 73t30.5 73.5t73.5 30.5t73 -30.5t30 -73.5t-30 -73t-73 -30zM666 1161q-41 0 -72 30t-31 73t31 73.5t72 30.5q43 0 73.5 -30.5t30.5 -73.5t-30.5 -73t-73.5 -30zM670 0v133q-49 -68 -125 -113t-164 -45q-254 0 -254 267v747h176v-692 q0 -166 150 -166q66 0 124 41t93 102v715h174v-989h-174z" glyph-name="udieresis" unicode="ü"/><glyph d="M485 1139h-123l228 295h170zM113 -231q27 -14 63 -15q82 0 115 90l47 136l-330 1009h189l231 -776l236 776h186l-393 -1186q-37 -113 -101.5 -158.5t-167.5 -45.5q-61 0 -104 14z" glyph-name="yacute" horiz-adv-x="858" unicode="ý"/><glyph d="M303 135v-512h-176v1743h176v-510q90 158 256 158t262.5 -140.5t96.5 -378t-96.5 -379t-262.5 -141.5q-168 0 -256 160zM735 496q0 158 -58.5 260t-166.5 102q-61 0 -119.5 -43t-87.5 -104v-430q29 -61 87.5 -105.5t119.5 -44.5q109 0 167 102.5t58 262.5z" glyph-name="thorn" horiz-adv-x="995" unicode="þ"/><glyph d="M246 1161q-43 0 -74 30t-31 73t31 73.5t74 30.5t72.5 -30.5t29.5 -73.5t-29.5 -73t-72.5 -30zM608 1161q-41 0 -71.5 30t-30.5 73t30.5 73.5t71.5 30.5q43 0 74 -30.5t31 -73.5t-31 -73t-74 -30zM113 -231q27 -14 63 -15q82 0 115 90l47 136l-330 1009h189l231 -776 l236 776h186l-393 -1186q-37 -113 -101.5 -158.5t-167.5 -45.5q-61 0 -104 14z" glyph-name="ydieresis" horiz-adv-x="858" unicode="ÿ"/><glyph d="M266 1509v109h535v-109h-535zM858 0l-80 289h-485l-80 -289h-203l408 1366h233l410 -1366h-203zM535 1186l-201 -725h403z" glyph-name="Amacron" horiz-adv-x="1071" unicode="Ā"/><glyph d="M209 1167v109h534v-109h-534zM637 0v102q-92 -127 -260 -127q-125 0 -213 89.5t-88 240.5q0 150 87 237t214 87q174 0 260 -123v158q0 96 -51 148t-146 52q-133 0 -247 -116l-72 122q137 143 348 144q160 0 252 -81t92 -249v-684h-176zM637 217v168q-31 55 -84 87 t-115 32q-84 0 -134 -57.5t-50 -145.5t50 -145.5t134 -57.5q61 0 114.5 32t84.5 87z" glyph-name="amacron" horiz-adv-x="940" unicode="ā"/><glyph d="M535 1470q-90 0 -170 41t-134 113l86 68q78 -113 218 -113q141 0 217 113l86 -68q-113 -154 -303 -154zM858 0l-80 289h-485l-80 -289h-203l408 1366h233l410 -1366h-203zM535 1186l-201 -725h403z" glyph-name="Abreve" horiz-adv-x="1071" unicode="Ă"/><glyph d="M477 1128q-90 0 -170 41t-133 113l86 68q78 -113 217 -113q141 0 217 113l86 -68q-113 -154 -303 -154zM637 0v102q-92 -127 -260 -127q-125 0 -213 89.5t-88 240.5q0 150 87 237t214 87q174 0 260 -123v158q0 96 -51 148t-146 52q-133 0 -247 -116l-72 122 q137 143 348 144q160 0 252 -81t92 -249v-684h-176zM637 217v168q-31 55 -84 87t-115 32q-84 0 -134 -57.5t-50 -145.5t50 -145.5t134 -57.5q61 0 114.5 32t84.5 87z" glyph-name="abreve" horiz-adv-x="940" unicode="ă"/><glyph d="M1032 0q-180 -80 -180 -182q0 -35 20.5 -53.5t53.5 -18.5q35 0 61 16l45 -108q-53 -35 -145 -35q-80 0 -134.5 40t-54.5 114q0 135 197 227h-37l-80 289h-485l-80 -289h-203l408 1366h233l410 -1366h-29zM334 461h403l-202 725z" glyph-name="Aogonek" horiz-adv-x="1071" unicode="Ą"/><glyph d="M813 0q-180 -80 -180 -182q0 -35 20.5 -53.5t53.5 -18.5q35 0 61 16l45 -108q-51 -35 -145 -35q-80 0 -134.5 40t-54.5 114q0 135 197 227h-39v102q-92 -127 -260 -127q-125 0 -213 89.5t-88 240.5q0 150 87 237t214 87q174 0 260 -123v158q0 96 -51 148t-146 52 q-133 0 -247 -116l-72 122q137 143 348 144q160 0 252 -81t92 -249v-684zM637 217v168q-31 55 -84 87t-115 32q-84 0 -134 -57.5t-50 -145.5t50 -145.5t134 -57.5q61 0 114.5 32t84.5 87z" glyph-name="aogonek" horiz-adv-x="940" unicode="ą"/><glyph d="M684 1481h-123l227 295h170zM627 -25q-244 0 -391.5 198t-147.5 509t147.5 509t391.5 198q279 0 422 -285l-162 -74q-88 184 -260 184q-154 0 -247 -149.5t-93 -382.5t93 -382.5t247 -149.5q178 0 260 200l164 -74q-143 -301 -424 -301z" glyph-name="Cacute" horiz-adv-x="1105" unicode="Ć"/><glyph d="M545 1139h-123l227 295h170zM78 496q0 225 115.5 371.5t306.5 146.5q188 0 293 -133l-93 -119q-74 96 -184 96q-121 0 -188.5 -103.5t-67.5 -259t67.5 -260t188.5 -104.5q109 0 184 96l93 -118q-102 -133 -293 -133.5t-306.5 146.5t-115.5 374z" glyph-name="cacute" horiz-adv-x="841" unicode="ć"/><glyph d="M770 1481l-143 207l-135 -207h-109l162 295h166l168 -295h-109zM627 -25q-244 0 -391.5 198t-147.5 509t147.5 509t391.5 198q279 0 422 -285l-162 -74q-88 184 -260 184q-154 0 -247 -149.5t-93 -382.5t93 -382.5t247 -149.5q178 0 260 200l164 -74q-143 -301 -424 -301 z" glyph-name="Ccircumflex" horiz-adv-x="1105" unicode="Ĉ"/><glyph d="M631 1139l-144 207l-135 -207h-108l162 295h165l168 -295h-108zM78 496q0 225 115.5 371.5t306.5 146.5q188 0 293 -133l-93 -119q-74 96 -184 96q-121 0 -188.5 -103.5t-67.5 -259t67.5 -260t188.5 -104.5q109 0 184 96l93 -118q-102 -133 -293 -133.5t-306.5 146.5 t-115.5 374z" glyph-name="ccircumflex" horiz-adv-x="841" unicode="ĉ"/><glyph d="M522 1604q0 43 32 73.5t73 30.5q43 0 73.5 -30.5t30.5 -73.5q0 -45 -30.5 -75t-73.5 -30t-74 31t-31 74zM627 -25q-244 0 -391.5 198t-147.5 509t147.5 509t391.5 198q279 0 422 -285l-162 -74q-88 184 -260 184q-154 0 -247 -149.5t-93 -382.5t93 -382.5t247 -149.5 q178 0 260 200l164 -74q-143 -301 -424 -301z" glyph-name="Cdotaccent" horiz-adv-x="1105" unicode="Ċ"/><glyph d="M383 1262q0 43 31.5 73.5t72.5 30.5q43 0 74 -30.5t31 -73.5q0 -45 -31 -75t-74 -30t-73.5 31t-30.5 74zM78 496q0 225 115.5 371.5t306.5 146.5q188 0 293 -133l-93 -119q-74 96 -184 96q-121 0 -188.5 -103.5t-67.5 -259t67.5 -260t188.5 -104.5q109 0 184 96l93 -118 q-102 -133 -293 -133.5t-306.5 146.5t-115.5 374z" glyph-name="cdotaccent" horiz-adv-x="841" unicode="ċ"/><glyph d="M545 1481l-168 295h108l142 -209l137 209h108l-161 -295h-166zM627 -25q-244 0 -391.5 198t-147.5 509t147.5 509t391.5 198q279 0 422 -285l-162 -74q-88 184 -260 184q-154 0 -247 -149.5t-93 -382.5t93 -382.5t247 -149.5q178 0 260 200l164 -74q-143 -301 -424 -301z " glyph-name="Ccaron" horiz-adv-x="1105" unicode="Č"/><glyph d="M406 1139l-168 295h108l141 -209l138 209h108l-162 -295h-165zM78 496q0 225 115.5 371.5t306.5 146.5q188 0 293 -133l-93 -119q-74 96 -184 96q-121 0 -188.5 -103.5t-67.5 -259t67.5 -260t188.5 -104.5q109 0 184 96l93 -118q-102 -133 -293 -133.5t-306.5 146.5 t-115.5 374z" glyph-name="ccaron" horiz-adv-x="841" unicode="č"/><glyph d="M506 1481l-168 295h108l142 -209l137 209h109l-162 -295h-166zM137 0v1366h385q264 0 413.5 -190.5t149.5 -493.5q0 -305 -148.5 -493.5t-412.5 -188.5h-387zM332 172h190q174 0 268.5 141.5t94.5 368.5q0 231 -93.5 371.5t-269.5 140.5h-190v-1022z" glyph-name="Dcaron" horiz-adv-x="1173" unicode="Ď"/><glyph d="M1030 969l-72 55q47 31 82 81t39 93q-6 -2 -24 -2q-39 0 -64.5 26.5t-25.5 67.5t29.5 72t70.5 31q49 0 83 -39t34 -105q0 -84 -42 -158.5t-110 -121.5zM694 0v135q-45 -74 -113.5 -117t-144.5 -43q-166 0 -262 140.5t-96 378.5q0 236 96 378t262 142q164 0 258 -162v514 h174v-1366h-174zM694 279v430q-29 61 -87 105t-122 44q-109 0 -167 -102.5t-58 -261.5q0 -158 58.5 -260.5t166.5 -102.5q63 0 121.5 43.5t87.5 104.5z" glyph-name="dcaron" horiz-adv-x="1171" unicode="ď"/><glyph d="M571 1366q264 0 413 -190.5t149 -493.5q0 -305 -148.5 -493.5t-413.5 -188.5h-385v602h-155v146h155v618h385zM571 172q172 0 267.5 141.5t95.5 368.5q0 231 -94.5 371.5t-268.5 140.5h-190v-446h248v-146h-248v-430h190z" glyph-name="Dcroat" horiz-adv-x="1222" unicode="Đ"/><glyph d="M981 1202v-108h-113v-1094h-174v135q-45 -74 -113.5 -117t-144.5 -43q-166 0 -262 140.5t-96 378.5q0 236 96 378t262 142q164 0 258 -162v242h-280v108h280v164h174v-164h113zM694 279v430q-29 61 -87 105t-122 44q-109 0 -167 -102.5t-58 -261.5q0 -158 58.5 -260.5 t166.5 -102.5q63 0 121.5 43.5t87.5 104.5z" glyph-name="dcroat" horiz-adv-x="999" unicode="đ"/><glyph d="M242 1509v109h534v-109h-534zM137 0v1366h725v-172h-530v-412h516v-172h-516v-438h530v-172h-725z" glyph-name="Emacron" horiz-adv-x="954" unicode="Ē"/><glyph d="M223 1167v109h535v-109h-535zM78 496q0 221 112.5 369.5t301.5 148.5q190 0 295.5 -147.5t105.5 -377.5v-51h-635q6 -141 78 -229t194 -88q135 0 228 115l90 -107q-133 -154 -334 -154q-199 0 -317.5 145t-118.5 376zM489 868q-113 0 -170 -93t-63 -212h465 q-2 121 -59.5 213t-172.5 92z" glyph-name="emacron" horiz-adv-x="964" unicode="ē"/><glyph d="M510 1470q-90 0 -170 41t-133 113l86 68q78 -113 217 -113q141 0 217 113l86 -68q-113 -154 -303 -154zM137 0v1366h725v-172h-530v-412h516v-172h-516v-438h530v-172h-725z" glyph-name="Ebreve" horiz-adv-x="954" unicode="Ĕ"/><glyph d="M492 1128q-90 0 -170 41t-134 113l86 68q78 -113 218 -113q141 0 217 113l86 -68q-113 -154 -303 -154zM78 496q0 221 112.5 369.5t301.5 148.5q190 0 295.5 -147.5t105.5 -377.5v-51h-635q6 -141 78 -229t194 -88q135 0 228 115l90 -107q-133 -154 -334 -154 q-199 0 -317.5 145t-118.5 376zM489 868q-113 0 -170 -93t-63 -212h465q-2 121 -59.5 213t-172.5 92z" glyph-name="ebreve" horiz-adv-x="964" unicode="ĕ"/><glyph d="M406 1604q0 43 31.5 73.5t72.5 30.5q43 0 73.5 -30.5t30.5 -73.5q0 -45 -30.5 -75t-73.5 -30t-73.5 31t-30.5 74zM137 0v1366h725v-172h-530v-412h516v-172h-516v-438h530v-172h-725z" glyph-name="Edotaccent" horiz-adv-x="954" unicode="Ė"/><glyph d="M387 1262q0 43 32 73.5t73 30.5q43 0 73.5 -30.5t30.5 -73.5q0 -45 -30.5 -75t-73.5 -30t-74 31t-31 74zM78 496q0 221 112.5 369.5t301.5 148.5q190 0 295.5 -147.5t105.5 -377.5v-51h-635q6 -141 78 -229t194 -88q135 0 228 115l90 -107q-133 -154 -334 -154 q-199 0 -317.5 145t-118.5 376zM489 868q-113 0 -170 -93t-63 -212h465q-2 121 -59.5 213t-172.5 92z" glyph-name="edotaccent" horiz-adv-x="964" unicode="ė"/><glyph d="M862 1194h-530v-412h516v-172h-516v-438h530v-172q-180 -80 -180 -182q0 -35 20.5 -53.5t53.5 -18.5q35 0 61 16l45 -108q-51 -35 -145 -35q-80 0 -134.5 40t-54.5 114q0 135 197 227h-588v1366h725v-172z" glyph-name="Eogonek" horiz-adv-x="954" unicode="Ę"/><glyph d="M514 -25q-199 0 -317.5 144.5t-118.5 376.5q0 221 112.5 369.5t301.5 148.5q190 0 295.5 -147.5t105.5 -377.5v-51h-635q6 -141 78 -229t194 -88q135 0 228 115l90 -107q-209 -203 -209 -303q0 -39 21.5 -59.5t54.5 -20.5q35 0 61 16l45 -108q-57 -35 -145 -35 q-82 0 -135.5 40t-53.5 114q0 115 140 217q-58 -15 -113 -15zM489 868q-113 0 -170 -93t-63 -212h465q-2 121 -59.5 213t-172.5 92z" glyph-name="eogonek" horiz-adv-x="964" unicode="ę"/><glyph d="M428 1481l-168 295h109l141 -209l137 209h109l-162 -295h-166zM137 0v1366h725v-172h-530v-412h516v-172h-516v-438h530v-172h-725z" glyph-name="Ecaron" horiz-adv-x="954" unicode="Ě"/><glyph d="M410 1139l-168 295h108l142 -209l137 209h108l-162 -295h-165zM78 496q0 221 112.5 369.5t301.5 148.5q190 0 295.5 -147.5t105.5 -377.5v-51h-635q6 -141 78 -229t194 -88q135 0 228 115l90 -107q-133 -154 -334 -154q-199 0 -317.5 145t-118.5 376zM489 868 q-113 0 -170 -93t-63 -212h465q-2 121 -59.5 213t-172.5 92z" glyph-name="ecaron" horiz-adv-x="964" unicode="ě"/><glyph d="M774 1481l-143 207l-135 -207h-109l162 295h166l168 -295h-109zM88 682q0 317 149.5 512t393.5 195q279 0 420 -275l-158 -78q-90 178 -262 178q-154 0 -249 -146t-95 -386t95 -387.5t249 -147.5q150 0 243 107v287h-307v172h492v-533q-168 -207 -428 -207 q-244 0 -393.5 196t-149.5 513z" glyph-name="Gcircumflex" horiz-adv-x="1165" unicode="Ĝ"/><glyph d="M649 1139l-143 207l-135 -207h-109l162 295h166l168 -295h-109zM119 -276l78 137q98 -113 256 -113q104 0 171.5 63.5t67.5 194.5v152q-43 -76 -111.5 -120t-144.5 -44q-166 0 -262 137t-96 373q0 233 96 371.5t262 138.5q76 0 144.5 -42t111.5 -120v137h176v-971 q0 -117 -33.5 -201.5t-93 -130.5t-129 -66.5t-153.5 -20.5q-209 0 -340 125zM692 299v410q-27 61 -85 105t-122 44q-109 0 -167 -98t-58 -256q0 -160 57.5 -257t167.5 -97q63 0 121.5 44t85.5 105z" glyph-name="gcircumflex" horiz-adv-x="995" unicode="ĝ"/><glyph d="M631 1470q-90 0 -170 41t-133 113l86 68q78 -113 217 -113q141 0 217 113l86 -68q-113 -154 -303 -154zM88 682q0 317 149.5 512t393.5 195q279 0 420 -275l-158 -78q-90 178 -262 178q-154 0 -249 -146t-95 -386t95 -387.5t249 -147.5q150 0 243 107v287h-307v172h492 v-533q-168 -207 -428 -207q-244 0 -393.5 196t-149.5 513z" glyph-name="Gbreve" horiz-adv-x="1165" unicode="Ğ"/><glyph d="M506 1128q-90 0 -170 41t-133 113l86 68q78 -113 217 -113q141 0 217 113l86 -68q-113 -154 -303 -154zM119 -276l78 137q98 -113 256 -113q104 0 171.5 63.5t67.5 194.5v152q-43 -76 -111.5 -120t-144.5 -44q-166 0 -262 137t-96 373q0 233 96 371.5t262 138.5 q76 0 144.5 -42t111.5 -120v137h176v-971q0 -117 -33.5 -201.5t-93 -130.5t-129 -66.5t-153.5 -20.5q-209 0 -340 125zM692 299v410q-27 61 -85 105t-122 44q-109 0 -167 -98t-58 -256q0 -160 57.5 -257t167.5 -97q63 0 121.5 44t85.5 105z" glyph-name="gbreve" horiz-adv-x="995" unicode="ğ"/><glyph d="M526 1604q0 43 32 73.5t73 30.5q43 0 73.5 -30.5t30.5 -73.5q0 -45 -30.5 -75t-73.5 -30t-74 31t-31 74zM88 682q0 317 149.5 512t393.5 195q279 0 420 -275l-158 -78q-90 178 -262 178q-154 0 -249 -146t-95 -386t95 -387.5t249 -147.5q150 0 243 107v287h-307v172h492 v-533q-168 -207 -428 -207q-244 0 -393.5 196t-149.5 513z" glyph-name="Gdotaccent" horiz-adv-x="1165" unicode="Ġ"/><glyph d="M401 1262q0 43 32 73.5t73 30.5q43 0 73.5 -30.5t30.5 -73.5q0 -45 -30.5 -75t-73.5 -30t-74 31t-31 74zM119 -276l78 137q98 -113 256 -113q104 0 171.5 63.5t67.5 194.5v152q-43 -76 -111.5 -120t-144.5 -44q-166 0 -262 137t-96 373q0 233 96 371.5t262 138.5 q76 0 144.5 -42t111.5 -120v137h176v-971q0 -117 -33.5 -201.5t-93 -130.5t-129 -66.5t-153.5 -20.5q-209 0 -340 125zM692 299v410q-27 61 -85 105t-122 44q-109 0 -167 -98t-58 -256q0 -160 57.5 -257t167.5 -97q63 0 121.5 44t85.5 105z" glyph-name="gdotaccent" horiz-adv-x="995" unicode="ġ"/><glyph d="M88 682q0 317 149.5 512t393.5 195q279 0 420 -275l-158 -78q-90 178 -262 178q-154 0 -249 -146t-95 -386t95 -387.5t249 -147.5q150 0 243 107v287h-307v172h492v-533q-168 -207 -428 -207q-244 0 -393.5 196t-149.5 513zM596 -563l-72 55q47 31 82 81t39 93 q-6 -2 -24 -2q-39 0 -65 26.5t-26 67.5t30 72t71 31q49 0 83 -39t34 -105q0 -84 -42 -158.5t-110 -121.5z" glyph-name="Gcommaaccent" horiz-adv-x="1165" unicode="Ģ"/><glyph d="M539 1559l71 -58q-45 -29 -80.5 -77t-37.5 -93q4 2 10 2q37 0 67.5 -28.5t30.5 -67.5q0 -41 -29.5 -71.5t-72.5 -30.5t-75 32.5t-32 96.5q0 90 41 170t107 125zM119 -276l78 137q98 -113 256 -113q104 0 171.5 63.5t67.5 194.5v152q-43 -76 -111.5 -120t-144.5 -44 q-166 0 -262 137t-96 373q0 233 96 371.5t262 138.5q76 0 144.5 -42t111.5 -120v137h176v-971q0 -117 -33.5 -201.5t-93 -130.5t-129 -66.5t-153.5 -20.5q-209 0 -340 125zM692 299v410q-27 61 -85 105t-122 44q-109 0 -167 -98t-58 -256q0 -160 57.5 -257t167.5 -97 q63 0 121.5 44t85.5 105z" glyph-name="gcommaaccent" horiz-adv-x="995" unicode="ģ"/><glyph d="M741 1481l-143 207l-135 -207h-109l162 295h166l168 -295h-109zM862 0v616h-530v-616h-195v1366h195v-578h530v578h197v-1366h-197z" glyph-name="Hcircumflex" horiz-adv-x="1193" unicode="Ĥ"/><glyph d="M631 1481l-144 207l-135 -207h-108l162 295h165l168 -295h-108zM670 0v692q0 166 -150 166q-66 0 -125 -43t-92 -104v-711h-176v1366h176v-514q45 66 124 114t165 48q254 0 254 -266v-748h-176z" glyph-name="hcircumflex" unicode="ĥ"/><glyph d="M1223 1130v-108h-136v-1022h-194v616h-531v-616h-194v1022h-137v108h137v236h194v-236h531v236h194v-236h136zM893 788v234h-531v-234h531z" glyph-name="Hbar" horiz-adv-x="1253" unicode="Ħ"/><glyph d="M608 1014q254 0 254 -266v-748h-176v692q0 166 -149 166q-66 0 -125.5 -43t-92.5 -104v-711h-176v1094h-114v108h114v164h176v-164h277v-108h-277v-242q45 66 124 114t165 48z" glyph-name="hbar" horiz-adv-x="989" unicode="ħ"/><glyph d="M203 1583q-41 72 -74 72q-76 0 -76 -166h-98q0 123 47 198.5t133 75.5q35 0 62.5 -18.5t40 -35.5t32.5 -52q45 -72 76 -72q76 0 76 166h98q0 -123 -47 -198.5t-133 -75.5q-35 0 -63.5 19.5t-39.5 34.5t-34 52zM137 0v1366h195v-1366h-195z" glyph-name="Itilde" horiz-adv-x="468" unicode="Ĩ"/><glyph d="M182 1241q-41 72 -73 72q-76 0 -76 -166h-99q0 123 47.5 198.5t133.5 75.5q35 0 62.5 -18.5t39.5 -35.5t33 -52q45 -72 76 -72q76 0 75 166h99q0 -123 -47 -198.5t-134 -75.5q-35 0 -63.5 19.5t-39.5 34.5t-34 52zM127 0v989h176v-989h-176z" glyph-name="itilde" horiz-adv-x="430" unicode="ĩ"/><glyph d="M-33 1509v109h535v-109h-535zM137 0v1366h195v-1366h-195z" glyph-name="Imacron" horiz-adv-x="468" unicode="Ī"/><glyph d="M-53 1167v109h534v-109h-534zM127 0v989h176v-989h-176z" glyph-name="imacron" horiz-adv-x="430" unicode="ī"/><glyph d="M236 1470q-90 0 -170 41t-134 113l86 68q78 -113 218 -113q141 0 217 113l86 -68q-113 -154 -303 -154zM137 0v1366h195v-1366h-195z" glyph-name="Ibreve" horiz-adv-x="468" unicode="Ĭ"/><glyph d="M215 1128q-90 0 -170 41t-133 113l86 68q78 -113 217 -113q141 0 217 113l86 -68q-113 -154 -303 -154zM127 0v989h176v-989h-176z" glyph-name="ibreve" horiz-adv-x="430" unicode="ĭ"/><glyph d="M332 0q-180 -80 -180 -182q0 -35 20.5 -53.5t52.5 -18.5q35 0 62 16l45 -108q-53 -35 -146 -35q-80 0 -134 40t-54 114q0 135 197 227h-58v1366h195v-1366z" glyph-name="Iogonek" horiz-adv-x="468" unicode="Į"/><glyph d="M215 1155q-47 0 -81 33t-34 80t34 80.5t81 33.5t81 -33.5t34 -80.5t-34 -80t-81 -33zM127 0v989h176v-989q-180 -80 -180 -182q0 -35 20.5 -53.5t53.5 -18.5q35 0 61 16l45 -108q-51 -35 -145 -35q-80 0 -134.5 40t-54.5 114q0 135 197 227h-39z" glyph-name="iogonek" horiz-adv-x="430" unicode="į"/><glyph d="M131 1604q0 43 32 73.5t73 30.5q43 0 73.5 -30.5t30.5 -73.5q0 -45 -30.5 -75t-73.5 -30t-74 31t-31 74zM137 0v1366h195v-1366h-195z" glyph-name="Idotaccent" horiz-adv-x="468" unicode="İ"/><glyph d="M127 0v989h176v-989h-176z" glyph-name="dotlessi" horiz-adv-x="430" unicode="ı"/><glyph d="M137 0v1366h195v-1366h-195zM485 94l82 152q82 -96 191 -96q98 0 152.5 57t54.5 162v997h194v-1004q0 -193 -104.5 -290t-280.5 -97t-289 119z" glyph-name="IJ" horiz-adv-x="1296" unicode="Ĳ"/><glyph d="M215 1155q-47 0 -81 33t-34 80t34 80.5t81 33.5t81 -33.5t34 -80.5t-34 -80t-81 -33zM645 1155q-47 0 -81 33t-34 80t34 80.5t81 33.5t81 -33.5t34 -80.5t-34 -80t-81 -33zM127 0v989h176v-989h-176zM733 989v-1106q0 -139 -66.5 -211.5t-191.5 -72.5q-53 0 -96 12 l22 149q25 -8 50 -8q106 0 106 131v1106h176z" glyph-name="ij" horiz-adv-x="860" unicode="ĳ"/><glyph d="M737 1481l-143 207l-135 -207h-109l162 295h166l168 -295h-109zM16 94l82 152q82 -96 191 -96q98 0 152.5 57t54.5 162v997h194v-1004q0 -193 -104.5 -290t-280.5 -97t-289 119z" glyph-name="Jcircumflex" horiz-adv-x="827" unicode="Ĵ"/><glyph d="M358 1139l-143 207l-135 -207h-109l162 295h166l168 -295h-109zM-51 -389l22 149q25 -8 49 -8q106 0 107 131v1106h176v-1106q0 -139 -66.5 -211.5t-191.5 -72.5q-53 0 -96 12z" glyph-name="jcircumflex" horiz-adv-x="430" unicode="ĵ"/><glyph d="M815 0l-375 584l-108 -162v-422h-195v1366h195v-684l450 684h230l-451 -647l488 -719h-234zM518 -563l-72 55q47 31 82 81t39 93q-6 -2 -24 -2q-39 0 -64.5 26.5t-25.5 67.5t29.5 72t70.5 31q49 0 83 -39t34 -105q0 -84 -42 -158.5t-110 -121.5z" glyph-name="Kcommaaccent" horiz-adv-x="1069" unicode="Ķ"/><glyph d="M684 0l-252 430l-129 -170v-260h-176v1366h176v-889l379 512h207l-336 -444l338 -545h-207zM428 -563l-72 55q47 31 82 81t39 93q-6 -2 -24 -2q-39 0 -65 26.5t-26 67.5t30 72t71 31q49 0 83 -39t34 -105q0 -84 -42 -158.5t-110 -121.5z" glyph-name="kcommaaccent" horiz-adv-x="915" unicode="ķ"/><glyph d="M684 0l-252 430l-129 -170v-260h-176v989h176v-512l379 512h207l-336 -444l338 -545h-207z" glyph-name="kgreenlandic" horiz-adv-x="915" unicode="ĸ"/><glyph d="M535 1481h-123l227 295h170zM137 0v1366h195v-1194h485v-172h-680z" glyph-name="Lacute" horiz-adv-x="876" unicode="Ĺ"/><glyph d="M272 1481h-122l227 295h170zM127 0v1366h176v-1366h-176z" glyph-name="lacute" horiz-adv-x="430" unicode="ĺ"/><glyph d="M137 0v1366h195v-1194h485v-172h-680zM442 -563l-71 55q47 31 81.5 81t39.5 93q-6 -2 -25 -2q-39 0 -64.5 26.5t-25.5 67.5t29.5 72t70.5 31q49 0 83 -39t34 -105q0 -84 -42 -158.5t-110 -121.5z" glyph-name="Lcommaaccent" horiz-adv-x="876" unicode="Ļ"/><glyph d="M127 0v1366h176v-1366h-176zM180 -563l-71 55q47 31 81.5 81t38.5 93q-6 -2 -24 -2q-39 0 -64.5 26.5t-25.5 67.5t29.5 72t70.5 31q49 0 83 -39t34 -105q0 -84 -42 -158.5t-110 -121.5z" glyph-name="lcommaaccent" horiz-adv-x="430" unicode="ļ"/><glyph d="M543 969l-72 55q47 31 82 81t39 93q-6 -2 -25 -2q-39 0 -64.5 26.5t-25.5 67.5t30 72t71 31q49 0 82.5 -39t33.5 -105q0 -84 -41.5 -158.5t-109.5 -121.5zM137 0v1366h195v-1194h485v-172h-680z" glyph-name="Lcaron" horiz-adv-x="876" unicode="Ľ"/><glyph d="M463 969l-72 55q47 31 82 81t39 93q-6 -2 -25 -2q-39 0 -64.5 26.5t-25.5 67.5t30 72t71 31q49 0 82.5 -39t33.5 -105q0 -84 -41.5 -158.5t-109.5 -121.5zM127 0v1366h176v-1366h-176z" glyph-name="lcaron" horiz-adv-x="600" unicode="ľ"/><glyph d="M137 0v1366h195v-1194h485v-172h-680zM688 575q-51 0 -87 37t-36 88q0 49 36 86t87 37t88 -36.5t37 -86.5q0 -51 -37 -88t-88 -37z" glyph-name="Ldot" horiz-adv-x="915" unicode="Ŀ"/><glyph d="M127 0v1366h176v-1366h-176zM538.5 377q-51.5 0 -87 37t-35.5 88q0 49 35.5 86t87 37t88.5 -37t37 -86q0 -51 -37 -88t-88.5 -37z" glyph-name="ldot" horiz-adv-x="651" unicode="ŀ"/><glyph d="M362 172h486v-172h-680v543l-137 -80v166l137 80v657h194v-545l154 88v-166l-154 -88v-483z" glyph-name="Lslash" horiz-adv-x="907" unicode="Ł"/><glyph d="M502 893v-135l-148 -86v-672h-176v571l-147 -86v138l147 84v659h176v-557z" glyph-name="lslash" horiz-adv-x="532" unicode="ł"/><glyph d="M653 1481h-123l228 295h170zM868 0l-536 999v-999h-195v1366h197l526 -969v969h195v-1366h-187z" glyph-name="Nacute" horiz-adv-x="1191" unicode="Ń"/><glyph d="M545 1139h-123l227 295h170zM670 0v688q0 170 -150 170q-68 0 -126 -43t-91 -104v-711h-176v989h176v-137q45 68 123 115t164 47q254 0 254 -269v-745h-174z" glyph-name="nacute" unicode="ń"/><glyph d="M868 0l-536 999v-999h-195v1366h197l526 -969v969h195v-1366h-187zM569 -563l-71 55q47 31 81.5 81t38.5 93q-6 -2 -24 -2q-39 0 -64.5 26.5t-25.5 67.5t29.5 72t70.5 31q49 0 83 -39t34 -105q0 -84 -42 -158.5t-110 -121.5z" glyph-name="Ncommaaccent" horiz-adv-x="1191" unicode="Ņ"/><glyph d="M670 0v688q0 170 -150 170q-68 0 -126 -43t-91 -104v-711h-176v989h176v-137q45 68 123 115t164 47q254 0 254 -269v-745h-174zM453 -563l-72 55q47 31 82 81t39 93q-6 -2 -25 -2q-39 0 -64.5 26.5t-25.5 67.5t29.5 72t70.5 31q49 0 83 -39t34 -105q0 -84 -41.5 -158.5 t-109.5 -121.5z" glyph-name="ncommaaccent" unicode="ņ"/><glyph d="M514 1481l-168 295h109l141 -209l137 209h109l-162 -295h-166zM868 0l-536 999v-999h-195v1366h197l526 -969v969h195v-1366h-187z" glyph-name="Ncaron" horiz-adv-x="1191" unicode="Ň"/><glyph d="M406 1139l-168 295h108l141 -209l138 209h108l-162 -295h-165zM670 0v688q0 170 -150 170q-68 0 -126 -43t-91 -104v-711h-176v989h176v-137q45 68 123 115t164 47q254 0 254 -269v-745h-174z" glyph-name="ncaron" unicode="ň"/><glyph d="M166 1108l-72 55q47 31 82 81t39 93q-6 -2 -25 -2q-39 0 -64.5 27t-25.5 67.5t30 71.5t71 31q49 0 82.5 -39t33.5 -104q0 -84 -41.5 -159t-109.5 -122zM670 0v688q0 170 -150 170q-68 0 -126 -43t-91 -104v-711h-176v989h176v-137q45 68 123 115t164 47q254 0 254 -269 v-745h-174z" glyph-name="napostrophe" unicode="ŉ"/><glyph d="M860 1366h195v-1380q0 -193 -104.5 -290t-278.5 -97q-178 0 -291 118l82 152q78 -98 192 -98q94 0 149.5 57t55.5 160v16l-528 995v-999h-195v1366h197l526 -969v969z" glyph-name="Eng" horiz-adv-x="1191" unicode="Ŋ"/><glyph d="M844 -117q0 -139 -65.5 -211.5t-190.5 -72.5q-55 0 -99 12l23 149q29 -8 51 -8q106 0 107 131v805q0 170 -150 170q-68 0 -126 -43t-91 -104v-711h-176v989h176v-137q45 68 123 115t164 47q254 0 254 -269v-862z" glyph-name="eng" unicode="ŋ"/><glyph d="M350 1509v109h535v-109h-535zM88 682q0 309 141.5 508t389 199t391 -199t143.5 -508t-143.5 -508t-391 -199t-389 199t-141.5 508zM952 682q0 233 -88 382.5t-246 149.5q-156 0 -243.5 -149.5t-87.5 -382.5q0 -231 88 -381.5t243.5 -150.5t244.5 150.5t89 381.5z" glyph-name="Omacron" horiz-adv-x="1241" unicode="Ō"/><glyph d="M225 1167v109h535v-109h-535zM493.5 -25q-196.5 0 -306 149.5t-109.5 371t109.5 370t306 148.5t306 -148.5t109.5 -370t-109.5 -371t-306 -149.5zM494 131q115 0 174 104.5t59 260.5q0 154 -59.5 258t-173.5 104q-113 0 -172.5 -104.5t-59.5 -258t59.5 -259t172.5 -105.5 z" glyph-name="omacron" horiz-adv-x="987" unicode="ō"/><glyph d="M618 1470q-90 0 -169.5 41t-133.5 113l86 68q78 -113 217 -113q141 0 218 113l86 -68q-114 -154 -304 -154zM88 682q0 309 141.5 508t389 199t391 -199t143.5 -508t-143.5 -508t-391 -199t-389 199t-141.5 508zM952 682q0 233 -88 382.5t-246 149.5q-156 0 -243.5 -149.5 t-87.5 -382.5q0 -231 88 -381.5t243.5 -150.5t244.5 150.5t89 381.5z" glyph-name="Obreve" horiz-adv-x="1241" unicode="Ŏ"/><glyph d="M494 1128q-90 0 -170 41t-134 113l86 68q78 -113 218 -113q141 0 217 113l86 -68q-113 -154 -303 -154zM493.5 -25q-196.5 0 -306 149.5t-109.5 371t109.5 370t306 148.5t306 -148.5t109.5 -370t-109.5 -371t-306 -149.5zM494 131q115 0 174 104.5t59 260.5 q0 154 -59.5 258t-173.5 104q-113 0 -172.5 -104.5t-59.5 -258t59.5 -259t172.5 -105.5z" glyph-name="obreve" horiz-adv-x="987" unicode="ŏ"/><glyph d="M528 1481h-102l152 295h147zM799 1481h-103l152 295h147zM88 682q0 309 141.5 508t389 199t391 -199t143.5 -508t-143.5 -508t-391 -199t-389 199t-141.5 508zM952 682q0 233 -88 382.5t-246 149.5q-156 0 -243.5 -149.5t-87.5 -382.5q0 -231 88 -381.5t243.5 -150.5 t244.5 150.5t89 381.5z" glyph-name="Ohungarumlaut" horiz-adv-x="1241" unicode="Ő"/><glyph d="M403 1139h-102l152 295h147zM674 1139h-103l152 295h147zM493.5 -25q-196.5 0 -306 149.5t-109.5 371t109.5 370t306 148.5t306 -148.5t109.5 -370t-109.5 -371t-306 -149.5zM494 131q115 0 174 104.5t59 260.5q0 154 -59.5 258t-173.5 104q-113 0 -172.5 -104.5 t-59.5 -258t59.5 -259t172.5 -105.5z" glyph-name="ohungarumlaut" horiz-adv-x="987" unicode="ő"/><glyph d="M928 0v174q-53 -100 -144.5 -149.5t-189.5 -49.5q-236 0 -371 199t-135 508t135 506.5t371 197.5q98 0 189 -48t145 -146v174h725v-172h-531v-412h516v-172h-516v-438h531v-172h-725zM928 948q-39 127 -119 195.5t-186 68.5q-160 0 -248 -147t-88 -383q0 -233 88 -382.5 t248 -149.5q104 0 185 68.5t120 197.5v532z" glyph-name="OE" horiz-adv-x="1744" unicode="Œ"/><glyph d="M905 438q6 -141 77 -229t194 -88q137 0 229 115l88 -107q-131 -154 -332 -154q-240 0 -344 240q-98 -240 -323 -240q-197 0 -306.5 149.5t-109.5 371t109.5 370t306.5 148.5q225 0 323 -236q41 100 122 168t200 68q190 0 294.5 -147.5t104.5 -379.5v-49h-633zM1368 563 q-2 121 -59.5 213t-173.5 92q-111 0 -168.5 -93t-61.5 -212h463zM494 858q-113 0 -172.5 -103.5t-59.5 -259t59.5 -261t172 -105.5t173 105.5t60.5 261t-59 259t-174 103.5z" glyph-name="oe" horiz-adv-x="1609" unicode="œ"/><glyph d="M588 1481h-123l227 295h170zM762 0l-248 530h-182v-530h-195v1366h445q172 0 279.5 -113.5t107.5 -302.5q0 -168 -77 -265t-187 -122l276 -563h-219zM768 948.5q0 110.5 -57.5 178t-155.5 67.5h-223v-492h223q98 0 155.5 68t57.5 178.5z" glyph-name="Racute" horiz-adv-x="1067" unicode="Ŕ"/><glyph d="M403 1139h-122l227 295h170zM127 0v989h176v-151q106 174 277 174v-178q-25 6 -52 6q-63 0 -127.5 -44t-97.5 -106v-690h-176z" glyph-name="racute" horiz-adv-x="612" unicode="ŕ"/><glyph d="M762 0l-248 530h-182v-530h-195v1366h445q172 0 279.5 -113.5t107.5 -302.5q0 -168 -77 -265t-187 -122l276 -563h-219zM768 948.5q0 110.5 -57.5 178t-155.5 67.5h-223v-492h223q98 0 155.5 68t57.5 178.5zM496 -563l-72 55q47 31 82 81t39 93q-6 -2 -25 -2 q-39 0 -64.5 26.5t-25.5 67.5t29.5 72t70.5 31q49 0 83 -39t34 -105q0 -84 -41.5 -158.5t-109.5 -121.5z" glyph-name="Rcommaaccent" horiz-adv-x="1067" unicode="Ŗ"/><glyph d="M127 0v989h176v-151q106 174 277 174v-178q-25 6 -52 6q-63 0 -127.5 -44t-97.5 -106v-690h-176zM182 -563l-71 55q47 31 81.5 81t38.5 93q-6 -2 -24 -2q-39 0 -64.5 26.5t-25.5 67.5t29.5 72t70.5 31q49 0 83 -39t34 -105q0 -84 -42 -158.5t-110 -121.5z" glyph-name="rcommaaccent" horiz-adv-x="612" unicode="ŗ"/><glyph d="M449 1481l-168 295h108l141 -209l138 209h108l-162 -295h-165zM762 0l-248 530h-182v-530h-195v1366h445q172 0 279.5 -113.5t107.5 -302.5q0 -168 -77 -265t-187 -122l276 -563h-219zM768 948.5q0 110.5 -57.5 178t-155.5 67.5h-223v-492h223q98 0 155.5 68t57.5 178.5z " glyph-name="Rcaron" horiz-adv-x="1067" unicode="Ř"/><glyph d="M264 1139l-168 295h109l141 -209l137 209h109l-162 -295h-166zM127 0v989h176v-151q106 174 277 174v-178q-25 6 -52 6q-63 0 -127.5 -44t-97.5 -106v-690h-176z" glyph-name="rcaron" horiz-adv-x="612" unicode="ř"/><glyph d="M543 1481h-123l227 295h170zM53 147l101 152q127 -150 321 -149q113 0 173.5 58t60.5 144q0 49 -19.5 88t-62.5 71t-78 51.5t-100 49.5q-59 27 -85 40.5t-79.5 43t-79 56t-56 66.5t-44 90t-13.5 110q0 160 115 265.5t295 105.5q231 0 377 -146l-99 -147 q-111 119 -284 118q-90 0 -147.5 -51t-57.5 -135q0 -41 17.5 -74.5t60.5 -63.5t72.5 -46.5t95.5 -46.5q70 -33 106.5 -51.5t95 -59.5t89 -81t54 -102.5t23.5 -137.5q0 -168 -111.5 -279t-316.5 -111q-266 0 -424 172z" glyph-name="Sacute" horiz-adv-x="978" unicode="Ś"/><glyph d="M461 1139h-123l227 295h170zM49 115l82 125q109 -123 264 -123q82 0 129 36.5t47 100t-49 100.5t-147 76q-55 20 -85 32.5t-77 40t-70.5 56.5t-43 76t-19.5 104q0 117 88 196t240 79q190 0 313 -127l-78 -121q-82 106 -233 106q-74 0 -119 -34.5t-45 -87.5 q0 -39 29.5 -71t61.5 -48.5t97 -42.5q70 -27 110 -45.5t92 -56t77.5 -93t25.5 -129.5q0 -127 -93 -208t-249 -81q-225 1 -348 140z" glyph-name="sacute" horiz-adv-x="806" unicode="ś"/><glyph d="M629 1481l-144 207l-135 -207h-108l161 295h166l168 -295h-108zM53 147l101 152q127 -150 321 -149q113 0 173.5 58t60.5 144q0 49 -19.5 88t-62.5 71t-78 51.5t-100 49.5q-59 27 -85 40.5t-79.5 43t-79 56t-56 66.5t-44 90t-13.5 110q0 160 115 265.5t295 105.5 q231 0 377 -146l-99 -147q-111 119 -284 118q-90 0 -147.5 -51t-57.5 -135q0 -41 17.5 -74.5t60.5 -63.5t72.5 -46.5t95.5 -46.5q70 -33 106.5 -51.5t95 -59.5t89 -81t54 -102.5t23.5 -137.5q0 -168 -111.5 -279t-316.5 -111q-266 0 -424 172z" glyph-name="Scircumflex" horiz-adv-x="978" unicode="Ŝ"/><glyph d="M547 1139l-144 207l-135 -207h-108l162 295h165l168 -295h-108zM49 115l82 125q109 -123 264 -123q82 0 129 36.5t47 100t-49 100.5t-147 76q-55 20 -85 32.5t-77 40t-70.5 56.5t-43 76t-19.5 104q0 117 88 196t240 79q190 0 313 -127l-78 -121q-82 106 -233 106 q-74 0 -119 -34.5t-45 -87.5q0 -39 29.5 -71t61.5 -48.5t97 -42.5q70 -27 110 -45.5t92 -56t77.5 -93t25.5 -129.5q0 -127 -93 -208t-249 -81q-225 1 -348 140z" glyph-name="scircumflex" horiz-adv-x="806" unicode="ŝ"/><glyph d="M905 365q0 -156 -97 -264.5t-280 -123.5l-34 -90q29 23 67 23q53 0 89 -38t36 -95q0 -76 -57.5 -123t-143.5 -47q-113 0 -188 61l41 82q66 -57 143 -57q43 0 75 23.5t32 62.5q0 61 -66 61q-39 0 -63 -30l-74 43l47 124q-238 14 -379 170l101 152q127 -150 321 -149 q113 0 173.5 58t60.5 144q0 49 -19.5 88t-62.5 71t-78 51.5t-100 49.5q-59 27 -85 40.5t-79.5 43t-79 56t-56 66.5t-44 90t-13.5 110q0 160 115 265.5t295 105.5q231 0 377 -146l-99 -147q-111 119 -284 118q-90 0 -147.5 -51t-57.5 -135q0 -41 17.5 -74.5t60.5 -63.5 t72.5 -46.5t95.5 -46.5q70 -33 106.5 -51.5t95 -59.5t89 -81t54 -102t23.5 -138z" glyph-name="Scedilla" horiz-adv-x="978" unicode="Ş"/><glyph d="M739 264q0 -117 -78.5 -194.5t-214.5 -92.5l-34 -90q29 23 67 23q53 0 89 -38t36 -95q0 -76 -57.5 -123t-143.5 -47q-113 0 -188 61l41 82q66 -57 143 -57q43 0 75 23.5t32 62.5q0 61 -66 61q-39 0 -63 -30l-74 43l47 124q-188 12 -301 138l82 125q109 -123 264 -123 q82 0 129 36.5t47 100t-49 100.5t-147 76q-55 20 -85 32.5t-77 40t-70.5 56.5t-43 76t-19.5 104q0 117 88 196t240 79q190 0 313 -127l-78 -121q-82 106 -233 106q-74 0 -119 -34.5t-45 -87.5q0 -39 29.5 -71t61.5 -48.5t97 -42.5q70 -27 110 -45.5t92 -56t77.5 -93 t25.5 -129.5z" glyph-name="scedilla" horiz-adv-x="806" unicode="ş"/><glyph d="M403 1481l-167 295h108l141 -209l138 209h108l-162 -295h-166zM53 147l101 152q127 -150 321 -149q113 0 173.5 58t60.5 144q0 49 -19.5 88t-62.5 71t-78 51.5t-100 49.5q-59 27 -85 40.5t-79.5 43t-79 56t-56 66.5t-44 90t-13.5 110q0 160 115 265.5t295 105.5 q231 0 377 -146l-99 -147q-111 119 -284 118q-90 0 -147.5 -51t-57.5 -135q0 -41 17.5 -74.5t60.5 -63.5t72.5 -46.5t95.5 -46.5q70 -33 106.5 -51.5t95 -59.5t89 -81t54 -102.5t23.5 -137.5q0 -168 -111.5 -279t-316.5 -111q-266 0 -424 172z" glyph-name="Scaron" horiz-adv-x="978" unicode="Š"/><glyph d="M322 1139l-168 295h108l141 -209l138 209h108l-162 -295h-165zM49 115l82 125q109 -123 264 -123q82 0 129 36.5t47 100t-49 100.5t-147 76q-55 20 -85 32.5t-77 40t-70.5 56.5t-43 76t-19.5 104q0 117 88 196t240 79q190 0 313 -127l-78 -121q-82 106 -233 106 q-74 0 -119 -34.5t-45 -87.5q0 -39 29.5 -71t61.5 -48.5t97 -42.5q70 -27 110 -45.5t92 -56t77.5 -93t25.5 -129.5q0 -127 -93 -208t-249 -81q-225 1 -348 140z" glyph-name="scaron" horiz-adv-x="806" unicode="š"/><glyph d="M367 0v1194h-318v172h832v-172h-320v-1194h-194zM430 -563l-72 55q47 31 82 81t39 93q-6 -2 -24 -2q-39 0 -64.5 26.5t-25.5 67.5t29.5 72t70.5 31q49 0 83 -39t34 -105q0 -84 -42 -158.5t-110 -121.5z" glyph-name="Tcommaaccent" horiz-adv-x="929" unicode="Ţ"/><glyph d="M375 -25q-213 0 -213 234v627h-131v153h131v271h174v-271h166v-153h-166v-592q0 -113 78 -113q53 0 84 35l45 -131q-59 -60 -168 -60zM250 -563l-72 55q47 31 82 81t39 93q-6 -2 -25 -2q-39 0 -64.5 26.5t-25.5 67.5t30 72t71 31q49 0 82.5 -39t33.5 -105 q0 -84 -41.5 -158.5t-109.5 -121.5z" glyph-name="tcommaaccent" horiz-adv-x="559" unicode="ţ"/><glyph d="M383 1481l-168 295h109l141 -209l137 209h109l-162 -295h-166zM367 0v1194h-318v172h832v-172h-320v-1194h-194z" glyph-name="Tcaron" horiz-adv-x="929" unicode="Ť"/><glyph d="M510 1108l-72 55q47 31 82 81t39 93q-6 -2 -24 -2q-39 0 -65 27t-26 67.5t30 71.5t71 31q49 0 83 -39t34 -104q0 -84 -42 -159t-110 -122zM375 -25q-213 0 -213 234v627h-131v153h131v271h174v-271h166v-153h-166v-592q0 -113 78 -113q53 0 84 35l45 -131 q-59 -60 -168 -60z" glyph-name="tcaron" horiz-adv-x="618" unicode="ť"/><glyph d="M881 1194h-320v-496h223v-108h-223v-590h-194v590h-224v108h224v496h-318v172h832v-172z" glyph-name="Tbar" horiz-adv-x="929" unicode="Ŧ"/><glyph d="M498 166l45 -131q-59 -59 -168 -60q-213 0 -213 234v248h-131v108h131v271h-131v153h131v271h174v-271h166v-153h-166v-271h106v-108h-106v-213q0 -113 78 -113q53 0 84 35z" glyph-name="tbar" horiz-adv-x="559" unicode="ŧ"/><glyph d="M561 1583q-41 72 -74 72q-76 0 -75 -166h-99q0 123 47.5 198.5t133.5 75.5q35 0 62.5 -18.5t39.5 -35.5t33 -52q45 -72 76 -72q76 0 75 166h99q0 -123 -47.5 -198.5t-133.5 -75.5q-35 0 -63.5 19.5t-39.5 34.5t-34 52zM137 451v915h195v-917q0 -145 68.5 -223.5 t193.5 -78.5t193.5 78t68.5 224v917h195v-915q0 -227 -121 -351.5t-336 -124.5t-336 124.5t-121 351.5z" glyph-name="Utilde" horiz-adv-x="1187" unicode="Ũ"/><glyph d="M453 1241q-41 72 -74 72q-76 0 -76 -166h-98q0 123 47 198.5t133 75.5q35 0 62.5 -18.5t40 -35.5t32.5 -52q45 -72 76 -72q76 0 76 166h98q0 -123 -47 -198.5t-133 -75.5q-35 0 -63.5 19.5t-39.5 34.5t-34 52zM670 0v133q-49 -68 -125 -113t-164 -45q-254 0 -254 267v747 h176v-692q0 -166 150 -166q66 0 124 41t93 102v715h174v-989h-174z" glyph-name="utilde" unicode="ũ"/><glyph d="M326 1509v109h534v-109h-534zM137 451v915h195v-917q0 -145 68.5 -223.5t193.5 -78.5t193.5 78t68.5 224v917h195v-915q0 -227 -121 -351.5t-336 -124.5t-336 124.5t-121 351.5z" glyph-name="Umacron" horiz-adv-x="1187" unicode="Ū"/><glyph d="M217 1167v109h535v-109h-535zM670 0v133q-49 -68 -125 -113t-164 -45q-254 0 -254 267v747h176v-692q0 -166 150 -166q66 0 124 41t93 102v715h174v-989h-174z" glyph-name="umacron" unicode="ū"/><glyph d="M594 1470q-90 0 -170 41t-133 113l86 68q78 -113 217 -113q141 0 217 113l86 -68q-113 -154 -303 -154zM137 451v915h195v-917q0 -145 68.5 -223.5t193.5 -78.5t193.5 78t68.5 224v917h195v-915q0 -227 -121 -351.5t-336 -124.5t-336 124.5t-121 351.5z" glyph-name="Ubreve" horiz-adv-x="1187" unicode="Ŭ"/><glyph d="M485 1128q-90 0 -169.5 41t-133.5 113l86 68q78 -113 217 -113q141 0 217 113l86 -68q-113 -154 -303 -154zM670 0v133q-49 -68 -125 -113t-164 -45q-254 0 -254 267v747h176v-692q0 -166 150 -166q66 0 124 41t93 102v715h174v-989h-174z" glyph-name="ubreve" unicode="ŭ"/><glyph d="M406 1640q0 76 55 132.5t133 56.5t133 -55.5t55 -133t-55 -134t-133 -56.5t-133 56t-55 134zM696 1640q0 41 -29.5 72t-72.5 31q-41 0 -71.5 -31t-30.5 -72q0 -43 30.5 -73.5t71.5 -30.5q43 0 72.5 30.5t29.5 73.5zM137 451v915h195v-917q0 -145 68.5 -223.5t193.5 -78.5 t193.5 78t68.5 224v917h195v-915q0 -227 -121 -351.5t-336 -124.5t-336 124.5t-121 351.5z" glyph-name="Uring" horiz-adv-x="1187" unicode="Ů"/><glyph d="M297 1298.5q0 77.5 56.5 133t131.5 55.5q78 0 133.5 -55.5t55.5 -133t-55.5 -134t-133 -56.5t-133 56.5t-55.5 134zM588 1298q0 41 -30 72t-73 31q-41 0 -71.5 -31t-30.5 -72q0 -43 30.5 -73.5t71.5 -30.5q43 0 73 30.5t30 73.5zM670 0v133q-49 -68 -125 -113t-164 -45 q-254 0 -254 267v747h176v-692q0 -166 150 -166q66 0 124 41t93 102v715h174v-989h-174z" glyph-name="uring" unicode="ů"/><glyph d="M504 1481h-103l152 295h147zM774 1481h-102l151 295h148zM137 451v915h195v-917q0 -145 68.5 -223.5t193.5 -78.5t193.5 78t68.5 224v917h195v-915q0 -227 -121 -351.5t-336 -124.5t-336 124.5t-121 351.5z" glyph-name="Uhungarumlaut" horiz-adv-x="1187" unicode="Ű"/><glyph d="M395 1139h-102l151 295h148zM666 1139h-103l152 295h147zM670 0v133q-49 -68 -125 -113t-164 -45q-254 0 -254 267v747h176v-692q0 -166 150 -166q66 0 124 41t93 102v715h174v-989h-174z" glyph-name="uhungarumlaut" unicode="ű"/><glyph d="M137 451v915h195v-917q0 -145 68.5 -223.5t193.5 -78.5t193.5 78t68.5 224v917h195v-915q0 -326 -238 -428q-201 -104 -201 -205q0 -35 20.5 -53.5t53.5 -18.5q35 0 62 16l45 -108q-51 -35 -146 -35q-80 0 -134 40t-54 114q0 123 151 202h-16q-215 0 -336 124.5 t-121 351.5z" glyph-name="Uogonek" horiz-adv-x="1187" unicode="Ų"/><glyph d="M844 0q-180 -80 -180 -182q0 -35 20.5 -53.5t52.5 -18.5q35 0 62 16l45 -108q-51 -35 -146 -35q-80 0 -134 40t-54 114q0 135 197 227h-37v133q-49 -68 -125 -113t-164 -45q-254 0 -254 267v747h176v-692q0 -166 150 -166q66 0 124 41t93 102v715h174v-989z" glyph-name="uogonek" unicode="ų"/><glyph d="M891 1481l-143 207l-136 -207h-108l162 295h165l168 -295h-108zM956 0l-208 1030l-209 -1030h-205l-307 1366h209l210 -1067l222 1067h159l224 -1067l209 1067h208l-305 -1366h-207z" glyph-name="Wcircumflex" horiz-adv-x="1495" unicode="Ŵ"/><glyph d="M811 1139l-143 207l-136 -207h-108l162 295h166l168 -295h-109zM868 0l-200 760l-201 -760h-182l-265 989h183l182 -756l199 756h164l200 -756l185 756h184l-266 -989h-183z" glyph-name="wcircumflex" horiz-adv-x="1335" unicode="ŵ"/><glyph d="M666 1481l-144 207l-135 -207h-108l161 295h166l168 -295h-108zM426 0v573l-422 793h217l301 -608l303 608h215l-419 -793v-573h-195z" glyph-name="Ycircumflex" horiz-adv-x="1044" unicode="Ŷ"/><glyph d="M571 1139l-143 207l-135 -207h-109l162 295h166l168 -295h-109zM113 -231q27 -14 63 -15q82 0 115 90l47 136l-330 1009h189l231 -776l236 776h186l-393 -1186q-37 -113 -101.5 -158.5t-167.5 -45.5q-61 0 -104 14z" glyph-name="ycircumflex" horiz-adv-x="858" unicode="ŷ"/><glyph d="M340 1503q-43 0 -73.5 30t-30.5 73t30.5 73.5t73.5 30.5t72.5 -30.5t29.5 -73.5t-29.5 -73t-72.5 -30zM702 1503q-41 0 -71.5 30t-30.5 73t31 73.5t71 30.5q43 0 74 -30.5t31 -73.5t-31 -73t-74 -30zM426 0v573l-422 793h217l301 -608l303 608h215l-419 -793v-573h-195z " glyph-name="Ydieresis" horiz-adv-x="1044" unicode="Ÿ"/><glyph d="M537 1481h-123l227 295h170zM80 0v164l551 1030h-551v172h784v-160l-553 -1034h568v-172h-799z" glyph-name="Zacute" horiz-adv-x="958" unicode="Ź"/><glyph d="M461 1139h-123l227 295h170zM84 0v135l410 701h-410v153h629v-131l-412 -704h420v-154h-637z" glyph-name="zacute" horiz-adv-x="804" unicode="ź"/><glyph d="M375 1604q0 43 31.5 73.5t72.5 30.5q43 0 74 -30.5t31 -73.5q0 -45 -31 -75t-74 -30t-73.5 31t-30.5 74zM80 0v164l551 1030h-551v172h784v-160l-553 -1034h568v-172h-799z" glyph-name="Zdotaccent" horiz-adv-x="958" unicode="Ż"/><glyph d="M299 1262q0 43 31.5 73.5t72.5 30.5q43 0 74 -30.5t31 -73.5q0 -45 -31 -75t-74 -30t-73.5 31t-30.5 74zM84 0v135l410 701h-410v153h629v-131l-412 -704h420v-154h-637z" glyph-name="zdotaccent" horiz-adv-x="804" unicode="ż"/><glyph d="M397 1481l-168 295h109l141 -209l137 209h109l-162 -295h-166zM80 0v164l551 1030h-551v172h784v-160l-553 -1034h568v-172h-799z" glyph-name="Zcaron" horiz-adv-x="958" unicode="Ž"/><glyph d="M322 1139l-168 295h108l141 -209l138 209h108l-162 -295h-165zM84 0v135l410 701h-410v153h629v-131l-412 -704h420v-154h-637z" glyph-name="zcaron" horiz-adv-x="804" unicode="ž"/><glyph d="M166 0v836h-129v153h129v107q0 135 69.5 212.5t184.5 77.5q82 0 139 -30l-39 -135q-29 16 -63 16q-53 0 -84 -37t-31 -104v-1096h-176z" glyph-name="longs" horiz-adv-x="540" unicode="ſ"/><glyph d="M565 1389q246 0 395.5 -195t149.5 -512t-145.5 -513t-380.5 -196q-254 0 -385 198t-131 558h839q-10 223 -103 354t-239 131q-172 0 -262 -178l-158 78q141 275 420 275zM571.5 147q133.5 0 220.5 111t109 299h-633q12 -176 91 -293t212.5 -117z" glyph-name="uni018F" horiz-adv-x="1196" unicode="Ə"/><glyph d="M41 -330l186 844h-112v156h147l96 442q27 123 117 198.5t207 75.5q113 0 174 -63l-74 -145q-31 37 -82 36q-55 0 -95 -37.5t-56 -105.5l-88 -401h223v-156h-258l-188 -844h-197z" glyph-name="florin" horiz-adv-x="831" unicode="ƒ"/><glyph d="M860 1366h195v-1366h-187l-536 999v-1013q0 -193 -104.5 -290t-278.5 -97q-61 0 -107 14l21 170q35 -10 69 -10q96 0 150.5 57t54.5 162v1374h197l526 -969v969z" glyph-name="uni019D" horiz-adv-x="1191" unicode="Ɲ"/><glyph d="M1198 1362q0 -158 -135 -260q90 -176 90 -420q0 -309 -143.5 -508t-391 -199t-389 199t-141.5 508t141.5 508t388.5 199q254 0 404 -215q74 68 84 141q-12 -4 -23 -4q-37 0 -61.5 25.5t-24.5 64.5t28 66.5t67 27.5q45 0 75.5 -36t30.5 -97zM618.5 150 q155.5 0 244.5 150.5t89 381.5q0 233 -88 382.5t-246 149.5q-156 0 -243.5 -149.5t-87.5 -382.5q0 -231 88 -381.5t243.5 -150.5z" glyph-name="Ohorn" horiz-adv-x="1241" unicode="Ơ"/><glyph d="M936 1087q0 -143 -119 -247q92 -137 92 -344q0 -221 -109.5 -371t-306 -150t-306 149.5t-109.5 371t109.5 370t306.5 148.5q166 0 272 -111q70 70 76 137q-6 -2 -23 -2q-37 0 -60.5 24.5t-23.5 63.5t28 67t66 28q43 0 75 -36.5t32 -97.5zM494 131q115 0 174 104.5 t59 260.5q0 154 -59.5 258t-173.5 104q-113 0 -172.5 -104.5t-59.5 -258t59.5 -259t172.5 -105.5z" glyph-name="ohorn" horiz-adv-x="987" unicode="ơ"/><glyph d="M1262 1491q0 -92 -55.5 -175t-155.5 -132v-733q0 -227 -121 -351.5t-336 -124.5t-336 124t-121 352v915h195v-917q0 -145 68.5 -223.5t193.5 -78.5t193.5 78t68.5 224v917h195v-92q47 29 80.5 78t37.5 94q-4 -4 -22 -4q-37 0 -60.5 24.5t-23.5 63.5t26.5 66.5t65.5 27.5 q45 0 76 -36t31 -97z" glyph-name="Uhorn" horiz-adv-x="1187" unicode="Ư"/><glyph d="M1012 1102q0 -80 -44 -156t-124 -127v-819h-174v133q-49 -68 -125 -113t-164 -45q-254 0 -254 267v747h176v-692q0 -166 150 -166q66 0 124 41t93 102v715h174v-67q68 63 74 135q-4 -4 -23 -4q-37 0 -60.5 24.5t-23.5 63.5t26.5 66.5t65.5 27.5q45 0 77 -36t32 -97z" glyph-name="uhorn" unicode="ư"/><glyph d="M549 1481l-168 295h108l142 -209l137 209h109l-162 -295h-166zM88 682q0 317 149.5 512t393.5 195q279 0 420 -275l-158 -78q-90 178 -262 178q-154 0 -249 -146t-95 -386t95 -387.5t249 -147.5q150 0 243 107v287h-307v172h492v-533q-168 -207 -428 -207 q-244 0 -393.5 196t-149.5 513z" glyph-name="Gcaron" horiz-adv-x="1165" unicode="Ǧ"/><glyph d="M424 1139l-168 295h109l141 -209l137 209h109l-162 -295h-166zM119 -276l78 137q98 -113 256 -113q104 0 171.5 63.5t67.5 194.5v152q-43 -76 -111.5 -120t-144.5 -44q-166 0 -262 137t-96 373q0 233 96 371.5t262 138.5q76 0 144.5 -42t111.5 -120v137h176v-971 q0 -117 -33.5 -201.5t-93 -130.5t-129 -66.5t-153.5 -20.5q-209 0 -340 125zM692 299v410q-27 61 -85 105t-122 44q-109 0 -167 -98t-58 -256q0 -160 57.5 -257t167.5 -97q63 0 121.5 44t85.5 105z" glyph-name="gcaron" horiz-adv-x="995" unicode="ǧ"/><glyph d="M752 -8q-164 -76 -164 -174q0 -35 20.5 -53.5t53.5 -18.5q35 0 61 16l45 -108q-51 -35 -145 -35q-80 0 -134.5 40t-54.5 114q0 117 152 202q-233 14 -365.5 211t-132.5 496q0 309 141.5 508t389 199t391 -199t143.5 -508q0 -264 -105.5 -450.5t-295.5 -239.5zM287 682 q0 -231 88 -381.5t243.5 -150.5t244.5 150.5t89 381.5q0 233 -88 382.5t-246 149.5q-156 0 -243.5 -149.5t-87.5 -382.5z" glyph-name="uni01EA" horiz-adv-x="1241" unicode="Ǫ"/><glyph d="M618 -6q-168 -76 -167 -176q0 -35 20.5 -53.5t52.5 -18.5q35 0 62 16l45 -108q-53 -35 -146 -35q-80 0 -134 40t-54 114q0 117 154 204q-176 18 -274.5 165t-98.5 354q0 221 109.5 369.5t306 148.5t306 -148.5t109.5 -369.5q0 -180 -76 -317.5t-215 -184.5zM262 495.5 q0 -153.5 59.5 -259t172.5 -105.5q115 0 174 104.5t59 260.5q0 154 -59.5 258t-173.5 104q-113 0 -172.5 -104.5t-59.5 -258z" glyph-name="uni01EB" horiz-adv-x="987" unicode="ǫ"/><glyph d="M592 1894h-123l227 295h170zM346 1640q0 76 56.5 132.5t132.5 56.5q78 0 133 -55.5t55 -133t-55.5 -134t-133 -56.5t-133 56t-55.5 134zM637 1640q0 41 -29.5 72t-72.5 31q-41 0 -72 -31t-31 -72q0 -43 31 -73.5t72 -30.5q43 0 72.5 30.5t29.5 73.5zM858 0l-80 289h-485 l-80 -289h-203l408 1366h233l410 -1366h-203zM535 1186l-201 -725h403z" glyph-name="Aringacute" horiz-adv-x="1071" unicode="Ǻ"/><glyph d="M535 1552h-123l227 295h170zM289 1298.5q0 77.5 56 133t132 55.5q78 0 133.5 -55.5t55.5 -133t-55.5 -134t-133.5 -56.5t-133 56.5t-55 134zM580 1298q0 41 -30 72t-73 31q-41 0 -71.5 -31t-30.5 -72q0 -43 30.5 -73.5t71.5 -30.5q43 0 73 30.5t30 73.5zM637 0v102 q-92 -127 -260 -127q-125 0 -213 89.5t-88 240.5q0 150 87 237t214 87q174 0 260 -123v158q0 96 -51 148t-146 52q-133 0 -247 -116l-72 122q137 143 348 144q160 0 252 -81t92 -249v-684h-176zM637 217v168q-31 55 -84 87t-115 32q-84 0 -134 -57.5t-50 -145.5t50 -145.5 t134 -57.5q61 0 114.5 32t84.5 87z" glyph-name="aringacute" horiz-adv-x="940" unicode="ǻ"/><glyph d="M891 1481h-123l227 295h170zM741 0v289h-393l-131 -289h-203l648 1366h804v-172h-528v-412h514v-172h-514v-438h528v-172h-725zM741 1188l-321 -727h321v727z" glyph-name="AEacute" horiz-adv-x="1558" unicode="Ǽ"/><glyph d="M815 1139h-123l228 295h170zM840 438q6 -141 72.5 -229t183.5 -88q127 0 215 117l88 -109q-131 -154 -318 -154q-217 0 -325 195q-47 -86 -136.5 -140.5t-201.5 -54.5q-152 0 -247 87.5t-95 239t89 239.5t224 88q182 0 279 -121v156q0 96 -55.5 148t-155.5 52 q-147 0 -264 -116l-72 122q141 143 352 144q113 0 189.5 -49.5t103.5 -135.5q102 184 297 185q182 0 281.5 -147.5t99.5 -379.5v-49h-604zM1272 563q0 121 -52.5 213t-162.5 92q-106 0 -160.5 -93t-58.5 -212h434zM668 385q-74 119 -217 119q-88 0 -142.5 -52.5 t-54.5 -140.5q0 -90 53 -141t144 -51q92 0 154.5 68.5t62.5 160.5v37z" glyph-name="aeacute" horiz-adv-x="1515" unicode="ǽ"/><glyph d="M950 1776l-274 -295h-123l227 295h170zM987 1219q166 -197 166 -537q0 -309 -143.5 -508t-391.5 -199q-164 0 -284 93l-37 -68h-137l86 154q-158 195 -158 528q0 309 141.5 508t388.5 199q160 0 279 -86l37 63h137zM287 682q0 -201 65 -342l453 799q-76 76 -187 75 q-156 0 -243.5 -149.5t-87.5 -382.5zM618 150q156 0 245 150.5t89 381.5q0 207 -69 350l-455 -801q77 -81 190 -81z" glyph-name="Oslashacute" horiz-adv-x="1241" unicode="Ǿ"/><glyph d="M825 1434l-274 -295h-123l227 295h170zM797 868q113 -147 112 -372q0 -221 -109.5 -371t-305.5 -150q-137 0 -240 82l-39 -57h-113l84 127q-109 143 -108 369q0 221 109.5 369.5t306.5 148.5q135 0 235 -78l35 53h115zM262 496q0 -117 33 -207l340 508q-55 61 -141 61 q-113 0 -172.5 -104t-59.5 -258zM494 131q115 0 174 104.5t59 260.5q0 121 -37 213l-342 -510q58 -68 146 -68z" glyph-name="oslashacute" horiz-adv-x="987" unicode="ǿ"/><glyph d="M53 147l101 152q127 -150 321 -149q113 0 173.5 58t60.5 144q0 49 -19.5 88t-62.5 71t-78 51.5t-100 49.5q-59 27 -85 40.5t-79.5 43t-79 56t-56 66.5t-44 90t-13.5 110q0 160 115 265.5t295 105.5q231 0 377 -146l-99 -147q-111 119 -284 118q-90 0 -147.5 -51 t-57.5 -135q0 -41 17.5 -74.5t60.5 -63.5t72.5 -46.5t95.5 -46.5q70 -33 106.5 -51.5t95 -59.5t89 -81t54 -102.5t23.5 -137.5q0 -168 -111.5 -279t-316.5 -111q-266 0 -424 172zM451 -563l-72 55q47 31 82 81t39 93q-6 -2 -25 -2q-39 0 -64.5 26.5t-25.5 67.5t29.5 72 t70.5 31q49 0 83 -39t34 -105q0 -84 -41.5 -158.5t-109.5 -121.5z" glyph-name="Scommaaccent" horiz-adv-x="978" unicode="Ș"/><glyph d="M49 115l82 125q109 -123 264 -123q82 0 129 36.5t47 100t-49 100.5t-147 76q-55 20 -85 32.5t-77 40t-70.5 56.5t-43 76t-19.5 104q0 117 88 196t240 79q190 0 313 -127l-78 -121q-82 106 -233 106q-74 0 -119 -34.5t-45 -87.5q0 -39 29.5 -71t61.5 -48.5t97 -42.5 q70 -27 110 -45.5t92 -56t77.5 -93t25.5 -129.5q0 -127 -93 -208t-249 -81q-225 1 -348 140zM369 -563l-72 55q47 31 82 81t39 93q-6 -2 -25 -2q-39 0 -64.5 26.5t-25.5 67.5t29.5 72t70.5 31q49 0 83 -39t34 -105q0 -84 -41.5 -158.5t-109.5 -121.5z" glyph-name="scommaaccent" horiz-adv-x="806" unicode="ș"/><glyph d="M367 0v1194h-318v172h832v-172h-320v-1194h-194zM430 -563l-72 55q47 31 82 81t39 93q-6 -2 -24 -2q-39 0 -64.5 26.5t-25.5 67.5t29.5 72t70.5 31q49 0 83 -39t34 -105q0 -84 -42 -158.5t-110 -121.5z" glyph-name="uni021A" horiz-adv-x="929" unicode="Ț"/><glyph d="M375 -25q-213 0 -213 234v627h-131v153h131v271h174v-271h166v-153h-166v-592q0 -113 78 -113q53 0 84 35l45 -131q-59 -60 -168 -60zM250 -563l-72 55q47 31 82 81t39 93q-6 -2 -25 -2q-39 0 -64.5 26.5t-25.5 67.5t30 72t71 31q49 0 82.5 -39t33.5 -105 q0 -84 -41.5 -158.5t-109.5 -121.5z" glyph-name="uni021B" horiz-adv-x="559" unicode="ț"/><glyph d="M254 1509v109h534v-109h-534zM426 0v573l-422 793h217l301 -608l303 608h215l-419 -793v-573h-195z" glyph-name="uni0232" horiz-adv-x="1044" unicode="Ȳ"/><glyph d="M160 1167v109h534v-109h-534zM113 -231q27 -14 63 -15q82 0 115 90l47 136l-330 1009h189l231 -776l236 776h186l-393 -1186q-37 -113 -101.5 -158.5t-167.5 -45.5q-61 0 -104 14z" glyph-name="uni0233" horiz-adv-x="858" unicode="ȳ"/><glyph d="M-51 -389l22 149q25 -8 49 -8q106 0 107 131v1106h176v-1106q0 -139 -66.5 -211.5t-191.5 -72.5q-53 0 -96 12z" glyph-name="uni0237" horiz-adv-x="430" unicode="ȷ"/><glyph d="M887 494q0 -221 -112.5 -370t-301.5 -149q-190 0 -295.5 147.5t-105.5 377.5v51h635q-6 141 -78 229t-195 88q-135 0 -227 -114l-90 106q131 154 334 154q199 0 317.5 -144.5t118.5 -375.5zM475 121q113 0 170 93t64 212h-465q2 -121 59 -213t172 -92z" glyph-name="uni0259" horiz-adv-x="964" unicode="ə"/><glyph d="M590 1014q254 0 254 -269v-745h-174v688q0 170 -150 170q-68 0 -126 -43t-91 -104v-828q0 -139 -66.5 -211.5t-191.5 -72.5q-53 0 -96 12l22 149q25 -8 49 -8q106 0 107 131v1106h176v-137q45 68 123 115t164 47z" glyph-name="uni0272" unicode="ɲ"/><glyph d="M477 668v436q0 111 -102 110q-84 0 -142 -90v-456h-131v888h131v-333q31 43 85.5 73.5t113.5 30.5q178 0 178 -184v-475h-133z" glyph-name="uni02B0" horiz-adv-x="710" unicode="ʰ"/><glyph d="M276 1386l84 -67q-49 -31 -89 -86t-48 -105q2 0 12.5 2.5t16.5 2.5q47 0 77.5 -33t30.5 -82q0 -47 -34.5 -83t-85.5 -36q-57 0 -97.5 44t-40.5 122q0 96 48 181t126 140z" glyph-name="uni02BB" horiz-adv-x="483" unicode="ʻ"/><glyph d="M201 897l-84 68q49 33 89 88t48 104q-12 -6 -29 -6q-47 0 -77.5 33t-30.5 82t34.5 84.5t86.5 35.5q57 0 97 -44t40 -121q0 -96 -48 -182.5t-126 -141.5z" glyph-name="afii57929" horiz-adv-x="483" unicode="ʼ"/><glyph d="M387 1139l-143 207l-135 -207h-109l162 295h166l168 -295h-109z" glyph-name="circumflex" horiz-adv-x="495" unicode="ˆ"/><glyph d="M168 1139l-168 295h109l141 -209l137 209h109l-162 -295h-166z" glyph-name="caron" horiz-adv-x="495" unicode="ˇ"/><glyph d="M47 1167v109h535v-109h-535z" glyph-name="uni02C9" horiz-adv-x="628" unicode="ˉ"/><glyph d="M274 1139l-274 295h170l227 -295h-123z" glyph-name="uni02CB" horiz-adv-x="397" unicode="ˋ"/><glyph d="M303 1128q-90 0 -170 41t-133 113l86 68q78 -113 217 -113q141 0 217 113l86 -68q-113 -154 -303 -154z" glyph-name="breve" horiz-adv-x="606" unicode="˘"/><glyph d="M33 1262q0 43 31.5 73.5t72.5 30.5q43 0 74 -30.5t31 -73.5q0 -45 -31 -75t-74 -30t-73.5 31t-30.5 74z" glyph-name="dotaccent" horiz-adv-x="274" unicode="˙"/><glyph d="M41 1298.5q0 77.5 55.5 133t133 55.5t133 -55.5t55.5 -133t-55.5 -134t-133 -56.5t-133 56.5t-55.5 134zM332 1298q0 41 -30 72t-73 31q-41 0 -71.5 -31t-30.5 -72q0 -43 30.5 -73.5t71.5 -30.5q43 0 73 30.5t30 73.5z" glyph-name="ring" horiz-adv-x="458" unicode="˚"/><glyph d="M358 -346q-51 -35 -145 -35q-80 0 -134 40t-54 114q0 143 219 237l114 -10q-180 -80 -180 -182q0 -35 20.5 -53.5t53.5 -18.5q35 0 61 16z" glyph-name="ogonek" horiz-adv-x="382" unicode="˛"/><glyph d="M248 1241q-41 72 -74 72q-76 0 -76 -166h-98q0 123 47 198.5t133 75.5q35 0 62.5 -18.5t40 -35.5t32.5 -52q45 -72 76 -72q76 0 76 166h98q0 -123 -47 -198.5t-133 -75.5q-35 0 -63.5 19.5t-39.5 34.5t-34 52z" glyph-name="tilde" horiz-adv-x="565" unicode="˜"/><glyph d="M102 1139h-102l152 295h147zM373 1139h-103l152 295h147z" glyph-name="hungarumlaut" horiz-adv-x="569" unicode="˝"/><glyph d="M-123 1139l-274 295h170l227 -295h-123z" glyph-name="gravecomb" horiz-adv-x="0" unicode="̀"/><glyph d="M-274 1139h-123l227 295h170z" glyph-name="acutecomb" horiz-adv-x="0" unicode="́"/><glyph d="M-109 1139l-143 207l-135 -207h-109l162 295h166l168 -295h-109z" glyph-name="uni0302" horiz-adv-x="0" unicode="̂"/><glyph d="M-317 1241q-41 72 -74 72q-76 0 -76 -166h-98q0 123 47 198.5t133 75.5q35 0 62.5 -18.5t40 -35.5t32.5 -52q45 -72 76 -72q76 0 76 166h98q0 -123 -47 -198.5t-133 -75.5q-35 0 -63.5 19.5t-39.5 34.5t-34 52z" glyph-name="tildecomb" horiz-adv-x="0" unicode="̃"/><glyph d="M-582 1167v109h535v-109h-535z" glyph-name="uni0304" horiz-adv-x="0" unicode="̄"/><glyph d="M-303 1128q-90 0 -170 41t-133 113l86 68q78 -113 217 -113q141 0 217 113l86 -68q-113 -154 -303 -154z" glyph-name="uni0306" horiz-adv-x="0" unicode="̆"/><glyph d="M-242 1262q0 43 32 73.5t73 30.5q43 0 73.5 -30.5t30.5 -73.5q0 -45 -30.5 -75t-73.5 -30t-74 31t-31 74z" glyph-name="uni0307" horiz-adv-x="0" unicode="̇"/><glyph d="M-547 1161q-43 0 -73.5 30t-30.5 73t30.5 73.5t73.5 30.5t73 -30.5t30 -73.5t-30 -73t-73 -30zM-184 1161q-41 0 -72 30t-31 73t31 73.5t72 30.5q43 0 73.5 -30.5t30.5 -73.5t-30.5 -73t-73.5 -30z" glyph-name="uni0308" horiz-adv-x="0" unicode="̈"/><glyph d="M-348 1329q39 137 178 137q76 0 124 -44t48 -132q0 -78 -47 -149h-109q57 66 58 145q0 90 -74 90q-61 0 -84 -71z" glyph-name="hookabovecomb" horiz-adv-x="0" unicode="̉"/><glyph d="M-418 1298.5q0 77.5 55.5 133t133 55.5t133 -55.5t55.5 -133t-55.5 -134t-133 -56.5t-133 56.5t-55.5 134zM-127 1298q0 41 -29.5 72t-72.5 31q-41 0 -72 -31t-31 -72q0 -43 31 -73.5t72 -30.5q43 0 72.5 30.5t29.5 73.5z" glyph-name="uni030A" horiz-adv-x="0" unicode="̊"/><glyph d="M-467 1139h-102l151 295h148zM-197 1139h-102l152 295h147z" glyph-name="uni030B" horiz-adv-x="0" unicode="̋"/><glyph d="M-328 1139l-168 295h109l141 -209l137 209h109l-162 -295h-166z" glyph-name="uni030C" horiz-adv-x="0" unicode="̌"/><glyph d="M-371 1139l-198 295h149l150 -295h-101zM-102 1139l-197 295h147l152 -295h-102z" glyph-name="uni030F" horiz-adv-x="0" unicode="̏"/><glyph d="M-303.5 1350q190.5 0 303.5 -152l-86 -70q-76 113 -217 113t-217 -113l-86 70q112 152 302.5 152z" glyph-name="uni0311" horiz-adv-x="0" unicode="̑"/><glyph d="M-242 -244q0 43 32 74t73 31q43 0 73.5 -31t30.5 -74t-30.5 -73.5t-73.5 -30.5q-41 0 -73 30.5t-32 73.5z" glyph-name="dotbelowcomb" horiz-adv-x="0" unicode="̣"/><glyph d="M-281 -563l-71 55q47 31 81.5 81t39.5 93q-6 -2 -25 -2q-39 0 -64.5 26.5t-25.5 67.5t29.5 72t70.5 31q49 0 83 -39t34 -105q0 -84 -42 -158.5t-110 -121.5z" glyph-name="uni0326" horiz-adv-x="0" unicode="̦"/><glyph d="M-389 -332l41 82q66 -57 143 -57q43 0 75 23.5t32 62.5q0 61 -66 61q-39 0 -63 -30l-74 43l63 170h99l-54 -136q29 23 68 23q53 0 89 -38t36 -95q0 -76 -57.5 -123t-143.5 -47q-110 0 -188 61z" glyph-name="uni0327" horiz-adv-x="0" unicode="̧"/><glyph d="M-25 -346q-53 -35 -145 -35q-80 0 -134 40t-54 114q0 143 219 237l114 -10q-180 -80 -180 -182q0 -35 20.5 -53.5t53.5 -18.5q35 0 61 16z" glyph-name="uni0328" horiz-adv-x="0" unicode="̨"/><glyph d="M-303 -358q-90 0 -170 41t-133 112l86 68q78 -113 217 -113q141 0 217 113l86 -68q-113 -153 -303 -153z" glyph-name="uni032E" horiz-adv-x="0" unicode="̮"/><glyph d="M-582 -299v109h535v-109h-535z" glyph-name="uni0331" horiz-adv-x="0" unicode="̱"/><glyph d="M45 819l39 547h168l-123 -547h-84z" glyph-name="uni0374" horiz-adv-x="296" unicode="ʹ"/><glyph d="M45 -266l39 547h168l-123 -547h-84z" glyph-name="uni0375" horiz-adv-x="296" unicode="͵"/><glyph d="M242 758q-51 0 -88 36.5t-37 86.5q0 51 36.5 87t88.5 36q49 0 86 -36t37 -87q0 -49 -37 -86t-86 -37zM201 -262l-84 69q49 31 89 86.5t48 104.5q-8 -4 -29 -4q-47 0 -77.5 31.5t-30.5 81t34.5 85t86.5 35.5q57 0 97 -45t40 -121q0 -96 -48 -182t-126 -141z" glyph-name="uni037E" horiz-adv-x="481" unicode=";"/><glyph d="M25 1165l38 414h168l-122 -414h-84z" glyph-name="tonos" horiz-adv-x="256" unicode="΄"/><glyph d="M334 1165l39 414h170l-123 -414h-86zM137 1149q-43 0 -73.5 29.5t-30.5 72.5t30.5 74t73.5 31t73 -31t30 -74t-30 -72.5t-73 -29.5zM670 1149q-43 0 -74 29.5t-31 72.5t31 74t74 31t72.5 -31t29.5 -74t-29.5 -72.5t-72.5 -29.5z" glyph-name="dieresistonos" horiz-adv-x="804" unicode="΅"/><glyph d="M858 0l-80 289h-485l-80 -289h-203l408 1366h233l410 -1366h-203zM90 952l39 414h168l-123 -414h-84zM535 1186l-201 -725h403z" glyph-name="Alphatonos" horiz-adv-x="1071" unicode="Ά"/><glyph d="M239.5 377q-51.5 0 -87 37t-35.5 88q0 49 35.5 86t87 37t88.5 -37t37 -86q0 -51 -37 -88t-88.5 -37z" glyph-name="anoteleia" horiz-adv-x="481" unicode="·"/><glyph d="M-27 952l39 414h168l-123 -414h-84zM258 0v1366h725v-172h-530v-412h516v-172h-516v-438h530v-172h-725z" glyph-name="Epsilontonos" horiz-adv-x="1075" unicode="Έ"/><glyph d="M-27 952l39 414h168l-123 -414h-84zM983 0v616h-530v-616h-195v1366h195v-578h530v578h197v-1366h-197z" glyph-name="Etatonos" horiz-adv-x="1314" unicode="Ή"/><glyph d="M-27 952l39 414h168l-123 -414h-84zM258 0v1366h195v-1366h-195z" glyph-name="Iotatonos" horiz-adv-x="589" unicode="Ί"/><glyph d="M147 682q0 309 141.5 508t389.5 199t391 -199t143 -508t-143 -508t-391 -199t-389.5 199t-141.5 508zM-10 952l39 414h168l-123 -414h-84zM1012 682q0 233 -88 382.5t-246 149.5q-156 0 -244 -149.5t-88 -382.5q0 -231 88 -381.5t244 -150.5t245 150.5t89 381.5z" glyph-name="Omicrontonos" horiz-adv-x="1298" unicode="Ό"/><glyph d="M-27 952l39 414h168l-123 -414h-84zM637 0v573l-422 793h217l301 -608l303 608h215l-420 -793v-573h-194z" glyph-name="Upsilontonos" horiz-adv-x="1255" unicode="Ύ"/><glyph d="M381 172q-238 182 -238 547q0 303 143.5 486.5t389.5 183.5q248 0 391 -183.5t143 -486.5q0 -365 -237 -547h209v-172h-402v172q94 41 161 176t67 334q0 242 -85 386t-247 144t-247 -145t-85 -385q0 -199 67.5 -333t161.5 -177v-172h-401v172h209zM-25 952l39 414h168 l-123 -414h-84z" glyph-name="Omegatonos" horiz-adv-x="1290" unicode="Ώ"/><glyph d="M170 1165l39 414h170l-123 -414h-86zM-27 1149q-43 0 -73.5 29.5t-30.5 72.5t30.5 74t73.5 31t73 -31t30 -74t-30 -72.5t-73 -29.5zM506 1149q-43 0 -74 29.5t-31 72.5t31 74t74 31t72.5 -31t29.5 -74t-29.5 -72.5t-72.5 -29.5zM127 209v780h176v-753q0 -104 76 -105 q14 0 35 4l12 -149q-35 -10 -86 -11q-213 1 -213 234z" glyph-name="iotadieresistonos" horiz-adv-x="454" unicode="ΐ"/><glyph d="M858 0l-80 289h-485l-80 -289h-203l408 1366h233l410 -1366h-203zM535 1186l-201 -725h403z" glyph-name="Alpha" horiz-adv-x="1071" unicode="Α"/><glyph d="M137 0v1366h486q162 0 253 -96t91 -252q0 -125 -58.5 -206t-152.5 -107q98 -14 165.5 -112.5t67.5 -223.5q0 -168 -91 -268.5t-261 -100.5h-500zM332 782h250q92 0 138 56.5t46 148.5t-46 149.5t-138 57.5h-250v-412zM332 172h258q96 0 147 57.5t51 161.5q0 94 -51 156.5 t-147 62.5h-258v-438z" glyph-name="Beta" horiz-adv-x="1081" unicode="Β"/><glyph d="M137 0v1366h725v-172h-530v-1194h-195z" glyph-name="Gamma" horiz-adv-x="935" unicode="Γ"/><glyph d="M10 0l422 1366h234l421 -1366h-1077zM549 1155l-287 -983h574z" glyph-name="Delta" horiz-adv-x="1097" unicode="Δ"/><glyph d="M137 0v1366h725v-172h-530v-412h516v-172h-516v-438h530v-172h-725z" glyph-name="Epsilon" horiz-adv-x="954" unicode="Ε"/><glyph d="M80 0v164l551 1030h-551v172h784v-160l-553 -1034h568v-172h-799z" glyph-name="Zeta" horiz-adv-x="958" unicode="Ζ"/><glyph d="M862 0v616h-530v-616h-195v1366h195v-578h530v578h197v-1366h-197z" glyph-name="Eta" horiz-adv-x="1193" unicode="Η"/><glyph d="M88 682q0 309 141.5 508t389 199t391 -199t143.5 -508t-143.5 -508t-391 -199t-389 199t-141.5 508zM952 682q0 233 -88 382.5t-246 149.5q-156 0 -243.5 -149.5t-87.5 -382.5q0 -231 88 -381.5t243.5 -150.5t244.5 150.5t89 381.5zM371 610v172h497v-172h-497z" glyph-name="Theta" horiz-adv-x="1241" unicode="Θ"/><glyph d="M137 0v1366h195v-1366h-195z" glyph-name="Iota" horiz-adv-x="468" unicode="Ι"/><glyph d="M815 0l-375 584l-108 -162v-422h-195v1366h195v-684l450 684h230l-451 -647l488 -719h-234z" glyph-name="Kappa" horiz-adv-x="1069" unicode="Κ"/><glyph d="M850 0l-315 1155l-314 -1155h-211l408 1366h233l410 -1366h-211z" glyph-name="Lambda" horiz-adv-x="1071" unicode="Λ"/><glyph d="M1100 0v1049l-346 -1049h-78l-344 1049v-1049h-195v1366h269l309 -942l313 942h264v-1366h-192z" glyph-name="Mu" horiz-adv-x="1429" unicode="Μ"/><glyph d="M868 0l-536 999v-999h-195v1366h197l526 -969v969h195v-1366h-187z" glyph-name="Nu" horiz-adv-x="1191" unicode="Ν"/><glyph d="M94 1194v172h832v-172h-832zM109 610v172h804v-172h-804zM94 0v172h832v-172h-832z" glyph-name="Xi" horiz-adv-x="1019" unicode="Ξ"/><glyph d="M88 682q0 309 141.5 508t389 199t391 -199t143.5 -508t-143.5 -508t-391 -199t-389 199t-141.5 508zM952 682q0 233 -88 382.5t-246 149.5q-156 0 -243.5 -149.5t-87.5 -382.5q0 -231 88 -381.5t243.5 -150.5t244.5 150.5t89 381.5z" glyph-name="Omicron" horiz-adv-x="1241" unicode="Ο"/><glyph d="M862 0v1194h-530v-1194h-195v1366h922v-1366h-197z" glyph-name="Pi" horiz-adv-x="1196" unicode="Π"/><glyph d="M137 0v1366h441q186 0 288.5 -120t102.5 -298t-103.5 -298t-287.5 -120h-246v-530h-195zM768 948.5q0 110.5 -57.5 178t-155.5 67.5h-223v-492h223q98 0 155.5 68t57.5 178.5z" glyph-name="Rho" horiz-adv-x="1024" unicode="Ρ"/><glyph d="M309 172h543v-172h-758v176l346 526l-346 492v172h758v-172h-535l342 -492z" glyph-name="Sigma" horiz-adv-x="935" unicode="Σ"/><glyph d="M367 0v1194h-318v172h832v-172h-320v-1194h-194z" glyph-name="Tau" horiz-adv-x="929" unicode="Τ"/><glyph d="M426 0v573l-422 793h217l301 -608l303 608h215l-419 -793v-573h-195z" glyph-name="Upsilon" horiz-adv-x="1044" unicode="Υ"/><glyph d="M1372 682q0 -225 -141 -373.5t-404 -173.5v-135h-196v135q-262 25 -402.5 173.5t-140.5 373.5t140.5 373.5t402.5 173.5v137h196v-137q262 -25 403.5 -173.5t141.5 -373.5zM287 682q0 -147 88 -247.5t256 -123.5v742q-168 -23 -256 -122t-88 -249zM827 311 q168 23 256 123.5t88 247.5q0 150 -88 249t-256 122v-742z" glyph-name="Phi" horiz-adv-x="1458" unicode="Φ"/><glyph d="M834 0l-299 543l-299 -543h-226l406 698l-383 668h225l277 -514l274 514h227l-381 -668l404 -698h-225z" glyph-name="Chi" horiz-adv-x="1069" unicode="Χ"/><glyph d="M1133 1366h196v-602q0 -223 -130 -353t-368 -153v-258h-194v258q-238 23 -369 153t-131 351v604h197v-600q0 -293 303 -332v932h194v-932q301 39 302 332v600z" glyph-name="Psi" horiz-adv-x="1468" unicode="Ψ"/><glyph d="M317 172q-238 182 -237 547q0 303 143.5 486.5t388.5 183.5q248 0 391.5 -183.5t143.5 -486.5q0 -365 -238 -547h209v-172h-401v172q94 41 160.5 176t66.5 334q0 242 -85 386t-246.5 144t-246.5 -145t-85 -385q0 -199 67.5 -333t161.5 -177v-172h-401v172h208z" glyph-name="Omega" horiz-adv-x="1226" unicode="Ω"/><glyph d="M53 1503q-43 0 -73.5 30t-30.5 73t30.5 73.5t73.5 30.5t73 -30.5t30 -73.5t-30 -73t-73 -30zM416 1503q-41 0 -72 30t-31 73t31 73.5t72 30.5q43 0 73.5 -30.5t30.5 -73.5t-30.5 -73t-73.5 -30zM137 0v1366h195v-1366h-195z" glyph-name="Iotadieresis" horiz-adv-x="468" unicode="Ϊ"/><glyph d="M340 1503q-43 0 -73.5 30t-30.5 73t30.5 73.5t73.5 30.5t72.5 -30.5t29.5 -73.5t-29.5 -73t-72.5 -30zM702 1503q-41 0 -71.5 30t-30.5 73t31 73.5t71 30.5q43 0 74 -30.5t31 -73.5t-31 -73t-74 -30zM426 0v573l-422 793h217l301 -608l303 608h215l-419 -793v-573h-195z " glyph-name="Upsilondieresis" horiz-adv-x="1044" unicode="Ϋ"/><glyph d="M463 1165l39 414h168l-123 -414h-84zM991 -14q-35 -10 -84 -11q-178 0 -205 175q-41 -78 -112.5 -126.5t-153.5 -48.5q-166 0 -262 140.5t-96 378.5q0 236 96 378t262 142q76 0 144.5 -42t111.5 -120v137h176v-753q0 -104 76 -105q14 0 35 4zM694 279v428q-29 63 -87 106 t-122 43q-109 0 -167 -101.5t-58 -260.5q0 -158 58.5 -260.5t166.5 -102.5q63 0 121.5 43.5t87.5 104.5z" glyph-name="alphatonos" horiz-adv-x="1021" unicode="ά"/><glyph d="M410 1165l39 414h167l-122 -414h-84zM444 -25q-174 0 -270 81t-96 210q0 100 69.5 164t161.5 76q-88 16 -151.5 82.5t-63.5 156.5q0 125 98.5 197t262.5 72q197 0 331 -140l-84 -112q-96 109 -239 108q-84 0 -138.5 -39.5t-54.5 -105.5q0 -74 52.5 -114t144.5 -40h133 v-141h-135q-209 0 -209 -151q0 -76 51 -118t142 -42q147 0 253 121l97 -121q-138 -144 -355 -144z" glyph-name="epsilontonos" horiz-adv-x="841" unicode="έ"/><glyph d="M444 1165l39 414h168l-123 -414h-84zM670 -377v1065q0 170 -150 170q-68 0 -126 -43t-91 -104v-711h-176v989h176v-137q45 68 123 115t164 47q254 0 254 -269v-1122h-174z" glyph-name="etatonos" unicode="ή"/><glyph d="M172 1165l39 414h168l-123 -414h-84zM127 209v780h176v-753q0 -104 76 -105q14 0 35 4l12 -149q-35 -10 -86 -11q-213 1 -213 234z" glyph-name="iotatonos" horiz-adv-x="454" unicode="ί"/><glyph d="M440 1165l39 414h170l-123 -414h-86zM244 1149q-43 0 -74 29.5t-31 72.5t31 74t74 31t72.5 -31t29.5 -74t-29.5 -72.5t-72.5 -29.5zM776 1149q-43 0 -73.5 29.5t-30.5 72.5t30.5 74t73.5 31t73 -31t30 -74t-30 -72.5t-73 -29.5zM485 -25q-174 0 -266 109t-92 297v608h176 v-608q0 -119 46 -184.5t136 -65.5q117 0 175.5 107.5t58.5 277.5q0 240 -123 428l160 70q145 -225 145 -498q0 -236 -108.5 -388.5t-307.5 -152.5z" glyph-name="upsilondieresistonos" horiz-adv-x="978" unicode="ΰ"/><glyph d="M991 -14q-35 -10 -84 -11q-178 0 -205 175q-41 -78 -112.5 -126.5t-153.5 -48.5q-166 0 -262 140.5t-96 378.5q0 236 96 378t262 142q76 0 144.5 -42t111.5 -120v137h176v-753q0 -104 76 -105q14 0 35 4zM694 279v428q-29 63 -87 106t-122 43q-109 0 -167 -101.5 t-58 -260.5q0 -158 58.5 -260.5t166.5 -102.5q63 0 121.5 43.5t87.5 104.5z" glyph-name="alpha" horiz-adv-x="1021" unicode="α"/><glyph d="M303 -377h-176v1311q0 231 114.5 341.5t282.5 110.5t266.5 -94t98.5 -270q0 -121 -64.5 -206t-165.5 -109q100 -16 179.5 -112.5t79.5 -246.5q0 -162 -96.5 -267.5t-248.5 -105.5q-176 0 -270 160v-512zM303 279q31 -63 90.5 -105.5t126.5 -42.5q102 0 157.5 69.5 t55.5 174.5q0 121 -63.5 183.5t-161.5 62.5h-55v155h49q92 0 148.5 58.5t56.5 167t-51.5 168t-131.5 59.5q-98 0 -159.5 -72t-61.5 -223v-655z" glyph-name="beta" horiz-adv-x="997" unicode="β"/><glyph d="M342 -377v273q0 309 -97.5 596.5t-256.5 496.5h198q106 -156 181 -358.5t90 -397.5q78 147 129 355.5t51 400.5h174q0 -240 -81 -503t-214 -474v-389h-174z" glyph-name="gamma" horiz-adv-x="858" unicode="γ"/><glyph d="M522 954q70 -33 108 -52t99.5 -65t94 -93.5t59 -125t26.5 -172.5q0 -188 -107.5 -329.5t-299.5 -141.5q-199 0 -311.5 143.5t-112.5 336.5q0 274 244 426q-150 88 -150 235q0 117 88 196t240 79q190 0 313 -127l-78 -121q-82 106 -233 106q-74 0 -119 -35.5t-45 -91.5 q0 -37 28.5 -68.5t59 -49t96.5 -50.5zM499.5 131q114.5 0 178 97.5t63.5 215.5q0 74 -20.5 132.5t-61.5 99.5t-80.5 67.5t-101.5 57.5q-215 -106 -215 -346q0 -127 61.5 -225.5t176 -98.5z" glyph-name="delta" horiz-adv-x="987" unicode="δ"/><glyph d="M444 -25q-174 0 -270 81t-96 210q0 100 69.5 164t161.5 76q-88 16 -151.5 82.5t-63.5 156.5q0 125 98.5 197t262.5 72q197 0 331 -140l-84 -112q-96 109 -239 108q-84 0 -138.5 -39.5t-54.5 -105.5q0 -74 52.5 -114t144.5 -40h133v-141h-135q-209 0 -209 -151 q0 -76 51 -118t142 -42q147 0 253 121l97 -121q-138 -144 -355 -144z" glyph-name="epsilon" horiz-adv-x="841" unicode="ε"/><glyph d="M514 0q-199 0 -317.5 110.5t-118.5 295.5q0 459 477 806h-453v154h656v-131q-498 -385 -498 -809q0 -127 75 -198.5t212 -71.5q113 0 167 -55.5t54 -149.5q0 -111 -90 -273h-176q96 152 96 242q0 80 -84 80z" glyph-name="zeta" horiz-adv-x="833" unicode="ζ"/><glyph d="M670 -377v1065q0 170 -150 170q-68 0 -126 -43t-91 -104v-711h-176v989h176v-137q45 68 123 115t164 47q254 0 254 -269v-1122h-174z" glyph-name="eta" unicode="η"/><glyph d="M493.5 1391q206.5 0 311 -193.5t104.5 -513t-104.5 -514.5t-311 -195t-311 195t-104.5 514.5t104.5 513t311 193.5zM494 1235q-215 0 -232 -471h463q-8 229 -61 350t-170 121zM494 131q219 0 231 479h-463q17 -479 232 -479z" glyph-name="theta" horiz-adv-x="987" unicode="θ"/><glyph d="M127 209v780h176v-753q0 -104 76 -105q14 0 35 4l12 -149q-35 -10 -86 -11q-213 1 -213 234z" glyph-name="iota" horiz-adv-x="454" unicode="ι"/><glyph d="M684 0l-252 430l-129 -170v-260h-176v989h176v-512l379 512h207l-336 -444l338 -545h-207z" glyph-name="kappa" horiz-adv-x="915" unicode="κ"/><glyph d="M188 1391q102 -2 167 -47.5t102 -157.5l393 -1186h-186l-236 778l-231 -778h-189l330 1008l-47 135q-18 51 -45 71.5t-70 20.5q-37 0 -63 -14l-29 155q43 15 104 15z" glyph-name="lambda" horiz-adv-x="858" unicode="λ"/><glyph d="M303 -377h-176v1366h176v-692q0 -168 154 -168q63 0 120.5 42t92.5 103v715h174v-753q0 -104 76 -105q14 0 34 4l13 -149q-35 -10 -84 -11q-178 0 -207 175q-39 -78 -102.5 -126.5t-135.5 -48.5q-96 0 -135 62v-414z" glyph-name="mu" horiz-adv-x="997" unicode="μ"/><glyph d="M334 0l-326 989h189l239 -803q94 176 147.5 391.5t53.5 411.5h174q0 -242 -83 -509t-218 -480h-176z" glyph-name="nu" horiz-adv-x="858" unicode="ν"/><glyph d="M78 350q0 127 69.5 213t165.5 113q-92 20 -153.5 93t-61.5 175q0 82 49.5 154.5t131.5 113.5h-168v154h630v-154h-309q-70 -29 -113 -90t-43 -131q0 -102 66 -158.5t166 -56.5h221v-153h-221q-111 0 -179.5 -59.5t-68.5 -180.5q0 -102 73 -164.5t214 -62.5 q221 0 221 -195q0 -121 -90 -283h-176q35 55 65.5 132t30.5 122q0 68 -84 68q-207 0 -321.5 93t-114.5 257z" glyph-name="xi" horiz-adv-x="833" unicode="ξ"/><glyph d="M493.5 -25q-196.5 0 -306 149.5t-109.5 371t109.5 370t306 148.5t306 -148.5t109.5 -370t-109.5 -371t-306 -149.5zM494 131q115 0 174 104.5t59 260.5q0 154 -59.5 258t-173.5 104q-113 0 -172.5 -104.5t-59.5 -258t59.5 -259t172.5 -105.5z" glyph-name="omicron" horiz-adv-x="987" unicode="ο"/><glyph d="M702 0v836h-366v-836h-174v836h-131v153h979v-153h-131v-836h-177z" glyph-name="pi" horiz-adv-x="1040" unicode="π"/><glyph d="M303 139v-516h-176v873q0 221 103.5 369.5t290 148.5t292 -147.5t105.5 -370.5q0 -238 -96.5 -379.5t-262.5 -141.5t-256 164zM735 496q0 156 -55 259t-161.5 103t-161 -104.5t-54.5 -257.5v-215q29 -61 87.5 -105.5t119.5 -44.5q109 0 167 102.5t58 262.5z" glyph-name="rho" horiz-adv-x="993" unicode="ρ"/><glyph d="M78 496q0 225 115.5 371.5t306.5 146.5q188 0 293 -133l-93 -119q-74 96 -184 96q-121 0 -188.5 -103.5t-67.5 -258.5q0 -160 75 -250t206 -90q119 0 173 -44t54 -137q0 -135 -90 -297h-170q35 55 65.5 133t30.5 123q0 66 -88 66q-199 0 -318.5 133.5t-119.5 362.5z" glyph-name="sigma1" horiz-adv-x="823" unicode="ς"/><glyph d="M494 -25q-193 0 -304.5 148.5t-111.5 372.5q0 211 114.5 352t327.5 141h428v-155h-194q145 -145 145 -377q0 -201 -105 -341.5t-300 -140.5zM580 834h-60q-131 0 -194.5 -98.5t-63.5 -239.5q0 -154 59.5 -259.5t172.5 -105.5q115 0 174 102.5t59 243.5q0 248 -147 357z " glyph-name="sigma" horiz-adv-x="987" unicode="σ"/><glyph d="M281 209v627h-240v153h672v-153h-258v-592q0 -113 80 -113q51 0 79 35l48 -131q-59 -59 -168 -60q-213 1 -213 234z" glyph-name="tau" horiz-adv-x="753" unicode="τ"/><glyph d="M485 -25q-174 0 -266 109t-92 297v608h176v-608q0 -119 46 -184.5t136 -65.5q117 0 175.5 107.5t58.5 277.5q0 240 -123 428l160 70q145 -225 145 -498q0 -236 -108.5 -388.5t-307.5 -152.5z" glyph-name="upsilon" horiz-adv-x="978" unicode="υ"/><glyph d="M1128 483q0 -225 -115.5 -357t-320.5 -149v-354h-176v354q-203 16 -319.5 155.5t-116.5 371.5q0 326 278 495l95 -122q-190 -106 -191 -373q0 -158 64.5 -261.5t189.5 -111.5v858h105q250 0 378.5 -135t128.5 -371zM692 133q125 8 189.5 103.5t64.5 246.5 q0 156 -64.5 248t-189.5 100v-698z" glyph-name="phi" horiz-adv-x="1208" unicode="φ"/><glyph d="M643 -377l-217 527l-219 -527h-189l299 696l-282 670h188l203 -497l199 497h190l-283 -670l299 -696h-188z" glyph-name="chi" horiz-adv-x="849" unicode="χ"/><glyph d="M938 989h176v-532q0 -223 -95 -340t-310 -137v-357h-177v357q-215 18 -310 137t-95 340v532h176v-532q0 -156 50 -230.5t179 -89.5v1229h177v-1229q129 16 179 90t50 230v532z" glyph-name="psi" horiz-adv-x="1241" unicode="ψ"/><glyph d="M954 -25q-207 0 -274 267q-72 -266 -277 -267q-158 0 -240.5 142.5t-82.5 347.5q0 362 201 549l155 -70q-174 -164 -174 -481q0 -137 39 -234.5t125 -97.5q166 0 166 365v252h176v-252q0 -365 164 -365q59 0 98 52.5t52.5 123t13.5 158.5q0 315 -174 479l157 70 q199 -186 199 -549q0 -205 -83 -347.5t-241 -142.5z" glyph-name="omega" horiz-adv-x="1357" unicode="ω"/><glyph d="M33 1161q-43 0 -74 30t-31 73t31 73.5t74 30.5t72.5 -30.5t29.5 -73.5t-29.5 -73t-72.5 -30zM395 1161q-41 0 -71.5 30t-30.5 73t30.5 73.5t71.5 30.5q43 0 74 -30.5t31 -73.5t-31 -73t-74 -30zM127 209v780h176v-753q0 -104 76 -105q14 0 35 4l12 -149q-35 -10 -86 -11 q-213 1 -213 234z" glyph-name="iotadieresis" horiz-adv-x="454" unicode="ϊ"/><glyph d="M303 1161q-43 0 -73.5 30t-30.5 73t30.5 73.5t73.5 30.5t73 -30.5t30 -73.5t-30 -73t-73 -30zM666 1161q-41 0 -72 30t-31 73t31 73.5t72 30.5q43 0 73.5 -30.5t30.5 -73.5t-30.5 -73t-73.5 -30zM485 -25q-174 0 -266 109t-92 297v608h176v-608q0 -119 46 -184.5 t136 -65.5q117 0 175.5 107.5t58.5 277.5q0 240 -123 428l160 70q145 -225 145 -498q0 -236 -108.5 -388.5t-307.5 -152.5z" glyph-name="upsilondieresis" horiz-adv-x="978" unicode="ϋ"/><glyph d="M451 1165l38 414h168l-122 -414h-84zM493.5 -25q-196.5 0 -306 149.5t-109.5 371t109.5 370t306 148.5t306 -148.5t109.5 -370t-109.5 -371t-306 -149.5zM494 131q115 0 174 104.5t59 260.5q0 154 -59.5 258t-173.5 104q-113 0 -172.5 -104.5t-59.5 -258t59.5 -259 t172.5 -105.5z" glyph-name="omicrontonos" horiz-adv-x="987" unicode="ό"/><glyph d="M442 1165l39 414h168l-123 -414h-84zM485 -25q-174 0 -266 109t-92 297v608h176v-608q0 -119 46 -184.5t136 -65.5q117 0 175.5 107.5t58.5 277.5q0 240 -123 428l160 70q145 -225 145 -498q0 -236 -108.5 -388.5t-307.5 -152.5z" glyph-name="upsilontonos" horiz-adv-x="978" unicode="ύ"/><glyph d="M637 1165l39 414h168l-123 -414h-84zM954 -25q-207 0 -274 267q-72 -266 -277 -267q-158 0 -240.5 142.5t-82.5 347.5q0 362 201 549l155 -70q-174 -164 -174 -481q0 -137 39 -234.5t125 -97.5q166 0 166 365v252h176v-252q0 -365 164 -365q59 0 98 52.5t52.5 123 t13.5 158.5q0 315 -174 479l157 70q199 -186 199 -549q0 -205 -83 -347.5t-241 -142.5z" glyph-name="omegatonos" horiz-adv-x="1357" unicode="ώ"/><glyph d="M750 229q53 -82 151 -82v-165q0 -178 -115.5 -280.5t-293.5 -102.5q-72 0 -127 12l22 149q41 -8 82 -8q117 0 187.5 53.5t70.5 155.5v39q-61 33 -113 125l-182 305l-129 -170v-260h-176v989h176v-512l379 512h207l-336 -444z" glyph-name="uni03D7" horiz-adv-x="915" unicode="ϗ"/><glyph d="M436 1481l-274 295h203l227 -295h-156zM137 0v1366h725v-172h-530v-412h516v-172h-516v-438h530v-172h-725z" glyph-name="uni0400" horiz-adv-x="954" unicode="Ѐ"/><glyph d="M328 1503q-43 0 -74 30t-31 73t31 73.5t74 30.5t72.5 -30.5t29.5 -73.5t-29.5 -73t-72.5 -30zM690 1503q-41 0 -71.5 30t-30.5 73t30.5 73.5t71.5 30.5q43 0 74 -30.5t31 -73.5t-31 -73t-74 -30zM137 0v1366h725v-172h-530v-412h516v-172h-516v-438h530v-172h-725z" glyph-name="afii10023" horiz-adv-x="954" unicode="Ё"/><glyph d="M805 150q102 0 154.5 52t52.5 171v121q0 100 -50.5 147t-158.5 47q-131 0 -240 -57v-631h-196v1194h-318v172h832v-172h-318v-408q139 74 291 74q352 0 352 -366v-121q0 -209 -109.5 -303.5t-291.5 -94.5v175z" glyph-name="afii10051" horiz-adv-x="1292" unicode="Ђ"/><glyph d="M586 1481h-156l227 295h203zM137 0v1366h725v-172h-530v-1194h-195z" glyph-name="afii10052" horiz-adv-x="935" unicode="Ѓ"/><glyph d="M631 150q174 0 256 200l164 -74q-143 -301 -420 -301q-248 0 -395.5 198t-147.5 509t147.5 509t395.5 198q274 0 418 -285l-162 -74q-88 184 -256 184q-137 0 -227.5 -118.5t-110.5 -313.5h538v-172h-540q16 -207 107.5 -333.5t232.5 -126.5z" glyph-name="afii10053" horiz-adv-x="1105" unicode="Є"/><glyph d="M53 147l101 152q127 -150 321 -149q113 0 173.5 58t60.5 144q0 49 -19.5 88t-62.5 71t-78 51.5t-100 49.5q-59 27 -85 40.5t-79.5 43t-79 56t-56 66.5t-44 90t-13.5 110q0 160 115 265.5t295 105.5q231 0 377 -146l-99 -147q-111 119 -284 118q-90 0 -147.5 -51 t-57.5 -135q0 -41 17.5 -74.5t60.5 -63.5t72.5 -46.5t95.5 -46.5q70 -33 106.5 -51.5t95 -59.5t89 -81t54 -102.5t23.5 -137.5q0 -168 -111.5 -279t-316.5 -111q-266 0 -424 172z" glyph-name="afii10054" horiz-adv-x="978" unicode="Ѕ"/><glyph d="M137 0v1366h195v-1366h-195z" glyph-name="afii10055" horiz-adv-x="468" unicode="І"/><glyph d="M53 1503q-43 0 -73.5 30t-30.5 73t30.5 73.5t73.5 30.5t73 -30.5t30 -73.5t-30 -73t-73 -30zM416 1503q-41 0 -72 30t-31 73t31 73.5t72 30.5q43 0 73.5 -30.5t30.5 -73.5t-30.5 -73t-73.5 -30zM137 0v1366h195v-1366h-195z" glyph-name="afii10056" horiz-adv-x="468" unicode="Ї"/><glyph d="M16 94l82 152q82 -96 191 -96q98 0 152.5 57t54.5 162v997h194v-1004q0 -193 -104.5 -290t-280.5 -97t-289 119z" glyph-name="afii10057" horiz-adv-x="827" unicode="Ј"/><glyph d="M51 168q43 0 73 13.5t64.5 60.5t58 132t45 233.5t34.5 359.5l24 399h709v-530h246q184 0 286.5 -120t102.5 -298t-102.5 -298t-286.5 -120h-441v1194h-346l-14 -233q-16 -262 -48 -447.5t-70 -289t-96.5 -161t-110.5 -73t-128 -15.5v193zM1059 664v-492h223 q96 0 153.5 67.5t57.5 178t-57.5 178.5t-153.5 68h-223z" glyph-name="afii10058" horiz-adv-x="1751" unicode="Љ"/><glyph d="M137 1366h195v-578h532v578h195v-578h258q180 0 278.5 -113.5t98.5 -281.5t-98.5 -280.5t-278.5 -112.5h-453v616h-532v-616h-195v1366zM1294 172q92 0 145.5 61.5t53.5 162t-53.5 160.5t-145.5 60h-235v-444h235z" glyph-name="afii10059" horiz-adv-x="1751" unicode="Њ"/><glyph d="M1012 463q0 125 -49.5 175t-159.5 50q-131 0 -240 -57v-631h-196v1194h-318v172h832v-172h-318v-408q139 74 291 74q180 0 266 -96t86 -301v-463h-194v463z" glyph-name="afii10060" horiz-adv-x="1312" unicode="Ћ"/><glyph d="M627 1481h-156l227 295h203zM815 0l-375 584l-108 -162v-422h-195v1366h195v-684l450 684h230l-451 -647l488 -719h-234z" glyph-name="afii10061" horiz-adv-x="1069" unicode="Ќ"/><glyph d="M522 1481l-274 295h203l227 -295h-156zM137 1366h195v-991l526 991h197v-1366h-195v1014l-536 -1014h-187v1366z" glyph-name="uni040D" horiz-adv-x="1191" unicode="Ѝ"/><glyph d="M522.5 1470q-188.5 0 -303.5 152l100 82q76 -104 203 -105q129 0 201 105l102 -82q-114 -152 -302.5 -152zM827 1366h213l-430 -1126q-53 -139 -133 -202t-205 -63q-86 0 -151 31l47 164q41 -18 92 -18q61 0 100 34.5t78 122.5l19 53l-453 1004h215l332 -766z" glyph-name="afii10062" horiz-adv-x="1044" unicode="Ў"/><glyph d="M1032 1366v-1366h-360v-262h-172v262h-363v1366h195v-1194h506v1194h194z" glyph-name="afii10145" horiz-adv-x="1169" unicode="Џ"/><glyph d="M858 0l-80 289h-485l-80 -289h-203l408 1366h233l410 -1366h-203zM535 1186l-201 -725h403z" glyph-name="afii10017" horiz-adv-x="1071" unicode="А"/><glyph d="M883 1366v-172h-551v-358h246q184 0 287.5 -120t103.5 -298t-102.5 -298t-288.5 -120h-441v1366h746zM332 664v-492h223q98 0 155.5 67.5t57.5 178t-57.5 178.5t-155.5 68h-223z" glyph-name="afii10018" horiz-adv-x="1024" unicode="Б"/><glyph d="M137 0v1366h486q162 0 253 -96t91 -252q0 -125 -58.5 -206t-152.5 -107q98 -14 165.5 -112.5t67.5 -223.5q0 -168 -91 -268.5t-261 -100.5h-500zM332 782h250q92 0 138 56.5t46 148.5t-46 149.5t-138 57.5h-250v-412zM332 172h258q96 0 147 57.5t51 161.5q0 94 -51 156.5 t-147 62.5h-258v-438z" glyph-name="afii10019" horiz-adv-x="1081" unicode="В"/><glyph d="M137 0v1366h725v-172h-530v-1194h-195z" glyph-name="afii10020" horiz-adv-x="935" unicode="Г"/><glyph d="M37 172h92q135 162 182 850l25 344h692v-1194h141v-424h-172v252h-788v-252h-172v424zM485 1012q-45 -674 -163 -840h512v1022h-336z" glyph-name="afii10021" horiz-adv-x="1210" unicode="Д"/><glyph d="M137 0v1366h725v-172h-530v-412h516v-172h-516v-438h530v-172h-725z" glyph-name="afii10022" horiz-adv-x="954" unicode="Е"/><glyph d="M1307 0l-371 625h-62v-625h-194v625h-62l-370 -625h-230l449 705l-412 661h221l347 -588h57v588h194v-588h56l346 588h223l-412 -661l449 -705h-229z" glyph-name="afii10024" horiz-adv-x="1554" unicode="Ж"/><glyph d="M53 201l125 118q49 -78 130 -123.5t175 -45.5q123 0 185.5 63t62.5 174q0 115 -70.5 170t-191.5 55h-184v172h176q113 0 181.5 53.5t68.5 155.5q0 106 -64.5 162.5t-173.5 56.5q-170 0 -283 -153l-118 110q68 100 178 158.5t242 58.5q184 0 300.5 -95t116.5 -269 q0 -121 -74.5 -207t-185.5 -110q113 -14 196 -105.5t83 -228.5q0 -174 -119 -285t-317 -111q-145 0 -262.5 64t-176.5 162z" glyph-name="afii10025" horiz-adv-x="1019" unicode="З"/><glyph d="M137 1366h195v-991l526 991h197v-1366h-195v1014l-536 -1014h-187v1366z" glyph-name="afii10026" horiz-adv-x="1191" unicode="И"/><glyph d="M596 1470q-188 0 -303 152l100 82q76 -104 203 -105q129 0 201 105l102 -82q-115 -152 -303 -152zM137 1366h195v-991l526 991h197v-1366h-195v1014l-536 -1014h-187v1366z" glyph-name="afii10027" horiz-adv-x="1191" unicode="Й"/><glyph d="M815 0l-375 584l-108 -162v-422h-195v1366h195v-684l450 684h230l-451 -647l488 -719h-234z" glyph-name="afii10028" horiz-adv-x="1069" unicode="К"/><glyph d="M51 168q43 0 73 13.5t64.5 60.5t58 132t45 233.5t34.5 359.5l24 399h709v-1366h-197v1194h-344l-14 -233q-16 -262 -48 -447.5t-70 -289t-96.5 -161t-110.5 -73t-128 -15.5v193z" glyph-name="afii10029" horiz-adv-x="1193" unicode="Л"/><glyph d="M1100 0v1049l-346 -1049h-78l-344 1049v-1049h-195v1366h269l309 -942l313 942h264v-1366h-192z" glyph-name="afii10030" horiz-adv-x="1429" unicode="М"/><glyph d="M862 0v616h-530v-616h-195v1366h195v-578h530v578h197v-1366h-197z" glyph-name="afii10031" horiz-adv-x="1193" unicode="Н"/><glyph d="M88 682q0 309 141.5 508t389 199t391 -199t143.5 -508t-143.5 -508t-391 -199t-389 199t-141.5 508zM952 682q0 233 -88 382.5t-246 149.5q-156 0 -243.5 -149.5t-87.5 -382.5q0 -231 88 -381.5t243.5 -150.5t244.5 150.5t89 381.5z" glyph-name="afii10032" horiz-adv-x="1241" unicode="О"/><glyph d="M862 0v1194h-530v-1194h-195v1366h922v-1366h-197z" glyph-name="afii10033" horiz-adv-x="1196" unicode="П"/><glyph d="M137 0v1366h441q186 0 288.5 -120t102.5 -298t-103.5 -298t-287.5 -120h-246v-530h-195zM768 948.5q0 110.5 -57.5 178t-155.5 67.5h-223v-492h223q98 0 155.5 68t57.5 178.5z" glyph-name="afii10034" horiz-adv-x="1024" unicode="Р"/><glyph d="M627 -25q-244 0 -391.5 198t-147.5 509t147.5 509t391.5 198q279 0 422 -285l-162 -74q-88 184 -260 184q-154 0 -247 -149.5t-93 -382.5t93 -382.5t247 -149.5q178 0 260 200l164 -74q-143 -301 -424 -301z" glyph-name="afii10035" horiz-adv-x="1105" unicode="С"/><glyph d="M367 0v1194h-318v172h832v-172h-320v-1194h-194z" glyph-name="afii10036" horiz-adv-x="929" unicode="Т"/><glyph d="M827 1366h213l-430 -1126q-53 -139 -133 -202t-205 -63q-86 0 -151 31l47 164q41 -18 92 -18q61 0 100 34.5t78 122.5l19 53l-453 1004h215l332 -766z" glyph-name="afii10037" horiz-adv-x="1044" unicode="У"/><glyph d="M1372 682q0 -225 -141 -373.5t-404 -173.5v-135h-196v135q-262 25 -402.5 173.5t-140.5 373.5t140.5 373.5t402.5 173.5v137h196v-137q262 -25 403.5 -173.5t141.5 -373.5zM287 682q0 -147 88 -247.5t256 -123.5v742q-168 -23 -256 -122t-88 -249zM827 311 q168 23 256 123.5t88 247.5q0 150 -88 249t-256 122v-742z" glyph-name="afii10038" horiz-adv-x="1458" unicode="Ф"/><glyph d="M834 0l-299 543l-299 -543h-226l406 698l-383 668h225l277 -514l274 514h227l-381 -668l404 -698h-225z" glyph-name="afii10039" horiz-adv-x="1069" unicode="Х"/><glyph d="M1001 0h-864v1366h195v-1194h506v1194h194v-1194h142v-424h-173v252z" glyph-name="afii10040" horiz-adv-x="1214" unicode="Ц"/><glyph d="M297 903q0 -125 50 -175t159 -50q133 0 242 57v631h194v-1366h-194v582q-139 -76 -293 -76q-180 0 -265.5 96t-85.5 303v461h193v-463z" glyph-name="afii10041" horiz-adv-x="1079" unicode="Ч"/><glyph d="M1501 1366v-1366h-1364v1366h195v-1194h391v1194h192v-1194h392v1194h194z" glyph-name="afii10042" horiz-adv-x="1638" unicode="Ш"/><glyph d="M1501 1366v-1194h141v-424h-172v252h-1333v1366h195v-1194h391v1194h192v-1194h392v1194h194z" glyph-name="afii10043" horiz-adv-x="1683" unicode="Щ"/><glyph d="M367 0v1194h-318v172h512v-530h246q184 0 287.5 -120t103.5 -298t-102.5 -298t-288.5 -120h-440zM561 664v-492h225q96 0 153.5 67.5t57.5 178t-57 178.5t-154 68h-225z" glyph-name="afii10044" horiz-adv-x="1253" unicode="Ъ"/><glyph d="M332 1366v-530h246q184 0 287.5 -120t103.5 -298t-102.5 -298t-288.5 -120h-441v1366h195zM1100 0v1366h192v-1366h-192zM332 664v-492h223q98 0 155.5 67.5t57.5 178t-57.5 178.5t-155.5 68h-223z" glyph-name="afii10045" horiz-adv-x="1431" unicode="Ы"/><glyph d="M332 1366v-530h246q184 0 287.5 -120t103.5 -298t-102.5 -298t-288.5 -120h-441v1366h195zM332 664v-492h223q98 0 155.5 67.5t57.5 178t-57.5 178.5t-155.5 68h-223z" glyph-name="afii10046" horiz-adv-x="1024" unicode="Ь"/><glyph d="M475 1389q248 0 395.5 -198t147.5 -509t-147.5 -509t-395.5 -198q-276 0 -420 301l164 74q82 -201 256 -200q143 0 234.5 126.5t105.5 333.5h-541v172h539q-20 195 -110.5 313.5t-227.5 118.5q-168 0 -256 -184l-162 74q144 285 418 285z" glyph-name="afii10047" horiz-adv-x="1105" unicode="Э"/><glyph d="M1059 1389q248 0 391 -199t143 -508t-143 -508t-391 -199q-233 0 -372.5 178.5t-156.5 462.5h-198v-616h-195v1366h195v-578h200q25 268 164.5 434.5t362.5 166.5zM1058.5 150q155.5 0 245 150.5t89.5 381.5q0 233 -88 382.5t-246 149.5q-156 0 -244 -149.5t-88 -382.5 q0 -231 88 -381.5t243.5 -150.5z" glyph-name="afii10048" horiz-adv-x="1681" unicode="Ю"/><glyph d="M86 0l276 563q-111 25 -187.5 122t-76.5 265q0 188 107.5 302t279.5 114h445v-1366h-195v530h-182l-248 -530h-219zM735 702v492h-223q-98 0 -155.5 -67.5t-57.5 -178t57.5 -178.5t155.5 -68h223z" glyph-name="afii10049" horiz-adv-x="1067" unicode="Я"/><glyph d="M637 0v102q-92 -127 -260 -127q-125 0 -213 89.5t-88 240.5q0 150 87 237t214 87q174 0 260 -123v158q0 96 -51 148t-146 52q-133 0 -247 -116l-72 122q137 143 348 144q160 0 252 -81t92 -249v-684h-176zM637 217v168q-31 55 -84 87t-115 32q-84 0 -134 -57.5 t-50 -145.5t50 -145.5t134 -57.5q61 0 114.5 32t84.5 87z" glyph-name="afii10065" horiz-adv-x="940" unicode="а"/><glyph d="M80 563q0 373 109.5 551t400.5 234l225 41v-164l-209 -39q-197 -39 -290 -141.5t-113 -268.5q47 98 131 151.5t188 53.5q180 0 282.5 -137t102.5 -346q0 -219 -109.5 -371t-303.5 -152q-201 0 -307.5 160t-106.5 428zM725 498q0 152 -59.5 256t-172 104t-173 -104.5 t-60.5 -255.5q0 -156 60.5 -261.5t173 -105.5t172 105.5t59.5 261.5z" glyph-name="afii10066" horiz-adv-x="989" unicode="б"/><glyph d="M127 0v989h414q150 0 228.5 -69.5t78.5 -184.5q0 -86 -45 -143t-119 -80q80 -20 131 -89t51 -155q0 -123 -78.5 -195.5t-238.5 -72.5h-422zM666 710.5q0 59.5 -35 95.5t-105 36h-223v-260h223q70 0 105 34.5t35 94zM686 289q0 61 -40 103t-114 42h-229v-287h229 q154 1 154 142z" glyph-name="afii10067" horiz-adv-x="948" unicode="в"/><glyph d="M717 836h-414v-836h-176v989h590v-153z" glyph-name="afii10068" horiz-adv-x="757" unicode="г"/><glyph d="M33 154h86q84 133 112 587l15 248h596v-835h108v-406h-153v252h-611v-252h-153v406zM387 715q-23 -414 -100 -561h381v682h-275z" glyph-name="afii10069" horiz-adv-x="991" unicode="д"/><glyph d="M78 496q0 221 112.5 369.5t301.5 148.5q190 0 295.5 -147.5t105.5 -377.5v-51h-635q6 -141 78 -229t194 -88q135 0 228 115l90 -107q-133 -154 -334 -154q-199 0 -317.5 145t-118.5 376zM489 868q-113 0 -170 -93t-63 -212h465q-2 121 -59.5 213t-172.5 92z" glyph-name="afii10070" horiz-adv-x="964" unicode="е"/><glyph d="M1014 0l-262 438h-45v-438h-177v438h-45l-262 -438h-200l309 510l-307 479h198l260 -426h47v426h177v-426h47l260 426h198l-307 -479l312 -510h-203z" glyph-name="afii10072" horiz-adv-x="1236" unicode="ж"/><glyph d="M43 119l96 121q111 -121 254 -121q92 0 142.5 42t50.5 118q0 152 -209 151h-133v141h131q92 0 144 40t52 114q0 66 -54 105.5t-138 39.5q-143 0 -238 -108l-84 112q135 139 332 140q162 0 260.5 -72t98.5 -197q0 -88 -63.5 -155.5t-149.5 -83.5q90 -12 159.5 -75.5 t69.5 -164.5q0 -129 -96.5 -210t-270.5 -81q-215 1 -354 144z" glyph-name="afii10073" horiz-adv-x="841" unicode="з"/><glyph d="M127 0v989h176v-688l363 688h180v-989h-176v707l-371 -707h-172z" glyph-name="afii10074" unicode="и"/><glyph d="M487.5 1128q-188.5 0 -303.5 152l101 82q76 -104 202 -105q129 0 201 105l103 -82q-115 -152 -303.5 -152zM127 0v989h176v-688l363 688h180v-989h-176v707l-371 -707h-172z" glyph-name="afii10075" unicode="й"/><glyph d="M684 0l-252 430l-129 -170v-260h-176v989h176v-512l379 512h207l-336 -444l338 -545h-207z" glyph-name="afii10076" horiz-adv-x="915" unicode="к"/><glyph d="M37 150q37 0 65.5 22.5t55 81.5t45 181t28.5 306l15 248h600v-989h-176v836h-273l-6 -107q-10 -188 -32.5 -324.5t-53.5 -218.5t-75 -130t-89 -64.5t-104 -16.5v175z" glyph-name="afii10077" unicode="л"/><glyph d="M905 0v729l-266 -729h-72l-264 729v-729h-176v989h227l250 -680l248 680h227v-989h-174z" glyph-name="afii10078" horiz-adv-x="1206" unicode="м"/><glyph d="M127 0v989h176v-401h367v401h176v-989h-176v434h-367v-434h-176z" glyph-name="afii10079" unicode="н"/><glyph d="M493.5 -25q-196.5 0 -306 149.5t-109.5 371t109.5 370t306 148.5t306 -148.5t109.5 -370t-109.5 -371t-306 -149.5zM494 131q115 0 174 104.5t59 260.5q0 154 -59.5 258t-173.5 104q-113 0 -172.5 -104.5t-59.5 -258t59.5 -259t172.5 -105.5z" glyph-name="afii10080" horiz-adv-x="987" unicode="о"/><glyph d="M670 0v836h-367v-836h-176v989h719v-989h-176z" glyph-name="afii10081" unicode="п"/><glyph d="M303 -377h-176v1366h176v-135q43 74 111.5 117t144.5 43q166 0 262.5 -140.5t96.5 -378t-96.5 -379t-262.5 -141.5t-256 164v-516zM735 496q0 158 -58.5 260t-166.5 102q-61 0 -119.5 -43t-87.5 -104v-430q29 -61 87.5 -105.5t119.5 -44.5q109 0 167 102.5t58 262.5z" glyph-name="afii10082" horiz-adv-x="995" unicode="р"/><glyph d="M78 496q0 225 115.5 371.5t306.5 146.5q188 0 293 -133l-93 -119q-74 96 -184 96q-121 0 -188.5 -103.5t-67.5 -259t67.5 -260t188.5 -104.5q109 0 184 96l93 -118q-102 -133 -293 -133.5t-306.5 146.5t-115.5 374z" glyph-name="afii10083" horiz-adv-x="841" unicode="с"/><glyph d="M266 0v836h-225v153h629v-153h-228v-836h-176z" glyph-name="afii10084" horiz-adv-x="710" unicode="т"/><glyph d="M113 -231q27 -14 63 -15q82 0 115 90l47 136l-330 1009h189l231 -776l236 776h186l-393 -1186q-37 -113 -101.5 -158.5t-167.5 -45.5q-61 0 -104 14z" glyph-name="afii10085" horiz-adv-x="858" unicode="у"/><glyph d="M690 1014q203 -16 318.5 -153.5t115.5 -364.5q0 -225 -116.5 -364.5t-317.5 -156.5v-352h-176v352q-201 16 -317.5 155.5t-116.5 365.5q0 227 115.5 364t318.5 154v352h176v-352zM262 496q0 -154 64.5 -255.5t187.5 -109.5v727q-123 -8 -187.5 -107t-64.5 -255zM690 133 q123 8 187.5 108.5t64.5 254.5q0 156 -64.5 254t-187.5 106v-723z" glyph-name="afii10086" horiz-adv-x="1204" unicode="ф"/><glyph d="M637 0l-211 379l-215 -379h-193l299 504l-282 485h192l199 -358l197 358h192l-283 -485l299 -504h-194z" glyph-name="afii10087" horiz-adv-x="849" unicode="х"/><glyph d="M786 0h-659v989h176v-835h352v835h174v-835h111v-406h-154v252z" glyph-name="afii10088" horiz-adv-x="978" unicode="ц"/><glyph d="M276 989v-332q0 -92 43 -130t140 -38q111 0 184 41v459h176v-989h-176v393q-100 -59 -237 -59q-158 0 -231 70.5t-73 222.5v362h174z" glyph-name="afii10089" horiz-adv-x="946" unicode="ч"/><glyph d="M1257 989v-989h-1130v989h176v-835h301v835h176v-835h303v835h174z" glyph-name="afii10090" horiz-adv-x="1386" unicode="ш"/><glyph d="M1257 989v-835h117v-406h-153v252h-1094v989h176v-835h301v835h176v-835h303v835h174z" glyph-name="afii10091" horiz-adv-x="1415" unicode="щ"/><glyph d="M266 0v836h-225v153h401v-342h224q158 0 241.5 -95t83.5 -230q0 -131 -84 -226.5t-241 -95.5h-400zM442 500v-353h205q82 0 123 48.5t41 128t-41 128t-123 48.5h-205z" glyph-name="afii10092" horiz-adv-x="1060" unicode="ъ"/><glyph d="M303 989v-342h221q160 0 244 -95t84 -230q0 -131 -85 -226.5t-243 -95.5h-397v989h176zM987 0v989h176v-989h-176zM303 500v-353h205q82 0 123 48.5t41 128t-41 128t-123 48.5h-205z" glyph-name="afii10093" horiz-adv-x="1290" unicode="ы"/><glyph d="M303 989v-342h221q160 0 244 -95t84 -230q0 -131 -85 -226.5t-243 -95.5h-397v989h176zM303 500v-353h205q82 0 123 48.5t41 128t-41 128t-123 48.5h-205z" glyph-name="afii10094" horiz-adv-x="919" unicode="ь"/><glyph d="M383 1014q199 0 316.5 -144.5t117.5 -373.5q0 -231 -117.5 -376t-316.5 -145q-203 0 -334 154l88 107q92 -115 230 -115q121 0 193.5 86t76.5 217h-422v151h422q-6 123 -78 208t-192 85q-133 0 -215 -110l-91 102q121 154 322 154z" glyph-name="afii10095" horiz-adv-x="894" unicode="э"/><glyph d="M881 1014q197 0 306 -148.5t109 -370t-109.5 -371t-305.5 -149.5q-180 0 -288 130.5t-124 328.5h-166v-434h-176v989h176v-401h168q23 186 130.5 306t279.5 120zM881 131q115 0 174 104.5t59 260.5q0 154 -59.5 258t-173.5 104q-113 0 -172.5 -104.5t-59.5 -258 t59.5 -259t172.5 -105.5z" glyph-name="afii10096" horiz-adv-x="1374" unicode="ю"/><glyph d="M92 0l217 395q-88 20 -146.5 96t-58.5 193q0 133 85 219t235 86h416v-989h-176v375h-181l-190 -375h-201zM664 522v320h-220q-76 0 -117.5 -44t-41.5 -114q0 -74 41 -118t118 -44h220z" glyph-name="afii10097" horiz-adv-x="966" unicode="я"/><glyph d="M418 1139l-275 295h203l227 -295h-155zM78 496q0 221 112.5 369.5t301.5 148.5q190 0 295.5 -147.5t105.5 -377.5v-51h-635q6 -141 78 -229t194 -88q135 0 228 115l90 -107q-133 -154 -334 -154q-199 0 -317.5 145t-118.5 376zM489 868q-113 0 -170 -93t-63 -212h465 q-2 121 -59.5 213t-172.5 92z" glyph-name="uni0450" horiz-adv-x="964" unicode="ѐ"/><glyph d="M309 1161q-43 0 -73.5 30t-30.5 73t30.5 73.5t73.5 30.5t73 -30.5t30 -73.5t-30 -73t-73 -30zM672 1161q-41 0 -72 30t-31 73t31 73.5t72 30.5q43 0 73.5 -30.5t30.5 -73.5t-30.5 -73t-73.5 -30zM78 496q0 221 112.5 369.5t301.5 148.5q190 0 295.5 -147.5t105.5 -377.5 v-51h-635q6 -141 78 -229t194 -88q135 0 228 115l90 -107q-133 -154 -334 -154q-199 0 -317.5 145t-118.5 376zM489 868q-113 0 -170 -93t-63 -212h465q-2 121 -59.5 213t-172.5 92z" glyph-name="afii10071" horiz-adv-x="964" unicode="ё"/><glyph d="M506 -389l22 149q29 -8 52 -8q106 0 106 131v805q0 170 -149 170q-68 0 -126.5 -43t-91.5 -104v-711h-176v1094h-114v108h114v164h176v-164h277v-108h-277v-242q45 68 123 115t164 47q256 0 256 -269v-862q0 -139 -66.5 -211.5t-191.5 -72.5q-55 0 -98 12z" glyph-name="afii10099" horiz-adv-x="989" unicode="ђ"/><glyph d="M496 1139h-156l227 295h203zM717 836h-414v-836h-176v989h590v-153z" glyph-name="afii10100" horiz-adv-x="757" unicode="ѓ"/><glyph d="M530 121q135 0 228 115l90 -107q-133 -154 -334 -154q-199 0 -317.5 144.5t-118.5 376.5q0 229 117.5 373.5t318.5 144.5q197 0 322 -154l-93 -102q-84 111 -213 110q-123 0 -193.5 -85t-78.5 -208h424v-151h-422q4 -131 75.5 -217t194.5 -86z" glyph-name="afii10101" horiz-adv-x="894" unicode="є"/><glyph d="M49 115l82 125q109 -123 264 -123q82 0 129 36.5t47 100t-49 100.5t-147 76q-55 20 -85 32.5t-77 40t-70.5 56.5t-43 76t-19.5 104q0 117 88 196t240 79q190 0 313 -127l-78 -121q-82 106 -233 106q-74 0 -119 -34.5t-45 -87.5q0 -39 29.5 -71t61.5 -48.5t97 -42.5 q70 -27 110 -45.5t92 -56t77.5 -93t25.5 -129.5q0 -127 -93 -208t-249 -81q-225 1 -348 140z" glyph-name="afii10102" horiz-adv-x="806" unicode="ѕ"/><glyph d="M215 1155q-47 0 -81 33t-34 80t34 80.5t81 33.5t81 -33.5t34 -80.5t-34 -80t-81 -33zM127 0v989h176v-989h-176z" glyph-name="afii10103" horiz-adv-x="430" unicode="і"/><glyph d="M33 1161q-43 0 -74 30t-31 73t31 73.5t74 30.5t72.5 -30.5t29.5 -73.5t-29.5 -73t-72.5 -30zM395 1161q-41 0 -71.5 30t-30.5 73t30.5 73.5t71.5 30.5q43 0 74 -30.5t31 -73.5t-31 -73t-74 -30zM127 0v989h176v-989h-176z" glyph-name="afii10104" horiz-adv-x="430" unicode="ї"/><glyph d="M215 1155q-47 0 -81 33t-34 80t34 80.5t81 33.5t81 -33.5t34 -80.5t-34 -80t-81 -33zM303 989v-1106q0 -139 -66.5 -211.5t-191.5 -72.5q-53 0 -96 12l22 149q25 -8 49 -8q106 0 107 131v1106h176z" glyph-name="afii10105" horiz-adv-x="430" unicode="ј"/><glyph d="M37 150q37 0 65.5 22.5t55 81.5t45 181t28.5 306l15 248h600v-342h221q160 0 244 -95t84 -230q0 -131 -85 -226.5t-243 -95.5h-397v836h-273l-6 -107q-10 -188 -32.5 -324.5t-53.5 -218.5t-75 -130t-89 -64.5t-104 -16.5v175zM846 500v-353h205q82 0 122.5 48.5t40.5 128 t-40.5 128t-122.5 48.5h-205z" glyph-name="afii10106" horiz-adv-x="1464" unicode="љ"/><glyph d="M127 0v989h176v-401h367v401h176v-356h223q158 0 242 -93.5t84 -224.5t-84 -223t-242 -92h-399v434h-367v-434h-176zM846 485v-338h205q82 0 122.5 45.5t40.5 123t-40.5 123.5t-122.5 46h-205z" glyph-name="afii10107" horiz-adv-x="1464" unicode="њ"/><glyph d="M608 1014q254 0 254 -266v-748h-176v692q0 166 -149 166q-66 0 -125.5 -43t-92.5 -104v-711h-176v1094h-114v108h114v164h176v-164h277v-108h-277v-242q45 66 124 114t165 48z" glyph-name="afii10108" horiz-adv-x="989" unicode="ћ"/><glyph d="M559 1139h-156l228 295h203zM684 0l-252 430l-129 -170v-260h-176v989h176v-512l379 512h207l-336 -444l338 -545h-207z" glyph-name="afii10109" horiz-adv-x="915" unicode="ќ"/><glyph d="M412 1139l-275 295h203l227 -295h-155zM670 0v133q-49 -68 -125 -113t-164 -45q-254 0 -254 267v747h176v-692q0 -166 150 -166q66 0 124 41t93 102v715h174v-989h-174z" glyph-name="uni045D" unicode="ѝ"/><glyph d="M428 1128q-188 0 -303 152l100 82q76 -104 203 -105q129 0 201 105l102 -82q-115 -152 -303 -152zM113 -231q27 -14 63 -15q82 0 115 90l47 136l-330 1009h189l231 -776l236 776h186l-393 -1186q-37 -113 -101.5 -158.5t-167.5 -45.5q-61 0 -104 14z" glyph-name="afii10110" horiz-adv-x="858" unicode="ў"/><glyph d="M829 989v-989h-274v-258h-154v258h-274v989h176v-835h352v835h174z" glyph-name="afii10193" horiz-adv-x="958" unicode="џ"/><glyph d="M618.5 1389q247.5 0 391 -199t143.5 -508t-143.5 -508t-391 -199t-389 199t-141.5 508t141.5 508t389 199zM618 1214q-145 0 -231 -129t-98 -337q72 68 176 67q72 0 170 -51q82 -43 139 -43q100 0 172 74q-20 188 -106.5 303.5t-221.5 115.5zM618 150q145 0 232.5 130 t99.5 336q-74 -68 -176 -67q-74 0 -168 51q-86 45 -141 45q-98 0 -172 -76q20 -188 105 -303.5t220 -115.5z" glyph-name="afii10147" horiz-adv-x="1241" unicode="Ѳ"/><glyph d="M493.5 1014q196.5 0 306 -148.5t109.5 -370t-109.5 -371t-306 -149.5t-306 149.5t-109.5 371t109.5 370t306 148.5zM494 858q-100 0 -159 -83t-71 -214q51 45 119 45q55 0 121 -41q57 -35 100 -35q66 0 117 58q-16 121 -73.5 195.5t-153.5 74.5zM494 131q102 0 160.5 85 t70.5 218q-53 -49 -121 -49q-59 0 -119 39q-55 37 -102 37q-66 0 -115 -55q14 -121 72 -198t154 -77z" glyph-name="afii10195" horiz-adv-x="987" unicode="ѳ"/><glyph d="M778 1110q78 276 324 276q70 0 135 -22l-29 -172q-37 12 -71 12q-129 0 -170 -147l-316 -1057h-233l-408 1366h211l314 -1135z" glyph-name="afii10148" horiz-adv-x="1236" unicode="Ѵ"/><glyph d="M334 0l-326 989h189l231 -780l180 600q57 205 232 205q104 0 188 -62l-70 -135q-39 33 -84 33q-72 0 -102 -94l-248 -756h-190z" glyph-name="afii10196" horiz-adv-x="995" unicode="ѵ"/><glyph d="M596 1470q-188 0 -303 152l100 82q76 -104 203 -105q129 0 201 105l102 -82q-115 -152 -303 -152zM1055 172h198l-123 -424h-172l72 252h-170v1014l-536 -1014h-187v1366h195v-991l526 991h197v-1194z" glyph-name="uni048A" horiz-adv-x="1239" unicode="Ҋ"/><glyph d="M487.5 1128q-188.5 0 -303.5 152l101 82q76 -104 202 -105q129 0 201 105l103 -82q-115 -152 -303.5 -152zM846 154h162l-121 -406h-154l72 252h-135v707l-371 -707h-172v989h176v-688l363 688h180v-835z" glyph-name="uni048B" horiz-adv-x="989" unicode="ҋ"/><glyph d="M578 836q184 0 287.5 -120t103.5 -298t-102.5 -298t-288.5 -120h-441v1020h-106v145h106v201h195v-201h319v-145h-319v-184h246zM555 172q98 0 155.5 67.5t57.5 178t-57.5 178.5t-155.5 68h-223v-492h223z" glyph-name="uni048C" horiz-adv-x="1024" unicode="Ҍ"/><glyph d="M541 647q160 0 243.5 -95t83.5 -230q0 -131 -85 -226.5t-242 -95.5h-398v881h-114v108h114v377h176v-377h277v-108h-277v-234h222zM524 147q82 0 123 48.5t41 128t-41 128t-123 48.5h-205v-353h205z" glyph-name="uni048D" horiz-adv-x="935" unicode="ҍ"/><glyph d="M969 948q0 -231 -154 -344l76 -117l-137 -86l-95 138q-33 -8 -81 -9h-246v-530h-195v1366h441q186 0 288.5 -120t102.5 -298zM332 1194v-492h219l-113 195l140 84l135 -207q55 68 55 174q0 111 -57.5 178.5t-155.5 67.5h-223z" glyph-name="uni048E" horiz-adv-x="1024" unicode="Ҏ"/><glyph d="M918 496q0 -287 -136 -428l58 -91l-121 -79l-64 92q-41 -14 -96 -15q-166 0 -256 164v-516h-176v1366h176v-135q43 74 111.5 117t144.5 43q166 0 262.5 -140t96.5 -378zM303 281q29 -61 87.5 -105.5t119.5 -44.5q27 0 47 6l-119 199l123 78l117 -181q57 100 57 263 q0 158 -58.5 260t-166.5 102q-61 0 -119.5 -43t-87.5 -104v-430z" glyph-name="uni048F" horiz-adv-x="995" unicode="ҏ"/><glyph d="M332 0h-195v1366h553v252h172v-424h-530v-1194z" glyph-name="afii10050" horiz-adv-x="935" unicode="Ґ"/><glyph d="M303 0h-176v989h436v258h154v-411h-414v-836z" glyph-name="afii10098" horiz-adv-x="757" unicode="ґ"/><glyph d="M862 1194h-530v-449h297v-143h-297v-602h-195v602h-106v143h106v621h725v-172z" glyph-name="uni0492" horiz-adv-x="935" unicode="Ғ"/><glyph d="M717 836h-414v-273h221v-121h-221v-442h-176v442h-96v121h96v426h590v-153z" glyph-name="uni0493" horiz-adv-x="757" unicode="ғ"/><glyph d="M502 -96q141 0 221 107.5t80 283.5q0 375 -273 375q-113 0 -198 -62v-608h-195v1366h725v-172h-530v-430q113 78 237 78q195 0 315 -145.5t120 -399.5q0 -240 -137.5 -403.5t-364.5 -163.5v174z" glyph-name="uni0494" horiz-adv-x="1058" unicode="Ҕ"/><glyph d="M559 637q166 0 262.5 -140.5t96.5 -377.5q0 -242 -104.5 -381t-303.5 -139v159q109 0 167 101.5t58 259t-58.5 260t-166.5 102.5q-61 0 -119.5 -43t-87.5 -104v-334h-176v989h590v-153h-414v-359q43 74 111.5 117t144.5 43z" glyph-name="uni0495" horiz-adv-x="995" unicode="ҕ"/><glyph d="M1425 172h162v-424h-172v252h-108l-371 625h-62v-625h-194v625h-62l-370 -625h-230l449 705l-412 661h221l347 -588h57v588h194v-588h56l346 588h223l-412 -661z" glyph-name="uni0496" horiz-adv-x="1609" unicode="Җ"/><glyph d="M1122 154h166v-406h-153v252h-121l-262 438h-45v-438h-177v438h-45l-262 -438h-200l309 510l-307 479h198l260 -426h47v426h177v-426h47l260 426h198l-307 -479z" glyph-name="uni0497" horiz-adv-x="1314" unicode="җ"/><glyph d="M928 371q0 -154 -94.5 -260.5t-255.5 -128.5v-234h-172v234q-240 37 -353 219l125 118q49 -78 130 -123.5t175 -45.5q123 0 185.5 63t62.5 174q0 115 -70.5 170t-191.5 55h-184v172h176q113 0 181.5 53.5t68.5 155.5q0 106 -64.5 162.5t-173.5 56.5q-170 0 -283 -153 l-118 110q68 100 178 158.5t242 58.5q184 0 300.5 -95t116.5 -269q0 -121 -74.5 -207t-185.5 -110q113 -14 196 -105.5t83 -228.5z" glyph-name="uni0498" horiz-adv-x="1019" unicode="Ҙ"/><glyph d="M764 266q0 -113 -76 -190.5t-213 -95.5v-232h-153v232q-166 23 -279 139l96 121q111 -121 254 -121q92 0 142.5 42t50.5 118q0 152 -209 151h-133v141h131q92 0 144 40t52 114q0 66 -54 105.5t-138 39.5q-143 0 -238 -108l-84 112q135 139 332 140q162 0 260.5 -72 t98.5 -197q0 -88 -63.5 -155.5t-149.5 -83.5q90 -12 159.5 -76t69.5 -164z" glyph-name="uni0499" horiz-adv-x="841" unicode="ҙ"/><glyph d="M932 172h153v-424h-172v252h-98l-375 584l-108 -162v-422h-195v1366h195v-684l450 684h230l-451 -647z" glyph-name="uni049A" horiz-adv-x="1107" unicode="Қ"/><glyph d="M795 154h157v-406h-153v252h-115l-252 430l-129 -170v-260h-176v989h176v-512l379 512h207l-336 -444z" glyph-name="uni049B" horiz-adv-x="978" unicode="қ"/><glyph d="M911 0l-321 625h-39v-346h-123v346h-96v-625h-195v1366h195v-588h96v348h123v-348h37l293 588h221l-359 -661l396 -705h-228z" glyph-name="uni049C" horiz-adv-x="1159" unicode="Ҝ"/><glyph d="M793 0l-263 438h-36v-268h-105v268h-86v-438h-176v989h176v-426h86v246h105v-246h38l261 426h198l-307 -479l311 -510h-202z" glyph-name="uni049D" horiz-adv-x="1015" unicode="ҝ"/><glyph d="M561 719l488 -719h-234l-375 584l-108 -162v-422h-195v1055h-106v143h106v168h195v-168h170v-143h-170v-373l450 684h230z" glyph-name="uni049E" horiz-adv-x="1069" unicode="Ҟ"/><glyph d="M569 545l338 -545h-207l-251 430l-130 -170v-260h-176v1094h-114v108h114v164h176v-164h277v-108h-277v-617l379 512h207z" glyph-name="uni049F" horiz-adv-x="931" unicode="ҟ"/><glyph d="M1026 719l490 -719h-234l-375 584l-108 -162v-422h-195v1194h-530v172h725v-684l450 684h230z" glyph-name="uni04A0" horiz-adv-x="1536" unicode="Ҡ"/><glyph d="M455 0v836h-414v153h590v-512l379 512h204l-335 -444l340 -545h-207l-252 430l-129 -170v-260h-176z" glyph-name="uni04A1" horiz-adv-x="1241" unicode="ҡ"/><glyph d="M1059 172h141v-424h-172v252h-166v616h-530v-616h-195v1366h195v-578h530v578h197v-1194z" glyph-name="uni04A2" horiz-adv-x="1241" unicode="Ң"/><glyph d="M846 154h108v-406h-153v252h-131v434h-367v-434h-176v989h176v-401h367v401h176v-835z" glyph-name="uni04A3" horiz-adv-x="995" unicode="ң"/><glyph d="M1587 1366v-172h-528v-1194h-197v616h-530v-616h-195v1366h195v-578h530v578h725z" glyph-name="uni04A4" horiz-adv-x="1660" unicode="Ҥ"/><glyph d="M1260 989v-153h-414v-836h-176v434h-367v-434h-176v989h176v-401h367v401h590z" glyph-name="uni04A5" horiz-adv-x="1300" unicode="ҥ"/><glyph d="M1059 608v-608h-197v1194h-530v-1194h-195v1366h922v-602q109 78 237 78q195 0 314 -144.5t119 -400.5q0 -240 -137.5 -403.5t-364.5 -163.5v174q143 0 223 106.5t80 284.5q0 375 -275 375q-110 -1 -196 -62z" glyph-name="uni04A6" horiz-adv-x="1785" unicode="Ҧ"/><glyph d="M1102 637q166 0 262 -140.5t96 -377.5q0 -242 -104.5 -381t-302.5 -139v159q109 0 167 101.5t58 259t-58.5 260t-166.5 102.5q-63 0 -121 -43t-86 -104v-334h-176v836h-367v-836h-176v989h719v-512q43 74 111.5 117t144.5 43z" glyph-name="uni04A7" horiz-adv-x="1538" unicode="ҧ"/><glyph d="M1536 39q-123 -61 -258 -62q-129 0 -252 52q-117 -53 -256 -54q-311 0 -496.5 203t-185.5 541q0 264 154.5 467t394.5 203v-177q-143 0 -246.5 -144t-103.5 -349q0 -270 122.5 -419.5t356.5 -149.5q25 0 61 4q-236 215 -235 575q0 262 111.5 430t304.5 168 q190 0 301.5 -165t111.5 -429q0 -365 -215 -579q39 -6 84 -7q94 0 189 46zM793 733q0 -367 223 -512q205 143 205 512q0 178 -53.5 299t-159.5 121q-109 0 -162 -121t-53 -299z" glyph-name="uni04A8" horiz-adv-x="1556" unicode="Ҩ"/><glyph d="M1298 31q-90 -55 -227 -56q-119 0 -225 43q-102 -43 -215 -43q-274 0 -413.5 150.5t-139.5 384.5q0 211 119.5 357.5t337.5 146.5v-156q-121 0 -197 -98t-76 -250q0 -170 96.5 -274.5t270.5 -104.5q29 0 43 2q-166 162 -166 393q0 160 87 293t251 133q86 0 153.5 -40 t106.5 -104.5t57.5 -136t18.5 -145.5q0 -104 -44 -209.5t-126 -187.5q20 -2 59 -2q92 0 172 39zM688 514q0 -233 154 -328q158 98 157 328q0 119 -38.5 201t-116.5 82t-117 -82t-39 -201z" glyph-name="uni04A9" horiz-adv-x="1316" unicode="ҩ"/><glyph d="M1051 276q-133 -281 -387 -299l-35 -90q29 23 67 23q53 0 89 -38t36 -95q0 -76 -57 -123t-143 -47q-113 0 -189 61l41 82q66 -57 143 -57q43 0 75 23.5t32 62.5q0 61 -66 61q-39 0 -63 -30l-74 43l47 127q-219 25 -349 218t-130 484q0 311 147.5 509t391.5 198 q279 0 422 -285l-162 -74q-88 184 -260 184q-154 0 -247 -149.5t-93 -382.5t93 -382.5t247 -149.5q178 0 260 200z" glyph-name="uni04AA" horiz-adv-x="1105" unicode="Ҫ"/><glyph d="M516 131q109 0 184 96l93 -118q-94 -123 -263 -134l-34 -88q29 23 67 23q53 0 89 -38t36 -95q0 -76 -57.5 -123t-143.5 -47q-111 0 -188 61l41 82q66 -57 143 -57q43 0 75 23.5t32 62.5q0 61 -66 61q-39 0 -63 -30l-74 43l47 127q-162 27 -259 169t-97 347 q0 225 115.5 371.5t306.5 146.5q188 0 293 -133l-93 -119q-74 96 -184 96q-121 0 -188.5 -103.5t-67.5 -259t67.5 -260t188.5 -104.5z" glyph-name="uni04AB" horiz-adv-x="841" unicode="ҫ"/><glyph d="M881 1194h-320v-1022h141v-424h-172v252h-163v1194h-318v172h832v-172z" glyph-name="uni04AC" horiz-adv-x="929" unicode="Ҭ"/><glyph d="M670 836h-228v-682h109v-406h-154v252h-131v836h-225v153h629v-153z" glyph-name="uni04AD" horiz-adv-x="710" unicode="ҭ"/><glyph d="M426 0v573l-422 793h217l301 -608l303 608h215l-419 -793v-573h-195z" glyph-name="uni04AE" horiz-adv-x="1044" unicode="Ү"/><glyph d="M664 989h186l-334 -989v-377h-174v377l-334 989h189l231 -780z" glyph-name="uni04AF" horiz-adv-x="858" unicode="ү"/><glyph d="M1040 1366l-378 -717h294v-153h-335v-496h-195v496h-338v153h297l-381 717h217l301 -608l303 608h215z" glyph-name="uni04B0" horiz-adv-x="1044" unicode="Ұ"/><glyph d="M850 989l-291 -868h232v-121h-275v-377h-176v377h-274v121h233l-291 868h189l231 -794l236 794h186z" glyph-name="uni04B1" horiz-adv-x="858" unicode="ұ"/><glyph d="M958 172h148v-424h-172v252h-100l-299 543l-299 -543h-226l406 698l-383 668h225l277 -514l274 514h227l-381 -668z" glyph-name="uni04B2" horiz-adv-x="1128" unicode="Ҳ"/><glyph d="M741 154h154v-406h-154v252h-104l-211 379l-215 -379h-193l299 504l-282 485h192l199 -358l197 358h192l-283 -485z" glyph-name="uni04B3" horiz-adv-x="915" unicode="ҳ"/><glyph d="M1262 172h141v-424h-172v252h-864v1194h-318v172h832v-172h-320v-1022h506v1194h195v-1194z" glyph-name="uni04B4" horiz-adv-x="1443" unicode="Ҵ"/><glyph d="M969 154h110v-406h-153v252h-660v836h-225v153h621v-153h-220v-682h353v835h174v-835z" glyph-name="uni04B5" horiz-adv-x="1120" unicode="ҵ"/><glyph d="M942 172h141v-424h-172v252h-163v582q-139 -76 -293 -76q-180 0 -265.5 96t-85.5 303v461h193v-463q0 -125 50 -175t159 -50q133 0 242 57v631h194v-1194z" glyph-name="uni04B6" horiz-adv-x="1124" unicode="Ҷ"/><glyph d="M819 154h109v-406h-154v252h-131v393q-100 -59 -237 -59q-158 0 -231 70.5t-73 222.5v362h174v-332q0 -92 43 -130t140 -38q111 0 184 41v459h176v-835z" glyph-name="uni04B7" horiz-adv-x="968" unicode="ҷ"/><glyph d="M748 1366h194v-1366h-194v582q-68 -39 -164 -64v-239h-123v227q-186 2 -271.5 97t-85.5 302v461h193v-463q0 -111 40 -162t124 -61v446h123v-442q84 10 164 51v631z" glyph-name="uni04B8" horiz-adv-x="1079" unicode="Ҹ"/><glyph d="M643 989h176v-989h-176v393q-49 -31 -129 -47v-176h-104v164q-162 0 -235 70.5t-73 222.5v362h174v-332q0 -80 32 -117.5t102 -47.5v317h104v-315q78 10 129 36v459z" glyph-name="uni04B9" horiz-adv-x="946" unicode="ҹ"/><glyph d="M780 463q0 125 -49 175t-158 50q-135 0 -241 -57v-631h-195v1366h195v-580q139 74 291 74q182 0 267 -96t85 -301v-463h-195v463z" glyph-name="uni04BA" horiz-adv-x="1079" unicode="Һ"/><glyph d="M670 0v692q0 166 -150 166q-66 0 -125 -43t-92 -104v-711h-176v1366h176v-514q45 66 124 114t165 48q254 0 254 -266v-748h-176z" glyph-name="uni04BB" unicode="һ"/><glyph d="M922 147q170 0 262 179l157 -76q-139 -276 -419 -277q-233 0 -381 180.5t-160 477.5h-59q-139 0 -212 66.5t-73 191.5q0 55 14 96l148 -22q-6 -20 -6 -50q0 -106 129 -106h63q29 266 169 424t351 158q254 0 385 -198t131 -558h-841q12 -221 104.5 -353.5t237.5 -132.5z M915 1214q-133 0 -219 -110.5t-108 -298.5h633q-12 178 -91.5 293.5t-214.5 115.5z" glyph-name="uni04BC" horiz-adv-x="1486" unicode="Ҽ"/><glyph d="M1139 489v-51h-635q6 -141 77.5 -229t194.5 -88q135 0 228 115l90 -107q-133 -154 -334 -154q-186 0 -301 127t-131 336h-41q-119 0 -185.5 57.5t-66.5 166.5q0 47 14 96l125 -23q-8 -25 -8 -49q0 -123 123 -123h39q18 197 127.5 324t281.5 127q190 0 296 -148t106 -377z M504 563h463q-2 121 -58.5 213t-173.5 92q-113 0 -170 -93t-61 -212z" glyph-name="uni04BD" horiz-adv-x="1210" unicode="ҽ"/><glyph d="M723 1503q-43 0 -74 30t-31 73t31 73.5t74 30.5t72.5 -30.5t29.5 -73.5t-29.5 -73t-72.5 -30zM1085 1503q-41 0 -71.5 30t-30.5 73t30.5 73.5t71.5 30.5q43 0 74 -30.5t31 -73.5t-31 -73t-74 -30zM922 147q170 0 262 179l157 -76q-119 -238 -346 -270v-232h-172v234 q-195 39 -313.5 212t-128.5 437h-59q-139 0 -212 66.5t-73 191.5q0 55 14 96l148 -22q-6 -20 -6 -50q0 -106 129 -106h63q29 266 169 424t351 158q254 0 385 -198t131 -558h-841q12 -221 104.5 -353.5t237.5 -132.5zM915 1214q-133 0 -219 -110.5t-108 -298.5h633 q-12 178 -91.5 293.5t-214.5 115.5z" glyph-name="uni04BE" horiz-adv-x="1486" unicode="Ҿ"/><glyph d="M555 1161q-43 0 -73.5 30t-30.5 73t30.5 73.5t73.5 30.5t72.5 -30.5t29.5 -73.5t-29.5 -73t-72.5 -30zM918 1161q-41 0 -72 30t-31 73t31 73.5t72 30.5q43 0 73.5 -30.5t30.5 -73.5t-30.5 -73t-73.5 -30zM1139 489v-51h-635q6 -141 77.5 -229t194.5 -88q135 0 228 115 l90 -107q-104 -119 -258 -147v-234h-154v234q-154 27 -247 148.5t-107 307.5h-41q-119 0 -185.5 57.5t-66.5 166.5q0 47 14 96l125 -23q-8 -25 -8 -49q0 -123 123 -123h39q18 197 127.5 324t281.5 127q190 0 296 -148t106 -377zM504 563h463q-2 121 -58.5 213t-173.5 92 q-113 0 -170 -93t-61 -212z" glyph-name="uni04BF" horiz-adv-x="1210" unicode="ҿ"/><glyph d="M137 0v1366h195v-1366h-195z" glyph-name="uni04C0" horiz-adv-x="468" unicode="Ӏ"/><glyph d="M776.5 1470q-188.5 0 -303.5 152l100 82q76 -104 203 -105q129 0 201 105l102 -82q-114 -152 -302.5 -152zM1307 0l-371 625h-62v-625h-194v625h-62l-370 -625h-230l449 705l-412 661h221l347 -588h57v588h194v-588h56l346 588h223l-412 -661l449 -705h-229z" glyph-name="uni04C1" horiz-adv-x="1554" unicode="Ӂ"/><glyph d="M618.5 1128q-188.5 0 -303.5 152l101 82q76 -104 202 -105q129 0 201 105l103 -82q-115 -152 -303.5 -152zM1014 0l-262 438h-45v-438h-177v438h-45l-262 -438h-200l309 510l-307 479h198l260 -426h47v426h177v-426h47l260 426h198l-307 -479l312 -510h-203z" glyph-name="uni04C2" horiz-adv-x="1236" unicode="ӂ"/><glyph d="M621 801q180 -29 279 -164t99 -358q0 -231 -137 -390t-364 -159v174q141 0 221 101t80 271q0 360 -275 361h-192v-637h-195v1366h195v-559h86l364 559h230z" glyph-name="uni04C3" horiz-adv-x="1054" unicode="Ӄ"/><glyph d="M563 561q150 -33 227.5 -156.5t77.5 -318.5q0 -227 -104.5 -357t-302.5 -130v159q109 0 167 94.5t58 242t-58.5 241.5t-166.5 94h-158v-430h-176v989h176v-418h70l309 418h207z" glyph-name="uni04C4" horiz-adv-x="915" unicode="ӄ"/><glyph d="M1059 172h198l-122 -424h-172l69 252h-170v1194h-344l-14 -233q-16 -262 -48 -447.5t-70 -289t-96.5 -161t-110.5 -73t-128 -15.5v193q43 0 73 13.5t64.5 60.5t58 132t45 233.5t34.5 359.5l24 399h709v-1194z" glyph-name="uni04C5" horiz-adv-x="1232" unicode="Ӆ"/><glyph d="M846 154h162l-121 -406h-154l72 252h-135v836h-273l-6 -107q-10 -188 -32.5 -324.5t-53.5 -218.5t-75 -130t-89 -64.5t-104 -16.5v175q37 0 65.5 22.5t55 81.5t45 181t28.5 306l15 248h600v-835z" glyph-name="uni04C6" horiz-adv-x="989" unicode="ӆ"/><glyph d="M862 1366h197v-1391q0 -190 -104.5 -283t-280.5 -93q-57 0 -107 14l23 170q35 -10 67 -10q98 0 151.5 53t53.5 156v634h-530v-616h-195v1366h195v-578h530v578z" glyph-name="uni04C7" horiz-adv-x="1193" unicode="Ӈ"/><glyph d="M670 989h176v-1106q0 -139 -66.5 -211.5t-191.5 -72.5q-51 0 -99 12l25 149q25 -8 49 -8q106 0 107 131v551h-367v-434h-176v989h176v-401h367v401z" glyph-name="uni04C8" unicode="ӈ"/><glyph d="M1059 172h198l-122 -424h-172l69 252h-170v616h-530v-616h-195v1366h195v-578h530v578h197v-1194z" glyph-name="uni04C9" horiz-adv-x="1232" unicode="Ӊ"/><glyph d="M846 154h162l-121 -406h-154l72 252h-135v434h-367v-434h-176v989h176v-401h367v401h176v-835z" glyph-name="uni04CA" horiz-adv-x="989" unicode="ӊ"/><glyph d="M748 1366h194v-1366h-164v-252h-172v424h142v410q-139 -76 -293 -76q-180 0 -265.5 96t-85.5 303v461h193v-463q0 -125 50 -175t159 -50q133 0 242 57v631z" glyph-name="uni04CB" horiz-adv-x="1079" unicode="Ӌ"/><glyph d="M643 989h176v-989h-131v-252h-153v406h108v239q-100 -59 -237 -59q-158 0 -231 70.5t-73 222.5v362h174v-332q0 -92 43 -130t140 -38q111 0 184 41v459z" glyph-name="uni04CC" horiz-adv-x="946" unicode="ӌ"/><glyph d="M1292 172h199l-123 -424h-172l72 252h-168v1049l-346 -1049h-78l-344 1049v-1049h-195v1366h269l309 -942l313 942h264v-1194z" glyph-name="uni04CD" horiz-adv-x="1476" unicode="Ӎ"/><glyph d="M1079 154h162l-121 -406h-153l71 252h-133v729l-266 -729h-72l-264 729v-729h-176v989h227l250 -680l248 680h227v-835z" glyph-name="uni04CE" horiz-adv-x="1222" unicode="ӎ"/><glyph d="M127 0v1366h176v-1366h-176z" glyph-name="uni04CF" horiz-adv-x="430" unicode="ӏ"/><glyph d="M534.5 1470q-188.5 0 -303.5 152l101 82q76 -104 203 -105q129 0 200 105l103 -82q-115 -152 -303.5 -152zM858 0l-80 289h-485l-80 -289h-203l408 1366h233l410 -1366h-203zM535 1186l-201 -725h403z" glyph-name="uni04D0" horiz-adv-x="1071" unicode="Ӑ"/><glyph d="M477.5 1128q-188.5 0 -303.5 152l100 82q76 -104 203 -105q129 0 201 105l102 -82q-114 -152 -302.5 -152zM637 0v102q-92 -127 -260 -127q-125 0 -213 89.5t-88 240.5q0 150 87 237t214 87q174 0 260 -123v158q0 96 -51 148t-146 52q-133 0 -247 -116l-72 122 q137 143 348 144q160 0 252 -81t92 -249v-684h-176zM637 217v168q-31 55 -84 87t-115 32q-84 0 -134 -57.5t-50 -145.5t50 -145.5t134 -57.5q61 0 114.5 32t84.5 87z" glyph-name="uni04D1" horiz-adv-x="940" unicode="ӑ"/><glyph d="M352 1503q-43 0 -73.5 30t-30.5 73t30.5 73.5t73.5 30.5t73 -30.5t30 -73.5t-30 -73t-73 -30zM715 1503q-41 0 -72 30t-31 73t31 73.5t72 30.5q43 0 73.5 -30.5t30.5 -73.5t-30.5 -73t-73.5 -30zM858 0l-80 289h-485l-80 -289h-203l408 1366h233l410 -1366h-203z M535 1186l-201 -725h403z" glyph-name="uni04D2" horiz-adv-x="1071" unicode="Ӓ"/><glyph d="M295 1161q-43 0 -74 30t-31 73t31 73.5t74 30.5t72.5 -30.5t29.5 -73.5t-29.5 -73t-72.5 -30zM657 1161q-41 0 -71.5 30t-30.5 73t30.5 73.5t71.5 30.5q43 0 74 -30.5t31 -73.5t-31 -73t-74 -30zM637 0v102q-92 -127 -260 -127q-125 0 -213 89.5t-88 240.5q0 150 87 237 t214 87q174 0 260 -123v158q0 96 -51 148t-146 52q-133 0 -247 -116l-72 122q137 143 348 144q160 0 252 -81t92 -249v-684h-176zM637 217v168q-31 55 -84 87t-115 32q-84 0 -134 -57.5t-50 -145.5t50 -145.5t134 -57.5q61 0 114.5 32t84.5 87z" glyph-name="uni04D3" horiz-adv-x="940" unicode="ӓ"/><glyph d="M741 0v289h-393l-131 -289h-203l648 1366h804v-172h-528v-412h514v-172h-514v-438h528v-172h-725zM741 1188l-321 -727h321v727z" glyph-name="uni04D4" horiz-adv-x="1558" unicode="Ӕ"/><glyph d="M840 438q6 -141 72.5 -229t183.5 -88q127 0 215 117l88 -109q-131 -154 -318 -154q-217 0 -325 195q-47 -86 -136.5 -140.5t-201.5 -54.5q-152 0 -247 87.5t-95 239t89 239.5t224 88q182 0 279 -121v156q0 96 -55.5 148t-155.5 52q-147 0 -264 -116l-72 122 q141 143 352 144q113 0 189.5 -49.5t103.5 -135.5q102 184 297 185q182 0 281.5 -147.5t99.5 -379.5v-49h-604zM1272 563q0 121 -52.5 213t-162.5 92q-106 0 -160.5 -93t-58.5 -212h434zM668 385q-74 119 -217 119q-88 0 -142.5 -52.5t-54.5 -140.5q0 -90 53 -141t144 -51 q92 0 154.5 68.5t62.5 160.5v37z" glyph-name="uni04D5" horiz-adv-x="1515" unicode="ӕ"/><glyph d="M510 1470q-90 0 -170 41t-133 113l86 68q78 -113 217 -113q141 0 217 113l86 -68q-113 -154 -303 -154zM137 0v1366h725v-172h-530v-412h516v-172h-516v-438h530v-172h-725z" glyph-name="uni04D6" horiz-adv-x="954" unicode="Ӗ"/><glyph d="M491.5 1128q-188.5 0 -303.5 152l101 82q76 -104 203 -105q129 0 200 105l103 -82q-115 -152 -303.5 -152zM78 496q0 221 112.5 369.5t301.5 148.5q190 0 295.5 -147.5t105.5 -377.5v-51h-635q6 -141 78 -229t194 -88q135 0 228 115l90 -107q-133 -154 -334 -154 q-199 0 -317.5 145t-118.5 376zM489 868q-113 0 -170 -93t-63 -212h465q-2 121 -59.5 213t-172.5 92z" glyph-name="uni04D7" horiz-adv-x="964" unicode="ӗ"/><glyph d="M565 1389q246 0 395.5 -195t149.5 -512t-145.5 -513t-380.5 -196q-254 0 -385 198t-131 558h839q-10 223 -103 354t-239 131q-172 0 -262 -178l-158 78q141 275 420 275zM571.5 147q133.5 0 220.5 111t109 299h-633q12 -176 91 -293t212.5 -117z" glyph-name="uni04D8" horiz-adv-x="1196" unicode="Ә"/><glyph d="M887 494q0 -221 -112.5 -370t-301.5 -149q-190 0 -295.5 147.5t-105.5 377.5v51h635q-6 141 -78 229t-195 88q-135 0 -227 -114l-90 106q131 154 334 154q199 0 317.5 -144.5t118.5 -375.5zM475 121q113 0 170 93t64 212h-465q2 -121 59 -213t172 -92z" glyph-name="afii10846" horiz-adv-x="964" unicode="ә"/><glyph d="M405.5 1503q-43.5 0 -74 30t-30.5 73t30.5 73.5t74 30.5t73 -30.5t29.5 -73.5t-29.5 -73t-73 -30zM768 1503q-41 0 -71.5 30t-30.5 73t30.5 73.5t71.5 30.5q43 0 73.5 -30.5t30.5 -73.5t-30.5 -73t-73.5 -30zM565 1389q246 0 395.5 -195t149.5 -512t-145.5 -513 t-380.5 -196q-254 0 -385 198t-131 558h839q-10 223 -103 354t-239 131q-172 0 -262 -178l-158 78q141 275 420 275zM571.5 147q133.5 0 220.5 111t109 299h-633q12 -176 91 -293t212.5 -117z" glyph-name="uni04DA" horiz-adv-x="1196" unicode="Ӛ"/><glyph d="M297 1161q-43 0 -73.5 30t-30.5 73t30.5 73.5t73.5 30.5t72.5 -30.5t29.5 -73.5t-29.5 -73t-72.5 -30zM659 1161q-41 0 -71.5 30t-30.5 73t30.5 73.5t71.5 30.5q43 0 74 -30.5t31 -73.5t-31 -73t-74 -30zM887 494q0 -221 -112.5 -370t-301.5 -149q-190 0 -295.5 147.5 t-105.5 377.5v51h635q-6 141 -78 229t-195 88q-135 0 -227 -114l-90 106q131 154 334 154q199 0 317.5 -144.5t118.5 -375.5zM475 121q113 0 170 93t64 212h-465q2 -121 59 -213t172 -92z" glyph-name="uni04DB" horiz-adv-x="964" unicode="ӛ"/><glyph d="M594 1503q-43 0 -74 30t-31 73t31 73.5t74 30.5t72.5 -30.5t29.5 -73.5t-29.5 -73t-72.5 -30zM956 1503q-41 0 -71.5 30t-30.5 73t30.5 73.5t71.5 30.5q43 0 74 -30.5t31 -73.5t-31 -73t-74 -30zM1307 0l-371 625h-62v-625h-194v625h-62l-370 -625h-230l449 705l-412 661 h221l347 -588h57v588h194v-588h56l346 588h223l-412 -661l449 -705h-229z" glyph-name="uni04DC" horiz-adv-x="1554" unicode="Ӝ"/><glyph d="M436 1161q-43 0 -73.5 30t-30.5 73t30.5 73.5t73.5 30.5t73 -30.5t30 -73.5t-30 -73t-73 -30zM799 1161q-41 0 -72 30t-31 73t31 73.5t72 30.5q43 0 73.5 -30.5t30.5 -73.5t-30.5 -73t-73.5 -30zM1014 0l-262 438h-45v-438h-177v438h-45l-262 -438h-200l309 510l-307 479 h198l260 -426h47v426h177v-426h47l260 426h198l-307 -479l312 -510h-203z" glyph-name="uni04DD" horiz-adv-x="1236" unicode="ӝ"/><glyph d="M309 1503q-43 0 -73.5 30t-30.5 73t30.5 73.5t73.5 30.5t73 -30.5t30 -73.5t-30 -73t-73 -30zM672 1503q-41 0 -72 30t-31 73t31 73.5t72 30.5q43 0 73.5 -30.5t30.5 -73.5t-30.5 -73t-73.5 -30zM53 201l125 118q49 -78 130 -123.5t175 -45.5q123 0 185.5 63t62.5 174 q0 115 -70.5 170t-191.5 55h-184v172h176q113 0 181.5 53.5t68.5 155.5q0 106 -64.5 162.5t-173.5 56.5q-170 0 -283 -153l-118 110q68 100 178 158.5t242 58.5q184 0 300.5 -95t116.5 -269q0 -121 -74.5 -207t-185.5 -110q113 -14 196 -105.5t83 -228.5q0 -174 -119 -285 t-317 -111q-145 0 -262.5 64t-176.5 162z" glyph-name="uni04DE" horiz-adv-x="1019" unicode="Ӟ"/><glyph d="M221 1161q-43 0 -73.5 30t-30.5 73t30.5 73.5t73.5 30.5t73 -30.5t30 -73.5t-30 -73t-73 -30zM584 1161q-41 0 -72 30t-31 73t31 73.5t72 30.5q43 0 73.5 -30.5t30.5 -73.5t-30.5 -73t-73.5 -30zM43 119l96 121q111 -121 254 -121q92 0 142.5 42t50.5 118q0 152 -209 151 h-133v141h131q92 0 144 40t52 114q0 66 -54 105.5t-138 39.5q-143 0 -238 -108l-84 112q135 139 332 140q162 0 260.5 -72t98.5 -197q0 -88 -63.5 -155.5t-149.5 -83.5q90 -12 159.5 -75.5t69.5 -164.5q0 -129 -96.5 -210t-270.5 -81q-215 1 -354 144z" glyph-name="uni04DF" horiz-adv-x="841" unicode="ӟ"/><glyph d="M537 782q186 -8 288.5 -114.5t102.5 -286.5q0 -182 -119 -294t-317 -112q-145 0 -262 63.5t-177 162.5l125 118q49 -78 130 -123.5t175 -45.5q119 0 183.5 63t64.5 170q0 117 -70.5 173t-191.5 56h-184v127l346 455h-541v172h787v-135z" glyph-name="uni04E0" horiz-adv-x="1019" unicode="Ӡ"/><glyph d="M397 389q143 -23 230.5 -127t87.5 -264q0 -178 -97.5 -288.5t-271.5 -110.5q-221 0 -352 161l94 125q100 -131 246 -131q94 0 146 65.5t52 182.5q0 123 -69.5 180.5t-183.5 57.5h-86v118l276 478h-442v153h653v-112z" glyph-name="uni04E1" horiz-adv-x="755" unicode="ӡ"/><glyph d="M328 1509v125h534v-125h-534zM137 1366h195v-991l526 991h197v-1366h-195v1014l-536 -1014h-187v1366z" glyph-name="uni04E2" horiz-adv-x="1191" unicode="Ӣ"/><glyph d="M219 1167v125h535v-125h-535zM127 0v989h176v-688l363 688h180v-989h-176v707l-371 -707h-172z" glyph-name="uni04E3" unicode="ӣ"/><glyph d="M414 1503q-43 0 -74 30t-31 73t31 73.5t74 30.5t72.5 -30.5t29.5 -73.5t-29.5 -73t-72.5 -30zM776 1503q-41 0 -71.5 30t-30.5 73t30.5 73.5t71.5 30.5q43 0 74 -30.5t31 -73.5t-31 -73t-74 -30zM137 1366h195v-991l526 991h197v-1366h-195v1014l-536 -1014h-187v1366z " glyph-name="uni04E4" horiz-adv-x="1191" unicode="Ӥ"/><glyph d="M305 1161q-43 0 -73.5 30t-30.5 73t30.5 73.5t73.5 30.5t73 -30.5t30 -73.5t-30 -73t-73 -30zM668 1161q-41 0 -72 30t-31 73t31 73.5t72 30.5q43 0 73.5 -30.5t30.5 -73.5t-30.5 -73t-73.5 -30zM127 0v989h176v-688l363 688h180v-989h-176v707l-371 -707h-172z" glyph-name="uni04E5" unicode="ӥ"/><glyph d="M436 1503q-43 0 -73.5 30t-30.5 73t30.5 73.5t73.5 30.5t73 -30.5t30 -73.5t-30 -73t-73 -30zM799 1503q-41 0 -72 30t-31 73t31 73.5t72 30.5q43 0 73.5 -30.5t30.5 -73.5t-30.5 -73t-73.5 -30zM88 682q0 309 141.5 508t389 199t391 -199t143.5 -508t-143.5 -508 t-391 -199t-389 199t-141.5 508zM952 682q0 233 -88 382.5t-246 149.5q-156 0 -243.5 -149.5t-87.5 -382.5q0 -231 88 -381.5t243.5 -150.5t244.5 150.5t89 381.5z" glyph-name="uni04E6" horiz-adv-x="1241" unicode="Ӧ"/><glyph d="M311 1161q-43 0 -73.5 30t-30.5 73t30.5 73.5t73.5 30.5t73 -30.5t30 -73.5t-30 -73t-73 -30zM674 1161q-41 0 -72 30t-31 73t31 73.5t72 30.5q43 0 73.5 -30.5t30.5 -73.5t-30.5 -73t-73.5 -30zM493.5 -25q-196.5 0 -306 149.5t-109.5 371t109.5 370t306 148.5 t306 -148.5t109.5 -370t-109.5 -371t-306 -149.5zM494 131q115 0 174 104.5t59 260.5q0 154 -59.5 258t-173.5 104q-113 0 -172.5 -104.5t-59.5 -258t59.5 -259t172.5 -105.5z" glyph-name="uni04E7" horiz-adv-x="987" unicode="ӧ"/><glyph d="M618.5 1389q247.5 0 391 -199t143.5 -508t-143.5 -508t-391 -199t-389 199t-141.5 508t141.5 508t389 199zM618 1214q-137 0 -222 -118.5t-103 -313.5h653q-18 195 -103.5 313.5t-224.5 118.5zM618.5 150q143.5 0 230.5 128t99 332h-657q14 -205 99 -332.5t228.5 -127.5z " glyph-name="uni04E8" horiz-adv-x="1241" unicode="Ө"/><glyph d="M493.5 1014q196.5 0 306 -148.5t109.5 -370t-109.5 -371t-306 -149.5t-306 149.5t-109.5 371t109.5 370t306 148.5zM493.5 858q-100.5 0 -157.5 -83t-70 -212h457q-12 129 -70.5 212t-159 83zM493.5 131q102.5 0 160 86t69.5 221h-459q12 -135 69.5 -221t160 -86z" glyph-name="uni04E9" horiz-adv-x="987" unicode="ө"/><glyph d="M436 1503q-43 0 -73.5 30t-30.5 73t30.5 73.5t73.5 30.5t73 -30.5t30 -73.5t-30 -73t-73 -30zM799 1503q-41 0 -72 30t-31 73t31 73.5t72 30.5q43 0 73.5 -30.5t30.5 -73.5t-30.5 -73t-73.5 -30zM618.5 1389q247.5 0 391 -199t143.5 -508t-143.5 -508t-391 -199t-389 199 t-141.5 508t141.5 508t389 199zM618 1214q-137 0 -222 -118.5t-103 -313.5h653q-18 195 -103.5 313.5t-224.5 118.5zM618.5 150q143.5 0 230.5 128t99 332h-657q14 -205 99 -332.5t228.5 -127.5z" glyph-name="uni04EA" horiz-adv-x="1241" unicode="Ӫ"/><glyph d="M311 1161q-43 0 -73.5 30t-30.5 73t30.5 73.5t73.5 30.5t73 -30.5t30 -73.5t-30 -73t-73 -30zM674 1161q-41 0 -72 30t-31 73t31 73.5t72 30.5q43 0 73.5 -30.5t30.5 -73.5t-30.5 -73t-73.5 -30zM493.5 1014q196.5 0 306 -148.5t109.5 -370t-109.5 -371t-306 -149.5 t-306 149.5t-109.5 371t109.5 370t306 148.5zM493.5 858q-100.5 0 -157.5 -83t-70 -212h457q-12 129 -70.5 212t-159 83zM493.5 131q102.5 0 160 86t69.5 221h-459q12 -135 69.5 -221t160 -86z" glyph-name="uni04EB" horiz-adv-x="987" unicode="ӫ"/><glyph d="M313 1503q-43 0 -73.5 30t-30.5 73t30.5 73.5t73.5 30.5t73 -30.5t30 -73.5t-30 -73t-73 -30zM676 1503q-41 0 -72 30t-31 73t31 73.5t72 30.5q43 0 73.5 -30.5t30.5 -73.5t-30.5 -73t-73.5 -30zM475 1389q248 0 395.5 -198t147.5 -509t-147.5 -509t-395.5 -198 q-276 0 -420 301l164 74q82 -201 256 -200q143 0 234.5 126.5t105.5 333.5h-541v172h539q-20 195 -110.5 313.5t-227.5 118.5q-168 0 -256 -184l-162 74q144 285 418 285z" glyph-name="uni04EC" horiz-adv-x="1105" unicode="Ӭ"/><glyph d="M221 1161q-43 0 -73.5 30t-30.5 73t30.5 73.5t73.5 30.5t73 -30.5t30 -73.5t-30 -73t-73 -30zM584 1161q-41 0 -72 30t-31 73t31 73.5t72 30.5q43 0 73.5 -30.5t30.5 -73.5t-30.5 -73t-73.5 -30zM383 1014q199 0 316.5 -144.5t117.5 -373.5q0 -231 -117.5 -376 t-316.5 -145q-203 0 -334 154l88 107q92 -115 230 -115q121 0 193.5 86t76.5 217h-422v151h422q-6 123 -78 208t-192 85q-133 0 -215 -110l-91 102q121 154 322 154z" glyph-name="uni04ED" horiz-adv-x="894" unicode="ӭ"/><glyph d="M788 1634v-125h-534v125h534zM827 1366h213l-430 -1126q-53 -139 -133 -202t-205 -63q-86 0 -151 31l47 164q41 -18 92 -18q61 0 100 34.5t78 122.5l19 53l-453 1004h215l332 -766z" glyph-name="uni04EE" horiz-adv-x="1044" unicode="Ӯ"/><glyph d="M160 1167v125h534v-125h-534zM113 -231q27 -14 63 -15q82 0 115 90l47 136l-330 1009h189l231 -776l236 776h186l-393 -1186q-37 -113 -101.5 -158.5t-167.5 -45.5q-61 0 -104 14z" glyph-name="uni04EF" horiz-adv-x="858" unicode="ӯ"/><glyph d="M340 1503q-43 0 -73.5 30t-30.5 73t30.5 73.5t73.5 30.5t72.5 -30.5t29.5 -73.5t-29.5 -73t-72.5 -30zM702 1503q-41 0 -71.5 30t-30.5 73t31 73.5t71 30.5q43 0 74 -30.5t31 -73.5t-31 -73t-74 -30zM827 1366h213l-430 -1126q-53 -139 -133 -202t-205 -63q-86 0 -151 31 l47 164q41 -18 92 -18q61 0 100 34.5t78 122.5l19 53l-453 1004h215l332 -766z" glyph-name="uni04F0" horiz-adv-x="1044" unicode="Ӱ"/><glyph d="M246 1161q-43 0 -74 30t-31 73t31 73.5t74 30.5t72.5 -30.5t29.5 -73.5t-29.5 -73t-72.5 -30zM608 1161q-41 0 -71.5 30t-30.5 73t30.5 73.5t71.5 30.5q43 0 74 -30.5t31 -73.5t-31 -73t-74 -30zM113 -231q27 -14 63 -15q82 0 115 90l47 136l-330 1009h189l231 -776 l236 776h186l-393 -1186q-37 -113 -101.5 -158.5t-167.5 -45.5q-61 0 -104 14z" glyph-name="uni04F1" horiz-adv-x="858" unicode="ӱ"/><glyph d="M629 1776l-197 -295h-135l152 295h180zM735 1481h-135l152 295h180zM827 1366h213l-430 -1126q-53 -139 -133 -202t-205 -63q-86 0 -151 31l47 164q41 -18 92 -18q61 0 100 34.5t78 122.5l19 53l-453 1004h215l332 -766z" glyph-name="uni04F2" horiz-adv-x="1044" unicode="Ӳ"/><glyph d="M338 1139h-135l151 295h181zM641 1139h-135l151 295h181zM113 -231q27 -14 63 -15q82 0 115 90l47 136l-330 1009h189l231 -776l236 776h186l-393 -1186q-37 -113 -101.5 -158.5t-167.5 -45.5q-61 0 -104 14z" glyph-name="uni04F3" horiz-adv-x="858" unicode="ӳ"/><glyph d="M340 1503q-43 0 -73.5 30t-30.5 73t30.5 73.5t73.5 30.5t72.5 -30.5t29.5 -73.5t-29.5 -73t-72.5 -30zM702 1503q-41 0 -71.5 30t-30.5 73t31 73.5t71 30.5q43 0 74 -30.5t31 -73.5t-31 -73t-74 -30zM297 903q0 -125 50 -175t159 -50q133 0 242 57v631h194v-1366h-194 v582q-139 -76 -293 -76q-180 0 -265.5 96t-85.5 303v461h193v-463z" glyph-name="uni04F4" horiz-adv-x="1079" unicode="Ӵ"/><glyph d="M279 1161q-43 0 -74 30t-31 73t31 73.5t74 30.5t72.5 -30.5t29.5 -73.5t-29.5 -73t-72.5 -30zM641 1161q-41 0 -71.5 30t-30.5 73t30.5 73.5t71.5 30.5q43 0 73.5 -30.5t30.5 -73.5t-30.5 -73t-73.5 -30zM276 989v-332q0 -92 43 -130t140 -38q111 0 184 41v459h176v-989 h-176v393q-100 -59 -237 -59q-158 0 -231 70.5t-73 222.5v362h174z" glyph-name="uni04F5" horiz-adv-x="946" unicode="ӵ"/><glyph d="M862 1194h-530v-1022h141v-424h-172v252h-164v1366h725v-172z" glyph-name="uni04F6" horiz-adv-x="935" unicode="Ӷ"/><glyph d="M717 836h-414v-682h109v-406h-154v252h-131v989h590v-153z" glyph-name="uni04F7" horiz-adv-x="757" unicode="ӷ"/><glyph d="M532 1503q-43 0 -73.5 30t-30.5 73t30.5 73.5t73.5 30.5t73 -30.5t30 -73.5t-30 -73t-73 -30zM895 1503q-41 0 -71.5 30t-30.5 73t30.5 73.5t71.5 30.5q43 0 73.5 -30.5t30.5 -73.5t-30.5 -73t-73.5 -30zM332 1366v-530h246q184 0 287.5 -120t103.5 -298t-102.5 -298 t-288.5 -120h-441v1366h195zM1100 0v1366h192v-1366h-192zM332 664v-492h223q98 0 155.5 67.5t57.5 178t-57.5 178.5t-155.5 68h-223z" glyph-name="uni04F8" horiz-adv-x="1431" unicode="Ӹ"/><glyph d="M463 1161q-43 0 -74 30t-31 73t31 73.5t74 30.5t72.5 -30.5t29.5 -73.5t-29.5 -73t-72.5 -30zM825 1161q-41 0 -71.5 30t-30.5 73t30.5 73.5t71.5 30.5q43 0 74 -30.5t31 -73.5t-31 -73t-74 -30zM303 989v-342h221q160 0 244 -95t84 -230q0 -131 -85 -226.5t-243 -95.5 h-397v989h176zM987 0v989h176v-989h-176zM303 500v-353h205q82 0 123 48.5t41 128t-41 128t-123 48.5h-205z" glyph-name="uni04F9" horiz-adv-x="1290" unicode="ӹ"/><glyph d="M862 1194h-530v-449h297v-143h-297v-627q0 -190 -104.5 -283t-278.5 -93q-61 0 -107 14l21 170q35 -10 69 -10q96 0 150.5 53t54.5 156v620h-106v143h106v621h725v-172z" glyph-name="uni04FA" horiz-adv-x="935" unicode="Ӻ"/><glyph d="M717 836h-414v-273h221v-121h-221v-559q0 -139 -66.5 -211.5t-191.5 -72.5q-53 0 -96 12l22 149q25 -8 49 -8q106 0 107 131v559h-96v121h96v426h590v-153z" glyph-name="uni04FB" horiz-adv-x="757" unicode="ӻ"/><glyph d="M913 240q84 -145 84 -279q0 -180 -104.5 -271t-280.5 -91q-57 0 -106 14l22 170q35 -10 68 -10q98 0 152.5 51t54.5 143q0 76 -49 168l-219 408l-299 -543h-226l406 698l-383 668h225l277 -514l274 514h227l-381 -668z" glyph-name="uni04FC" horiz-adv-x="1069" unicode="Ӽ"/><glyph d="M739 158q72 -127 72 -248q0 -311 -268 -311q-51 0 -99 12l25 149q25 -8 49 -8q119 0 119 158q0 92 -47 180l-164 289l-215 -379h-193l299 504l-282 485h192l199 -358l197 358h192l-283 -485z" glyph-name="uni04FD" horiz-adv-x="849" unicode="ӽ"/><glyph d="M698 625l361 -625h-225l-299 543l-299 -543h-226l363 625h-221v153h219l-338 588h225l277 -514l274 514h227l-336 -588h218v-153h-220z" glyph-name="uni04FE" horiz-adv-x="1069" unicode="Ӿ"/><glyph d="M569 442l262 -442h-194l-211 379l-215 -379h-193l263 442h-168v125h168l-246 422h192l199 -358l197 358h192l-246 -422h168v-125h-168z" glyph-name="uni04FF" horiz-adv-x="849" unicode="ӿ"/><glyph d="M530 -25q-201 0 -319.5 111t-118.5 285q0 137 83 228t196 106q-111 25 -185.5 110.5t-74.5 206.5q0 174 116.5 269t300.5 95q133 0 244 -58t176 -159l-119 -110q-113 154 -282 153q-106 0 -172 -56t-66 -163q0 -102 68.5 -155.5t181.5 -53.5h176v-172h-182 q-121 0 -192.5 -55t-71.5 -170q0 -111 63.5 -174t184.5 -63q94 0 175 46t130 123l125 -118q-59 -98 -175.5 -162t-261.5 -64z" glyph-name="uni0510" horiz-adv-x="1019" unicode="Ԑ"/><glyph d="M444 -25q-174 0 -270 81t-96 210q0 100 69.5 164t161.5 76q-88 16 -151.5 82.5t-63.5 156.5q0 125 98.5 197t262.5 72q197 0 331 -140l-84 -112q-96 109 -239 108q-84 0 -138.5 -39.5t-54.5 -105.5q0 -74 52.5 -114t144.5 -40h133v-141h-135q-209 0 -209 -151 q0 -76 51 -118t142 -42q147 0 253 121l97 -121q-138 -144 -355 -144z" glyph-name="uni0511" horiz-adv-x="841" unicode="ԑ"/><glyph d="M350 1366h709v-1391q0 -190 -104.5 -283t-280.5 -93q-57 0 -107 14l23 170q35 -10 67 -10q98 0 151.5 53t53.5 156v1212h-344l-14 -233q-16 -262 -48 -447.5t-70 -289t-96.5 -161t-110.5 -73t-128 -15.5v193q43 0 73 13.5t64.5 60.5t58 132t45 233.5t34.5 359.5z" glyph-name="uni0512" horiz-adv-x="1193" unicode="Ԓ"/><glyph d="M246 989h600v-1106q0 -139 -66.5 -211.5t-191.5 -72.5q-51 0 -99 12l25 149q25 -8 49 -8q106 0 107 131v953h-273l-6 -107q-10 -188 -32.5 -324.5t-53.5 -218.5t-75 -130t-89 -64.5t-104 -16.5v175q37 0 65.5 22.5t55 81.5t45 181t28.5 306z" glyph-name="uni0513" unicode="ԓ"/><glyph d="M956 0l-208 1030l-209 -1030h-205l-307 1366h209l210 -1067l222 1067h159l224 -1067l209 1067h208l-305 -1366h-207z" glyph-name="uni051C" horiz-adv-x="1495" unicode="Ԝ"/><glyph d="M868 0l-200 760l-201 -760h-182l-265 989h183l182 -756l199 756h164l200 -756l185 756h184l-266 -989h-183z" glyph-name="uni051D" horiz-adv-x="1335" unicode="ԝ"/><glyph d="M1059 172h141v-424h-172v252h-166v1194h-530v-1194h-195v1366h922v-1194z" glyph-name="uni0524" horiz-adv-x="1241" unicode="Ԥ"/><glyph d="M846 154h108v-406h-153v252h-131v836h-367v-836h-176v989h719v-835z" glyph-name="uni0525" horiz-adv-x="995" unicode="ԥ"/><glyph d="M975 174h141v-424h-172v250h-164v463q0 125 -49 175t-158 50q-135 0 -241 -57v-631h-195v1366h195v-580q139 74 291 74q182 0 267 -96t85 -301v-289z" glyph-name="uni0526" horiz-adv-x="1157" unicode="Ԧ"/><glyph d="M846 154h108v-406h-153v252h-131v692q0 166 -150 166q-66 0 -125 -43t-92 -104v-711h-176v1366h176v-514q45 66 124 114t165 48q254 0 254 -266v-594z" glyph-name="uni0527" horiz-adv-x="995" unicode="ԧ"/><glyph d="M1059 172h141v-424h-172v252h-166v1194h-344l-14 -233q-16 -262 -48 -447.5t-70 -289t-96.5 -161t-110.5 -73t-128 -15.5v193q43 0 73 13.5t64.5 60.5t58 132t45 233.5t34.5 359.5l24 399h709v-1194z" glyph-name="uni052E" horiz-adv-x="1241" unicode="Ԯ"/><glyph d="M846 154h108v-406h-153v252h-131v836h-273l-6 -107q-10 -188 -32.5 -324.5t-53.5 -218.5t-75 -130t-89 -64.5t-104 -16.5v175q37 0 65.5 22.5t55 81.5t45 181t28.5 306l15 248h600v-835z" glyph-name="uni052F" horiz-adv-x="995" unicode="ԯ"/><glyph d="M428 1604q0 43 32 73.5t72 30.5q43 0 74 -30.5t31 -73.5q0 -45 -31 -75t-74 -30t-73.5 31t-30.5 74zM137 0v1366h486q162 0 253 -96t91 -252q0 -125 -58.5 -206t-152.5 -107q98 -14 165.5 -112.5t67.5 -223.5q0 -168 -91 -268.5t-261 -100.5h-500zM332 782h250 q92 0 138 56.5t46 148.5t-46 149.5t-138 57.5h-250v-412zM332 172h258q96 0 147 57.5t51 161.5q0 94 -51 156.5t-147 62.5h-258v-438z" glyph-name="uni1E02" horiz-adv-x="1081" unicode="Ḃ"/><glyph d="M408 1604q0 43 31.5 73.5t72.5 30.5q43 0 73.5 -30.5t30.5 -73.5q0 -45 -30.5 -75t-73.5 -30t-73.5 31t-30.5 74zM127 0v1366h176v-514q43 78 111.5 120t144.5 42q166 0 262.5 -142.5t96.5 -377.5q0 -238 -96.5 -378.5t-262.5 -140.5q-76 0 -144.5 43t-111.5 117v-135 h-176zM303 279q29 -61 87.5 -104.5t119.5 -43.5q111 0 168 101.5t57 261t-57 262t-168 102.5q-61 0 -119.5 -44t-87.5 -107v-428z" glyph-name="uni1E03" horiz-adv-x="997" unicode="ḃ"/><glyph d="M483 1604q0 43 32 73.5t73 30.5q43 0 73.5 -30.5t30.5 -73.5q0 -45 -30.5 -75t-73.5 -30t-74 31t-31 74zM137 0v1366h385q264 0 413.5 -190.5t149.5 -493.5q0 -305 -148.5 -493.5t-412.5 -188.5h-387zM332 172h190q174 0 268.5 141.5t94.5 368.5q0 231 -93.5 371.5 t-269.5 140.5h-190v-1022z" glyph-name="uni1E0A" horiz-adv-x="1173" unicode="Ḋ"/><glyph d="M401 1604q0 43 32 73.5t73 30.5q43 0 73.5 -30.5t30.5 -73.5q0 -45 -30.5 -75t-73.5 -30t-74 31t-31 74zM694 0v135q-45 -74 -113.5 -117t-144.5 -43q-166 0 -262 140.5t-96 378.5q0 236 96 378t262 142q164 0 258 -162v514h174v-1366h-174zM694 279v430q-29 61 -87 105 t-122 44q-109 0 -167 -102.5t-58 -261.5q0 -158 58.5 -260.5t166.5 -102.5q63 0 121.5 43.5t87.5 104.5z" glyph-name="uni1E0B" horiz-adv-x="997" unicode="ḋ"/><glyph d="M408 1604q0 43 31.5 73.5t72.5 30.5q43 0 73.5 -30.5t30.5 -73.5q0 -45 -30.5 -75t-73.5 -30t-73.5 31t-30.5 74zM137 0v1366h725v-172h-530v-412h516v-172h-516v-610h-195z" glyph-name="uni1E1E" horiz-adv-x="935" unicode="Ḟ"/><glyph d="M283 1604q0 43 31.5 73.5t72.5 30.5q43 0 74 -30.5t31 -73.5q0 -45 -31 -75t-74 -30t-73.5 31t-30.5 74zM166 0v836h-129v153h129v107q0 135 69.5 212.5t184.5 77.5q82 0 139 -30l-39 -135q-29 16 -63 16q-53 0 -84 -37t-31 -104v-107h166v-153h-166v-836h-176z" glyph-name="uni1E1F" horiz-adv-x="540" unicode="ḟ"/><glyph d="M494 1604q0 43 31.5 73.5t72.5 30.5q43 0 73.5 -30.5t30.5 -73.5q0 -45 -30.5 -75t-73.5 -30t-73.5 31t-30.5 74zM862 0v616h-530v-616h-195v1366h195v-578h530v578h197v-1366h-197z" glyph-name="uni1E22" horiz-adv-x="1193" unicode="Ḣ"/><glyph d="M383 1604q0 43 31.5 73.5t72.5 30.5q43 0 74 -30.5t31 -73.5q0 -45 -31 -75t-74 -30t-73.5 31t-30.5 74zM670 0v692q0 166 -150 166q-66 0 -125 -43t-92 -104v-711h-176v1366h176v-514q45 66 124 114t165 48q254 0 254 -266v-748h-176z" glyph-name="uni1E23" unicode="ḣ"/><glyph d="M426 1604q0 43 31.5 73.5t72.5 30.5q43 0 74 -30.5t31 -73.5q0 -45 -31 -75t-74 -30t-73.5 31t-30.5 74zM137 0v1366h441q186 0 288.5 -120t102.5 -298t-103.5 -298t-287.5 -120h-246v-530h-195zM768 948.5q0 110.5 -57.5 178t-155.5 67.5h-223v-492h223q98 0 155.5 68 t57.5 178.5z" glyph-name="uni1E56" horiz-adv-x="1024" unicode="Ṗ"/><glyph d="M442 1262q0 43 32 73.5t73 30.5q43 0 73.5 -30.5t30.5 -73.5q0 -45 -30.5 -75t-73.5 -30t-74 31t-31 74zM303 -377h-176v1366h176v-135q43 74 111.5 117t144.5 43q166 0 262.5 -140.5t96.5 -378t-96.5 -379t-262.5 -141.5t-256 164v-516zM735 496q0 158 -58.5 260 t-166.5 102q-61 0 -119.5 -43t-87.5 -104v-430q29 -61 87.5 -105.5t119.5 -44.5q109 0 167 102.5t58 262.5z" glyph-name="uni1E57" horiz-adv-x="995" unicode="ṗ"/><glyph d="M381 1604q0 43 31.5 73.5t72.5 30.5q43 0 74 -30.5t31 -73.5q0 -45 -31 -75t-74 -30t-73.5 31t-30.5 74zM53 147l101 152q127 -150 321 -149q113 0 173.5 58t60.5 144q0 49 -19.5 88t-62.5 71t-78 51.5t-100 49.5q-59 27 -85 40.5t-79.5 43t-79 56t-56 66.5t-44 90 t-13.5 110q0 160 115 265.5t295 105.5q231 0 377 -146l-99 -147q-111 119 -284 118q-90 0 -147.5 -51t-57.5 -135q0 -41 17.5 -74.5t60.5 -63.5t72.5 -46.5t95.5 -46.5q70 -33 106.5 -51.5t95 -59.5t89 -81t54 -102.5t23.5 -137.5q0 -168 -111.5 -279t-316.5 -111 q-266 0 -424 172z" glyph-name="uni1E60" horiz-adv-x="978" unicode="Ṡ"/><glyph d="M299 1262q0 43 31.5 73.5t72.5 30.5q43 0 74 -30.5t31 -73.5q0 -45 -31 -75t-74 -30t-73.5 31t-30.5 74zM49 115l82 125q109 -123 264 -123q82 0 129 36.5t47 100t-49 100.5t-147 76q-55 20 -85 32.5t-77 40t-70.5 56.5t-43 76t-19.5 104q0 117 88 196t240 79 q190 0 313 -127l-78 -121q-82 106 -233 106q-74 0 -119 -34.5t-45 -87.5q0 -39 29.5 -71t61.5 -48.5t97 -42.5q70 -27 110 -45.5t92 -56t77.5 -93t25.5 -129.5q0 -127 -93 -208t-249 -81q-225 1 -348 140z" glyph-name="uni1E61" horiz-adv-x="806" unicode="ṡ"/><glyph d="M360 1604q0 43 32 73.5t73 30.5q43 0 73.5 -30.5t30.5 -73.5q0 -45 -30.5 -75t-73.5 -30t-74 31t-31 74zM367 0v1194h-318v172h832v-172h-320v-1194h-194z" glyph-name="uni1E6A" horiz-adv-x="929" unicode="Ṫ"/><glyph d="M145 1604q0 43 32 73.5t73 30.5q43 0 73.5 -30.5t30.5 -73.5q0 -45 -30.5 -75t-73.5 -30t-74 31t-31 74zM375 -25q-213 0 -213 234v627h-131v153h131v271h174v-271h166v-153h-166v-592q0 -113 78 -113q53 0 84 35l45 -131q-59 -60 -168 -60z" glyph-name="uni1E6B" horiz-adv-x="559" unicode="ṫ"/><glyph d="M686 1481l-274 295h170l227 -295h-123zM956 0l-208 1030l-209 -1030h-205l-307 1366h209l210 -1067l222 1067h159l224 -1067l209 1067h208l-305 -1366h-207z" glyph-name="Wgrave" horiz-adv-x="1495" unicode="Ẁ"/><glyph d="M606 1139l-274 295h170l227 -295h-123zM868 0l-200 760l-201 -760h-182l-265 989h183l182 -756l199 756h164l200 -756l185 756h184l-266 -989h-183z" glyph-name="wgrave" horiz-adv-x="1335" unicode="ẁ"/><glyph d="M805 1481h-123l227 295h170zM956 0l-208 1030l-209 -1030h-205l-307 1366h209l210 -1067l222 1067h159l224 -1067l209 1067h208l-305 -1366h-207z" glyph-name="Wacute" horiz-adv-x="1495" unicode="Ẃ"/><glyph d="M725 1139h-123l227 295h170zM868 0l-200 760l-201 -760h-182l-265 989h183l182 -756l199 756h164l200 -756l185 756h184l-266 -989h-183z" glyph-name="wacute" horiz-adv-x="1335" unicode="ẃ"/><glyph d="M565 1503q-43 0 -73.5 30t-30.5 73t30.5 73.5t73.5 30.5t73 -30.5t30 -73.5t-30 -73t-73 -30zM928 1503q-41 0 -72 30t-31 73t31 73.5t72 30.5q43 0 73.5 -30.5t30.5 -73.5t-30.5 -73t-73.5 -30zM956 0l-208 1030l-209 -1030h-205l-307 1366h209l210 -1067l222 1067h159 l224 -1067l209 1067h208l-305 -1366h-207z" glyph-name="Wdieresis" horiz-adv-x="1495" unicode="Ẅ"/><glyph d="M485 1161q-43 0 -73.5 30t-30.5 73t30.5 73.5t73.5 30.5t73 -30.5t30 -73.5t-30 -73t-73 -30zM848 1161q-41 0 -72 30t-31 73t31 73.5t72 30.5q43 0 73.5 -30.5t30.5 -73.5t-30.5 -73t-73.5 -30zM868 0l-200 760l-201 -760h-182l-265 989h183l182 -756l199 756h164 l200 -756l185 756h184l-266 -989h-183z" glyph-name="wdieresis" horiz-adv-x="1335" unicode="ẅ"/><glyph d="M715 803q166 -16 267 -120.5t101 -285.5q0 -184 -113.5 -303t-293.5 -119q-168 0 -266 88l90 150q80 -66 178 -66q96 0 151.5 68t55.5 182q0 248 -301 248h-72v170l254 342q-66 59 -172 60q-125 0 -193.5 -78t-68.5 -224v-915h-195v915q0 225 121 349.5t336 124.5 q289 0 395 -213z" glyph-name="uni1E9E" horiz-adv-x="1138" unicode="ẞ"/><glyph d="M858 0l-80 289h-485l-80 -289h-203l408 1366h233l410 -1366h-203zM535 1186l-201 -725h403zM430 -244q0 43 32 74t73 31q43 0 73.5 -31t30.5 -74t-30.5 -73.5t-73.5 -30.5q-41 0 -73 30.5t-32 73.5z" glyph-name="uni1EA0" horiz-adv-x="1071" unicode="Ạ"/><glyph d="M637 0v102q-92 -127 -260 -127q-125 0 -213 89.5t-88 240.5q0 150 87 237t214 87q174 0 260 -123v158q0 96 -51 148t-146 52q-133 0 -247 -116l-72 122q137 143 348 144q160 0 252 -81t92 -249v-684h-176zM637 217v168q-31 55 -84 87t-115 32q-84 0 -134 -57.5 t-50 -145.5t50 -145.5t134 -57.5q61 0 114.5 32t84.5 87zM373 -244q0 43 31.5 74t72.5 31q43 0 74 -31t31 -74t-31 -73.5t-74 -30.5q-41 0 -72.5 30.5t-31.5 73.5z" glyph-name="uni1EA1" horiz-adv-x="940" unicode="ạ"/><glyph d="M350 1671q39 137 178 137q76 0 124 -44t48 -132q0 -78 -47 -149h-108q57 66 57 145q0 90 -74 90q-61 0 -84 -71zM858 0l-80 289h-485l-80 -289h-203l408 1366h233l410 -1366h-203zM535 1186l-201 -725h403z" glyph-name="uni1EA2" horiz-adv-x="1071" unicode="Ả"/><glyph d="M293 1329q39 137 178 137q76 0 124 -44t48 -132q0 -78 -47 -149h-109q57 66 58 145q0 90 -74 90q-61 0 -84 -71zM637 0v102q-92 -127 -260 -127q-125 0 -213 89.5t-88 240.5q0 150 87 237t214 87q174 0 260 -123v158q0 96 -51 148t-146 52q-133 0 -247 -116l-72 122 q137 143 348 144q160 0 252 -81t92 -249v-684h-176zM637 217v168q-31 55 -84 87t-115 32q-84 0 -134 -57.5t-50 -145.5t50 -145.5t134 -57.5q61 0 114.5 32t84.5 87z" glyph-name="uni1EA3" horiz-adv-x="940" unicode="ả"/><glyph d="M870 1634h-137l213 221h184zM678 1481l-143 149l-136 -149h-108l149 221h191l155 -221h-108zM858 0l-80 289h-485l-80 -289h-203l408 1366h233l410 -1366h-203zM535 1186l-201 -725h403z" glyph-name="uni1EA4" horiz-adv-x="1071" unicode="Ấ"/><glyph d="M799 1343h-123l227 295h170zM621 1139l-144 207l-135 -207h-109l162 295h166l168 -295h-108zM637 0v102q-92 -127 -260 -127q-125 0 -213 89.5t-88 240.5q0 150 87 237t214 87q174 0 260 -123v158q0 96 -51 148t-146 52q-133 0 -247 -116l-72 122q137 143 348 144 q160 0 252 -81t92 -249v-684h-176zM637 217v168q-31 55 -84 87t-115 32q-84 0 -134 -57.5t-50 -145.5t50 -145.5t134 -57.5q61 0 114.5 32t84.5 87z" glyph-name="uni1EA5" horiz-adv-x="940" unicode="ấ"/><glyph d="M209 1634l-260 221h184l213 -221h-137zM678 1481l-143 149l-136 -149h-108l149 221h191l155 -221h-108zM858 0l-80 289h-485l-80 -289h-203l408 1366h233l410 -1366h-203zM535 1186l-201 -725h403z" glyph-name="uni1EA6" horiz-adv-x="1071" unicode="Ầ"/><glyph d="M166 1343l-275 295h170l228 -295h-123zM621 1139l-144 207l-135 -207h-109l162 295h166l168 -295h-108zM637 0v102q-92 -127 -260 -127q-125 0 -213 89.5t-88 240.5q0 150 87 237t214 87q174 0 260 -123v158q0 96 -51 148t-146 52q-133 0 -247 -116l-72 122 q137 143 348 144q160 0 252 -81t92 -249v-684h-176zM637 217v168q-31 55 -84 87t-115 32q-84 0 -134 -57.5t-50 -145.5t50 -145.5t134 -57.5q61 0 114.5 32t84.5 87z" glyph-name="uni1EA7" horiz-adv-x="940" unicode="ầ"/><glyph d="M539 1806q39 102 178 103q78 0 125 -33t47 -98q0 -59 -47 -113h-109q57 45 58 98q0 61 -74 62q-59 0 -84 -49zM678 1481l-143 149l-136 -149h-108l149 221h191l155 -221h-108zM858 0l-80 289h-485l-80 -289h-203l408 1366h233l410 -1366h-203zM535 1186l-201 -725h403z " glyph-name="uni1EA8" horiz-adv-x="1071" unicode="Ẩ"/><glyph d="M481 1532q39 137 178 137q76 0 124 -44t48 -132q0 -78 -47 -150h-108q57 66 57 146q0 90 -74 90q-61 0 -84 -72zM621 1139l-144 207l-135 -207h-109l162 295h166l168 -295h-108zM637 0v102q-92 -127 -260 -127q-125 0 -213 89.5t-88 240.5q0 150 87 237t214 87 q174 0 260 -123v158q0 96 -51 148t-146 52q-133 0 -247 -116l-72 122q137 143 348 144q160 0 252 -81t92 -249v-684h-176zM637 217v168q-31 55 -84 87t-115 32q-84 0 -134 -57.5t-50 -145.5t50 -145.5t134 -57.5q61 0 114.5 32t84.5 87z" glyph-name="uni1EA9" horiz-adv-x="940" unicode="ẩ"/><glyph d="M502 1802q-41 45 -70 45q-35 0 -57.5 -27.5t-22.5 -80.5h-98q0 92 47 149.5t133 57.5q35 0 62.5 -12.5t40 -25t32.5 -34.5q47 -47 76 -47q76 0 76 108h98q0 -92 -47 -148t-133 -56q-74 -1 -137 71zM678 1481l-143 149l-136 -149h-108l149 221h191l155 -221h-108zM858 0 l-80 289h-485l-80 -289h-203l408 1366h233l410 -1366h-203zM535 1186l-201 -725h403z" glyph-name="uni1EAA" horiz-adv-x="1071" unicode="Ẫ"/><glyph d="M444 1573q-41 72 -73 72q-76 0 -76 -166h-98q0 123 47 198.5t133 75.5q35 0 62.5 -18.5t40 -36t32.5 -51.5q45 -72 76 -72q76 0 76 166h98q0 -123 -47 -199t-133 -76q-35 0 -64 19.5t-40 35t-34 52.5zM621 1139l-144 207l-135 -207h-109l162 295h166l168 -295h-108z M637 0v102q-92 -127 -260 -127q-125 0 -213 89.5t-88 240.5q0 150 87 237t214 87q174 0 260 -123v158q0 96 -51 148t-146 52q-133 0 -247 -116l-72 122q137 143 348 144q160 0 252 -81t92 -249v-684h-176zM637 217v168q-31 55 -84 87t-115 32q-84 0 -134 -57.5t-50 -145.5 t50 -145.5t134 -57.5q61 0 114.5 32t84.5 87z" glyph-name="uni1EAB" horiz-adv-x="940" unicode="ẫ"/><glyph d="M678 1481l-143 207l-136 -207h-108l162 295h165l168 -295h-108zM858 0l-80 289h-485l-80 -289h-203l408 1366h233l410 -1366h-203zM535 1186l-201 -725h403zM430 -244q0 43 32 74t73 31q43 0 73.5 -31t30.5 -74t-30.5 -73.5t-73.5 -30.5q-41 0 -73 30.5t-32 73.5z" glyph-name="uni1EAC" horiz-adv-x="1071" unicode="Ậ"/><glyph d="M621 1139l-144 207l-135 -207h-109l162 295h166l168 -295h-108zM637 0v102q-92 -127 -260 -127q-125 0 -213 89.5t-88 240.5q0 150 87 237t214 87q174 0 260 -123v158q0 96 -51 148t-146 52q-133 0 -247 -116l-72 122q137 143 348 144q160 0 252 -81t92 -249v-684h-176z M637 217v168q-31 55 -84 87t-115 32q-84 0 -134 -57.5t-50 -145.5t50 -145.5t134 -57.5q61 0 114.5 32t84.5 87zM373 -244q0 43 31.5 74t72.5 31q43 0 74 -31t31 -74t-31 -73.5t-74 -30.5q-41 0 -72.5 30.5t-31.5 73.5z" glyph-name="uni1EAD" horiz-adv-x="940" unicode="ậ"/><glyph d="M606 1702h-137l213 221h184zM534.5 1481q-190.5 0 -303.5 143l84 70q80 -104 220 -105q141 0 219 105l84 -70q-113 -143 -303.5 -143zM858 0l-80 289h-485l-80 -289h-203l408 1366h233l410 -1366h-203zM535 1186l-201 -725h403z" glyph-name="uni1EAE" horiz-adv-x="1071" unicode="Ắ"/><glyph d="M535 1372h-123l227 295h170zM477 1128q-90 0 -170 41t-133 113l86 68q78 -113 217 -113q141 0 217 113l86 -68q-113 -154 -303 -154zM637 0v102q-92 -127 -260 -127q-125 0 -213 89.5t-88 240.5q0 150 87 237t214 87q174 0 260 -123v158q0 96 -51 148t-146 52 q-133 0 -247 -116l-72 122q137 143 348 144q160 0 252 -81t92 -249v-684h-176zM637 217v168q-31 55 -84 87t-115 32q-84 0 -134 -57.5t-50 -145.5t50 -145.5t134 -57.5q61 0 114.5 32t84.5 87z" glyph-name="uni1EAF" horiz-adv-x="940" unicode="ắ"/><glyph d="M463 1702l-260 221h184l213 -221h-137zM534.5 1481q-190.5 0 -303.5 143l84 70q80 -104 220 -105q141 0 219 105l84 -70q-113 -143 -303.5 -143zM858 0l-80 289h-485l-80 -289h-203l408 1366h233l410 -1366h-203zM535 1186l-201 -725h403z" glyph-name="uni1EB0" horiz-adv-x="1071" unicode="Ằ"/><glyph d="M416 1372l-275 295h170l228 -295h-123zM477 1128q-90 0 -170 41t-133 113l86 68q78 -113 217 -113q141 0 217 113l86 -68q-113 -154 -303 -154zM637 0v102q-92 -127 -260 -127q-125 0 -213 89.5t-88 240.5q0 150 87 237t214 87q174 0 260 -123v158q0 96 -51 148t-146 52 q-133 0 -247 -116l-72 122q137 143 348 144q160 0 252 -81t92 -249v-684h-176zM637 217v168q-31 55 -84 87t-115 32q-84 0 -134 -57.5t-50 -145.5t50 -145.5t134 -57.5q61 0 114.5 32t84.5 87z" glyph-name="uni1EB1" horiz-adv-x="940" unicode="ằ"/><glyph d="M340 1843q39 102 178 103q78 0 125 -33t47 -98q0 -59 -47 -113h-108q57 45 57 98q0 61 -74 62q-59 0 -84 -50zM534.5 1481q-190.5 0 -303.5 143l84 70q80 -104 220 -105q141 0 219 105l84 -70q-113 -143 -303.5 -143zM858 0l-80 289h-485l-80 -289h-203l408 1366h233 l410 -1366h-203zM535 1186l-201 -725h403z" glyph-name="uni1EB2" horiz-adv-x="1071" unicode="Ẳ"/><glyph d="M293 1563q39 137 178 137q76 0 124 -44t48 -132q0 -78 -47 -150h-109q57 66 58 146q0 90 -74 90q-61 0 -84 -72zM477 1128q-90 0 -170 41t-133 113l86 68q78 -113 217 -113q141 0 217 113l86 -68q-113 -154 -303 -154zM637 0v102q-92 -127 -260 -127q-125 0 -213 89.5 t-88 240.5q0 150 87 237t214 87q174 0 260 -123v158q0 96 -51 148t-146 52q-133 0 -247 -116l-72 122q137 143 348 144q160 0 252 -81t92 -249v-684h-176zM637 217v168q-31 55 -84 87t-115 32q-84 0 -134 -57.5t-50 -145.5t50 -145.5t134 -57.5q61 0 114.5 32t84.5 87z" glyph-name="uni1EB3" horiz-adv-x="940" unicode="ẳ"/><glyph d="M502 1800q-41 45 -70 45q-35 0 -57.5 -27.5t-22.5 -80.5h-98q0 92 47 149.5t133 57.5q35 0 62.5 -12.5t40 -25t32.5 -34.5q47 -47 76 -47q76 0 76 108h98q0 -92 -47 -148t-133 -56q-74 -1 -137 71zM534.5 1481q-190.5 0 -303.5 143l84 70q80 -104 220 -105q141 0 219 105 l84 -70q-113 -143 -303.5 -143zM858 0l-80 289h-485l-80 -289h-203l408 1366h233l410 -1366h-203zM535 1186l-201 -725h403z" glyph-name="uni1EB4" horiz-adv-x="1071" unicode="Ẵ"/><glyph d="M444 1475q-41 72 -73 71q-76 0 -76 -166h-98q0 123 47 199t133 76q35 0 62.5 -18.5t40 -36t32.5 -52.5q45 -72 76 -71q76 0 76 165h98q0 -123 -47 -198.5t-133 -75.5q-35 0 -64 19.5t-40 35t-34 52.5zM477 1128q-90 0 -170 41t-133 113l86 68q78 -113 217 -113 q141 0 217 113l86 -68q-113 -154 -303 -154zM637 0v102q-92 -127 -260 -127q-125 0 -213 89.5t-88 240.5q0 150 87 237t214 87q174 0 260 -123v158q0 96 -51 148t-146 52q-133 0 -247 -116l-72 122q137 143 348 144q160 0 252 -81t92 -249v-684h-176zM637 217v168 q-31 55 -84 87t-115 32q-84 0 -134 -57.5t-50 -145.5t50 -145.5t134 -57.5q61 0 114.5 32t84.5 87z" glyph-name="uni1EB5" horiz-adv-x="940" unicode="ẵ"/><glyph d="M535 1470q-90 0 -170 41t-134 113l86 68q78 -113 218 -113q141 0 217 113l86 -68q-113 -154 -303 -154zM858 0l-80 289h-485l-80 -289h-203l408 1366h233l410 -1366h-203zM535 1186l-201 -725h403zM430 -244q0 43 32 74t73 31q43 0 73.5 -31t30.5 -74t-30.5 -73.5 t-73.5 -30.5q-41 0 -73 30.5t-32 73.5z" glyph-name="uni1EB6" horiz-adv-x="1071" unicode="Ặ"/><glyph d="M477 1128q-90 0 -170 41t-133 113l86 68q78 -113 217 -113q141 0 217 113l86 -68q-113 -154 -303 -154zM637 0v102q-92 -127 -260 -127q-125 0 -213 89.5t-88 240.5q0 150 87 237t214 87q174 0 260 -123v158q0 96 -51 148t-146 52q-133 0 -247 -116l-72 122 q137 143 348 144q160 0 252 -81t92 -249v-684h-176zM637 217v168q-31 55 -84 87t-115 32q-84 0 -134 -57.5t-50 -145.5t50 -145.5t134 -57.5q61 0 114.5 32t84.5 87zM373 -244q0 43 31.5 74t72.5 31q43 0 74 -31t31 -74t-31 -73.5t-74 -30.5q-41 0 -72.5 30.5t-31.5 73.5z " glyph-name="uni1EB7" horiz-adv-x="940" unicode="ặ"/></font>
</defs>
</svg>
