<svg width="40" height="40" viewBox="0 0 40 40" xmlns="http://www.w3.org/2000/svg"><g id="final-homepage-Chinmay" stroke="none" stroke-width="1" fill="none" fill-rule="evenodd"><g id="Web-_Final-Homepage" transform="translate(-461 -4737)" fill-rule="nonzero"><g id="Footer" transform="translate(0 4717)"><g id="footer"><g id="Group-13"><g id="Group-27" transform="translate(103 20)"><g id="Group-12"><g id="Group-9" transform="translate(356)"><g id="footer_fb" transform="translate(2)"><path d="M19.953 0c11.02 0 19.954 8.934 19.954 19.953 0 11.021-8.933 19.954-19.954 19.954C8.933 39.907 0 30.974 0 19.953 0 8.934 8.933 0 19.953 0z" id="Shape" fill="#3B5998"/><path d="M22.383 13.737h2.571v-3.8h-3.023v.015c-3.662.13-4.413 2.188-4.48 4.35h-.007V16.2H14.95v3.72h2.494v9.971h3.759V19.92h3.08l.594-3.72h-3.673v-1.146c0-.731.487-1.317 1.179-1.317z" id="Shape" fill="#FFF"/></g></g></g></g></g></g></g></g></g></svg>