<svg width="30" height="36" viewBox="0 0 30 36" xmlns="http://www.w3.org/2000/svg"><g id="final-homepage-Chinmay" stroke="none" stroke-width="1" fill="none" fill-rule="evenodd"><g id="Web-_Final-Homepage" transform="translate(-267 -4771)" fill="#FFF" fill-rule="nonzero"><g id="Footer" transform="translate(0 4717)"><g id="footer"><g id="Group-13"><g id="Group-27" transform="translate(103 20)"><g id="Group-12"><g id="Group-4" transform="translate(0 1)"><g id="flaticon1506579808-svg" transform="translate(164 33)"><path d="M24.014 11.724c.4 0 .725.325.725.726v15.107c0 .401-.325.726-.725.726h-3.257v5.091a2.139 2.139 0 0 1-4.278 0v-5.091h-2.991v5.091a2.139 2.139 0 0 1-4.278 0v-5.091H5.998a.726.726 0 0 1-.725-.726V12.45c0-.4.324-.726.725-.726h18.016zm-21.791-.003a2.14 2.14 0 0 1 2.139 2.139v8.687a2.139 2.139 0 0 1-4.278 0V13.86c0-1.181.957-2.139 2.139-2.139zm25.566 0c1.182 0 2.14.958 2.14 2.139v8.687a2.139 2.139 0 0 1-4.279 0V13.86c0-1.181.958-2.139 2.14-2.139zM6.144 10.665a.727.727 0 0 1-.71-.876A9.774 9.774 0 0 1 10.2 3.295L8.69.568a.382.382 0 0 1 .668-.371l1.523 2.748a9.722 9.722 0 0 1 4.104-.902c1.465 0 2.855.323 4.103.902L20.61.197a.382.382 0 1 1 .669.37l-1.512 2.728a9.773 9.773 0 0 1 4.768 6.494.727.727 0 0 1-.71.876H6.143zM20.26 6.601a.822.822 0 1 0-1.644 0 .822.822 0 0 0 1.644 0zm-9.73-.823a.822.822 0 1 0 0 1.645.822.822 0 0 0 0-1.645z" id="android"/></g></g></g></g></g></g></g></g></g></svg>