<?xml version="1.0" encoding="UTF-8"?>
<svg width="300px" height="106px" viewBox="0 0 300 106" version="1.1" xmlns="http://www.w3.org/2000/svg" xmlns:xlink="http://www.w3.org/1999/xlink">
    <!-- Generator: Sketch 52.2 (67145) - http://www.bohemiancoding.com/sketch -->
    <title>Profit_light bg</title>
    <desc>Created with Sketch.</desc>
    <defs>
        <path d="M154.695176,2.83127155 C46.5851017,43.1255744 -17.0503591,-5.36359337 4.16094116,0.646665431 C91.0622389,24.8222544 176.316673,-5.36359337 154.695176,2.83127155 Z" id="path-1"></path>
        <path d="M9.17585862,26.9251778 C9.17585862,12.9456528 9.17585862,10.324195 9.00251034,7.35331712 C8.91608932,4.20798279 8.13728311,2.72254384 5.10747133,2.11093184 C4.41457989,1.93647542 2.8564635,1.84924722 1.47169538,1.84924722 C0.519035323,1.84924722 0,1.67428353 0,1.06264847 C0,0.363300987 0.605962583,0.10110909 1.99123626,0.10110909 C6.83792581,0.10110909 12.6382863,0.451036469 15.2354845,0.451036469 C18.8712581,0.451036469 24.1525749,0.10110909 28.394315,0.10110909 C39.9071145,0.10110909 43.9765051,4.0330191 45.4477011,5.34349437 C47.4384311,7.35331712 49.9486952,11.5474421 49.9486952,16.3531791 C49.9486952,29.4593844 40.4266485,38.7224527 27.4416725,38.7224527 C27.0954685,38.7224527 26.0563776,38.7224527 25.6237708,38.63421 C25.1042368,38.5464745 24.4987789,38.458739 24.4987789,37.8481416 C24.4987789,36.9738073 25.1042368,36.7998582 27.0954685,36.7998582 C32.2029467,36.7998582 39.301132,30.9448233 39.301132,21.5955643 C39.301132,18.45023 39.0418781,12.3335105 33.8474727,7.7032445 C30.5578962,4.64465416 26.9221157,4.12075459 24.7580328,4.12075459 C23.3727607,4.12075459 21.9874932,4.20798279 21.208687,4.47070502 C20.7755694,4.64465416 20.5163041,5.25677344 20.5163041,6.30556408 L20.5163041,43.1777551 C20.5163041,51.6532032 20.5163041,58.9049086 20.8624944,62.9235465 C21.208687,65.4577668 21.8151551,67.4675942 24.4987789,67.8180381 C25.7971237,68.0792154 27.7878537,68.2552029 29.1731258,68.2552029 C30.2111905,68.2552029 30.5578962,68.4291497 30.5578962,68.9530311 C30.5578962,69.5641413 29.8650093,69.9130558 28.9133473,69.9130558 C22.8532267,69.9130558 17.1402997,69.5641413 14.7164498,69.5641413 C12.6382863,69.5641413 6.83792581,69.9130558 3.20316233,69.9130558 C1.99123626,69.9130558 1.38527367,69.5641413 1.38527367,68.9530311 C1.38527367,68.4291497 1.73096049,68.2552029 2.8564635,68.2552029 C4.24173785,68.2552029 5.28031337,68.0792154 6.14655309,67.8180381 C7.87751153,67.4675942 8.3970524,65.4577668 8.82916206,62.8368278 C9.17585862,58.9049086 9.17585862,51.6532032 9.17585862,43.1777551 L9.17585862,26.9251778 Z" id="path-3"></path>
        <path d="M7.14267132,19.5342341 C7.14267132,9.29116002 7.14267132,7.3653147 7.05597481,5.26363222 C6.88207854,3.07559063 6.27421936,2.37436752 4.10335255,1.6746461 C3.58168663,1.58724735 2.36697477,1.4114333 1.41132306,1.4114333 C0.629567618,1.4114333 0.195604705,1.23714406 0.195604705,0.711226723 C0.195604705,0.274209842 0.803967135,0.0983957971 1.75861234,0.0983957971 C5.40629354,0.0983957971 9.66080454,0.274209842 11.0499159,0.274209842 C13.4818787,0.274209842 19.7343897,0.0983957971 21.81856,0.0983957971 C22.4264192,0.0983957971 22.9476047,0.0983957971 23.4682641,0.0983957971 L23.4682641,3.95061782 C22.5126124,3.68842155 21.4707674,3.60049143 20.6028416,3.60049143 C18.8659377,3.60049143 17.2162565,3.68842155 16.5211975,3.77528894 C16.0872117,3.95061782 15.9133383,4.21332235 15.9133383,4.73873142 L15.9133383,24.698454 C15.9133383,25.3991689 16.0872117,25.6624048 16.5211975,25.9251093 C17.9975086,26.3626113 19.9949824,26.4500101 21.81856,26.4500101 C22.4264192,26.4500101 23.0337751,26.4500101 23.4682641,26.4500101 L23.4682641,30.2143066 C23.2081746,30.0400174 22.9476047,30.0400174 22.5998122,30.0400174 L16.4339978,29.8636858 C16.0872117,29.8636858 15.9133383,30.0400174 15.9133383,30.3901253 L15.9133383,31.3520268 C15.9133383,37.5680998 16.0005381,42.732828 16.2606047,45.7110417 C16.5211975,47.6358681 16.7817674,48.9494116 19.039834,49.2131419 C19.9949824,49.2995172 21.4707674,49.3874289 22.3397227,49.3874289 C22.9476047,49.3874289 23.2081746,49.8244249 23.2081746,50.0871327 C23.2081746,50.6120388 22.5998122,50.8742362 21.81856,50.8742362 C17.8236124,50.8742362 12.0927674,50.6120388 11.0499159,50.6120388 C9.66080454,50.6120388 5.40629354,50.8742362 2.54036779,50.8742362 C1.75861234,50.8742362 1.23795292,50.6120388 1.23795292,50.0871327 C1.23795292,49.8244249 1.49801957,49.3874289 2.36697477,49.3874289 C3.40881974,49.3874289 4.19055231,49.2995172 4.79843436,49.2131419 C6.18701961,48.9494116 6.53481214,47.6358681 6.79590816,45.7110417 C7.14267132,42.732828 7.14267132,37.4801905 7.14267132,31.3520268 L7.14267132,19.5342341 Z M23.4682641,0.0983957971 C27.376012,0.274209842 31.7182489,0.798625479 34.931441,2.98768361 C36.8417379,4.30072111 39.7071376,7.71541799 39.7071376,12.1804478 C39.7071376,17.0829566 36.9284116,21.5474782 30.2414345,26.9749109 C36.3205524,34.5919285 41.1834487,40.6326911 45.3517893,44.8344943 C49.1723603,48.6877236 51.5171005,49.0368104 52.6461452,49.2131419 C53.3412041,49.3874289 53.7746638,49.3874289 54.3830262,49.3874289 C54.9037085,49.3874289 55.1642784,49.8244249 55.1642784,50.0871327 C55.1642784,50.6120388 54.7303155,50.8742362 53.8613603,50.8742362 L47.2620862,50.8742362 C43.441012,50.8742362 41.530738,50.4377517 39.7071376,49.5622264 C36.8417379,47.9859761 34.2363821,44.8344943 30.4148275,39.670279 C27.6366047,35.9923601 24.6839825,31.5273372 23.902227,30.5654357 C23.728834,30.3022159 23.6421604,30.2143066 23.4682641,30.2143066 L23.4682641,26.4500101 C25.0312489,26.3626113 25.7258046,26.0988903 26.5947598,25.3991689 C28.6784268,23.999264 31.1098864,21.0225774 31.1098864,15.5072377 C31.1098864,8.15292003 27.1159453,5.00143596 23.4682641,3.95061782 L23.4682641,0.0983957971 Z" id="path-5"></path>
        <path d="M14.9230531,29.6403301 C14.9230531,35.6518967 15.095874,39.9232722 15.2681962,42.5343213 C15.5259314,44.3655661 15.9559662,45.5848691 17.8484503,45.8463284 C18.6236282,45.9338225 19.9991683,46.1077899 20.9476658,46.1077899 C21.7218464,46.1077899 21.979559,46.4562354 21.979559,46.8046804 C21.979559,47.1526168 21.5490255,47.413569 20.602024,47.413569 C16.5583232,47.413569 12.169978,47.1526168 10.5332118,47.1526168 C8.81304991,47.1526168 4.85575956,47.413569 2.44633154,47.413569 C1.58524188,47.413569 1.15570577,47.2401096 1.15570577,46.8046804 C1.15570577,46.4562354 1.32750661,46.1077899 2.10168713,46.1077899 C3.04868854,46.1077899 3.7369573,45.9338225 4.33881561,45.8463284 C5.62994007,45.5848691 5.88765267,44.3655661 6.23179838,42.5343213 C6.49000967,39.9232722 6.49000967,35.3914538 6.49000967,29.4668708 L6.49000967,18.4865301 C6.49000967,9.16448997 6.49000967,7.50874164 6.40511798,5.41754599 C6.23179838,3.32687918 5.71535313,2.62949206 3.65004816,2.10706104 C3.13407893,2.01957149 2.10168713,1.93309365 1.15570577,1.93309365 C0.552827405,1.93309365 0.0363821545,1.7586204 0.0363821545,1.23570652 C0.0363821545,0.799776338 0.552827405,0.625808946 1.58524188,0.625808946 C4.85575956,0.625808946 8.81304991,0.799776338 10.6216397,0.799776338 C13.1164808,0.799776338 27.0571703,0.974249582 28.60501,0.799776338 C29.7243336,0.712792642 30.5844259,0.625808946 31.1003724,0.538296405 C31.5314046,0.451841555 31.8750516,0.102872074 32.134283,0.102872074 C32.3055851,0.102872074 32.6507282,0.451841555 32.6507282,0.712792642 C32.6507282,1.23570652 32.3055851,1.93309365 32.134283,3.58833612 C32.0473512,4.11127299 31.8750516,7.77019858 31.8750516,8.5545694 C31.7037268,9.07697742 31.5314046,9.77438754 31.1003724,9.77438754 C30.7567254,9.77438754 30.3261919,9.5129306 30.3261919,8.81552048 C30.3261919,8.29311246 30.4131011,7.24779055 30.067958,6.46339674 C29.5520114,5.59254808 28.3477961,4.63368102 26.0242572,4.54619147 L15.5259314,4.37222408 C15.181287,4.37222408 14.9230531,4.45971363 14.9230531,5.1565949 L14.9230531,20.1432901 C14.9230531,20.5797492 15.095874,20.7532107 15.3541079,20.7532107 L24.2171861,20.666227 C25.2490792,20.666227 26.1106676,20.666227 27.0571703,20.5797492 C28.1749752,20.5797492 29.1224753,20.3177634 29.7243336,19.531875 C30.067958,19.0969335 30.2402802,18.8365113 30.5844259,18.8365113 C30.7567254,18.8365113 30.9280502,19.0104787 30.9280502,19.4453972 C30.9280502,19.7943436 30.6708363,21.4505978 30.4131011,23.4542809 C30.2402802,24.6735932 30.2402802,27.4611505 30.2402802,27.8975957 C30.2402802,28.5080107 30.1548671,29.2918848 29.4665983,29.2918848 C29.1224753,29.2918848 28.9496544,28.8559477 28.9496544,28.5080107 C28.9496544,27.9840713 28.7778309,27.2876913 28.4337078,26.589274 C28.1749752,25.6319314 27.4862077,24.4126421 25.5083106,24.2386747 C23.8730404,24.1511852 16.4719128,24.0647074 15.3541079,24.0647074 C15.095874,24.0647074 14.9230531,24.1511852 14.9230531,24.5866095 L14.9230531,29.6403301 Z" id="path-7"></path>
        <path d="M5.93144133,18.8047996 C5.93144133,9.067275 5.93144133,7.15426221 5.84497322,5.15498466 C5.58357243,2.98111275 4.8862971,2.19894835 3.49172351,1.7644814 C2.70850788,1.50359933 1.92375474,1.50359933 1.14152588,1.50359933 C0.356772732,1.50359933 0.00890382839,1.243222 0.00890382839,0.633633005 C0.00890382839,0.286463238 0.530718658,0.199670796 1.57689555,0.199670796 C4.10255367,0.199670796 8.71953291,0.286463238 10.6358984,0.286463238 C12.2903582,0.286463238 16.6474512,0.199670796 19.1731094,0.199670796 C20.1318084,0.199670796 20.56766,0.286463238 20.56766,0.633633005 C20.56766,1.243222 20.2187814,1.50359933 19.6094887,1.50359933 C18.9122134,1.50359933 18.3024159,1.50359933 17.6051176,1.67768895 C15.6887522,1.93806628 15.1664325,2.8943203 15.0794595,5.15498466 C14.9050087,7.15426221 14.9050087,9.067275 14.9050087,18.8047996 L14.9050087,30.2807496 C14.9050087,36.5399851 14.9050087,41.670912 15.1664325,44.4508214 C15.3408833,46.1902309 15.8632029,47.2332682 17.8675511,47.4951689 C18.8257453,47.6682468 20.3067641,47.6682468 21.2649353,47.6682468 C22.1356517,47.6682468 22.3970755,48.1022113 22.3970755,48.3630966 C22.3970755,48.8843612 21.7877828,49.1447397 21.0905075,49.1447397 C16.6474512,49.1447397 12.030472,48.8843612 10.2015614,48.8843612 C8.71953291,48.8843612 4.10255367,49.1447397 1.40193991,49.1447397 C0.618196477,49.1447397 0.181817094,48.8843612 0.181817094,48.3630966 C0.181817094,48.1022113 0.356772732,47.6682468 1.22799398,47.6682468 C2.18618819,47.6682468 2.97094134,47.6682468 3.57972913,47.4951689 C4.8862971,47.2332682 5.32265354,46.2765163 5.58357243,44.3630126 C5.93144133,41.670912 5.93144133,36.5399851 5.93144133,30.2807496 L5.93144133,18.8047996 Z" id="path-9"></path>
        <path d="M20.1726805,5.33725074 L9.55444371,5.51073151 C5.41054245,5.59898521 3.68485498,6.11993195 2.64814627,7.59655917 C1.87147889,8.63998891 1.61241542,9.50840163 1.43953967,10.0293484 C1.35335195,10.6380673 1.09431122,10.8982885 0.662371995,10.8982885 C0.144267791,10.8982885 0.0585803639,10.5508225 0.0585803639,9.76912722 C0.0585803639,8.63998891 1.35335195,1.94878107 1.5262277,1.42781139 C1.69810285,0.472153846 1.87147889,0.124160503 2.30289508,0.124160503 C2.90871064,0.124160503 3.59816696,0.646139053 5.41054245,0.906360207 C7.48300475,1.07984098 10.1582353,1.25433062 12.5754031,1.25433062 L41.4112688,1.25433062 C43.7412937,1.25433062 45.2087591,0.993100592 46.3307914,0.906360207 C47.4537333,0.733383876 48.0575022,0.646139053 48.2303325,0.646139053 C48.2937794,0.646139053 48.3513137,0.650701923 48.4022531,0.661363905 L48.4022531,11.2873476 C48.3199313,11.4329238 48.2150961,11.50648 48.0575022,11.50648 C47.4537333,11.50648 47.1935783,11.2457544 47.1073906,10.1166161 L47.1073906,9.42166124 C46.9345603,7.59655917 45.0359289,5.51073151 38.6477811,5.42449556 L29.6690441,5.33725074 L29.6690441,33.3159568 C29.6690441,39.6581785 29.7547088,45.132485 30.09996,48.085728 C30.273336,50.0838087 30.7047522,51.3884707 32.8638798,51.7344211 C33.8129226,51.9089153 35.453423,51.9089153 36.4891538,51.9089153 C37.2663215,51.9089153 37.6972374,52.4298689 37.6972374,52.6905977 C37.6972374,53.2115498 37.093946,53.4717721 36.2310909,53.4717721 C31.5676073,53.4717721 26.8214381,53.2115498 24.7484982,53.2115498 C23.1089757,53.2115498 18.2741172,53.4717721 15.4255106,53.4717721 C14.5616549,53.4717721 14.0430504,53.2115498 14.0430504,52.6905977 C14.0430504,52.4298689 14.3882789,51.9089153 15.1649462,51.9089153 C16.2878654,51.9089153 17.1522214,51.9089153 17.756013,51.7344211 C19.136472,51.3884707 19.5683885,50.0838087 19.827452,47.9984808 C20.1726805,45.132485 20.1726805,39.6581785 20.1726805,33.3159568 L20.1726805,5.33725074 Z" id="path-11"></path>
        <path d="M36.2780034,25.2304208 L36.2780034,0.223826427 L47.3627838,0.223826427 L47.3627838,35.2811613 L35.9193167,35.2811613 C30.0800391,35.2811613 24.9546068,31.8117372 22.3313546,26.0685223 L16.1333903,13.7444946 C15.7762287,12.9074002 14.2264872,10.2740633 11.7238064,10.2740633 L11.3666447,10.2740633 L11.3666447,35.2811613 L0.1617937,35.2811613 L0.1617937,0.223826427 L11.7238064,0.223826427 C17.4450164,0.223826427 22.5704715,3.69425769 25.430314,9.43646538 L31.5097327,21.7609967 C32.1050097,22.8376206 33.5361829,25.2304208 35.9193167,25.2304208 L36.2780034,25.2304208 Z" id="path-13"></path>
        <path d="M23.2822219,0.223826427 L23.2822219,8.47985806 L11.0087252,8.47985806 L11.0087252,27.0261597 L23.2822219,27.0261597 L23.2822219,35.2811613 L0.0597884434,35.2811613 L0.0597884434,0.223826427 L23.2822219,0.223826427 Z M123.991535,0.223826427 L135.663701,0.223826427 L117.013245,35.2811613 L103.41721,35.2811613 L88.3769471,8.47985806 L73.2154756,8.47985806 L73.2154756,35.2811613 L62.3872417,35.2811613 L62.3872417,8.47985806 L45.5411469,8.47985806 C46.384481,11.3522209 46.384481,14.2225465 46.384481,15.2991932 L46.384481,19.128667 C46.384481,29.1789039 41.3311627,35.2811613 30.7422663,35.2811613 L23.2822219,35.2811613 L23.2822219,27.0261597 L29.1788514,27.0261597 C33.5095384,27.0261597 35.4350387,25.1109078 35.4350387,21.5209636 L35.4350387,13.8640076 C35.4350387,10.6331058 33.38833,8.47985806 29.1788514,8.47985806 L23.2822219,8.47985806 L23.2822219,0.223826427 L95.7162888,0.223826427 L110.275326,26.3070447 L123.991535,0.223826427 Z" id="path-15"></path>
        <path d="M13.3029816,6.83847972 C13.3029816,10.4350301 10.3801268,13.4323314 6.60534383,13.4323314 C2.95217009,13.4323314 0.0298645134,10.4350301 0.0298645134,6.83847972 C0.0298645134,3.24142452 2.95217009,0.124860785 6.60534383,0.124860785 C10.3801268,0.124860785 13.3029816,3.24142452 13.3029816,6.83847972 Z" id="path-17"></path>
        <path d="M26.6896234,46.316253 L25.5765872,46.316253 L25.5765872,43.0428302 C26.2719383,43.0428302 26.9662826,43.1306434 27.7488701,43.1306434 C32.092429,43.1306434 41.8218069,41.129739 41.8218069,24.2631624 C41.8218069,11.8298366 34.6983538,3.91861417 25.5765872,3.22270228 L25.5765872,0.00612602527 C25.6638236,0.00612602527 25.7505566,0.00612602527 25.837793,0.00612602527 C41.3009057,0.00612602527 50.9445805,8.5269683 50.9445805,22.089667 C50.9445805,35.3268865 41.5948906,45.664403 26.6896234,46.316253 Z M25.5765872,46.316253 L23.740397,46.316253 C7.01734762,45.6241336 0.209623711,33.2705054 0.209623711,23.133271 C0.209623711,13.1343358 7.24684731,0.179719685 25.5765872,0.00612602527 L25.5765872,3.22270228 C25.0557089,3.13641022 24.5343271,3.13641022 24.0134259,3.13641022 C17.2369047,3.13641022 9.24413105,6.70067856 9.24413105,21.3942829 C9.24413105,32.6967031 15.3258275,41.8266536 25.5765872,43.0428302 L25.5765872,46.316253 Z" id="path-19"></path>
    </defs>
    <g id="Profit_light-bg" stroke="none" stroke-width="1" fill="none" fill-rule="evenodd">
        <g id="Group" transform="translate(31.000000, 8.000000)">
            <g id="Group-3" transform="translate(69.197080, 29.423077)">
                <mask id="mask-2" fill="white">
                    <use xlink:href="#path-1"></use>
                </mask>
                <g id="Clip-2"></g>
                <polygon id="Fill-1" fill="#D8232A" mask="url(#mask-2)" points="-1.04571229 20.140238 159.240781 20.140238 159.240781 -1.02443209 -1.04571229 -1.02443209"></polygon>
            </g>
            <g id="Group-6" transform="translate(0.000000, 19.903846)">
                <mask id="mask-4" fill="white">
                    <use xlink:href="#path-3"></use>
                </mask>
                <g id="Clip-5"></g>
                <polygon id="Fill-4" fill="#1A1919" mask="url(#mask-4)" points="-1.14017916 71.065953 51.0888743 71.065953 51.0888743 -1.05178315 -1.14017916 -1.05178315"></polygon>
            </g>
            <g id="Group-9" transform="translate(46.708029, 38.942308)">
                <mask id="mask-6" fill="white">
                    <use xlink:href="#path-5"></use>
                </mask>
                <g id="Clip-8"></g>
                <polygon id="Fill-7" fill="#1A1919" mask="url(#mask-6)" points="-0.948148688 52.0293876 56.3080318 52.0293876 56.3080318 -1.05675058 -0.948148688 -1.05675058"></polygon>
            </g>
            <g id="Group-12" transform="translate(142.718978, 42.403846)">
                <mask id="mask-8" fill="white">
                    <use xlink:href="#path-7"></use>
                </mask>
                <g id="Clip-11"></g>
                <polygon id="Fill-10" fill="#1A1919" mask="url(#mask-8)" points="-1.0970183 48.5632345 33.7841287 48.5632345 33.7841287 -1.04678847 -1.0970183 -1.04678847"></polygon>
            </g>
            <g id="Group-15" transform="translate(174.722628, 40.673077)">
                <mask id="mask-10" fill="white">
                    <use xlink:href="#path-9"></use>
                </mask>
                <g id="Clip-14"></g>
                <polygon id="Fill-13" fill="#1A1919" mask="url(#mask-10)" points="-1.13849674 50.2918774 23.544476 50.2918774 23.544476 -0.947461948 -1.13849674 -0.947461948"></polygon>
            </g>
            <g id="Group-18" transform="translate(188.562044, 36.346154)">
                <mask id="mask-12" fill="white">
                    <use xlink:href="#path-11"></use>
                </mask>
                <g id="Clip-17"></g>
                <polygon id="Fill-16" fill="#1A1919" mask="url(#mask-12)" points="-1.07846086 54.6182217 49.5392034 54.6182217 49.5392034 -1.0222842 -1.07846086 -1.0222842"></polygon>
            </g>
            <g id="Group-21" transform="translate(50.167883, 0.000000)">
                <mask id="mask-14" fill="white">
                    <use xlink:href="#path-13"></use>
                </mask>
                <g id="Clip-20"></g>
                <polygon id="Fill-19" fill="#1A1919" mask="url(#mask-14)" points="-0.976316174 36.4257022 48.5008937 36.4257022 48.5008937 -0.920714516 -0.976316174 -0.920714516"></polygon>
            </g>
            <g id="Group-24" transform="translate(101.200730, 0.000000)">
                <mask id="mask-16" fill="white">
                    <use xlink:href="#path-15"></use>
                </mask>
                <g id="Clip-23"></g>
                <polygon id="Fill-22" fill="#1A1919" mask="url(#mask-16)" points="-1.08910555 36.4257022 136.812526 36.4257022 136.812526 -0.920714516 -1.08910555 -0.920714516"></polygon>
            </g>
            <g id="Group-31" transform="translate(92.551095, 10.384615)">
                <g id="Group-27" transform="translate(0.457694, 0.000000)">
                    <mask id="mask-18" fill="white">
                        <use xlink:href="#path-17"></use>
                    </mask>
                    <g id="Clip-26"></g>
                    <polygon id="Fill-25" fill="#D8232A" mask="url(#mask-18)" points="-1.11436972 14.5795272 14.4472158 14.5795272 14.4472158 -1.02233496 -1.11436972 -1.02233496"></polygon>
                </g>
                <g id="Group-30" transform="translate(0.000000, 33.268677)">
                    <mask id="mask-20" fill="white">
                        <use xlink:href="#path-19"></use>
                    </mask>
                    <g id="Clip-29"></g>
                    <polygon id="Fill-28" fill="#1A1919" mask="url(#mask-20)" points="-0.93461052 47.4939038 52.0888147 47.4939038 52.0888147 -1.14106972 -0.93461052 -1.14106972"></polygon>
                </g>
            </g>
        </g>
    </g>
</svg>