<svg id="Layer_1" data-name="Layer 1" xmlns="http://www.w3.org/2000/svg" xmlns:xlink="http://www.w3.org/1999/xlink" viewBox="0 0 271.89 55.73"><defs><style>.cls-1{fill:none;}.cls-2{clip-path:url(#clip-path);}.cls-3{fill:#231f20;}</style><clipPath id="clip-path" transform="translate(-18 -2)"><rect class="cls-1" width="308" height="60"/></clipPath></defs><title>NET mast new-SVG</title><g class="cls-2"><path class="cls-3" d="M205.2,49.77h.23a2.11,2.11,0,0,0,.68-.1,1.26,1.26,0,0,0,.46-.26,1,1,0,0,0,.26-.39,1.35,1.35,0,0,0,.08-.47s0-.06,0-.09a.7.7,0,0,1,0-.07.26.26,0,0,1,0-.06h-1.08v.3a.5.5,0,0,1-.17.41.86.86,0,0,1-.54.13H201v.59h1.69a4.33,4.33,0,0,1,1.44.21,2.58,2.58,0,0,1,1,.58,2.19,2.19,0,0,1,.55.89,3.57,3.57,0,0,1,.17,1.12,2.83,2.83,0,0,1-.16,1.07.53.53,0,0,1-.51.38.53.53,0,0,1-.47-.29,1.63,1.63,0,0,1-.17-.82V52.5h-1.09v.41q0,1.11-.71,1.11a.54.54,0,0,1-.49-.26,1.51,1.51,0,0,1,0-1.41.64.64,0,0,1,.56-.27H203v-.5l-.25-.08a1.72,1.72,0,0,0-.35,0,1.62,1.62,0,0,0-.61.11,1.39,1.39,0,0,0-.48.32,1.44,1.44,0,0,0-.31.49,1.73,1.73,0,0,0-.11.64,1.77,1.77,0,0,0,.11.63,1.42,1.42,0,0,0,.33.51,1.56,1.56,0,0,0,.53.34,1.88,1.88,0,0,0,.71.13,2.09,2.09,0,0,0,.59-.07,1.5,1.5,0,0,0,.39-.18,1,1,0,0,0,.25-.22,1.39,1.39,0,0,0,.15-.23,1.23,1.23,0,0,0,.16.23,1.1,1.1,0,0,0,.26.23,1.5,1.5,0,0,0,.38.17,1.8,1.8,0,0,0,.52.07,1.49,1.49,0,0,0,1.2-.5,1.93,1.93,0,0,0,.58.36,2.06,2.06,0,0,0,.8.14,1.8,1.8,0,0,0,1.51-.75,2.6,2.6,0,0,0,.4-.86,4.14,4.14,0,0,0,.14-1.11,4.55,4.55,0,0,0-.13-1.13,2.6,2.6,0,0,0-.39-.88,1.86,1.86,0,0,0-.65-.58,1.9,1.9,0,0,0-.9-.2h-.22l-.2,0v.6h.21a.9.9,0,0,1,.88.55,3.93,3.93,0,0,1,.26,1.6,4.17,4.17,0,0,1-.23,1.57.76.76,0,0,1-.72.54.73.73,0,0,1-.55-.24,1.59,1.59,0,0,1-.36-.65c0-.08,0-.17,0-.26s0-.18,0-.28a3.17,3.17,0,0,0-.45-1.7,2.72,2.72,0,0,0-1.26-1.09ZM200.85,56c-.06-.14-.13-.28-.2-.41l-.2-.39a.86.86,0,0,1-.09-.38.32.32,0,0,1,.06-.2.23.23,0,0,1,.2-.08h.05l0,0v-.33a1.07,1.07,0,0,0-.39-.07.69.69,0,0,0-.48.17.62.62,0,0,0-.19.49,1,1,0,0,0,.09.41c.06.13.13.26.2.39s.14.27.2.41a1.14,1.14,0,0,1,.09.45.79.79,0,0,1-.24.6.85.85,0,0,1-.61.23.66.66,0,0,1-.35-.07.22.22,0,0,1-.11-.19.24.24,0,0,1,.13-.18l.28-.21a1.92,1.92,0,0,0,.28-.26.46.46,0,0,0,.13-.32.52.52,0,0,0-.18-.42.78.78,0,0,0-.52-.16h-.22a.58.58,0,0,0-.21.07V56h.22a.27.27,0,0,1,.16,0,.12.12,0,0,1,0,.09c0,.05,0,.11-.13.17l-.29.2a1.68,1.68,0,0,0-.29.25.46.46,0,0,0-.13.32.59.59,0,0,0,.32.51,1.64,1.64,0,0,0,.88.2,2.07,2.07,0,0,0,.67-.1,1.4,1.4,0,0,0,.49-.27,1.18,1.18,0,0,0,.3-.41,1.27,1.27,0,0,0,.1-.51,1.09,1.09,0,0,0-.09-.44m-4.1-1.85a1.41,1.41,0,0,0,.26.22,1.64,1.64,0,0,0,.38.19,1.6,1.6,0,0,0,.53.08,1.52,1.52,0,0,0,1.28-.6,2.63,2.63,0,0,0,.46-1.64,4.07,4.07,0,0,0-.28-1.51,2.57,2.57,0,0,0-.87-1.14,1.26,1.26,0,0,0,.88-.42,1.25,1.25,0,0,0,.26-.78s0-.07,0-.11,0-.08,0-.11h-1.08v.3a.5.5,0,0,1-.17.41.86.86,0,0,1-.54.13h-4.29v.59h1.12a2.49,2.49,0,0,0-.85,1.13,4.14,4.14,0,0,0-.26,1.5A2.7,2.7,0,0,0,194,54a1.52,1.52,0,0,0,1.31.6,1.68,1.68,0,0,0,.54-.08,1.46,1.46,0,0,0,.38-.18,1.1,1.1,0,0,0,.24-.22l.13-.19.14.18m.41-1.65h-1.11v.42a1.64,1.64,0,0,1-.16.85.51.51,0,0,1-.46.25q-.35,0-.55-.44a3.11,3.11,0,0,1-.2-1.26,4.84,4.84,0,0,1,.1-1,2.4,2.4,0,0,1,.33-.82,1.59,1.59,0,0,1,.6-.54,1.88,1.88,0,0,1,.89-.19,1.92,1.92,0,0,1,.9.19,1.58,1.58,0,0,1,.6.54,2.38,2.38,0,0,1,.33.82,4.84,4.84,0,0,1,.1,1,3.07,3.07,0,0,1-.21,1.26q-.21.44-.55.44a.51.51,0,0,1-.45-.25,1.65,1.65,0,0,1-.16-.85Zm-.87,2.3a1.45,1.45,0,0,0-.13.37,3.61,3.61,0,0,0-.09.47,4.86,4.86,0,0,0,0,.67v.18h1.18v-.18a4.08,4.08,0,0,0,0-.68,3.49,3.49,0,0,0-.11-.47,2.1,2.1,0,0,0-.15-.37Zm-5.66-1a1.1,1.1,0,0,1-.17-.67,1,1,0,0,1,.19-.68.7.7,0,0,1,.53-.19h.21v-.47a.83.83,0,0,0-.26-.08l-.34,0a1.39,1.39,0,0,0-1.06.39,1.46,1.46,0,0,0-.38,1,1.63,1.63,0,0,0,.11.61,1.33,1.33,0,0,0,.33.48,1.49,1.49,0,0,0,.53.31,2.14,2.14,0,0,0,.72.11,1.64,1.64,0,0,0,1.44-.66A3.22,3.22,0,0,0,193,52.1a4.19,4.19,0,0,0-.17-1.23,2.35,2.35,0,0,0-.51-.92,2.19,2.19,0,0,0-.88-.57,3.7,3.7,0,0,0-1.27-.2h-3.7v.59h.21a.9.9,0,0,1,.88.55,3.93,3.93,0,0,1,.25,1.6,4.17,4.17,0,0,1-.23,1.57.76.76,0,0,1-.72.54.73.73,0,0,1-.55-.24,1.59,1.59,0,0,1-.36-.65c0-.08,0-.17,0-.26s0-.18,0-.28a3.18,3.18,0,0,0-.45-1.7,2.72,2.72,0,0,0-1.26-1.09v0h.23a2.11,2.11,0,0,0,.68-.1,1.26,1.26,0,0,0,.46-.26,1,1,0,0,0,.25-.39,1.35,1.35,0,0,0,.08-.47s0-.06,0-.09a.7.7,0,0,1,0-.07.26.26,0,0,1,0-.06h-1.08v.3a.5.5,0,0,1-.17.41.86.86,0,0,1-.54.13H180v.59h1.72a4.34,4.34,0,0,1,1.44.21,2.58,2.58,0,0,1,1,.58,2.19,2.19,0,0,1,.55.89,3.57,3.57,0,0,1,.17,1.12,2.83,2.83,0,0,1-.16,1.07.53.53,0,0,1-.51.38.53.53,0,0,1-.47-.29,1.62,1.62,0,0,1-.17-.82V52.5h-1.09v.41q0,1.11-.71,1.11a.54.54,0,0,1-.49-.26,1.51,1.51,0,0,1,0-1.41.64.64,0,0,1,.56-.27H182v-.5l-.25-.08a1.73,1.73,0,0,0-.35,0,1.62,1.62,0,0,0-.61.11,1.39,1.39,0,0,0-.48.32,1.44,1.44,0,0,0-.31.49,1.73,1.73,0,0,0-.11.64,1.77,1.77,0,0,0,.11.63,1.42,1.42,0,0,0,.33.51,1.55,1.55,0,0,0,.53.34,1.88,1.88,0,0,0,.71.13,2.09,2.09,0,0,0,.59-.07,1.5,1.5,0,0,0,.39-.18,1,1,0,0,0,.25-.22,1.39,1.39,0,0,0,.15-.23,1.18,1.18,0,0,0,.16.23,1.1,1.1,0,0,0,.26.23,1.5,1.5,0,0,0,.38.17,1.8,1.8,0,0,0,.52.07,1.49,1.49,0,0,0,1.2-.5,1.94,1.94,0,0,0,.58.36,2.07,2.07,0,0,0,.8.14,1.8,1.8,0,0,0,1.51-.75,2.6,2.6,0,0,0,.4-.86,4.62,4.62,0,0,0,0-2.4,1.74,1.74,0,0,0-.58-.86h1.46a3.08,3.08,0,0,1,1,.15,1.59,1.59,0,0,1,.67.45,1.72,1.72,0,0,1,.36.72,4.1,4.1,0,0,1,.11,1,6.94,6.94,0,0,1-.05,1,2.24,2.24,0,0,1-.15.59.67.67,0,0,1-.24.3.58.58,0,0,1-.31.09.52.52,0,0,1-.43-.22M174,55.72a1,1,0,0,1,.8-.34.94.94,0,0,1,.8.34,1.36,1.36,0,0,1,.26.85,1.2,1.2,0,0,1-.1.58.3.3,0,0,1-.26.17.3.3,0,0,1-.22-.1.52.52,0,0,1-.09-.36v-.28h-.79v.28q0,.46-.31.46a.31.31,0,0,1-.26-.17,1.15,1.15,0,0,1-.11-.58,1.28,1.28,0,0,1,.28-.85m1,1.89a1,1,0,0,0,.52.11,1,1,0,0,0,.8-.29,1.19,1.19,0,0,0,.27-.84,1.51,1.51,0,0,0-.14-.65,1.41,1.41,0,0,0-.39-.5,1.89,1.89,0,0,0-.59-.32,2.32,2.32,0,0,0-1.46,0,1.94,1.94,0,0,0-.6.32,1.52,1.52,0,0,0-.4.5,1.41,1.41,0,0,0-.15.65,1.23,1.23,0,0,0,.27.82,1,1,0,0,0,.81.32,1,1,0,0,0,.51-.11.75.75,0,0,0,.26-.22,1.31,1.31,0,0,0,.27.21m-2.67-8.74a.5.5,0,0,1,.14-.18.76.76,0,0,1,.25-.13,1.26,1.26,0,0,1,.38,0,1.86,1.86,0,0,1,.58.09,2.84,2.84,0,0,1,.56.26,3.44,3.44,0,0,1,.51.37,3.6,3.6,0,0,1,.44.45,3.73,3.73,0,0,0-.65-.21,3.13,3.13,0,0,0-.68-.08,3.78,3.78,0,0,0-1.16.18.67.67,0,0,1-.3-.19.46.46,0,0,1-.11-.31.5.5,0,0,1,0-.2m.09,1.75a2,2,0,0,1,2.88,0,2.71,2.71,0,0,1,.48,1.7,3.07,3.07,0,0,1-.21,1.26c-.14.3-.32.44-.56.44a.51.51,0,0,1-.45-.25,1.65,1.65,0,0,1-.16-.85V52.5H173.3v.42a1.65,1.65,0,0,1-.16.85.51.51,0,0,1-.46.25q-.35,0-.55-.44a3.11,3.11,0,0,1-.2-1.26,2.67,2.67,0,0,1,.49-1.7m4.33.64a4.76,4.76,0,0,0-.45-1.06,5,5,0,0,0-.68-.93,4.82,4.82,0,0,0-.86-.73,4.24,4.24,0,0,0-1-.48,3.27,3.27,0,0,0-1-.17,1.94,1.94,0,0,0-1.23.32,1,1,0,0,0-.4.78,1,1,0,0,0,.23.65,1.13,1.13,0,0,0,.57.35,2.44,2.44,0,0,0-.81,1,3.43,3.43,0,0,0-.28,1.41,2.7,2.7,0,0,0,.44,1.63,1.52,1.52,0,0,0,1.31.6,1.53,1.53,0,0,0,.91-.27,1.1,1.1,0,0,0,.24-.22l.13-.19.14.19a1.24,1.24,0,0,0,.25.22,1.62,1.62,0,0,0,.39.19,1.59,1.59,0,0,0,.53.08,1.52,1.52,0,0,0,1.27-.6,2.61,2.61,0,0,0,.46-1.64,4.12,4.12,0,0,0-.16-1.14m-13.24-.12a.6.6,0,0,0,.44.17.61.61,0,0,0,.45-.17.63.63,0,0,0,0-.88.61.61,0,0,0-.45-.18.62.62,0,0,0-.44,1.06M166,48.33v.3a.5.5,0,0,1-.17.41.86.86,0,0,1-.54.13h-3.79v.59h4.12a2.14,2.14,0,0,0,.69-.1,1.27,1.27,0,0,0,.46-.26,1,1,0,0,0,.26-.39,1.35,1.35,0,0,0,.08-.47.65.65,0,0,0,0-.08.55.55,0,0,1,0-.07.3.3,0,0,1,0-.07Zm2.71,5.15A.76.76,0,0,1,168,54a.74.74,0,0,1-.55-.25,1.63,1.63,0,0,1-.36-.68c0-.09,0-.18,0-.29s0-.21,0-.31a3.15,3.15,0,0,0-.14-1,2,2,0,0,0-.37-.67,1.39,1.39,0,0,0-.52-.38,1.59,1.59,0,0,0-.61-.12h-.2l-.19,0v.53a1,1,0,0,1,.37.07.65.65,0,0,1,.29.25,1.39,1.39,0,0,1,.2.48,3.52,3.52,0,0,1,.07.79,5.86,5.86,0,0,1,0,.77,1.93,1.93,0,0,1-.11.46.47.47,0,0,1-.16.23.37.37,0,0,1-.21.06.48.48,0,0,1-.35-.13,1.19,1.19,0,0,1-.26-.51l-.22-.72a1.42,1.42,0,0,0-.55-.77,1.9,1.9,0,0,0-1.08-.26,1.66,1.66,0,0,0-1.18.4,1.42,1.42,0,0,0-.43,1.09,1.82,1.82,0,0,0,.09.59,1.34,1.34,0,0,0,.28.48,1.37,1.37,0,0,0,.47.33,1.61,1.61,0,0,0,.64.12,1.12,1.12,0,0,0,.28,0l.12,0V54a.71.71,0,0,1-.56-.24,1.06,1.06,0,0,1-.21-.72,1.08,1.08,0,0,1,.17-.69.5.5,0,0,1,.39-.2.47.47,0,0,1,.35.13.93.93,0,0,1,.21.39l.24.81a2.24,2.24,0,0,0,.2.47,1.12,1.12,0,0,0,.3.34,1.37,1.37,0,0,0,.44.21,2.11,2.11,0,0,0,.6.08,1.52,1.52,0,0,0,1.22-.5,1.94,1.94,0,0,0,.58.36,2.09,2.09,0,0,0,.81.14,1.88,1.88,0,0,0,.87-.2,1.81,1.81,0,0,0,.65-.56A2.67,2.67,0,0,0,170,53a4.18,4.18,0,0,0,.14-1.11,4.6,4.6,0,0,0-.13-1.13,2.62,2.62,0,0,0-.39-.88,1.87,1.87,0,0,0-.65-.58,1.9,1.9,0,0,0-.9-.2h-.22l-.2,0v.6h.22a.89.89,0,0,1,.88.55,4,4,0,0,1,.25,1.6,4.17,4.17,0,0,1-.23,1.57m-11.68-1.14a.92.92,0,0,1,.72-.26h.48v-.61h-.49a1,1,0,0,1-.76-.24.9.9,0,0,1-.22-.64A.74.74,0,0,1,157,50a1.07,1.07,0,0,1,.68-.2h1.18v-.6h-1.73a1.75,1.75,0,0,0-1.15.34,1.18,1.18,0,0,0-.42,1,1.3,1.3,0,0,0,.09.51,1.23,1.23,0,0,0,.25.39,1.21,1.21,0,0,0,.36.26,1.37,1.37,0,0,0,.43.12v0a1.35,1.35,0,0,0-.72.42,1.3,1.3,0,0,0-.29.9,1.43,1.43,0,0,0,.43,1.13,1.64,1.64,0,0,0,1.13.38,1.18,1.18,0,0,0,.32,0l.13,0V54h-.12a.84.84,0,0,1-.57-.2.89.89,0,0,1-.23-.7,1.08,1.08,0,0,1,.24-.76m-6.68,1.37a2.22,2.22,0,0,1-.17-1,1.86,1.86,0,0,1,.21-1,.62.62,0,0,1,.52-.32.78.78,0,0,1,.72.48,4.18,4.18,0,0,0-.18.74q-.06.39-.12.7a1.84,1.84,0,0,1-.18.52.37.37,0,0,1-.34.21.5.5,0,0,1-.45-.3m2.25.17a1,1,0,0,1-.33-.43,5.14,5.14,0,0,0,.18-.73c0-.25.09-.48.14-.68a1.81,1.81,0,0,1,.2-.51.39.39,0,0,1,.35-.2.46.46,0,0,1,.42.3,2.47,2.47,0,0,1,.15,1,2.07,2.07,0,0,1-.2,1.06.58.58,0,0,1-.49.32.71.71,0,0,1-.42-.14m-2.35-4.11a.82.82,0,0,1,.63.26,1.08,1.08,0,0,1,.26.72,1.46,1.46,0,0,0-.39-.05,1.5,1.5,0,0,0-1.21.52,2.17,2.17,0,0,0-.44,1.44,2.2,2.2,0,0,0,.44,1.45,1.54,1.54,0,0,0,1.25.53,1.46,1.46,0,0,0,.73-.16A1.37,1.37,0,0,0,152,54a1.51,1.51,0,0,0,.44.43,1.22,1.22,0,0,0,.67.17,1.48,1.48,0,0,0,1.22-.53,2.23,2.23,0,0,0,.43-1.45,2.19,2.19,0,0,0-.43-1.44,1.46,1.46,0,0,0-1.19-.52,1.55,1.55,0,0,0-.76.16,1.44,1.44,0,0,0-.48.43h0a1.94,1.94,0,0,0,.05-.47,1.58,1.58,0,0,0-.12-.64,1.09,1.09,0,0,0-.29-.41h1.74a2.14,2.14,0,0,0,.69-.1,1.26,1.26,0,0,0,.46-.26,1,1,0,0,0,.25-.39,1.45,1.45,0,0,0,.08-.47s0-.06,0-.09a.7.7,0,0,1,0-.07.26.26,0,0,1,0-.06H153.7v.3a.5.5,0,0,1-.17.41.88.88,0,0,1-.55.13h-3.75v.59Zm-9.53,1.36a.61.61,0,0,0,.44.17.61.61,0,0,0,.45-.17.63.63,0,0,0,0-.88.61.61,0,0,0-.45-.18.62.62,0,0,0-.44,1.06m3.22,3a2.57,2.57,0,0,0,.43-1.6,3.15,3.15,0,0,0-.14-1,2,2,0,0,0-.37-.67,1.39,1.39,0,0,0-.52-.38,1.58,1.58,0,0,0-.61-.12h-.2a.67.67,0,0,0-.19,0v.53a1,1,0,0,1,.37.07.65.65,0,0,1,.29.25,1.39,1.39,0,0,1,.2.48,3.52,3.52,0,0,1,.07.79,6.07,6.07,0,0,1,0,.77,2,2,0,0,1-.11.46.47.47,0,0,1-.16.23.37.37,0,0,1-.21.06.48.48,0,0,1-.34-.13,1.21,1.21,0,0,1-.26-.51l-.22-.72a1.42,1.42,0,0,0-.54-.77,1.9,1.9,0,0,0-1.08-.26,1.66,1.66,0,0,0-1.18.4,1.42,1.42,0,0,0-.43,1.09,1.82,1.82,0,0,0,.09.59,1.33,1.33,0,0,0,.28.48,1.36,1.36,0,0,0,.46.33,1.61,1.61,0,0,0,.64.12,1.11,1.11,0,0,0,.28,0l.12,0V54a.71.71,0,0,1-.56-.24,1.06,1.06,0,0,1-.21-.72,1.09,1.09,0,0,1,.17-.69.5.5,0,0,1,.39-.2.47.47,0,0,1,.35.13.92.92,0,0,1,.21.39l.24.81a2.3,2.3,0,0,0,.2.47,1.11,1.11,0,0,0,.3.34,1.36,1.36,0,0,0,.44.21,2.11,2.11,0,0,0,.6.08,1.5,1.5,0,0,0,1.26-.55m2.16-.29a1.11,1.11,0,0,1-.17-.67,1,1,0,0,1,.19-.68.7.7,0,0,1,.53-.19h.21v-.47a.82.82,0,0,0-.26-.08l-.34,0a1.39,1.39,0,0,0-1.06.39,1.47,1.47,0,0,0-.37,1,1.61,1.61,0,0,0,.11.61,1.32,1.32,0,0,0,.33.48,1.51,1.51,0,0,0,.53.31,2.14,2.14,0,0,0,.72.11A1.64,1.64,0,0,0,148,54a3.22,3.22,0,0,0,.47-1.88,4.22,4.22,0,0,0-.17-1.23,2.35,2.35,0,0,0-.51-.92,2.2,2.2,0,0,0-.88-.57,3.7,3.7,0,0,0-1.27-.2h-6.85v.59h6.35a3.08,3.08,0,0,1,1,.15,1.59,1.59,0,0,1,.67.45,1.73,1.73,0,0,1,.36.72,4.16,4.16,0,0,1,.11,1,6.93,6.93,0,0,1-.05,1,2.16,2.16,0,0,1-.15.59.66.66,0,0,1-.24.3.57.57,0,0,1-.31.09.52.52,0,0,1-.43-.22m-10.28,3.82a1.15,1.15,0,0,0,.51.09,1,1,0,0,0,.77-.28,1.09,1.09,0,0,0,.26-.76,1.46,1.46,0,0,0-.23-.79,1.24,1.24,0,0,0-.64-.52h.95V55h-2.11v.4h0a1.19,1.19,0,0,1,.83.34,1.27,1.27,0,0,1,.32.94q0,.66-.29.66a.24.24,0,0,1-.21-.11.65.65,0,0,1-.08-.37V56.6h-.81v.24a.68.68,0,0,1-.08.37.27.27,0,0,1-.24.11.23.23,0,0,1-.21-.11.53.53,0,0,1-.07-.3c0-.29.11-.44.34-.44h.17v-.32a.93.93,0,0,0-.41-.07,1,1,0,0,0-.67.22.72.72,0,0,0-.27.59.74.74,0,0,0,.28.59,1.15,1.15,0,0,0,.76.24,1.19,1.19,0,0,0,.54-.09.87.87,0,0,0,.26-.19.81.81,0,0,0,.27.19m-.14-3.82a1.08,1.08,0,0,1-.17-.67,1,1,0,0,1,.19-.68.7.7,0,0,1,.53-.19h.21v-.47a.83.83,0,0,0-.26-.08l-.34,0a1.39,1.39,0,0,0-1.06.39,1.47,1.47,0,0,0-.37,1,1.61,1.61,0,0,0,.11.61,1.35,1.35,0,0,0,.32.48,1.45,1.45,0,0,0,.52.31,2.13,2.13,0,0,0,.72.11,1.64,1.64,0,0,0,1.44-.66A3.23,3.23,0,0,0,138,52.1a3.15,3.15,0,0,0-.68-2.15,2.71,2.71,0,0,0-2.14-.77h-5.7v.59h.69v0a1.14,1.14,0,0,0-.49.46,1.21,1.21,0,0,0-.16.6v.06a.18.18,0,0,0,0,.06h1.07v-.19a1.22,1.22,0,0,1,.17-.63.83.83,0,0,1,.5-.39h.1a.89.89,0,0,1,.11.25,1.07,1.07,0,0,1,0,.3.78.78,0,0,1-.15.47,2.21,2.21,0,0,1-.37.4c-.15.13-.31.25-.49.38A3.73,3.73,0,0,0,130,52a2.31,2.31,0,0,0-.38.49,1.25,1.25,0,0,0-.15.63,1.46,1.46,0,0,0,.13.6,1.32,1.32,0,0,0,.39.49,2,2,0,0,0,.66.34,3.14,3.14,0,0,0,.94.13,2.29,2.29,0,0,0,1.8-.67,2.89,2.89,0,0,0,.6-2,3.45,3.45,0,0,0-.25-1.37,1.65,1.65,0,0,0-.76-.84h1.68a3.09,3.09,0,0,1,1,.15,1.59,1.59,0,0,1,.68.45,1.73,1.73,0,0,1,.36.72,4.16,4.16,0,0,1,.11,1,6.94,6.94,0,0,1-.05,1,2.16,2.16,0,0,1-.15.59.66.66,0,0,1-.24.3.57.57,0,0,1-.31.09.53.53,0,0,1-.44-.22m-5-1a2,2,0,0,1,.34-.37q.2-.18.44-.35a3.51,3.51,0,0,0,.44-.39,2,2,0,0,0,.34-.47,1.32,1.32,0,0,0,.13-.61.93.93,0,0,0-.11-.44,1,1,0,0,0-.25-.32l0,0a1,1,0,0,1,.68.66,3.92,3.92,0,0,1,.21,1.45,4.25,4.25,0,0,1-.1,1,2,2,0,0,1-.28.66,1.09,1.09,0,0,1-.43.37,1.29,1.29,0,0,1-.55.12,1.1,1.1,0,0,1-.76-.23.76.76,0,0,1-.26-.59.74.74,0,0,1,.13-.43m-4.43-2.55-.11-.57a.48.48,0,0,1-.13.33.51.51,0,0,1-.41.15.74.74,0,0,1-.51-.16.55.55,0,0,1-.17-.42.57.57,0,0,1,.16-.42.65.65,0,0,1,.48-.16,1.29,1.29,0,0,1,.69.21,2,2,0,0,1,.62.64,3.78,3.78,0,0,1,.44,1,5.35,5.35,0,0,1,.17,1.42,6.48,6.48,0,0,1,0,.82,2.24,2.24,0,0,1-.13.54.66.66,0,0,1-.21.3.48.48,0,0,1-.29.09.53.53,0,0,1-.47-.28,1.6,1.6,0,0,1-.17-.82V52.5h-1.1v.42a1.53,1.53,0,0,1-.18.83.58.58,0,0,1-.52.27.54.54,0,0,1-.49-.26,1.51,1.51,0,0,1,0-1.41.64.64,0,0,1,.56-.27h.2v-.51l-.23-.07a1.78,1.78,0,0,0-.34,0,1.63,1.63,0,0,0-.61.11,1.39,1.39,0,0,0-.48.32,1.45,1.45,0,0,0-.31.49,1.73,1.73,0,0,0-.11.64,1.77,1.77,0,0,0,.11.63,1.42,1.42,0,0,0,.33.51,1.54,1.54,0,0,0,.53.34,1.88,1.88,0,0,0,.71.13,2.09,2.09,0,0,0,.59-.07,1.52,1.52,0,0,0,.39-.18,1,1,0,0,0,.25-.22,1.39,1.39,0,0,0,.15-.23,1.35,1.35,0,0,0,.15.23,1,1,0,0,0,.26.23,1.48,1.48,0,0,0,.38.17,1.81,1.81,0,0,0,.52.07,1.45,1.45,0,0,0,1.23-.56,3,3,0,0,0,.43-1.79,5.24,5.24,0,0,0-.25-1.69,3.76,3.76,0,0,0-.68-1.24,2.93,2.93,0,0,0-1-.77,2.72,2.72,0,0,0-1.18-.26,2.28,2.28,0,0,0-.71.1,1.43,1.43,0,0,0-.5.27,1.11,1.11,0,0,0-.29.4,1.21,1.21,0,0,0-.1.49,1.13,1.13,0,0,0,.37.87,1.47,1.47,0,0,0,1,.34,1,1,0,0,0,.63-.18.91.91,0,0,0,.31-.38m-7.83,1.22.2-.08a.6.6,0,0,0,.19-.16.88.88,0,0,0,.14-.26,1.09,1.09,0,0,0,.06-.38,1,1,0,0,0-.12-.55.6.6,0,0,0-.3-.26,1.66,1.66,0,0,0,.54-.14,1.1,1.1,0,0,0,.36-.27,1,1,0,0,0,.2-.36,1.45,1.45,0,0,0,.06-.43s0-.06,0-.09,0-.05,0-.07a.26.26,0,0,1,0-.06H118.7v.3a.5.5,0,0,1-.17.41.88.88,0,0,1-.55.13h-2.33v.59h1.48a1,1,0,0,1,.64.17.75.75,0,0,1,.21.61.86.86,0,0,1-.18.61.83.83,0,0,1-.61.18h-.11V52h.53a1.22,1.22,0,0,1,.84.23.94.94,0,0,1,.25.72,1.29,1.29,0,0,1-.24.82,1,1,0,0,1-.8.3,1,1,0,0,1-.79-.28,1.07,1.07,0,0,1-.26-.76v-.49h-1l-.05.13a1.15,1.15,0,0,0,0,.35,1.68,1.68,0,0,0,.16.75,1.35,1.35,0,0,0,.45.52,2.08,2.08,0,0,0,.69.3,3.72,3.72,0,0,0,.89.1,2.36,2.36,0,0,0,1.61-.46,1.62,1.62,0,0,0,.52-1.27,1.28,1.28,0,0,0-1.32-1.43Zm-4.95,2a.75.75,0,0,1-.71.56.76.76,0,0,1-.71-.56,4.43,4.43,0,0,1-.23-1.61,4.31,4.31,0,0,1,.23-1.59.76.76,0,0,1,.71-.55.75.75,0,0,1,.71.55,4.39,4.39,0,0,1,.22,1.59,4.51,4.51,0,0,1-.22,1.61m1.25-2.7a2.62,2.62,0,0,0-.39-.88,1.85,1.85,0,0,0-.65-.58,1.9,1.9,0,0,0-.91-.21,1.92,1.92,0,0,0-.92.21,1.85,1.85,0,0,0-.65.58,2.6,2.6,0,0,0-.39.88,4.82,4.82,0,0,0,0,2.22,2.62,2.62,0,0,0,.39.87,1.83,1.83,0,0,0,.65.57,2,2,0,0,0,.92.2,2,2,0,0,0,.91-.2,1.83,1.83,0,0,0,.65-.57,2.62,2.62,0,0,0,.39-.87,4.82,4.82,0,0,0,0-2.22m-4,5.24c-.06-.14-.13-.28-.2-.41l-.2-.39a.86.86,0,0,1-.09-.38.32.32,0,0,1,.06-.2.23.23,0,0,1,.2-.08h0l0,0v-.33a1.07,1.07,0,0,0-.39-.07.68.68,0,0,0-.48.17.62.62,0,0,0-.19.49,1,1,0,0,0,.09.41c.06.13.13.26.2.39a4.36,4.36,0,0,1,.2.41,1.15,1.15,0,0,1,.09.45.79.79,0,0,1-.24.6.85.85,0,0,1-.61.23.66.66,0,0,1-.35-.07.22.22,0,0,1-.11-.19.24.24,0,0,1,.13-.18l.28-.21a2,2,0,0,0,.28-.26.46.46,0,0,0,.13-.32.52.52,0,0,0-.18-.42.78.78,0,0,0-.52-.16h-.22a.58.58,0,0,0-.21.07V56h.22a.27.27,0,0,1,.16,0,.12.12,0,0,1,0,.09c0,.05,0,.11-.13.17l-.29.2a1.68,1.68,0,0,0-.29.25.45.45,0,0,0-.13.32.59.59,0,0,0,.32.51,1.64,1.64,0,0,0,.88.2,2.07,2.07,0,0,0,.67-.1,1.4,1.4,0,0,0,.49-.27,1.16,1.16,0,0,0,.3-.41,1.25,1.25,0,0,0,.1-.51,1.08,1.08,0,0,0-.09-.44m-2.37-4.56.2-.08a.59.59,0,0,0,.19-.16.91.91,0,0,0,.14-.26,1.09,1.09,0,0,0,.06-.38,1,1,0,0,0-.12-.55.61.61,0,0,0-.31-.26,1.66,1.66,0,0,0,.54-.14,1.11,1.11,0,0,0,.36-.27,1,1,0,0,0,.2-.36,1.41,1.41,0,0,0,.06-.43s0-.06,0-.09a.7.7,0,0,1,0-.07.26.26,0,0,1,0-.06H108.6v.3a.5.5,0,0,1-.17.41.88.88,0,0,1-.55.13h-2.33v.59H107a1,1,0,0,1,.63.17.75.75,0,0,1,.21.61.86.86,0,0,1-.18.61.83.83,0,0,1-.61.18H107V52h.53a1.22,1.22,0,0,1,.84.23.94.94,0,0,1,.25.72,1.29,1.29,0,0,1-.24.82,1,1,0,0,1-.8.3,1,1,0,0,1-.79-.28,1.07,1.07,0,0,1-.26-.76v-.49h-1l-.05.13a1.12,1.12,0,0,0,0,.35,1.66,1.66,0,0,0,.16.75,1.34,1.34,0,0,0,.45.52,2.08,2.08,0,0,0,.69.3,3.71,3.71,0,0,0,.89.1,2.36,2.36,0,0,0,1.61-.46,1.62,1.62,0,0,0,.52-1.27,1.28,1.28,0,0,0-1.32-1.43Zm-5,.17a.65.65,0,0,1-.26-.05.52.52,0,0,1-.22-.18,1,1,0,0,1-.15-.34,2.08,2.08,0,0,1-.06-.54,1.2,1.2,0,0,1,.11-.56.35.35,0,0,1,.32-.21.46.46,0,0,1,.24.07.63.63,0,0,1,.22.26,1.79,1.79,0,0,1,.16.5,4.72,4.72,0,0,1-.07,1.87,2.25,2.25,0,0,1-.42.85,1.94,1.94,0,0,1-.73.56,2.61,2.61,0,0,1-1.07.2,2.78,2.78,0,0,1-.93-.14,2,2,0,0,1-.69-.4,2,2,0,0,1-.46-.61,2.81,2.81,0,0,1-.25-.79l.21,0,.29,0a1.78,1.78,0,0,0,.67-.12,1.37,1.37,0,0,0,.8-.81,1.91,1.91,0,0,0,0-1.19,1.29,1.29,0,0,0-.26-.47,1.31,1.31,0,0,0-.45-.32,1.53,1.53,0,0,0-.63-.12,1.78,1.78,0,0,0-.69.13,1.52,1.52,0,0,0-.56.41,2,2,0,0,0-.38.7,3.21,3.21,0,0,0-.14,1,3.9,3.9,0,0,0,.21,1.3,2.83,2.83,0,0,0,.64,1,3,3,0,0,0,1.07.7,4.1,4.1,0,0,0,1.51.25,4.15,4.15,0,0,0,1.53-.25,3,3,0,0,0,1.07-.7,2.79,2.79,0,0,0,.63-1,4,4,0,0,0,.21-1.3,3.21,3.21,0,0,0-.14-1,2,2,0,0,0-.38-.7,1.54,1.54,0,0,0-.58-.41,2,2,0,0,0-.73-.13,1.25,1.25,0,0,0-1,.38,1.42,1.42,0,0,0-.35,1,1.34,1.34,0,0,0,.18.73.88.88,0,0,0,.39.37v0h-1v.56h2.07Zm-4.32-.25a4,4,0,0,1,.07-.8,1.79,1.79,0,0,1,.17-.5.7.7,0,0,1,.23-.26.49.49,0,0,1,.25-.08.34.34,0,0,1,.3.18,1.16,1.16,0,0,1,.11.57,1.24,1.24,0,0,1-.22.83.83.83,0,0,1-.65.25h-.25ZM205.2,49.77h.23a2.11,2.11,0,0,0,.68-.1,1.26,1.26,0,0,0,.46-.26,1,1,0,0,0,.26-.39,1.35,1.35,0,0,0,.08-.47s0-.06,0-.09a.7.7,0,0,1,0-.07.26.26,0,0,1,0-.06h-1.08v.3a.5.5,0,0,1-.17.41.86.86,0,0,1-.54.13H201v.59h1.69a4.33,4.33,0,0,1,1.44.21,2.58,2.58,0,0,1,1,.58,2.19,2.19,0,0,1,.55.89,3.57,3.57,0,0,1,.17,1.12,2.83,2.83,0,0,1-.16,1.07.53.53,0,0,1-.51.38.53.53,0,0,1-.47-.29,1.63,1.63,0,0,1-.17-.82V52.5h-1.09v.41q0,1.11-.71,1.11a.54.54,0,0,1-.49-.26,1.51,1.51,0,0,1,0-1.41.64.64,0,0,1,.56-.27H203v-.5l-.25-.08a1.72,1.72,0,0,0-.35,0,1.62,1.62,0,0,0-.61.11,1.39,1.39,0,0,0-.48.32,1.44,1.44,0,0,0-.31.49,1.73,1.73,0,0,0-.11.64,1.77,1.77,0,0,0,.11.63,1.42,1.42,0,0,0,.33.51,1.56,1.56,0,0,0,.53.34,1.88,1.88,0,0,0,.71.13,2.09,2.09,0,0,0,.59-.07,1.5,1.5,0,0,0,.39-.18,1,1,0,0,0,.25-.22,1.39,1.39,0,0,0,.15-.23,1.23,1.23,0,0,0,.16.23,1.1,1.1,0,0,0,.26.23,1.5,1.5,0,0,0,.38.17,1.8,1.8,0,0,0,.52.07,1.49,1.49,0,0,0,1.2-.5,1.93,1.93,0,0,0,.58.36,2.06,2.06,0,0,0,.8.14,1.8,1.8,0,0,0,1.51-.75,2.6,2.6,0,0,0,.4-.86,4.14,4.14,0,0,0,.14-1.11,4.55,4.55,0,0,0-.13-1.13,2.6,2.6,0,0,0-.39-.88,1.86,1.86,0,0,0-.65-.58,1.9,1.9,0,0,0-.9-.2h-.22l-.2,0v.6h.21a.9.9,0,0,1,.88.55,3.93,3.93,0,0,1,.26,1.6,4.17,4.17,0,0,1-.23,1.57.76.76,0,0,1-.72.54.73.73,0,0,1-.55-.24,1.59,1.59,0,0,1-.36-.65c0-.08,0-.17,0-.26s0-.18,0-.28a3.17,3.17,0,0,0-.45-1.7,2.72,2.72,0,0,0-1.26-1.09ZM200.85,56c-.06-.14-.13-.28-.2-.41l-.2-.39a.86.86,0,0,1-.09-.38.32.32,0,0,1,.06-.2.23.23,0,0,1,.2-.08h.05l0,0v-.33a1.07,1.07,0,0,0-.39-.07.69.69,0,0,0-.48.17.62.62,0,0,0-.19.49,1,1,0,0,0,.09.41c.06.13.13.26.2.39s.14.27.2.41a1.14,1.14,0,0,1,.09.45.79.79,0,0,1-.24.6.85.85,0,0,1-.61.23.66.66,0,0,1-.35-.07.22.22,0,0,1-.11-.19.24.24,0,0,1,.13-.18l.28-.21a1.92,1.92,0,0,0,.28-.26.46.46,0,0,0,.13-.32.52.52,0,0,0-.18-.42.78.78,0,0,0-.52-.16h-.22a.58.58,0,0,0-.21.07V56h.22a.27.27,0,0,1,.16,0,.12.12,0,0,1,0,.09c0,.05,0,.11-.13.17l-.29.2a1.68,1.68,0,0,0-.29.25.46.46,0,0,0-.13.32.59.59,0,0,0,.32.51,1.64,1.64,0,0,0,.88.2,2.07,2.07,0,0,0,.67-.1,1.4,1.4,0,0,0,.49-.27,1.18,1.18,0,0,0,.3-.41,1.27,1.27,0,0,0,.1-.51,1.09,1.09,0,0,0-.09-.44m-4.1-1.85a1.41,1.41,0,0,0,.26.22,1.64,1.64,0,0,0,.38.19,1.6,1.6,0,0,0,.53.08,1.52,1.52,0,0,0,1.28-.6,2.63,2.63,0,0,0,.46-1.64,4.07,4.07,0,0,0-.28-1.51,2.57,2.57,0,0,0-.87-1.14,1.26,1.26,0,0,0,.88-.42,1.25,1.25,0,0,0,.26-.78s0-.07,0-.11,0-.08,0-.11h-1.08v.3a.5.5,0,0,1-.17.41.86.86,0,0,1-.54.13h-4.29v.59h1.12a2.49,2.49,0,0,0-.85,1.13,4.14,4.14,0,0,0-.26,1.5A2.7,2.7,0,0,0,194,54a1.52,1.52,0,0,0,1.31.6,1.68,1.68,0,0,0,.54-.08,1.46,1.46,0,0,0,.38-.18,1.1,1.1,0,0,0,.24-.22l.13-.19.14.18m.41-1.65h-1.11v.42a1.64,1.64,0,0,1-.16.85.51.51,0,0,1-.46.25q-.35,0-.55-.44a3.11,3.11,0,0,1-.2-1.26,4.84,4.84,0,0,1,.1-1,2.4,2.4,0,0,1,.33-.82,1.59,1.59,0,0,1,.6-.54,1.88,1.88,0,0,1,.89-.19,1.92,1.92,0,0,1,.9.19,1.58,1.58,0,0,1,.6.54,2.38,2.38,0,0,1,.33.82,4.84,4.84,0,0,1,.1,1,3.07,3.07,0,0,1-.21,1.26q-.21.44-.55.44a.51.51,0,0,1-.45-.25,1.65,1.65,0,0,1-.16-.85Zm-.87,2.3a1.45,1.45,0,0,0-.13.37,3.61,3.61,0,0,0-.09.47,4.86,4.86,0,0,0,0,.67v.18h1.18v-.18a4.08,4.08,0,0,0,0-.68,3.49,3.49,0,0,0-.11-.47,2.1,2.1,0,0,0-.15-.37Zm-5.66-1a1.1,1.1,0,0,1-.17-.67,1,1,0,0,1,.19-.68.7.7,0,0,1,.53-.19h.21v-.47a.83.83,0,0,0-.26-.08l-.34,0a1.39,1.39,0,0,0-1.06.39,1.46,1.46,0,0,0-.38,1,1.63,1.63,0,0,0,.11.61,1.33,1.33,0,0,0,.33.48,1.49,1.49,0,0,0,.53.31,2.14,2.14,0,0,0,.72.11,1.64,1.64,0,0,0,1.44-.66A3.22,3.22,0,0,0,193,52.1a4.19,4.19,0,0,0-.17-1.23,2.35,2.35,0,0,0-.51-.92,2.19,2.19,0,0,0-.88-.57,3.7,3.7,0,0,0-1.27-.2h-3.7v.59h.21a.9.9,0,0,1,.88.55,3.93,3.93,0,0,1,.25,1.6,4.17,4.17,0,0,1-.23,1.57.76.76,0,0,1-.72.54.73.73,0,0,1-.55-.24,1.59,1.59,0,0,1-.36-.65c0-.08,0-.17,0-.26s0-.18,0-.28a3.18,3.18,0,0,0-.45-1.7,2.72,2.72,0,0,0-1.26-1.09v0h.23a2.11,2.11,0,0,0,.68-.1,1.26,1.26,0,0,0,.46-.26,1,1,0,0,0,.25-.39,1.35,1.35,0,0,0,.08-.47s0-.06,0-.09a.7.7,0,0,1,0-.07.26.26,0,0,1,0-.06h-1.08v.3a.5.5,0,0,1-.17.41.86.86,0,0,1-.54.13H180v.59h1.72a4.34,4.34,0,0,1,1.44.21,2.58,2.58,0,0,1,1,.58,2.19,2.19,0,0,1,.55.89,3.57,3.57,0,0,1,.17,1.12,2.83,2.83,0,0,1-.16,1.07.53.53,0,0,1-.51.38.53.53,0,0,1-.47-.29,1.62,1.62,0,0,1-.17-.82V52.5h-1.09v.41q0,1.11-.71,1.11a.54.54,0,0,1-.49-.26,1.51,1.51,0,0,1,0-1.41.64.64,0,0,1,.56-.27H182v-.5l-.25-.08a1.73,1.73,0,0,0-.35,0,1.62,1.62,0,0,0-.61.11,1.39,1.39,0,0,0-.48.32,1.44,1.44,0,0,0-.31.49,1.73,1.73,0,0,0-.11.64,1.77,1.77,0,0,0,.11.63,1.42,1.42,0,0,0,.33.51,1.55,1.55,0,0,0,.53.34,1.88,1.88,0,0,0,.71.13,2.09,2.09,0,0,0,.59-.07,1.5,1.5,0,0,0,.39-.18,1,1,0,0,0,.25-.22,1.39,1.39,0,0,0,.15-.23,1.18,1.18,0,0,0,.16.23,1.1,1.1,0,0,0,.26.23,1.5,1.5,0,0,0,.38.17,1.8,1.8,0,0,0,.52.07,1.49,1.49,0,0,0,1.2-.5,1.94,1.94,0,0,0,.58.36,2.07,2.07,0,0,0,.8.14,1.8,1.8,0,0,0,1.51-.75,2.6,2.6,0,0,0,.4-.86,4.62,4.62,0,0,0,0-2.4,1.74,1.74,0,0,0-.58-.86h1.46a3.08,3.08,0,0,1,1,.15,1.59,1.59,0,0,1,.67.45,1.72,1.72,0,0,1,.36.72,4.1,4.1,0,0,1,.11,1,6.94,6.94,0,0,1-.05,1,2.24,2.24,0,0,1-.15.59.67.67,0,0,1-.24.3.58.58,0,0,1-.31.09.52.52,0,0,1-.43-.22M174,55.72a1,1,0,0,1,.8-.34.94.94,0,0,1,.8.34,1.36,1.36,0,0,1,.26.85,1.2,1.2,0,0,1-.1.58.3.3,0,0,1-.26.17.3.3,0,0,1-.22-.1.52.52,0,0,1-.09-.36v-.28h-.79v.28q0,.46-.31.46a.31.31,0,0,1-.26-.17,1.15,1.15,0,0,1-.11-.58,1.28,1.28,0,0,1,.28-.85m1,1.89a1,1,0,0,0,.52.11,1,1,0,0,0,.8-.29,1.19,1.19,0,0,0,.27-.84,1.51,1.51,0,0,0-.14-.65,1.41,1.41,0,0,0-.39-.5,1.89,1.89,0,0,0-.59-.32,2.32,2.32,0,0,0-1.46,0,1.94,1.94,0,0,0-.6.32,1.52,1.52,0,0,0-.4.5,1.41,1.41,0,0,0-.15.65,1.23,1.23,0,0,0,.27.82,1,1,0,0,0,.81.32,1,1,0,0,0,.51-.11.75.75,0,0,0,.26-.22,1.31,1.31,0,0,0,.27.21m-2.67-8.74a.5.5,0,0,1,.14-.18.76.76,0,0,1,.25-.13,1.26,1.26,0,0,1,.38,0,1.86,1.86,0,0,1,.58.09,2.84,2.84,0,0,1,.56.26,3.44,3.44,0,0,1,.51.37,3.6,3.6,0,0,1,.44.45,3.73,3.73,0,0,0-.65-.21,3.13,3.13,0,0,0-.68-.08,3.78,3.78,0,0,0-1.16.18.67.67,0,0,1-.3-.19.46.46,0,0,1-.11-.31.5.5,0,0,1,0-.2m.09,1.75a2,2,0,0,1,2.88,0,2.71,2.71,0,0,1,.48,1.7,3.07,3.07,0,0,1-.21,1.26c-.14.3-.32.44-.56.44a.51.51,0,0,1-.45-.25,1.65,1.65,0,0,1-.16-.85V52.5H173.3v.42a1.65,1.65,0,0,1-.16.85.51.51,0,0,1-.46.25q-.35,0-.55-.44a3.11,3.11,0,0,1-.2-1.26,2.67,2.67,0,0,1,.49-1.7m4.33.64a4.76,4.76,0,0,0-.45-1.06,5,5,0,0,0-.68-.93,4.82,4.82,0,0,0-.86-.73,4.24,4.24,0,0,0-1-.48,3.27,3.27,0,0,0-1-.17,1.94,1.94,0,0,0-1.23.32,1,1,0,0,0-.4.78,1,1,0,0,0,.23.65,1.13,1.13,0,0,0,.57.35,2.44,2.44,0,0,0-.81,1,3.43,3.43,0,0,0-.28,1.41,2.7,2.7,0,0,0,.44,1.63,1.52,1.52,0,0,0,1.31.6,1.53,1.53,0,0,0,.91-.27,1.1,1.1,0,0,0,.24-.22l.13-.19.14.19a1.24,1.24,0,0,0,.25.22,1.62,1.62,0,0,0,.39.19,1.59,1.59,0,0,0,.53.08,1.52,1.52,0,0,0,1.27-.6,2.61,2.61,0,0,0,.46-1.64,4.12,4.12,0,0,0-.16-1.14m-13.24-.12a.6.6,0,0,0,.44.17.61.61,0,0,0,.45-.17.63.63,0,0,0,0-.88.61.61,0,0,0-.45-.18.62.62,0,0,0-.44,1.06M166,48.33v.3a.5.5,0,0,1-.17.41.86.86,0,0,1-.54.13h-3.79v.59h4.12a2.14,2.14,0,0,0,.69-.1,1.27,1.27,0,0,0,.46-.26,1,1,0,0,0,.26-.39,1.35,1.35,0,0,0,.08-.47.65.65,0,0,0,0-.08.55.55,0,0,1,0-.07.3.3,0,0,1,0-.07Zm2.71,5.15A.76.76,0,0,1,168,54a.74.74,0,0,1-.55-.25,1.63,1.63,0,0,1-.36-.68c0-.09,0-.18,0-.29s0-.21,0-.31a3.15,3.15,0,0,0-.14-1,2,2,0,0,0-.37-.67,1.39,1.39,0,0,0-.52-.38,1.59,1.59,0,0,0-.61-.12h-.2l-.19,0v.53a1,1,0,0,1,.37.07.65.65,0,0,1,.29.25,1.39,1.39,0,0,1,.2.48,3.52,3.52,0,0,1,.07.79,5.86,5.86,0,0,1,0,.77,1.93,1.93,0,0,1-.11.46.47.47,0,0,1-.16.23.37.37,0,0,1-.21.06.48.48,0,0,1-.35-.13,1.19,1.19,0,0,1-.26-.51l-.22-.72a1.42,1.42,0,0,0-.55-.77,1.9,1.9,0,0,0-1.08-.26,1.66,1.66,0,0,0-1.18.4,1.42,1.42,0,0,0-.43,1.09,1.82,1.82,0,0,0,.09.59,1.34,1.34,0,0,0,.28.48,1.37,1.37,0,0,0,.47.33,1.61,1.61,0,0,0,.64.12,1.12,1.12,0,0,0,.28,0l.12,0V54a.71.71,0,0,1-.56-.24,1.06,1.06,0,0,1-.21-.72,1.08,1.08,0,0,1,.17-.69.5.5,0,0,1,.39-.2.47.47,0,0,1,.35.13.93.93,0,0,1,.21.39l.24.81a2.24,2.24,0,0,0,.2.47,1.12,1.12,0,0,0,.3.34,1.37,1.37,0,0,0,.44.21,2.11,2.11,0,0,0,.6.08,1.52,1.52,0,0,0,1.22-.5,1.94,1.94,0,0,0,.58.36,2.09,2.09,0,0,0,.81.14,1.88,1.88,0,0,0,.87-.2,1.81,1.81,0,0,0,.65-.56A2.67,2.67,0,0,0,170,53a4.18,4.18,0,0,0,.14-1.11,4.6,4.6,0,0,0-.13-1.13,2.62,2.62,0,0,0-.39-.88,1.87,1.87,0,0,0-.65-.58,1.9,1.9,0,0,0-.9-.2h-.22l-.2,0v.6h.22a.89.89,0,0,1,.88.55,4,4,0,0,1,.25,1.6,4.17,4.17,0,0,1-.23,1.57m-11.68-1.14a.92.92,0,0,1,.72-.26h.48v-.61h-.49a1,1,0,0,1-.76-.24.9.9,0,0,1-.22-.64A.74.74,0,0,1,157,50a1.07,1.07,0,0,1,.68-.2h1.18v-.6h-1.73a1.75,1.75,0,0,0-1.15.34,1.18,1.18,0,0,0-.42,1,1.3,1.3,0,0,0,.09.51,1.23,1.23,0,0,0,.25.39,1.21,1.21,0,0,0,.36.26,1.37,1.37,0,0,0,.43.12v0a1.35,1.35,0,0,0-.72.42,1.3,1.3,0,0,0-.29.9,1.43,1.43,0,0,0,.43,1.13,1.64,1.64,0,0,0,1.13.38,1.18,1.18,0,0,0,.32,0l.13,0V54h-.12a.84.84,0,0,1-.57-.2.89.89,0,0,1-.23-.7,1.08,1.08,0,0,1,.24-.76m-6.68,1.37a2.22,2.22,0,0,1-.17-1,1.86,1.86,0,0,1,.21-1,.62.62,0,0,1,.52-.32.78.78,0,0,1,.72.48,4.18,4.18,0,0,0-.18.74q-.06.39-.12.7a1.84,1.84,0,0,1-.18.52.37.37,0,0,1-.34.21.5.5,0,0,1-.45-.3m2.25.17a1,1,0,0,1-.33-.43,5.14,5.14,0,0,0,.18-.73c0-.25.09-.48.14-.68a1.81,1.81,0,0,1,.2-.51.39.39,0,0,1,.35-.2.46.46,0,0,1,.42.3,2.47,2.47,0,0,1,.15,1,2.07,2.07,0,0,1-.2,1.06.58.58,0,0,1-.49.32.71.71,0,0,1-.42-.14m-2.35-4.11a.82.82,0,0,1,.63.26,1.08,1.08,0,0,1,.26.72,1.46,1.46,0,0,0-.39-.05,1.5,1.5,0,0,0-1.21.52,2.17,2.17,0,0,0-.44,1.44,2.2,2.2,0,0,0,.44,1.45,1.54,1.54,0,0,0,1.25.53,1.46,1.46,0,0,0,.73-.16A1.37,1.37,0,0,0,152,54a1.51,1.51,0,0,0,.44.43,1.22,1.22,0,0,0,.67.17,1.48,1.48,0,0,0,1.22-.53,2.23,2.23,0,0,0,.43-1.45,2.19,2.19,0,0,0-.43-1.44,1.46,1.46,0,0,0-1.19-.52,1.55,1.55,0,0,0-.76.16,1.44,1.44,0,0,0-.48.43h0a1.94,1.94,0,0,0,.05-.47,1.58,1.58,0,0,0-.12-.64,1.09,1.09,0,0,0-.29-.41h1.74a2.14,2.14,0,0,0,.69-.1,1.26,1.26,0,0,0,.46-.26,1,1,0,0,0,.25-.39,1.45,1.45,0,0,0,.08-.47s0-.06,0-.09a.7.7,0,0,1,0-.07.26.26,0,0,1,0-.06H153.7v.3a.5.5,0,0,1-.17.41.88.88,0,0,1-.55.13h-3.75v.59Zm-9.53,1.36a.61.61,0,0,0,.44.17.61.61,0,0,0,.45-.17.63.63,0,0,0,0-.88.61.61,0,0,0-.45-.18.62.62,0,0,0-.44,1.06m3.22,3a2.57,2.57,0,0,0,.43-1.6,3.15,3.15,0,0,0-.14-1,2,2,0,0,0-.37-.67,1.39,1.39,0,0,0-.52-.38,1.58,1.58,0,0,0-.61-.12h-.2a.67.67,0,0,0-.19,0v.53a1,1,0,0,1,.37.07.65.65,0,0,1,.29.25,1.39,1.39,0,0,1,.2.48,3.52,3.52,0,0,1,.07.79,6.07,6.07,0,0,1,0,.77,2,2,0,0,1-.11.46.47.47,0,0,1-.16.23.37.37,0,0,1-.21.06.48.48,0,0,1-.34-.13,1.21,1.21,0,0,1-.26-.51l-.22-.72a1.42,1.42,0,0,0-.54-.77,1.9,1.9,0,0,0-1.08-.26,1.66,1.66,0,0,0-1.18.4,1.42,1.42,0,0,0-.43,1.09,1.82,1.82,0,0,0,.09.59,1.33,1.33,0,0,0,.28.48,1.36,1.36,0,0,0,.46.33,1.61,1.61,0,0,0,.64.12,1.11,1.11,0,0,0,.28,0l.12,0V54a.71.71,0,0,1-.56-.24,1.06,1.06,0,0,1-.21-.72,1.09,1.09,0,0,1,.17-.69.5.5,0,0,1,.39-.2.47.47,0,0,1,.35.13.92.92,0,0,1,.21.39l.24.81a2.3,2.3,0,0,0,.2.47,1.11,1.11,0,0,0,.3.34,1.36,1.36,0,0,0,.44.21,2.11,2.11,0,0,0,.6.08,1.5,1.5,0,0,0,1.26-.55m2.16-.29a1.11,1.11,0,0,1-.17-.67,1,1,0,0,1,.19-.68.7.7,0,0,1,.53-.19h.21v-.47a.82.82,0,0,0-.26-.08l-.34,0a1.39,1.39,0,0,0-1.06.39,1.47,1.47,0,0,0-.37,1,1.61,1.61,0,0,0,.11.61,1.32,1.32,0,0,0,.33.48,1.51,1.51,0,0,0,.53.31,2.14,2.14,0,0,0,.72.11A1.64,1.64,0,0,0,148,54a3.22,3.22,0,0,0,.47-1.88,4.22,4.22,0,0,0-.17-1.23,2.35,2.35,0,0,0-.51-.92,2.2,2.2,0,0,0-.88-.57,3.7,3.7,0,0,0-1.27-.2h-6.85v.59h6.35a3.08,3.08,0,0,1,1,.15,1.59,1.59,0,0,1,.67.45,1.73,1.73,0,0,1,.36.72,4.16,4.16,0,0,1,.11,1,6.93,6.93,0,0,1-.05,1,2.16,2.16,0,0,1-.15.59.66.66,0,0,1-.24.3.57.57,0,0,1-.31.09.52.52,0,0,1-.43-.22m-10.28,3.82a1.15,1.15,0,0,0,.51.09,1,1,0,0,0,.77-.28,1.09,1.09,0,0,0,.26-.76,1.46,1.46,0,0,0-.23-.79,1.24,1.24,0,0,0-.64-.52h.95V55h-2.11v.4h0a1.19,1.19,0,0,1,.83.34,1.27,1.27,0,0,1,.32.94q0,.66-.29.66a.24.24,0,0,1-.21-.11.65.65,0,0,1-.08-.37V56.6h-.81v.24a.68.68,0,0,1-.08.37.27.27,0,0,1-.24.11.23.23,0,0,1-.21-.11.53.53,0,0,1-.07-.3c0-.29.11-.44.34-.44h.17v-.32a.93.93,0,0,0-.41-.07,1,1,0,0,0-.67.22.72.72,0,0,0-.27.59.74.74,0,0,0,.28.59,1.15,1.15,0,0,0,.76.24,1.19,1.19,0,0,0,.54-.09.87.87,0,0,0,.26-.19.81.81,0,0,0,.27.19m-.14-3.82a1.08,1.08,0,0,1-.17-.67,1,1,0,0,1,.19-.68.7.7,0,0,1,.53-.19h.21v-.47a.83.83,0,0,0-.26-.08l-.34,0a1.39,1.39,0,0,0-1.06.39,1.47,1.47,0,0,0-.37,1,1.61,1.61,0,0,0,.11.61,1.35,1.35,0,0,0,.32.48,1.45,1.45,0,0,0,.52.31,2.13,2.13,0,0,0,.72.11,1.64,1.64,0,0,0,1.44-.66A3.23,3.23,0,0,0,138,52.1a3.15,3.15,0,0,0-.68-2.15,2.71,2.71,0,0,0-2.14-.77h-5.7v.59h.69v0a1.14,1.14,0,0,0-.49.46,1.21,1.21,0,0,0-.16.6v.06a.18.18,0,0,0,0,.06h1.07v-.19a1.22,1.22,0,0,1,.17-.63.83.83,0,0,1,.5-.39h.1a.89.89,0,0,1,.11.25,1.07,1.07,0,0,1,0,.3.78.78,0,0,1-.15.47,2.21,2.21,0,0,1-.37.4c-.15.13-.31.25-.49.38A3.73,3.73,0,0,0,130,52a2.31,2.31,0,0,0-.38.49,1.25,1.25,0,0,0-.15.63,1.46,1.46,0,0,0,.13.6,1.32,1.32,0,0,0,.39.49,2,2,0,0,0,.66.34,3.14,3.14,0,0,0,.94.13,2.29,2.29,0,0,0,1.8-.67,2.89,2.89,0,0,0,.6-2,3.45,3.45,0,0,0-.25-1.37,1.65,1.65,0,0,0-.76-.84h1.68a3.09,3.09,0,0,1,1,.15,1.59,1.59,0,0,1,.68.45,1.73,1.73,0,0,1,.36.72,4.16,4.16,0,0,1,.11,1,6.94,6.94,0,0,1-.05,1,2.16,2.16,0,0,1-.15.59.66.66,0,0,1-.24.3.57.57,0,0,1-.31.09.53.53,0,0,1-.44-.22m-5-1a2,2,0,0,1,.34-.37q.2-.18.44-.35a3.51,3.51,0,0,0,.44-.39,2,2,0,0,0,.34-.47,1.32,1.32,0,0,0,.13-.61.93.93,0,0,0-.11-.44,1,1,0,0,0-.25-.32l0,0a1,1,0,0,1,.68.66,3.92,3.92,0,0,1,.21,1.45,4.25,4.25,0,0,1-.1,1,2,2,0,0,1-.28.66,1.09,1.09,0,0,1-.43.37,1.29,1.29,0,0,1-.55.12,1.1,1.1,0,0,1-.76-.23.76.76,0,0,1-.26-.59.74.74,0,0,1,.13-.43m-4.43-2.55-.11-.57a.48.48,0,0,1-.13.33.51.51,0,0,1-.41.15.74.74,0,0,1-.51-.16.55.55,0,0,1-.17-.42.57.57,0,0,1,.16-.42.65.65,0,0,1,.48-.16,1.29,1.29,0,0,1,.69.21,2,2,0,0,1,.62.64,3.78,3.78,0,0,1,.44,1,5.35,5.35,0,0,1,.17,1.42,6.48,6.48,0,0,1,0,.82,2.24,2.24,0,0,1-.13.54.66.66,0,0,1-.21.3.48.48,0,0,1-.29.09.53.53,0,0,1-.47-.28,1.6,1.6,0,0,1-.17-.82V52.5h-1.1v.42a1.53,1.53,0,0,1-.18.83.58.58,0,0,1-.52.27.54.54,0,0,1-.49-.26,1.51,1.51,0,0,1,0-1.41.64.64,0,0,1,.56-.27h.2v-.51l-.23-.07a1.78,1.78,0,0,0-.34,0,1.63,1.63,0,0,0-.61.11,1.39,1.39,0,0,0-.48.32,1.45,1.45,0,0,0-.31.49,1.73,1.73,0,0,0-.11.64,1.77,1.77,0,0,0,.11.63,1.42,1.42,0,0,0,.33.51,1.54,1.54,0,0,0,.53.34,1.88,1.88,0,0,0,.71.13,2.09,2.09,0,0,0,.59-.07,1.52,1.52,0,0,0,.39-.18,1,1,0,0,0,.25-.22,1.39,1.39,0,0,0,.15-.23,1.35,1.35,0,0,0,.15.23,1,1,0,0,0,.26.23,1.48,1.48,0,0,0,.38.17,1.81,1.81,0,0,0,.52.07,1.45,1.45,0,0,0,1.23-.56,3,3,0,0,0,.43-1.79,5.24,5.24,0,0,0-.25-1.69,3.76,3.76,0,0,0-.68-1.24,2.93,2.93,0,0,0-1-.77,2.72,2.72,0,0,0-1.18-.26,2.28,2.28,0,0,0-.71.1,1.43,1.43,0,0,0-.5.27,1.11,1.11,0,0,0-.29.4,1.21,1.21,0,0,0-.1.49,1.13,1.13,0,0,0,.37.87,1.47,1.47,0,0,0,1,.34,1,1,0,0,0,.63-.18.91.91,0,0,0,.31-.38m-7.83,1.22.2-.08a.6.6,0,0,0,.19-.16.88.88,0,0,0,.14-.26,1.09,1.09,0,0,0,.06-.38,1,1,0,0,0-.12-.55.6.6,0,0,0-.3-.26,1.66,1.66,0,0,0,.54-.14,1.1,1.1,0,0,0,.36-.27,1,1,0,0,0,.2-.36,1.45,1.45,0,0,0,.06-.43s0-.06,0-.09,0-.05,0-.07a.26.26,0,0,1,0-.06H118.7v.3a.5.5,0,0,1-.17.41.88.88,0,0,1-.55.13h-2.33v.59h1.48a1,1,0,0,1,.64.17.75.75,0,0,1,.21.61.86.86,0,0,1-.18.61.83.83,0,0,1-.61.18h-.11V52h.53a1.22,1.22,0,0,1,.84.23.94.94,0,0,1,.25.72,1.29,1.29,0,0,1-.24.82,1,1,0,0,1-.8.3,1,1,0,0,1-.79-.28,1.07,1.07,0,0,1-.26-.76v-.49h-1l-.05.13a1.15,1.15,0,0,0,0,.35,1.68,1.68,0,0,0,.16.75,1.35,1.35,0,0,0,.45.52,2.08,2.08,0,0,0,.69.3,3.72,3.72,0,0,0,.89.1,2.36,2.36,0,0,0,1.61-.46,1.62,1.62,0,0,0,.52-1.27,1.28,1.28,0,0,0-1.32-1.43Zm-4.95,2a.75.75,0,0,1-.71.56.76.76,0,0,1-.71-.56,4.43,4.43,0,0,1-.23-1.61,4.31,4.31,0,0,1,.23-1.59.76.76,0,0,1,.71-.55.75.75,0,0,1,.71.55,4.39,4.39,0,0,1,.22,1.59,4.51,4.51,0,0,1-.22,1.61m1.25-2.7a2.62,2.62,0,0,0-.39-.88,1.85,1.85,0,0,0-.65-.58,1.9,1.9,0,0,0-.91-.21,1.92,1.92,0,0,0-.92.21,1.85,1.85,0,0,0-.65.58,2.6,2.6,0,0,0-.39.88,4.82,4.82,0,0,0,0,2.22,2.62,2.62,0,0,0,.39.87,1.83,1.83,0,0,0,.65.57,2,2,0,0,0,.92.2,2,2,0,0,0,.91-.2,1.83,1.83,0,0,0,.65-.57,2.62,2.62,0,0,0,.39-.87,4.82,4.82,0,0,0,0-2.22m-4,5.24c-.06-.14-.13-.28-.2-.41l-.2-.39a.86.86,0,0,1-.09-.38.32.32,0,0,1,.06-.2.23.23,0,0,1,.2-.08h0l0,0v-.33a1.07,1.07,0,0,0-.39-.07.68.68,0,0,0-.48.17.62.62,0,0,0-.19.49,1,1,0,0,0,.09.41c.06.13.13.26.2.39a4.36,4.36,0,0,1,.2.41,1.15,1.15,0,0,1,.09.45.79.79,0,0,1-.24.6.85.85,0,0,1-.61.23.66.66,0,0,1-.35-.07.22.22,0,0,1-.11-.19.24.24,0,0,1,.13-.18l.28-.21a2,2,0,0,0,.28-.26.46.46,0,0,0,.13-.32.52.52,0,0,0-.18-.42.78.78,0,0,0-.52-.16h-.22a.58.58,0,0,0-.21.07V56h.22a.27.27,0,0,1,.16,0,.12.12,0,0,1,0,.09c0,.05,0,.11-.13.17l-.29.2a1.68,1.68,0,0,0-.29.25.45.45,0,0,0-.13.32.59.59,0,0,0,.32.51,1.64,1.64,0,0,0,.88.2,2.07,2.07,0,0,0,.67-.1,1.4,1.4,0,0,0,.49-.27,1.16,1.16,0,0,0,.3-.41,1.25,1.25,0,0,0,.1-.51,1.08,1.08,0,0,0-.09-.44m-2.37-4.56.2-.08a.59.59,0,0,0,.19-.16.91.91,0,0,0,.14-.26,1.09,1.09,0,0,0,.06-.38,1,1,0,0,0-.12-.55.61.61,0,0,0-.31-.26,1.66,1.66,0,0,0,.54-.14,1.11,1.11,0,0,0,.36-.27,1,1,0,0,0,.2-.36,1.41,1.41,0,0,0,.06-.43s0-.06,0-.09a.7.7,0,0,1,0-.07.26.26,0,0,1,0-.06H108.6v.3a.5.5,0,0,1-.17.41.88.88,0,0,1-.55.13h-2.33v.59H107a1,1,0,0,1,.63.17.75.75,0,0,1,.21.61.86.86,0,0,1-.18.61.83.83,0,0,1-.61.18H107V52h.53a1.22,1.22,0,0,1,.84.23.94.94,0,0,1,.25.72,1.29,1.29,0,0,1-.24.82,1,1,0,0,1-.8.3,1,1,0,0,1-.79-.28,1.07,1.07,0,0,1-.26-.76v-.49h-1l-.05.13a1.12,1.12,0,0,0,0,.35,1.66,1.66,0,0,0,.16.75,1.34,1.34,0,0,0,.45.52,2.08,2.08,0,0,0,.69.3,3.71,3.71,0,0,0,.89.1,2.36,2.36,0,0,0,1.61-.46,1.62,1.62,0,0,0,.52-1.27,1.28,1.28,0,0,0-1.32-1.43Zm-5,.17a.65.65,0,0,1-.26-.05.52.52,0,0,1-.22-.18,1,1,0,0,1-.15-.34,2.08,2.08,0,0,1-.06-.54,1.2,1.2,0,0,1,.11-.56.35.35,0,0,1,.32-.21.46.46,0,0,1,.24.07.63.63,0,0,1,.22.26,1.79,1.79,0,0,1,.16.5,4.72,4.72,0,0,1-.07,1.87,2.25,2.25,0,0,1-.42.85,1.94,1.94,0,0,1-.73.56,2.61,2.61,0,0,1-1.07.2,2.78,2.78,0,0,1-.93-.14,2,2,0,0,1-.69-.4,2,2,0,0,1-.46-.61,2.81,2.81,0,0,1-.25-.79l.21,0,.29,0a1.78,1.78,0,0,0,.67-.12,1.37,1.37,0,0,0,.8-.81,1.91,1.91,0,0,0,0-1.19,1.29,1.29,0,0,0-.26-.47,1.31,1.31,0,0,0-.45-.32,1.53,1.53,0,0,0-.63-.12,1.78,1.78,0,0,0-.69.13,1.52,1.52,0,0,0-.56.41,2,2,0,0,0-.38.7,3.21,3.21,0,0,0-.14,1,3.9,3.9,0,0,0,.21,1.3,2.83,2.83,0,0,0,.64,1,3,3,0,0,0,1.07.7,4.1,4.1,0,0,0,1.51.25,4.15,4.15,0,0,0,1.53-.25,3,3,0,0,0,1.07-.7,2.79,2.79,0,0,0,.63-1,4,4,0,0,0,.21-1.3,3.21,3.21,0,0,0-.14-1,2,2,0,0,0-.38-.7,1.54,1.54,0,0,0-.58-.41,2,2,0,0,0-.73-.13,1.25,1.25,0,0,0-1,.38,1.42,1.42,0,0,0-.35,1,1.34,1.34,0,0,0,.18.73.88.88,0,0,0,.39.37v0h-1v.56h2.07Zm-4.32-.25a4,4,0,0,1,.07-.8,1.79,1.79,0,0,1,.17-.5.7.7,0,0,1,.23-.26.49.49,0,0,1,.25-.08.34.34,0,0,1,.3.18,1.16,1.16,0,0,1,.11.57,1.24,1.24,0,0,1-.22.83.83.83,0,0,1-.65.25h-.25Z" transform="translate(-18 -2)"/><path class="cls-3" d="M59.93,8.93a1.6,1.6,0,0,0,.06.43,5,5,0,0,0,0,.51,6.58,6.58,0,0,1,0,.67,7.86,7.86,0,0,1-.51,2.8,6,6,0,0,1-1.68,2.4,8.85,8.85,0,0,1-3,1.68,14.31,14.31,0,0,1-4.6.64H19.57V13.89H47.51a5,5,0,0,0,2.79-.64,2.38,2.38,0,0,0,.95-2.13V8.93ZM39.35,42.43c-.12.18-.34.48-.66.91a5.79,5.79,0,0,1-1.55,1.3,12,12,0,0,1-2.76,1.2,14.28,14.28,0,0,1-4.23.53,14.66,14.66,0,0,1-4.83-.72,10,10,0,0,1-3.51-2,8.3,8.3,0,0,1-2.16-3.09,10.38,10.38,0,0,1-.72-3.92,8.81,8.81,0,0,1,.78-3.78,8.34,8.34,0,0,1,2.1-2.8,9,9,0,0,1,3.08-1.73,11.45,11.45,0,0,1,3.65-.59,13.4,13.4,0,0,1,2.21.16,8.65,8.65,0,0,1,2,.64v3.67h-1A3.29,3.29,0,0,0,29,33.46a5.4,5.4,0,0,0-1,3.43,6.06,6.06,0,0,0,1,3.89A3.26,3.26,0,0,0,31.67,42a2.84,2.84,0,0,0,2.55-1.36q.87-1.36.87-5v-2.4h9v2.34a9.94,9.94,0,0,0,.9,4.93A2.86,2.86,0,0,0,47.54,42a2.79,2.79,0,0,0,2.52-2,13.23,13.23,0,0,0,.9-5.35,18.08,18.08,0,0,0-1-6.79,4,4,0,0,0-4-2.48h-.12V21.77a6.57,6.57,0,0,1,1.58-.35c.56-.05,1.1-.08,1.64-.08a11.81,11.81,0,0,1,4.05.72,9.63,9.63,0,0,1,3.54,2.26,11.38,11.38,0,0,1,2.5,4A16,16,0,0,1,60,34.12a14.54,14.54,0,0,1-.75,4.71,11.34,11.34,0,0,1-2.21,3.89,10.51,10.51,0,0,1-3.65,2.66,12.33,12.33,0,0,1-5.12,1,12.91,12.91,0,0,1-3.65-.45,12,12,0,0,1-2.59-1.06,7.46,7.46,0,0,1-1.7-1.28c-.42-.44-.76-.83-1-1.15M39.5,50A55.69,55.69,0,0,0,49.74,49a28.76,28.76,0,0,0,9-3.22l1.78,2.45A23.89,23.89,0,0,1,51.2,53.4a40.18,40.18,0,0,1-11.7,1.68,46.16,46.16,0,0,1-6.12-.4,36.67,36.67,0,0,1-5.83-1.25,29.11,29.11,0,0,1-5.23-2.13,21.34,21.34,0,0,1-4.31-3l2.07-2.45a28.31,28.31,0,0,0,9.14,3.19A58.93,58.93,0,0,0,39.5,50M34.06,25.44a4.25,4.25,0,0,1,1.35-3.27,5,5,0,0,1,3.54-1.25,5,5,0,0,1,3.51,1.25,4.21,4.21,0,0,1,1.38,3.27,4.21,4.21,0,0,1-1.38,3.27A5,5,0,0,1,38.94,30a5,5,0,0,1-3.54-1.25,4.25,4.25,0,0,1-1.35-3.27m39,16.7A3.29,3.29,0,0,0,76,40.63q1-1.52,1-5v-2h8.91v2.13q0,3.68.8,5A2.54,2.54,0,0,0,89,42.15a2.4,2.4,0,0,0,1.93-1.09,6.84,6.84,0,0,0,.84-4q0-3-1.12-3.94a4.49,4.49,0,0,0-3-1h-.86v-4a18.41,18.41,0,0,1,1.87-.48,10.52,10.52,0,0,1,1.93-.16,15.43,15.43,0,0,1,4.05.51,8.69,8.69,0,0,1,3.25,1.62,7.79,7.79,0,0,1,2.18,2.9,10.39,10.39,0,0,1,.8,4.29,10,10,0,0,1-.75,3.94,8.8,8.8,0,0,1-2.13,3,9.51,9.51,0,0,1-3.34,2,13.21,13.21,0,0,1-4.43.69,13.57,13.57,0,0,1-3.39-.37,11.1,11.1,0,0,1-2.47-.93A9.31,9.31,0,0,1,82.63,44a8.22,8.22,0,0,1-1.09-1.15,14.58,14.58,0,0,1-1.18,1.28,7.16,7.16,0,0,1-1.7,1.17,10.12,10.12,0,0,1-2.56.85,18.67,18.67,0,0,1-3.76.32q-5.17,0-8-2.29a7.46,7.46,0,0,1-1.9-9.43,18.71,18.71,0,0,1,2.3-3.3,42.09,42.09,0,0,1,3-3.14q1.64-1.54,3-3a22.55,22.55,0,0,0,2.3-2.82A4.72,4.72,0,0,0,74,19.88a1.88,1.88,0,0,0-.55-1.49A2.15,2.15,0,0,0,72,17.91a2,2,0,0,0-1.55.61,2.85,2.85,0,0,0-.58,2V24H62.79A3.84,3.84,0,0,1,62,22.71a6,6,0,0,1-.32-2.08A6.27,6.27,0,0,1,62.28,18a6.4,6.4,0,0,1,1.78-2.29,8.85,8.85,0,0,1,3.07-1.6,15.24,15.24,0,0,1,4.51-.58,13.59,13.59,0,0,1,5.43,1,8.11,8.11,0,0,1,3.42,2.63,14.42,14.42,0,0,0,1.44,1.61A15.69,15.69,0,0,0,84,20.46a13.62,13.62,0,0,0,2.47,1.37,6.58,6.58,0,0,0,2.59.56,3.64,3.64,0,0,0,2.36-.59,2,2,0,0,0,.69-1.62q0-2-2.65-2H86.6V14h21.9a27,27,0,0,1,8.62,1.23,15.6,15.6,0,0,1,6,3.51,13.89,13.89,0,0,1,3.48,5.59,23.11,23.11,0,0,1,1.12,7.46,22.06,22.06,0,0,1-.78,6.07,12.6,12.6,0,0,1-2.36,4.63,10.46,10.46,0,0,1-4,3,13.94,13.94,0,0,1-5.6,1,16.27,16.27,0,0,1-5-.69,10.94,10.94,0,0,1-3.62-1.89,7.86,7.86,0,0,1-2.21-2.85A9.26,9.26,0,0,1,104.1,34a8.16,8.16,0,0,1,1.81-2.67,7.68,7.68,0,0,1,2.76-1.7,10.16,10.16,0,0,1,3.51-.58,13.56,13.56,0,0,1,2.18.19,7.17,7.17,0,0,1,2,.61v3.25h-.92a3,3,0,0,0-2.21,1,4.89,4.89,0,0,0-.95,3.46,5.64,5.64,0,0,0,.89,3.52,2.58,2.58,0,0,0,2,1.12,2.17,2.17,0,0,0,1.26-.4,3.38,3.38,0,0,0,1-1.55,13.46,13.46,0,0,0,.72-3.17,43.56,43.56,0,0,0,.26-5.27,22.68,22.68,0,0,0-.66-5.73,9.82,9.82,0,0,0-2.3-4.29,10.21,10.21,0,0,0-4.45-2.66,23.71,23.71,0,0,0-7.13-.91H99.19a4.11,4.11,0,0,1,.52,2.08,5.93,5.93,0,0,1-.43,2.21,4.68,4.68,0,0,1-1.44,1.92,7.71,7.71,0,0,1-2.58,1.33,12.84,12.84,0,0,1-3.88.51,22.11,22.11,0,0,1-5.49-.64,24.46,24.46,0,0,1-4.69-1.7,13.84,13.84,0,0,1-2.7,4.21l-3.71,4a47.44,47.44,0,0,0-3.28,3.76,5.72,5.72,0,0,0-1.41,3.46,3.18,3.18,0,0,0,.69,2,2.71,2.71,0,0,0,2.3.91m158.33-.07a2.31,2.31,0,0,0,1.29-.4,3.29,3.29,0,0,0,1.07-1.54,13.45,13.45,0,0,0,.72-3.17,42.87,42.87,0,0,0,.26-5.27,22.61,22.61,0,0,0-.66-5.72,9.8,9.8,0,0,0-2.3-4.29A10.24,10.24,0,0,0,227.34,19a23.68,23.68,0,0,0-7.13-.91H207.27v.16a17.07,17.07,0,0,1,7.41,6.26,17.47,17.47,0,0,1,2.64,9.72,17.18,17.18,0,0,1-.69,5,10.76,10.76,0,0,1-2,3.86,8.74,8.74,0,0,1-3.42,2.45,12.6,12.6,0,0,1-4.83.85,15,15,0,0,1-3.42-.35,10.14,10.14,0,0,1-2.5-.91,7.38,7.38,0,0,1-1.72-1.25,7.83,7.83,0,0,1-1.09-1.33,8.49,8.49,0,0,1-.92,1.25,6.26,6.26,0,0,1-1.55,1.25,9,9,0,0,1-2.5,1,16.34,16.34,0,0,1-3.82.37,13.82,13.82,0,0,1-4.63-.72,10.17,10.17,0,0,1-3.51-2.05,9.07,9.07,0,0,1-2.24-3.12,9.91,9.91,0,0,1-.77-4,9.67,9.67,0,0,1,.77-4,8.9,8.9,0,0,1,5.17-4.83,10.76,10.76,0,0,1,3.71-.64,13.07,13.07,0,0,1,2.56.22,7.64,7.64,0,0,1,1.92.65v3.5h-1.15a3.11,3.11,0,0,0-2.79,1.47,7.45,7.45,0,0,0-.95,4.07,8,8,0,0,0,.72,3.73,2.36,2.36,0,0,0,2.21,1.33,2.58,2.58,0,0,0,2.47-1.44,10.8,10.8,0,0,0,.75-4.68V33.34H202V36a9.51,9.51,0,0,0,.86,4.68,2.47,2.47,0,0,0,4.66-.53,17.93,17.93,0,0,0,.75-6,20.48,20.48,0,0,0-1-6.63,12,12,0,0,0-3.25-5,15.27,15.27,0,0,0-5.81-3.22,28.59,28.59,0,0,0-8.68-1.15H178.24V14h46.51a27,27,0,0,1,8.62,1.22,15.63,15.63,0,0,1,6,3.52,13.9,13.9,0,0,1,3.48,5.59A23.12,23.12,0,0,1,244,31.74a22,22,0,0,1-.78,6.07,12.62,12.62,0,0,1-2.36,4.63,10.49,10.49,0,0,1-4,3,13.94,13.94,0,0,1-5.6,1,16.29,16.29,0,0,1-5-.69,11,11,0,0,1-3.62-1.89A7.8,7.8,0,0,1,220.44,41a9.26,9.26,0,0,1-.09-7.08,8.13,8.13,0,0,1,1.81-2.66,7.66,7.66,0,0,1,2.76-1.71,10.22,10.22,0,0,1,3.51-.59,13.43,13.43,0,0,1,2.16.19,8,8,0,0,1,2,.61V33h-.92a3,3,0,0,0-2.21,1,4.9,4.9,0,0,0-.95,3.46,5.76,5.76,0,0,0,.86,3.51,2.5,2.5,0,0,0,2,1.12m20.7-11.85a9.61,9.61,0,0,1-2.36-1,8.67,8.67,0,0,1-2-1.61,7.77,7.77,0,0,1-1.44-2.17,6.63,6.63,0,0,1-.55-2.75,8.94,8.94,0,0,1,.63-3.3,8,8,0,0,1,2-2.88,9.65,9.65,0,0,1,3.42-2,14.45,14.45,0,0,1,5-.77,19.78,19.78,0,0,1,6.7.93,11,11,0,0,1,4,2.4,11.51,11.51,0,0,1,1-1.06,7.12,7.12,0,0,1,1.61-1.08,11.07,11.07,0,0,1,2.33-.85,13.31,13.31,0,0,1,3.25-.34,17.57,17.57,0,0,0,3.68-.32,6.38,6.38,0,0,0,2.27-.9,3.1,3.1,0,0,0,1.15-1.35,4.49,4.49,0,0,0,.32-1.72,3.91,3.91,0,0,0-.83-2.78,2.48,2.48,0,0,0-1.81-.87,2.06,2.06,0,0,0-1.61.52,1.7,1.7,0,0,0-.46,1.15A1.56,1.56,0,0,0,279,8.77a2.61,2.61,0,0,0,1.67.5,2.77,2.77,0,0,0,.58-.05v2.41a5.6,5.6,0,0,1-1.76.6,11,11,0,0,1-2,.18A7.8,7.8,0,0,1,273,11.22a3.9,3.9,0,0,1-1.78-3.46,4.9,4.9,0,0,1,2.39-4.07A11.21,11.21,0,0,1,280.23,2a13.24,13.24,0,0,1,3.8.53A9.86,9.86,0,0,1,287.1,4a7.05,7.05,0,0,1,2,2.33,6.37,6.37,0,0,1,.75,3.08A6.68,6.68,0,0,1,288.37,14a7.77,7.77,0,0,1-4.05,2.36,10.75,10.75,0,0,1,4.25,5.5,24.25,24.25,0,0,1,1.33,8.4q0,7.67-3.13,11.92t-9.4,4.25A13.37,13.37,0,0,1,273,45.8a10.12,10.12,0,0,1-3.42-1.93,8.77,8.77,0,0,1-2.27-3,9.54,9.54,0,0,1-.8-4,10.86,10.86,0,0,1,.69-4,8,8,0,0,1,4.83-4.73,10.44,10.44,0,0,1,3.62-.61,15.27,15.27,0,0,1,2,.13,13,13,0,0,1,1.93.4v3.43h-.29A3.56,3.56,0,0,0,276.12,33a6.87,6.87,0,0,0-1,3.89,10.7,10.7,0,0,0,.26,2.59A5.31,5.31,0,0,0,276,41a2.36,2.36,0,0,0,.89.85,2.06,2.06,0,0,0,.89.24,1.88,1.88,0,0,0,1.27-.5,4.11,4.11,0,0,0,1-1.8,17.28,17.28,0,0,0,.66-3.57Q281,34,281,30.44a36.31,36.31,0,0,0-.4-5.92,13.62,13.62,0,0,0-1.12-3.81,4.91,4.91,0,0,0-1.7-2,4,4,0,0,0-2.13-.61,3.47,3.47,0,0,0-2.9,1.37q-1.06,1.38-1.06,4.76v1.22h-8.74V24.25a11.57,11.57,0,0,0-.37-3.28,4.64,4.64,0,0,0-1-1.85,3,3,0,0,0-1.35-.85,5.46,5.46,0,0,0-1.5-.21,3.4,3.4,0,0,0-3,1.32,5.77,5.77,0,0,0-.95,3.44,5.45,5.45,0,0,0,1.52,4q1.52,1.53,5,1.53h.58V32.5h-.58q-3.68,0-5.15,1.19a4.72,4.72,0,0,0-1.47,3.89,4.23,4.23,0,0,0,1.35,3.35A5.79,5.79,0,0,0,260,42.12h4.08v3.59a15.87,15.87,0,0,1-2.7.55,28.26,28.26,0,0,1-3.45.19,19.71,19.71,0,0,1-5.09-.61A12,12,0,0,1,249,44.1a8,8,0,0,1-2.48-2.72,7.29,7.29,0,0,1-.86-3.54,7,7,0,0,1,1.7-5,8.55,8.55,0,0,1,4.8-2.38Z" transform="translate(-18 -2)"/><path class="cls-3" d="M173.6,41.56c0-.38-.05-.45-.15-.45a.1.1,0,0,0-.07,0,.21.21,0,0,0,0,.13,2.82,2.82,0,0,1-.58,1.23h0a3.53,3.53,0,0,1-2.83,1.42H135.39a3.53,3.53,0,0,1-3.18-2,3.1,3.1,0,0,1-.22-.65s0-.14-.11-.14-.12.07-.15.45c0,.21,0,.43,0,.56a3.72,3.72,0,0,0,3.71,3.71h34.53a3.72,3.72,0,0,0,3.71-3.71c0-.14,0-.38,0-.56M141.73,21.24a1.59,1.59,0,0,1-.77.08,2.09,2.09,0,0,1-.65-.22c.08-.13.15-.24.23-.34a.66.66,0,0,0,1.26-.41.64.64,0,0,0-.11-.21,2.25,2.25,0,0,1,.53,0l.36.07.12,0h0l-.14.17-.11.16-.14.19a1.3,1.3,0,0,1-.6.46m.86-.28c.06-.1.11-.19.16-.29l.05-.1a1,1,0,0,1,.18-.26.64.64,0,0,0,.28,0,.08.08,0,0,0,0-.08.08.08,0,0,0-.07-.06.57.57,0,0,1-.21-.06l-.2-.09-.26-.12-.25-.09a2.15,2.15,0,0,0-.54-.09,1.92,1.92,0,0,0-.56.07,1.33,1.33,0,0,0-.53.26,1.74,1.74,0,0,0-.37.42,2.47,2.47,0,0,0-.36,1,.08.08,0,0,0,.05.09h0a.08.08,0,0,0,.07,0l.11-.2a1.78,1.78,0,0,0,.7.34,1.7,1.7,0,0,0,.39,0,1.58,1.58,0,0,0,.55-.09,1.44,1.44,0,0,0,.43-.24,1.51,1.51,0,0,0,.31-.36" transform="translate(-18 -2)"/><path class="cls-3" d="M161.34,30.72a1.07,1.07,0,0,1,.53-.91,5.06,5.06,0,0,0-.51-.35.7.7,0,0,0,0,1.26" transform="translate(-18 -2)"/><path class="cls-3" d="M162.13,31.37a1.06,1.06,0,0,1,.56-.76c-.13-.15-.3-.33-.43-.46l-.09-.08a.71.71,0,0,0-.48.66.69.69,0,0,0,.43.64" transform="translate(-18 -2)"/><path class="cls-3" d="M162.79,32.13a1.06,1.06,0,0,1,.56-.8l-.4-.43a.71.71,0,0,0-.47.66.69.69,0,0,0,.31.58" transform="translate(-18 -2)"/><path class="cls-3" d="M163.56,32.91a1.06,1.06,0,0,1,.5-.84l-.44-.45a.7.7,0,0,0-.06,1.29" transform="translate(-18 -2)"/><path class="cls-3" d="M164.32,33.6a1.06,1.06,0,0,1,.48-.83l-.22-.2-.25-.23a.7.7,0,0,0,0,1.26" transform="translate(-18 -2)"/><path class="cls-3" d="M165.23,34.33a1.05,1.05,0,0,1,0-.24,1.07,1.07,0,0,1,.33-.77l-.43-.31a.7.7,0,0,0,.12,1.32m.92.45a.92.92,0,0,1,0-.16v0a.86.86,0,0,1,.19-.83l-.45-.24a.7.7,0,0,0,.29,1.25m1,.34h.12a1,1,0,0,1-.17-.57,1,1,0,0,1,.09-.42l-.53-.19a.71.71,0,0,0-.2.49.7.7,0,0,0,.7.7m1,.11h.07a1.06,1.06,0,0,1-.26-.69,1.07,1.07,0,0,1,0-.25l-.46-.08a.68.68,0,0,0-.08.32.7.7,0,0,0,.7.7m.88,0a.69.69,0,0,0,.44-.15,1.06,1.06,0,0,1-.6-.81,4,4,0,0,1-.49,0,.68.68,0,0,0,0,.23.7.7,0,0,0,.7.7" transform="translate(-18 -2)"/><path class="cls-3" d="M169.87,34.79a.67.67,0,0,0,.64-.7.74.74,0,0,0-.08-.33,4.66,4.66,0,0,1-1.2.44.65.65,0,0,0,.63.58" transform="translate(-18 -2)"/><path class="cls-3" d="M133.92,41.17a3.17,3.17,0,0,1,.42-1.07c.21-.32.21-.48.13-.62l0,0v0h0a.71.71,0,0,1-.11-.26v-.05h0a.35.35,0,0,1,0-.06.33.33,0,0,1,.15-.27c.82-.47.73-1,.6-1.3s.19-1.13.19-1.13c.69-1.92,1.51-2.59,2.09-2.82,1-.4,2.65.82,2.82.92.57.34,2.14,1.38,2.5,1.64l1,.68,0,0,.23.15h0c.76.49,1.44.85,1.61.53s-1.16-1.41-1.74-2.1-.56-.8-.55-1a.91.91,0,0,1,.21-.48.68.68,0,0,0,.8.32.67.67,0,0,0,.52-.42.8.8,0,0,0,.76.15.68.68,0,0,0,.53-.55.76.76,0,0,0,.85.26.63.63,0,0,0,.54-.56.79.79,0,0,0,.88.3.66.66,0,0,0,.5-.68.83.83,0,0,0,.83.23.65.65,0,0,0,.53-.58.75.75,0,0,0,.78.21.69.69,0,0,0,.53-.63.84.84,0,0,0,1,.18.73.73,0,0,0,.41-.56.85.85,0,0,0,.81.26,1.1,1.1,0,0,0,.59-.41c.18.26,1.38,2.16.77,5.81a13.55,13.55,0,0,1-.66,2.66,2.12,2.12,0,0,1-.88.9c-.9.59-2.89.49-3.85.42h-.23c-1.6-.18-1.17-2.26-.69-2.79a8.16,8.16,0,0,0,1.32-2c.2-.6,0-.77-.17-.76s-.2.13-.34.51a5.84,5.84,0,0,1-1.92,2.33,2.68,2.68,0,0,0-1,1.13,3.19,3.19,0,0,0-.33,1.11,1.67,1.67,0,0,1-2.69.51,1.54,1.54,0,0,1,.23-2.08c.07-.07.07-.13,0-.15-1.06-.32-1.47.52-1.69,1-.09.18-.22.29-.31.2-.46-.4.08-1.43.3-1.81s.23-.77-.63-.48a2,2,0,0,1-1.69.05,1.51,1.51,0,0,1-.86-2.15,2.51,2.51,0,0,0,.18-.66c0-.4-.3-.4-.51-.24a2.94,2.94,0,0,0-.69.82c-.21.32-.66.88-1.15.61s-.68-.29-.78-.07.16.55.61.93c.69.56.53,1.8-.4,1.75s-1.24-.05-1.28.31c0,.17.14.27.29.38h0c.19.13.49.26.35,1.59,0,.43-.2,1.22-.84,1l-.11,0a.26.26,0,0,1-.15-.3,4.75,4.75,0,0,1,.31-1c0-.1.11-.32,0-.39s-.29.11-.34.21a4.89,4.89,0,0,0-.28.84h0c-.05.2-.16,0-.16-.17a.4.4,0,0,1,0-.09m7.26-8.62a.12.12,0,0,1,.16-.06.12.12,0,0,1,.06.16.31.31,0,0,0,0,.22h0a.55.55,0,1,1-.24,0,.53.53,0,0,1,0-.37m1.3-.08a.12.12,0,0,1,.22.1.3.3,0,0,0,0,.22h0a.55.55,0,1,1-.24,0,.54.54,0,0,1,0-.37m1.27-.14a.12.12,0,0,1,.22.1.3.3,0,0,0,0,.22h0a.55.55,0,1,1-.24,0,.54.54,0,0,1,0-.37m1.24-.23a.12.12,0,0,1,.16-.06.12.12,0,0,1,.06.16.3.3,0,0,0,0,.22h0a.56.56,0,1,1-.23,0,.54.54,0,0,1,0-.37m1.38-.28a.12.12,0,0,1,.22.1.3.3,0,0,0,0,.22h0a.55.55,0,1,1-.23,0,.54.54,0,0,1,0-.37m1.42-.25a.12.12,0,0,1,.22.1.3.3,0,0,0,0,.22h0a.55.55,0,1,1-.24,0,.55.55,0,0,1,0-.36m1.33-.44a.12.12,0,0,1,.22.1.3.3,0,0,0,0,.22h0a.55.55,0,1,1-.24,0,.54.54,0,0,1,0-.37m1.29-.43a.12.12,0,0,1,.22.1.29.29,0,0,0,0,.22h0a.55.55,0,1,1-.24,0,.54.54,0,0,1,0-.37m1.32-.4a.12.12,0,1,1,.22.1.31.31,0,0,0,0,.22h0a.55.55,0,1,1-.24,0,.53.53,0,0,1,0-.37m1.4-.47a.12.12,0,0,1,.22.1.3.3,0,0,0,0,.22h0a.55.55,0,1,1-.23,0,.54.54,0,0,1,0-.37m-12.25,1.29a18.58,18.58,0,0,0,4.39-1,15,15,0,0,0,7.25-4.6h0l0,0,.08-.1a3,3,0,0,1,1.7-1.13,1.7,1.7,0,0,1,1.27.22,1.85,1.85,0,0,1,.49,2,1.68,1.68,0,0,1-1.43,1,1.13,1.13,0,0,1-1-.45.26.26,0,0,0-.48.19h0a1.3,1.3,0,0,0,1,.84c.62.09.56.48.37.58a36.15,36.15,0,0,1-10.28,3.17,22.7,22.7,0,0,1-3.37.23.53.53,0,0,1-.46-.48.52.52,0,0,1,.47-.55M140.62,26c-.46.05-.59-.22-.59-.22a.38.38,0,0,1,.09-.57c.13-.1.46-.37.24-.64-.37-.47-.71.09-.79.26a1.43,1.43,0,0,1-.73.94,1.33,1.33,0,0,1-1.37,0,2.68,2.68,0,0,1-.58-.68,2,2,0,0,1-.33-1,1,1,0,0,1,.59-1c.51-.21.6,0,.77-.19a.48.48,0,0,0,.11-.26c.09-.44,1-.85,1.52-1.52a15,15,0,0,0,1.06-1.28,2.91,2.91,0,0,1,1.7-1.29h0s.88-.12,1.25.32a1.72,1.72,0,0,1,.23,1.74c-.25.54-.08.66,0,.73s.47.38,1-.31a4.14,4.14,0,0,1,2.31-1.44,2.93,2.93,0,0,1,1.44.11,6.22,6.22,0,0,0-.32.59c-.09.21-.16.37-.2.49a3.68,3.68,0,0,1-.31.65,2.18,2.18,0,0,1-1.5.88c-.41,0-.26-.64-.15-.87a7,7,0,0,1,1.14-1c.13-.1.09-.25-.18-.09s-.55-.07-.94.18a.54.54,0,0,0-.21.66s-.43.32-.76.55,0,.65.1.9a2.22,2.22,0,0,1,.21,2.08c-.41.69-1.4.85-2.35,1-.34.06-.87,0-1.17,0s-.83.23-1.27.28m7.54-9.06a7.13,7.13,0,0,1-.71,1.25c-.81,1.16-2.28,1.66-2.77,1-1.27-1.79,3.48-2.22,3.48-2.22m2.32,7.32a17.69,17.69,0,0,1-7.91,4.16.29.29,0,0,1-.35-.24.26.26,0,0,1,.18-.33,7.15,7.15,0,0,0,1.43-.54.26.26,0,1,0-.23-.47c-.25.12-.48.22-.69.3-.6.16-1.13,0-1.15-.43s.85-.4,1.18-.48l.21,0a3.9,3.9,0,0,0,2.7-1.25,2.48,2.48,0,0,0,.07-2.17,2.48,2.48,0,0,0,2-.86,20.06,20.06,0,0,0,2.56,2.35m.64.35.31.08a.74.74,0,0,1-.1.93.78.78,0,0,1-1.05.09h0a.7.7,0,0,1-1.11.84l0,0a.7.7,0,0,1-1.17.73h0a.61.61,0,0,1-.36.76.77.77,0,0,1-.87-.12h0a.65.65,0,0,1-.44.68c-.35.13-.74.06-.84-.12h0a.76.76,0,0,1-.54.58A1,1,0,0,1,144,29l-.4.12h0a.26.26,0,0,0,0,.18h0a.34.34,0,1,1-.35.33.33.33,0,0,1,.16-.28.44.44,0,0,1,0-.19l-.73.19v0a.25.25,0,0,0,0,.18h0a.41.41,0,1,1-.21.06.42.42,0,0,1,0-.22c-.27.06-.56.11-.85.14a.25.25,0,0,0,0,.17h0a.45.45,0,0,1,0,.9.45.45,0,0,1-.45-.45.43.43,0,0,1,0-.09h0l0-.07v0l0-.07,0,0,0,0,0,0h0l.1-.07a.42.42,0,0,1,0-.2h0a.2.2,0,0,1-.24-.17c0-.13.07-.2.19-.23a15.79,15.79,0,0,0,2.92-.68A18.11,18.11,0,0,0,147,27.3,17.36,17.36,0,0,0,150.38,25l.56-.5.17.07m5.48,6.3a4.78,4.78,0,0,1,.32,1.36c0,.39,0,.69-.63.83a.77.77,0,0,1-1-.55c-.08-.26-.2-.59-.27-.77a.88.88,0,0,1,.43-1.27.84.84,0,0,1,1.13.4m.55,3.33a7.66,7.66,0,0,1,.07,1.22.74.74,0,0,1-.83.79.7.7,0,0,1-.78-.78c0-.27,0-.43,0-1a.78.78,0,0,1,.82-.84.7.7,0,0,1,.76.6m.89-5.65.09,0,.44-.12a2.7,2.7,0,0,1,1,0c.27.06.49.13.74.2a5.7,5.7,0,0,1,2.15,1.28c.18.17.4.42.65.7a22,22,0,0,0,1.66,1.7A5.53,5.53,0,0,0,168.35,34a4.3,4.3,0,0,0,2.4-.78,6.66,6.66,0,0,1,.75,1.71,5.49,5.49,0,0,1-.63,4.36,1.46,1.46,0,0,1-1.47.54h0c-.06,0-.06-.07,0-.1l0,0h0a2.68,2.68,0,0,0,.8-.66l.1-.12a3.51,3.51,0,0,0,.59-2.88.26.26,0,1,0-.51.11,3,3,0,0,1-.49,2.44c-.72.9-2.1,1.36-4.1,1.36h-.06l-.3,0a3.79,3.79,0,0,1-2.9-1.47,2.42,2.42,0,0,1-.48-1.93,3.09,3.09,0,0,1,1.68-1.9.26.26,0,0,0-.2-.49,3.66,3.66,0,0,0-.62.35,3.6,3.6,0,0,0-1.61,2c-.33,1-.59,2.18-2,1.9a1.75,1.75,0,0,1-1.58-1.66,24,24,0,0,0-.57-6.48h0a1.47,1.47,0,0,1,.94-1.71m2.3-.58,1-.17a6.51,6.51,0,0,1,2,1.31c.2.2.43.45.7.75a20.77,20.77,0,0,0,1.58,1.63,4.35,4.35,0,0,0,2.8,1.37,3.28,3.28,0,0,0,1.93-.71l.21.47a3.73,3.73,0,0,1-2.15.74,4.79,4.79,0,0,1-3.14-1.5,21.46,21.46,0,0,1-1.61-1.66c-.26-.29-.49-.54-.68-.73A6.34,6.34,0,0,0,160.33,28Zm2.8-.31.82,0h0a7.74,7.74,0,0,1,4.83,1.9,4.15,4.15,0,0,1,.45.56c.1.14.42.66.48.77s.22.41.31.61l-.07.07a2.69,2.69,0,0,1-1.58.6A3.76,3.76,0,0,1,166,31.06l0,0a19.9,19.9,0,0,1-1.53-1.58c-.27-.3-.51-.57-.72-.78a6.72,6.72,0,0,0-1.3-1h.73M165.25,42c-.49,0-1.7.07-1.61-1.05,0-.38.34-.61.79-.68a3.41,3.41,0,0,1,1.24.17A3.79,3.79,0,0,1,167.55,42s-1.81,0-2.31,0m-1.93-1.55a1.66,1.66,0,0,0-.83-.21c-1.09-.08-1.22-.76-1.22-1a1.16,1.16,0,0,1,.58-1,1.31,1.31,0,0,0,.34.53c-.09.06-.29.23-.29.43s0,.39.64.44a2.07,2.07,0,0,1,1.26.43.78.78,0,0,0-.48.4m-.88,2a.37.37,0,0,1-.14.06,3.64,3.64,0,0,1-1.27,0,.15.15,0,0,1-.14-.13,2.31,2.31,0,0,1,.29-1.12c.16-.25-.16-.53-.38-.17a2.54,2.54,0,0,0-.43,1.22.09.09,0,0,1-.11.08,1.2,1.2,0,0,1-.69-.29.19.19,0,0,1-.06-.19,1.85,1.85,0,0,1,1.3-1.64.15.15,0,0,1,.18,0,2.72,2.72,0,0,0,1.78.58c.13,0,.33.06.3.2a2.14,2.14,0,0,1-.64,1.39M159,42c-.79-.06-1.1-.26-1-.8.1-.74,1.15-.18,1.25-.45s-.41-.22-.8-.38-.36-.75.42-1.07a1.81,1.81,0,0,1,1.75.24c.35.23,0,.32,0,.32a2.19,2.19,0,0,0-1.47,2.08c0,.05,0,.07-.12.07M157,38.38a.83.83,0,0,1-1.65-.17c0-.17.06-.34.15-.83a.72.72,0,0,1,.84-.6.76.76,0,0,1,.77.69,9.11,9.11,0,0,1-.11.91m-17.84,3.47c-.84.13-1.37-.22-1.29-.74s.18-1.14.23-1.39a.9.9,0,0,1,.4-.66,1.19,1.19,0,0,1,1.29.21,5,5,0,0,1,1,1.08h0c.7,1.09-.66,1.35-1.63,1.49M135.11,43a3.55,3.55,0,0,0,1,.16h.19a5.36,5.36,0,0,0,1.48-.22,3.38,3.38,0,0,1,.4-.09,6,6,0,0,1,1.31,0l.63.08h0c1.25.14,2.9.24,3.92.24h.44a3.79,3.79,0,0,0,2.14-.62h0a7.33,7.33,0,0,0,2.59.59c.42,0,.86,0,1.33,0a40.77,40.77,0,0,0,5.57-.39h0a49.37,49.37,0,0,0,7.84.49c2.27,0,4-.07,4.34-.11l.16,0a3.1,3.1,0,0,0,2.75-1.58,1.88,1.88,0,0,0-.08-1.67l0-.09v0l0,0a5.86,5.86,0,0,0,.83-4.91,6.37,6.37,0,0,0-.88-1.92h0a16.3,16.3,0,0,0-1.15-2.48,6.22,6.22,0,0,0-4.39-2.91,13.15,13.15,0,0,0-2.77-.3,11.1,11.1,0,0,0-1.61.11l-.5.09c-1,.17-2.86.49-3.52.51a.55.55,0,0,1-.42-.21,1.83,1.83,0,0,1-.12-1.28v-.05a2.22,2.22,0,0,0-.71-2.21,1.76,1.76,0,0,0-1.16-.35,6.56,6.56,0,0,0-1.29.17l-.36.08a5.47,5.47,0,0,1-1.18.18,2.09,2.09,0,0,1-.64-.09L151,24h0a18.7,18.7,0,0,1-2.82-2.53l0,0v0a4.23,4.23,0,0,0,.25-.56h0l.19-.46a8.7,8.7,0,0,1,.44-.77.23.23,0,0,0-.08-.32,2.84,2.84,0,0,0-1.32-.33h-.07l0-.06a13.15,13.15,0,0,0,1.09-2.21.23.23,0,0,0-.21-.31c-2.4.09-3.37.62-3.74.93l0,0,0,0a1.52,1.52,0,0,0-1-.36,1.82,1.82,0,0,0-.47.07,1.66,1.66,0,0,0-1.06.94v0h0a3.4,3.4,0,0,0-2,1.48,10.14,10.14,0,0,1-3,2.68l-.27.18c-.73.57-1.35,1.37-.5,3a3.67,3.67,0,0,0,3.3,1.62,5.19,5.19,0,0,0,1-.09h0v0a1.41,1.41,0,0,1,.23,1.32,5.55,5.55,0,0,1-.32.67l-.11.19a2,2,0,0,0-.28,1.81v0h0a1.91,1.91,0,0,0-.9,1.18,1.86,1.86,0,0,0,.05.88v0h0a.16.16,0,0,1,0,.13c0,.07-.16.08-.32,0l-.11,0-.17,0a3.72,3.72,0,0,0-1-.18,1.86,1.86,0,0,0-.7.13c-.67.27-1.62,1-2.37,3.11a2,2,0,0,0-.18,1.51c.07.15.1.38-.4.67a.83.83,0,0,0-.4.67.81.81,0,0,0,.12.48v0h0a.29.29,0,0,1,0,.35,2.88,2.88,0,0,0-.29.55,4.53,4.53,0,0,0-.23.76v0c-.12.56.49,1.38,1.68,1.72" transform="translate(-18 -2)"/></g></svg>