<svg xmlns="http://www.w3.org/2000/svg" xmlns:xlink="http://www.w3.org/1999/xlink" width="13.452" height="12.327" viewBox="0 0 13.452 12.327"><defs><style>.a,.c{fill:#fff;}.a{stroke:#707070;}.b{clip-path:url(#a);}</style><clipPath id="a"><rect class="a" width="13.452" height="12.327"/></clipPath></defs><g class="b"><path class="c" d="M12.879,5.773a3.09,3.09,0,0,1,1.973-.932,2.581,2.581,0,0,1-.7,1.969,2.571,2.571,0,0,1-1.988.872A2.472,2.472,0,0,1,12.879,5.773Zm3.833,9.864c-.558.75-1.138,1.5-2.051,1.515-.9.014-1.185-.489-2.211-.489s-1.349.475-2.2.5C9.374,17.2,8.7,16.355,8.142,15.6c-1.15-1.529-2.031-4.323-.85-6.209a3.324,3.324,0,0,1,2.772-1.543c.866-.014,1.684.536,2.211.536s1.521-.661,2.565-.564a3.225,3.225,0,0,1,2.449,1.222,2.791,2.791,0,0,0-1.446,2.347,2.77,2.77,0,0,0,1.8,2.494A6.579,6.579,0,0,1,16.712,15.637Z" transform="translate(-5.721 -4.84)"/></g></svg>