<?xml version="1.0" encoding="utf-8"?>
<!-- Generator: Adobe Illustrator 21.1.0, SVG Export Plug-In . SVG Version: 6.00 Build 0)  -->
<svg version="1.1" id="Layer_1" xmlns="http://www.w3.org/2000/svg" xmlns:xlink="http://www.w3.org/1999/xlink" x="0px" y="0px"
	 viewBox="0 0 321.7 217.4" style="enable-background:new 0 0 321.7 217.4;" xml:space="preserve">
<style type="text/css">
	.st0{fill:#020202;}
	.st1{fill:#070808;}
	.st2{fill:#92C83E;}
	.st3{fill:none;stroke:#000000;stroke-width:8;stroke-miterlimit:10;}
</style>
<path class="st0" d="M174.2,189.1c0-4.8,0-9.4,0-14.2c41.1,0,82.2,0,123.7,0c0,4.6,0,9.3,0,14.2
	C256.8,189.1,215.7,189.1,174.2,189.1z"/>
<path class="st0" d="M174.2,163.1c0-4.8,0-9.4,0-14.2c36.9,0,73.7,0,110.8,0c0,4.6,0,9.3,0,14.2
	C248.3,163.1,211.4,163.1,174.2,163.1z"/>
<path class="st1" d="M92.2,133.9c20.2,0,36.5-16.4,36.5-36.5S112.4,61,92.2,61S55.7,77.3,55.7,97.4S72.1,133.9,92.2,133.9z
	 M92.2,70.5c14.8,0,26.9,12.1,26.9,26.9s-12.1,26.9-26.9,26.9s-26.9-12.1-26.9-26.9S77.4,70.5,92.2,70.5z"/>
<path class="st1" d="M29,191h126.8c2.7,0,4.8-2.1,4.8-4.8c0-25.2-20.5-45.8-45.8-45.8H70c-25.2,0-45.8,20.5-45.8,45.8
	C24.2,188.8,26.3,191,29,191z M70,150h44.8c18.4,0,33.5,13.7,35.9,31.4H34.2C36.5,163.7,51.7,150,70,150z"/>
<circle class="st1" cx="92.7" cy="97.3" r="29.6"/>
<path class="st1" d="M28,179.5c0,0,17.2-26.5,20.2-27.2c3-0.7,17.2-8.2,30.7-7.5s35.9-1.6,38.2-0.1c2.2,1.5,24.4,11.3,24.4,11.3
	l10.8,15.9v12.5H34.7L28,179.5z"/>
<g>
	<g>
		<path class="st2" d="M226.4,30.7c-28.8,0-52.2,23.4-52.2,52.2s23.4,52.2,52.2,52.2s52.2-23.4,52.2-52.2S255.1,30.7,226.4,30.7z
			 M256.2,67.9l-37.6,37.6c-0.8,0.8-2,1.3-3.1,1.3s-2.2-0.4-3.1-1.3l-20.2-20.2c-0.8-0.8-0.8-2.2,0-3.1l3.1-3.1
			c0.8-0.8,2.2-0.8,3.1,0l17.1,17.1L250,61.8c0.8-0.8,2.2-0.8,3.1,0l3.1,3.1C257,65.7,257,67.1,256.2,67.9z"/>
	</g>
</g>
<path class="st3" d="M299.2,207h-278c-6.6,0-12-5.4-12-12V24.3c0-6.6,5.4-12,12-12h278c6.6,0,12,5.4,12,12V195
	C311.2,201.6,305.8,207,299.2,207z"/>
</svg>
