<svg xmlns="http://www.w3.org/2000/svg" xmlns:xlink="http://www.w3.org/1999/xlink" width="26" height="26" viewBox="0 0 26 26"><defs><style>.a{fill:#fff;stroke:#707070;}.b{clip-path:url(#a);}.c{fill:#858383;}</style><clipPath id="a"><rect class="a" width="26" height="26" transform="translate(1025 3529)"/></clipPath></defs><g class="b" transform="translate(-1025 -3529)"><g transform="translate(1023.285 3526.729)"><path class="c" d="M18.179,4.448l.284-.425.279-.419.628-.941a.252.252,0,1,0-.419-.279l-.672,1.009L18,3.816l-.287.43a8.419,8.419,0,0,0-5.987,0l-.286-.43-.283-.424-.673-1.01a.252.252,0,1,0-.419.279l.627.941.28.419.284.425A5.718,5.718,0,0,0,7.671,9.483H21.76A5.718,5.718,0,0,0,18.179,4.448ZM11.7,7.47a.755.755,0,1,1,.754-.755A.755.755,0,0,1,11.7,7.47Zm6.038,0a.755.755,0,1,1,.755-.755A.754.754,0,0,1,17.734,7.47Z"/><path class="c" d="M7.779,10.49H7.671V21.561a1.6,1.6,0,0,0,1.593,1.594h1.15a1.508,1.508,0,0,0-.06.419v3.188a1.51,1.51,0,0,0,3.02,0V23.573a1.55,1.55,0,0,0-.06-.419h2.8a1.507,1.507,0,0,0-.06.419v3.188a1.51,1.51,0,1,0,3.019,0V23.573a1.51,1.51,0,0,0-.06-.419h1.15a1.6,1.6,0,0,0,1.594-1.594V10.49H7.779Z"/><path class="c" d="M5.154,10.49A1.509,1.509,0,0,0,3.645,12v6.457a1.51,1.51,0,0,0,3.019,0V12A1.509,1.509,0,0,0,5.154,10.49Z"/><path class="c" d="M24.277,10.49A1.509,1.509,0,0,0,22.767,12v6.457a1.509,1.509,0,1,0,3.018,0V12A1.509,1.509,0,0,0,24.277,10.49Z"/></g></g></svg>