<svg xmlns="http://www.w3.org/2000/svg" width="21.232" height="26.176" viewBox="0 0 21.232 26.176"><defs><style>.a{fill:#858383;}</style></defs><g transform="translate(117.826 24.75)"><path class="a" d="M-105.859-22.767a5.847,5.847,0,0,1,3.84-1.983,5.786,5.786,0,0,1-1.358,4.181,4.825,4.825,0,0,1-3.867,1.852,5.492,5.492,0,0,1,1.384-4.05ZM-98.4-1.823c-1.088,1.6-2.213,3.182-3.99,3.215-1.748.033-2.309-1.039-4.3-1.039s-2.622,1.006-4.273,1.072c-1.715.065-3.02-1.723-4.116-3.312-2.24-3.248-3.951-9.184-1.651-13.19a6.376,6.376,0,0,1,5.391-3.281c1.685-.031,3.276,1.139,4.3,1.139s2.962-1.405,4.992-1.2a6.081,6.081,0,0,1,4.767,2.592,5.931,5.931,0,0,0-2.814,4.985,5.772,5.772,0,0,0,3.5,5.293A14.457,14.457,0,0,1-98.4-1.823Z" transform="translate(0 0)"/></g></svg>