<svg data-name="Layer 1" xmlns="http://www.w3.org/2000/svg" viewBox="0 0 33.9 33.9"><defs><style>.cls-1{fill:#e70062;}.cls-2{fill:#e5e6e8;}</style></defs><title>svg</title><circle class="cls-1" cx="16.9" cy="16.9" r="16.9"/><path class="cls-2" d="M24 22a1 1 0 0 1 0-1.6 9 9 0 0 0 1-4.2A9.3 9.3 0 0 0 20.6 8 9 9 0 0 0 11 8a9.2 9.2 0 0 0-.8 15 9 9 0 0 0 10 1 1 1 0 0 1 1.7.2c.6 1 1.4 1.6 2.2 2.4a1.6 1.6 0 1 0 2.4-2.3c-.8-.8-1.6-1.7-2.5-2.4zm-8-.2a5.8 5.8 0 1 1 5.8-6 5.8 5.8 0 0 1-6 6z"/><path class="cls-1" d="M16 10a5.8 5.8 0 1 0 5.8 6 5.8 5.8 0 0 0-5.8-6z"/></svg>
