<?xml version="1.0" encoding="UTF-8"?>
<svg width="42px" height="42px" viewBox="0 0 42 42" version="1.1" xmlns="http://www.w3.org/2000/svg" xmlns:xlink="http://www.w3.org/1999/xlink">
    <!-- Generator: Sketch 52.6 (67491) - http://www.bohemiancoding.com/sketch -->
    <title>India</title>
    <desc>Created with Sketch.</desc>
    <defs>
        <circle id="path-1" cx="20" cy="20" r="20"></circle>
    </defs>
    <g id="Flags" stroke="none" stroke-width="1" fill="none" fill-rule="evenodd">
        <g id="Artboard" transform="translate(-28.000000, -33.000000)">
            <g id="India" transform="translate(29.000000, 34.000000)">
                <mask id="mask-2" fill="white">
                    <use xlink:href="#path-1"></use>
                </mask>
                <circle stroke="#979797" stroke-width="0.1" cx="20" cy="20" r="20.05"></circle>
                <g id="Flag_of_India" mask="url(#mask-2)">
                    <g transform="translate(-11.179487, -0.769231)">
                        <rect id="Rectangle" fill="#FF9933" x="0" y="0" width="62.3076923" height="41.5384615"></rect>
                        <rect id="Rectangle" fill="#FFFFFF" x="0" y="13.8461538" width="62.3076923" height="13.8461538"></rect>
                        <rect id="Rectangle" fill="#128807" x="0" y="27.6923077" width="62.3076923" height="13.8461538"></rect>
                        <g id="Group" stroke-width="1" fill="none" transform="translate(20.630769, 7.753846)">
                            <circle id="Oval" fill="#000088" cx="10.5230769" cy="13.0153846" r="5.53846154"></circle>
                            <circle id="Oval" fill="#FFFFFF" cx="10.5230769" cy="13.0153846" r="4.84615385"></circle>
                            <circle id="Oval" fill="#000088" cx="10.5230769" cy="13.0153846" r="1"></circle>
                            <g id="d" transform="translate(0.830769, 8.307692)" fill="#000088">
                                <g id="c" transform="translate(4.984615, 3.876923)">
                                    <g id="b" transform="translate(3.046154, 0.830769)">
                                        <g id="a" transform="translate(1.384615, 0.276923)">
                                            <circle id="Oval" transform="translate(5.081617, 0.355627) rotate(7.500000) translate(-5.081617, -0.355627) " cx="5.08161741" cy="0.355626932" r="1"></circle>
                                            <path d="M0.276923077,4.56923077 L0.443076923,1.66153846 C0.443076923,1.66153846 0.276923077,0.276923077 0.276923077,0.276923077 C0.276923077,0.276923077 0.110769231,1.66153846 0.110769231,1.66153846 L0.276923077,4.56923077 Z" id="Path"></path>
                                        </g>
                                        <g id="a-link" transform="translate(3.388030, 3.186185) rotate(15.000000) translate(-3.388030, -3.186185) translate(0.618799, 0.832338)">
                                            <g id="a">
                                                <circle id="Oval" transform="translate(5.081617, 0.355627) rotate(7.500000) translate(-5.081617, -0.355627) " cx="5.08161741" cy="0.355626932" r="1"></circle>
                                                <path d="M0.276923077,4.56923077 L0.443076923,1.66153846 C0.443076923,1.66153846 0.276923077,0.276923077 0.276923077,0.276923077 C0.276923077,0.276923077 0.110769231,1.66153846 0.110769231,1.66153846 L0.276923077,4.56923077 Z" id="Path"></path>
                                            </g>
                                        </g>
                                    </g>
                                    <g id="b-link" transform="translate(4.674230, 4.488727) rotate(30.000000) translate(-4.674230, -4.488727) translate(1.212692, 1.304112)">
                                        <g id="b">
                                            <g id="a" transform="translate(1.384615, 0.276923)">
                                                <circle id="Oval" transform="translate(5.081617, 0.355627) rotate(7.500000) translate(-5.081617, -0.355627) " cx="5.08161741" cy="0.355626932" r="1"></circle>
                                                <path d="M0.276923077,4.56923077 L0.443076923,1.66153846 C0.443076923,1.66153846 0.276923077,0.276923077 0.276923077,0.276923077 C0.276923077,0.276923077 0.110769231,1.66153846 0.110769231,1.66153846 L0.276923077,4.56923077 Z" id="Path"></path>
                                            </g>
                                            <g id="a-link" transform="translate(3.388030, 3.186185) rotate(15.000000) translate(-3.388030, -3.186185) translate(0.618799, 0.832338)">
                                                <g id="a">
                                                    <circle id="Oval" transform="translate(5.081617, 0.355627) rotate(7.500000) translate(-5.081617, -0.355627) " cx="5.08161741" cy="0.355626932" r="1"></circle>
                                                    <path d="M0.276923077,4.56923077 L0.443076923,1.66153846 C0.443076923,1.66153846 0.276923077,0.276923077 0.276923077,0.276923077 C0.276923077,0.276923077 0.110769231,1.66153846 0.110769231,1.66153846 L0.276923077,4.56923077 Z" id="Path"></path>
                                                </g>
                                            </g>
                                        </g>
                                    </g>
                                </g>
                                <g id="c-link" transform="translate(6.593167, 6.816745) rotate(60.000000) translate(-6.593167, -6.816745) translate(1.608551, 2.247515)">
                                    <g id="c">
                                        <g id="b" transform="translate(3.046154, 0.830769)">
                                            <g id="a" transform="translate(1.384615, 0.276923)">
                                                <circle id="Oval" transform="translate(5.081617, 0.355627) rotate(7.500000) translate(-5.081617, -0.355627) " cx="5.08161741" cy="0.355626932" r="1"></circle>
                                                <path d="M0.276923077,4.56923077 L0.443076923,1.66153846 C0.443076923,1.66153846 0.276923077,0.276923077 0.276923077,0.276923077 C0.276923077,0.276923077 0.110769231,1.66153846 0.110769231,1.66153846 L0.276923077,4.56923077 Z" id="Path"></path>
                                            </g>
                                            <g id="a-link" transform="translate(3.388030, 3.186185) rotate(15.000000) translate(-3.388030, -3.186185) translate(0.618799, 0.832338)">
                                                <g id="a">
                                                    <circle id="Oval" transform="translate(5.081617, 0.355627) rotate(7.500000) translate(-5.081617, -0.355627) " cx="5.08161741" cy="0.355626932" r="1"></circle>
                                                    <path d="M0.276923077,4.56923077 L0.443076923,1.66153846 C0.443076923,1.66153846 0.276923077,0.276923077 0.276923077,0.276923077 C0.276923077,0.276923077 0.110769231,1.66153846 0.110769231,1.66153846 L0.276923077,4.56923077 Z" id="Path"></path>
                                                </g>
                                            </g>
                                        </g>
                                        <g id="b-link" transform="translate(4.674230, 4.488727) rotate(30.000000) translate(-4.674230, -4.488727) translate(1.212692, 1.304112)">
                                            <g id="b">
                                                <g id="a" transform="translate(1.384615, 0.276923)">
                                                    <circle id="Oval" transform="translate(5.081617, 0.355627) rotate(7.500000) translate(-5.081617, -0.355627) " cx="5.08161741" cy="0.355626932" r="1"></circle>
                                                    <path d="M0.276923077,4.56923077 L0.443076923,1.66153846 C0.443076923,1.66153846 0.276923077,0.276923077 0.276923077,0.276923077 C0.276923077,0.276923077 0.110769231,1.66153846 0.110769231,1.66153846 L0.276923077,4.56923077 Z" id="Path"></path>
                                                </g>
                                                <g id="a-link" transform="translate(3.388030, 3.186185) rotate(15.000000) translate(-3.388030, -3.186185) translate(0.618799, 0.832338)">
                                                    <g id="a">
                                                        <circle id="Oval" transform="translate(5.081617, 0.355627) rotate(7.500000) translate(-5.081617, -0.355627) " cx="5.08161741" cy="0.355626932" r="1"></circle>
                                                        <path d="M0.276923077,4.56923077 L0.443076923,1.66153846 C0.443076923,1.66153846 0.276923077,0.276923077 0.276923077,0.276923077 C0.276923077,0.276923077 0.110769231,1.66153846 0.110769231,1.66153846 L0.276923077,4.56923077 Z" id="Path"></path>
                                                    </g>
                                                </g>
                                            </g>
                                        </g>
                                    </g>
                                </g>
                            </g>
                            <g id="d-link" transform="translate(9.832101, 10.058344) rotate(120.000000) translate(-9.832101, -10.058344) translate(2.355178, 3.273728)" fill="#000088">
                                <g id="d">
                                    <g id="c" transform="translate(4.984615, 3.876923)">
                                        <g id="b" transform="translate(3.046154, 0.830769)">
                                            <g id="a" transform="translate(1.384615, 0.276923)">
                                                <circle id="Oval" transform="translate(5.081617, 0.355627) rotate(7.500000) translate(-5.081617, -0.355627) " cx="5.08161741" cy="0.355626932" r="1"></circle>
                                                <path d="M0.276923077,4.56923077 L0.443076923,1.66153846 C0.443076923,1.66153846 0.276923077,0.276923077 0.276923077,0.276923077 C0.276923077,0.276923077 0.110769231,1.66153846 0.110769231,1.66153846 L0.276923077,4.56923077 Z" id="Path"></path>
                                            </g>
                                            <g id="a-link" transform="translate(3.388030, 3.186185) rotate(15.000000) translate(-3.388030, -3.186185) translate(0.618799, 0.832338)">
                                                <g id="a">
                                                    <circle id="Oval" transform="translate(5.081617, 0.355627) rotate(7.500000) translate(-5.081617, -0.355627) " cx="5.08161741" cy="0.355626932" r="1"></circle>
                                                    <path d="M0.276923077,4.56923077 L0.443076923,1.66153846 C0.443076923,1.66153846 0.276923077,0.276923077 0.276923077,0.276923077 C0.276923077,0.276923077 0.110769231,1.66153846 0.110769231,1.66153846 L0.276923077,4.56923077 Z" id="Path"></path>
                                                </g>
                                            </g>
                                        </g>
                                        <g id="b-link" transform="translate(4.674230, 4.488727) rotate(30.000000) translate(-4.674230, -4.488727) translate(1.212692, 1.304112)">
                                            <g id="b">
                                                <g id="a" transform="translate(1.384615, 0.276923)">
                                                    <circle id="Oval" transform="translate(5.081617, 0.355627) rotate(7.500000) translate(-5.081617, -0.355627) " cx="5.08161741" cy="0.355626932" r="1"></circle>
                                                    <path d="M0.276923077,4.56923077 L0.443076923,1.66153846 C0.443076923,1.66153846 0.276923077,0.276923077 0.276923077,0.276923077 C0.276923077,0.276923077 0.110769231,1.66153846 0.110769231,1.66153846 L0.276923077,4.56923077 Z" id="Path"></path>
                                                </g>
                                                <g id="a-link" transform="translate(3.388030, 3.186185) rotate(15.000000) translate(-3.388030, -3.186185) translate(0.618799, 0.832338)">
                                                    <g id="a">
                                                        <circle id="Oval" transform="translate(5.081617, 0.355627) rotate(7.500000) translate(-5.081617, -0.355627) " cx="5.08161741" cy="0.355626932" r="1"></circle>
                                                        <path d="M0.276923077,4.56923077 L0.443076923,1.66153846 C0.443076923,1.66153846 0.276923077,0.276923077 0.276923077,0.276923077 C0.276923077,0.276923077 0.110769231,1.66153846 0.110769231,1.66153846 L0.276923077,4.56923077 Z" id="Path"></path>
                                                    </g>
                                                </g>
                                            </g>
                                        </g>
                                    </g>
                                    <g id="c-link" transform="translate(6.593167, 6.816745) rotate(60.000000) translate(-6.593167, -6.816745) translate(1.608551, 2.247515)">
                                        <g id="c">
                                            <g id="b" transform="translate(3.046154, 0.830769)">
                                                <g id="a" transform="translate(1.384615, 0.276923)">
                                                    <circle id="Oval" transform="translate(5.081617, 0.355627) rotate(7.500000) translate(-5.081617, -0.355627) " cx="5.08161741" cy="0.355626932" r="1"></circle>
                                                    <path d="M0.276923077,4.56923077 L0.443076923,1.66153846 C0.443076923,1.66153846 0.276923077,0.276923077 0.276923077,0.276923077 C0.276923077,0.276923077 0.110769231,1.66153846 0.110769231,1.66153846 L0.276923077,4.56923077 Z" id="Path"></path>
                                                </g>
                                                <g id="a-link" transform="translate(3.388030, 3.186185) rotate(15.000000) translate(-3.388030, -3.186185) translate(0.618799, 0.832338)">
                                                    <g id="a">
                                                        <circle id="Oval" transform="translate(5.081617, 0.355627) rotate(7.500000) translate(-5.081617, -0.355627) " cx="5.08161741" cy="0.355626932" r="1"></circle>
                                                        <path d="M0.276923077,4.56923077 L0.443076923,1.66153846 C0.443076923,1.66153846 0.276923077,0.276923077 0.276923077,0.276923077 C0.276923077,0.276923077 0.110769231,1.66153846 0.110769231,1.66153846 L0.276923077,4.56923077 Z" id="Path"></path>
                                                    </g>
                                                </g>
                                            </g>
                                            <g id="b-link" transform="translate(4.674230, 4.488727) rotate(30.000000) translate(-4.674230, -4.488727) translate(1.212692, 1.304112)">
                                                <g id="b">
                                                    <g id="a" transform="translate(1.384615, 0.276923)">
                                                        <circle id="Oval" transform="translate(5.081617, 0.355627) rotate(7.500000) translate(-5.081617, -0.355627) " cx="5.08161741" cy="0.355626932" r="1"></circle>
                                                        <path d="M0.276923077,4.56923077 L0.443076923,1.66153846 C0.443076923,1.66153846 0.276923077,0.276923077 0.276923077,0.276923077 C0.276923077,0.276923077 0.110769231,1.66153846 0.110769231,1.66153846 L0.276923077,4.56923077 Z" id="Path"></path>
                                                    </g>
                                                    <g id="a-link" transform="translate(3.388030, 3.186185) rotate(15.000000) translate(-3.388030, -3.186185) translate(0.618799, 0.832338)">
                                                        <g id="a">
                                                            <circle id="Oval" transform="translate(5.081617, 0.355627) rotate(7.500000) translate(-5.081617, -0.355627) " cx="5.08161741" cy="0.355626932" r="1"></circle>
                                                            <path d="M0.276923077,4.56923077 L0.443076923,1.66153846 C0.443076923,1.66153846 0.276923077,0.276923077 0.276923077,0.276923077 C0.276923077,0.276923077 0.110769231,1.66153846 0.110769231,1.66153846 L0.276923077,4.56923077 Z" id="Path"></path>
                                                        </g>
                                                    </g>
                                                </g>
                                            </g>
                                        </g>
                                    </g>
                                </g>
                            </g>
                            <g id="d-link" transform="translate(13.429437, 13.895502) rotate(-120.000000) translate(-13.429437, -13.895502) translate(5.952514, 7.110887)" fill="#000088">
                                <g id="d">
                                    <g id="c" transform="translate(4.984615, 3.876923)">
                                        <g id="b" transform="translate(3.046154, 0.830769)">
                                            <g id="a" transform="translate(1.384615, 0.276923)">
                                                <circle id="Oval" transform="translate(5.081617, 0.355627) rotate(7.500000) translate(-5.081617, -0.355627) " cx="5.08161741" cy="0.355626932" r="1"></circle>
                                                <path d="M0.276923077,4.56923077 L0.443076923,1.66153846 C0.443076923,1.66153846 0.276923077,0.276923077 0.276923077,0.276923077 C0.276923077,0.276923077 0.110769231,1.66153846 0.110769231,1.66153846 L0.276923077,4.56923077 Z" id="Path"></path>
                                            </g>
                                            <g id="a-link" transform="translate(3.388030, 3.186185) rotate(15.000000) translate(-3.388030, -3.186185) translate(0.618799, 0.832338)">
                                                <g id="a">
                                                    <circle id="Oval" transform="translate(5.081617, 0.355627) rotate(7.500000) translate(-5.081617, -0.355627) " cx="5.08161741" cy="0.355626932" r="1"></circle>
                                                    <path d="M0.276923077,4.56923077 L0.443076923,1.66153846 C0.443076923,1.66153846 0.276923077,0.276923077 0.276923077,0.276923077 C0.276923077,0.276923077 0.110769231,1.66153846 0.110769231,1.66153846 L0.276923077,4.56923077 Z" id="Path"></path>
                                                </g>
                                            </g>
                                        </g>
                                        <g id="b-link" transform="translate(4.674230, 4.488727) rotate(30.000000) translate(-4.674230, -4.488727) translate(1.212692, 1.304112)">
                                            <g id="b">
                                                <g id="a" transform="translate(1.384615, 0.276923)">
                                                    <circle id="Oval" transform="translate(5.081617, 0.355627) rotate(7.500000) translate(-5.081617, -0.355627) " cx="5.08161741" cy="0.355626932" r="1"></circle>
                                                    <path d="M0.276923077,4.56923077 L0.443076923,1.66153846 C0.443076923,1.66153846 0.276923077,0.276923077 0.276923077,0.276923077 C0.276923077,0.276923077 0.110769231,1.66153846 0.110769231,1.66153846 L0.276923077,4.56923077 Z" id="Path"></path>
                                                </g>
                                                <g id="a-link" transform="translate(3.388030, 3.186185) rotate(15.000000) translate(-3.388030, -3.186185) translate(0.618799, 0.832338)">
                                                    <g id="a">
                                                        <circle id="Oval" transform="translate(5.081617, 0.355627) rotate(7.500000) translate(-5.081617, -0.355627) " cx="5.08161741" cy="0.355626932" r="1"></circle>
                                                        <path d="M0.276923077,4.56923077 L0.443076923,1.66153846 C0.443076923,1.66153846 0.276923077,0.276923077 0.276923077,0.276923077 C0.276923077,0.276923077 0.110769231,1.66153846 0.110769231,1.66153846 L0.276923077,4.56923077 Z" id="Path"></path>
                                                    </g>
                                                </g>
                                            </g>
                                        </g>
                                    </g>
                                    <g id="c-link" transform="translate(6.593167, 6.816745) rotate(60.000000) translate(-6.593167, -6.816745) translate(1.608551, 2.247515)">
                                        <g id="c">
                                            <g id="b" transform="translate(3.046154, 0.830769)">
                                                <g id="a" transform="translate(1.384615, 0.276923)">
                                                    <circle id="Oval" transform="translate(5.081617, 0.355627) rotate(7.500000) translate(-5.081617, -0.355627) " cx="5.08161741" cy="0.355626932" r="1"></circle>
                                                    <path d="M0.276923077,4.56923077 L0.443076923,1.66153846 C0.443076923,1.66153846 0.276923077,0.276923077 0.276923077,0.276923077 C0.276923077,0.276923077 0.110769231,1.66153846 0.110769231,1.66153846 L0.276923077,4.56923077 Z" id="Path"></path>
                                                </g>
                                                <g id="a-link" transform="translate(3.388030, 3.186185) rotate(15.000000) translate(-3.388030, -3.186185) translate(0.618799, 0.832338)">
                                                    <g id="a">
                                                        <circle id="Oval" transform="translate(5.081617, 0.355627) rotate(7.500000) translate(-5.081617, -0.355627) " cx="5.08161741" cy="0.355626932" r="1"></circle>
                                                        <path d="M0.276923077,4.56923077 L0.443076923,1.66153846 C0.443076923,1.66153846 0.276923077,0.276923077 0.276923077,0.276923077 C0.276923077,0.276923077 0.110769231,1.66153846 0.110769231,1.66153846 L0.276923077,4.56923077 Z" id="Path"></path>
                                                    </g>
                                                </g>
                                            </g>
                                            <g id="b-link" transform="translate(4.674230, 4.488727) rotate(30.000000) translate(-4.674230, -4.488727) translate(1.212692, 1.304112)">
                                                <g id="b">
                                                    <g id="a" transform="translate(1.384615, 0.276923)">
                                                        <circle id="Oval" transform="translate(5.081617, 0.355627) rotate(7.500000) translate(-5.081617, -0.355627) " cx="5.08161741" cy="0.355626932" r="1"></circle>
                                                        <path d="M0.276923077,4.56923077 L0.443076923,1.66153846 C0.443076923,1.66153846 0.276923077,0.276923077 0.276923077,0.276923077 C0.276923077,0.276923077 0.110769231,1.66153846 0.110769231,1.66153846 L0.276923077,4.56923077 Z" id="Path"></path>
                                                    </g>
                                                    <g id="a-link" transform="translate(3.388030, 3.186185) rotate(15.000000) translate(-3.388030, -3.186185) translate(0.618799, 0.832338)">
                                                        <g id="a">
                                                            <circle id="Oval" transform="translate(5.081617, 0.355627) rotate(7.500000) translate(-5.081617, -0.355627) " cx="5.08161741" cy="0.355626932" r="1"></circle>
                                                            <path d="M0.276923077,4.56923077 L0.443076923,1.66153846 C0.443076923,1.66153846 0.276923077,0.276923077 0.276923077,0.276923077 C0.276923077,0.276923077 0.110769231,1.66153846 0.110769231,1.66153846 L0.276923077,4.56923077 Z" id="Path"></path>
                                                        </g>
                                                    </g>
                                                </g>
                                            </g>
                                        </g>
                                    </g>
                                </g>
                            </g>
                        </g>
                    </g>
                </g>
            </g>
        </g>
    </g>
</svg>