<?xml version="1.0" encoding="utf-8"?>
<!-- Generator: Adobe Illustrator 22.0.0, SVG Export Plug-In . SVG Version: 6.00 Build 0)  -->
<svg version="1.1" id="Capa_1" xmlns="http://www.w3.org/2000/svg" xmlns:xlink="http://www.w3.org/1999/xlink" x="0px" y="0px"
	 viewBox="0 0 512 512" style="enable-background:new 0 0 512 512;" xml:space="preserve">
<style type="text/css">
	.st0{fill:#999999;}
</style>
<g>
	<g>
		<path class="st0" d="M404.5,61.3h-79.7C320.9,26.9,291.5,0,256,0c-35.5,0-64.8,26.9-68.8,61.3h-79.7C75.2,61.3,49,87.6,49,119.8v3
			c0,24.6,15.3,45.7,37,54.3v276.3c0,32.3,26.2,58.5,58.5,58.5h223.1c32.3,0,58.5-26.2,58.5-58.5V177.2c21.6-8.6,37-29.7,37-54.3v-3
			C463,87.6,436.8,61.3,404.5,61.3z M256,27.7c20.2,0,37.1,14.5,40.8,33.6h-81.6C218.9,42.2,235.8,27.7,256,27.7z M398.3,453.5
			c0,17-13.8,30.8-30.7,30.8H144.4c-17,0-30.7-13.8-30.7-30.8V181.3h284.6V453.5z M435.3,122.8c0,17-13.8,30.8-30.7,30.8H107.5
			c-17,0-30.7-13.8-30.7-30.8v-3c0-17,13.8-30.8,30.7-30.8h297.1c17,0,30.7,13.8,30.7,30.8L435.3,122.8L435.3,122.8z"/>
		<path class="st0" d="M181.6,448.8c7.7,0,13.9-6.2,13.9-13.9V278.7c0-7.7-6.2-13.9-13.9-13.9c-7.7,0-13.9,6.2-13.9,13.9v156.2
			C167.8,442.6,174,448.8,181.6,448.8z"/>
		<path class="st0" d="M256,448.8c7.7,0,13.9-6.2,13.9-13.9V278.7c0-7.7-6.2-13.9-13.9-13.9c-7.7,0-13.9,6.2-13.9,13.9v156.2
			C242.1,442.6,248.3,448.8,256,448.8z"/>
		<path class="st0" d="M330.4,448.8c7.7,0,13.9-6.2,13.9-13.9V278.7c0-7.7-6.2-13.9-13.9-13.9c-7.7,0-13.9,6.2-13.9,13.9v156.2
			C316.5,442.6,322.7,448.8,330.4,448.8z"/>
	</g>
</g>
</svg>
