<?xml version="1.0" encoding="utf-8"?>
<!-- Generator: Adobe Illustrator 22.0.0, SVG Export Plug-In . SVG Version: 6.00 Build 0)  -->
<svg version="1.1" id="Layer_1" xmlns="http://www.w3.org/2000/svg" xmlns:xlink="http://www.w3.org/1999/xlink" x="0px" y="0px"
	 viewBox="0 0 496.2 496.2" style="enable-background:new 0 0 496.2 496.2;" xml:space="preserve">
<style type="text/css">
	.st0{fill:#629C49;}
	.st1{fill:#FFFFFF;}
</style>
<path class="st0" d="M496.2,248.1C496.2,111.1,385.1,0,248.1,0C111.1,0,0,111.1,0,248.1c0,137,111.1,248.1,248.1,248.1
	C385.1,496.2,496.2,385.1,496.2,248.1z"/>
<path class="st1" d="M384.7,165c-5.8-15.1-17.7-12.7-30.6-10.1c-7.7,1.6-42,11.6-96.1,68.8c-22.5,23.7-37.3,42.6-47.1,57
	c-6-7.3-12.8-15.2-20-22.3c-22.1-22.1-46.7-37.2-47.7-37.9c-10.3-6.3-23.8-3.1-30.2,7.3c-6.3,10.3-3.1,23.8,7.2,30.2
	c0.2,0.1,21.4,13.2,39.6,31.5c18.6,18.6,35.5,43.8,35.7,44.1c4.1,6.2,11,9.8,18.3,9.8c1.2,0,2.5-0.1,3.8-0.3
	c8.6-1.5,15.4-7.9,17.5-16.3c0.1-0.2,8.8-24.3,54.7-72.7c37-39.1,61.7-51.5,70.3-54.9c0.1,0,0.1,0,0.3,0c0,0,0.3-0.1,0.8-0.4
	c1.5-0.6,2.3-0.8,2.3-0.8c-0.4,0.1-0.6,0.1-0.6,0.1l0-0.1c4-1.7,11.4-4.9,11.5-5C385.4,188.2,389,176.2,384.7,165z"/>
</svg>
