<?xml version="1.0" encoding="UTF-8"?>
<svg width="66px" height="435px" viewBox="0 0 66 435" version="1.1" xmlns="http://www.w3.org/2000/svg" xmlns:xlink="http://www.w3.org/1999/xlink">
    <!-- Generator: Sketch 54.1 (76490) - https://sketchapp.com -->
    <title>Artboard</title>
    <desc>Created with Sketch.</desc>
    <defs>
        <polygon id="path-1" points="0.000214285714 0.0508303922 5.83594286 0.0508303922 5.83594286 10.9703597 0.000214285714 10.9703597"></polygon>
        <polygon id="path-3" points="0.000214285714 0.0508303922 5.83594286 0.0508303922 5.83594286 10.9703597 0.000214285714 10.9703597"></polygon>
    </defs>
    <g id="Artboard" stroke="none" stroke-width="1" fill="none" fill-rule="evenodd">
        <g id="Group-36" transform="translate(18.000000, 30.000000)">
            <g id="header-sprite" fill-rule="nonzero">
                <g id="ht" transform="translate(6.000000, 0.000000)">
                    <path d="M7.17942857,14.4039511 L7.17942857,8.56656038 C7.17942857,7.40919027 6.64971429,6.83303223 5.59542857,6.83303223 C5.05542857,6.83303223 4.60285714,6.98970679 4.23771429,7.29800188 C3.87257143,7.61135099 3.68228571,8.04599653 3.672,8.6019385 C3.672,8.72828895 3.672,8.90517957 3.672,9.13261038 C3.672,9.36509521 3.672,9.62790414 3.672,9.9260912 C3.672,10.2242783 3.672,10.5376274 3.672,10.8661386 C3.672,11.1946497 3.672,11.5282149 3.672,11.866834 L3.672,14.4039511 L0.0205714286,14.4039511 L0.0205714286,0.0404321433 L3.66685714,0.0404321433 L3.66685714,5.54425766 C4.032,5.14499024 4.48971429,4.83669515 5.03485714,4.60926434 C5.58,4.38688756 6.23828571,4.27569916 7.00971429,4.27569916 C8.36228571,4.27569916 9.33942857,4.58904827 9.936,5.2157465 C10.5325714,5.84244472 10.8308571,6.81787018 10.8308571,8.13696885 L10.8308571,14.4039511 L7.17942857,14.4039511 Z" id="Path" fill="#000000"></path>
                    <path d="M16.2154286,6.97959875 L16.2154286,10.8408684 C16.2154286,11.1744336 16.2668571,11.4271346 16.3748571,11.5989712 C16.4828571,11.7657537 16.6731429,11.851672 16.956,11.851672 L17.8868571,11.851672 L17.8868571,14.4039511 C17.784,14.4140591 17.6348571,14.4292212 17.4394286,14.4393292 C17.244,14.4494373 17.0382857,14.4645993 16.8222857,14.4747073 C16.6062857,14.4848153 16.3954286,14.4949234 16.1845714,14.5050314 C15.9788571,14.5100855 15.8091429,14.5151395 15.6857143,14.5151395 C14.5645714,14.5151395 13.7674286,14.2523305 13.2891429,13.7216586 C12.8108571,13.1909868 12.5691429,12.3368577 12.5691429,11.1542175 L12.5691429,6.97454473 L11.0314286,6.97454473 L11.0314286,4.40204961 L12.5691429,4.40204961 L12.5691429,2.19849779 L16.2154286,1.13715403 L16.2154286,4.40204961 L17.9794286,4.40204961 L17.9794286,6.97454473 L16.2154286,6.97454473 L16.2154286,6.97959875 Z" id="Path" fill="#0097CE"></path>
                </g>
                <path d="M15.4998776,64.6914294 L15.4998776,64.6914294 C15.3999665,64.6914294 15.3041242,64.6518502 15.2334481,64.5816871 L11.1104221,60.4793977 C10.9631926,60.3329248 10.9631926,60.0955999 11.1104221,59.9494269 C11.2576515,59.802954 11.4960516,59.802954 11.6431303,59.9494269 L15.4998776,63.7868058 L19.3569262,59.9497267 C19.5041556,59.8032539 19.7425557,59.8032539 19.8896345,59.9497267 C20.0367132,60.0961996 20.0368639,60.3333746 19.8896345,60.4796975 L15.766307,64.5815372 C15.6956309,64.6518502 15.5997886,64.6914294 15.4998776,64.6914294 Z" id="Path" fill="#000000"></path>
                <path d="M15.4998776,115.555065 L15.4998776,115.555065 C15.3999665,115.555065 15.3041242,115.515486 15.2334481,115.445322 L11.1104221,111.343033 C10.9631926,111.19656 10.9631926,110.959235 11.1104221,110.813062 C11.2576515,110.666589 11.4960516,110.666589 11.6431303,110.813062 L15.4998776,114.650441 L19.3569262,110.813362 C19.5041556,110.666889 19.7425557,110.666889 19.8896345,110.813362 C20.0367132,110.959834 20.0368639,111.197009 19.8896345,111.343333 L15.766307,115.445172 C15.6956309,115.515486 15.5997886,115.555065 15.4998776,115.555065 Z" id="Path" fill="#000000" transform="translate(15.500000, 113.129136) scale(-1, 1) rotate(-180.000000) translate(-15.500000, -113.129136) "></path>
                <g id="Group" transform="translate(0.000000, 209.438503)" fill="#000000">
                    <ellipse id="Oval" cx="2.73707865" cy="3.27573717" rx="2.73707865" ry="2.62647203"></ellipse>
                    <ellipse id="Oval" transform="translate(14.850104, 3.273386) rotate(-9.220000) translate(-14.850104, -3.273386) " cx="14.8501036" cy="3.27338639" rx="2.73428254" ry="2.62935673"></ellipse>
                    <ellipse id="Oval" cx="26.9595506" cy="3.27573717" rx="2.73707865" ry="2.62647203"></ellipse>
                </g>
                <path d="M23.7479021,178.000823 L18.9024776,173.168354 C21.2381709,170.170139 20.8338769,165.877461 17.9792204,163.365474 C15.1245639,160.853486 10.8035385,160.988066 8.111604,163.672803 C5.4196694,166.35754 5.2847294,170.667012 7.8034513,173.514035 C10.3221731,176.361059 14.6263589,176.764272 17.6326124,174.434824 L22.478037,179.267293 C22.8304191,179.606725 23.390548,179.601871 23.7369624,179.256382 C24.0833768,178.910894 24.0882441,178.352263 23.7479021,178.000823 Z M7.8458499,168.781747 C7.8458499,165.813776 10.2583166,163.407759 13.2342451,163.407759 C16.2101735,163.407759 18.6226402,165.813776 18.6226402,168.781747 C18.6226402,171.749719 16.2101735,174.155735 13.2342451,174.155735 C10.2596707,174.152477 7.8491165,171.748368 7.8458499,168.781747 Z" id="Shape" fill="#000000"></path>
                <g id="cancel" transform="translate(6.000000, 267.283422)" fill="#000000">
                    <path d="M11.5363636,9.22073408 C11.3727273,9.05753524 11.3727273,8.812737 11.5363636,8.64953816 L17.6727273,2.52958192 C17.8363636,2.36638308 17.9181818,2.12158483 17.9181818,1.958386 C17.9181818,1.79518717 17.8363636,1.55038891 17.6727273,1.38719008 L16.5272727,0.244798249 C16.3636364,0.0815994166 16.1181818,0 15.9545455,0 C15.7090909,0 15.5454545,0.0815994166 15.3818182,0.244798249 L9.24545455,6.3647545 C9.08181818,6.52795333 8.83636364,6.52795333 8.67272727,6.3647545 L2.53636364,0.244798249 C2.37272727,0.0815994166 2.12727273,0 1.96363636,0 C1.8,0 1.55454545,0.0815994166 1.39090909,0.244798249 L0.245454545,1.38719008 C0.0818181818,1.55038891 0,1.79518717 0,1.958386 C0,2.12158483 0.0818181818,2.36638308 0.245454545,2.52958192 L6.38181818,8.64953816 C6.54545455,8.812737 6.54545455,9.05753524 6.38181818,9.22073408 L0.245454545,15.3406903 C0.0818181818,15.5038891 0,15.7486874 0,15.9118863 C0,16.0750851 0.0818181818,16.3198834 0.245454545,16.4830821 L1.39090909,17.625474 C1.55454545,17.7886728 1.8,17.8702722 1.96363636,17.8702722 C2.12727273,17.8702722 2.37272727,17.7886728 2.53636364,17.625474 L8.67272727,11.5055177 C8.83636364,11.3423189 9.08181818,11.3423189 9.24545455,11.5055177 L15.3818182,17.625474 C15.5454545,17.7886728 15.7909091,17.8702722 15.9545455,17.8702722 C16.1181818,17.8702722 16.3636364,17.7886728 16.5272727,17.625474 L17.6727273,16.4830821 C17.8363636,16.3198834 17.9181818,16.0750851 17.9181818,15.9118863 C17.9181818,15.7486874 17.8363636,15.5038891 17.6727273,15.3406903 L11.5363636,9.22073408 Z" id="Path"></path>
                </g>
            </g>
            <g id="arrow-point-to-right" transform="translate(13.500000, 330.114973) rotate(90.000000) translate(-13.500000, -330.114973) translate(10.500000, 324.629679)">
                <mask id="mask-2" fill="white">
                    <use xlink:href="#path-1"></use>
                </mask>
                <g id="Clip-2"></g>
                <path d="M5.62628571,6.05101078 L1.22417143,10.7464225 C0.943542857,11.0450054 0.489428571,11.0450054 0.209657143,10.7464225 C-0.0696,10.4478397 -0.0696,9.96348824 0.209657143,9.66508824 L4.10485714,5.51034363 L0.210342857,1.35633039 C-0.0696,1.05774755 -0.0696,0.573578922 0.210342857,0.274996078 C0.490114286,-0.0243181373 0.944228571,-0.0243181373 1.22417143,0.274996078 L5.62628571,4.97040784 C5.76634286,5.11960784 5.83594286,5.31470147 5.83594286,5.51034363 C5.83594286,5.70598578 5.76634286,5.90254216 5.62628571,6.05101078 Z" id="Fill-1" fill="#000000" mask="url(#mask-2)"></path>
            </g>
            <g id="arrow-point-to-right-copy-2" transform="translate(13.500000, 370.008021) scale(1, -1) rotate(90.000000) translate(-13.500000, -370.008021) translate(10.500000, 364.522727)">
                <mask id="mask-4" fill="white">
                    <use xlink:href="#path-3"></use>
                </mask>
                <g id="Clip-2"></g>
                <path d="M5.62628571,6.05101078 L1.22417143,10.7464225 C0.943542857,11.0450054 0.489428571,11.0450054 0.209657143,10.7464225 C-0.0696,10.4478397 -0.0696,9.96348824 0.209657143,9.66508824 L4.10485714,5.51034363 L0.210342857,1.35633039 C-0.0696,1.05774755 -0.0696,0.573578922 0.210342857,0.274996078 C0.490114286,-0.0243181373 0.944228571,-0.0243181373 1.22417143,0.274996078 L5.62628571,4.97040784 C5.76634286,5.11960784 5.83594286,5.31470147 5.83594286,5.51034363 C5.83594286,5.70598578 5.76634286,5.90254216 5.62628571,6.05101078 Z" id="Fill-1" fill="#000000" mask="url(#mask-4)"></path>
            </g>
        </g>
    </g>
</svg>