<svg width="24" height="24" viewBox="0 0 24 24" fill="none" xmlns="http://www.w3.org/2000/svg">
<path d="M10.343 3C8.464 3 6.585 3.717 5.151 5.151C2.283 8.019 2.283 12.668 5.151 15.536C6.585 16.97 8.464 17.687 10.343 17.687C11.907 17.687 13.467 17.183 14.775 16.19L19.294 20.709C19.489 20.904 19.745 21.002 20.001 21.002C20.257 21.002 20.513 20.904 20.708 20.709L20.709 20.708C21.099 20.318 21.099 19.685 20.709 19.295L16.19 14.776C18.377 11.898 18.164 7.779 15.537 5.152C14.102 3.717 12.222 3 10.343 3ZM10.343 15.686C8.916 15.686 7.574 15.13 6.565 14.121C4.482 12.038 4.482 8.648 6.565 6.565C7.574 5.556 8.916 5 10.343 5C11.77 5 13.112 5.556 14.121 6.565C16.204 8.648 16.204 12.038 14.121 14.121C13.112 15.13 11.77 15.686 10.343 15.686Z" fill="#24232F"/>
</svg>
