<svg id="ed9faf2e-8c09-4a6b-9fb4-1bd987dbb1bd" data-name="Layer 1" xmlns="http://www.w3.org/2000/svg" width="112.37" height="142.06" viewBox="0 0 112.37 142.06">
  <defs>
    <style>
      .a3fa12a5-c32b-4b77-987b-00be3251acc7 {
        fill: #e31e24;
      }

      .a3fa12a5-c32b-4b77-987b-00be3251acc7, .bfe1492f-6c83-4505-a3c7-9bb4ba49cbd7 {
        fill-rule: evenodd;
      }

      .bfe1492f-6c83-4505-a3c7-9bb4ba49cbd7, .ef75024c-4f8e-45f2-9957-414c85fd2332 {
        fill: #fff;
      }
    </style>
  </defs>
  <title>Indian Express Group Logo white 2 for ie footer</title>
  <path class="a3fa12a5-c32b-4b77-987b-00be3251acc7" d="M20,9.25a6.24,6.24,0,0,0,.78,8.58L38.56,33.77c2.33,2,.79,5.4.79,5.4l.37.32,3.71-4.63A6,6,0,0,0,44.8,31V31a6.27,6.27,0,0,0-2.13-4.69L24.88,10.34c-2.33-2-.79-5.4-.79-5.4l-.37-.32Z" transform="translate(-2.25 -4.62)"/>
  <path class="a3fa12a5-c32b-4b77-987b-00be3251acc7" d="M11.81,19.46A6.23,6.23,0,0,0,12.58,28L30.36,44c2.33,2,.8,5.4.8,5.4l.36.32,3.72-4.63a6.24,6.24,0,0,0-.77-8.58L16.69,20.55c-2.33-2-.8-5.39-.8-5.39l-.36-.33Z" transform="translate(-2.25 -4.62)"/>
  <path class="a3fa12a5-c32b-4b77-987b-00be3251acc7" d="M3.61,29.68a6,6,0,0,0-1.36,3.8v.1a6.25,6.25,0,0,0,2.13,4.68L22.16,54.2c2.34,2,.8,5.4.8,5.4l.37.32L27,55.29a6.22,6.22,0,0,0-.77-8.57L8.49,30.77c-2.33-2-.79-5.4-.79-5.4l-.37-.32L3.61,29.68Z" transform="translate(-2.25 -4.62)"/>
  <g>
    <path class="bfe1492f-6c83-4505-a3c7-9bb4ba49cbd7" d="M22.49,124.64c0-2.08-9-3.8-10-3.82a2.38,2.38,0,0,0-2.65,2.46c0,2.73,9.73,3.75,10,3.75A2.41,2.41,0,0,0,22.49,124.64Z" transform="translate(-2.25 -4.62)"/>
    <polygon class="bfe1492f-6c83-4505-a3c7-9bb4ba49cbd7" points="10.22 116.21 10.22 116.21 10.22 116.21 10.22 116.21"/>
    <path class="bfe1492f-6c83-4505-a3c7-9bb4ba49cbd7" d="M30.25,107.12c0-6.87,5.68-23.73,5.68-24.83h0c0-1.11-3.18-.17-8.33-7.82-5.06-7.38-3.72-6.84-4.79-9.38,0,8.82-12.2,17.49-12.22,17.52,0,2,6.21,18.42,6.21,24.51ZM22.49,70.46V82.61c-1.8.15-2.07,1.34-2.07,2.65A2.67,2.67,0,0,0,23,88a2.88,2.88,0,0,0,2.71-3,2.46,2.46,0,0,0-2.07-2.39v-12h0s4,8.76,10.93,12.28c-4.42,6.61-1.13,21.53-11,21.53C15.46,104.4,16.26,95,12,83.13,17.29,80.45,21.68,72.83,22.49,70.46Z" transform="translate(-2.25 -4.62)"/>
    <path class="bfe1492f-6c83-4505-a3c7-9bb4ba49cbd7" d="M10.6,116.55c0,3,8.9,3.75,8.92,3.75,1.54,0,2.67-.83,2.64-2.13,0-3-8.85-3.8-8.85-3.81A2.55,2.55,0,0,0,10.6,116.55Z" transform="translate(-2.25 -4.62)"/>
    <path class="bfe1492f-6c83-4505-a3c7-9bb4ba49cbd7" d="M22.75,131.62c0-2.57-8.85-3.51-9.19-3.49-1.5,0-2.68.19-2.71,2.13,0,3,8.65,3.51,8.67,3.5C21.11,133.77,22.73,133.49,22.75,131.62Z" transform="translate(-2.25 -4.62)"/>
    <polygon class="bfe1492f-6c83-4505-a3c7-9bb4ba49cbd7" points="11.06 109.74 11.06 109.74 11.06 109.74 11.06 109.74"/>
    <rect class="ef75024c-4f8e-45f2-9957-414c85fd2332" x="13.2" y="105.15" width="16.42" height="2.2"/>
    <path class="bfe1492f-6c83-4505-a3c7-9bb4ba49cbd7" d="M19.77,140.47c1.32,0,3-.34,3-2.12,0-2.72-7.29-3.24-7.3-3.24a2.3,2.3,0,0,0-2.39,2.13C13,140.29,19.76,140.5,19.77,140.47Z" transform="translate(-2.25 -4.62)"/>
    <path class="bfe1492f-6c83-4505-a3c7-9bb4ba49cbd7" d="M24.37,114.36h0v1.36c1.58,3.31,4,1.88,6.47,3.48a13.74,13.74,0,0,0-2.2,4.85v3c0,2.48,1.56,1.53,1.1,6.46-.62,6.77.68-.42,0,7h3.75c.51-3.74,4.88-12.12,4.84-20.17,0-1.62-1.66-2.64-4.26-5.94Z" transform="translate(-2.25 -4.62)"/>
    <path class="bfe1492f-6c83-4505-a3c7-9bb4ba49cbd7" d="M33,142.93H16.29c-.7,1.16-1.86,3.07-2.21,3.75H35.93C34.55,143.73,33.58,143,33,142.93Z" transform="translate(-2.25 -4.62)"/>
    <path class="bfe1492f-6c83-4505-a3c7-9bb4ba49cbd7" d="M103.37,122.24H98v.4h1.6v9.62H98v.39h5.38v-.39H101.7v-4.38h1.45c3.08,0,4.56-.87,4.56-2.79S106.26,122.24,103.37,122.24Zm-.72,5.27h-1v-4.87H103c1.66,0,2.35.42,2.35,2.34S104.69,127.51,102.65,127.51Z" transform="translate(-2.25 -4.62)"/>
    <path class="bfe1492f-6c83-4505-a3c7-9bb4ba49cbd7" d="M84,109.05l.05,1c.08,1.74.78,2.41,3,2.41a3.8,3.8,0,0,0,.88-.14v-.44a1.83,1.83,0,0,1-.49.09c-.88,0-1.12-.36-1.12-1.23v-.68c0-2-.88-2.87-3-3.23v-.13c2.25-.34,3.31-1.09,3.31-2.44,0-1.76-1.28-2.4-3.94-2.4H77.3v.41h1.6v9.61H77.3v.39h5.29v-.39H81v-5C83.37,106.89,83.88,107.37,84,109.05Zm-3-6.79h1.23c1.58,0,2.17.39,2.17,2.12,0,1.56-.73,2.1-2.53,2.1H81Z" transform="translate(-2.25 -4.62)"/>
    <path class="bfe1492f-6c83-4505-a3c7-9bb4ba49cbd7" d="M94.06,111.88h-2V107h.11c1.63,0,2.2.36,2.37,1.94H95v-4.18h-.37c-.17,1.52-.74,1.91-2.29,1.91h-.2v-4.4h2.05c1.71,0,2.36.46,2.9,2.39h.38l-.12-2.8h-8.9v.4H90v9.62H88.41v.39h9.23l.1-3.44h-.38C97,111.06,96.17,111.88,94.06,111.88Z" transform="translate(-2.25 -4.62)"/>
    <path class="bfe1492f-6c83-4505-a3c7-9bb4ba49cbd7" d="M111.83,105.7l-1.16-.31c-1.22-.31-1.91-.63-1.91-1.58A1.91,1.91,0,0,1,110.9,102c1.36,0,2.34.88,2.8,2.64h.37v-2.94h-.25l-.63.64a3.45,3.45,0,0,0-2.29-.75,2.76,2.76,0,0,0-3,2.93c0,1.7.89,2.62,2.82,3.13l1,.29c1.35.36,1.94.92,1.94,1.87a2.27,2.27,0,0,1-2.51,2.24c-1.44,0-2.42-.94-2.88-2.8h-.45v3.11h.33l.61-.66a4,4,0,0,0,2.45.81,3.28,3.28,0,0,0,3.33-3.54C114.62,107.14,113.69,106.19,111.83,105.7Z" transform="translate(-2.25 -4.62)"/>
    <path class="bfe1492f-6c83-4505-a3c7-9bb4ba49cbd7" d="M100.34,111.73a4,4,0,0,0,2.45.81,3.28,3.28,0,0,0,3.33-3.54c0-1.86-.93-2.81-2.8-3.3l-1.15-.31c-1.23-.31-1.92-.63-1.92-1.58a1.91,1.91,0,0,1,2.14-1.78c1.36,0,2.34.88,2.8,2.64h.37v-2.94h-.24l-.64.64a3.45,3.45,0,0,0-2.29-.75,2.76,2.76,0,0,0-3,2.93c0,1.7.9,2.62,2.82,3.13l1,.29c1.35.36,1.94.92,1.94,1.87a2.27,2.27,0,0,1-2.51,2.24c-1.44,0-2.42-.94-2.88-2.8h-.45v3.11h.33Z" transform="translate(-2.25 -4.62)"/>
    <path class="bfe1492f-6c83-4505-a3c7-9bb4ba49cbd7" d="M72.13,107.5c3.07,0,4.56-.87,4.56-2.79s-1.45-2.85-4.34-2.85H67v.4h1.6v9.62H67v.39h5.39v-.39H70.68V107.5Zm-1.45-5.24H72c1.66,0,2.35.42,2.35,2.34s-.7,2.53-2.74,2.53h-.95Z" transform="translate(-2.25 -4.62)"/>
    <polygon class="bfe1492f-6c83-4505-a3c7-9bb4ba49cbd7" points="105.98 107.78 105.97 107.78 105.97 107.78 105.98 107.78"/>
    <path class="bfe1492f-6c83-4505-a3c7-9bb4ba49cbd7" d="M57.79,128.37h2v1.25c0,2-.71,2.85-2.53,2.85-2.39,0-3.31-1.42-3.31-4.71h0v-3.22c0-3.3.91-4.71,3.34-4.71,2.15,0,3.49,1.15,4.06,3.48h.54v-3.73h-.41l-.78.74a5.24,5.24,0,0,0-3.32-1c-3.78,0-6.37,2.91-6.37,6.82S53.63,133,57.41,133c3.2,0,5.26-1.76,5.34-4.61h1.33v-.49H57.79Z" transform="translate(-2.25 -4.62)"/>
    <path class="bfe1492f-6c83-4505-a3c7-9bb4ba49cbd7" d="M94.05,122.63h1.59v7c0,1.84-1,2.77-3,2.77s-2.35-.95-2.35-2.67v-.24h0v-6.84H91.9v-.39H86.61v.39h1.58v7.21c0,2,1.38,3.06,4.07,3.06s3.84-1.08,3.84-3.29v-7h1.58v-.39H94.05Z" transform="translate(-2.25 -4.62)"/>
    <path class="bfe1492f-6c83-4505-a3c7-9bb4ba49cbd7" d="M73.37,131.11v-.67c0-2-.88-2.88-3-3.23v-.13c2.25-.34,3.31-1.09,3.31-2.44,0-1.76-1.27-2.4-3.93-2.4H64.39v.4H66v9.62h-1.6v.39h5.29v-.39H68.09v-5c2.38,0,2.88.53,3,2.21l0,1c.08,1.73.78,2.41,3,2.41a3.88,3.88,0,0,0,.89-.14v-.45a1.62,1.62,0,0,1-.49.1C73.61,132.35,73.37,132,73.37,131.11Zm-5.27-4.25h0v-4.22h1.23c1.58,0,2.17.39,2.17,2.12,0,1.56-.73,2.1-2.53,2.1Z" transform="translate(-2.25 -4.62)"/>
    <path class="bfe1492f-6c83-4505-a3c7-9bb4ba49cbd7" d="M54.42,108H54c-.43,2.79-1.49,3.81-4.12,3.81H47.38v-6.1h.14c2,0,2.76.45,3,2.43H51v-5.23h-.47c-.2,1.91-.92,2.39-2.86,2.39h-.24V99.76h2.55c2.14,0,3,.59,3.63,3H54l-.14-3.5H42.77v.5h2v12h-2v.49H54.3Z" transform="translate(-2.25 -4.62)"/>
    <path class="bfe1492f-6c83-4505-a3c7-9bb4ba49cbd7" d="M80.93,122c-2.84,0-5,2.3-5,5.46s2.14,5.44,5,5.44,5-2.3,5-5.44S83.77,122,80.93,122Zm2.65,6.74c0,2.63-.74,3.77-2.67,3.77s-2.66-1.14-2.66-3.77v-2.58c0-2.63.74-3.77,2.66-3.77s2.67,1.14,2.67,3.77Z" transform="translate(-2.25 -4.62)"/>
    <polygon class="bfe1492f-6c83-4505-a3c7-9bb4ba49cbd7" points="59.15 107.65 59.15 107.65 64.38 107.65 64.38 107.26 63.2 107.26 59.43 101.53 62.19 97.65 63.83 97.65 63.83 97.24 59.91 97.24 59.91 97.65 61.67 97.65 59.15 101.16 56.9 97.65 58.47 97.65 58.47 97.24 53.38 97.24 53.38 97.65 54.53 97.65 57.95 102.89 54.84 107.26 53.32 107.26 53.32 107.65 57.27 107.65 57.27 107.26 55.36 107.26 58.2 103.26 60.82 107.26 59.15 107.26 59.15 107.65"/>
    <path class="bfe1492f-6c83-4505-a3c7-9bb4ba49cbd7" d="M79.1,86.75c0-3.32-1.95-5.26-5.57-5.26h-5v.24h1.16v10H68.57V92h5C77.13,92,79.1,90.05,79.1,86.75Zm-7,5v-10h1.25c2.64,0,3.27,1.43,3.27,5s-.63,5-3.27,5Z" transform="translate(-2.25 -4.62)"/>
    <polygon class="bfe1492f-6c83-4505-a3c7-9bb4ba49cbd7" points="82.34 87.14 81.11 87.14 81.11 77.11 82.34 77.11 82.34 76.88 77.54 76.88 77.54 77.11 78.78 77.11 78.78 87.14 77.54 87.14 77.54 87.37 82.34 87.37 82.34 87.14"/>
    <polygon class="bfe1492f-6c83-4505-a3c7-9bb4ba49cbd7" points="55.19 87.08 53.66 87.08 53.66 74.61 55.19 74.61 55.19 74.32 49.22 74.32 49.22 74.61 50.76 74.61 50.76 87.08 49.22 87.08 49.22 87.38 55.19 87.38 55.19 87.08"/>
    <path class="bfe1492f-6c83-4505-a3c7-9bb4ba49cbd7" d="M60.73,91.75c-1.23,0-1.3-.44-1.3-1.55V83L66.22,92H67V83.29c0-1.1.07-1.53,1.3-1.56v-.24h-3v.24c1.26,0,1.31.49,1.31,1.56v5.57L61,81.49H57.84v.24h.53l.71.87v7.6c0,1.1-.06,1.52-1.31,1.55V92h3Z" transform="translate(-2.25 -4.62)"/>
    <path class="bfe1492f-6c83-4505-a3c7-9bb4ba49cbd7" d="M87.75,91.76c-.73-.1-1-.23-1-.59a2.35,2.35,0,0,1,.18-.82l.64-1.73h2.88l1.12,3.13H90.33V92H95v-.24H94L90,81.24h-.2l-3.16,8.93c-.4,1.11-.71,1.54-1.69,1.59V92h2.79ZM89,84.56l1.35,3.83H87.62Z" transform="translate(-2.25 -4.62)"/>
    <path class="bfe1492f-6c83-4505-a3c7-9bb4ba49cbd7" d="M98.35,91.75c-1.23,0-1.31-.44-1.31-1.56V83l6.8,8.94h.77V83.28c0-1.1.08-1.52,1.31-1.55v-.24h-3v.24c1.26,0,1.31.48,1.31,1.55v5.58l-5.68-7.37H95.46v.23H96l.71.87v7.6c0,1.1-.06,1.53-1.31,1.56V92h3Z" transform="translate(-2.25 -4.62)"/>
  </g>
</svg>
