<?xml version="1.0" encoding="utf-8"?>
<!-- Generator: Adobe Illustrator 23.0.2, SVG Export Plug-In . SVG Version: 6.00 Build 0)  -->
<svg version="1.1" xmlns="http://www.w3.org/2000/svg" xmlns:xlink="http://www.w3.org/1999/xlink" x="0px" y="0px"
	 viewBox="0 0 150 150" style="enable-background:new 0 0 150 150;" xml:space="preserve">
<style type="text/css">
	.st0{clip-path:url(#SVGID_2_);}
	.st1{fill:#25D366;}
	.st2{fill-rule:evenodd;clip-rule:evenodd;fill:#FFFFFF;}
	.st3{fill:#0077FB;}
	.st4{fill:#FFFFFF;}
	.st5{fill:#1DA1F2;}
	.st6{fill:#FF4500;}
</style>
<g id="background_1_">
</g>
<g id="WhatsApp_Logo">
	<g>
		<defs>
			<circle id="SVGID_1_" cx="75" cy="75" r="74"/>
		</defs>
		<clipPath id="SVGID_2_">
			<use xlink:href="#SVGID_1_"  style="overflow:visible;"/>
		</clipPath>
		<g class="st0">
			<path id="background_2_" class="st1" d="M208.6,189.9H-58.6c-2.4,0-4.3-1.9-4.3-4.3V-35.6c0-2.4,1.9-4.3,4.3-4.3h267.1
				c2.4,0,4.3,1.9,4.3,4.3v221.2C212.8,188,210.9,189.9,208.6,189.9z"/>
			<g id="WA_Logo_3_">
				<g>
					<path class="st2" d="M108.8,41c-9-9-20.9-13.9-33.6-13.9c-26.2,0-47.5,21.3-47.5,47.5c0,8.4,2.2,16.5,6.3,23.7l-6.7,24.6
						l25.2-6.6c6.9,3.8,14.7,5.8,22.7,5.8h0c0,0,0,0,0,0c26.2,0,47.5-21.3,47.5-47.5C122.7,61.9,117.8,50,108.8,41z M75.2,114.1
						L75.2,114.1c-7.1,0-14-1.9-20.1-5.5l-1.4-0.9l-14.9,3.9l4-14.6l-0.9-1.5c-4-6.3-6-13.5-6-21c0-21.8,17.7-39.5,39.5-39.5
						c10.5,0,20.5,4.1,27.9,11.6c7.5,7.5,11.6,17.4,11.6,27.9C114.7,96.4,97,114.1,75.2,114.1z M96.9,84.5c-1.2-0.6-7-3.5-8.1-3.9
						c-1.1-0.4-1.9-0.6-2.7,0.6c-0.8,1.2-3.1,3.9-3.8,4.7c-0.7,0.8-1.4,0.9-2.6,0.3c-1.2-0.6-5-1.8-9.5-5.9c-3.5-3.1-5.9-7-6.6-8.2
						c-0.7-1.2-0.1-1.8,0.5-2.4c0.5-0.5,1.2-1.4,1.8-2.1c0.6-0.7,0.8-1.2,1.2-2c0.4-0.8,0.2-1.5-0.1-2.1c-0.3-0.6-2.7-6.4-3.7-8.8
						c-1-2.3-1.9-2-2.7-2c-0.7,0-1.5,0-2.3,0c-0.8,0-2.1,0.3-3.2,1.5c-1.1,1.2-4.2,4.1-4.2,9.9c0,5.8,4.3,11.5,4.8,12.3
						c0.6,0.8,8.4,12.8,20.3,17.9c2.8,1.2,5,2,6.8,2.5c2.8,0.9,5.4,0.8,7.5,0.5c2.3-0.3,7-2.9,8-5.6c1-2.8,1-5.1,0.7-5.6
						C98.8,85.4,98,85.1,96.9,84.5z"/>
				</g>
			</g>
		</g>
	</g>
</g>
</svg>
