<?xml version="1.0" encoding="UTF-8"?>
<!DOCTYPE svg PUBLIC "-//W3C//DTD SVG 1.1//EN" "http://www.w3.org/Graphics/SVG/1.1/DTD/svg11.dtd">
<!-- Creator: CorelDRAW 2017 -->
<svg xmlns="http://www.w3.org/2000/svg" xml:space="preserve" width="2.63374in" height="0.262736in" version="1.1" style="shape-rendering:geometricPrecision; text-rendering:geometricPrecision; image-rendering:optimizeQuality; fill-rule:evenodd; clip-rule:evenodd"
viewBox="0 0 177.04 17.66"
 xmlns:xlink="http://www.w3.org/1999/xlink">
 <defs>
  <style type="text/css">
   <![CDATA[
    .fil0 {fill:#FEFEFE}
    .fil1 {fill:#FF1204}
   ]]>
  </style>
 </defs>
 <g id="Layer_x0020_1">
  <metadata id="CorelCorpID_0Corel-Layer"/>
  <path class="fil0" d="M28.4 1.66l-12.04 0 -1.25 4.47 0.54 0c1.83,-2.94 2.48,-3.8 4.15,-3.8l1.27 0 -2.44 11.61c-0.24,1.14 -0.58,1.27 -2.19,1.45l-0.12 0.61 6.16 0 0.14 -0.61c-1.43,-0.14 -1.87,-0.25 -1.61,-1.45l2.42 -11.61 1.49 0c1.67,0 1.32,0.86 1.82,3.8l0.52 0 1.14 -4.47z"/>
  <path class="fil0" d="M35.61 14.69c-0.18,0 -0.28,-0.1 -0.28,-0.31 0,-0.16 0.08,-0.51 0.18,-0.88l1.57 -5.97c0.06,-0.31 0.12,-0.67 0.12,-0.94 0,-0.94 -0.36,-1.51 -1.37,-1.51 -1.93,0 -4.19,2.72 -5.38,5.05l2.52 -10.13 -0.3 0 -3.52 0.82 -0.08 0.33 1.29 0.63 -3.48 14.22 2.19 0 0.72 -2.92c0.89,-3.62 3.66,-6.52 4.81,-6.52 0.26,0 0.36,0.14 0.36,0.43 0,0.16 -0.04,0.41 -0.1,0.65l-1.45 5.31c-0.2,0.76 -0.28,1.27 -0.28,1.74 0,0.9 0.5,1.51 1.39,1.51 1.11,0 1.93,-0.88 3.2,-2.76l-0.34 -0.27c-0.87,1.08 -1.39,1.51 -1.77,1.51z"/>
  <path class="fil0" d="M46.51 7.16c0,-1.12 -0.79,-2.06 -2.52,-2.06 -3.26,0 -6,3.76 -6,7.33 0,2.27 1.25,3.78 3.32,3.78 1.77,0 3.14,-1.02 4.43,-2.94l-0.38 -0.31c-0.99,1.27 -1.93,1.94 -3.08,1.94 -1.31,0 -2.09,-1.04 -2.09,-2.88 0,-0.25 0.02,-0.51 0.04,-0.76 3.22,-0.65 6.28,-1.53 6.28,-4.11zm-2.86 -1.39c0.7,0 0.99,0.53 0.99,1.19 0,2 -1.45,3.13 -4.35,3.82 0.36,-2.47 1.75,-5.01 3.36,-5.01z"/>
  <path class="fil0" d="M54.48 3.72c0.24,-1.14 0.5,-1.27 1.99,-1.45l0.14 -0.61 -5.78 0 -0.12 0.61c1.31,0.16 1.65,0.25 1.39,1.45l-2.15 10.22c-0.22,1.14 -0.5,1.27 -1.99,1.45l-0.14 0.61 5.78 0 0.14 -0.61c-1.33,-0.16 -1.67,-0.25 -1.41,-1.45l2.15 -10.22z"/>
  <path class="fil0" d="M63.39 14.69c-0.18,0 -0.28,-0.1 -0.28,-0.31 0,-0.16 0.08,-0.51 0.18,-0.88l1.57 -5.97c0.06,-0.31 0.12,-0.67 0.12,-0.94 0,-0.94 -0.36,-1.51 -1.37,-1.51 -1.93,0 -4.19,2.74 -5.4,5.05l1.35 -5.05 -0.3 0 -3.5 0.88 -0.06 0.31 1.19 0.67 -2.23 9.05 2.19 0 0.72 -2.92c0.89,-3.62 3.66,-6.52 4.81,-6.52 0.26,0 0.36,0.14 0.36,0.43 0,0.16 -0.06,0.41 -0.12,0.65l-1.43 5.31c-0.2,0.76 -0.28,1.27 -0.28,1.74 0,0.9 0.5,1.51 1.39,1.51 1.11,0 1.93,-0.88 3.2,-2.76l-0.34 -0.27c-0.87,1.08 -1.39,1.51 -1.77,1.51z"/>
  <path class="fil0" d="M74.43 14.69c-0.18,0 -0.28,-0.1 -0.28,-0.31 0,-0.16 0.08,-0.51 0.18,-0.88l3.28 -13.51 -0.28 0 -3.54 0.82 -0.06 0.33 1.29 0.63 -0.99 3.98c-0.52,-0.49 -1.03,-0.67 -1.87,-0.67 -3.14,0 -6.38,3.86 -6.38,8.07 0,1.88 0.81,3.04 2.19,3.04 1.65,0 3.64,-2.41 4.83,-5.03 -0.36,1.08 -0.81,2.92 -0.81,3.51 0,0.92 0.46,1.51 1.35,1.51 1.11,0 1.93,-0.88 3.2,-2.76l-0.34 -0.27c-0.87,1.08 -1.39,1.51 -1.77,1.51zm-5.52 -0.06c-0.66,0 -0.91,-0.72 -0.91,-1.74 0,-3.19 1.99,-7.17 4.35,-7.17 0.66,0 1.23,0.39 1.47,1 -1.17,4.82 -3.44,7.91 -4.91,7.91z"/>
  <path class="fil0" d="M91.87 13.18c-0.89,1.08 -1.41,1.51 -1.77,1.51 -0.18,0 -0.28,-0.1 -0.28,-0.31 0,-0.16 0.08,-0.51 0.16,-0.88l1.49 -6.17 0.72 -2.39 -0.48 0 -1.65 1c-0.54,-0.55 -1.17,-0.86 -2.11,-0.86 -3.16,0 -6.28,3.86 -6.28,8.07 0,1.88 0.79,3.04 2.17,3.04 1.65,0 3.34,-2.19 4.55,-4.78 -0.38,1.06 -0.74,2.68 -0.74,3.27 0,0.92 0.48,1.51 1.37,1.51 1.09,0 1.93,-0.88 3.2,-2.76l-0.34 -0.27zm-7.09 1.45c-0.62,0 -0.91,-0.63 -0.91,-1.61 0,-3.43 1.99,-7.29 4.25,-7.29 0.66,0 1.19,0.39 1.43,1 -1.23,4.86 -3.3,7.91 -4.77,7.91z"/>
  <path class="fil0" d="M100.95 14.69c-0.18,0 -0.28,-0.1 -0.28,-0.31 0,-0.16 0.08,-0.51 0.18,-0.88l1.57 -5.97c0.06,-0.31 0.12,-0.67 0.12,-0.94 0,-0.94 -0.36,-1.51 -1.37,-1.51 -1.93,0 -4.19,2.74 -5.4,5.05l1.35 -5.05 -0.3 0 -3.5 0.88 -0.06 0.31 1.19 0.67 -2.23 9.05 2.19 0 0.72 -2.92c0.89,-3.62 3.66,-6.52 4.81,-6.52 0.26,0 0.36,0.14 0.36,0.43 0,0.16 -0.06,0.41 -0.12,0.65l-1.43 5.31c-0.2,0.76 -0.28,1.27 -0.28,1.74 0,0.9 0.5,1.51 1.39,1.51 1.11,0 1.93,-0.88 3.2,-2.76l-0.34 -0.27c-0.87,1.08 -1.39,1.51 -1.77,1.51z"/>
  <path class="fil0" d="M80.77 3.6c0.81,0 1.45,-0.67 1.45,-1.47 0,-0.72 -0.56,-1.31 -1.35,-1.31 -0.83,0 -1.45,0.65 -1.45,1.47 0,0.72 0.56,1.31 1.35,1.31z"/>
  <path class="fil0" d="M79.28 14.69c-0.18,0 -0.28,-0.1 -0.28,-0.31 0,-0.16 0.08,-0.51 0.18,-0.88l2.07 -8.42 -0.3 0 -3.48 0.88 -0.08 0.31 1.19 0.67 -1.49 6.01c-0.2,0.78 -0.26,1.27 -0.26,1.74 0,0.9 0.48,1.51 1.37,1.51 1.09,0 1.93,-0.88 3.2,-2.76l-0.34 -0.27c-0.89,1.08 -1.39,1.51 -1.77,1.51z"/>
  <path class="fil1" d="M12.84 6.92l-5.65 -5.09c-0.74,-0.65 -0.25,-1.72 -0.25,-1.72l-0.12 -0.1 -1.18 1.48c-0.66,0.82 -0.55,2.05 0.25,2.74l5.65 5.09c0.74,0.65 0.25,1.72 0.25,1.72l0.12 0.1 1.18 -1.48c0.66,-0.82 0.55,-2.05 -0.25,-2.74z"/>
  <path class="fil1" d="M10.24 10.18l-5.65 -5.09c-0.74,-0.65 -0.25,-1.72 -0.25,-1.72l-0.12 -0.1 -1.18 1.48c-0.66,0.82 -0.55,2.05 0.25,2.74l5.65 5.09c0.74,0.65 0.25,1.72 0.25,1.72l0.12 0.1 1.18 -1.48c0.66,-0.82 0.55,-2.05 -0.25,-2.74z"/>
  <path class="fil1" d="M7.63 13.44l-5.65 -5.09c-0.74,-0.65 -0.25,-1.72 -0.25,-1.72l-0.12 -0.1 -1.18 1.48c-0.66,0.82 -0.55,2.05 0.25,2.74l5.65 5.09c0.74,0.65 0.25,1.72 0.25,1.72l0.12 0.1 1.18 -1.48c0.66,-0.82 0.55,-2.05 -0.25,-2.74z"/>
  <path class="fil0" d="M105.63 16.02l8.59 0 0 -2.62 -5.25 0 0 -3.58 3.96 0 0 -2.44 -3.96 0 0 -3.14 4.97 0 0 -2.62 -8.31 0 0 14.39zm8.77 0l3.4 0 2.31 -5.27 2.33 5.27 3.76 0 -3.64 -7.51 3.22 -6.88 -3.38 0 -1.99 4.67 -2.03 -4.67 -3.74 0 3.4 6.98 -3.64 7.41zm12.16 0l3.34 0 0 -5.37 1.35 0c3.14,0 4.89,-1.35 4.89,-4.15l0 -0.6c0,-2.82 -1.61,-4.27 -4.99,-4.27l-4.59 0 0 14.39zm3.34 -7.71l0 -4.15 1.13 0c1.25,0 1.87,0.46 1.87,1.77l0 0.54c0,1.25 -0.62,1.83 -1.87,1.83l-1.13 0zm6.88 7.71l3.34 0 0 -5.66 1.01 0 2.54 5.66 3.52 0 -2.9 -6.26c1.33,-0.5 2.27,-1.49 2.27,-3.48l0 -0.52c0,-2.78 -1.75,-4.13 -5.07,-4.13l-4.71 0 0 14.39zm3.34 -7.89l0 -3.94 1.25 0c1.27,0 1.93,0.46 1.93,1.67l0 0.48c0,1.27 -0.64,1.79 -1.93,1.79l-1.25 0zm7.54 7.89l8.59 0 0 -2.62 -5.25 0 0 -3.58 3.96 0 0 -2.44 -3.96 0 0 -3.14 4.97 0 0 -2.62 -8.31 0 0 14.39zm14.1 0.22c3.1,0 4.91,-1.73 4.91,-4.41 0,-2.98 -1.79,-3.9 -4.45,-4.65 -1.69,-0.5 -2.15,-0.91 -2.15,-1.89 0,-0.87 0.52,-1.39 1.49,-1.39 0.99,0 1.59,0.46 1.67,1.71l3.14 0c-0.14,-2.86 -1.87,-4.19 -4.79,-4.19 -2.92,0 -4.71,1.65 -4.71,4.11 0,2.64 1.35,3.72 4.23,4.59 1.65,0.48 2.31,0.85 2.31,2.03 0,1.05 -0.6,1.61 -1.65,1.61 -1.41,0 -1.89,-0.68 -1.95,-2.07l-3.22 0c0.08,3.04 1.87,4.55 5.17,4.55zm10.38 0c3.1,0 4.91,-1.73 4.91,-4.41 0,-2.98 -1.79,-3.9 -4.45,-4.65 -1.69,-0.5 -2.15,-0.91 -2.15,-1.89 0,-0.87 0.52,-1.39 1.49,-1.39 0.99,0 1.59,0.46 1.67,1.71l3.14 0c-0.14,-2.86 -1.87,-4.19 -4.79,-4.19 -2.92,0 -4.71,1.65 -4.71,4.11 0,2.64 1.35,3.72 4.23,4.59 1.65,0.48 2.31,0.85 2.31,2.03 0,1.05 -0.6,1.61 -1.65,1.61 -1.41,0 -1.89,-0.68 -1.95,-2.07l-3.22 0c0.08,3.04 1.87,4.55 5.17,4.55z"/>
 </g>
</svg>
