<svg id="Layer_1" data-name="Layer 1" xmlns="http://www.w3.org/2000/svg" viewBox="0 0 58 58"><defs><style>.cls-1{fill:#ff4500;}.cls-2{fill:#fff;}</style></defs><title>Share</title><path class="cls-1" d="M29,0A29,29,0,1,0,58,29,29,29,0,0,0,29,0Z"/><path class="cls-2" d="M38.79,32a5.25,5.25,0,0,0-4.15,2.07l-10.2-3.93c0-.13,0-.26,0-.4A4.65,4.65,0,0,0,24.4,29l10.46-4.82a5.25,5.25,0,1,0-1.34-3.48,4.41,4.41,0,0,0,.08.74L23.14,26.28a5.22,5.22,0,0,0-3.93-1.8A5.28,5.28,0,1,0,23.36,33l10.2,3.93c0,.13,0,.26,0,.4A5.28,5.28,0,1,0,38.79,32Z"/></svg>