<svg id="Layer_1" data-name="Layer 1" xmlns="http://www.w3.org/2000/svg" viewBox="0 0 36.79 36.79"><defs><style>.cls-1{fill:#ff4500;}.cls-2{fill:#fff;}</style></defs><title>w_reddit</title><circle class="cls-1" cx="18.4" cy="18.4" r="18.4"/><path class="cls-2" d="M31.39,18.6a2.84,2.84,0,0,0-4.82-2A13.89,13.89,0,0,0,19,14.14l1.29-6.09,4.23.9a2,2,0,1,0,2-2.13A2,2,0,0,0,24.7,8L20,7a.47.47,0,0,0-.38.07.5.5,0,0,0-.22.32S18,14.1,18,14.14a13.94,13.94,0,0,0-7.74,2.41,2.84,2.84,0,1,0-3.13,4.64,6.11,6.11,0,0,0-.06.86C7,26.43,12.11,30,18.39,30s11.38-3.55,11.38-7.93a4.88,4.88,0,0,0-.07-.85A2.85,2.85,0,0,0,31.39,18.6Zm-19.5,2a2,2,0,1,1,2,2A2,2,0,0,1,11.89,20.63ZM23.22,26c-1.39,1.38-4,1.49-4.83,1.49S15,27.38,13.57,26a.53.53,0,0,1,0-.75.53.53,0,0,1,.74,0c.88.88,2.75,1.19,4.08,1.19s3.21-.31,4.08-1.19a.53.53,0,0,1,.75.75Zm-.36-3.34a2,2,0,1,1,2-2A2,2,0,0,1,22.86,22.66Z"/></svg>