<svg id="Layer_1" data-name="Layer 1" xmlns="http://www.w3.org/2000/svg" viewBox="0 0 58 58"><defs><style>.cls-1{fill:#1bd741;}.cls-2{fill:#fff;}</style></defs><title>Whatsapp</title><path class="cls-1" d="M29,0A29,29,0,1,0,58,29,29,29,0,0,0,29,0Z"/><path class="cls-2" d="M12.39,45.63l2.33-8.27a16.58,16.58,0,1,1,6.19,6.07Zm9-5.21.5.31a13.78,13.78,0,1,0-4.43-4.34l.34.53-1.34,4.76Zm0,0"/><path class="cls-2" d="M24.36,21.24l-1.07-.06a1.32,1.32,0,0,0-.93.32A4.86,4.86,0,0,0,20.75,24c-.38,1.7.21,3.79,1.73,5.87a17.48,17.48,0,0,0,9.42,6.84,4.57,4.57,0,0,0,3.88-.48A3.52,3.52,0,0,0,37.3,34l.17-.81a.57.57,0,0,0-.31-.62l-3.64-1.68a.57.57,0,0,0-.68.17l-1.42,1.85a.41.41,0,0,1-.46.14,11.24,11.24,0,0,1-6.06-5.18.43.43,0,0,1,.06-.46l1.36-1.58a.54.54,0,0,0,.09-.58l-1.57-3.67a.54.54,0,0,0-.48-.34Zm0,0"/></svg>