<svg width="104" height="31" viewBox="0 0 104 31" xmlns="http://www.w3.org/2000/svg"><title>Group</title><g fill="#DAFF00" fillRule="evenodd"><path d="M.513 1.324h7.565l7.954 11.11V1.324h9.034v28.833h-7.608L9.548 19.09v11.067H.513V1.324zM5.657 26.7V6.726L19.922 26.7h1.124V4.78h-1.124v19.97L5.657 4.783H4.533V26.7h1.124zM28.092 1.324h16.99V8.89H37.3v3.198h7.65v7.176H37.3v3.328h8.083v7.565h-17.29V1.324zM42.184 26.7v-1.04H33.54v-9.466h8.212v-1.037H33.54V5.82h8.644V4.782h-9.77V26.7h9.77zM45.865 15.605c0-2.075.396-4.034 1.188-5.88.793-1.843 1.874-3.45 3.242-4.82 1.37-1.368 2.976-2.448 4.82-3.24C56.96.87 58.92.474 60.995.474c2.074 0 4.034.397 5.878 1.19 1.845.792 3.45 1.872 4.82 3.24 1.37 1.37 2.45 2.977 3.242 4.82.793 1.846 1.19 3.805 1.19 5.88 0 2.075-.397 4.035-1.19 5.88-.792 1.844-1.873 3.45-3.242 4.82-1.37 1.368-2.975 2.45-4.82 3.24-1.844.794-3.804 1.19-5.88 1.19-2.074 0-4.033-.396-5.878-1.19-1.844-.79-3.45-1.872-4.82-3.24-1.368-1.37-2.45-2.976-3.242-4.82-.792-1.845-1.188-3.805-1.188-5.88zm4.063 0c0 1.528.288 2.96.865 4.3.576 1.34 1.368 2.516 2.377 3.524 1.01 1.008 2.183 1.8 3.523 2.377 1.34.576 2.774.864 4.3.864 1.53 0 2.962-.287 4.302-.863 1.34-.576 2.515-1.37 3.523-2.378 1.01-1.01 1.802-2.184 2.378-3.524.576-1.34.865-2.773.865-4.3 0-1.528-.288-2.962-.864-4.302-.576-1.34-1.37-2.514-2.378-3.523-1.008-1.008-2.183-1.8-3.523-2.377-1.34-.576-2.773-.864-4.3-.864-1.528 0-2.962.287-4.302.863-1.34.577-2.514 1.37-3.523 2.378-1.01 1.01-1.8 2.184-2.377 3.524-.577 1.34-.865 2.774-.865 4.3zm5.014 0c0 .836.16 1.62.476 2.356.317.736.75 1.377 1.297 1.925.547.547 1.188.98 1.923 1.297.735.317 1.52.475 2.356.475.836 0 1.62-.158 2.356-.475.735-.317 1.376-.75 1.924-1.297.547-.548.98-1.19 1.297-1.924.318-.734.476-1.52.476-2.355 0-.836-.158-1.62-.475-2.356-.316-.736-.75-1.377-1.296-1.924-.548-.548-1.19-.98-1.924-1.297-.735-.318-1.52-.477-2.356-.477-.835 0-1.62.16-2.356.476-.735.316-1.376.748-1.923 1.296-.548.547-.98 1.188-1.297 1.923-.317.734-.476 1.52-.476 2.355zm6.052 9.943c-1.383 0-2.673-.26-3.87-.78-1.195-.517-2.246-1.23-3.154-2.138-.908-.908-1.62-1.96-2.14-3.156-.52-1.196-.778-2.486-.778-3.87 0-1.382.26-2.672.778-3.868.52-1.196 1.232-2.248 2.14-3.155.908-.907 1.96-1.62 3.155-2.14 1.196-.518 2.486-.777 3.87-.777 1.383 0 2.672.26 3.868.778 1.196.52 2.248 1.233 3.156 2.14.907.908 1.62 1.96 2.14 3.156.517 1.196.777 2.486.777 3.87 0 1.382-.26 2.672-.778 3.868-.52 1.196-1.233 2.248-2.14 3.156-.91.907-1.96 1.62-3.157 2.14-1.196.518-2.485.778-3.87.778zM78.5 1.168h7.566l7.954 11.11V1.167h9.035V30h-7.608l-7.91-11.066V30H78.5V1.167zm5.146 25.374V6.572L97.91 26.54h1.125V4.625H97.91v19.972L83.647 4.625h-1.124v21.917h1.124z"/></g></svg>