<svg xmlns="http://www.w3.org/2000/svg" xmlns:xlink="http://www.w3.org/1999/xlink" width="789" height="244"><defs><ellipse id="A" cx="121.915" cy="121.974" rx="121.868" ry="121.927"/></defs><g transform="translate(-1)" fill="none" fill-rule="evenodd"><path d="M75.956 93.51c-1.636-7.064-5.634-12-11.993-14.806C60.4 77.162 56.46 76.4 52.1 76.4c-8.323 0-15.16 3.146-20.514 9.438s-8.03 15.753-8.03 28.383c0 12.724 2.9 21.73 8.697 27.015s12.4 7.93 19.778 7.93c7.247 0 13.185-2.093 17.814-6.28s7.48-9.672 8.556-16.455H54.495V109.16h43.063v55.503H83.25l-2.174-12.91c-4.16 4.912-7.902 8.373-11.222 10.385-5.704 3.508-12.718 5.263-21.04 5.263-13.7 0-24.92-4.748-33.665-14.244C6.032 143.612 1.473 130.56 1.473 114c0-16.747 4.605-30.172 13.817-40.277s21.39-15.156 36.54-15.156c13.14 0 23.694 3.333 31.666 10s12.542 14.98 13.71 24.945h-21.25zM149 127.473c-1.262.795-2.537 1.438-3.822 1.93s-3.05.947-5.295 1.368l-4.49.842c-4.208.748-7.224 1.66-9.047 2.737-3.086 1.824-4.63 4.655-4.63 8.5 0 3.415.947 5.882 2.84 7.403s4.196 2.28 6.908 2.28c4.302 0 8.264-1.263 11.888-3.79S148.85 141.6 149 134.91v-7.438zm-12.133-9.332c3.694-.468 6.336-1.053 7.925-1.754 2.852-1.216 4.278-3.11 4.278-5.684 0-3.134-1.087-5.298-3.26-6.49s-5.365-1.79-9.573-1.79c-4.722 0-8.066 1.17-10.03 3.508-1.403 1.73-2.338 4.07-2.805 7.017h-19.287c.42-6.69 2.29-12.186 5.61-16.5 5.284-6.736 14.354-10.104 27.212-10.104 8.37 0 15.804 1.66 22.303 4.982s9.75 9.6 9.75 18.805v35.084c0 2.433.047 5.38.14 8.84.14 2.62.538 4.397 1.192 5.333s1.636 1.707 2.946 2.316v2.947h-21.742c-.608-1.544-1.03-2.994-1.262-4.35s-.42-2.9-.56-4.63c-2.76 2.994-5.938 5.543-9.538 7.648-4.302 2.48-9.164 3.72-14.588 3.72-6.92 0-12.636-1.976-17.148-5.93s-6.768-9.555-6.768-16.805c0-9.403 3.624-16.21 10.87-20.42 3.974-2.292 9.82-3.93 17.534-4.912l6.803-.842zm80.68-28.734c3.6 2.035 6.523 4.853 8.767 8.455V61.374h20.27v103.288h-19.427v-10.595c-2.852 4.538-6.102 7.835-9.75 9.894s-8.182 3.087-13.606 3.087c-8.93 0-16.447-3.614-22.548-10.84s-9.153-16.5-9.153-27.822c0-13.05 3.004-23.32 9.012-30.804s14.04-11.227 24.09-11.227c4.63 0 8.743 1.017 12.344 3.052h0zm4.91 54.486c2.946-4.2 4.42-9.66 4.42-16.35 0-9.356-2.36-16.045-7.084-20.068-2.9-2.433-6.265-3.65-10.1-3.65-5.845 0-10.134 2.2-12.87 6.63s-4.103 9.905-4.103 16.455c0 7.064 1.39 12.712 4.173 16.946s7.002 6.35 12.66 6.35 9.96-2.105 12.905-6.315h0zm77.242-.947c3.226-3.532 4.84-9.157 4.84-16.876 0-7.25-1.53-12.77-4.594-16.56s-7.165-5.684-12.31-5.684c-7.014 0-11.853 3.298-14.518 9.894-1.403 3.508-2.104 7.835-2.104 12.98 0 4.444.748 8.397 2.244 11.86 2.712 6.456 7.575 9.683 14.588 9.683 4.676 0 8.627-1.766 11.853-5.298h0zm-6.803-54.837c4.863 2.012 8.8 5.707 11.783 11.087V88.178h19.427v72.554c0 9.87-1.66 17.308-4.98 22.314-5.704 8.607-16.645 12.91-32.823 12.91-9.772 0-17.744-1.918-23.916-5.754s-9.585-9.566-10.24-17.19h21.742c.56 2.34 1.473 4.023 2.735 5.052 2.15 1.824 5.774 2.737 10.87 2.737 7.2 0 12.016-2.41 14.448-7.227 1.6-3.087 2.385-8.28 2.385-15.577v-4.912c-1.917 3.275-3.974 5.73-6.172 7.368-3.974 3.04-9.14 4.56-15.5 4.56-9.82 0-17.662-3.45-23.53-10.35s-8.802-16.244-8.802-28.032c0-11.367 2.83-20.922 8.486-28.664s13.676-11.613 24.056-11.613c3.834 0 7.177.585 10.03 1.754h0zm59.533 18.875c-2.548 2.9-4.15 6.83-4.804 11.788h31.07c-.327-5.286-1.93-9.297-4.804-12.034s-6.44-4.105-10.696-4.105c-4.63 0-8.217 1.45-10.766 4.35h0zm27.95-17.262c5.096 2.386 9.305 6.15 12.624 11.297 2.992 4.538 4.933 9.8 5.82 15.788.514 3.508.725 8.56.63 15.156h-52.32c.28 7.672 2.688 13.05 7.224 16.14 2.76 1.918 6.078 2.877 9.96 2.877 4.115 0 7.458-1.17 10.03-3.508 1.403-1.263 2.642-3.017 3.717-5.263h20.41c-.514 4.538-2.876 9.145-7.084 13.823-6.546 7.438-15.7 11.157-27.493 11.157-9.725 0-18.305-3.134-25.74-9.403s-11.15-16.466-11.15-30.594c0-13.24 3.355-23.4 10.064-30.453s15.418-10.595 26.125-10.595c6.36 0 12.087 1.193 17.183 3.58h0zm14.962 13.402V88.88h10.66V67.55h19.778v21.33h12.414v14.244h-12.414v40.417c0 3.134.397 5.087 1.192 5.86s3.226 1.158 7.294 1.158a56.06 56.06 0 0 0 1.929-.035 54.32 54.32 0 0 0 1.999-.105v14.946l-9.468.35c-9.445.327-15.897-1.3-19.357-4.912-2.244-2.292-3.366-5.824-3.366-10.595v-47.083h-10.66zm61.532 37.12c.42 3.555 1.333 6.08 2.735 7.578 2.478 2.666 7.06 4 13.746 4 3.928 0 7.05-.585 9.363-1.754s3.472-2.924 3.472-5.263c0-2.245-.935-3.953-2.805-5.122s-8.814-3.18-20.83-6.035c-8.65-2.152-14.752-4.842-18.305-8.07-3.554-3.18-5.33-7.765-5.33-13.753 0-7.064 2.77-13.133 8.31-18.21s13.337-7.613 23.4-7.613c9.538 0 17.312 1.906 23.32 5.72s9.457 10.397 10.345 19.752h-19.988c-.28-2.573-1.005-4.608-2.174-6.105-2.198-2.713-5.938-4.07-11.222-4.07-4.348 0-7.446.678-9.293 2.035s-2.77 2.947-2.77 4.77c0 2.292.982 3.953 2.946 4.982 1.964 1.076 8.907 2.924 20.83 5.543 7.95 1.87 13.9 4.7 17.884 8.5 3.928 3.836 5.89 8.63 5.89 14.385 0 7.578-2.817 13.765-8.45 18.56s-14.343 7.192-26.125 7.192c-12.017 0-20.888-2.538-26.616-7.613s-8.592-11.543-8.592-19.402h20.27z" fill="#868686"/><g transform="translate(525.17)"><mask id="B" fill="#fff"><use xlink:href="#A"/></mask><use fill="#fd0000" xlink:href="#A"/><path d="M-1.828 69.157c10.747-5.28 22.333-7.92 34.758-7.92 10.872 0 19.382 2.702 25.532 8.107s9.225 12.61 9.225 21.62c0 7.144-2.702 13.543-8.107 19.196 4.908 2.485 8.51 5.67 10.81 9.55s3.448 8.154 3.448 12.813c0 6.585-1.77 12.518-5.31 17.798s-8.76 9.567-15.655 12.86c7.765 7.393 13.76 13.978 17.984 19.755l-18.45 13.325c-6.77-9.38-14.443-18.48-23.016-27.303a107.48 107.48 0 0 1-8.014.28c-6.15 0-11.104-1.475-14.863-4.426S.874 157.93.874 153.023c0-4.597 1.444-8.216 4.333-10.856s6.787-3.96 11.695-3.96c3.54 0 6.77.73 9.69 2.2s5.902 3.4 8.946 5.824c8.2-2.174 12.3-6.368 12.3-12.58 0-6.274-3.5-10.188-10.53-11.74-5.094 1.18-10.87 1.833-17.332 1.957l-1.025-20.128c7.64-.31 13.465-1.398 17.472-3.26s6-4.846 6-8.946c0-6.212-4.38-9.318-13.14-9.318-4.286 0-8.387.606-12.3 1.817A95.04 95.04 0 0 0 5.44 88.446l-7.268-19.29zm92.278 42.958C82.125 105.84 77.963 97.61 77.963 87.42c0-8.014 3.386-14.38 10.157-19.103s15.872-7.082 27.303-7.082c10.437 0 18.513.62 24.228 1.864l-1.864 20.687c-5.84-1.305-12.207-1.957-19.103-1.957-5.218 0-9.04.683-11.462 2.05s-3.634 3.603-3.634 6.71c0 1.802.637 3.557 1.9 5.265s3.028 3.06 5.265 4.053c4.473-1.056 9.567-1.584 15.282-1.584 4.1 0 8.045.373 11.834 1.118l-2.05 20.5c-2.112-.373-5.063-.56-8.852-.56-5.653 0-10.048 1.118-13.186 3.355s-4.706 5.405-4.706 9.505c0 8.2 5.902 12.766 17.705 13.698-.124-.745-.186-1.802-.186-3.168 0-4.473 1.46-7.92 4.38-10.343s6.865-3.634 11.834-3.634c6.026 0 10.934 1.646 14.723 4.94s5.684 7.58 5.684 12.86c0 3.603-.87 6.678-2.61 9.225s-4.504 4.752-8.293 6.616c5.032 9.815 10.685 19.413 16.96 28.794l-20.035 9.877c-7.082-12.3-12.86-23.886-17.332-34.758-1.367.248-3.168.373-5.405.373-13.232 0-23.715-3.37-31.45-10.1s-11.6-15.39-11.6-25.952c0-7.082 2.33-13.263 6.99-18.544zM206.55 73.982c13.294 0 24.026 3.898 32.195 11.695S251 103.863 251 116.847c0 8.387-1.864 15.84-5.59 22.364s-8.977 11.524-15.748 15.003-14.412 5.218-22.923 5.218c-13.046 0-23.7-3.945-31.962-11.834s-12.393-18.233-12.393-31.03c0-12.735 4.07-23.016 12.207-30.844s18.792-11.74 31.962-11.74zm-.186 64.4c5.53 0 10.033-1.988 13.512-5.964s5.218-9.318 5.218-16.028c0-6.585-1.63-11.788-4.892-15.608s-7.688-5.73-13.28-5.73-10.095 1.988-13.512 5.964-5.125 9.318-5.125 16.028 1.615 11.943 4.846 15.7 7.64 5.638 13.232 5.638z" fill="#fff" mask="url(#B)"/><ellipse fill="#fe0000" cx="254.283" cy="57.446" rx="10.546" ry="10.551"/></g><path d="M436.033 238.012l7.07-19.348h-3.33l-5.274 16.13h-.075L429 218.664h-3.554l7.182 19.348h3.404zm23.416-11.526h-11.1a6.64 6.64 0 0 1 .486-2.114 5.64 5.64 0 0 1 1.122-1.74 5.14 5.14 0 0 1 1.702-1.179c.66-.287 1.403-.43 2.226-.43.798 0 1.527.143 2.188.43s1.234.674 1.72 1.16.873 1.067 1.16 1.74a6.51 6.51 0 0 1 .505 2.133h0zm3.067 5.4h-3.142c-.274 1.272-.842 2.22-1.702 2.844s-1.964.936-3.3.936c-1.047 0-1.958-.175-2.73-.524s-1.4-.817-1.908-1.403a5.49 5.49 0 0 1-1.085-2.02c-.225-.76-.324-1.566-.3-2.414h14.476c.05-1.173-.056-2.408-.318-3.705s-.736-2.495-1.42-3.593-1.596-2.002-2.73-2.713-2.562-1.067-4.283-1.067c-1.322 0-2.537.25-3.647.748a8.57 8.57 0 0 0-2.88 2.096c-.8.898-1.44 1.958-1.9 3.18s-.673 2.57-.673 4.042c.05 1.472.268 2.832.655 4.08s.966 2.32 1.74 3.218 1.727 1.597 2.862 2.096 2.475.748 4.02.748c2.194 0 4.015-.55 5.46-1.647s2.38-2.732 2.805-4.902h0zm3.6-13.2v19.348h3.18v-10.928c0-.873.118-1.678.355-2.414a5.48 5.48 0 0 1 1.066-1.927c.474-.55 1.066-.973 1.777-1.272s1.552-.45 2.525-.45c1.222 0 2.182.35 2.88 1.048s1.047 1.647 1.047 2.844v13.098h3.18V225.3c0-1.048-.106-2.002-.318-2.863s-.58-1.603-1.103-2.227-1.2-1.1-2.057-1.46-1.908-.524-3.18-.524c-2.868 0-4.962 1.173-6.284 3.518h-.075v-3.07h-2.992zm25.2 0v-5.8h-3.18v5.8h-3.292v2.807h3.292v12.312c0 .898.087 1.622.262 2.17s.443.973.804 1.272.835.505 1.42.617 1.3.168 2.113.168h2.43v-2.807h-1.46c-.5 0-.904-.02-1.216-.056s-.555-.12-.73-.243-.293-.3-.355-.524-.094-.524-.094-.898V221.47h3.853v-2.807H491.3zm23.378 19.348v-19.348h-3.18v10.928c0 .873-.118 1.678-.355 2.414a5.48 5.48 0 0 1-1.066 1.927c-.474.55-1.066.973-1.777 1.272s-1.552.45-2.525.45c-1.222 0-2.182-.35-2.88-1.048s-1.047-1.647-1.047-2.844v-13.098h-3.18V231.4c0 1.048.106 2.002.318 2.863s.58 1.603 1.103 2.227 1.2 1.104 2.057 1.44 1.908.505 3.18.505c1.42 0 2.656-.28 3.703-.842s1.908-1.44 2.58-2.638h.075v3.07h2.992zm4.676-19.348v19.348h3.18v-8.607c0-1.247.125-2.35.374-3.312s.648-1.778 1.197-2.45 1.272-1.185 2.17-1.534 1.982-.524 3.254-.524v-3.368c-1.72-.05-3.142.3-4.264 1.048s-2.07 1.9-2.843 3.48h-.075v-4.08h-2.992zm25.997 7.82h-11.1a6.64 6.64 0 0 1 .486-2.114 5.64 5.64 0 0 1 1.122-1.74 5.14 5.14 0 0 1 1.702-1.179c.66-.287 1.403-.43 2.226-.43.798 0 1.527.143 2.188.43s1.234.674 1.72 1.16.873 1.067 1.16 1.74a6.51 6.51 0 0 1 .505 2.133h0zm3.067 5.4h-3.142c-.274 1.272-.842 2.22-1.702 2.844s-1.964.936-3.3.936c-1.047 0-1.958-.175-2.73-.524s-1.4-.817-1.908-1.403a5.49 5.49 0 0 1-1.085-2.02c-.225-.76-.324-1.566-.3-2.414h14.476c.05-1.173-.056-2.408-.318-3.705s-.736-2.495-1.42-3.593-1.596-2.002-2.73-2.713-2.562-1.067-4.283-1.067c-1.322 0-2.537.25-3.647.748a8.57 8.57 0 0 0-2.88 2.096c-.8.898-1.44 1.958-1.9 3.18s-.673 2.57-.673 4.042c.05 1.472.268 2.832.655 4.08s.966 2.32 1.74 3.218 1.727 1.597 2.862 2.096 2.475.748 4.02.748c2.194 0 4.015-.55 5.46-1.647s2.38-2.732 2.805-4.902h0zm-326.957-4.914l4.526-12.462h.075l4.45 12.462h-9.052zm2.656-15.68l-10.4 26.72h3.628l2.992-8.046h11.296l2.918 8.046h3.928l-10.436-26.72h-3.928zm16.458 7.372v19.348h3.18v-10.928c0-.873.118-1.678.355-2.414a5.48 5.48 0 0 1 1.066-1.927c.474-.55 1.066-.973 1.777-1.272s1.552-.45 2.525-.45c1.222 0 2.182.35 2.88 1.048s1.047 1.647 1.047 2.844v13.098h3.18v-12.724c0-1.048-.106-2.002-.318-2.863s-.58-1.603-1.103-2.227-1.2-1.1-2.057-1.46-1.908-.524-3.18-.524c-2.868 0-4.962 1.173-6.284 3.518h-.075v-3.07h-2.992zm59.33 13.4h-.274c-1.8 0-2.9-1.856-3.353-2.687l-4.62-9.532c-2.176-4.444-6.07-7.128-10.423-7.128h-8.788v27.12h8.52V220.5h.268c1.905 0 3.083 2.037 3.353 2.684l4.713 9.534c1.994 4.444 5.9 7.127 10.33 7.127h8.7v-27.12h-8.426v19.348zm104.38-19.348L393.97 232.9l-10.965-20.174H310.97v27.12h23.107c7.973 0 11.78-4.72 11.78-12.498v-2.96c0-.83 0-3.054-.64-5.27h12.7v20.73h8.153v-20.73h11.414l11.332 20.73h10.237l14.04-27.12H404.3zm-66.693 16.478c0 2.775-1.446 4.256-4.7 4.256h-13.68v-14.344h13.68c3.175 0 4.7 1.662 4.7 4.16v5.928z" fill="#868686"/><path d="M309.676 231.146c-2.753 0-4.954-2.253-4.954-4.954s2.2-5.046 4.954-5.046c2.845 0 5.046 2.345 5.046 5.046s-2.2 4.954-5.046 4.954z" fill="#fd0000"/></g></svg>