<svg xmlns="http://www.w3.org/2000/svg" xmlns:xlink="http://www.w3.org/1999/xlink" width="218" height="132"><style><![CDATA[.B{fill-rule:nonzero}.C{fill:#247644}.D{fill:#1d6435}]]></style><defs><path id="A" d="M.023.2H28.8v20.086H.023z"/><path id="B" d="M.03.186h109.776v73.02H.03z"/></defs><g fill="none" fill-rule="evenodd"><mask id="C" fill="#fff"><use xlink:href="#A"/></mask><g fill="#a1a3a1"><path d="M22.044 14.54h-.218c-1.456 0-2.33-1.374-2.694-2l-3.7-7.06C13.678 2.198 10.55.2 7.056.2H0v20.086h6.84V5.97h.216c1.53 0 2.476 1.508 2.69 1.988l3.783 7.062c1.603 3.29 4.732 5.278 8.296 5.278H28.8V.2h-6.766v14.33" mask="url(#C)"/><path d="M44.586 0h-14.02v20.015h14.02v-4.713h-7.408V4.718h7.408V0zm60.796 0L97.1 14.89 88.31 0H44.586v4.718h3.557c2.545 0 3.776 1.224 3.776 3.068v4.375c0 2.05-1.16 3.14-3.776 3.14h-3.557v4.713H49.1c6.392 0 9.444-3.485 9.444-9.224V8.606c0-.613 0-2.253-.512-3.887h10.17v15.297h6.535V4.718h9.152l9.082 15.297h8.205L112.423 0h-7.04z" class="B"/></g><path d="M33.675 10.288c0 2.108-1.7 3.87-3.922 3.87-2.138 0-3.85-1.76-3.85-3.87s1.71-3.942 3.85-3.942c2.212 0 3.922 1.832 3.922 3.942" fill="#d8272d"/><path d="M111.905 33.685s1.226-27.3 45.84-26.932c0 0 1.82-1.912 2.234-.146s.907 21.46-24.036 21.682c-16.093.143-24.036 5.395-24.036 5.395" class="D"/><path d="M113.46 31.732s3.574-24.52 44.75-24.17c0 0 .92-1.63 1.3-.004s-.466 19.107-23.487 19.31c-14.852.132-22.565 4.864-22.565 4.864" class="C"/><path d="M80.37 73.185c-9.436 0-17.087-7.193-17.087-16.068S70.935 41.05 80.37 41.05 97.46 48.243 97.46 57.117s-7.65 16.068-17.087 16.068zm0-48.287c-18.922 0-34.262 14.425-34.262 32.22s15.34 32.22 34.262 32.22c10.644 0 20.154-4.564 26.44-11.725l-5.3-14.885 12.466-11.925c-3.122-14.77-16.982-25.905-33.606-25.905z" class="B D"/><g transform="translate(47.145 25.874)"><mask id="D" fill="#fff"><use xlink:href="#B"/></mask><path d="M32.948 48.2c-10.032 0-18.166-7.643-18.166-17.073S22.915 14.05 32.948 14.05s18.166 7.645 18.166 17.074S42.98 48.2 32.948 48.2zm0-48.013C14.768.186.03 14.038.03 31.126s14.738 30.94 32.918 30.94c10.703 0 20.212-4.802 26.224-12.238l-5.404-13.923 11.7-9.612C62.997 11.5 49.378.186 32.948.186z" mask="url(#D)" class="B C"/><mask id="E" fill="#fff"><use xlink:href="#C" href="#B"/></mask><path d="M75.7 57.157c-9.394 0-17.008-7.156-17.008-15.985S66.307 25.185 75.7 25.185 92.71 32.343 92.71 41.172 85.094 57.157 75.7 57.157zm0-48.04c-18.835 0-34.106 14.352-34.106 32.056S56.865 73.227 75.7 73.227s34.106-14.353 34.106-32.056S94.537 9.116 75.7 9.116z" mask="url(#E)" class="B D"/></g><path d="M123.044 84.23c-10.027 0-18.155-7.658-18.155-17.106s8.128-17.107 18.155-17.107 18.155 7.66 18.155 17.107-8.128 17.106-18.155 17.106zm0-48.106c-18.17 0-32.898 13.88-32.898 31s14.73 31 32.898 31 32.898-13.88 32.898-31-14.73-31-32.898-31z" class="B C"/><path fill="#77ba43" d="M39.374 42.425V30.267H.518v62.487h16.415V68.137h20.104V55.98H16.933V42.425h22.44"/><path fill="#84be47" d="M38.338 41.62v-9.888H1.6v5.64h-.056v54.406h14.182V67.245h20.248v-9.888H15.736V41.62h22.602"/><g class="B"><path d="M199.29 65.55c0 5.742-6.124 13.763-12.21 13.763h-8.446V44.196h8.446c6.087 0 12.21 8.02 12.21 13.763l.162 3.796c0 .95-.162 3.796-.162 3.796zm17.662-9.203c0-14.404-12.377-26.08-27.644-26.08H162.16v62.976h27.148c15.267 0 27.644-11.676 27.644-26.08l.124-5.407c0-1.353-.124-5.407-.124-5.407z" fill="#77ba43"/><path d="M200.694 65.294c0 5.724-7.283 14.837-13.346 14.837h-9.596V42.89h9.596c6.063 0 13.346 9.113 13.346 14.837l.16 3.784c0 .947-.16 3.784-.16 3.784zm15.222-9.173c0-14.358-11.142-24.878-26.348-24.878h-25.855v60.535h25.855c15.206 0 26.348-10.52 26.348-24.878l.124-5.4c0-1.348-.124-5.39-.124-5.39z" fill="#84be47"/><path d="M178.062 123.925c.64-.156.635-.363 1.05-.62s.623-.61.623-1.055c0-.536-.273-.95-.82-1.24s-1.448-.436-2.706-.436c-1.4 0-2.462.24-3.186.72s-1.086 1.134-1.086 1.96a3.48 3.48 0 0 0 .409 1.625c.273.525.765 1.11 1.477 1.76s1.744 1.44 3.097 2.38L173.826 132l-3.524-2.982c-.997-.938-1.768-1.893-2.314-2.865s-.82-2.027-.82-3.166c0-.85.172-1.603.516-2.262a5.82 5.82 0 0 1 1.371-1.726c-.427-.47-.777-1-1.05-1.592s-.41-1.28-.41-2.06c0-.715.136-1.323.41-1.826s.635-.9 1.086-1.223c.593-.447 1.3-.765 2.118-.955s1.952-.285 3.4-.285h3.63v-1.876H166.1v-3.686h20.257v3.686h-3.346v5.562h-8.26c-.665 0-1.127.028-1.388.084s-.475.15-.64.285c-.31.223-.463.558-.463 1.005 0 .38.166.76.498 1.14 1.115-.268 2.314-.402 3.596-.402 1.922 0 3.477.25 4.664.754s2.053 1.156 2.6 1.96.82 1.653.82 2.546c0 2.748-1.875 4.535-5.625 5.36l-.748-3.552zm-20.114-14.743H155.1v-3.686h2.67c-.285-.58-.516-1.15-.694-1.71a5.49 5.49 0 0 1-.267-1.675c0-1.765.748-3.172 2.243-4.222s3.69-1.575 6.586-1.575c2.634 0 5.032.436 7.19 1.307s4.124 2.022 5.892 3.45 3.305 2.748 4.753 4.423h-5.447c-1.756-1.832-3.542-3.004-5.5-3.987s-4.03-1.474-6.212-1.474c-1.543 0-2.712.262-3.507.787s-1.193 1.245-1.193 2.16a4.34 4.34 0 0 0 .214 1.357c.142.436.32.82.534 1.156h3.738v3.686h-3.382v17.155h-4.77v-17.155zm22.037-10.387c0-.692.255-1.284.765-1.776s1.133-.737 1.87-.737 1.353.246 1.85.737.748 1.083.748 1.776c0 .715-.25 1.312-.748 1.793s-1.115.72-1.85.72-1.36-.24-1.87-.72a2.36 2.36 0 0 1-.765-1.793zm21.075 29.82l-1.388-2.345-1.14-2.144c-.617.067-1.317.1-2.1.1a15.72 15.72 0 0 1-3.311-.352c-1.092-.235-2.09-.614-3-1.14a6.01 6.01 0 0 1-2.154-2.111c-.534-.882-.8-1.982-.8-3.3 0-.983.196-1.837.587-2.563a5.48 5.48 0 0 1 1.584-1.826c.76-.558 1.667-.988 2.723-1.3s2.225-.486 3.507-.553v-1.9h-9.22v-3.686h19.865v3.686h-5.874v5.596h-1.816c-1.377 0-2.445.056-3.204.168s-1.4.3-1.922.536c-.997.447-1.495 1.162-1.495 2.144 0 .85.368 1.547 1.104 2.094s2.005.82 3.81.82h.267a2.45 2.45 0 0 0 .374-.034c-.047-.246-.07-.48-.07-.704 0-.826.32-1.418.96-1.776a4.17 4.17 0 0 1 2.065-.536c1.258 0 2.22.318 2.884.955s.997 1.38.997 2.228c0 .782-.184 1.374-.552 1.776s-.825.726-1.37.972c.688 1.095 1.543 2.3 2.563 3.585l-3.88 1.608zm7.512-19.434h-2.35v-3.686h2.385c-.76-1.787-1.62-3.15-2.58-4.088s-2.083-1.407-3.364-1.407c-.95 0-1.655.23-2.118.687s-.694 1.055-.694 1.793a5.61 5.61 0 0 0 .267 1.776c.178.536.27.77.554 1.24h-4.617c-.403-.737-.56-1.19-.726-1.826s-.25-1.268-.25-1.893c0-1.675.617-3.004 1.85-3.987s2.955-1.474 5.162-1.474c2.04 0 3.756.413 5.144 1.24s2.54 1.932 3.453 3.317 1.69 2.926 2.332 4.624h3.702v3.686h-3.382v17.155h-4.77v-17.155z" class="C"/></g></g></svg>