<?xml version="1.0" encoding="utf-8"?>
<!-- Generator: Adobe Illustrator 21.1.0, SVG Export Plug-In . SVG Version: 6.00 Build 0)  -->
<svg version="1.1" id="Capa_1" xmlns="http://www.w3.org/2000/svg" xmlns:xlink="http://www.w3.org/1999/xlink" x="0px" y="0px"
	 viewBox="0 0 612 612" style="enable-background:new 0 0 612 612;" xml:space="preserve">
<style type="text/css">
	.st0{stroke:#000000;stroke-width:15;stroke-miterlimit:10;}
</style>
<g>
	<g>
		<path class="st0" d="M576.6,189.6c-31-72.3-83.7-124.8-156.5-155.9c-36.5-15.6-74.7-23.4-114.5-23.4s-77.7,7.9-114.1,23.4
			c-72.3,31-125.2,83.5-156.2,155.9C19.6,225.8,12,263.8,12,303.7s7.6,78.2,23.2,114.4c31,72.3,84,125.2,156.2,156.2
			c36.4,15.6,74.3,23.4,114.1,23.4s78-8,114.4-23.4c72.9-31.1,125.6-84,156.6-156.2c15.6-36.4,23.4-74.6,23.4-114.4
			S592.1,226,576.6,189.6z M529.6,433.6c-23.1,39.6-54.7,71-94.5,94.2c-39.6,23.1-82.9,34.7-129.5,34.7c-35.1,0-68.5-6.7-100.3-20.6
			s-59.3-32-82.3-55c-23-23-41.3-50.7-55-82.6c-13.6-31.8-20.3-65.6-20.3-100.6c0-46.6,11.4-89.7,34.4-129.2
			c23.1-39.6,54.7-71,94.2-94.2c39.6-23.3,82.7-34.8,129.3-34.8S395.4,57.2,435,80.2c39.8,23.3,71.4,54.7,94.5,94.2
			c23.2,39.6,34.7,82.6,34.7,129.2C564.4,350.3,552.8,393.7,529.6,433.6z"/>
		<path class="st0" d="M324.2,301.1V134.6c0-10-8.6-18-18.6-18c-9.3,0-17.7,8.1-17.7,18v169.1c0,0.3,0.7,1.6,0.7,2.6
			c-0.7,5.8,1,10.6,4.8,14.5l96.2,96.1c6.4,6.4,18.4,6.4,24.8,0c7.4-7.4,6.9-18.2,0-25.1L324.2,301.1z"/>
	</g>
</g>
</svg>
