<?xml version="1.0" encoding="utf-8"?>
<!-- Generator: Adobe Illustrator 22.0.0, SVG Export Plug-In . SVG Version: 6.00 Build 0)  -->
<svg version="1.1" id="Capa_1" xmlns="http://www.w3.org/2000/svg" xmlns:xlink="http://www.w3.org/1999/xlink" x="0px" y="0px"
	 viewBox="0 0 60 60" style="enable-background:new 0 0 60 60;" xml:space="preserve">
<style type="text/css">
	.st0{fill:#4E78AD;}
</style>
<g>
	<path class="st0" d="M0,3.4l0,46.8l9.4-9.4H13v6.3c0,1.5,1.2,2.7,2.7,2.7h34.9l9.4,9.4V15.4c0-1.5-1.2-2.7-2.7-2.7H50V3.4
		c0-1.5-1.2-2.7-2.7-2.7H2.7C1.2,0.8,0,2,0,3.4z M15,40.8V15.4c0-0.4,0.3-0.7,0.7-0.7H50h7.3c0.4,0,0.7,0.3,0.7,0.7v38.9l-6.6-6.6
		H15.7c-0.4,0-0.7-0.3-0.7-0.7V40.8z M2,3.4c0-0.4,0.3-0.7,0.7-0.7h44.7c0.4,0,0.7,0.3,0.7,0.7v9.3H15.7c-1.5,0-2.7,1.2-2.7,2.7
		v23.3H8.6L2,45.4V3.4z"/>
	<path class="st0" d="M46,31.8c0,2.2,1.8,4,4,4s4-1.8,4-4s-1.8-4-4-4S46,29.6,46,31.8z M48,31.8c0-1.1,0.9-2,2-2s2,0.9,2,2
		s-0.9,2-2,2S48,32.9,48,31.8z"/>
	<path class="st0" d="M33,31.8c0,2.2,1.8,4,4,4c2.2,0,4-1.8,4-4s-1.8-4-4-4C34.8,27.8,33,29.6,33,31.8z M35,31.8c0-1.1,0.9-2,2-2
		s2,0.9,2,2s-0.9,2-2,2S35,32.9,35,31.8z"/>
	<path class="st0" d="M20,31.8c0,2.2,1.8,4,4,4s4-1.8,4-4s-1.8-4-4-4S20,29.6,20,31.8z M22,31.8c0-1.1,0.9-2,2-2s2,0.9,2,2
		s-0.9,2-2,2S22,32.9,22,31.8z"/>
</g>
</svg>
