<?xml version="1.0" encoding="utf-8"?>
<!-- Generator: Adobe Illustrator 21.1.0, SVG Export Plug-In . SVG Version: 6.00 Build 0)  -->
<svg version="1.1" id="Capa_1" xmlns="http://www.w3.org/2000/svg" xmlns:xlink="http://www.w3.org/1999/xlink" x="0px" y="0px"
	 viewBox="0 0 402 402" style="enable-background:new 0 0 402 402;" xml:space="preserve">
<g>
	<g>
		<path d="M237.5,301.5h-73.1c-4.9,0-9.2,1.8-12.9,5.4c-3.6,3.6-5.4,7.9-5.4,12.8v64c0,4.9,1.8,9.2,5.4,12.9
			c3.6,3.6,7.9,5.4,12.9,5.4h73.1c4.9,0,9.2-1.8,12.8-5.4c3.6-3.6,5.4-7.9,5.4-12.9v-64c0-4.9-1.8-9.2-5.4-12.8
			C246.8,303.3,242.5,301.5,237.5,301.5z"/>
		<path d="M259.4,5.4c-3.5-3.6-7.8-5.4-12.7-5.4h-91.4c-4.9,0-9.2,1.8-12.7,5.4c-3.5,3.6-5.2,7.9-5,12.9l8,219.3
			c0.2,4.9,2.1,9.2,5.9,12.8c3.7,3.6,8,5.4,13,5.4h73.1c4.9,0,9.3-1.8,13-5.4c3.7-3.6,5.7-7.9,5.9-12.8l8-219.3
			C264.6,13.3,262.9,9,259.4,5.4z"/>
	</g>
</g>
</svg>
