<svg version="1.1" id="Layer_1" xmlns="http://www.w3.org/2000/svg" x="0" y="0" viewBox="0 0 512 512" xml:space="preserve"><style type="text/css">.st0{fill:url(#SVGID_1_)}.st1{fill:none}.st2,.st3,.st4,.st5{fill-rule:evenodd;clip-rule:evenodd;fill:#f27321}.st3,.st4,.st5{fill:#449c46}.st4,.st5{fill:#354394}.st5{fill:#fff}.st6{fill:#231f20}.st7{font-family:&apos;ArialMT&apos;}.st8{font-size:36.6927px}</style><radialGradient id="SVGID_1_" cx="255.867" cy="256.159" r="250.867" gradientUnits="userSpaceOnUse"><stop offset="0" stop-color="#cce0f4"/><stop offset=".64" stop-color="#fff"/><stop offset=".726" stop-color="#f6f7f8"/><stop offset=".87" stop-color="#dce3e6"/><stop offset=".994" stop-color="#c1cdd3"/></radialGradient><circle class="st0" cx="255.9" cy="256.2" r="250.9"/><path class="st1" d="M17.4 191.9h476.8v125H17.4z"/><path class="st2" d="M219 221.7c3.9-2.4 8.9-4.6 15.5-6.8 5-1.7 7.2-1 12.3-2.3 2.5-.7 17-4.3 21.8-5.6 5-1.4 11.4-2.3 19.2-2.8 7.7-.6 18.7-1.4 24-1.5 5.3-.2 17-.5 23.5.2 6.6.7 6 .5 7.5 1.6 1.4 1.1 2 .8 2.3.5.2-.3-1.4-1.1-1.4-1.1s2.4.5 4.7.9c2.4.6 4.2.6 4.9.8.7.1.6.9 1.3.9.7 0 3.2-.1 5.1.6 1.9.7 3.2.5 4.1.9.9.3.9.8 1.5.8.7 0 .6-.5 1.8 0 1.1.5 3.6.9 6.4 1.8 2.8.9 4.1 1.1 5.6 1.8 1.6.6 2.4 1.9 3.1 2 0 0-1.8 0-3.6-.1-1.8-.2-6.9-.5-7.7-.6-1.4-.1-3-1.6-5.1-1.9-2-.2-2.7.8-4.1.8-1.4 0-.5-1.4-2.5-1.3-1.9.1-2.7.3-3.2.2-.3 0 .1.9-.1 1-.3 0-5.1-.1-6.5-.2-1.3-.2-3.6-1.3-6.4-1.4-2.7-.1-5.3.2-8.2 1-2.8.8-7.6.1-13.9.5-6.1.5-17.1 1.8-24.3 3.2-7.3 1.4-9.9.7-15.7 1.9-5.9 1.4-7.3 1.5-10.1 1.9s-9.6 3.1-13.1 4.7c-3.5 1.5-7.2 1.8-9.1 1.8s-3.2-.7-5.8-.7c-2.5 0-9.4 1.5-9.3 4 0 0-1.3 0-2.6.5-1.4.3-4.6 1.3-6.3 2.2-1.7.8-3.9 0-4.4-.1-.5-.1-1.6-.2-2 .1 0 0 .1-.7-.2-1.1-.5-.3-1.6-1.9-1.6-3.1-.4-1.1-.2-4.3 2.6-6z"/><path class="st3" d="M399.1 233.2c1.5.9 3.1 1.9 3.1 2.2 0 0 .6.3-3.2-.6-1.7-.3-7.1-.7-7.8-.8-2.5-.5-3.8-1.8-5.2-2-2.2-.3-3.2.7-4 .7-1.7-.1-.2-1.3-2-1.3-1.9.1-3.1.2-3.4.1-.5 0-.2 1-.6 1-.3.1-4.9-.3-6.3-.6-2-.2-4-1.4-6.8-1.5-2.7-.2-4.4.2-8 .8-3.1.5-7.9-.2-14.2-.1-6.3.1-17.4 1-24.9 1.9-7.5 1-10.1.3-16.2 1.3-6 .9-7.4 1.1-10.4 1.4-3 .3-9.8 2.5-13.4 3.8-3.6 1.3-7.4 1.4-9.4 1.3-1.9 0-3.2-.7-5.8-.8-2.6 0-10.2 1-10.1 3.3 0 0-1.3 0-2.7.3-1.4.2-4.2.9-5.9 1.6-1.8.8-4 0-4.5-.2-.5-.1-1.7-.2-2 .1 0 0 .1-.7-.2-1-.5-.3-1.6-1.8-1.6-2.8 0-1 .5-3.6 3.3-5.1 4-2 9.1-4 15.8-5.8 5.2-1.4 7.4-.6 12.5-1.6 2.6-.5 17.5-3.4 22.5-4.4 5.1-1 11.7-1.4 19.7-1.7 8-.2 19.1-.8 24.6-.8s18 .2 24.7 1 6 .7 7.5 1.7 2.7.8 3 .5c.3-.2-1.3-1-1.3-1s1.3.5 3.5 1c2.4.6 5 .9 5.7 1.1.7.2.6.9 1.3 1 .7 0 2.4-.1 4.3.5 1.9.7 3.3.7 4.2 1 .8.3.9.9 1.5.9.7 0 .6-.3 1.8.1 1.1.5 3 .8 5.8 1.7.7.2 2.4 1 2.8 1.1.4.1 1.6.2 2.3.7z"/><path class="st2" d="M387.1 213.6c.1.3 0 .7.3.7s.6 0 .9.1c.3.1.3 0 .5.3.1.2.3.3.7.3.3-.1.5-.5.2-.6-.2-.1-.3-.2-.7-.2-.3 0-.3.1-.6 0-.2-.2-.2-.2-.3-.5-.2-.3-.2-.3-.7-.3s-.3.2-.3.2zM392.8 216c.2.2-.2.3.1.6.3.1.2 0 .5.2.1.3.2.3.5.2.2 0 .3.2.5-.1 0-.2 0-.7-.2-.7-.3-.1-.2.1-.3-.1-.1-.1 0-.2-.3-.2-.6 0-.9-.2-.8.1zM376.9 216c0 .2-.1.5.1.7.3.1.7.1 1.1.1.5.1.7.2 1.4.3l1.5.5c.6.1.7.2 1.4.3.7.1.7.2 1 .3.5.1.8.3 1.4.5.6.1.7 0 1.3.1.7.2.7.1 1.1.3.3.2.9.3 1.2.3h.7s-.3-.3-.3-.6c-.1-.2-.6-1-1.4-.9-1 0-1.5-.1-2.2-.2-.6 0-1 0-1.5-.1-.3-.1-.9-.3-1-.6-.2-.1-.5-.5-.8-.7-.2-.2-.2-.6-.7-.7-.5-.1-1.4-.2-1.9-.2-.6 0-1.6-.1-1.9 0-.3.1-.3.1-.5.3v.3zM389.8 219.7c.6-.1.3-.2 1-.2.8 0 1.7.1 1.9.2.1 0 .9-.1 1.7.5.7.5.9.3 1.3.7.3.2.8.3.6.5-.2 0-1-.1-1.5-.2-.5-.2-1.3-.5-1.8-.6-.7-.1-1-.1-1.5-.2-.6-.1-.9-.1-1.3-.2-.2-.2-.8-.5-.4-.5zM403.7 222.3c-.1.1.5.8 1.3 1 .8.3.9.7 1.5 1 .6.5.9.8 1.4 1.1.5.3.6.3 1.1.7.6.3 1.1.7 1.4.5.1-.2 0-.5-.5-.9-.3-.3-1.8-1.4-2.5-1.8-.7-.5-1.6-1-2-1.3-.4-.1-1.5-.5-1.7-.3z"/><path class="st4" d="M54.6 260.5c-19.6 0-31.4 13.4-31.4 29.8 0 16.5 12.1 29.8 31.4 29.8 18.3 0 30.7-13.3 30.7-29.8 0-16.4-12.9-29.8-30.7-29.8zm-.4 47.2c-9.4 0-17.2-7.8-17.2-17.4 0-9.4 7.7-17.5 17.2-17.5 9.6 0 17 8.1 17 17.5 0 9.5-7.4 17.4-17 17.4zM90.3 261.6h13.2v9.8s3.4-10.8 18.2-10.8c14.7 0 20.2 9.4 20.2 21.6v36.9h-13.7v-30.7c0-6.7-1.8-15.4-10.9-15.4-9.2 0-13.1 6.6-13.1 14.4v31.3h-14v-57.1h.1zM176.9 309c-14.6 0-15.8-14-15.8-14h43.8c0-9.6 0-13.2-2.2-18.5-2.3-5.3-8-16.4-24.6-16.4s-31.2 11.1-31.2 29.8c0 18.8 14.6 30.5 31.3 30.5 16.8 0 24.2-11.5 24.2-11.5l-10.1-7.7c.1 0-5.3 7.9-15.4 7.8zm-.8-38.2c15.2 0 14.7 13.6 14.7 13.6h-29.5c0 .1 1.2-13.6 14.8-13.6zM219.3 318.7h-7.6v-55.9h7.6v55.9zM255.7 268.6c16 0 14.3 16.8 14.3 23.2v26.8h7.7v-34.7c0-7.4-.6-12.1-6.1-17.6-2.2-2.2-7.6-4.8-14.4-4.8-3 0-8.3.7-13 4-4.7 3.2-5.9 5.6-6.5 6.4v-9.1H230v55.9h7.6v-25.4c0-6.9.1-11.5 3.3-16.6 3.2-5.1 7.9-8.1 14.8-8.1zM335.2 238.3v34.2c-1.8-2.8-9.2-11.1-22.8-11.1-13.4 0-29 10.1-29 29 0 19 13.9 29.8 29.5 29.8 15.7 0 22.4-10.8 22.4-10.8v9.3h7.6v-80.4h-7.7zm-21.5 75.1c-13 0-21.8-9.9-21.8-22.2 0-13.3 8.9-22.9 21.8-22.9 12.2 0 22.1 10.7 22.1 22.9 0 12.3-9.9 22.2-22.1 22.2zM361.2 318.7h-7.5v-55.5h7.5v55.5zM363.1 246.2c0 3.3-2.7 6-6 6-3.4 0-6.1-2.7-6.1-6 0-3.4 2.7-6 6.1-6 3.3 0 6 2.6 6 6zM221.5 246.2c0 3.3-2.6 6-6 6-3.3 0-6-2.7-6-6 0-3.4 2.7-6 6-6 3.4 0 6 2.6 6 6zM414.9 304.4V281c0-3.6-.3-12.5-10.1-17.3-9.7-4.8-27.3-1.1-33.6 5.8l4.7 5.8s4.1-3.9 9.3-5.6c5.1-1.7 17.2-2.2 20.5 5.3 0 0 1.8 3.5 1.8 9.9 0 0-9.8 0-14.3.3-4.2.2-24.7 1.3-24.7 19.7 0 3.9 2.3 15.2 20.1 15.2 14 0 19-10.2 19-10.2s.6 9 1.4 9l6.9-.2s-1-5.2-1-14.3zm-24.3 8.8c-17.4 0-18.5-18.7-.6-21.2 0 0 12.4-1.8 17.4-.8.1.1 2.3 22-16.8 22z"/><path class="st3" d="M396.9 236.9c0 .2.3.2 1.1.5.9.1 2.7.6 3.4.8.6.2 1.6.8 2.7 1.3 1 .3.5 0-.7-.7-1.1-.7-1.4-.6-1.7-1.3-.3-.7-.5-1-1.6-1-1 0-2.2-.1-2.5-.1-.1-.1-.7.2-.7.5z"/><path class="st2" d="M454.2 220.4l3.2 9.1 7.3-6.2-.1 9.5 9-3.4-3.4 9 9.5-.2-6.2 7.2 9.1 3.2-8.5 4.7 7.5 6.1-9.4 1.5 4.9 8.3-9.5-1.8 1.9 9.4-8.3-4.9-1.5 9.5-6-7.4-4.7 8.4-3.2-9.1-7.3 6.3.1-9.6-8.9 3.4 3.4-9-9.7.1 6.3-7.2-9-3.1 8.3-4.8-7.4-6 9.4-1.5-4.9-8.3 9.5 1.8-1.8-9.4 8.1 4.9 1.6-9.5 6.1 7.4 4.6-8.4z"/><path class="st5" d="M456.5 236.8v29.8h-5.8v-23.4l-6.1 5.7-3.5-3.8 9.3-8.3h6.1z"/><text transform="translate(465.784 223.718)" class="st6 st7 st8">®</text></svg>