<svg id="Capa_1" data-name="Capa 1" xmlns="http://www.w3.org/2000/svg" viewBox="0 0 512.07 511.98"><defs><style>.cls-1{fill:#fff;}</style></defs><title>play-button</title><g id="_356._Play" data-name="356. Play"><path class="cls-1" d="M477.7,128C407,5.6,250.4-36.3,128,34.3S-36.4,261.6,34.3,384,261.6,548.3,384,477.7,548.4,250.4,477.7,128ZM358.4,433.3c-97.9,56.6-223.2,23-279.7-74.9s-23-223.2,74.9-279.7,223.2-23,279.7,74.9S456.3,376.8,358.4,433.3ZM348.1,245.6l-134-78.2c-12.2-7.1-22.1-1.4-22,12.7l.7,155.2c.1,14.1,10,19.9,22.3,12.8l133-76.8C360.3,264.2,360.4,252.7,348.1,245.6Z" transform="translate(0.03 -0.01)"/></g></svg>