<?xml version="1.0" encoding="utf-8"?>
<!-- Generator: Adobe Illustrator 22.0.1, SVG Export Plug-In . SVG Version: 6.00 Build 0)  -->
<svg version="1.1" id="Layer_1" xmlns="http://www.w3.org/2000/svg" xmlns:xlink="http://www.w3.org/1999/xlink" x="0px" y="0px"
	 viewBox="0 0 17.6 14" style="enable-background:new 0 0 17.6 14;" xml:space="preserve">
<g>
	<g>
		<path d="M7.3,0.5c-0.7,0-0.9,0.4-0.9,0.4S4.5,3.5,3.3,4.3C3.1,4.5,2.8,4.6,2.4,4.6h-1c-0.6,0-1.2,0.5-1.2,1.2v2.4
			c0,0.6,0.5,1.2,1.2,1.2h1c0.5,0,0.7,0.1,0.9,0.3c1.2,0.9,3.1,3.4,3.1,3.4s0.2,0.4,0.9,0.4c0.6,0,1.2-0.5,1.2-1.2V1.7
			C8.4,1,7.9,0.5,7.3,0.5z M16.1,3.4l-2.4,2.4l-2.4-2.4l-1.1,1.1L12.5,7l-2.4,2.4l1.1,1.1l2.4-2.4l2.4,2.4l1.1-1.1L14.7,7l2.4-2.4
			L16.1,3.4z"/>
	</g>
</g>
</svg>
