<?xml version="1.0" standalone="no"?>
<!DOCTYPE svg PUBLIC "-//W3C//DTD SVG 1.1//EN" "http://www.w3.org/Graphics/SVG/1.1/DTD/svg11.dtd" >
<svg xmlns="http://www.w3.org/2000/svg">
<metadata>Generated by IcoMoon</metadata>
<defs>
<font id="icomoon" horiz-adv-x="1024">
<font-face units-per-em="1024" ascent="960" descent="-64" />
<missing-glyph horiz-adv-x="1024" />
<glyph unicode="&#x20;" horiz-adv-x="512" d="" />
<glyph unicode="&#xe90d;" glyph-name="varashik" d="M459.776 520.704c0 0-93.184 24.576-151.552 13.312 0 0-50.176-2.048-58.368-99.328l72.704-11.264c1.024 0 17.408 90.112 137.216 97.28zM287.744 538.112c0 0-63.488-24.576-50.176-90.112 0 0-60.416-26.624-93.184 54.272 0 0-9.216 69.632 52.224 60.416l91.136-24.576zM132.096 522.752c0 0-7.168 76.8 61.44 52.224 0 0-9.216 31.744-67.584 72.704s-40.96-16.384-27.648-54.272c13.312-36.864 33.792-70.656 33.792-70.656zM118.784 818.688c0 0 74.752 15.36 112.64 52.224 37.888 37.888 80.896 29.696 112.64 31.744 31.744 3.072-138.24 58.368-225.28-83.968zM86.016 667.136c0 0 27.648 57.344 18.432 104.448s18.432 70.656 33.792 92.16c15.36 21.504-117.76-51.2-52.224-196.608zM359.424 920.064c0 0-31.744-27.648 90.112-45.056 0 0 54.272-24.576 63.488-65.536 0 0 31.744 101.376-153.6 110.592zM525.312 843.264c0 0-9.216-49.152 4.096-76.8s24.576-54.272 11.264-83.968c-13.312-29.696-2.048-43.008 18.432-58.368 0 0-18.432 56.32 11.264 78.848s33.792-82.944-5.12-108.544c0 0 97.28 54.272 24.576 157.696-73.728 102.4-64.512 91.136-64.512 91.136zM845.824 301.568c0 0-18.432 88.064-129.024 129.024s-225.28 4.096-252.928-35.84c0 0 0 71.68 129.024 67.584 0 0-67.584 78.848-183.296 31.744-115.712-46.080-126.976-216.064 33.792-171.008 0 0 4.096-125.952 172.032-126.976 0 0 104.448 5.12 164.864 35.84 0 0-142.336-2.048-180.224 35.84-36.864 35.84-18.432 76.8 55.296 98.304 72.704 20.48 160.768-17.408 190.464-64.512zM744.448 579.072c0 0 43.008-26.624 22.528-60.416 0 0 33.792-125.952 166.912-90.112 0 0-71.68 20.48-72.704 63.488 0 0 52.224 52.224 137.216-33.792-1.024 1.024-15.36 197.632-253.952 120.832zM754.688 524.8c0 0 13.312 33.792-26.624 50.176 0 0-129.024 18.432-211.968-54.272 0 0 45.056 2.048 60.416-31.744 0 0 29.696 65.536 81.92 71.68 0 0 84.992-18.432 96.256-35.84zM326.656 341.504c0 0-9.216 9.216-13.312 16.384 0 0-99.328-20.48-83.968-137.216 0 0 27.648-103.424 90.112-126.976 0 0 16.384-137.216 205.824-129.024 0 0-123.904 37.888-123.904 112.64 0 0 137.216 11.264 187.392-52.224 0 0-20.48 181.248-248.832 131.072 0 0-31.744 49.152-95.232 76.8 0 0 76.8 57.344 81.92 108.544zM312.32 386.56c0 0-185.344-74.752-148.48-258.048 0 0-101.376 112.64 95.232 277.504l67.584 11.264c0-1.024-3.072-23.552-14.336-30.72zM301.056 422.4c0 0-126.976-26.624-176.128-106.496 0 0-67.584-76.8-52.224-144.384 0 0-29.696 46.080 2.048 125.952 27.648 71.68 61.44 101.376 181.248 129.024l45.056-4.096zM237.568 436.736c0 0-183.296-9.216-205.824-172.032 0 0-27.648 131.072 123.904 178.176l81.92-6.144zM463.872 531.968l43.008-15.36c0 0-5.12 33.792 78.848 52.224 0 1.024-67.584 21.504-121.856-36.864zM450.56 536.064l-69.632 9.216c0 0 58.368 29.696 119.808 29.696 1.024 1.024-34.816-12.288-50.176-38.912z" />
<glyph unicode="&#xe90e;" glyph-name="virshab" d="M715.776 589.312c0-129.509-25.215-234.496-56.32-234.496s-56.32 104.987-56.32 234.496c0 129.509 25.215 234.496 56.32 234.496s56.32-104.987 56.32-234.496zM508.928 390.656c19.456 40.96 37.888 11.264 37.888 11.264 23.552-54.272 79.872-47.104 79.872-47.104-54.272 24.576-56.32 197.632-56.32 232.448s3.072 212.992 57.344 237.568c0 0-57.344 3.072-80.896-51.2 0 0-19.456-29.696-37.888 11.264-19.456 40.96-76.8 193.536-244.736 123.904-165.888-68.608-198.656-135.168-205.824-317.44v0c0-1.024 0-3.072 0-4.096s0-3.072 0-4.096v0c7.168-181.248 40.96-248.832 205.824-317.44 167.936-69.632 225.28 82.944 244.736 124.928zM718.848 691.712c0 0 101.376 128 157.696-96.256s-96.256-362.496 72.704-501.76c0 0-163.84-39.936-96.256 331.776 41.984 229.376-124.928 194.56-134.144 176.128v90.112zM711.68 552.448c0 0 121.856 41.984 129.024-60.416s-153.6-468.992 83.968-532.48c0 0-149.504-20.48-151.552 135.168-2.048 154.624 49.152 337.92 32.768 387.072-21.504 63.488-60.416 32.768-79.872 12.288-19.456-19.456-21.504 40.96-14.336 58.368z" />
<glyph unicode="&#xe2000;" glyph-name="auto" d="M987.136 596.48h-72.704c-5.12 0-11.264-2.048-15.36-6.144l-15.36-15.36c-26.624 60.416-64.512 120.832-114.688 183.296-27.648 33.792-68.608 53.248-111.616 53.248h-292.864c-43.008 0-83.968-19.456-111.616-53.248-52.224-64.512-89.088-122.88-114.688-183.296l-15.36 15.36c-4.096 4.096-9.216 6.144-15.36 6.144h-72.704c-12.288 0-21.504-9.216-21.504-21.504v-50.176c0-11.264 9.216-20.48 20.48-21.504l74.752-5.12c-11.264-32.768-20.48-82.944-20.48-152.576 0-60.416 12.288-100.352 32.768-125.952v-116.736c0-10.24 8.192-18.432 18.432-18.432h82.944c10.24 0 18.432 8.192 18.432 18.432v72.704h541.696v-72.704c0-10.24 8.192-18.432 18.432-18.432h82.944c10.24 0 18.432 8.192 18.432 18.432v117.76c21.504 25.6 32.768 65.536 32.768 125.952 0 69.632-9.216 118.784-20.48 152.576l74.752 5.12c11.264 1.024 20.48 10.24 20.48 21.504v50.176c-1.024 11.264-10.24 20.48-22.528 20.48zM314.368 708.096c12.288 15.36 30.72 23.552 50.176 23.552h292.864c19.456 0 37.888-8.192 50.176-23.552 35.84-44.032 63.488-84.992 86.016-126.976h-564.224c20.48 40.96 49.152 82.944 84.992 126.976zM252.928 264.704c-40.96 0-74.752 13.312-74.752 46.080s12.288 59.392 53.248 59.392 96.256-26.624 96.256-59.392c0-32.768-32.768-46.080-74.752-46.080zM589.824 271.872h-157.696c-23.552 0-43.008 19.456-43.008 43.008 0 6.144 5.12 12.288 12.288 12.288h219.136c6.144 0 12.288-5.12 12.288-12.288 0-23.552-19.456-43.008-43.008-43.008zM769.024 264.704c-40.96 0-74.752 13.312-74.752 46.080s55.296 59.392 96.256 59.392c40.96 0 53.248-26.624 53.248-59.392s-33.792-46.080-74.752-46.080z" />
<glyph unicode="&#xe2001;" glyph-name="jokes" d="M947.2 931.328c-5.12 6.144-13.312 9.216-21.504 9.216h-1.024c-67.584-35.84-227.328-61.44-414.72-61.44s-346.112 25.6-414.72 61.44v0c-6.144 0-13.312-3.072-19.456-9.216-5.12-5.12-8.192-13.312-7.168-21.504l51.2-599.040c20.48-201.728 189.44-355.328 392.192-355.328s371.712 153.6 392.192 355.328l51.2 599.040c0 8.192-2.048 16.384-8.192 21.504zM227.328 554.496c-8.192 11.264-5.12 26.624 5.12 34.816 11.264 8.192 26.624 5.12 34.816-5.12 14.336-20.48 35.84-30.72 64.512-30.72 18.432 0 53.248 3.072 69.632 23.552 9.216 10.24 24.576 11.264 34.816 3.072 10.24-9.216 11.264-24.576 3.072-34.816-22.528-26.624-59.392-40.96-107.52-40.96-44.032-1.024-79.872 16.384-104.448 50.176zM615.424 203.264c-50.176-60.416-136.192-83.968-212.992-52.224s-119.808 108.544-112.64 187.392c1.024 7.168 5.12 14.336 11.264 18.432s14.336 4.096 21.504 2.048l284.672-118.784c7.168-3.072 12.288-9.216 13.312-16.384 2.048-7.168 0-14.336-5.12-20.48zM700.416 504.32c-60.416-13.312-114.688 4.096-121.856 37.888s35.84 71.68 96.256 84.992c60.416 13.312 114.688-4.096 121.856-37.888 7.168-34.816-35.84-72.704-96.256-84.992z" />
<glyph unicode="&#xe2002;" glyph-name="cricket" d="M687.104 166.4c-15.36 74.752 25.6 150.528 36.864 226.304 20.48 23.552 28.672 57.344 11.264 92.16-50.176 99.328-126.976 178.176-197.632 263.168-67.584 80.896-182.272-35.84-115.712-116.736 20.48-24.576 40.96-48.128 61.44-71.68 2.048-46.080-1.024-91.136-23.552-129.024-12.288-20.48-6.144-38.912 7.168-51.2l-15.36-40.96-25.6 9.216-113.664-302.080c0 0 23.552-74.752 87.040-31.744 20.48 54.272 114.688 301.056 114.688 301.056l-25.6 10.24 15.36 40.96c12.288 1.024 24.576 7.168 32.768 20.48 13.312 22.528 21.504 46.080 26.624 70.656 11.264-17.408 22.528-35.84 31.744-54.272 5.12-10.24 11.264-18.432 18.432-24.576-13.312-71.68-45.056-138.24-34.816-214.016 7.168-55.296 23.552-109.568 41.984-161.792 23.552-65.536 129.024-37.888 105.472 28.672-16.384 44.032-28.672 89.088-38.912 135.168zM325.632 854.528c0-5.12 1.024-9.216 2.048-14.336 1.024-3.072 2.048-6.144 3.072-9.216l-23.552-19.456c-2.048-2.048-2.048-4.096-1.024-6.144 2.048-2.048 41.984-50.176 78.848-39.936 5.12 1.024 10.24 4.096 14.336 7.168 0 0 1.024 1.024 1.024 1.024l4.096 6.144c8.192 0 15.36 1.024 23.552 3.072 44.032 12.288 69.632 57.344 57.344 101.376s-57.344 69.632-101.376 57.344c-33.792-9.216-56.32-37.888-60.416-70.656l-43.008-11.264 4.096-14.336 40.96 9.216zM395.264 780.8l-1.024-2.048c-12.288-9.216-27.648-7.168-39.936 0l11.264 13.312c8.192-6.144 18.432-10.24 29.696-11.264zM357.376 797.184l-11.264-12.288c0 0 0-1.024-1.024-1.024-12.288 8.192-22.528 18.432-27.648 24.576l18.432 15.36c5.12-11.264 12.288-20.48 21.504-26.624zM285.696 482.816c-10.24 0-18.432-8.192-18.432-18.432v-374.784c0-10.24 8.192-18.432 18.432-18.432s18.432 8.192 18.432 18.432v374.784c0 10.24-8.192 18.432-18.432 18.432zM379.904 464.384c0 10.24-8.192 18.432-18.432 18.432s-19.456-8.192-19.456-18.432v-289.792l37.888 99.328v190.464zM454.656 460.288v3.072c0 10.24-8.192 18.432-18.432 18.432s-18.432-8.192-18.432-18.432v-93.184l2.048 5.12 25.6-9.216c-13.312 21.504-13.312 47.104 0 70.656 3.072 8.192 6.144 15.36 9.216 23.552zM354.304 493.056c0 5.12-4.096 10.24-10.24 10.24h-48.128c-5.12 0-10.24-4.096-10.24-10.24 0-5.12 4.096-10.24 10.24-10.24h48.128c5.12 0 10.24 4.096 10.24 10.24zM424.96 503.296h-48.128c-5.12 0-10.24-4.096-10.24-10.24 0-5.12 4.096-10.24 10.24-10.24h48.128c5.12 0 10.24 4.096 10.24 10.24 0 5.12-4.096 10.24-10.24 10.24z" />
<glyph unicode="&#xe2003;" glyph-name="business" d="M1015.808 7.68v-62.464h-1007.616v1006.592h63.488v-944.128h944.128zM458.752 601.6l257.024-64.512 89.088 148.48 80.896-48.128 4.096 250.88-220.16-121.856 80.896-48.128-64.512-108.544-246.784 61.44-264.192-264.192 44.032-44.032 239.616 238.592zM386.048 70.144h125.952v453.632l-33.792 8.192-92.16-92.16v-369.664zM197.632 296.448v-225.28h125.952v307.2l-104.448-104.448-21.504 22.528zM763.904 495.104v-424.96h125.952v491.52l-63.488 37.888-62.464-104.448zM700.416 70.144v406.528l-125.952 31.744v-437.248h125.952z" />
<glyph unicode="&#xe2004;" glyph-name="national" d="M513.024 949.76c-277.504 0-502.784-225.28-502.784-502.784s225.28-502.784 502.784-502.784 502.784 225.28 502.784 502.784-226.304 502.784-502.784 502.784zM878.592 647.68c21.504 0 41.984-14.336 51.2-36.864 7.168-16.384 6.144-34.816-1.024-49.152s-21.504-24.576-40.96-28.672c-31.744-7.168-154.624-32.768-243.712-52.224-16.384-3.072-32.768-6.144-44.032-6.144 7.168 7.168 19.456 16.384 35.84 26.624 52.224 34.816 178.176 116.736 208.896 136.192 11.264 7.168 23.552 10.24 33.792 10.24zM790.528 775.68c15.36 0 30.72-6.144 41.984-18.432 12.288-12.288 19.456-29.696 17.408-46.080-1.024-16.384-10.24-30.72-26.624-41.984-25.6-18.432-125.952-87.040-205.824-141.312-16.384-11.264-29.696-18.432-37.888-22.528 4.096 9.216 11.264 22.528 22.528 37.888 54.272 79.872 122.88 179.2 141.312 205.824 12.288 17.408 28.672 26.624 47.104 26.624zM661.504 860.672c8.192 0 16.384-2.048 23.552-5.12 16.384-7.168 29.696-20.48 33.792-35.84 5.12-15.36 2.048-32.768-8.192-49.152-17.408-26.624-82.944-129.024-136.192-208.896-10.24-16.384-20.48-28.672-26.624-35.84 0 10.24 2.048 24.576 6.144 44.032 13.312 61.44 44.032 208.896 52.224 243.712 7.168 29.696 27.648 47.104 55.296 47.104zM565.248 438.784c0-28.672-23.552-53.248-53.248-53.248-28.672 0-53.248 23.552-53.248 53.248 0 28.672 23.552 53.248 53.248 53.248 29.696-1.024 53.248-24.576 53.248-53.248zM466.944 869.888c10.24 12.288 27.648 20.48 45.056 20.48s34.816-7.168 45.056-20.48c10.24-12.288 14.336-29.696 11.264-48.128-6.144-33.792-30.72-167.936-45.056-244.736-4.096-22.528-8.192-38.912-11.264-48.128-3.072 9.216-7.168 26.624-11.264 48.128-14.336 76.8-39.936 211.968-45.056 244.736-3.072 19.456 1.024 35.84 11.264 48.128zM305.152 819.712c5.12 15.36 17.408 29.696 33.792 35.84 7.168 3.072 16.384 5.12 23.552 5.12 27.648 0 48.128-17.408 54.272-47.104 8.192-34.816 38.912-182.272 52.224-243.712 4.096-19.456 6.144-33.792 6.144-44.032-7.168 7.168-16.384 19.456-26.624 35.84-51.2 80.896-117.76 182.272-135.168 208.896-10.24 17.408-13.312 33.792-8.192 49.152zM192.512 758.272c11.264 11.264 26.624 18.432 41.984 18.432 18.432 0 33.792-9.216 46.080-26.624 14.336-20.48 62.464-89.088 141.312-205.824 11.264-16.384 18.432-29.696 22.528-37.888-9.216 4.096-22.528 11.264-37.888 22.528-115.712 78.848-185.344 126.976-205.824 141.312-16.384 11.264-24.576 25.6-26.624 41.984 0 16.384 6.144 32.768 18.432 46.080zM95.232 611.84c9.216 22.528 29.696 36.864 51.2 36.864 11.264 0 22.528-4.096 33.792-10.24 21.504-13.312 89.088-57.344 208.896-136.192 16.384-10.24 28.672-20.48 35.84-26.624-11.264 1.024-27.648 3.072-44.032 6.144-140.288 29.696-220.16 46.080-243.712 52.224-19.456 4.096-32.768 14.336-40.96 28.672-7.168 13.312-8.192 32.768-1.024 49.152zM60.416 438.784c0 28.672 19.456 57.344 55.296 57.344 4.096 0 8.192 0 13.312-1.024 30.72-5.12 150.528-27.648 244.736-45.056 22.528-4.096 38.912-8.192 48.128-11.264-9.216-3.072-26.624-7.168-48.128-11.264-94.208-17.408-214.016-39.936-244.736-45.056-44.032-8.192-68.608 23.552-68.608 56.32zM95.232 265.728c-7.168 16.384-6.144 34.816 1.024 49.152s21.504 24.576 40.96 28.672c32.768 7.168 166.912 35.84 243.712 52.224 16.384 3.072 32.768 6.144 44.032 6.144-7.168-7.168-19.456-16.384-35.84-26.624-117.76-76.8-188.416-122.88-208.896-136.192-33.792-20.48-71.68-7.168-84.992 26.624zM235.52 100.864c-15.36 0-30.72 6.144-41.984 18.432-12.288 12.288-19.456 29.696-17.408 46.080 1.024 16.384 10.24 30.72 26.624 41.984 20.48 14.336 89.088 62.464 205.824 141.312 16.384 11.264 29.696 18.432 37.888 22.528-4.096-9.216-11.264-22.528-22.528-37.888-78.848-115.712-126.976-185.344-141.312-205.824-13.312-17.408-29.696-26.624-47.104-26.624zM363.52 15.872c-8.192 0-16.384 2.048-23.552 5.12-16.384 7.168-29.696 20.48-33.792 35.84-5.12 15.36-2.048 32.768 8.192 49.152 13.312 21.504 59.392 91.136 136.192 208.896 10.24 16.384 20.48 28.672 26.624 35.84-1.024-10.24-2.048-24.576-6.144-44.032-13.312-61.44-44.032-208.896-52.224-243.712-7.168-29.696-27.648-47.104-55.296-47.104zM558.080 6.656c-10.24-12.288-27.648-20.48-45.056-20.48s-34.816 7.168-45.056 20.48c-10.24 12.288-14.336 29.696-11.264 48.128 6.144 33.792 30.72 167.936 45.056 244.736 4.096 22.528 8.192 38.912 11.264 48.128 3.072-9.216 7.168-26.624 11.264-48.128 14.336-76.8 39.936-211.968 45.056-244.736 3.072-19.456-1.024-35.84-11.264-48.128zM719.872 56.832c-5.12-15.36-17.408-29.696-33.792-35.84-7.168-3.072-16.384-5.12-24.576-5.12-27.648 0-48.128 17.408-54.272 47.104-7.168 32.768-35.84 166.912-52.224 243.712-4.096 19.456-6.144 33.792-6.144 44.032 7.168-7.168 16.384-19.456 26.624-35.84 52.224-80.896 118.784-182.272 136.192-208.896 10.24-16.384 13.312-33.792 8.192-49.152zM832.512 118.272c-11.264-11.264-26.624-18.432-41.984-18.432-18.432 0-33.792 9.216-47.104 26.624-18.432 25.6-87.040 125.952-141.312 205.824-11.264 16.384-18.432 29.696-22.528 37.888 9.216-4.096 22.528-11.264 37.888-22.528 79.872-54.272 179.2-122.88 205.824-141.312 16.384-11.264 24.576-25.6 26.624-41.984 2.048-15.36-5.12-32.768-17.408-46.080zM930.816 265.728c-14.336-33.792-51.2-47.104-84.992-25.6-26.624 17.408-129.024 82.944-208.896 136.192-16.384 10.24-28.672 20.48-35.84 26.624 11.264-1.024 27.648-3.072 44.032-6.144 94.208-19.456 212.992-45.056 243.712-52.224 19.456-4.096 32.768-14.336 40.96-28.672 7.168-15.36 7.168-33.792 1.024-50.176zM896 381.44c-24.576 4.096-107.52 19.456-244.736 46.080-22.528 4.096-38.912 8.192-48.128 11.264 9.216 3.072 26.624 7.168 48.128 11.264 138.24 25.6 220.16 40.96 244.736 45.056 45.056 7.168 68.608-24.576 68.608-56.32 0-32.768-23.552-64.512-68.608-57.344z" />
<glyph unicode="&#xe2005;" glyph-name="rajye2" d="M976.896 934.4h-695.296c-8.192 0-15.36-7.168-15.36-15.36v-61.44h-112.64c-4.096 0-8.192-2.048-11.264-5.12s-4.096-8.192-4.096-12.288l6.144-44.032h-103.424c-5.12 0-9.216-2.048-12.288-6.144s-4.096-9.216-2.048-13.312l231.424-792.576c2.048-7.168 8.192-11.264 14.336-11.264h704.512c8.192 0 15.36 7.168 15.36 15.36v930.816c0 8.192-7.168 15.36-15.36 15.36v0zM267.264 827.904v-704.512l-95.232 704.512h95.232zM149.504 766.464l75.776-560.128-163.84 560.128h88.064zM961.536 4.608h-664.576v899.072h664.576v-899.072zM563.2 783.872h-241.664v68.608h241.664v-68.608zM939.008 783.872h-241.664v68.608h241.664v-68.608zM578.56 817.664c0 27.648 22.528 51.2 51.2 51.2 27.648 0 51.2-22.528 51.2-51.2 0-27.648-22.528-51.2-51.2-51.2s-51.2 23.552-51.2 51.2v0zM903.168 446.976h-205.824v231.424h205.824v-231.424zM599.040 644.608h-252.928v25.6h252.928v-25.6zM346.112 571.904h252.928v-25.6h-252.928v25.6zM349.184 472.576h252.928v-25.6h-252.928v25.6zM346.112 372.224h557.056v-25.6h-557.056v25.6zM346.112 272.896h557.056v-25.6h-557.056v25.6zM346.112 173.568h557.056v-25.6h-557.056v25.6z" />
<glyph unicode="&#xe2006;" glyph-name="astro-logy" d="M261.12 386.56c-6.144 0-10.24 5.12-10.24 10.24 0 138.24 112.64 249.856 249.856 249.856 6.144 0 10.24-5.12 10.24-10.24 0-6.144-5.12-10.24-10.24-10.24-125.952 0-228.352-102.4-228.352-228.352-1.024-7.168-5.12-11.264-11.264-11.264v0zM534.528 802.304c-6.144 0-10.24 5.12-10.24 10.24 0 9.216-25.6 34.816-34.816 34.816-6.144 0-10.24 5.12-10.24 10.24 0 6.144 5.12 10.24 10.24 10.24 9.216 0 34.816 25.6 34.816 34.816 0 6.144 5.12 10.24 10.24 10.24 6.144 0 10.24-5.12 10.24-10.24 0-9.216 25.6-34.816 34.816-34.816 6.144 0 10.24-5.12 10.24-10.24 0-6.144-5.12-10.24-10.24-10.24-9.216 0-34.816-25.6-34.816-34.816 0-6.144-5.12-10.24-10.24-10.24v0zM514.048 857.6c7.168-5.12 14.336-13.312 20.48-20.48 5.12 7.168 13.312 15.36 20.48 20.48-7.168 5.12-15.36 13.312-20.48 20.48-6.144-7.168-13.312-14.336-20.48-20.48v0zM162.816 543.232c-6.144 0-10.24 5.12-10.24 10.24 0 15.36-37.888 53.248-53.248 53.248-6.144 0-10.24 5.12-10.24 10.24 0 6.144 5.12 10.24 10.24 10.24 15.36 0 53.248 37.888 53.248 53.248 0 6.144 5.12 10.24 10.24 10.24 6.144 0 10.24-5.12 10.24-10.24 0-15.36 37.888-53.248 53.248-53.248 6.144 0 10.24-5.12 10.24-10.24 0-6.144-5.12-10.24-10.24-10.24-15.36 0-53.248-37.888-53.248-53.248 0-5.12-4.096-10.24-10.24-10.24v0zM126.976 617.984c13.312-9.216 27.648-22.528 35.84-35.84 9.216 13.312 22.528 27.648 35.84 35.84-13.312 9.216-27.648 22.528-35.84 35.84-9.216-13.312-22.528-26.624-35.84-35.84v0zM864.256 464.384c-6.144 0-10.24 5.12-10.24 10.24 0 3.072-5.12 13.312-16.384 24.576s-21.504 16.384-24.576 16.384c-6.144 0-10.24 5.12-10.24 10.24 0 6.144 5.12 10.24 10.24 10.24 3.072 0 13.312 5.12 24.576 16.384s16.384 21.504 16.384 24.576c0 6.144 5.12 10.24 10.24 10.24 6.144 0 10.24-5.12 10.24-10.24 0-3.072 5.12-13.312 16.384-24.576s21.504-16.384 24.576-16.384c6.144 0 10.24-5.12 10.24-10.24 0-6.144-5.12-10.24-10.24-10.24-3.072 0-13.312-5.12-24.576-16.384s-16.384-21.504-16.384-24.576c1.024-5.12-4.096-10.24-10.24-10.24v0zM838.656 526.848c9.216-7.168 18.432-15.36 25.6-25.6 7.168 9.216 15.36 18.432 25.6 25.6-9.216 7.168-18.432 15.36-25.6 25.6-6.144-10.24-15.36-19.456-25.6-25.6v0zM664.576 685.568c-6.144 0-10.24 5.12-10.24 10.24 0 19.456-45.056 64.512-64.512 64.512-6.144 0-10.24 5.12-10.24 10.24 0 6.144 5.12 10.24 10.24 10.24 19.456 0 64.512 45.056 64.512 64.512 0 6.144 5.12 10.24 10.24 10.24 6.144 0 10.24-5.12 10.24-10.24 0-19.456 45.056-64.512 64.512-64.512 6.144 0 10.24-5.12 10.24-10.24 0-6.144-5.12-10.24-10.24-10.24-19.456 0-64.512-45.056-64.512-64.512 1.024-5.12-4.096-10.24-10.24-10.24v0zM618.496 772.608c17.408-11.264 34.816-28.672 46.080-46.080 11.264 17.408 28.672 35.84 46.080 46.080-17.408 11.264-35.84 28.672-46.080 46.080-10.24-17.408-28.672-35.84-46.080-46.080v0zM722.944 56.832h-6.144l-29.696 102.4c70.656 54.272 115.712 141.312 115.712 237.568 0 166.912-136.192 303.104-303.104 303.104s-303.104-136.192-303.104-303.104c0-96.256 46.080-183.296 116.736-238.592l-29.696-102.4h-6.144c-18.432 0-33.792-15.36-33.792-33.792v-6.144c0-18.432 15.36-33.792 33.792-33.792h445.44c18.432 0 33.792 15.36 33.792 33.792v6.144c-1.024 19.456-15.36 34.816-33.792 34.816v0zM219.136 396.8c0 155.648 125.952 281.6 281.6 281.6 154.624 0 281.6-125.952 281.6-281.6s-125.952-281.6-281.6-281.6c-155.648 0-281.6 126.976-281.6 281.6v0zM331.776 144.896c48.128-31.744 105.472-51.2 167.936-51.2s119.808 18.432 167.936 51.2l26.624-89.088h-388.096l25.6 89.088zM735.232 16.896c0-6.144-5.12-12.288-12.288-12.288h-445.44c-6.144 0-12.288 5.12-12.288 12.288v6.144c0 6.144 5.12 12.288 12.288 12.288h445.44c6.144 0 12.288-5.12 12.288-12.288v-6.144z" />
<glyph unicode="&#xe2007;" glyph-name="education" d="M244.736 384.512v-137.216c0 0 116.736-129.024 280.576-129.024 205.824 0 280.576 129.024 280.576 129.024v148.48l-242.688-141.312c-17.408-10.24-38.912-10.24-56.32-2.048l-262.144 132.096zM530.432 548.352c-30.72 0-60.416 6.144-76.8 19.456l-290.816-100.352 345.088-173.056c17.408-9.216 38.912-8.192 56.32 2.048l402.432 233.472c18.432 11.264 29.696 31.744 29.696 53.248-1.024 21.504-13.312 40.96-32.768 51.2l-416.768 207.872c-17.408 9.216-38.912 8.192-56.32-2.048l-401.408-233.472c-18.432-11.264-29.696-31.744-29.696-53.248 1.024-21.504 13.312-40.96 32.768-51.2l-1.024-212.992c-20.48-7.168-35.84-26.624-35.84-50.176 0-17.408 8.192-32.768 20.48-41.984-4.096-29.696-17.408-50.176-33.792-65.536-13.312-12.288-19.456-29.696-18.432-47.104s10.24-33.792 24.576-44.032l7.168-5.12c13.312-9.216 30.72-13.312 47.104-9.216s30.72 14.336 38.912 28.672c28.672 50.176 14.336 116.736 5.12 147.456 9.216 9.216 15.36 23.552 15.36 37.888 0 23.552-14.336 43.008-34.816 50.176l1.024 202.752 315.392 108.544c3.072 13.312 16.384 25.6 16.384 25.6-1.024-3.072 1.024-48.128 67.584-48.128 37.888 0 69.632 12.288 69.632 36.864 0 5.12-1.024 9.216-3.072 14.336 10.24-13.312 17.408-28.672 17.408-40.96 0-26.624-35.84-40.96-80.896-40.96v0z" />
<glyph unicode="&#xe2008;" glyph-name="entertainment" d="M798.72 284.16h-535.552c-10.24 0-18.432-8.192-18.432-18.432s8.192-18.432 18.432-18.432h535.552c10.24 0 18.432 8.192 18.432 18.432 0 9.216-8.192 18.432-18.432 18.432v0zM798.72 137.728h-535.552c-10.24 0-18.432-8.192-18.432-18.432s8.192-18.432 18.432-18.432h535.552c10.24 0 18.432 8.192 18.432 18.432s-8.192 18.432-18.432 18.432v0zM917.504 572.928h-650.24l621.568 192.512c10.24 3.072 15.36 13.312 12.288 23.552l-39.936 125.952c-1.024 5.12-5.12 8.192-9.216 11.264-4.096 2.048-9.216 3.072-14.336 1.024l-738.304-228.352c-10.24-3.072-15.36-13.312-12.288-23.552l37.888-123.904v-593.92c0-10.24 8.192-18.432 18.432-18.432h773.12c10.24 0 18.432 8.192 18.432 18.432v596.992c1.024 10.24-7.168 18.432-17.408 18.432v0zM813.056 536.064l-95.232-95.232h-119.808l95.232 95.232h119.808zM641.024 536.064l-95.232-95.232h-120.832l95.232 95.232h120.832zM467.968 536.064l-95.232-95.232h-119.808l95.232 95.232h119.808zM295.936 536.064l-95.232-95.232h-37.888v95.232h133.12zM831.488 886.272l28.672-91.136-35.84-11.264-119.808 63.488 126.976 38.912zM654.336 832l119.808-63.488-114.688-35.84-119.808 63.488 114.688 35.84zM489.472 780.8l119.808-63.488-114.688-35.84-119.808 63.488 114.688 35.84zM324.608 729.6l119.808-63.488-114.688-35.84-119.808 63.488 114.688 35.84zM128 669.184l31.744 10.24 119.808-63.488-122.88-37.888-28.672 91.136zM899.072-23.040h-736.256v427.008h736.256v-427.008zM899.072 440.832h-129.024l95.232 95.232h33.792v-95.232z" />
<glyph unicode="&#xe2010;" glyph-name="gadgets" d="M717.824 939.52h-412.672c-39.936 0-71.68-32.768-71.68-71.68v-839.68c0-39.936 32.768-71.68 71.68-71.68h412.672c39.936 0 71.68 32.768 71.68 71.68v839.68c1.024 38.912-31.744 71.68-71.68 71.68v0zM266.24 808.448h491.52v-622.592h-491.52v622.592zM305.152 906.752h412.672c22.528 0 39.936-17.408 39.936-38.912v-26.624h-491.52v26.624c0 21.504 17.408 38.912 38.912 38.912v0zM717.824-10.752h-412.672c-21.504 0-38.912 17.408-38.912 38.912v124.928h491.52v-124.928c0-21.504-17.408-38.912-39.936-38.912v0zM512 136.704c-35.84 0-65.536-29.696-65.536-65.536s29.696-65.536 65.536-65.536c35.84 0 65.536 29.696 65.536 65.536s-29.696 65.536-65.536 65.536v0zM512 38.4c-18.432 0-32.768 14.336-32.768 32.768s14.336 32.768 32.768 32.768c18.432 0 32.768-14.336 32.768-32.768s-14.336-32.768-32.768-32.768v0zM446.464 857.6h65.536c9.216 0 16.384 7.168 16.384 16.384s-7.168 16.384-16.384 16.384h-65.536c-9.216 0-16.384-7.168-16.384-16.384s7.168-16.384 16.384-16.384v0zM561.152 857.6h16.384c9.216 0 16.384 7.168 16.384 16.384s-7.168 16.384-16.384 16.384h-16.384c-9.216 0-16.384-7.168-16.384-16.384s7.168-16.384 16.384-16.384v0zM948.224 864.768c-6.144 6.144-16.384 6.144-23.552 0-6.144-6.144-6.144-16.384 0-23.552 61.44-61.44 61.44-160.768 0-222.208-6.144-6.144-6.144-16.384 0-23.552 3.072-3.072 7.168-5.12 11.264-5.12s8.192 2.048 11.264 5.12c74.752 74.752 74.752 195.584 1.024 269.312v0zM878.592 826.88c-6.144 6.144-16.384 6.144-23.552 0-6.144-6.144-6.144-16.384 0-23.552 20.48-20.48 31.744-47.104 31.744-75.776s-11.264-55.296-31.744-75.776c-6.144-6.144-6.144-16.384 0-23.552 3.072-3.072 7.168-5.12 11.264-5.12s8.192 2.048 11.264 5.12c26.624 26.624 40.96 61.44 40.96 99.328 1.024 37.888-13.312 73.728-39.936 99.328v0zM99.328 841.216c6.144 6.144 6.144 16.384 0 23.552-6.144 6.144-17.408 6.144-23.552 0-73.728-73.728-73.728-194.56 0-268.288 3.072-3.072 7.168-5.12 11.264-5.12s8.192 2.048 11.264 5.12c6.144 6.144 6.144 16.384 0 23.552-60.416 60.416-60.416 159.744 1.024 221.184v0zM167.936 832c-6.144 6.144-16.384 6.144-23.552 0-26.624-26.624-40.96-61.44-40.96-99.328s14.336-72.704 40.96-99.328c3.072-3.072 7.168-5.12 11.264-5.12s8.192 2.048 11.264 5.12c6.144 6.144 6.144 16.384 0 23.552-20.48 20.48-31.744 47.104-31.744 75.776s11.264 55.296 31.744 75.776c7.168 7.168 7.168 17.408 1.024 23.552v0z" />
<glyph unicode="&#xe2011;" glyph-name="health" d="M941.056 450.048l-17.408 35.84c-1.024 3.072-4.096 5.12-7.168 6.144s-7.168 1.024-10.24-1.024l-225.28-111.616c-6.144-3.072-9.216-11.264-6.144-17.408l17.408-35.84c1.024-3.072 4.096-5.12 7.168-6.144 1.024 0 3.072-1.024 4.096-1.024 2.048 0 4.096 0 6.144 1.024l68.608 33.792v-186.368h-112.64c2.048 3.072 3.072 6.144 4.096 9.216 6.144 13.312 6.144 28.672 0 43.008l-81.92 197.632c4.096 11.264 7.168 22.528 9.216 34.816h30.72c30.72 0 56.32 25.6 56.32 56.32s-25.6 56.32-56.32 56.32h-29.696v8.192c0 34.816-16.384 66.56-41.984 86.016 59.392 14.336 102.4 68.608 102.4 131.072 0 74.752-60.416 135.168-135.168 135.168s-135.168-60.416-135.168-135.168c0-44.032 20.48-81.92 52.224-107.52h-5.12c-32.768 0-62.464-12.288-86.016-34.816l-74.752-72.704c-10.24-10.24-16.384-24.576-16.384-39.936s6.144-28.672 16.384-39.936l89.088-89.088c3.072-3.072 6.144-6.144 10.24-8.192l-43.008-41.984-57.344 57.344c-21.504 21.504-56.32 22.528-78.848 2.048-11.264-10.24-17.408-24.576-17.408-39.936s5.12-29.696 16.384-40.96l97.28-97.28c10.24-10.24 24.576-16.384 39.936-16.384s28.672 6.144 39.936 16.384l91.136 91.136c14.336 1.024 26.624 3.072 39.936 7.168l65.536-156.672c1.024-3.072 3.072-6.144 4.096-9.216h-424.96c-36.864 0-66.56-29.696-66.56-66.56 0-17.408 7.168-34.816 19.456-47.104 6.144-6.144 14.336-11.264 22.528-15.36v-30.72c0-20.48 16.384-36.864 36.864-36.864 10.24 0 19.456 4.096 25.6 10.24 7.168 7.168 10.24 16.384 10.24 25.6v26.624h583.68v-26.624c0-20.48 16.384-36.864 36.864-36.864s36.864 16.384 36.864 36.864v30.72c24.576 10.24 41.984 33.792 41.984 61.44 0 17.408-7.168 34.816-19.456 47.104-6.144 6.144-14.336 11.264-22.528 14.336v229.376l82.944 40.96c7.168 3.072 10.24 11.264 6.144 17.408v0zM710.656 349.696l-6.144 13.312 74.752 36.864v-16.384l-68.608-33.792zM627.712 538.112c16.384 0 29.696-13.312 29.696-29.696s-13.312-29.696-29.696-29.696h-29.696v60.416h29.696zM413.696 790.016c0 60.416 49.152 109.568 109.568 109.568s109.568-49.152 109.568-109.568c0-60.416-49.152-109.568-109.568-109.568-59.392 0-109.568 49.152-109.568 109.568v0zM455.68 353.792c-3.072 0-7.168-1.024-9.216-4.096l-94.208-94.208c-6.144-6.144-13.312-9.216-21.504-9.216s-15.36 3.072-21.504 9.216l-97.28 97.28c-6.144 6.144-9.216 13.312-9.216 21.504s3.072 15.36 9.216 21.504c5.12 5.12 13.312 8.192 20.48 8.192 8.192 0 16.384-3.072 22.528-9.216l66.56-66.56c5.12-5.12 13.312-5.12 18.432 0 0 0 62.464 62.464 62.464 62.464 1.024 0 1.024 0 2.048 0 15.36 0 29.696 6.144 39.936 17.408 20.48 21.504 19.456 57.344-2.048 78.848l-49.152 49.152 38.912 38.912c5.12 5.12 5.12 13.312 0 18.432s-13.312 5.12-18.432 0l-48.128-48.128c-5.12-5.12-5.12-13.312 0-18.432l58.368-58.368c11.264-11.264 12.288-30.72 1.024-41.984-5.12-6.144-12.288-9.216-20.48-9.216-3.072 0-13.312 0-21.504 9.216l-89.088 89.088c-6.144 6.144-9.216 13.312-9.216 21.504s3.072 15.36 8.192 21.504l74.752 72.704c18.432 17.408 43.008 27.648 68.608 27.648h52.224c47.104 0 84.992-37.888 84.992-84.992v-102.4c-1.024-65.536-53.248-117.76-117.76-117.76v0zM606.208 171.52c-7.168 3.072-13.312 9.216-16.384 16.384l-65.536 157.696c19.456 10.24 34.816 25.6 48.128 43.008l73.728-177.152c3.072-7.168 3.072-15.36 0-22.528s-9.216-13.312-16.384-16.384c-4.096-1.024-7.168-2.048-11.264-2.048v0c-4.096-1.024-8.192-1.024-12.288 1.024v0zM169.984 9.728c0-3.072-1.024-5.12-3.072-7.168s-5.12-3.072-7.168-3.072c-6.144 0-11.264 5.12-11.264 11.264v26.624h21.504v-27.648zM146.432 61.952c-11.264 0-21.504 4.096-28.672 12.288-8.192 8.192-12.288 18.432-12.288 28.672 0 22.528 18.432 40.96 40.96 40.96h632.832v-81.92h-632.832zM826.368 9.728c0-6.144-5.12-11.264-11.264-11.264s-11.264 5.12-11.264 11.264v395.264c0 6.144 5.12 11.264 11.264 11.264s11.264-5.12 11.264-11.264v-395.264zM856.064 131.584c8.192-8.192 12.288-18.432 12.288-28.672 0-13.312-6.144-24.576-16.384-32.768v64.512c2.048-1.024 3.072-2.048 4.096-3.072v0zM849.92 419.328c-2.048 4.096-5.12 8.192-8.192 12.288l64.512 32.768 6.144-13.312-62.464-31.744z" />
<glyph unicode="&#xe2013;" glyph-name="khel" d="M507.904 935.424c-266.24 0-483.328-217.088-483.328-483.328s217.088-483.328 483.328-483.328c266.24 0 483.328 217.088 483.328 483.328s-217.088 483.328-483.328 483.328v0zM955.392 380.416l-58.368 97.28 40.96 118.784c15.36-45.056 23.552-94.208 23.552-144.384-1.024-24.576-3.072-48.128-6.144-71.68v0zM840.704 145.92c-2.048 1.024-4.096 1.024-6.144 0l-146.432-23.552c0 2.048-1.024 3.072-2.048 5.12l-81.92 138.24 134.144 206.848h126.976c0-2.048 1.024-3.072 2.048-5.12l78.848-131.072c-19.456-71.68-56.32-137.216-105.472-190.464v0zM689.152 91.648l115.712 18.432c-50.176-44.032-110.592-76.8-177.152-95.232l61.44 76.8zM216.064 797.184c75.776 64.512 174.080 104.448 281.6 106.496 1.024-2.048 2.048-4.096 4.096-6.144l82.944-78.848-32.768-122.88-215.040-82.944c-1.024 1.024-1.024 1.024-2.048 2.048l-134.144 70.656 15.36 111.616zM604.16 842.24l-64.512 61.44c59.392-4.096 114.688-19.456 165.888-44.032l-101.376-17.408zM356.352 350.72l-12.288 234.496 219.136 83.968 148.48-182.272-129.024-197.632-226.304 61.44zM919.552 639.488c0-1.024-1.024-1.024-1.024-2.048l-45.056-134.144h-137.216l-154.624 191.488 31.744 118.784 124.928 20.48c3.072 0 5.12 2.048 7.168 3.072 75.776-47.104 137.216-115.712 174.080-197.632v0zM180.224 764.416l-12.288-83.968-80.896-60.416c22.528 54.272 54.272 103.424 93.184 144.384v0zM70.656 570.88c1.024 0 1.024 1.024 2.048 1.024l116.736 87.040 122.88-65.536 13.312-256c0 0 0-1.024 0-1.024l-115.712-114.688c-1.024-1.024-2.048-2.048-2.048-3.072l-111.616 47.104c0 0-1.024 0-1.024 0-25.6 56.32-39.936 119.808-39.936 185.344 0 41.984 5.12 81.92 15.36 119.808v0zM116.736 224.768l81.92-34.816 62.464-116.736c-59.392 37.888-108.544 90.112-144.384 151.552v0zM309.248 45.568c0 1.024 0 2.048-1.024 3.072l-79.872 149.504c1.024 1.024 2.048 1.024 3.072 2.048l120.832 119.808 219.136-58.368 89.088-149.504c1.024-1.024 2.048-2.048 3.072-3.072l-81.92-103.424c-23.552-4.096-48.128-6.144-73.728-6.144-71.68 0-138.24 16.384-198.656 46.080v0z" />
<glyph unicode="&#xe2014;" glyph-name="location" d="M745.472 845.312c-134.144 134.144-351.232 134.144-485.376 0-120.832-120.832-134.144-348.16-31.744-484.352l274.432-396.288 274.432 396.288c102.4 136.192 89.088 363.52-31.744 484.352v0zM505.856 492.032c-62.464 0-113.664 51.2-113.664 113.664s50.176 113.664 113.664 113.664c62.464 0 113.664-51.2 113.664-113.664s-51.2-113.664-113.664-113.664v0z" />
<glyph unicode="&#xe2015;" glyph-name="photo-gallery" d="M1003.52 614.912l-569.344 272.384c-6.144 3.072-14.336 0-17.408-6.144l-123.904-259.072h67.584l91.136 190.464 493.568-235.52-154.624-323.584-87.040 40.96v-171.008l53.248-25.6c6.144-3.072 14.336 0 17.408 6.144l235.52 492.544c3.072 7.168 1.024 15.36-6.144 18.432v0zM650.24 590.336h-629.76c-7.168 0-13.312-6.144-13.312-13.312v-545.792c0-7.168 6.144-13.312 13.312-13.312h630.784c7.168 0 13.312 6.144 13.312 13.312v545.792c0 7.168-6.144 13.312-14.336 13.312v0zM614.4 172.544h-39.936c-23.552 59.392-52.224 143.36-95.232 132.096-51.2-13.312-76.8-132.096-76.8-132.096s-25.6 134.144-98.304 205.824c-71.68 71.68-141.312-205.824-141.312-205.824h-95.232v357.376h546.816v-357.376zM200.704 453.12c0-24.576-20.48-45.056-45.056-45.056s-45.056 20.48-45.056 45.056c0 24.576 20.48 45.056 45.056 45.056s45.056-20.48 45.056-45.056v0zM454.656 421.376c10.24 0 19.456 1.024 27.648 3.072 9.216-4.096 21.504-6.144 34.816-6.144 32.768 0 59.392 16.384 59.392 35.84s-26.624 35.84-59.392 35.84c-12.288 0-23.552-2.048-33.792-6.144-4.096 4.096-9.216 6.144-15.36 6.144h-7.168c-11.264 0-19.456-8.192-21.504-19.456-26.624-3.072-46.080-12.288-46.080-23.552 0-14.336 27.648-25.6 61.44-25.6v0z" />
<glyph unicode="&#xe2016;" glyph-name="rajye" d="M976.896 934.4h-695.296c-8.192 0-15.36-7.168-15.36-15.36v-61.44h-112.64c-4.096 0-8.192-2.048-11.264-5.12s-4.096-8.192-4.096-12.288l6.144-44.032h-103.424c-5.12 0-9.216-2.048-12.288-6.144s-4.096-9.216-2.048-13.312l231.424-792.576c2.048-7.168 8.192-11.264 14.336-11.264h704.512c8.192 0 15.36 7.168 15.36 15.36v930.816c0 8.192-7.168 15.36-15.36 15.36v0zM267.264 827.904v-704.512l-95.232 704.512h95.232zM149.504 766.464l75.776-560.128-163.84 560.128h88.064zM961.536 4.608h-664.576v899.072h664.576v-899.072zM563.2 783.872h-241.664v68.608h241.664v-68.608zM939.008 783.872h-241.664v68.608h241.664v-68.608zM578.56 817.664c0 27.648 22.528 51.2 51.2 51.2 27.648 0 51.2-22.528 51.2-51.2 0-27.648-22.528-51.2-51.2-51.2s-51.2 23.552-51.2 51.2v0zM903.168 446.976h-205.824v231.424h205.824v-231.424zM599.040 644.608h-252.928v25.6h252.928v-25.6zM346.112 571.904h252.928v-25.6h-252.928v25.6zM349.184 472.576h252.928v-25.6h-252.928v25.6zM346.112 372.224h557.056v-25.6h-557.056v25.6zM346.112 272.896h557.056v-25.6h-557.056v25.6zM346.112 173.568h557.056v-25.6h-557.056v25.6z" />
<glyph unicode="&#xe2017;" glyph-name="rasthriye-khabar" d="M967.138 662.984l-44.601 49.919c-4.639 5.192-12.343 6.296-18.254 2.61l-121.228-75.59c-5.545-3.456-8.045-10.23-6.078-16.463l2.674-8.468h-71.018l0.747 16.408c0.359 7.9-5.754 14.594-13.654 14.954-7.924 0.394-14.594-5.754-14.954-13.654l-1.225-26.966-9.125-12.165-103.677 19.439-107.81 48.328 21.651 36.084c3.959 6.6 1.994 15.147-4.45 19.357l-64.293 41.988-1.714 14.279 19.432 1.619c4.701 0.392 8.909 3.075 11.246 7.173s2.509 9.087 0.454 13.332l-15.857 32.769 24.948 15.967c3.509 2.247 5.866 5.91 6.457 10.037l4.278 29.951c0.916 6.408-2.584 12.636-8.534 15.187l-29.951 12.837c-3.027 1.295-6.406 1.511-9.574 0.606l-42.327-12.094-62.575 55.928c-4.247 3.798-10.343 4.714-15.522 2.335l-74.164-34.093c-4.481-2.060-7.585-6.278-8.219-11.167-0.634-4.891 1.291-9.761 5.095-12.896l34.566-28.464-9.915-7.583c-3.657-2.798-5.745-7.182-5.615-11.784l1.425-49.919c0.159-5.547 3.507-10.501 8.591-12.718l39.131-17.057-94.354-127.44-41.948 3.595c-4.216 0.368-8.362-1.154-11.347-4.142l-31.376-31.376c-4.754-4.754-5.56-12.173-1.939-17.839l42.42-66.348-78.213-4.344c-5.547-0.308-10.416-3.796-12.488-8.951-2.073-5.153-0.983-11.039 2.802-15.106l38.507-41.36c2.707-2.91 6.505-4.562 10.479-4.562h7.602l-17.899-18.516c-5.43-5.618-5.355-14.553 0.17-20.078l35.657-35.655c4.258-4.258 10.724-5.399 16.181-2.851l42.786 19.965c3.3 1.54 5.888 4.278 7.241 7.657l0.073 0.183 5.168-14.766-22.358-38.507c-1.787-3.075-2.364-6.704-1.621-10.18l27.098-126.934c0.196-0.921 0.485-1.822 0.859-2.688l54.040-125.143 35.518-96.61c0.513-1.397 1.24-2.703 2.157-3.875l35.657-45.638c2.604-3.333 6.547-5.342 10.772-5.494 0.172-0.004 0.341-0.009 0.511-0.009 4.040 0 7.904 1.709 10.625 4.721l79.868 88.426c2.113 2.342 3.397 5.313 3.648 8.455l13.731 171.638 104.4 74.572c0.108 0.077 0.216 0.154 0.322 0.236l99.833 75.59c3.575 2.707 5.675 6.93 5.675 11.416v21.397l66.635 35.879c6.519 3.509 9.285 11.411 6.382 18.223l-35.648 83.63 5.507 56.173h7.283l11.504-44.861c1.577-6.155 7.023-10.537 13.376-10.755l52.492-1.809-21.395-24.345c-3.639-4.144-4.578-10.010-2.41-15.084s7.058-8.446 12.57-8.675l25.984-1.084 26.114-49.742c2.683-5.111 8.169-8.113 13.927-7.609 5.75 0.504 10.638 4.412 12.392 9.913l51.553 161.63 55.851 48.714c2.886 2.516 4.642 6.082 4.88 9.902 0.24 3.82-1.062 7.576-3.613 10.431zM132.87 601.54l18.527 18.527 43.279-3.71c4.959-0.425 9.774 1.749 12.731 5.745l109.819 148.326c2.595 3.505 3.452 8.003 2.324 12.218-1.126 4.214-4.113 7.686-8.111 9.429l-47.291 20.613-0.956 33.502 18.421 14.088c3.47 2.655 5.54 6.748 5.618 11.116s-1.842 8.534-5.214 11.312l-30.857 25.415 44.881 20.631 61.462-54.937c3.663-3.274 8.746-4.441 13.475-3.093l45.022 12.863 15.185-6.507-1.798-12.59-30.127-19.282c-6.109-3.908-8.329-11.768-5.17-18.298l12.308-25.437-13.445-1.121c-3.873-0.322-7.45-2.207-9.909-5.221-2.456-3.014-3.582-6.895-3.119-10.755l4.278-35.655c0.504-4.203 2.844-7.968 6.386-10.283l58.343-38.102-22.858-38.098c-2.106-3.511-2.61-7.754-1.381-11.66s4.069-7.1 7.803-8.772l124.078-55.622c1.031-0.46 2.11-0.8 3.218-1.009l114.097-21.393c0.577-0.108 1.152-0.181 1.729-0.216l-1.124-11.469h-510.014l-31.61 49.445zM431.459 228.672c-3.437-2.454-5.615-6.3-5.952-10.51l-13.874-173.431-65.189-72.173-23.785 30.445-34.879 94.876c-0.090 0.249-0.187 0.493-0.293 0.736l-53.635 124.204-7.138 33.436h243.363l-38.618-27.583zM705.303 447.349l-62.656-33.736c-4.635-2.498-7.53-7.34-7.53-12.607v-22.831l-94-71.17-31.35-22.393v0.289h-289.167l-12.398 58.072 22.9 39.435c2.102 3.617 2.514 7.972 1.132 11.922l-19.967 57.047c-1.974 5.635-7.234 9.455-13.202 9.585-6.023 0.093-11.391-3.454-13.61-8.997l-12.158-30.394-28.563-13.328-18.608 18.608 31.575 32.665c3.994 4.133 5.133 10.252 2.888 15.544s-7.435 8.728-13.182 8.728h-35.126l-13.445 14.44 72.184 4.009c5.082 0.282 9.633 3.241 11.951 7.772 2.183 4.263 2.053 9.303-0.251 13.458h490.221c0.126-0.381 0.245-0.764 0.401-1.137l31.962-74.982zM888.184 612.891c-1.974-1.72-3.437-3.948-4.23-6.439l-42.365-132.82-14.035 26.733c-2.373 4.523-6.979 7.437-12.081 7.651l-4.285 0.178 21.578 24.554c3.652 4.159 4.584 10.050 2.388 15.13-2.194 5.082-7.118 8.444-12.651 8.633l-72.008 2.483-7.016 27.363h55.708c4.562 0 8.854 2.174 11.548 5.855 2.699 3.679 3.481 8.424 2.106 12.775l-5.212 16.511 101.582 63.339 26.918-30.125-47.945-41.821zM454.727 418.966h-20.505l14.5 14.5c5.593 5.593 5.593 14.658 0 20.249-5.591 5.591-14.658 5.591-20.249 0l-14.498-14.498v20.503c0 7.909-6.411 14.319-14.319 14.319s-14.319-6.411-14.319-14.319v-20.503l-14.5 14.5c-5.591 5.591-14.658 5.591-20.249 0-5.593-5.593-5.593-14.658 0-20.249l14.5-14.5h-20.505c-7.909 0-14.319-6.411-14.319-14.319s6.411-14.319 14.319-14.319h20.503l-14.498-14.498c-5.593-5.593-5.593-14.658 0-20.249 2.796-2.796 6.461-4.194 10.125-4.194s7.329 1.399 10.125 4.194l14.5 14.5v-20.505c0-7.909 6.411-14.319 14.319-14.319s14.319 6.411 14.319 14.319v20.503l14.498-14.498c2.796-2.796 6.461-4.194 10.125-4.194s7.329 1.399 10.125 4.194c5.593 5.593 5.593 14.658 0 20.249l-14.498 14.498h20.503c7.909 0 14.319 6.411 14.319 14.319s-6.413 14.317-14.319 14.317z" />
<glyph unicode="&#xe2018;" glyph-name="taaza-khabar" d="M529.067 686.933h-238.933v-238.933h238.933v238.933zM494.933 482.133h-170.667v170.667h170.667v-170.667zM887.467 686.933h-273.067c-9.438 0-17.067-7.629-17.067-17.067s7.629-17.067 17.067-17.067h273.067c9.438 0 17.067 7.629 17.067 17.067s-7.629 17.067-17.067 17.067zM887.467 584.533h-273.067c-9.438 0-17.067-7.629-17.067-17.067s7.629-17.067 17.067-17.067h273.067c9.438 0 17.067 7.629 17.067 17.067s-7.629 17.067-17.067 17.067zM887.467 482.133h-273.067c-9.438 0-17.067-7.629-17.067-17.067s7.629-17.067 17.067-17.067h273.067c9.438 0 17.067 7.629 17.067 17.067s-7.629 17.067-17.067 17.067zM887.467 379.733h-563.2c-9.438 0-17.067-7.629-17.067-17.067s7.629-17.067 17.067-17.067h563.2c9.438 0 17.067 7.629 17.067 17.067s-7.629 17.067-17.067 17.067zM580.267 277.333h-256c-9.438 0-17.067-7.629-17.067-17.067s7.629-17.067 17.067-17.067h256c9.438 0 17.067 7.629 17.067 17.067s-7.629 17.067-17.067 17.067zM580.267 174.933h-256c-9.438 0-17.067-7.629-17.067-17.067s7.629-17.067 17.067-17.067h256c9.438 0 17.067 7.629 17.067 17.067s-7.629 17.067-17.067 17.067zM580.267 72.533h-256c-9.438 0-17.067-7.629-17.067-17.067s7.629-17.067 17.067-17.067h256c9.438 0 17.067 7.629 17.067 17.067s-7.629 17.067-17.067 17.067zM665.6 38.4h238.933v238.933h-238.933v-238.933zM699.733 243.2h170.667v-170.667h-170.667v170.667zM1006.933 738.133c0 0.29-0.154 0.529-0.171 0.819v221.047h-819.029v-512h-170.667v-409.6c0-56.474 45.926-102.4 102.4-102.4h785.067c56.371 0 102.229 45.875 102.229 102.229v699.085c0.017 0.29 0.171 0.529 0.171 0.819zM972.629 925.867v-170.667h-750.763v170.667h750.763zM51.2 38.4v375.467h136.533v-375.467c0-37.649-30.618-68.267-68.267-68.267s-68.267 30.618-68.267 68.267zM904.533-29.867h-708.796c0.273 0.307 0.461 0.666 0.717 0.973 3.482 3.977 6.656 8.226 9.489 12.715 0.461 0.717 0.887 1.434 1.331 2.185 2.765 4.608 5.205 9.421 7.219 14.473 0.273 0.7 0.512 1.399 0.768 2.099 1.963 5.222 3.567 10.615 4.659 16.196 0.102 0.512 0.137 1.041 0.239 1.536 1.058 5.871 1.707 11.913 1.707 18.091v682.667h750.763v-682.837c0-37.547-30.549-68.096-68.096-68.096zM802.133 891.733h-409.6v-102.4h409.6v102.4zM768 823.467h-341.333v34.133h341.333v-34.133z" />
<glyph unicode="&#xe2019;" glyph-name="world-news" d="M965.632 643.584c-72.704 174.080-238.592 290.816-424.96 303.104-4.096 0-7.168 0-11.264 0h-2.048c-2.048 0-4.096 0-5.12 0h-2.048c-4.096 0-7.168 0-11.264 0-65.536 0-126.976-12.288-187.392-37.888-120.832-51.2-215.040-145.408-265.216-266.24s-51.2-256 0-375.808c75.776-185.344 253.952-303.104 453.632-303.104 2.048 0 5.12 0 7.168 0s4.096 0 4.096 0h1.024c4.096 0 5.12 0 9.216 0h4.096c2.048 0 2.048 0 2.048 0 54.272 4.096 108.544 14.336 159.744 35.84 121.856 51.2 216.064 145.408 267.264 267.264 51.2 120.832 51.2 256 1.024 376.832v0 0 0zM340.992 845.312c-35.84-47.104-65.536-108.544-84.992-181.248h-114.688c43.008 79.872 112.64 143.36 199.68 181.248v0zM110.592 596.48h131.072c-7.168-45.056-11.264-92.16-11.264-143.36 0-49.152 4.096-98.304 12.288-143.36h-132.096c-32.768 94.208-32.768 194.56 0 286.72v0zM139.264 246.272h117.76c19.456-72.704 52.224-136.192 91.136-185.344-89.088 36.864-161.792 102.4-208.896 185.344v0zM491.52 34.304c-68.608 19.456-129.024 101.376-164.864 211.968h164.864c0 0 0-211.968 0-211.968zM491.52 311.808h-181.248c-11.264 45.056-14.336 94.208-14.336 143.36 0 51.2 5.12 98.304 12.288 143.36h183.296c0 0 0-286.72 0-286.72zM491.52 664.064h-166.912c32.768 113.664 94.208 193.536 166.912 214.016v-214.016zM883.712 664.064h-91.136c-16.384 63.488-41.984 117.76-70.656 163.84 65.536-38.912 121.856-95.232 161.792-163.84v0zM557.056 876.032c72.704-18.432 134.144-99.328 166.912-214.016h-166.912v214.016zM557.056 596.48h183.296c9.216-44.032 12.288-92.16 12.288-143.36 0-49.152-5.12-98.304-14.336-143.36h-181.248v286.72zM557.056 34.304v211.968h164.864c-35.84-110.592-96.256-192.512-164.864-211.968v0zM712.704 79.36c32.768 45.056 58.368 101.376 75.776 166.912h92.16c-36.864-70.656-95.232-129.024-167.936-166.912v0zM912.384 311.808h-106.496c9.216 45.056 12.288 92.16 12.288 143.36s-4.096 98.304-11.264 143.36h105.472c34.816-94.208 34.816-194.56 0-286.72v0z" />
<glyph unicode="&#xe2020;" glyph-name="businessman" d="M329.699 525.839c9.329-60.638 56.185-137.813 133.148-164.951 31.591-11.025 66.15-11.237 97.741 0.212 75.691 27.351 124.032 104.314 133.572 164.739 10.177 0.848 23.534 15.053 37.952 66.15 19.718 69.754-1.272 80.143-19.082 78.447 3.392 9.541 5.937 19.294 7.633 28.623 30.107 180.853-58.941 187.001-58.941 187.001s-14.841 28.411-53.641 49.825c-26.078 15.477-62.334 27.351-110.038 23.322-15.477-0.636-30.107-3.816-43.888-8.269v0c-17.598-5.937-33.711-14.629-48.34-24.806-17.81-11.237-34.771-25.23-49.613-41.132-23.534-24.17-44.524-55.337-53.641-94.137-7.633-29.047-5.937-59.366 0.424-92.017v0c1.696-9.541 4.24-19.082 7.633-28.623-17.81 1.696-38.8-8.693-19.082-78.447 14.629-50.885 27.987-65.090 38.164-65.938zM861.657 288.589c-108.342 27.563-196.33 89.472-196.33 89.472l-81.628-258.24-0.212 0.636-11.237-34.771-36.255 102.83c89.048 124.244-18.022 122.971-23.958 122.759-5.937 0.212-113.006 1.484-23.958-122.759l-36.255-102.83-11.237 34.771-0.212-0.636-12.933 40.92-68.906 217.32c0 0-87.988-61.91-196.33-89.472-80.78-20.566-84.596-113.855-81.416-159.863 0 0 4.664-62.546 9.329-90.108 0 0 157.743-102.406 421.919-102.618 264.177 0 421.919 102.618 421.919 102.618 4.664 27.563 9.329 90.108 9.329 90.108 2.968 46.008-0.848 139.297-81.628 159.863z" />
<glyph unicode="&#xe2021;" glyph-name="discuss-issue" d="M783.459 694.485c0-31.022-22.584-49.888-39.076-63.733-6.246-5.244-17.871-14.813-17.84-18.387 0.113-14.020-11.16-25.216-25.183-25.216-0.071 0-0.141 0-0.212 0-13.924 0-25.27 10.852-25.383 24.802-0.223 27.496 19.842 43.961 35.967 57.499 12.652 10.624 20.948 18.099 20.948 24.94 0 13.848-11.267 25.115-25.115 25.115-13.854 0-25.123-11.267-25.123-25.115 0-14.023-11.366-25.388-25.388-25.388s-25.388 11.366-25.388 25.388c0 41.846 34.046 75.892 75.894 75.892 41.851 0.003 75.897-33.947 75.897-75.796zM701.852 563.712c-14.023 0-24.827-11.366-24.827-25.388v-0.195c0-14.023 10.807-25.293 24.827-25.293s25.388 11.464 25.388 25.487-11.366 25.388-25.388 25.388zM190.109 386.859c-14.023 0-25.388-11.366-25.388-25.388s11.366-25.388 25.388-25.388h2.116c14.023 0 25.388 11.366 25.388 25.388s-11.366 25.388-25.388 25.388h-2.116zM278.345 386.859c-14.023 0-25.388-11.366-25.388-25.388s11.366-25.388 25.388-25.388h2.113c14.023 0 25.388 11.366 25.388 25.388s-11.366 25.388-25.388 25.388h-2.113zM1024 792.366v-285.764c0-67.66-54.252-122.564-121.912-122.564h-329.251c-6.437 0-11.738 0.037-16.172 0.13-4.646 0.096-9.876 0.133-11.916-0.093-2.124-1.41-7.332-6.181-12.35-10.804-1.989-1.831-4.24-3.845-6.669-6.062l-93.153-84.905c-7.43-6.779-18.424-8.533-27.625-4.477-9.202 4.059-15.662 13.171-15.662 23.228v269.165h-265.958c-39.668 0-72.554-32.506-72.554-72.168v-285.764c0-39.665 32.889-70.851 72.554-70.851h367.777c6.333 0 12.257-2.908 16.934-7.179l75.892-69.971v241.3c0 14.023 11.366 25.388 25.388 25.388s25.388-11.366 25.388-25.388v-298.844c0-10.057-5.755-19.033-14.959-23.092-3.292-1.453-6.598-2.025-10.059-2.025-6.217 0-12.35 2.553-17.12 6.908l-111.306 102.129h-357.935c-67.663 0-123.331 53.965-123.331 121.628v285.761c0 67.66 55.668 122.945 123.331 122.945h265.958v171.369c0 67.663 56.094 122.008 123.757 122.008h389.044c67.657 0 121.91-54.345 121.91-122.008zM973.223 792.366c0 39.665-31.473 71.231-71.136 71.231h-389.041c-39.665 0-72.98-31.566-72.98-71.231v-433.767l51.045 46.131c2.364 2.158 5.013 4.133 6.945 5.916 23.309 21.479 29.273 24.912 59.677 24.285 4.147-0.087 9.086-0.118 15.103-0.118h329.251c39.662 0 71.136 32.125 71.136 71.787v285.767z" />
<glyph unicode="&#xe2022;" glyph-name="kids-couple" d="M269.077 570.174c74.227 0 134.329 60.144 134.329 134.454 0 46.313 16.304 88.728-19.489 112.786-21.459 14.627-115.678 21.543-143.508 21.543-33.111 0-76.155-26.991-99.583-46.9-29.129-24.602-6.161-46.271-6.161-87.387 0-74.352 60.060-134.496 134.413-134.496zM175.445 717.789c24.686 4.485 41.451-3.646 41.451-3.646l41.242 20.076c0 0-20.998-30.344-2.138-20.076 41.996 14.083 88.98 8.215 112.87 3.521 0.838-5.239 1.593-10.604 1.593-16.178 0-55.324-43.924-100.045-98.452-100.045-54.234 0-98.2 44.72-98.2 100.045 0 5.574 0.754 10.939 1.635 16.304zM924.836 723.489c-0.629 7.67-1.257 15.298-2.934 22.675-5.323 47.109-47.487 142.837-168.487 139.987-104.278-2.473-127.036-80.974-132.527-128.754-3.688-11.735-6.077-24.016-6.874-36.799-135.628-23.68-120.707-161.32-37.889-163.667-7.88 71.88 26.405 115.049 39.607 128.922 12.196-74.227 76.28-131.269 153.902-131.269 73.598 0 135.041 51.259 151.68 119.785 12.699-22.381 34.033-68.233 28.836-117.48 130.473 1.132 66.263 150.297-25.315 166.601zM769.635 598.842c-60.982 0-110.606 49.121-111.99 109.852 22.255 8.089 38.769 46.648 38.769 46.648s13.202-4.527 13.202-48.073c23.094-8.047 63.204 67.646 63.204 67.646v-59.641c25.441-6.957 105.661 2.263 105.661 2.263l2.976-2.515c0.042-1.257 0.377-2.557 0.377-3.856 0.084-61.946-50.211-112.325-112.199-112.325zM802.326 550.559h-121.126l-161.404-194.473-156.207 192.042h-177.582l-186.007-204.196 38.978-40.194 133.155 113.624v-220.375h26.698v-167.523h-16.974v-19.657h77.328v187.18h28.961v-187.18h77.16v19.657h-16.933v167.523h32.398v216.225l106.457-109.307 43.505 10.73 24.1-6.035 120.582 138.017 6.874-54.695-111.99-192.461h129.174v-167.565h-16.974v-19.489h77.244v19.489h0.084v167.565h28.878v-187.054h77.286v19.489h-16.974v167.565h100.128l-98.661 192.461 5.407 67.311 94.261-126.324 62.449 15.549-149.459 202.101z" />
<glyph unicode="&#xe2023;" glyph-name="target" d="M1008 464h-32.302c-3.97 117.938-51.746 228.242-135.6 312.098s-194.16 131.63-312.098 135.6v32.302c0 8.836-7.164 16-16 16s-16-7.164-16-16v-32.302c-117.938-3.97-228.242-51.744-312.098-135.6s-131.63-194.16-135.6-312.098h-32.302c-8.836 0-16-7.164-16-16s7.164-16 16-16h32.302c3.97-117.938 51.746-228.242 135.6-312.098s194.158-131.63 312.098-135.6v-32.302c0-8.836 7.164-16 16-16s16 7.164 16 16v32.302c117.938 3.97 228.242 51.744 312.098 135.6s131.63 194.16 135.6 312.098h32.302c8.836 0 16 7.164 16 16s-7.164 16-16 16zM206.53 753.47c77.81 77.81 180.082 122.252 289.47 126.208v-32.026c-207.858-8.22-375.432-175.794-383.652-383.652h-32.026c3.956 109.388 48.398 211.66 126.208 289.47zM206.53 142.53c-77.81 77.81-122.252 180.082-126.208 289.47h32.016c3.66-91.784 38.708-179.516 99.656-248.576 3.162-3.582 7.572-5.412 12.002-5.412 3.762 0 7.54 1.318 10.582 4.004 6.626 5.848 7.256 15.958 1.41 22.584-55.786 63.206-87.994 143.422-91.634 227.4h79.646c8.836 0 16 7.164 16 16s-7.164 16-16 16h-79.632c8.182 190.212 161.42 343.45 351.632 351.632v-79.632c0-8.836 7.164-16 16-16s16 7.164 16 16v79.642c65.342-2.81 128.414-22.792 183.322-58.24 7.424-4.792 17.328-2.662 22.122 4.764 4.792 7.424 2.66 17.326-4.764 22.12-60.094 38.796-129.164 60.558-200.68 63.386v32.006c109.388-3.958 211.66-48.398 289.47-126.208s122.252-180.082 126.208-289.47h-32.006c-2.83 71.52-24.594 140.596-63.396 200.692-4.794 7.424-14.698 9.552-22.12 4.762-7.424-4.792-9.556-14.698-4.762-22.122 35.454-54.91 55.438-117.986 58.248-183.332h-79.642c-8.836 0-16-7.164-16-16s7.164-16 16-16h79.632c-8.18-190.212-161.418-343.452-351.632-351.63v79.63c0 8.836-7.164 16-16 16s-16-7.164-16-16v-79.664c-78.584 3.296-152.25 30.894-213.932 80.322-6.894 5.524-16.964 4.416-22.492-2.48-5.526-6.896-4.414-16.966 2.482-22.492 66.406-53.212 148.93-83.916 233.942-87.354v-32.010c-109.388 3.956-211.66 48.398-289.47 126.208zM817.47 142.53c-77.81-77.81-180.082-122.252-289.47-126.208v32.026c207.86 8.22 375.432 175.794 383.652 383.652h32.026c-3.956-109.388-48.398-211.66-126.208-289.47zM757.354 722.278c10.768-9.638 21.076-20.020 30.642-30.856 3.162-3.582 7.572-5.412 12-5.412 3.762 0 7.54 1.318 10.582 4.004 6.626 5.848 7.254 15.958 1.408 22.584-10.39 11.772-21.59 23.050-33.288 33.524-6.584 5.89-16.7 5.334-22.592-1.25-5.896-6.584-5.336-16.7 1.248-22.594zM320 432h48.91c7.404-66.64 60.45-119.686 127.090-127.090v-48.91c0-8.836 7.164-16 16-16s16 7.164 16 16v48.91c66.64 7.404 119.686 60.45 127.090 127.090h48.91c8.836 0 16 7.164 16 16s-7.164 16-16 16h-48.91c-7.404 66.64-60.45 119.686-127.090 127.090v48.91c0 8.836-7.164 16-16 16s-16-7.164-16-16v-48.91c-66.64-7.404-119.686-60.45-127.090-127.090h-48.91c-8.836 0-16-7.164-16-16s7.164-16 16-16zM401.162 432h94.838v-94.838c-48.974 7.038-87.8 45.864-94.838 94.838zM528 337.162v94.838h94.838c-7.038-48.974-45.864-87.8-94.838-94.838zM622.838 464h-94.838v94.838c48.974-7.038 87.8-45.864 94.838-94.838zM496 558.838v-94.838h-94.838c7.038 48.974 45.864 87.8 94.838 94.838z" />
<glyph unicode="&#xe2024;" glyph-name="woman-head-side-silhouette" d="M930.822 192.946c0 0 43.518 12.084 40.609 31.78-19.036-11.647-63.586 26.329-63.586 26.329s21.916 38.040 20.444 84.813-6.199 91.733-6.199 91.733 26.707-31.056 60.584-0.906c-66.78 32.718-62.774 77.003-55.417 105.539 7.298 28.522 36.255 160.237-74.233 261.628-72.633 63.101-112.96 6.606-112.96 6.606s-10.674 18.377-24.106 17.58c-13.43-0.845-23.012-15.371-23.012-15.371s-7.668 23.307-19.752 20.004c-12.055-3.287-15.344-14.51-15.344-14.51s-13.181 70.177-160.095 131.916c-146.992 61.723-339.99-36.536-380.551-71.587-40.59-35.115-55.948-46.103-42.799-87.773 4.649-14.591 12.21-19.913 20.318-20.851-30.509-67.766-14.291-150.874-2.456-181.289 0.595-2.3 0.922-4.805 1.44-7.279-8.657-1.314-21.010-0.249-31.010 13.886-4.319-20.897 18.347-24.811 32.576-25.358 1.126-14.073-0.767-29.115-10.285-43.408-20.913-31.388-44.317-45.789-51.846-66.844-10.738-29.399 45.711-34.533 45.711-34.533l0.142-11.178c0 0-18.082-17.532-14.245-31.246 5.134-18.283 41.486-11.773 41.486-11.773s-34.911-12.867-33.297-29.898c1.66-17.001 16.251-24.391 16.251-24.391s-33.796-66.437 15.934-81.089c49.717-14.588 150.609 46.086 163.757-24.828 12.695-48.902 69.319-169.034 49.687-191.572-19.615-22.482-49.687-56.983-49.687-56.983l516.116-16.092c0 0-159.39 206.195-175.45 229.55-8.577 12.459 10.269 22.854 38.542 39.542 9.987-50.532 38.697-157.416 108.389-201.873 92.83-59.205 141.075-6.545 138.163 14.242-49.717-31.059-60.299 28.552-60.299 28.552s82.936-25.986 85.534 25.2c-67.63-21.943-83.349 104.168-83.349 104.168s131.211-136.348 155.695 6.574c-42.735-47.902-61.396 10.99-61.396 10.99z" />
<glyph unicode="&#xe2025;" glyph-name="kanya" d="M958.464 621.056c0 0-58.368-20.48-99.328-16.384s-78.848 123.904-364.544 74.752c0 0-119.808 49.152-198.656 20.48 0 0 24.576-103.424 123.904-103.424 0 0 41.984-2.048 14.336-18.432-18.432-11.264-146.432 10.24-162.816 138.24 0 0 101.376 46.080 218.112-16.384 0 0 121.856 36.864 262.144-9.216 0 0-57.344 264.192-444.416 207.872 0 0 103.424-40.96 95.232-66.56 0 0-434.176 16.384-389.12-463.872 0 0 82.944 153.6 223.232 132.096 0 0-169.984-95.232-66.56-409.6 0 0 45.056 144.384 190.464 169.984 0 0-54.272-169.984 87.040-281.6 0 0-32.768 169.984 107.52 215.040 0 0-161.792 70.656-153.6 219.136 0 0 58.368-186.368 239.616-194.56 0 0 227.328 66.56 144.384-62.464 0 0 148.48-28.672 157.696 190.464 0 0-54.272-62.464-103.424-62.464s-95.232 32.768-54.272 144.384c40.96 111.616 194.56 62.464 174.080-16.384 3.072 2.048 65.536 101.376-1.024 208.896zM669.696 573.952c50.176 73.728 108.544 7.168 108.544 7.168l-108.544-7.168z" />
<glyph unicode="&#xe2026;" glyph-name="dhanu" d="M624.64 687.616c0 0-86.016 235.52-376.832 107.52 0 0 310.272-74.752 123.904-310.272l43.008-74.752c0 0 135.168-10.24 147.456-100.352 0 0-64.512 66.56-126.976 55.296 0 0 51.2-145.408 72.704-194.56s40.96-113.664 109.568-111.616c68.608 2.048 76.8 6.144 115.712 86.016 38.912 80.896 83.968 227.328 83.968 227.328s-81.92-27.648-119.808-62.464c0 0 4.096 98.304 119.808 104.448l58.368 81.92c0 0-218.112 150.528 125.952 304.128-1.024 1.024-208.896 126.976-376.832-112.64zM901.12 550.4c0 0 64.512 135.168-6.144 190.464s-233.472 66.56-325.632-60.416c-92.16-126.976 60.416-201.728 145.408-178.176 46.080 13.312 89.088 36.864 106.496 68.608 14.336 26.624 21.504 94.208-49.152 106.496-27.648 4.096-77.824-15.36-80.896-53.248 0 0-33.792-11.264-10.24 25.6s56.32 87.040 150.528 58.368c65.536-20.48 69.632-119.808 69.632-157.696zM50.176 558.592c0 0-64.512 135.168 6.144 190.464s233.472 66.56 325.632-60.416c92.16-126.976-60.416-201.728-145.408-178.176-46.080 13.312-89.088 36.864-106.496 68.608-14.336 26.624-21.504 94.208 49.152 106.496 27.648 4.096 77.824-15.36 80.896-53.248 0 0 33.792-11.264 10.24 25.6s-56.32 87.040-150.528 58.368c-65.536-20.48-69.632-120.832-69.632-157.696z" />
<glyph unicode="&#xe2027;" glyph-name="kark" d="M9.216 254.464h368.64c0 0-22.528-102.4-190.464-104.448-157.696-2.048-178.176 104.448-178.176 104.448zM16.384 252.416l177.152 402.432 177.152-400.384h-11.264l-166.912 379.904-162.816-381.952zM189.44 642.56h10.24v-388.096h-10.24v388.096zM629.76 254.464h368.64c0 0-22.528-102.4-190.464-104.448-157.696-2.048-178.176 104.448-178.176 104.448zM636.928 252.416l177.152 402.432 177.152-400.384h-11.264l-165.888 379.904-163.84-381.952zM809.984 642.56h10.24v-388.096h-10.24v388.096zM844.8 706.048c-6.144-21.504-8.192-44.032-32.768-43.008s-64.512 52.224-89.088 72.704c-24.576 20.48-62.464 51.2-101.376 51.2-37.888 0-59.392-4.096-88.064-25.6 0 0 0 19.456-18.432 26.624v35.84l26.624 1.024-39.936 51.2-39.936-51.2 26.624-1.024v-35.84c-18.432-7.168-18.432-26.624-18.432-26.624-28.672 21.504-49.152 25.6-88.064 25.6-37.888 0-76.8-31.744-101.376-51.2-24.576-20.48-64.512-71.68-89.088-72.704s-26.624 22.528-32.768 43.008c-6.144 21.504-17.408 2.048-17.408 2.048-2.048-55.296 39.936-81.92 76.8-63.488 35.84 18.432 89.088 83.968 157.696 83.968s98.304-74.752 98.304-74.752c0 0 0 0 0 0v-450.56c0 0-51.2-14.336-33.792-62.464 0 0-52.224-8.192-31.744-59.392 0 0-41.984-7.168-46.080-49.152 0 0 39.936-32.768 139.264-29.696s141.312 28.672 141.312 28.672-5.12 38.912-48.128 50.176c0 0 18.432 37.888-27.648 60.416 0 0 16.384 41.984-37.888 61.44v451.584c4.096 9.216 33.792 73.728 97.28 73.728 68.608 0 120.832-65.536 157.696-83.968 35.84-18.432 78.848 8.192 76.8 63.488 0 0-10.24 19.456-16.384-2.048z" />
<glyph unicode="&#xe2029;" glyph-name="makar" d="M262.144 481.792l55.296 139.264c0 0-198.656-12.288-168.96 89.088s117.76 177.152 117.76 177.152-189.44-62.464-236.544-185.344c-46.080-122.88-8.192-206.848 232.448-220.16zM750.592 481.792l-55.296 139.264c0 0 198.656-12.288 168.96 89.088-28.672 101.376-117.76 177.152-117.76 177.152s190.464-62.464 236.544-185.344c46.080-122.88 8.192-206.848-232.448-220.16zM563.2 307.712c0 0-35.84 55.296 130.048 108.544l33.792 7.168c0 0 7.168 91.136-12.288 144.384s-79.872 87.040-194.56 83.968c-115.712-2.048-192.512-2.048-224.256-94.208-31.744-91.136-14.336-130.048-14.336-130.048s181.248-20.48 178.176-123.904c0 0-112.64 79.872-146.432 87.040s-28.672-43.008-19.456-83.968c9.216-40.96 48.128-105.472 67.584-135.168 19.456-28.672 50.176-87.040 53.248-117.76 2.048-31.744 43.008-60.416 94.208-57.344 50.176 2.048 96.256 2.048 103.424 81.92s62.464 108.544 96.256 153.6c33.792 46.080 21.504 117.76 9.216 146.432 0-1.024-77.824-15.36-154.624-70.656z" />
<glyph unicode="&#xe2030;" glyph-name="meen" d="M275.456-55.808l52.224 138.24-4.096 81.92 422.912 622.592 20.48-62.464 98.304 217.088-205.824-131.072 68.608-12.288-427.008-621.568-70.656-30.72-75.776-149.504 91.136 55.296zM36.864 641.536c0 0 89.088-65.536 207.872 108.544s203.776 115.712 225.28 40.96c21.504-74.752 14.336-264.192 225.28-287.744s244.736-110.592 118.784-270.336c-125.952-159.744-135.168-177.152-97.28-262.144 0 0-21.504 70.656 24.576 123.904s259.072 241.664 220.16 348.16c-38.912 106.496-84.992 97.28-207.872 131.072-123.904 33.792-186.368 67.584-193.536 191.488-7.168 122.88-99.328 212.992-191.488 159.744s-181.248-198.656-215.040-227.328c-33.792-29.696-84.992-65.536-116.736-56.32zM143.36 648.704l87.040-502.784-9.216-15.36-90.112 513.024zM315.392 55.808l399.36 44.032-7.168-12.288-395.264-43.008z" />
<glyph unicode="&#xe2031;" glyph-name="mesh" d="M986.112 532.992c-220.16 4.096-208.896 167.936-208.896 167.936 25.6 13.312 36.864 80.896 36.864 80.896-184.32-81.92-173.056 86.016-173.056 86.016-48.128-34.816-44.032-156.672-44.032-156.672h-22.528v95.232c-195.584 11.264-305.152-69.632-363.52-294.912-57.344-225.28-199.68-284.672-199.68-284.672 153.6 44.032 165.888 98.304 271.36 301.056 105.472 201.728 220.16 121.856 220.16 121.856-75.776-75.776-179.2-277.504-66.56-465.92s399.36-114.688 399.36-114.688c-114.688 25.6-138.24 284.672-138.24 284.672-214.016-73.728-201.728 144.384-201.728 144.384 50.176-96.256 107.52-121.856 183.296-112.64s140.288 2.048 186.368-31.744c46.080-34.816-31.744-73.728-31.744-73.728l73.728 27.648-13.312-68.608c153.6 62.464 31.744 156.672 31.744 156.672 154.624 61.44 60.416 137.216 60.416 137.216zM670.72 594.432c0 0 74.752 32.768 122.88-41.984 0 0-93.184-26.624-122.88 41.984z" />
<glyph unicode="&#xe2032;" glyph-name="mithun" d="M345.088 230.912c-56.32 19.456-39.936 149.504-39.936 149.504-93.184-11.264-96.256 64.512-96.256 64.512 33.792-48.128 146.432-41.984 146.432-41.984-28.672 115.712-132.096 84.992-132.096 84.992 28.672 41.984 93.184-3.072 93.184-3.072l8.192 62.464c-140.288-9.216-106.496 95.232-106.496 95.232s-5.12-96.256 101.376-70.656c107.52 25.6 96.256 120.832 96.256 120.832-16.384-19.456-30.72-36.864-30.72-36.864 3.072 45.056 36.864 70.656 36.864 70.656-188.416 101.376-276.48-70.656-276.48-70.656-101.376 19.456-138.24-81.92-138.24-81.92 28.672 0 101.376-39.936 101.376-39.936-14.336-262.144 225.28-318.464 225.28-318.464-67.584-142.336 75.776-153.6 75.776-153.6 22.528 96.256-17.408 123.904-17.408 123.904 30.72-17.408 41.984 14.336 64.512 19.456 22.528 6.144 75.776-11.264 75.776-11.264-66.56 99.328-187.392 36.864-187.392 36.864zM319.488 718.336c12.288 0 22.528-10.24 22.528-22.528s-10.24-22.528-22.528-22.528c-12.288 0-22.528 10.24-22.528 22.528s10.24 22.528 22.528 22.528zM905.216 370.176c14.336 262.144-225.28 318.464-225.28 318.464 67.584 143.36-75.776 154.624-75.776 154.624-22.528-96.256 16.384-123.904 16.384-123.904-30.72 17.408-41.984-14.336-64.512-19.456-22.528-6.144-75.776 11.264-75.776 11.264 67.584-98.304 188.416-36.864 188.416-36.864 56.32-19.456 39.936-149.504 39.936-149.504 93.184 11.264 96.256-64.512 96.256-64.512-33.792 48.128-146.432 41.984-146.432 41.984 27.648-115.712 131.072-83.968 131.072-83.968-28.672-41.984-93.184 3.072-93.184 3.072l-8.192-62.464c141.312 8.192 107.52-96.256 107.52-96.256s6.144 96.256-101.376 70.656c-107.52-25.6-96.256-120.832-96.256-120.832 17.408 19.456 30.72 36.864 30.72 36.864-3.072-45.056-36.864-70.656-36.864-70.656 188.416-101.376 276.48 70.656 276.48 70.656 101.376-19.456 138.24 81.92 138.24 81.92-27.648-1.024-101.376 38.912-101.376 38.912zM694.272 186.88c-12.288 0-22.528 10.24-22.528 22.528s10.24 22.528 22.528 22.528c12.288 0 22.528-10.24 22.528-22.528s-10.24-22.528-22.528-22.528z" />
<glyph unicode="&#xe2033;" glyph-name="singh" d="M343.040 544.256l-49.152-94.208-119.808 188.416c0 0-41.984 3.072 22.528 74.752 50.176 55.296 150.528 277.504 332.8 222.208 0 0-137.216-52.224-156.672-130.048 0 0 134.144 29.696 162.816 88.064 0 0 13.312-98.304-162.816-149.504l-49.152-10.24-62.464-74.752 81.92-114.688zM813.056 544.256l49.152-94.208 120.832 189.44c0 0 41.984 3.072-22.528 74.752-51.2 54.272-151.552 276.48-333.824 221.184 0 0 137.216-52.224 156.672-130.048 0 0-134.144 29.696-162.816 88.064 0 0-13.312-98.304 162.816-149.504l49.152-10.24 62.464-74.752-81.92-114.688zM319.488 429.568c0 0 38.912 135.168 165.888 249.856 0 0-49.152 34.816-24.576 51.2l51.2-32.768h135.168l40.96 30.72c0 0 36.864-10.24-10.24-51.2 0 0 167.936-178.176 161.792-278.528s-180.224-155.648-268.288-157.696c-88.064-2.048-292.864 102.4-251.904 188.416zM675.84 247.296l-45.056-18.432c0 0 143.36-126.976 55.296-276.48 0 0 129.024 73.728-10.24 294.912zM745.472 273.92l-51.2-20.48c0 0 110.592-81.92 133.12-122.88s2.048-151.552 2.048-151.552 53.248 51.2 32.768 184.32c0 0-55.296 77.824-116.736 110.592zM466.944 273.92l57.344 45.056 49.152 8.192c0 0 155.648 14.336 264.192 161.792 0 0-14.336-106.496-247.808-206.848 0 0-83.968-34.816-122.88-8.192zM557.056 407.040l-18.432-61.44c0 0 219.136 18.432 276.48 288.768 0 0-104.448-225.28-258.048-227.328zM479.232 251.392l45.056-18.432c0 0-143.36-126.976-55.296-276.48 0 0-129.024 73.728 10.24 294.912zM409.6 278.016l51.2-20.48c0 0-110.592-81.92-133.12-122.88s-2.048-151.552-2.048-151.552-53.248 51.2-32.768 184.32c0 0 55.296 77.824 116.736 110.592zM397.312 282.112l-57.344 45.056-49.152 8.192c0 0-155.648 14.336-264.192 161.792 0 0 14.336-106.496 247.808-206.848 0 0 83.968-34.816 122.88-8.192zM296.96 411.136l18.432-61.44c0 0-219.136 18.432-276.48 288.768 0 0 104.448-225.28 258.048-227.328z" />
<glyph unicode="&#xe2036;" glyph-name="tula" d="M877.568 211.456c-5.12 20.48-6.144 21.504-26.624 21.504-1.024 0-1.024 1.024-3.072 2.048 5.12 26.624-6.144 47.104-30.72 58.368s-43.008-3.072-58.368-20.48c-1.024 1.024-1.024 2.048-1.024 2.048 1.024 3.072 2.048 5.12 3.072 8.192 26.624 83.968 41.984 169.984 40.96 258.048 0 9.216-2.048 17.408-4.096 25.6 0 3.072-4.096 8.192-6.144 8.192-4.096 0-8.192-2.048-10.24-5.12-6.144-9.216-11.264-18.432-14.336-28.672-28.672-86.016-45.056-175.104-40.96-266.24 1.024-21.504-1.024-39.936-8.192-59.392-7.168-18.432-11.264-39.936-21.504-56.32-14.336-23.552-14.336-45.056-1.024-67.584 8.192-15.36 12.288-30.72 11.264-49.152-3.072-38.912-17.408-58.368-56.32-65.536-21.504-3.072-45.056-7.168-86.016-2.048 1.024 19.456 4.096 35.84 4.096 53.248 0 22.528-14.336 39.936-35.84 46.080-19.456 5.12-37.888 2.048-56.32-4.096-17.408-6.144-33.792-13.312-51.2-19.456-17.408-7.168-28.672-3.072-33.792 12.288-10.24 32.768-12.288 65.536-5.12 98.304 4.096 18.432 20.48 26.624 38.912 21.504 10.24-2.048 19.456-7.168 29.696-10.24 35.84-10.24 56.32 1.024 66.56 35.84 1.024 3.072 5.12 6.144 8.192 7.168 22.528 4.096 26.624 9.216 24.576 33.792 16.384 2.048 19.456 14.336 20.48 24.576 0 6.144-1.024 11.264-1.024 16.384 1.024 9.216 1.024 18.432 13.312 20.48 24.576 4.096 34.816 24.576 20.48 45.056-18.432 25.6-18.432 52.224-9.216 79.872 16.384 50.176 22.528 100.352 21.504 152.576-1.024 22.528-5.12 44.032-14.336 64.512-4.096 9.216-9.216 11.264-18.432 10.24-80.896-13.312-133.12-71.68-139.264-154.624-3.072-31.744-6.144-62.464-13.312-93.184-10.24-41.984-30.72-78.848-71.68-99.328-66.56-31.744-95.232-91.136-79.872-162.816 3.072-16.384 8.192-32.768 16.384-47.104-12.288 15.36-26.624 32.768-30.72 39.936-41.984 72.704-37.888 146.432 21.504 206.848 19.456 19.456 36.864 41.984 54.272 63.488 46.080 60.416 73.728 128 67.584 205.824-5.12 64.512 67.584 125.952 118.784 115.712-20.48 13.312-41.984 26.624-63.488 37.888-35.84 17.408-59.392 60.416-52.224 100.352 3.072 14.336-1.024 24.576-12.288 30.72-13.312 7.168-27.648 14.336-41.984 19.456-16.384 6.144-33.792 10.24-50.176 15.36-4.096 0-8.192 0-12.288 1.024-91.136-77.824-145.408-177.152-167.936-293.888-3.072-18.432-5.12-36.864-8.192-55.296 0-32.768 0-64.512 0-96.256 3.072-22.528 6.144-45.056 10.24-67.584 16.384-94.208 48.128-183.296 105.472-261.12 15.36-20.48 33.792-39.936 50.176-60.416 1.024 1.024 30.72-29.696 31.744-28.672 0 0 0 0 0 1.024 4.096-4.096 9.216-8.192 14.336-12.288 47.104-33.792 98.304-60.416 154.624-76.8 18.432-5.12 36.864-9.216 56.32-13.312 59.392-22.528 135.168-19.456 187.392-17.408 15.36 0 29.696 3.072 44.032 5.12 9.216 1.024 12.288 6.144 13.312 15.36 3.072 29.696 12.288 58.368 33.792 80.896 7.168 8.192 13.312 17.408 19.456 26.624 18.432 27.648 30.72 59.392 36.864 93.184 0 7.168 0 14.336 1.024 20.48-1.024 2.048-2.048 6.144-3.072 9.216zM561.152 473.6c4.096-1.024 6.144-7.168 9.216-12.288-21.504 0-38.912 0-57.344 0 11.264 13.312 31.744 19.456 48.128 12.288zM500.736 406.016c11.264 13.312 24.576 24.576 44.032 26.624 2.048-1.024 6.144-1.024 11.264-3.072 13.312-5.12 14.336-9.216 7.168-21.504-5.12-10.24-11.264-20.48-17.408-29.696-2.048-2.048-9.216-5.12-11.264-4.096-11.264 7.168-21.504 14.336-31.744 22.528-2.048 2.048-3.072 8.192-2.048 9.216zM797.696 221.696c-2.048-3.072-8.192-3.072-12.288-4.096s-7.168-3.072-12.288-5.12c-1.024 14.336-2.048 26.624-4.096 39.936 8.192 0 16.384 2.048 24.576 1.024 7.168-1.024 13.312-6.144 19.456-9.216-5.12-7.168-9.216-15.36-15.36-22.528z" />
<glyph unicode="&#xe2037;" glyph-name="kumbh" d="M412.672-22.016c-96.256 37.888-162.816 111.616-194.56 192.512-39.936 104.448-22.528 212.992-22.528 212.992 54.272 392.192 282.624 354.304 282.624 354.304-6.144 118.784-156.672 106.496-215.040 115.712-66.56 10.24-105.472 68.608-105.472 68.608s-219.136-179.2-122.88-490.496c96.256-311.296 263.168-440.32 368.64-458.752l9.216 5.12zM483.328 722.432c0 0 12.288-63.488 4.096-107.52s-22.528-100.352-9.216-126.976c13.312-27.648 50.176-56.32-9.216-90.112 0 0-18.432-35.84-7.168-48.128 12.288-12.288-4.096-19.456-14.336-19.456 0 0 12.288-25.6-7.168-27.648l-20.48-3.072c0 0-17.408-5.12-7.168-40.96 11.264-35.84-47.104-35.84-75.776-13.312 0 0-29.696 12.288-39.936-21.504-11.264-33.792-22.528-79.872-7.168-112.64 0 0 79.872 44.032 121.856 1.024 41.984-41.984 28.672-110.592 4.096-114.688 0 0-191.488 83.968-197.632 274.432-5.12 190.464 71.68 444.416 265.216 450.56zM613.376-22.016c96.256 37.888 162.816 111.616 194.56 192.512 38.912 104.448 21.504 212.992 21.504 212.992-53.248 392.192-281.6 354.304-281.6 354.304 6.144 118.784 156.672 106.496 215.040 115.712 66.56 10.24 105.472 68.608 105.472 68.608s219.136-179.2 122.88-490.496c-96.256-311.296-263.168-440.32-368.64-458.752l-9.216 5.12zM541.696 722.432c0 0-12.288-63.488-4.096-107.52s22.528-100.352 9.216-126.976c-13.312-27.648-50.176-56.32 9.216-90.112 0 0 18.432-35.84 7.168-48.128-12.288-12.288 4.096-19.456 14.336-19.456 0 0-12.288-25.6 7.168-27.648l20.48-3.072c0 0 17.408-5.12 7.168-40.96-11.264-35.84 47.104-35.84 75.776-13.312 0 0 29.696 12.288 39.936-21.504 11.264-33.792 22.528-79.872 7.168-112.64 0 0-79.872 44.032-121.856 1.024-41.984-41.984-28.672-110.592-4.096-114.688 0 0 191.488 83.968 197.632 274.432s-70.656 444.416-265.216 450.56z" />
</font>
</defs>
</svg>
