<?xml version="1.0" encoding="utf-8"?>
<!-- Generator: Adobe Illustrator 21.1.0, SVG Export Plug-In . SVG Version: 6.00 Build 0)  -->
<svg version="1.1" id="icons" xmlns="http://www.w3.org/2000/svg" xmlns:xlink="http://www.w3.org/1999/xlink" x="0px" y="0px"
	 width="65px" height="65px" viewBox="0 0 65 65" style="enable-background:new 0 0 65 65;" xml:space="preserve">
<style type="text/css">
	.st0{fill:#B7B7B7;}
</style>
<title>weather</title>
<path class="st0" d="M37.1,47.2c0.5-2.4,0-5-1.4-7c-1.5-2.4-3.9-4.1-6.7-4.7c-0.9-0.2-1.7-0.3-2.6-0.3c-3.9,0-7.6,2-9.6,5.4
	c-0.9-0.6-2-0.9-3.1-0.9c-1.4,0-2.8,0.5-3.9,1.5c-0.8,0.8-1.4,1.9-1.5,3.1c-4.3,0.2-7.7,3.5-8,7.8c0,2.1,0.8,4.2,2.3,5.7
	c1.6,1.6,3.7,2.4,5.9,2.5h27c3.8,0.1,6.9-2.9,7-6.6C42.7,50.4,40.3,47.7,37.1,47.2z"/>
<path class="st0" d="M58.3,18.4c0.5-2.4,0-5-1.4-7C55.4,9,53,7.3,50.2,6.7c-0.9-0.2-1.7-0.3-2.6-0.3c-3.9,0-7.6,2-9.6,5.4
	c-0.9-0.6-2-0.9-3.1-0.9c-1.4,0-2.8,0.5-3.9,1.5c-0.9,0.8-1.4,1.9-1.5,3.1c-4.3,0.2-7.7,3.5-8,7.8c0,2.1,0.8,4.2,2.3,5.7
	c1.6,1.6,3.7,2.4,5.9,2.5h27c3.8,0.1,6.9-2.9,7-6.6C63.8,21.7,61.5,18.9,58.3,18.4z"/>
</svg>
