<svg id="Layer_1" data-name="Layer 1" xmlns="http://www.w3.org/2000/svg" viewBox="0 0 45 45"><defs><style>.cls-1{fill:#fff;opacity:0.83;}.cls-2{fill:#183551;}</style></defs><title>icon</title><circle class="cls-1" cx="22.5" cy="22.5" r="22.3"/><path class="cls-2" d="M20.15,21a2.35,2.35,0,1,0,2.35-2.35A2.35,2.35,0,0,0,20.15,21Z"/><path class="cls-2" d="M24.88,25,26.18,27a7,7,0,1,0-7.36,0L20.13,25a4.69,4.69,0,1,1,4.75,0Z"/><path class="cls-2" d="M22.5,9.27a11.72,11.72,0,0,0-6.28,21.62l1.3-1.95a9.39,9.39,0,1,1,10,0l1.3,1.95A11.72,11.72,0,0,0,22.5,9.27Z"/><rect class="cls-2" x="20.21" y="26.98" width="4.58" height="8.74" rx="1.04"/></svg>