<svg id="Layer_1" data-name="Layer 1" xmlns="http://www.w3.org/2000/svg" viewBox="0 0 38.46 38.46"><defs><style>.cls-1{fill:#616161;}.cls-2{fill:#fff;}</style></defs><title>w_mail</title><path class="cls-1" d="M19.23,0A19.23,19.23,0,1,1,0,19.23,19.23,19.23,0,0,1,19.23,0Zm0,0"/><path class="cls-2" d="M30.65,24.94a2.92,2.92,0,0,1-.36,1.38l-7.22-8.07L30.21,12a2.82,2.82,0,0,1,.44,1.52ZM19.23,19.71,29.16,11a2.86,2.86,0,0,0-1.36-.35H10.67A2.81,2.81,0,0,0,9.31,11ZM22,19.19l-2.3,2a.73.73,0,0,1-.47.17.75.75,0,0,1-.47-.17l-2.3-2-7.3,8.17a2.87,2.87,0,0,0,1.51.44H27.8a2.84,2.84,0,0,0,1.5-.44ZM8.25,12a2.91,2.91,0,0,0-.44,1.52V24.94a2.82,2.82,0,0,0,.37,1.38l7.21-8.08Zm0,0"/></svg>