<svg id="Layer_1" data-name="Layer 1" xmlns="http://www.w3.org/2000/svg" viewBox="0 0 38.46 38.46"><defs><style>.cls-1{fill:#858282;}.cls-2{fill:#fff;}</style></defs><title>w_print</title><path class="cls-1" d="M19.23,0A19.23,19.23,0,1,1,0,19.23,19.23,19.23,0,0,1,19.23,0Zm0,0"/><path class="cls-2" d="M14.66,24.37V27.8H23.8V22.09H14.66Zm1.14-1.14h6.86v1.14H15.8Zm0,2.28h6.86v1.14H15.8Zm0,0"/><path class="cls-2" d="M23.8,14.09V10.67H14.66v5.71H23.8Zm0,0"/><path class="cls-2" d="M26.08,14.09H24.94v3.43H13.52V14.09H12.38a2.46,2.46,0,0,0-2.29,2.29v5.71a2.46,2.46,0,0,0,2.29,2.28h1.14V20.94H24.94v3.43h1.14a2.45,2.45,0,0,0,2.29-2.28V16.38a2.45,2.45,0,0,0-2.29-2.29Zm0,0"/></svg>