<svg id="Layer_1" data-name="Layer 1" xmlns="http://www.w3.org/2000/svg" viewBox="0 0 38.46 38.46"><defs><style>.cls-1{fill:#26a6d1;}.cls-2{fill:#fff;}</style></defs><title>w_twitter</title><path class="cls-1" d="M19.23,0A19.23,19.23,0,1,1,0,19.23,19.23,19.23,0,0,1,19.23,0Zm0,0"/><path class="cls-2" d="M31.26,13a9.68,9.68,0,0,1-2.7.71,4.56,4.56,0,0,0,2.06-2.51,9.38,9.38,0,0,1-3,1.1,4.78,4.78,0,0,0-3.42-1.43,4.62,4.62,0,0,0-4.69,4.54,4.42,4.42,0,0,0,.12,1A13.46,13.46,0,0,1,10,11.66a4.44,4.44,0,0,0-.63,2.28,4.54,4.54,0,0,0,2.08,3.79,4.85,4.85,0,0,1-2.12-.57v.06a4.59,4.59,0,0,0,3.76,4.46,5,5,0,0,1-1.24.16,5.14,5.14,0,0,1-.88-.08,4.68,4.68,0,0,0,4.38,3.15,9.51,9.51,0,0,1-5.82,1.95,10.37,10.37,0,0,1-1.12-.06,13.59,13.59,0,0,0,7.19,2A13,13,0,0,0,28.93,15.9v-.59A9.5,9.5,0,0,0,31.26,13Zm0,0"/></svg>