<svg xmlns="http://www.w3.org/2000/svg" viewBox="0 0 63 34"><defs><style>.cls-1{fill:#35144f;}.cls-2{fill:#fdbf2e;}</style></defs><title>Asset 4</title><g id="Layer_2" data-name="Layer 2"><g id="Layer_1-2" data-name="Layer 1"><rect class="cls-1" width="63" height="34" rx="12" ry="12"/><path class="cls-2" d="M14,8.22v1.87H10.23V15.8H13v1.87H10.23v7H8.3V8.22Z"/><path class="cls-2" d="M17.29,8.22V24.67H15.35V8.22Z"/><path class="cls-2" d="M24.89,8.22v1.87H21.15V15.8H23.9v1.87H21.15v7H19.22V8.22Z"/><path class="cls-2" d="M29.36,8.22l2.86,16.45H30.35L30,22.29H26.9l-.35,2.38H24.68L27.45,8.22Zm-2.2,12.46h2.56l-1.3-8.23Z"/><path class="cls-2" d="M38.81,8.22l1,11.57L41.6,8.22h1.85l1.66,11.64L46.29,8.22h1.87L46.29,24.67H44.36L42.53,12.28l-2,12.39H38.67L37,8.22Z"/><path class="cls-2" d="M51.1,21.66a1.43,1.43,0,0,0,.38,1.08,1.49,1.49,0,0,0,1,.35,1.51,1.51,0,0,0,1-.35,1.37,1.37,0,0,0,.4-1.08v-.33l1.79-.46v.84a3.3,3.3,0,0,1-1,2.38,2.87,2.87,0,0,1-1,.65,3.64,3.64,0,0,1-1.29.22,3.48,3.48,0,0,1-1.26-.22,2.91,2.91,0,0,1-1-.65,3.21,3.21,0,0,1-.69-1,3.42,3.42,0,0,1-.25-1.35V11.18a3.42,3.42,0,0,1,.25-1.35,3.21,3.21,0,0,1,.69-1,2.82,2.82,0,0,1,1-.65,3.85,3.85,0,0,1,1.34-.22,3.16,3.16,0,0,1,2.34.87,3.26,3.26,0,0,1,.86,2.38v.55H53.93v-.5A1.27,1.27,0,0,0,52.54,9.8a1.51,1.51,0,0,0-1.06.36,1.39,1.39,0,0,0-.38,1.07Z"/></g></g></svg>