<svg width="150" height="45" viewBox="0 0 200 150" xmlns="http://www.w3.org/2000/svg"><g fill="none" fill-rule="evenodd"><path d="M73.807 50.22c-1.328-7.27-4.345-23.633-5.79-29.181-2.926-11.265-8.574-15.17-16.89-16.916C44.73 2.774 31.668.822 21.404.193 8.02-.63 1.445 4.059.683 17.339.168 26.343.04 45.61.04 45.61-.4 59.211 5.648 69.011 20.23 69.961c5.339.347 19.432.63 19.432.63l34.157 41.332-10.264-42.796C74.71 67.097 75.29 58.389 73.807 50.22z" fill="#00C5C5" fill-rule="nonzero"/><path d="M118.087 33.253H105.94a1.01 1.01 0 0 0-1.018 1.015v13.756s-.284 5.664 2.888 6.974c.129.077.258.141.4.219a9.66 9.66 0 0 0 4.229.963c1.857 0 3.52-.578 4.99-1.721.039-.026.077-.065.103-.09l.684-.68c.025-.027.038-.04.064-.065l.58-.694c.155-.18.245-.41.245-.655V34.268a1.01 1.01 0 0 0-1.018-1.015z"/><path d="M188 29.952l-.039-.886a1.02 1.02 0 0 0-1.018-.976H92.49c-.36 0-.993-.424-1.38-.72-2.295-1.72-3.133-3.865-3.416-4.931a1.197 1.197 0 0 1-.052-.167h.013a5.628 5.628 0 0 1-.103-.514l.013.013a7.457 7.457 0 0 1-.142-1.439c0-1.015.193-2.016.593-2.98 1.135-2.954 3.688-4.43 7.646-4.43 1.47 0 3.288.295 5.442.898 2.153.604 4.165 1.349 6.034 2.26 1.354.681 2.798 1.568 4.333 2.647l4.539 3.21c.025.026.064.04.09.065l3.443 3.044c.013.013.038.026.051.051l.49.488h.013a3.127 3.127 0 0 0 2.437 1.156c.439 0 .851-.09 1.225-.244.335-.141.62-.334.89-.578l.193-.192c.013-.013.026-.039.052-.052.077-.09.155-.18.232-.282.013-.013.013-.026.026-.052.09-.128.167-.27.232-.41 0-.014.013-.026.026-.04.064-.153.116-.295.154-.449 0-.013.013-.025.013-.038.065-.257.116-.527.116-.81a3.07 3.07 0 0 0-.619-1.849c-.012-.026-.025-.051-.051-.09a3.019 3.019 0 0 0-.206-.218l-.116-.116c-.671-.63-1.896-1.554-2.09-1.708l-2.01-1.721c-1.47-1.246-3.289-2.48-5.442-3.725-3.056-1.747-4.849-2.736-5.351-2.967a42.442 42.442 0 0 0-7.557-2.543c-2.669-.617-5.132-.925-7.388-.925-.27 0-.555.026-.851.039l.013-.013s-1.921.038-4.23.822c-.012 0-.012 0-.025.013-.013 0-.013.013-.026.013-2.811.963-6.19 3.018-7.466 7.462a11.763 11.763 0 0 0-.58 3.738l.064.629c0 .244 0 .475.026.732.039.616.129 1.182.245 1.721l.013.09c.013.026.013.051.026.064.387 1.696 1.134 3.057 2.127 4.149l.31.475.516.514-4.771.077a1.025 1.025 0 0 0-1.006 1.015v2.967a1.01 1.01 0 0 0 1.018 1.014h5.184c.567 0 1.019.45 1.019 1.015v35.321c0 .552.438 1.002.993 1.015l4.164.115c.58.013 1.045-.45 1.045-1.014V34.268a1.01 1.01 0 0 1 1.019-1.015h4.087c.567 0 1.019.45 1.019 1.015V47.96l-.013-.013s-.039.54.013 1.387c.077 1.477.387 3.93 1.508 6.242.826 1.708 2.115 3.327 4.062 4.431.658.463 1.341.887 2.089 1.233a.63.63 0 0 0 .142.052h.013c4.32 1.926 8.252.796 10.522-.283l.18-.064c.052-.026.103-.039.155-.077l1.29-.72.425-.333v9.761c0 .552.438 1.002.993 1.015l4.332.115c.58.013 1.045-.45 1.045-1.014v-19.96a1 1 0 0 1 .27-.693l.684-.733c.051-.051.103-.102.154-.14l1.045-.746c.039-.026.077-.051.129-.077 1.792-.989 3.868-1.49 6.228-1.49 1.25 0 2.411.167 3.481.501 2.437.9 3.882 2.222 4.333 3.956.4.784.593 1.773.593 2.941 0 1.208-.27 2.415-.812 3.635-.026.052-.052.103-.078.142-.902 1.528-1.985 2.607-3.275 3.21-1.083.566-2.27.848-3.572.848h-1.276a1.01 1.01 0 0 0-1.019 1.015v3.725a1.01 1.01 0 0 0 1.019 1.014H135.08c.04 0 .078 0 .117-.012l.064-.013c1.844-.077 4.655-.463 7.195-1.85 1.65-.835 3.043-2.106 4.152-3.802 1.354-2.08 2.037-4.508 2.037-7.282 0-2.26-.31-4.175-.94-5.754-1.47-3.725-4.024-6.088-7.647-7.116a15.623 15.623 0 0 0-3.417-.848c-5.725-.873-9.942 1.156-11.115 1.824v-7.745a1.01 1.01 0 0 1 1.018-1.014H170.85c.568 0 1.02.45 1.02 1.014v4.932a1.01 1.01 0 0 1-1.02 1.015h-4.332c-2.901.154-6.989.745-9.98 2.672-2.102 1.49-3.869 3.789-4.423 7.36a18.719 18.719 0 0 0-.297 3.377c0 .578.026 1.156.09 1.721.13 1.773.478 3.288 1.006 4.586a.115.115 0 0 1 .013.064c0 .013.013.013.013.025a11.251 11.251 0 0 0 3.765 4.856.178.178 0 0 0 .052.038c3.224 2.774 7.363 4.162 12.404 4.162 3.056 0 5.61-.347 7.647-1.054.064-.025.142-.051.206-.077 8.33-2.71 8.343-9.992 8.278-11.2 0-.115.013-.23.013-.36v-.487c0-.566-.464-1.028-1.031-1.015l-3.907.051a1.014 1.014 0 0 0-.993.9l-.142 1.258a.374.374 0 0 1-.026.116l-.31 1.297c-.012.051-.025.115-.051.167l-.413.976a.699.699 0 0 1-.141.231l-.594.732c-.683.848-1.611 1.439-2.798 1.773-1.47.45-3.056.68-4.745.68-2.488 0-4.68-.398-6.602-1.181-1.895-.784-3.288-2.004-4.203-3.66-.026-.052-.052-.09-.065-.142-.541-1.284-.812-2.697-.812-4.238 0-1.811.322-3.301.967-4.483.632-1.156 1.573-2.068 2.824-2.749.064-.025.116-.064.18-.077l1.367-.462.116-.039c.993-.205 1.754-.346 2.244-.398.039 0 .077-.013.129-.013h10.418a1.01 1.01 0 0 0 1.02-1.014V34.255a1.01 1.01 0 0 1 1.018-1.015l5.415-.025h2.773c.554 0 1.005-.437 1.018-.976l.039-.887v-1.4zm-68.895 22.323c0 .244-.09.475-.245.655l-.58.694c-.026.026-.039.051-.064.064l-.684.68a.645.645 0 0 1-.103.09c-1.47 1.157-3.133 1.722-4.99 1.722a9.66 9.66 0 0 1-4.23-.963 3.965 3.965 0 0 1-.4-.219c-3.171-1.31-2.887-6.974-2.887-6.974V34.268a1.01 1.01 0 0 1 1.018-1.015h12.147c.567 0 1.018.45 1.018 1.015v18.007z" fill="#D83968" fill-rule="nonzero"/></g></svg>