<svg width="30" height="37" viewBox="0 0 30 37" xmlns="http://www.w3.org/2000/svg"><g id="final-homepage-Chinmay" stroke="none" stroke-width="1" fill="none" fill-rule="evenodd"><g id="Web-_Final-Homepage" transform="translate(-207 -4771)" fill="#FFF" fill-rule="nonzero"><g id="Footer" transform="translate(0 4717)"><g id="footer"><g id="Group-13"><g id="Group-27" transform="translate(103 20)"><g id="Group-12"><g id="Group-4" transform="translate(0 1)"><g id="flaticon1506579784-svg" transform="translate(104 33)"><path d="M25.03 19.525c-.047-4.654 3.795-6.886 3.967-6.997-2.159-3.158-5.521-3.59-6.72-3.64-2.861-.29-5.583 1.684-7.035 1.684-1.449 0-3.69-1.642-6.063-1.599-3.12.046-5.995 1.814-7.601 4.607-3.24 5.623-.83 13.954 2.328 18.514 1.544 2.232 3.384 4.74 5.8 4.65 2.327-.093 3.207-1.506 6.02-1.506 2.813 0 3.604 1.506 6.067 1.46 2.504-.047 4.09-2.275 5.623-4.514 1.772-2.59 2.502-5.097 2.545-5.226-.056-.025-4.883-1.875-4.931-7.433zM20.403 5.868C21.685 4.312 22.55 2.153 22.315 0c-1.847.075-4.087 1.23-5.412 2.783-1.19 1.377-2.23 3.575-1.951 5.685 2.062.161 4.167-1.048 5.45-2.6z" id="apple"/></g></g></g></g></g></g></g></g></g></svg>