<?xml version="1.0" encoding="utf-8"?>
<!-- Generator: Adobe Illustrator 16.0.0, SVG Export Plug-In . SVG Version: 6.00 Build 0)  -->
<!DOCTYPE svg PUBLIC "-//W3C//DTD SVG 1.1//EN" "http://www.w3.org/Graphics/SVG/1.1/DTD/svg11.dtd">
<svg version="1.1" xmlns="http://www.w3.org/2000/svg" xmlns:xlink="http://www.w3.org/1999/xlink" x="0px" y="0px" width="100px"
	 height="100px" viewBox="0 0 100 100" enable-background="new 0 0 100 100" xml:space="preserve">
<g id="guides">
</g>
<g id="home">
	<g>
		<path fill="none" d="M68.668,54.407c-0.171,0.102-0.599,0.316-1.134,0.582c-0.467,0.23-1.33,0.658-1.995,1.02
			c0.055,0.148,0.101,0.299,0.138,0.451c0.321,1.318-0.026,2.674-0.98,3.816c-1.13,1.354-2.854,2.129-4.736,2.129
			c-0.013,0-0.025,0-0.038,0l-13.554-0.074c0,0.002-0.05,0.088-0.05,0.092l-3.076-0.037c-0.003-0.834,0.322-1.623,0.916-2.217
			c0.591-0.59,1.375-0.914,2.209-0.914c0.006,0,0.011,0,0.016,0l13.556,0.074c0.006,0,0.014,0,0.019,0
			c0.954,0,1.841-0.383,2.377-1.023c0.434-0.521,0.409-0.887,0.354-1.117c-0.034-0.141-0.096-0.279-0.18-0.414
			c-0.117-0.104-0.215-0.227-0.296-0.369c-0.229-0.229-0.521-0.426-0.843-0.562c-0.99-0.416-2.234-0.408-3.438-0.396
			c-0.647,0.004-1.312,0.016-1.988,0.029c-3.432,0.066-7.323,0.141-10.865-0.783c-0.76-0.197-1.488-0.408-2.198-0.615
			c-3.233-0.938-5.791-1.676-9.089-0.539c-3.193,1.102-6.288,3.303-9.741,6.922c-0.025,0.027-0.052,0.053-0.079,0.078l-7.009,6.355
			l9.479,11.027l9.524-7.297c0.362-0.277,0.831-0.381,1.277-0.277c0.603,0.139,1.281,0.148,2.041,0.148l20.355,0.004
			c0.834,0,1.696,0,2.368-0.246c0.789-0.287,1.542-1.002,2.207-1.631c8.256-7.822,17.18-18.494,18.646-22.115
			c-1.024,0.107-2.201,0.725-3.354,1.414L68.668,54.407z"/>
		<path fill="none" d="M51.037,43.567L62.82,31.784c1.075-1.076,1.666-2.506,1.666-4.033c0-1.525-0.592-2.957-1.666-4.031
			c-1.075-1.076-2.507-1.666-4.032-1.666c-1.526,0-2.958,0.59-4.032,1.664l-1.544,1.545c-0.601,0.6-1.387,0.9-2.175,0.9
			c-0.787,0-1.574-0.301-2.175-0.9l-1.543-1.543c-1.077-1.078-2.51-1.672-4.033-1.672s-2.955,0.594-4.032,1.67
			c-1.074,1.076-1.666,2.508-1.666,4.033c0,1.527,0.593,2.959,1.666,4.033L51.037,43.567z"/>
		<path fill="#FFFFFF" d="M85.084,43.771c-2.788-1.1-5.633,0.598-7.159,1.512l-10.837,6.484c-0.142,0.086-0.488,0.252-0.917,0.465
			c-1.062,0.525-1.921,0.949-2.579,1.338c-0.319-0.219-0.664-0.408-1.031-0.562c-1.572-0.662-3.278-0.645-4.651-0.639
			c-0.659,0.006-1.336,0.018-2.024,0.031c-3.394,0.066-6.899,0.133-10.03-0.684c-0.731-0.189-1.435-0.395-2.118-0.592
			c-3.459-1.002-6.728-1.947-10.949-0.492c-3.662,1.264-7.135,3.699-10.924,7.666l-7.026,6.373c-1.213,1.098-1.326,2.93-0.26,4.17
			l9.58,11.145c0.591,0.688,1.429,1.043,2.274,1.043c0.637,0,1.276-0.201,1.817-0.615l9.052-6.936
			c0.661,0.086,1.318,0.096,1.983,0.096l20.355,0.002c1.051,0,2.24,0,3.424-0.432c1.388-0.506,2.431-1.494,3.268-2.287
			c4.158-3.941,9.291-9.459,13.075-14.057c6.826-8.293,7.167-10.777,6.52-12.227C85.762,44.206,85.459,43.919,85.084,43.771z
			 M64.215,68.624c-0.665,0.629-1.418,1.344-2.207,1.631c-0.674,0.246-1.535,0.246-2.368,0.246l-20.356-0.004
			c-0.76,0-1.438-0.01-2.041-0.148c-0.445-0.104-0.915,0-1.277,0.277l-9.523,7.297l-9.479-11.025l7.009-6.357
			c0.028-0.025,0.054-0.051,0.079-0.078c3.452-3.621,6.548-5.82,9.741-6.92c3.298-1.137,5.855-0.398,9.089,0.539
			c0.709,0.205,1.439,0.416,2.198,0.615c3.542,0.922,7.434,0.848,10.865,0.781c0.676-0.012,1.342-0.025,1.988-0.031
			c1.204-0.01,2.447-0.018,3.438,0.398c0.322,0.135,0.614,0.334,0.843,0.564c0.081,0.141,0.179,0.264,0.296,0.367
			c0.085,0.137,0.146,0.275,0.18,0.414c0.056,0.23,0.08,0.596-0.354,1.117c-0.536,0.643-1.423,1.023-2.377,1.023
			c-0.006,0-0.013,0-0.019,0l-13.555-0.076c-0.005,0-0.011,0-0.016,0c-0.835,0-1.619,0.324-2.209,0.914
			c-0.594,0.594-0.92,1.383-0.917,2.217l3.076,0.037c0-0.002,0.051-0.088,0.051-0.092l13.554,0.074c0.013,0,0.025,0,0.037,0
			c1.883,0,3.606-0.775,4.737-2.129c0.953-1.143,1.302-2.5,0.98-3.816c-0.037-0.152-0.083-0.303-0.138-0.451
			c0.665-0.361,1.527-0.789,1.995-1.02c0.535-0.266,0.962-0.48,1.133-0.582l10.838-6.484c1.153-0.689,2.331-1.309,3.355-1.414
			C81.394,50.132,72.47,60.802,64.215,68.624z"/>
		<path fill="#FFFFFF" d="M37.078,33.958l13.824,13.826l0.135-0.135l0.134,0.135l13.824-13.826c3.424-3.422,3.424-8.992,0-12.414
			c-1.711-1.713-3.959-2.568-6.207-2.568s-4.497,0.855-6.208,2.566l-1.543,1.543l-1.544-1.541c-1.658-1.658-3.862-2.572-6.207-2.572
			c-2.346,0-4.55,0.914-6.208,2.572C33.654,24.966,33.654,30.536,37.078,33.958z M39.253,23.718c1.076-1.078,2.509-1.67,4.032-1.67
			c1.522,0,2.955,0.592,4.032,1.67l1.544,1.543c0.601,0.6,1.387,0.9,2.175,0.9c0.787,0,1.574-0.301,2.174-0.9l1.544-1.543
			c1.074-1.074,2.507-1.666,4.032-1.666s2.958,0.592,4.032,1.666c1.075,1.076,1.666,2.508,1.666,4.033s-0.592,2.957-1.666,4.031
			L51.037,43.567L39.253,31.782c-1.074-1.074-1.667-2.506-1.667-4.031S38.178,24.794,39.253,23.718z"/>
	</g>
</g>
<g id="story" display="none">
</g>
<g id="author-feed" display="none">
</g>
<g id="category-feed" display="none">
</g>
<g id="grid" display="none">
</g>
<g id="Layer_5" display="none">
</g>
</svg>
