<svg width="39" height="39" viewBox="0 0 39 39" xmlns="http://www.w3.org/2000/svg"><title>Artboard Copy</title><g fill-rule="nonzero" fill="none"><path d="M31.5 32.4l-3-3c-.6-.5-1.5-.5-2 0-.6.6-.6 1.4 0 2l4.3 4.3c.4.4 1 .4 1.4 0l1.3-1.3 3-3c.6-.6.6-1.4 0-2-.5-.5-1.4-.5-2 0l-3 3zM22.5 33.7L12.5 22s-4 0-5.5-.2c-4.2-.3-6-3-5.8-7 0 0 0-5.4.2-8 .2-3.7 2-5 6-4.8 3 .2 6.7.7 8.6 1 2.4.6 4 1.7 5 5l1.6 8.2c.4 2.3.3 4.8-3 5.4l3 12" fill="#e1306c"/><path d="M13 17.3c-1.6 0-3-1.2-3.2-2.7 0-1.4-.4-5.7-.5-6.6 0-1.3 1-2 2.4-1.8 1.2.2 2.6 1 2.7 2.4l1 6.4c0 1.4-1 2.4-2.5 2.3zm7.6-1L19.4 10c-.5-2.5-.6-4.7-3.8-5.3-1.2-.2-6-1-9-1-2.8.2-3 2.5-3 4-.2 1.8 0 6 0 7.2 0 2.6 1 3.5 1.7 4 1 .6 1.7.7 4 .7h4.2l5.3 7-2.2-7H19c1.7-.6 1.8-2 1.6-3.4z" fill="#FFF"/></g></svg>
