<svg xmlns="http://www.w3.org/2000/svg" width="37.728" height="27.444" viewBox="0 0 37.728 27.444">
  <g id="Group_26802" data-name="Group 26802" transform="translate(0 1.738)">
    <path id="Path_131768" data-name="Path 131768" d="M-13.226-12.109h-4.331L-19.223,1.409h-2.829l1.645-13.518H-24.76l.285-2.335H-12.93Zm2.905,6.6a6.777,6.777,0,0,0,.263,1.952,4.294,4.294,0,0,0,.767,1.5,3.394,3.394,0,0,0,1.233.954A3.942,3.942,0,0,0-6.4-.773a4.831,4.831,0,0,0,2.171-.482A4.819,4.819,0,0,0-2.559-2.615,6.4,6.4,0,0,0-1.49-4.736a9.537,9.537,0,0,0,.378-2.779A6.648,6.648,0,0,0-1.38-9.467a4.371,4.371,0,0,0-.778-1.5A3.461,3.461,0,0,0-3.4-11.934a3.9,3.9,0,0,0-1.656-.34,4.772,4.772,0,0,0-2.154.482,4.785,4.785,0,0,0-1.661,1.37A6.519,6.519,0,0,0-9.943-8.283,9.552,9.552,0,0,0-10.321-5.509Zm5.745,6.83a8.524,8.524,0,0,1-2.138.263,6.613,6.613,0,0,1-2.719-.537,6.037,6.037,0,0,1-2.056-1.48,6.486,6.486,0,0,1-1.3-2.226,8.365,8.365,0,0,1-.45-2.785,10.526,10.526,0,0,1,.291-2.505,9.455,9.455,0,0,1,.833-2.209A8.73,8.73,0,0,1-10.809-12,8.209,8.209,0,0,1-9.1-13.409a8.034,8.034,0,0,1,2.056-.9,8.56,8.56,0,0,1,2.335-.312,6.613,6.613,0,0,1,2.719.537A5.98,5.98,0,0,1,.062-12.6a6.524,6.524,0,0,1,1.294,2.231,8.414,8.414,0,0,1,.45,2.79,10.584,10.584,0,0,1-.269,2.412A9.449,9.449,0,0,1,.763-3.026,8.938,8.938,0,0,1-.448-1.217,7.894,7.894,0,0,1-2.043.192L1.125,4.523H-1.2a2.684,2.684,0,0,1-.894-.137,1.454,1.454,0,0,1-.674-.51Z" transform="translate(24.76 21.184)" fill="#35144f"/>
    <path id="Path_131767" data-name="Path 131767" d="M1.054-4.6H-3.657l-.616,5H-6.629l.616-5H-10.7l.266-2.138h4.687l.616-4.977h2.343L-3.4-6.743H1.332Z" transform="translate(36.168 10.182)" fill="#ffbf00" stroke="#000" stroke-width="0.4"/>
  </g>
</svg>