<?xml version="1.0" encoding="utf-8"?>
<!-- Generator: Adobe Illustrator 21.1.0, SVG Export Plug-In . SVG Version: 6.00 Build 0)  -->
<svg version="1.1" id="Layer_1" xmlns="http://www.w3.org/2000/svg" xmlns:xlink="http://www.w3.org/1999/xlink" x="0px" y="0px"
	 width="18.6px" height="24px" viewBox="0 0 18.6 24" style="enable-background:new 0 0 18.6 24;" xml:space="preserve">
<style type="text/css">
	.st0{fill:#F40B3D;}
</style>
<g>
	<polygon class="st0" points="17.5,12 1.4,22.9 1.4,12.2 1.4,1 	"/>
	<path class="st0" d="M1.4,23.7c-0.1,0-0.2,0-0.3-0.1c-0.2-0.1-0.4-0.4-0.4-0.6V1c0-0.3,0.2-0.5,0.4-0.6c0.2-0.1,0.5-0.1,0.8,0
		l16.1,11c0.2,0.1,0.3,0.4,0.3,0.6c0,0.2-0.1,0.5-0.3,0.6l-16.1,11C1.7,23.6,1.5,23.7,1.4,23.7z M2.1,2.4v19.2L16.2,12L2.1,2.4z"/>
</g>
</svg>
