<?xml version="1.0" encoding="utf-8"?>
<!-- Generator: Adobe Illustrator 21.1.0, SVG Export Plug-In . SVG Version: 6.00 Build 0)  -->
<svg version="1.1" id="icons" xmlns="http://www.w3.org/2000/svg" xmlns:xlink="http://www.w3.org/1999/xlink" x="0px" y="0px"
	 width="65px" height="65px" viewBox="0 0 65 65" style="enable-background:new 0 0 65 65;" xml:space="preserve">
<style type="text/css">
	.st0{fill:#B7B7B7;}
	.st1{fill:#FBB03B;}
	.st2{fill:#70AFED;}
</style>
<title>weather</title>
<path class="st0" d="M56.1,22.9C57.8,14,51.9,5.4,42.9,3.7c-7.1-1.3-14.2,2.2-17.6,8.6c-3.3-2.2-7.8-1.8-10.6,1
	c-1.3,1.3-2.1,3.1-2.3,4.9C5.8,18.7,0.6,24.1,0.4,30.8c-0.2,7.1,5.4,13,12.5,13.1c0,0,0,0,0,0h41c5.9,0.1,10.7-4.7,10.7-10.5
	C64.7,28.3,61.1,23.9,56.1,22.9z"/>
<path class="st1" d="M33.2,61.2V47.9H22.6L35,22.3v14.7h9.8L33.2,61.2z"/>
<path class="st1" d="M32.6,63.7V48.5h-11l13.9-28.6v16.5h10.1L32.6,63.7z M23.4,47.4h10.4v11.4l10.1-21.4h-9.4V24.6L23.4,47.4z"/>
<path class="st2" d="M45.6,56.1c-1,0-1.8-0.8-1.8-1.8c0-0.3,0.1-0.7,0.3-1l3.9-6.4c0.5-0.9,1.6-1.2,2.4-0.8s1.2,1.6,0.8,2.4
	c0,0.1-0.1,0.1-0.1,0.2l-3.9,6.4C46.8,55.7,46.2,56.1,45.6,56.1z"/>
<path class="st2" d="M5,56.1c-1,0-1.8-0.8-1.8-1.8c0-0.3,0.1-0.7,0.3-0.9l3.9-6.4C7.8,46,9,45.7,9.8,46.2c0.9,0.5,1.2,1.6,0.7,2.5
	c0,0,0,0.1-0.1,0.1l-3.9,6.4C6.2,55.7,5.6,56.1,5,56.1z"/>
<path class="st2" d="M54.9,56.1c-1,0-1.8-0.8-1.8-1.8c0-0.3,0.1-0.7,0.3-0.9l4-6.4c0.6-0.8,1.7-1,2.5-0.4c0.7,0.5,1,1.5,0.6,2.3
	l-3.9,6.4C56.2,55.8,55.6,56.1,54.9,56.1z"/>
<path class="st2" d="M14.5,56.1c-1,0-1.8-0.8-1.8-1.8c0-0.3,0.1-0.7,0.3-0.9l3.9-6.4c0.6-0.8,1.7-1,2.5-0.4c0.7,0.5,1,1.5,0.6,2.3
	L16,55.2C15.7,55.7,15.1,56.1,14.5,56.1z"/>
</svg>
