<svg id="Layer_1" data-name="Layer 1" xmlns="http://www.w3.org/2000/svg" viewBox="0 0 1200 1200"><defs><style>.cls-1,.cls-2{fill:#fff;}.cls-1{stroke:#fff;stroke-miterlimit:10;}</style></defs><title>audio-play-white</title><path class="cls-1" d="M867.84,588.55c9.94,6.68,9.81,23.18-.24,29.7L658.37,754,449.14,889.85c-10,6.52-22.47-1.83-22.36-15L429,599.88l2.2-274.94c.11-13.2,12.66-21.35,22.6-14.67l207,139.14Z" transform="translate(0)"/><path class="cls-2" d="M600,30a567.2,567.2,0,0,1,318.67,97.33,571.75,571.75,0,0,1,206.55,250.81,569.21,569.21,0,0,1-52.55,540.53,571.75,571.75,0,0,1-250.81,206.55,569.21,569.21,0,0,1-540.53-52.55A571.75,571.75,0,0,1,74.78,821.86a569.21,569.21,0,0,1,52.55-540.53A571.75,571.75,0,0,1,378.14,74.78,566.4,566.4,0,0,1,600,30m0-30C268.63,0,0,268.63,0,600s268.63,600,600,600,600-268.63,600-600S931.37,0,600,0Z" transform="translate(0)"/></svg>