<svg id="Layer_1" data-name="Layer 1" xmlns="http://www.w3.org/2000/svg" viewBox="0 0 1200 1200"><defs><style>.cls-1{fill:#fff;}.cls-2{fill:none;stroke:#fff;stroke-linecap:round;stroke-miterlimit:10;stroke-width:80px;}</style></defs><title>audio-close-white</title><path class="cls-1" d="M600,31a567.2,567.2,0,0,1,318.67,97.33,571.75,571.75,0,0,1,206.55,250.81,569.21,569.21,0,0,1-52.55,540.53,571.75,571.75,0,0,1-250.81,206.55,569.21,569.21,0,0,1-540.53-52.55A571.75,571.75,0,0,1,74.78,822.86a569.21,569.21,0,0,1,52.55-540.53A571.75,571.75,0,0,1,378.14,75.78,566.4,566.4,0,0,1,600,31m0-30C268.63,1,0,269.63,0,601s268.63,600,600,600,600-268.63,600-600S931.37,1,600,1Z" transform="translate(0 -1)"/><line class="cls-2" x1="352.46" y1="846.54" x2="847.54" y2="351.46"/><line class="cls-2" x1="352.46" y1="351.46" x2="847.54" y2="846.54"/></svg>