<svg id="Layer_1" data-name="Layer 1" xmlns="http://www.w3.org/2000/svg" viewBox="0 0 1200 1200"><defs><style>.cls-1{fill:#fff;}.cls-2{fill:none;stroke:#fff;stroke-linecap:round;stroke-miterlimit:10;stroke-width:150px;}</style></defs><title>audio-pause-white</title><path class="cls-1" d="M600,30a567.2,567.2,0,0,1,318.67,97.33,571.75,571.75,0,0,1,206.55,250.81,569.21,569.21,0,0,1-52.55,540.53,571.75,571.75,0,0,1-250.81,206.55,569.21,569.21,0,0,1-540.53-52.55A571.75,571.75,0,0,1,74.78,821.86a569.21,569.21,0,0,1,52.55-540.53A571.75,571.75,0,0,1,378.14,74.78,566.4,566.4,0,0,1,600,30m0-30C268.63,0,0,268.63,0,600s268.63,600,600,600,600-268.63,600-600S931.37,0,600,0Z"/><line class="cls-2" x1="750.83" y1="349.97" x2="750.83" y2="850.03"/><line class="cls-2" x1="450" y1="350" x2="451.65" y2="850"/></svg>