<?xml version="1.0" encoding="utf-8"?>
<!-- Generator: Adobe Illustrator 22.1.0, SVG Export Plug-In . SVG Version: 6.00 Build 0)  -->
<svg version="1.1" id="Layer_1" xmlns="http://www.w3.org/2000/svg" xmlns:xlink="http://www.w3.org/1999/xlink" x="0px" y="0px"
	 viewBox="0 0 342 207" style="enable-background:new 0 0 342 207;" xml:space="preserve">
<style type="text/css">
	.st0{fill:#FFFFFF;}
</style>
<g>
	<path class="st0" d="M145.9,112.3c10.3-4.9,20.1-7,30.3-6c20.4,2,33.8,9.5,38.6,28.1c4,15.5,2.8,30.7-9.8,42.6
		c-9.6,9-21.7,11.2-34.4,10.5c-0.9,0-1.8-1.4-2.6-2.2c-0.2-0.2-0.2-0.8-0.2-1.2c0.1-3.7-0.7-7.7,0.4-11c1.5-4.4,6.2-1.7,9.4-2.4
		c17-3.4,25.7-20.4,17.6-35.8c-1.8-3.4-5.3-6.6-8.8-8.1c-12.4-5.6-24.5-4.3-35.9,3.2c-3.3,2.2-4.7,5.2-4.7,9.4
		c0.1,18.2,0.1,36.4,0.1,54.5c0,5.5-0.1,5.7-5.8,5.6c-15.1-0.2-12.6,1.6-12.8-13c-0.1-6.4,0-12.7,0-19.9c-2,1-3.3,1.6-4.6,2.3
		c-27.1,14.2-57.2-3.8-57.5-34.4c-0.1-14.5,0-29,0-43.5c0-5.3-1.1-6.4-6.5-6.5c-14.8-0.1-12.7-0.3-12.7,12.5c0,32.1,0,64.2,0,96.3
		c0,6.1-0.1,6.2-6.2,6.2c-13.8-0.2-12,1.5-12.1-12c-0.1-31.8,0-63.6,0-95.4c0-6.7-0.8-7.5-7.7-7.5c-3.7,0-7.4,0.3-11.1-0.2
		c-1.2-0.1-3.1-2-3.2-3.2c-1.1-10.6-1-10.6,9.4-11c2.2-0.1,4.4,0,7.4,0c-1-1.8-1.4-2.8-2-3.6C3.3,43.2,15.7,12.6,44.4,8.3
		c20.7-3.1,39.9,2.8,58.2,11.9c14.5,7.2,27.4,16.5,39.5,27.2c5.1,4.5,6,10.2,2.2,14.5c-3.9,4.4-9.5,3.9-14.5-0.7
		c-17.9-16.4-36.8-31.3-61.3-36.7c-5.8-1.3-12-1.7-18-1.4c-17.7,0.8-25.1,20.2-17.5,34.1c1.6,2.9,3.9,5.6,6.1,8.1
		c2.9,3.2,6.5,4.4,11,4.4c93.2-0.1,186.3-0.1,279.5-0.1c7.3,0,7.3,0,7.3,7.2c0,0.9-0.1,1.7,0,2.6c0.3,3.7-1,5.4-5.1,5.2
		c-6.7-0.3-13.3-0.1-20-0.1c-4.9,0-5.9,1.1-6,6.1c0,8.8,0,17.6,0,26.4c0,5.1-0.6,5.7-5.6,5.7c-9.7,0-19.3-0.1-29,0
		c-13.4,0.2-22.8,8.1-24.2,20c-2.2,18.8,7.2,31.2,26.2,33.1c7.3,0.7,15,0.2,22.3-0.9c8.6-1.4,13.4-7.4,14.9-15.9
		c1.3-7.3,0.5-6.7,7.6-7.3c10.2-0.7,11.9-1.6,10.1,11.4c-2.4,16.7-13.4,25.4-28.8,29.2c-13.8,3.4-27.9,3.7-41.5-1.4
		c-15-5.6-26.3-14.9-29.7-31.6c-1.8-9.1-1.7-18.1,0.8-26.9c3.8-13.7,13.8-20.9,27.1-23.4c8.3-1.5,16.9-1.7,25.3-2.2
		c6.1-0.3,6.8-0.8,6.8-6.9c0-3.4-0.1-6.8,0-10.2c0.1-3.4-1.7-4.9-4.9-5.1c-1,0-2,0-3,0c-42.2,0-84.4,0-126.5,0c-7.2,0-8,0.8-8,8.1
		C145.9,98.9,145.9,105.1,145.9,112.3z M127.3,116.2c0-8.8,0-17.6,0-26.4c0-3.4-1.6-5.1-4.8-5.2c-11.5-0.1-23-0.1-34.5,0
		c-3,0-4.7,1.5-4.7,4.8c0.1,15.1-0.2,30.1,0.1,45.2c0.1,6,1.5,12,6.6,16c10.1,7.9,25.8,6.6,34.4-3c1.5-1.7,2.6-4.4,2.7-6.7
		C127.5,132.7,127.3,124.5,127.3,116.2z"/>
</g>
</svg>
