<svg width="150" height="81" viewBox="0 0 408 104" xmlns="http://www.w3.org/2000/svg"><title>Group 6</title><g fill="#fff" fill-rule="evenodd"><path d="M62.1373 89.808L32.1293 57.34s-11.42-.228-15.749-.508C4.5643 56.068-.3387 48.089.0183 37.024c0 0 .101-15.675.522-23C1.1623 3.215 6.4873-.591 17.3393.074c8.322.509 18.903 2.098 24.088 3.195 6.739 1.426 11.314 4.601 13.689 13.764 1.171 4.515 3.625 17.831 4.697 23.745 1.207 6.648.733 13.734-8.315 15.378l10.639 33.652z" fill="#ff"/><path d="M195.7858 45.5375c-.004-.003-2.836-2.982-8.499-3.116-3.971-.095-7.947.743-11.497 2.54-1.253.634-2.401 1.411-3.473 2.281-.003-.004-.007-.007-.009-.01-.953.746-3.001 2.479-4.787 4.786-2.158-1.453-4.387-2.165-6.568-2.373-5.761-2.259-12.64 2.633-14.879 4.425 3.773-2.355 6.797-3.542 9.222-3.967-4.285 1.051-7.825 3.384-9.408 4.554.065-.207.128-.405.186-.587 0 0 1.476-4.866 2.115-7.448v-.001c.63-2.524 1.908-7.505 2.669-9.823l47.104-.012c-.712 2.216-1.569 6.691-2.176 8.751m-10.793 30.043c-1.979 2.76-3.901 4.403-7.142 5.503-3.737 1.268-6.883-1.351-8.078-5.295-.786-2.591-.744-5.907-.024-9.461-.004.043-.012.085-.015.128l.101-.517c.479-2.219 1.216-4.521 2.183-6.795 1.627-3.085 3.513-5.197 3.513-5.197 8.943-9.278 14.381-5.805 16.651-3.286-2.396 8.307-4.792 16.612-7.189 24.92m-58.892 0c-1.98 2.76-3.901 4.403-7.142 5.503-3.737 1.268-6.883-1.351-8.079-5.295-.785-2.591-.743-5.907-.023-9.461-.004.043-.012.085-.015.128l.101-.517c.479-2.219 1.216-4.521 2.183-6.795 1.627-3.085 3.513-5.197 3.513-5.197 8.943-9.278 14.381-5.805 16.651-3.286-2.396 8.307-4.792 16.612-7.189 24.92m110.773-29.072c3.09.563 5.553 3.894 5.553 7.097h10.993c1.911-5.977 3.512-13.273 5.424-19.25h-150.257c-.235.818-.47 1.634-.704 2.45 8.885 0 19.787-.001 31.592-.003-.332 2.029-1.399 5.69-2.199 8.56-3.421-2.26-5.781-2.972-9.554-2.78-14.396.736-24.216 13.642-25.15 27.464-.501 7.421 4.006 13.962 10.72 14.321 5.264.282 10.193-1.933 14.184-6.065-.873 2.44-2.994 8.39-3.977 11.737h11.384c1.796-6.159 6.154-20.039 9.024-29.124 15.39-9.57 18.308.298 18.72 2.232-.089.298-.191.596-.273.893-.655 2.365-1.047 4.799-1.107 7.255-.18 7.724 5.542 13.167 11.352 13.248 4.727.065 9.385-1.664 12.986-5.983-1.023 3.215-3.691 11.479-3.691 11.479h11.165s13.115-43.768 16.09-53.257c15.218-.005 28.562-.01 37.47-.014-1.019 3.093-1.865 8.552-2.83 11.249-1.631-2.692-5.019-4.313-8.234-4.569-14.024-1.116-22.992 8.807-27.234 20.797-2.413 6.578-3.407 15.197 2.081 20.882 5.609 5.806 13.167 5.912 19.948 4.034 7.854-2.175 13.135-6.834 16.802-13.201-1.017-.372-2.033-.744-3.05-1.117-2.24 4.695-9.314 11.056-17.537 12.107-5.013.292-9.447-1.513-9.427-9.05.101-5.606 2.253-12.388 4.552-17.359 2.186-4.728 7.55-15.424 15.184-14.033M205.1119 15.7729c3.215 0 5.822-2.609 5.822-5.823 0-3.215-2.607-5.821-5.822-5.821-3.214 0-5.821 2.606-5.821 5.821 0 3.214 2.607 5.823 5.821 5.823M337.6661 15.7729c3.215 0 5.822-2.609 5.822-5.823 0-3.215-2.607-5.821-5.822-5.821-3.214 0-5.821 2.606-5.821 5.821 0 3.214 2.607 5.823 5.821 5.823M216.2638 15.7846c.001-.004.004-.014.004-.014-.096-.032-.085-.022-.004.014" fill="#fff"/><path d="M111.879 17.0717c4.958-7.896 13.452-13.431 24.756-11.546 8.02 1.337 16.156 8.537 22.042 12.416 7.306 4.816 13.793 9.474 23.484 11.665 10.095 2.284 17.314 1.974 24.722-1.043 3.071-1.251 6.115-3.888 7.667-5.499 2.984-3.098 3.678-6.488 3.678-6.488-.025-.01-1.622-.641-1.964-.792-.041.137-.871 2.83-4.814 5.613-4.951 3.496-13.738 3.987-23.339.477-9.796-3.583-15.035-6.83-24.28-11.349-11.47-5.606-20.064-9.128-31.485-8.612-7.029.316-12.868 2.269-18.747 6.095-14.841 9.656-21.365 31.186-25.908 46.084-3.756 12.312-6.946 23.478-10.818 35.9h10.593c5.315-16.524 9.946-32.393 15.427-48.867 2.511-7.551 4.646-17.145 8.986-24.054M279.2325 25.307v.001-.001c0 .002-.001.003-.002.005.001-.002.001-.003.002-.005M297.8834 90.2611c-.021-.001-.042.001-.062 0h.001-.001c.193.011.385.027.579.035-.003 0-.006-.001-.009-.001.003 0 .006 0 .009.001-.174-.002-.344-.027-.517-.035M407.8253 26.5307c-.011-.136-.024-.271-.039-.407-.386-3.456-2.099-6.923-5.163-8.538-3.532-1.862-7.915-.865-11.496.903-2.258 1.113-4.363 2.505-6.574 3.702-1.013.549-14.496 9.023-18.583-5.661-.534.295-1.069.589-1.603.883 1.301 4.591 2.963 9.418 6.958 12.025 5.909 3.858 12.811 1.015 17.681-3.092 1.713-1.444 3.306-3.397 5.217-4.566 1.089-.666 2.38-1.34 3.581-.91 1.014.364 1.626 1.449 1.748 2.519.122 1.071-.753 4.794-1.029 5.835-5.272 19.951-10.545 41.12-15.818 61.071l10.153.026c4.482-17.311 8.965-34.622 13.447-51.934.903-3.485 1.813-8.269 1.52-11.856M286.6388 32.2875v-.002c.38-1.406.74-2.828 1.152-4.223 1.65-4.918 5.221-12.177 11.648-10.589 1.352.348 2.713.99 4.088 1.713 4.23 2.224 7.612 5.652 11.686 8.11 3.723 2.245 8.064 3.917 12.47 3.917 8.206 0 16.462-3.862 20.929-13.684-.547-.218-1.095-.436-1.642-.654-1.146 2.842-3.756 4.973-6.452 6.278-4.588 2.221-10.674 1.916-15.46.468-5.164-1.563-9.737-4.807-14.654-6.987-4.711-2.089-9.791-4.301-15.042-4.278-2.19.01-4.37.479-6.287 1.564-3.16 1.788-5.576 4.659-7.518 7.725-4.016 6.34-6.238 13.621-8.416 20.802-4.84 15.96-9.68 31.92-14.521 47.88 3.293-.015 6.586-.029 9.879-.044 6.356-18.767 12.286-37.68 17.785-56.716.122-.425.239-.851.355-1.28" fill="#fff"/><path d="M374.506 73.4623s-2.337 5.681-10.619 8.568c-.03.015-.611-2.256-.641-2.417-.265-1.406-.432-2.832-.508-4.26-.001-.033-.003-.065-.004-.098-.182-3.689 1.202-7.049 4.114-9.361 2.047-1.625 6.16-2.227 8.004.103 1.447 1.829.378 5.54-.346 7.465m2.332-11.061c-1.516-1.627-3.821-2.268-5.974-2.423-2.89-.208-5.721.747-7.99 2.526 0 0-10.791 7.683-6.38 23.141.02.111-14.721 3.505-11.214-14.384 1.364-6.954 4.897-15.378 10.475-20.649 1.135-1.028 2.212-1.854 3.192-2.508.464-.293.937-.57 1.424-.818 1.205-.615 2.543-1.247 3.927-1.666 8.685-1.782 9.132 6.993 9.132 6.993h11.777s4.124-15.851 4.123-15.851c.36-1.031.373-1.072.743-2.293l-99.02-.084-.833 2.457h34.339c-1.195 3.705-2.17 5.939-3.267 9.275.113-.279-.68-1.284-.849-1.507-1.237-1.631-3.162-2.517-5.121-2.933-6.038-1.282-12.077-.534-17.439 2.831-5.289 3.32-6.603 10.102-4.169 15.608.026.058.052.116.078.173.145.398.266.667.323.646-1.297.485-2.436 1.129-2.759 1.381-3.787 2.233-10.084 7.327-9.627 16.365.599 11.845 16.02 12.809 24.716 10.397 3.531-.979 6.842-2.719 9.673-5.043 1.294-1.062 2.491-2.188 3.593-3.504.306-.365 3.16-4.502 3.126-4.504-1.145-.069-2.252-.135-3.573-.214 0 0-.6 1.282-2.826 3.71-6.453 6.326-17.432 8.869-22.679 1.993-2.558-3.408-1.245-8.119 1.025-11.306 2.428-3.408 6.509-5.683 10.381-7.052 4.661-1.649 9.918-2.5 14.849-2.025 2.034.196 4.705.734 5.32 3.045.224.845.068 1.755-.269 2.562-.168.403-1.045 1.777-1.856 2.887h3.244c.722-.893 1.141-1.414 1.293-1.641.841-1.253 1.538-2.68 1.66-4.204.483-6.019-6.795-7.813-11.381-8.166-2.679-.206-5.384-.098-8.052.203-.46.053-6.23 1.156-6.222 1.172-1.301-2.66-1.153-6.149.576-8.564 4.41-6.163 13.907-4.125 15.776 3.01l.301-.068c1.344.012 11.579.032 11.579.032l5.433-14.559h40.493l-2.507 10.572s-5.737-10.399-24.205 0c-11.381 6.409-19.165 21.402-15.022 34.052 2.903 8.865 13.005 9.844 20.7 7.146 0 0 .317-.097.702-.271.011.036.029.062.039.1.715 3.25.182 6.606-1.426 9.173-.014.024-.035.043-.05.067-1.871 2.893-5.154 4.658-9.623 3.792 0 0-.269.802-.525 1.566-.087.258 2.502.73 2.726.753 1.017.105 2.045.066 3.057-.068 3.452-.458 6.961-1.724 9.295-4.417 1.159-1.338 1.979-2.935 2.516-4.616.481-1.252.864-2.601 1.104-3.983.4-2.359.34-3.399.128-4.866-.006-.047-.006-.101-.01-.151.48-.157 2.109-.783 2.202-.824 1.679-.728 3.289-1.628 4.772-2.702 4.139-2.998 6.98-7.428 7.011-12.645.009-1.634-.103-3.485-.717-5.082-.289-.751-.689-1.447-1.238-2.037" fill="#fff"/></g></svg>