<svg width="150" height="81" id="Layer_1" data-name="Layer 1" xmlns="http://www.w3.org/2000/svg" viewBox="0 0 100 27"><defs><style>.cls-1{fill:#fff;}.cls-2{mask:url(#mask);}.cls-3{fill:#fff;}.cls-4{mask:url(#mask-2-2);}.cls-5{mask:url(#mask-3);}.cls-6{mask:url(#mask-4-2);}.cls-7{mask:url(#mask-5);}.cls-8{mask:url(#mask-6-2);}.cls-9{mask:url(#mask-7);}.cls-10{mask:url(#mask-8-2);}</style><mask id="mask" x="-1.67" y=".92" width="12.09" height="19.97" maskUnits="userSpaceOnUse"><g id="mask-2"><path id="path-1" class="cls-1" d="M8.14 7.55h-2l-2.96 9.24c-.14.49.05.86.54.86.84 0 1.46-.46 2.2-1.75l.62.24a4.34 4.34 0 0 1-4 2.7c-1.68 0-2.63-1.54-2-3.75L3 7.55H1a1.41 1.41 0 0 1 .22-.7h2L4.4 3.07 7.58 3 6.33 6.85h2s-.13.7-.22.7z"/></g></mask><mask id="mask-2-2" x="5.57" y="-2.04" width="18.19" height="22.92" maskUnits="userSpaceOnUse"><g id="mask-4"><path id="path-3" class="cls-1" d="M17.63 18.84a2.13 2.13 0 0 1-2.3-2.1c0-2.21 2.09-4.66 2.09-7 0-.65-.16-1.13-.81-1.13-1.33 0-2.33 1.32-4.15 4.58l-1.71 5.41H7.63L13.2.81c0-.05 0-.08-.16-.08h-1.49a1.53 1.53 0 0 1 .22-.65L16.51 0h.05l-3.35 10.75c1.84-3.21 3.5-3.88 4.91-3.88a2.14 2.14 0 0 1 2.33 2.4c0 2.91-2.36 5.88-2.36 7.33 0 .62.24 1.05.84 1.05.81 0 1.44-.51 2.17-1.75l.6.24a4.62 4.62 0 0 1-4.07 2.7z"/></g></mask><mask id="mask-3" x="20.92" y="4.83" width="14.44" height="16.06" maskUnits="userSpaceOnUse"><g id="mask-6"><path id="path-5" class="cls-1" d="M29.64 7.57c-1.68 0-2.36 2.13-3.14 4.85h.35c3.42 0 3.82-1.62 3.82-3.48 0-1.05-.33-1.37-1-1.37zm-3 5.5h-.3a10.09 10.09 0 0 0-.57 3.15c0 1.32.35 2 1.49 2 1.79 0 2.93-.92 4.12-2.18l.38.46a5.9 5.9 0 0 1-4.61 2.35A4.17 4.17 0 0 1 23 14.37c0-3.88 3.23-7.49 6.83-7.49 2.28 0 3.5 1.19 3.5 2.67 0 2.13-2.77 3.53-6.64 3.53z"/></g></mask><mask id="mask-4-2" x="37.1" y="3.94" width="17.24" height="24.99" maskUnits="userSpaceOnUse"><g id="mask-8"><path id="path-7" class="cls-1" d="M46.59 6.82a2.19 2.19 0 0 0-1.27.49c-2 1.56-3.14 6-3.14 8.33 0 1.35.35 1.7 1.14 1.7 1.11 0 2.49-1.48 3.63-4.45l1.35-4.24a1.73 1.73 0 0 0-1.71-1.83zm-.9 20.07h-3.15l3.62-11.33a3.75 3.75 0 0 1-3.42 2.56 3.58 3.58 0 0 1-3.58-3.83c0-3.83 3.17-8.11 7.59-8.11a2 2 0 0 1 1.92 1.37l.63-1.05 3-.51-6.6 20.9z"/></g></mask><mask id="mask-5" x="51.25" y="4.07" width="17.62" height="16.06" maskUnits="userSpaceOnUse"><g id="mask-10"><path id="path-9" class="cls-1" d="M63.45 16c-.19.57.05.86.68.86.84 0 1.33-.46 2-1.72l.65.22A4.36 4.36 0 0 1 63 18.09c-1.52 0-3-1.16-2.09-3.88-1.84 3.18-3.28 3.88-4.72 3.88a2.29 2.29 0 0 1-2.49-2.43c0-2.88 2.3-6.12 2.3-7.55 0-.62-.16-.86-.6-.86s-1 .54-1.46 1.46l-.62-.22a3.65 3.65 0 0 1 3.33-2.37 1.94 1.94 0 0 1 2.17 2.1c0 2.21-2.12 4.64-2.12 7 0 .65.19 1.13.84 1.13 1.3 0 2.3-1.32 4.12-4.58l1.71-5.44 3.17-.16L63.45 16z"/></g></mask><mask id="mask-6-2" x="66.22" y="4.07" width="10.97" height="16.06" maskUnits="userSpaceOnUse"><g id="mask-12"><path id="path-11" class="cls-1" d="M71 18.09a2.14 2.14 0 0 1-2.3-2.29c0-2.53 2.49-5.52 2.49-7.52 0-.78-.3-1-.76-1s-1.13.72-1.5 1.48l-.65-.22A4 4 0 0 1 72 6.12a2.1 2.1 0 0 1 2.17 2.16c0 2.7-2.6 5.85-2.6 7.57 0 .62.22 1.05.81 1.05.84 0 1.46-.46 2.2-1.75l.6.24a4.75 4.75 0 0 1-4.18 2.7z"/></g></mask><mask id="mask-7" x="74.27" y="4.07" width="18.19" height="16.06" maskUnits="userSpaceOnUse"><g id="mask-14"><path id="path-13" class="cls-1" d="M86.33 18.09A2.13 2.13 0 0 1 84 16c0-2.21 2.09-4.64 2.09-7 0-.65-.16-1.13-.81-1.13C84 7.82 83 9.14 81.15 12.43l-1.71 5.42h-3.11l3-9.27c.24-.75 0-1.27-.57-1.27s-1 .35-1.52 1.46l-.62-.22A3.89 3.89 0 0 1 80 6.12c1.55 0 2.66 1.27 1.87 3.88 1.84-3.21 3.5-3.88 4.91-3.88a2.16 2.16 0 0 1 2.33 2.4c0 2.91-2.36 5.88-2.36 7.33 0 .62.24 1.05.84 1.05.81 0 1.44-.51 2.17-1.75l.6.24a4.62 4.62 0 0 1-4.07 2.7z"/></g></mask><mask id="mask-8-2" x="89.91" y=".17" width="12.09" height="19.97" maskUnits="userSpaceOnUse"><g id="mask-16"><path id="path-15" class="cls-1" d="M99.72 6.79h-2L94.76 16c-.14.48.05.86.54.86.84 0 1.46-.46 2.2-1.75l.62.24a4.34 4.34 0 0 1-4 2.7c-1.68 0-2.63-1.54-2-3.75l2.48-7.51h-2c-.05 0 .14-.7.22-.7h2L96 2.32l3.17-.11-1.26 3.88h2s-.14.7-.22.7z"/></g></mask></defs><title>logo quint</title><g id="Page-1"><g id="Big-Story-Desktop"><g id="Group-96"><g id="Page-1-2" data-name="Page-1"><g class="cls-2" id="Group-3"><path id="Fill-1" class="cls-3" d="M-1.67.92h12.09v19.97H-1.67V.92z"/></g><g class="cls-4" id="Group-6"><path id="Fill-4" class="cls-3" d="M5.57-2.04h18.19v22.93H5.57V-2.04z"/></g><g class="cls-5" id="Group-9"><path id="Fill-7" class="cls-3" d="M20.91 4.83h14.45v16.06H20.91V4.83z"/></g><g class="cls-6" id="Group-12"><path id="Fill-10" class="cls-3" d="M37.1 3.94h17.24v24.99H37.1V3.94z"/></g><g class="cls-7" id="Group-15"><path id="Fill-13" class="cls-3" d="M51.25 4.07h17.62v16.06H51.25V4.07z"/></g><g class="cls-8" id="Group-18"><path id="Fill-16" class="cls-3" d="M66.22 4.07h10.97v16.06H66.22V4.07z"/></g><g class="cls-9" id="Group-21"><path id="Fill-19" class="cls-3" d="M74.27 4.07h18.18v16.06H74.27V4.07z"/></g><g class="cls-10" id="Group-24"><path id="Fill-22" class="cls-3" d="M89.91.17H102v19.96H89.91V.17z"/></g></g></g></g></g></svg>