<?xml version="1.0" encoding="utf-8"?>
<!-- Generator: Adobe Illustrator 23.0.2, SVG Export Plug-In . SVG Version: 6.00 Build 0)  -->
<svg version="1.1" xmlns="http://www.w3.org/2000/svg" xmlns:xlink="http://www.w3.org/1999/xlink" x="0px" y="0px"
	 viewBox="0 0 150 150" style="enable-background:new 0 0 150 150;" xml:space="preserve">
<style type="text/css">
	.st0{clip-path:url(#SVGID_2_);}
	.st1{fill:#25D366;}
	.st2{fill-rule:evenodd;clip-rule:evenodd;fill:#FFFFFF;}
	.st3{fill:#0077FB;}
	.st4{fill:#FFFFFF;}
	.st5{fill:#1DA1F2;}
	.st6{fill:#FF4500;}
</style>
<g id="background_1_">
</g>
<g id="WhatsApp_Logo">
	<g>
		<g>
			<path id="vor3h" class="st6" d="M1,76.5C0,35.7,32.3,2,73.2,1S148,32.1,149,73c0,1.5,0,2.6,0,4.1c-1,40.8-35.3,73-76.3,71.9
				C33.8,147.4,2,115.8,1,76.5L1,76.5z"/>
		</g>
	</g>
	<g>
		<g>
			<path id="vor3i" class="st4" d="M119,85.4c0,1,0,2,0,3.1c0,16.9-19.5,30.2-43.5,30.2s-43.5-13.3-43.5-30.2c0-1,0-2,0-3.1
				c-5.6-2.6-7.7-8.7-5.6-14.3c1.5-4.1,5.6-6.7,9.7-6.1c3.1,0,5.6,1,7.7,3.1c8.7-5.6,18.9-9.2,29.2-9.2l5.6-25.6c0-0.5,0.5-1,0.5-1
				c0.5-0.5,1-0.5,1.5-0.5l17.9,4.1c2-3.6,6.7-5.6,10.2-3.6c3.6,2,5.6,6.7,3.6,10.2c-2,3.6-6.7,5.6-10.2,3.6c-2.6-1-4.1-3.6-4.1-6.7
				l-15.9-3.6l-5.1,23c11.3,0.5,21.5,4.1,28.7,9.2c4.1-4.1,11.3-4.1,15.4,0c2,2,3.1,4.6,3.1,7.7C125.6,80.3,122.5,83.9,119,85.4z
				 M59.1,91c4.1,0,7.7-3.6,7.7-7.7c0-4.1-3.6-7.7-7.7-7.7s-7.7,3.6-7.7,7.7C51.4,87.4,54.4,91,59.1,91z M94.4,100.8c-1-1-2-1-2.6,0
				c-3.1,3.6-10.2,4.6-15.4,4.6c-5.1,0-12.3-1-15.4-4.6c-1-1-2-1-2.6,0c-1,1-1,2,0,2.6c5.1,5.1,15.4,5.6,18.4,5.6s12.8-0.5,18.4-5.6
				C94.9,102.8,94.9,101.8,94.4,100.8z M100.5,83.3c0-4.1-3.6-7.7-7.7-7.7c-4.1,0-7.7,3.6-7.7,7.7c0,4.1,3.6,7.7,7.7,7.7
				C96.9,91,100.5,87.4,100.5,83.3z"/>
		</g>
	</g>
</g>
</svg>
