<svg xmlns="http://www.w3.org/2000/svg" viewBox="0 0 69 16" width="20" height="20">
  <g fill="#2B2A29">
    <path d="M.06 5.13H69v1.93H.06z"/>
    <path d="M20.49 16V6.1h2.59V16h-2.6zM9.64 16V6.1h2.6V16h-2.6zm25.97 0V6.1h2.6V16h-2.6zm4.89 0V6.1h2.59V16h-2.6zm11.02 0V6.1h2.6V16h-2.6zm13.14 0V6.1h2.6V16h-2.6z"/>
    <path d="M7.65 10.8H5.06l.3.55c.3.79-.42 1.15-1.08 1.09-.54-.12-.9-.49-.9-1.03.12-.84.96-.96 1.68-.96l4.88-.07V8.51H5.12c-1.26 0-2.77.06-3.61 1.27-1.03 1.33-.55 3.56 1.2 4.17.85.36 1.99.36 2.9.24.96-.12 1.8-.54 2.16-1.33.3-.6.37-1.57-.12-2.05zm13.32 3.09c-.6.3-1.2.48-1.93.6-2.59.36-4.94-.9-5.24-2.96a3.1 3.1 0 01.66-2.35c.6-.85 2.47-1.75 4.94-1.33l.49 2c-1.09-.37-2.78-.5-3.44.53-.36.49-.3 1.1.12 1.51a2.7 2.7 0 002.05.85c.72 0 1.5-.3 1.93-.72l.42 1.87zm30.92 0c-.55.3-1.21.48-1.93.6-2.6.36-4.94-.9-5.25-2.96-.12-.84.19-1.63.67-2.35.66-.85 2.47-1.75 4.94-1.33l.54 2c-1.14-.37-2.83-.5-3.5.53-.3.49-.24 1.1.13 1.51a2.7 2.7 0 002.05.85c.78 0 1.5-.3 1.92-.72l.43 1.87zm10.54-3.02H59.9l.3.54c.3.73-.42 1.09-1.08.97-.55-.06-.85-.43-.85-.97.06-.78.97-.96 1.63-.96l4.82-.07v-1.8h-4.7c-1.26 0-2.71.05-3.61 1.26-.97 1.33-.49 3.5 1.2 4.1.84.3 1.93.3 2.9.19.9-.06 1.68-.48 2.1-1.33.24-.54.3-1.5-.18-1.93zM29.05 8.45h8.43v1.93h-8.43V8.45z"/>
    <path d="M24.95 11.41c-.24-.9-.3-1.87-.24-2.84l2.4.06c-.11 1.63.07 3.5 1.27 4.35.3.18.6.3 1.03.36 2.47.43 2.83-2.35.42-3.26l3.13.06c.79.79 1.15 1.57 1.09 2.36-.18 1.27-1.15 2.11-2.3 2.47-2.04.67-4.33.3-5.78-1.39a4.86 4.86 0 01-1.02-2.17zm17.78-7.85c.24.9.36 2.18.36 3.14h-2.47c-.06-1.63-.12-3.56-1.39-4.4-.24-.19-.54-.3-.96-.37-2.35-.42-2.53 2.42-.18 3.26l-2.72.24c-1.32-.48-1.92-2.71-.78-4.16.54-.73 1.5-1.09 2.53-1.21 2.35-.3 4.76.9 5.6 3.5zM1.93 2.17v.79l-.06.54v.3l-.06.06h-.06l-.06.06-.06.06-.06-.06-.12-.24-.18-.24-.3-.24-.13-.18-.06-.06H.72v.78l-.06.06-.3.18v-.3l.06-.3v-.72L.36 2.6l-.18-.06-.06-.06H0l.3-.25.06-.06.12.06.06.06.18.13.12.12.12.12.43.36.12.18.12.06v-.12c0-.24-.03-.49-.06-.72l.18-.13.18-.12zm1.99 1.57l-.18.18-.12.06-.12-.06-.13-.18-.06-.12-.06-.12h-.72v.12l-.06.06v.12l-.24.12h-.12l-.06.06.06-.12.12-.24.18-.3.12-.36.12-.24.06-.24.06-.13.06-.06h.06l.06-.06.12-.06.06.06.06.12v.07l.06.24.18.36.13.24.18.36.12.06.06.06zm1.56-1.57v.06l-.06.06-.06.19-.54.96-.06.12v.24l-.06.06h-.06l-.12.06-.12.06v-.06l-.06-.06-.12-.36-.24-.42a4.6 4.6 0 00-.3-.54l-.06-.06-.06.06-.06-.06.36-.25h.06l.06.06.18.25.24.42.12.24.06.12.06.12v-.12l.12-.24.12-.36.06-.24.06-.06.06-.07.42-.18zm1.45 1.57l-.06.06-.06.06-.18.12V3.5a41.44 41.44 0 01-.06-.72v-.24H6.5v-.06l-.06.06-.06-.06.3-.25h.12l.06-.06.06.12v1.45zm-.78.37h-.06v.06l-.24.18-.06.06-.13.06-.06.06-.06.06h-.12l-.06-.12.18-.18.06-.06h.06l.06.12.07-.12v-.25l.06-.36-.06-.36a5.38 5.38 0 000-.72l-.07-.06H5.6l.25-.19.12-.12h.12l.06.06v1.88zm2.89-1.94v.06l-.06.06-.06.19c-.19.31-.37.64-.54.96l-.06.12v.24l-.06.06H8.2l-.12.06-.13.06v-.06l-.06-.06-.12-.36-.24-.42a4.6 4.6 0 00-.3-.54l-.06-.06-.06.06-.06-.06.3-.25h.12l.06.06.18.25.18.42.19.24.06.12.06.12v-.12l.12-.24.12-.36.06-.24.06-.06.06-.07.42-.18zm1.45 1.57l-.19.18-.12.06-.12-.06-.12-.18-.06-.12-.06-.12H9.1v.18l-.06.12-.24.12h-.06l-.12.06.06-.12.12-.24.18-.3a19.4 19.4 0 01.24-.6l.06-.24.06-.13.06-.06h.06l.06-.06.12-.06h.06v.06l.06.12v.07l.12.24.12.36.3.6.13.06.06.06zm1.74-1.57v.3a19.72 19.72 0 00-.06 1.03v.3l-.06.06h-.06l-.06.06-.12.06v-.06a1.45 1.45 0 00-.3-.48l-.3-.24-.12-.18-.06-.06h-.06v.78l-.06.06-.3.18v-.6l.06-.36v-.36l-.06-.06-.18-.06-.12-.06h-.07l.3-.25.07-.06.12.06.06.06.18.13.12.12.12.12.42.36.12.18.06.06v-.12a5.02 5.02 0 000-.72l.18-.13.18-.12zM9.7 3.32l-.24-.66-.24.66h.48zm-6.57 0l-.24-.66-.24.66h.48zm3.74-1.39l-.24.12-.06.06a.18.18 0 01-.12-.06L6.39 2h-.06l.24-.18.06-.06.06.06.06.06.12.06zm-.72 0l-.24.12-.06.06h-.06l-.07-.06L5.66 2l.19-.18.12-.06v.06l.12.06.06.06z"/>
  </g>
</svg>
