
<svg width="240" height="102" xmlns="http://www.w3.org/2000/svg"><g fill="none" fill-rule="evenodd"><path fill="#2801F8" d="M0 0h240v102H0z"/><g fill="#FFF"><path d="M140.49 37h1.409v27.048h-1.409zM32.223 52.456c.925 0 1.541-.558 1.541-1.46 0-.944-.705-1.46-1.585-1.46h-3.04v2.92h3.084zm-.397-5.753c.837 0 1.366-.386 1.366-1.202 0-.773-.573-1.245-1.41-1.245H29.14v2.447h2.686zM25 40.907h7.575c1.41 0 2.51.343 3.259.944.88.687 1.41 1.718 1.41 2.963 0 1.417-.573 2.318-1.806 2.876v.043c1.585.516 2.51 1.89 2.51 3.607 0 1.631-.617 2.833-1.674 3.563-.88.644-2.025.945-3.523.945H25V40.907zM38.697 40.907h3.964v14.984h-3.964zM50.808 50.567c0-1.803-.617-3.005-1.806-3.005s-1.761 1.202-1.761 3.005.572 3.005 1.761 3.005c1.19 0 1.806-1.202 1.806-3.005m-7.487 0c0-3.263 2.246-5.667 5.725-5.667 3.48 0 5.682 2.447 5.682 5.667 0 3.22-2.203 5.667-5.682 5.667-3.479 0-5.725-2.447-5.725-5.667M62.61 50.567c0-1.803-.616-3.005-1.805-3.005s-1.761 1.202-1.761 3.005.572 3.005 1.761 3.005c1.19 0 1.806-1.202 1.806-3.005m-7.443 0c0-3.263 2.246-5.667 5.725-5.667 3.48 0 5.682 2.447 5.682 5.667 0 3.22-2.203 5.667-5.682 5.667-3.479 0-5.725-2.447-5.725-5.667M67.411 45.2h3.656v1.589h.044c.748-1.245 1.717-1.932 3.303-1.932 1.41 0 2.422.687 2.95 1.846h.045c.88-1.417 2.07-1.846 3.39-1.846 2.555 0 3.656 1.846 3.656 4.293v6.74H80.58v-6.01c0-1.073-.352-1.803-1.32-1.803-.97 0-1.454.858-1.454 2.018v5.796h-3.876V49.88c0-1.073-.352-1.803-1.32-1.803-.97 0-1.454.858-1.454 2.018v5.796h-3.876V45.2h.132zM93.087 50.481c0-1.674-.617-2.748-1.806-2.748S89.3 48.935 89.3 50.481c0 1.589.792 2.748 1.981 2.748 1.19 0 1.806-1.074 1.806-2.748m-3.743 4.036L89.3 55.89h-3.656V40.907h3.876v5.41h.044c.748-.945 1.673-1.46 3.083-1.46 2.818 0 4.404 2.576 4.404 5.667 0 3.65-1.674 5.71-4.448 5.71-1.366 0-2.599-.515-3.26-1.717M101.455 49.408h3.611c-.176-1.202-.837-1.89-1.717-1.89-1.101-.042-1.674.73-1.894 1.89m-3.788 1.116c0-3.22 2.246-5.667 5.55-5.667 1.629 0 2.862.558 3.831 1.46 1.277 1.202 1.85 3.09 1.806 5.237h-7.443c.22 1.245.88 1.975 2.026 1.975.66 0 1.145-.257 1.453-.815h3.743c-.22.944-.968 1.889-1.981 2.576-.97.644-1.982.901-3.347.901-3.348 0-5.638-2.404-5.638-5.667M113.038 46.789c.88-1.331 1.893-1.846 3.215-1.846.308 0 .528.043.616.086v3.391h-.088c-2.246-.386-3.611.644-3.611 3.049v4.422h-3.876V45.2h3.655v1.588h.089zM124.576 50.138c0-1.331-.66-2.405-1.761-2.405s-1.762.945-1.762 2.405c0 1.416.705 2.447 1.762 2.447 1.1 0 1.761-1.03 1.761-2.447m-7.09 5.924h3.7c.131.43.616.902 1.54.902 1.234 0 1.674-.773 1.674-1.846v-.945h-.088c-.617.73-1.41 1.202-2.642 1.202-2.379 0-4.449-1.717-4.449-5.066 0-3.048 1.674-5.452 4.272-5.452 1.454 0 2.379.6 2.951 1.502h.044V45.2h3.656v9.403c0 1.717-.617 3.048-1.542 3.82-.969.86-2.334 1.16-3.875 1.16-2.863.043-4.889-1.16-5.241-3.52M189.512 43.311c1.013 0 1.85-.816 1.85-1.803 0-1.073-.793-1.932-1.85-1.932a1.912 1.912 0 0 0-1.937 1.932c0 .987.88 1.803 1.937 1.803zM162.471 56.062c4.272-1.674 7.531-6.568 7.531-11.42 0-4.25-2.378-6.912-6.253-6.912-5.461 0-10.614 5.839-10.614 12.021 0 3.52 1.673 5.925 4.404 6.655-.264.043-.485.129-.705.172l-.925.257c-.22.043-.44.129-.66.172-.353.086-.705.172-1.013.343-.132.043-.485.172-.397.473.044.214.22.386.573.644.22-.086.88-.387 1.233-.387 1.277 0 1.982 1.03 2.819 2.147.969 1.288 2.026 2.147 3.523 2.834.793.343 1.585.6 2.422.73.485.085 1.013.128 1.542.171.308.043.572 0 .88.043.044-.215.22-.687.265-.859-.353-.043-.705-.085-.925-.128a2.448 2.448 0 0 1-.793-.258c-.969-.472-1.497-1.374-2.07-2.233-.396-.644-1.057-1.373-1.894-2.017-.704-.644-1.673-1.16-3.038-1.288.969-.258 2.994-.73 4.095-1.16zm.309-2.747c-.837 1.46-1.762 2.018-3.391 2.018-1.85 0-2.643-.773-2.643-2.534 0-2.747 2.643-10.218 3.567-11.892.837-1.46 1.762-2.018 3.392-2.018 1.85 0 2.642.773 2.686 2.533 0 2.748-2.642 10.132-3.611 11.893zM204.486 53.1c-.748 1.16-1.233 1.417-1.717 1.417-.132 0-.397 0-.397-.601 0-.473.397-1.245.793-2.104.617-1.33 1.41-2.962 1.41-4.594 0-1.631-.97-2.576-2.555-2.576-1.453 0-2.775.73-3.964 2.319-.044-.687-.264-1.16-.484-1.46-.44-.558-1.101-.859-1.894-.859-1.497 0-2.862.945-3.567 2.447l-.176.387 1.32.43.133-.301c.485-1.03.793-1.117 1.057-1.117.132 0 .176.086.176.086.088.086.088.3 0 .601l-2.906 8.973h3.699l1.63-5.152c1.717-3.09 2.554-4.035 3.523-4.035.176 0 .396 0 .396.644 0 1.073-.484 2.146-.969 3.22-.484 1.03-.969 2.146-.969 3.22 0 1.159.881 2.318 2.555 2.318 1.717 0 3.303-1.03 4.14-2.662l.176-.343-1.234-.516-.176.258zM212.414 46.102h1.937l.573-1.675h-1.938l1.101-3.348-3.787.128-1.013 3.22h-1.894l-.484 1.675h1.805l-2.07 6.354c-.352 1.202-.264 2.275.309 3.005.44.601 1.1.902 1.893.902 1.762 0 3.215-.945 4.096-2.748l.176-.343-1.277-.473-.176.301c-.66 1.16-1.145 1.417-1.718 1.417-.044 0-.132 0-.132-.043 0 0-.044-.129 0-.258l2.599-8.114zM182.422 53.143c-.705 1.16-1.057 1.374-1.586 1.374-.22 0-.308-.043-.308-.043 0-.043 0-.086.044-.258l3.083-9.488-3.787.086-1.63 5.152c-1.762 3.048-2.554 3.993-3.523 3.993-.176 0-.397 0-.397-.644 0-1.03.485-2.104.97-3.177.484-1.03.968-2.147.968-3.22 0-1.417-.925-2.276-2.422-2.276-1.541 0-2.775.902-3.48 2.404l-.175.387 1.277.43.132-.301c.396-.773.793-1.117 1.013-1.117h.132s.044.043.044.387c0 .472-.352 1.288-.749 2.19-.616 1.373-1.365 3.09-1.365 4.722 0 1.546 1.101 2.576 2.73 2.576 1.41 0 2.599-.687 3.788-2.275a2.51 2.51 0 0 0 .484 1.33c.485.644 1.234.988 2.114.988 1.63 0 2.995-.945 3.876-2.662l.22-.386-1.321-.43-.132.258zM190.481 52.842l-.176.3c-.66 1.16-1.145 1.418-1.717 1.418-.177 0-.397 0-.397-.601 0-.644.485-1.589.97-2.576.66-1.374 1.452-2.92 1.452-4.38 0-1.159-.88-2.36-2.422-2.36-1.673 0-3.083.9-3.787 2.446l-.176.387 1.32.43.133-.301c.308-.687.88-1.117 1.057-1.117.176 0 .308 0 .308.515 0 .773-.484 1.804-1.013 2.877-.66 1.33-1.321 2.662-1.321 3.993 0 1.502 1.013 2.49 2.554 2.49 1.718 0 3.392-1.073 4.272-2.662l.177-.343-1.234-.516z"/></g></g></svg>