<?xml version="1.0" encoding="UTF-8" standalone="no"?>
<svg width="40px" height="40px" viewBox="0 0 40 40" version="1.1" xmlns="http://www.w3.org/2000/svg" xmlns:xlink="http://www.w3.org/1999/xlink">
    <!-- Generator: Sketch 39.1 (31720) - http://www.bohemiancoding.com/sketch -->
    <title>Page 1</title>
    <desc>Created with Sketch.</desc>
    <defs>
        <polygon id="path-1" points="0 0 40 0 40 40 0 40"></polygon>
        <path d="M0,40 L40,40 L40,0 L0,0 L0,40 L0,40 Z M25.80133,34.833333 L31.13467,34.833333 L31.13467,5.91333 L25.80133,5.91333 L25.80133,34.833333 L25.80133,34.833333 Z M17.332,34.833333 L22.66533,34.833333 L22.66533,11.052 L17.332,11.052 L17.332,34.833333 L17.332,34.833333 Z M8.866667,34.833333 L14.2,34.833333 L14.2,16.62267 L8.866667,16.62267 L8.866667,34.833333 L8.866667,34.833333 Z" id="path-3"></path>
    </defs>
    <g id="Page-1" stroke="none" stroke-width="1" fill="none" fillRule="evenodd">
        <g id="Article-Type-Widgets" transform="translate(-104.000000, -3494.000000)">
            <g id="Page-1" transform="translate(104.000000, 3494.000000)">
                <g id="Group-3">
                    <mask id="mask-2" fill="white">
                        <use xlink:href="#path-1"></use>
                    </mask>
                    <g id="Clip-2"></g>
                    <polygon id="Fill-1" fill-opacity="0.5" fill="#000000" mask="url(#mask-2)" points="-5 -5 45 -5 45 45 -5 45"></polygon>
                </g>
                <g id="Group-6">
                    <mask id="mask-4" fill="white">
                        <use xlink:href="#path-3"></use>
                    </mask>
                    <g id="Clip-5"></g>
                    <polygon id="Fill-4" fill-opacity="0.8" fill="#00EDB4" mask="url(#mask-4)" points="-5 -5 45 -5 45 45 -5 45"></polygon>
                </g>
            </g>
        </g>
    </g>
</svg>