<?xml version="1.0" encoding="UTF-8" standalone="no"?>
<svg width="17px" height="17px" viewBox="0 0 17 17" version="1.1" xmlns="http://www.w3.org/2000/svg" xmlns:xlink="http://www.w3.org/1999/xlink">
    <!-- Generator: Sketch 39.1 (31720) - http://www.bohemiancoding.com/sketch -->
    <title>Shape Copy 3</title>
    <desc>Created with Sketch.</desc>
    <defs></defs>
    <g id="Symbols" stroke="none" stroke-width="1" fill="none" fillRule="evenodd">
        <g id="Header-Desktop" transform="translate(-1242.000000, -117.000000)" stroke="#FFFFFF" stroke-width="0.25" fill="#FFFFFF">
            <path d="M1257.62608,133.495264 C1257.83248,133.495264 1258,133.327745 1258,133.121339 C1258,130.024118 1256.11149,127.235012 1253.33061,126.103328 C1254.34189,125.262558 1254.9871,123.995513 1254.9871,122.580581 C1254.9871,120.054905 1252.93219,118 1250.40652,118 C1247.88084,118 1245.82594,120.054905 1245.82594,122.580581 C1245.82594,123.996074 1246.47152,125.263492 1247.48355,126.10445 C1244.77521,127.21669 1243,129.94952 1243,133.121339 C1243,133.327745 1243.16752,133.495264 1243.37392,133.495264 C1243.58033,133.495264 1243.74785,133.327745 1243.74785,133.121339 C1243.74785,130.071981 1245.55279,127.476006 1248.25065,126.620653 C1248.89362,126.965225 1249.62745,127.161162 1250.40652,127.161162 C1251.18559,127.161162 1251.91942,126.965225 1252.56238,126.620653 C1255.32924,127.495825 1257.25215,130.150879 1257.25215,133.121339 C1257.25215,133.327932 1257.41948,133.495264 1257.62608,133.495264 L1257.62608,133.495264 Z M1246.57379,122.580581 C1246.57379,120.467157 1248.29309,118.74785 1250.40652,118.74785 C1252.51994,118.74785 1254.23925,120.467157 1254.23925,122.580581 C1254.23925,124.694005 1252.51994,126.413312 1250.40652,126.413312 C1248.29309,126.413312 1246.57379,124.694005 1246.57379,122.580581 L1246.57379,122.580581 Z" id="Shape-Copy-3"></path>
        </g>
    </g>
</svg>