<?xml version="1.0" encoding="utf-8"?>
<!-- Generator: Adobe Illustrator 21.0.0, SVG Export Plug-In . SVG Version: 6.00 Build 0)  -->
<svg version="1.1" id="Layer_1" xmlns="http://www.w3.org/2000/svg" xmlns:xlink="http://www.w3.org/1999/xlink" x="0px" y="0px"
	 viewBox="0 0 80 80" style="enable-background:new 0 0 80 80;" xml:space="preserve">
<style type="text/css">
	.st0{fill:url(#SVGID_1_);}
	.st1{opacity:5.000000e-02;enable-background:new    ;}
	.st2{opacity:7.000000e-02;enable-background:new    ;}
	.st3{fill:#FFFFFF;}
</style>
<linearGradient id="SVGID_1_" gradientUnits="userSpaceOnUse" x1="-11.1419" y1="93.1419" x2="17.1419" y2="64.8581" gradientTransform="matrix(2 0 0 -2 34 198)">
	<stop  offset="0" style="stop-color:#33BEF0"/>
	<stop  offset="1" style="stop-color:#0A85D9"/>
</linearGradient>
<path class="st0" d="M80,40c0,22.1-17.9,40-40,40S0,62.1,0,40S17.9,0,40,0S80,17.9,80,40z"/>
<path class="st1" d="M12.2,38.9c16.3-7.4,35.5-15.4,38.4-16.6c6.5-2.6,9.3,0.1,8.9,4.2c-0.5,5.1-3.1,20-4.7,30.6
	c-0.9,6.2-4.3,8.1-8.1,5.7c-2.9-1.8-12.8-8.3-15.4-10.6c-1.8-1.5-3-3.2-1.8-4.9c0.4-0.5,1.3-1.5,1.8-2c2.6-2.6,2.3-3.1-0.9-0.8
	c-0.4,0.3-2.6,1.9-3.5,2.5c-2.2,1.5-4.3,1.6-7.7,0.4c-2.8-1-5.6-1.7-7.3-2.4C9.6,44,8.7,40.5,12.2,38.9z"/>
<path class="st2" d="M13.7,39.2c15.1-6.8,33.8-14.5,36.5-15.6c6.5-2.6,8.9-1.1,8.2,4c-0.7,4.7-3,19.3-4.6,29.1c-1,5.8-3.7,7-7.4,4.7
	c-2.3-1.5-11.4-7.5-13.7-9.3c-1.7-1.4-3.5-2.9-1.4-5.2c0.7-0.8,4.5-4.5,7.4-7.2c1.7-1.6,1.1-2.4-0.9-1c-3.7,2.5-9.7,6.5-10.8,7.2
	c-2,1.4-4,1.7-7.3,0.7c-2.6-0.8-5.2-1.6-6.5-2.2C10.2,43.2,10.1,40.8,13.7,39.2z"/>
<path class="st3" d="M15.1,39.4c14-6.2,32.1-13.6,34.6-14.7c6.6-2.7,8.6-2.2,7.6,3.8c-0.7,4.3-2.8,18.6-4.5,27.5
	c-1,5.3-3.2,5.9-6.7,3.6c-1.7-1.1-10.1-6.7-11.9-8c-1.7-1.2-4-2.6-1.1-5.4c1-1,7.7-7.4,13-12.4c0.7-0.7-0.2-1.7-1-1.2
	c-7.1,4.7-16.8,11.2-18.1,12c-1.9,1.3-3.7,1.9-6.9,0.9c-2.5-0.7-4.8-1.5-5.8-1.9C10.8,42.6,11.6,41,15.1,39.4z"/>
</svg>
