<?xml version="1.0" encoding="utf-8"?>
<!-- Generator: Adobe Illustrator 21.0.0, SVG Export Plug-In . SVG Version: 6.00 Build 0)  -->
<svg version="1.1" id="Layer_1" xmlns="http://www.w3.org/2000/svg" xmlns:xlink="http://www.w3.org/1999/xlink" x="0px" y="0px"
	 viewBox="0 0 43.4 35.2" style="enable-background:new 0 0 43.4 35.2;" xml:space="preserve">
<style type="text/css">
	.st0{fill:#FFFFFF;}
</style>
<title>twitter-hover</title>
<path id="Icon_zocial-twitter" class="st0" d="M0,31.2c0.7,0.1,1.4,0.1,2.1,0.1c4,0,7.9-1.3,11.1-3.8C9.4,27.5,6,25,4.9,21.4
	c0.5,0.1,1.1,0.1,1.7,0.1c0.8,0,1.6-0.1,2.4-0.3c-4.2-0.8-7.2-4.4-7.1-8.7v-0.1c1.2,0.7,2.6,1.1,4.1,1.1c-1.2-0.8-2.2-1.9-2.9-3.2
	C2.2,9,1.8,7.6,1.8,6c0-1.6,0.4-3.1,1.2-4.5c2.2,2.7,5,5,8.1,6.6c3.2,1.6,6.7,2.6,10.2,2.7c-0.1-0.7-0.2-1.3-0.2-2
	c0-2.4,0.9-4.6,2.6-6.3c3.5-3.5,9.1-3.5,12.6,0c0,0,0,0,0,0l0.2,0.2c2-0.4,3.9-1.2,5.7-2.3c-0.6,2.1-2,3.9-3.9,4.9
	c1.8-0.2,3.5-0.7,5.1-1.4c-1.2,1.8-2.7,3.4-4.4,4.6v1.2c0,2.4-0.3,4.8-1,7.1c-0.7,2.4-1.8,4.7-3.2,6.9c-1.4,2.2-3.1,4.1-5.1,5.8
	c-2.1,1.7-4.5,3.1-7.1,4c-2.9,1-5.9,1.5-8.9,1.5C8.8,35.3,4.1,33.9,0,31.2z"/>
</svg>
