<?xml version="1.0" encoding="utf-8"?>
<!-- Generator: Adobe Illustrator 21.0.0, SVG Export Plug-In . SVG Version: 6.00 Build 0)  -->
<svg version="1.1" id="Layer_1" xmlns="http://www.w3.org/2000/svg" xmlns:xlink="http://www.w3.org/1999/xlink" x="0px" y="0px"
	 viewBox="0 0 230 230" style="enable-background:new 0 0 230 230;" xml:space="preserve">
<style type="text/css">
	.st0{fill:#FFFFFF;}
</style>
<path class="st0" d="M115,0C51.6,0,0,51.6,0,115c0,19.8,5.1,39.3,14.8,56.5L0.2,223.6c-0.5,1.7,0,3.6,1.2,4.8c1,1,2.3,1.5,3.6,1.5
	c0.4,0,0.8,0,1.2-0.1l54.5-13.5C77.3,225.3,96.1,230,115,230c63.4,0,115-51.6,115-115S178.4,0,115,0z M172.9,155.6
	c-2.5,6.8-14.3,13-19.9,13.9c-5.1,0.7-11.5,1.1-18.6-1.2c-4.3-1.4-9.8-3.1-16.8-6.1c-29.6-12.6-49-42.1-50.4-44
	C65.6,116.2,55,102.3,55,88s7.6-21.4,10.3-24.3c2.7-2.9,5.9-3.6,7.9-3.6c2,0,3.9,0,5.7,0.1c1.8,0.1,4.2-0.7,6.6,5
	c2.5,5.8,8.4,20.2,9.1,21.7c0.7,1.5,1.2,3.2,0.2,5.1c-1,1.9-1.5,3.2-2.9,4.9s-3.1,3.8-4.4,5.1c-1.5,1.5-3,3-1.3,5.9
	c1.7,2.9,7.6,12.5,16.4,20.2c11.3,9.9,20.8,13,23.7,14.5c3,1.5,4.7,1.2,6.4-0.7c1.7-2,7.4-8.5,9.3-11.4c2-2.9,3.9-2.4,6.6-1.5
	c2.7,1,17.2,8,20.2,9.5c2.9,1.5,4.9,2.2,5.7,3.4C175.3,142.9,175.3,148.8,172.9,155.6z"/>
</svg>
