<svg width="40" height="40" viewBox="0 0 40 40" xmlns="http://www.w3.org/2000/svg"><defs><linearGradient x1="50%" y1="99.709%" x2="50%" y2=".777%" id="linearGradient-1"><stop stop-color="#E09B3D" offset="0%"/><stop stop-color="#C74C4D" offset="30%"/><stop stop-color="#C21975" offset="60%"/><stop stop-color="#7024C4" offset="100%"/></linearGradient></defs><g id="final-homepage-Chinmay" stroke="none" stroke-width="1" fill="none" fill-rule="evenodd"><g id="Web-_Final-Homepage" transform="translate(-747 -4741)"><g id="Footer" transform="translate(0 4717)"><g id="footer"><g id="Group-13"><g id="Group-27" transform="translate(103 20)"><g id="Group-12"><g id="Group-9" transform="translate(356)"><g id="footer_insta" transform="translate(288 4)"><circle id="Oval-3" fill="url(#linearGradient-1)" cx="20" cy="20" r="20"/><path d="M23.744 10h-8.488A6.263 6.263 0 0 0 9 16.256v8.488A6.263 6.263 0 0 0 15.256 31h8.488A6.263 6.263 0 0 0 30 24.744v-8.488A6.263 6.263 0 0 0 23.744 10zm4.143 14.744a4.143 4.143 0 0 1-4.143 4.143h-8.488a4.143 4.143 0 0 1-4.143-4.143v-8.488a4.143 4.143 0 0 1 4.143-4.143h8.488a4.143 4.143 0 0 1 4.143 4.143v8.488z" id="Shape" fill="#FFF" fill-rule="nonzero"/><path d="M19.5 15a5.506 5.506 0 0 0-5.5 5.5c0 3.033 2.467 5.5 5.5 5.5s5.5-2.467 5.5-5.5-2.467-5.5-5.5-5.5zm0 8.86a3.36 3.36 0 1 1 0-6.72 3.36 3.36 0 0 1 0 6.72z" id="Shape" fill="#FFF" fill-rule="nonzero"/><circle id="Oval" fill="#FFF" fill-rule="nonzero" cx="25.5" cy="15.5" r="1.5"/></g></g></g></g></g></g></g></g></g></svg>