<svg xmlns="http://www.w3.org/2000/svg" width="64" height="64" version="1" viewBox="0 0 128 128"><rect width="100%" height="100%" fill="#fff"/><path d="M59.6 0h8v40h-8V0z"/><path fill="#ccc" fill-opacity=".2" d="M51.62 29.8l6.92 4-20 34.64-6.92-4 20-34.64zM29.8 51.62l4 6.92-34.64 20-4-6.92 34.64-20zM0 59.6v8h-40v-8H0zM-29.8 51.62l-4 6.92-34.64-20 4-6.92 34.64 20z"/><path fill="#b2b2b2" fill-opacity=".3" d="M-51.62 29.8l-6.92 4-20-34.64 6.92-4 20 34.64z"/><path fill="#999" fill-opacity=".4" d="M-59.6 0h-8v-40h8V0z"/><path fill="#7f7f7f" fill-opacity=".5" d="M-51.62-29.8l-6.92-4 20-34.64 6.92 4-20 34.64z"/><path fill="#666" fill-opacity=".6" d="M-29.8-51.62l-4-6.92 34.64-20 4 6.92-34.64 20z"/><path fill="#4c4c4c" fill-opacity=".7" d="M0-59.6v-8h40v8H0z"/><path fill="#333" fill-opacity=".8" d="M29.8-51.62l4-6.92 34.64 20-4 6.92-34.64-20z"/><path fill="#191919" fill-opacity=".9" d="M51.62-29.8l6.92-4 20 34.64-6.92 4-20-34.64z"/><animateTransform attributeName="transform" type="rotate" values="0 64 64;30 64 64;60 64 64;90 64 64;120 64 64;150 64 64;180 64 64;210 64 64;240 64 64;270 64 64;300 64 64;330 64 64" calcMode="discrete" dur="1440ms" repeatCount="indefinite"/></svg>