<?xml version="1.0" standalone="no"?>
<!DOCTYPE svg PUBLIC "-//W3C//DTD SVG 1.1//EN" "http://www.w3.org/Graphics/SVG/1.1/DTD/svg11.dtd" >
<svg xmlns="http://www.w3.org/2000/svg" xmlns:xlink="http://www.w3.org/1999/xlink" version="1.1">
<metadata>
Created by FontForge 20170910 at Tue Sep 19 23:59:48 2017
 By Jimmy Wärting
Copyright 2015 Google Inc. All Rights Reserved.
</metadata>
<defs>
<font id="NotoSansDevanagariUI-Medium" horiz-adv-x="0" >
  <font-face 
    font-family="Noto Sans Devanagari Md"
    font-weight="500"
    font-stretch="normal"
    units-per-em="1000"
    panose-1="2 11 6 2 4 5 4 2 2 4"
    ascent="800"
    descent="-200"
    bbox="-622 -268 1454 1347"
    underline-thickness="50"
    underline-position="-125"
    unicode-range="U+000D-A8FD"
  />
<missing-glyph horiz-adv-x="600" 
d="M94 714h411v-714h-411v714zM454 51v612h-309v-612h309z" />
    <glyph glyph-name=".notdef" horiz-adv-x="600" 
d="M94 714h411v-714h-411v714zM454 51v612h-309v-612h309z" />
    <glyph glyph-name="null" 
 />
    <glyph glyph-name="null" 
 />
    <glyph glyph-name="CR" unicode="&#xd;" horiz-adv-x="260" 
 />
    <glyph glyph-name="space" unicode=" " horiz-adv-x="260" 
 />
    <glyph glyph-name="binducandradeva" unicode="&#x900;" 
d="M-371 707q25 104 81 146.5t135 42.5q75 0 132 -45t92 -144l-79 -28q-26 73 -60 107.5t-87 34.5q-58 0 -86 -37t-44 -105zM-101 725q0 -22 -16 -37t-37 -15t-36.5 15t-15.5 37q0 23 15.5 38t36.5 15t37 -15t16 -38z" />
    <glyph glyph-name="candrabindudeva" unicode="&#x901;" 
d="M-201 844q0 22 15 37t37 15t37.5 -15t15.5 -37t-15.5 -37t-37.5 -15t-37 15t-15 37zM69 862q-25 -104 -81 -146.5t-136 -42.5q-74 0 -131 45.5t-92 143.5l79 28q25 -72 59.5 -107t87.5 -35q57 0 85 37t44 106z" />
    <glyph glyph-name="anusvaradeva" unicode="&#x902;" 
d="M-196 772q0 26 18 44.5t43 18.5t42.5 -18.5t17.5 -44.5t-17.5 -44.5t-42.5 -18.5t-43 18.5t-18 44.5z" />
    <glyph glyph-name="visargadeva" unicode="&#x903;" horiz-adv-x="276" 
d="M77 435q0 29 19 48.5t46 19.5t45.5 -19.5t18.5 -48.5q0 -28 -18.5 -47.5t-45.5 -19.5t-46 19.5t-19 47.5zM77 118q0 28 19 47.5t46 19.5t45.5 -19.5t18.5 -47.5t-18.5 -47.5t-45.5 -19.5t-46 19.5t-19 47.5z" />
    <glyph glyph-name="ashortdeva" unicode="&#x904;" horiz-adv-x="788" 
d="M485 216q0 -70 -45.5 -106t-119.5 -36q-59 0 -109.5 27t-95.5 88t-89 165l84 31q43 -107 91.5 -166.5t110.5 -59.5q35 0 56.5 16.5t21.5 52.5q0 33 -16 59.5t-44 49.5q-29 -6 -64 -7l-5 81q65 2 91.5 22t26.5 55q0 34 -22.5 48t-51.5 14q-36 0 -65.5 -9.5t-61.5 -25.5
l-28 78q27 13 67.5 26t90.5 13q80 0 123 -40t43 -102q0 -77 -63 -120l16 -16q34 -5 71 -5q59 0 107 14v176h-70v83h70q-17 65 -37.5 88t-54.5 23q-13 0 -26.5 -1t-25.5 -1q-34 0 -62.5 11.5t-51.5 41.5t-43 85l77 27q17 -42 35 -63t58 -21q15 0 30.5 2t33.5 2q37 0 65 -16.5
t50 -58.5t41 -119h109v-83h-101v-539h-97v278q-23 -6 -46 -8.5t-48 -2.5q-15 0 -36 2q10 -25 10 -53z" />
    <glyph glyph-name="adeva" unicode="&#x905;" horiz-adv-x="788" 
d="M485 216q0 -70 -45.5 -106t-119.5 -36q-59 0 -109.5 27t-95.5 88t-89 165l84 31q43 -107 91.5 -166.5t110.5 -59.5q35 0 56.5 16.5t21.5 52.5q0 33 -16 59.5t-44 49.5q-29 -6 -64 -7l-5 81q65 2 91.5 22t26.5 55q0 34 -22.5 48t-51.5 14q-36 0 -65.5 -9.5t-61.5 -25.5
l-28 78q27 13 67.5 26t90.5 13q80 0 123 -40t43 -102q0 -77 -63 -120l16 -16q34 -5 71 -5q59 0 107 14v176h-70v83h268v-83h-101v-539h-97v278q-23 -6 -46 -8.5t-48 -2.5q-15 0 -36 2q10 -25 10 -53z" />
    <glyph glyph-name="aadeva" unicode="&#x906;" horiz-adv-x="1058" 
d="M485 216q0 -70 -45.5 -106t-119.5 -36q-59 0 -109.5 27t-95.5 88t-89 165l84 31q43 -107 91.5 -166.5t110.5 -59.5q35 0 56.5 16.5t21.5 52.5q0 33 -16 59.5t-44 49.5q-29 -6 -64 -7l-5 81q65 2 91.5 22t26.5 55q0 34 -22.5 48t-51.5 14q-36 0 -65.5 -9.5t-61.5 -25.5
l-28 78q27 13 67.5 26t90.5 13q80 0 123 -40t43 -102q0 -77 -63 -120l16 -16q34 -5 71 -5q59 0 107 14v176h-70v83h537v-83h-101v-539h-96v539h-173v-539h-97v278q-23 -6 -46 -8.5t-48 -2.5q-15 0 -36 2q10 -25 10 -53z" />
    <glyph glyph-name="ideva" unicode="&#x907;" horiz-adv-x="499" 
d="M272 216q-28 0 -57.5 -7t-53.5 -18q-47 25 -80.5 65t-33.5 90q0 29 10.5 49.5t27.5 33.5q23 18 54.5 25.5t84.5 7.5h84v77h-308v83h513v-83h-108v-156h-191q-26 0 -38 -2.5t-19 -8.5q-15 -10 -15 -30t11.5 -34.5t25.5 -26.5q22 8 47.5 12t54.5 4q79 0 127.5 -38.5
t48.5 -105.5q0 -63 -41 -100t-115 -47q56 -23 124 -44l-36 -77q-60 28 -115 57.5t-101 59.5q-58 3 -92.5 17.5t-34.5 51.5q0 25 15 40t41 15q22 0 44 -11t50 -35q15 -2 26 -2q67 0 102.5 19t35.5 57q0 29 -22 45.5t-66 16.5z" />
    <glyph glyph-name="iideva" unicode="&#x908;" horiz-adv-x="499" 
d="M272 216q-28 0 -57.5 -7t-53.5 -18q-47 25 -80.5 65t-33.5 90q0 29 10.5 49.5t27.5 33.5q23 18 54.5 25.5t84.5 7.5h84v77h-308v83h513v-83h-108v-156h-191q-26 0 -38 -2.5t-19 -8.5q-15 -10 -15 -30t11.5 -34.5t25.5 -26.5q22 8 47.5 12t54.5 4q79 0 127.5 -38.5
t48.5 -105.5q0 -63 -41 -100t-115 -47q56 -23 124 -44l-36 -77q-60 28 -115 57.5t-101 59.5q-58 3 -92.5 17.5t-34.5 51.5q0 25 15 40t41 15q22 0 44 -11t50 -35q15 -2 26 -2q67 0 102.5 19t35.5 57q0 29 -22 45.5t-66 16.5zM289 615q-21 35 -35 72t-14 72q0 69 46.5 103
t115.5 34q33 0 61 -6t48 -15l-22 -75q-18 8 -36 13t-38 5q-40 0 -59.5 -21.5t-19.5 -56.5q0 -31 12.5 -62t35.5 -63h-95z" />
    <glyph glyph-name="udeva" unicode="&#x909;" horiz-adv-x="559" 
d="M0 622h574v-83h-104q27 -36 27 -80q0 -86 -77 -132q35 -32 63 -74.5t28 -99.5q0 -76 -49.5 -114.5t-127.5 -38.5q-60 0 -113 30t-101 99t-94 184l84 30q45 -119 97 -188t119 -69q39 0 62.5 17.5t23.5 60.5q0 39 -21 70.5t-59 60.5q-30 -6 -65 -7l-5 81q68 2 103 23t35 69
q0 26 -12.5 45.5t-31.5 32.5h-356v83z" />
    <glyph glyph-name="uudeva" unicode="&#x90a;" horiz-adv-x="784" 
d="M0 622h798v-83h-328q27 -36 27 -80q0 -86 -77 -132q20 -18 35 -35q32 22 64.5 33.5t68.5 11.5q68 0 111 -39.5t43 -111.5q0 -45 -15 -91.5t-49 -94.5l-85 48q23 28 38 62t15 70q0 40 -19 58t-50 18q-38 0 -79 -36q13 -32 13 -67q0 -76 -49.5 -114.5t-127.5 -38.5
q-60 0 -113 30t-101 99t-94 184l84 30q45 -119 97 -188t119 -69q39 0 62.5 17.5t23.5 60.5q0 39 -21 70.5t-59 60.5q-30 -6 -65 -7l-5 81q68 2 103 23t35 69q0 26 -12.5 45.5t-31.5 32.5h-356v83z" />
    <glyph glyph-name="rvocalicdeva" unicode="&#x90b;" horiz-adv-x="872" 
d="M128 58l-53 75l244 145q-38 47 -66.5 67t-67.5 20q-29 0 -57 -8t-69 -29l-32 84q36 16 74 28t82 12q40 0 71.5 -12t62 -39t66.5 -73v211h-383v83h886v-83h-407v-210q31 2 63 6t54 9q-8 19 -8 37q0 34 22.5 50t50.5 16q41 0 63.5 -23t22.5 -57q0 -27 -13 -44.5t-32 -25.5
q14 -24 28.5 -45.5t29.5 -43.5l-15 -34q-52 -7 -73.5 -26t-21.5 -49q0 -31 22 -45t52 -14q29 0 53 7t58 25l30 -78q-26 -13 -60.5 -23.5t-77.5 -10.5q-76 0 -120 39.5t-44 102.5q0 42 22.5 75.5t68.5 52.5q-7 12 -13.5 24t-10.5 21q-26 -9 -69.5 -16t-81.5 -10v-249h-96v222
z" />
    <glyph glyph-name="lvocalicdeva" unicode="&#x90c;" horiz-adv-x="716" 
d="M434 30q0 48 29 84t90 54q11 21 17.5 43.5t6.5 48.5q0 43 -20.5 63.5t-52.5 20.5q-22 0 -46.5 -11.5t-47 -42t-38.5 -88.5l-92 28q11 42 28 75q-20 16 -42 26t-49 10q-37 0 -57.5 -21t-20.5 -54q0 -34 19.5 -66t58.5 -68t97 -83l-64 -62q-62 51 -108.5 97t-72.5 91.5
t-26 96.5q0 55 25 89t62.5 49.5t74.5 15.5q46 0 82.5 -14t71.5 -41q47 42 113 52v116h-472v83h731v-83h-164v-121q44 -14 75.5 -52.5t31.5 -105.5q0 -42 -12 -81t-31 -72q-59 -8 -84.5 -28.5t-25.5 -52.5q0 -31 22 -45t53 -14q29 0 52.5 7.5t58.5 24.5l29 -77
q-26 -14 -60 -24t-78 -10q-75 0 -119.5 39t-44.5 103z" />
    <glyph glyph-name="ecandradeva" unicode="&#x90d;" horiz-adv-x="569" 
d="M584 539h-91v-158q0 -51 -7.5 -81t-27.5 -53q-38 -45 -125 -53l-18 84q22 4 36.5 9t23.5 15q11 11 16.5 28t5.5 56v153h-225v-187q0 -44 3 -71.5t13 -46t30 -34.5t54 -35l119 -68q62 -35 87 -68t25 -83q0 -40 -16.5 -76t-32.5 -58l-83 48q13 17 23.5 38.5t10.5 42.5
q0 19 -8 33.5t-31 31.5t-69 44l-97 55q-39 23 -66.5 47t-42.5 59q-7 19 -11 44t-4 63v221h-76v83h584v-83zM559 862q-25 -104 -81 -146.5t-136 -42.5q-74 0 -131 45.5t-92 143.5l80 28q26 -71 59.5 -105t86.5 -34q56 0 83.5 36.5t44.5 103.5z" />
    <glyph glyph-name="eshortdeva" unicode="&#x90e;" horiz-adv-x="569" 
d="M584 539h-91v-158q0 -51 -7.5 -81t-27.5 -53q-38 -45 -125 -53l-18 84q22 4 36.5 9t23.5 15q11 11 16.5 28t5.5 56v153h-225v-187q0 -44 3 -71.5t13 -46t30 -34.5t54 -35l119 -68q62 -35 87 -68t25 -83q0 -40 -16.5 -76t-32.5 -58l-83 48q13 17 23.5 38.5t10.5 42.5
q0 19 -8 33.5t-31 31.5t-69 44l-97 55q-39 23 -66.5 47t-42.5 59q-7 19 -11 44t-4 63v221h-76v83h584v-83zM399 615q-17 70 -38 94t-56 24q-13 0 -26 -1t-26 -1q-34 0 -62.5 11.5t-51.5 41.5t-43 85l77 27q17 -42 35 -63t58 -21q15 0 31 2t33 2q38 0 66 -16.5t50 -60
t42 -124.5h-89z" />
    <glyph glyph-name="edeva" unicode="&#x90f;" horiz-adv-x="569" 
d="M584 539h-91v-158q0 -51 -7.5 -81t-27.5 -53q-38 -45 -125 -53l-18 84q22 4 36.5 9t23.5 15q11 11 16.5 28t5.5 56v153h-225v-187q0 -44 3 -71.5t13 -46t30 -34.5t54 -35l119 -68q62 -35 87 -68t25 -83q0 -40 -16.5 -76t-32.5 -58l-83 48q13 17 23.5 38.5t10.5 42.5
q0 19 -8 33.5t-31 31.5t-69 44l-97 55q-39 23 -66.5 47t-42.5 59q-7 19 -11 44t-4 63v221h-76v83h584v-83z" />
    <glyph glyph-name="aideva" unicode="&#x910;" horiz-adv-x="569" 
d="M584 539h-91v-158q0 -51 -7.5 -81t-27.5 -53q-38 -45 -125 -53l-18 84q22 4 36.5 9t23.5 15q11 11 16.5 28t5.5 56v153h-225v-187q0 -44 3 -71.5t13 -46t30 -34.5t54 -35l119 -68q62 -35 87 -68t25 -83q0 -40 -16.5 -76t-32.5 -58l-83 48q13 17 23.5 38.5t10.5 42.5
q0 19 -8 33.5t-31 31.5t-69 44l-97 55q-39 23 -66.5 47t-42.5 59q-7 19 -11 44t-4 63v221h-76v83h584v-83zM400 615q-20 73 -39.5 116t-43.5 61.5t-58 18.5q-21 0 -38 -4t-31 -9l-28 82q22 8 45 12t51 4q54 0 94.5 -24t73 -85t62.5 -172h-88z" />
    <glyph glyph-name="ocandradeva" unicode="&#x911;" horiz-adv-x="1058" 
d="M485 216q0 -70 -45.5 -106t-119.5 -36q-59 0 -109.5 27t-95.5 88t-89 165l84 31q43 -107 91.5 -166.5t110.5 -59.5q35 0 56.5 16.5t21.5 52.5q0 33 -16 59.5t-44 49.5q-29 -6 -64 -7l-5 81q65 2 91.5 22t26.5 55q0 34 -22.5 48t-51.5 14q-36 0 -65.5 -9.5t-61.5 -25.5
l-28 78q27 13 67.5 26t90.5 13q80 0 123 -40t43 -102q0 -77 -63 -120l16 -16q34 -5 71 -5q59 0 107 14v176h-70v83h537v-83h-101v-539h-96v539h-173v-539h-97v278q-23 -6 -46 -8.5t-48 -2.5q-15 0 -36 2q10 -25 10 -53zM1103 862q-25 -104 -81 -146.5t-136 -42.5
q-74 0 -131 45.5t-92 143.5l80 28q26 -71 59.5 -105t86.5 -34q56 0 83.5 36.5t44.5 103.5z" />
    <glyph glyph-name="oshortdeva" unicode="&#x912;" horiz-adv-x="1058" 
d="M485 216q0 -70 -45.5 -106t-119.5 -36q-59 0 -109.5 27t-95.5 88t-89 165l84 31q43 -107 91.5 -166.5t110.5 -59.5q35 0 56.5 16.5t21.5 52.5q0 33 -16 59.5t-44 49.5q-29 -6 -64 -7l-5 81q65 2 91.5 22t26.5 55q0 34 -22.5 48t-51.5 14q-36 0 -65.5 -9.5t-61.5 -25.5
l-28 78q27 13 67.5 26t90.5 13q80 0 123 -40t43 -102q0 -77 -63 -120l16 -16q34 -5 71 -5q59 0 107 14v176h-70v83h537v-83h-101v-539h-96v539h-173v-539h-97v278q-23 -6 -46 -8.5t-48 -2.5q-15 0 -36 2q10 -25 10 -53zM877 615q-17 70 -38 94t-56 24q-13 0 -26 -1t-26 -1
q-34 0 -62.5 11.5t-51.5 41.5t-43 85l77 27q17 -42 35 -63t58 -21q15 0 31 2t33 2q38 0 66 -16.5t50 -60t42 -124.5h-89z" />
    <glyph glyph-name="odeva" unicode="&#x913;" horiz-adv-x="1058" 
d="M485 216q0 -70 -45.5 -106t-119.5 -36q-59 0 -109.5 27t-95.5 88t-89 165l84 31q43 -107 91.5 -166.5t110.5 -59.5q35 0 56.5 16.5t21.5 52.5q0 33 -16 59.5t-44 49.5q-29 -6 -64 -7l-5 81q65 2 91.5 22t26.5 55q0 34 -22.5 48t-51.5 14q-36 0 -65.5 -9.5t-61.5 -25.5
l-28 78q27 13 67.5 26t90.5 13q80 0 123 -40t43 -102q0 -77 -63 -120l16 -16q34 -5 71 -5q59 0 107 14v176h-70v83h537v-83h-101v-539h-96v539h-173v-539h-97v278q-23 -6 -46 -8.5t-48 -2.5q-15 0 -36 2q10 -25 10 -53zM878 615q-20 73 -39.5 116t-43.5 61.5t-58 18.5
q-21 0 -38 -4t-31 -9l-28 82q22 8 45 12t51 4q54 0 94.5 -24t73 -85t62.5 -172h-88z" />
    <glyph glyph-name="audeva" unicode="&#x914;" horiz-adv-x="1058" 
d="M485 216q0 -70 -45.5 -106t-119.5 -36q-59 0 -109.5 27t-95.5 88t-89 165l84 31q43 -107 91.5 -166.5t110.5 -59.5q35 0 56.5 16.5t21.5 52.5q0 33 -16 59.5t-44 49.5q-29 -6 -64 -7l-5 81q65 2 91.5 22t26.5 55q0 34 -22.5 48t-51.5 14q-36 0 -65.5 -9.5t-61.5 -25.5
l-28 78q27 13 67.5 26t90.5 13q80 0 123 -40t43 -102q0 -77 -63 -120l16 -16q34 -5 71 -5q59 0 107 14v176h-70v83h537v-83h-101v-539h-96v539h-173v-539h-97v278q-23 -6 -46 -8.5t-48 -2.5q-15 0 -36 2q10 -25 10 -53zM869 615q-28 37 -49.5 54.5t-42.5 22.5t-45 5
q-21 0 -41.5 -6.5t-40.5 -15.5l-28 74q24 11 49 17t53 6q44 0 77.5 -19t59.5 -57l4 2q-20 48 -38.5 75t-40.5 38t-51 11q-22 0 -38.5 -4t-30.5 -10l-25 74q19 7 41.5 10.5t50.5 3.5q40 0 73 -12t60.5 -43t51.5 -86t47 -140h-96z" />
    <glyph glyph-name="kadeva" unicode="&#x915;" horiz-adv-x="780" 
d="M795 539h-324v-182q48 43 115 43q66 0 108.5 -42.5t42.5 -119.5q0 -46 -16 -98t-51 -105l-85 49q24 31 40 70.5t16 78.5q0 43 -18.5 64t-50.5 21q-25 0 -50.5 -16t-50.5 -46v-256h-97v160q-27 -20 -62 -35.5t-83 -15.5q-49 0 -91.5 19.5t-68.5 58.5t-26 97
q0 81 56.5 128.5t146.5 47.5q25 0 53 -3t44 -7l-8 -84q-15 4 -38 7t-42 3q-55 0 -85 -24t-30 -67q0 -49 29 -71.5t65 -22.5q44 0 78 20.5t62 49.5v278h-374v83h795v-83z" />
    <glyph glyph-name="khadeva" unicode="&#x916;" horiz-adv-x="841" 
d="M755 539v-539h-97v44q-37 -19 -80.5 -28.5t-88.5 -9.5q-123 0 -223.5 61.5t-185.5 169.5q-26 34 -34.5 56.5t-8.5 41.5q0 23 15.5 42t53.5 19q25 0 44 -10.5t34 -29.5q18 20 24.5 47t6.5 55q0 47 -13 81h-202v83h856v-83h-101zM545 243q35 0 63 13.5t50 32.5v250h-361
q7 -17 10.5 -38t3.5 -49q0 -80 -35.5 -127.5t-95.5 -73.5q63 -75 137.5 -118.5t173.5 -43.5q49 0 90 11t77 32v66q-24 -13 -55.5 -22.5t-72.5 -9.5q-74 0 -121 41t-47 112q0 73 48.5 114t129.5 41q16 0 43 -3t43 -7l-7 -77q-14 4 -31.5 6.5t-35.5 2.5q-45 0 -70 -20t-25 -58
t25.5 -56.5t62.5 -18.5z" />
    <glyph glyph-name="gadeva" unicode="&#x917;" horiz-adv-x="577" 
d="M219 539v-307q0 -31 -14 -46.5t-39 -15.5q-21 0 -43 12.5t-41.5 32.5t-31.5 43.5t-12 45.5q0 24 13.5 40t50.5 16h21v179h-123v83h592v-83h-101v-539h-97v539h-175z" />
    <glyph glyph-name="ghadeva" unicode="&#x918;" horiz-adv-x="607" 
d="M621 539h-100v-539h-97v159q-32 -20 -69.5 -33t-90.5 -13q-82 0 -131.5 41t-49.5 110q0 26 9 51t27 45q-37 19 -58.5 52.5t-21.5 72.5q0 31 10 54h-49v83h621v-83zM180 267q0 -37 26 -55t67 -18q53 0 90.5 23t60.5 50v272h-269q-19 -22 -19 -50q0 -33 19 -51.5t48 -24.5
q29 7 64 7q28 0 46 -2l-6 -81q-6 1 -14 1h-14q-47 0 -73 -18t-26 -53z" />
    <glyph glyph-name="ngadeva" unicode="&#x919;" horiz-adv-x="661" 
d="M363 216q-29 0 -57.5 -7t-53.5 -18q-46 25 -80 64.5t-34 90.5q0 29 10 49.5t27 33.5q23 18 54.5 25.5t85.5 7.5h78v77h-393v83h676v-83h-186v-156h-185q-27 0 -38.5 -2.5t-19.5 -8.5q-14 -11 -14 -30q0 -20 11.5 -34.5t25.5 -26.5q22 8 47.5 12t53.5 4q79 0 128 -38.5
t49 -104.5q0 -68 -50.5 -111t-153.5 -43q-104 0 -184 45t-138 112l72 57q56 -64 114.5 -96.5t134.5 -32.5q55 0 81.5 18.5t26.5 50.5q0 29 -22 45.5t-66 16.5zM520 338q0 25 16.5 42t40.5 17t40 -17t16 -42t-16 -42t-40 -17t-40.5 17t-16.5 42z" />
    <glyph glyph-name="cadeva" unicode="&#x91a;" horiz-adv-x="651" 
d="M666 539h-102v-539h-96v154q-28 -17 -63 -30.5t-83 -13.5q-82 0 -132.5 42.5t-50.5 112.5q0 29 11.5 54t30.5 41l-143 -3v84h297q19 0 36 -0.5t22 -0.5l-7 -82h-30q-58 0 -89.5 -22.5t-31.5 -65.5q0 -38 26 -58t63 -20q48 0 82 20t62 50v277h-468v83h666v-83z" />
    <glyph glyph-name="chadeva" unicode="&#x91b;" horiz-adv-x="718" 
d="M308 82q76 0 137 29t97 79.5t36 114.5q0 42 -20 71.5t-59 29.5q-30 0 -43.5 -15.5t-13.5 -37.5q0 -29 24 -52t77 -36l-38 -71q-80 24 -117 65t-37 92q0 48 27.5 81.5t80.5 43.5v63h-459v83h732v-83h-177v-67q53 -15 86 -57t33 -114q0 -56 -24.5 -109.5t-72 -97t-116 -69
t-155.5 -25.5q-104 0 -156 42t-52 106q0 21 7 42t22 39q-41 20 -64 52t-23 74q0 60 46 92.5t122 32.5q18 0 44.5 -2t41.5 -7l-7 -80q-14 5 -31.5 8t-38.5 3q-80 0 -80 -56q0 -25 19 -39t49 -22q30 9 65 9q11 0 23.5 -1t19.5 -3l-7 -79q-6 1 -13.5 1h-13.5q-85 0 -85 -60
q0 -36 30 -53t84 -17z" />
    <glyph glyph-name="jadeva" unicode="&#x91c;" horiz-adv-x="764" 
d="M677 539v-539h-96v358h-122q-41 0 -57 2q32 -29 51.5 -66.5t19.5 -78.5q0 -47 -21 -78.5t-56 -47t-77 -15.5q-55 0 -105.5 29.5t-97 100t-88.5 192.5l83 30q45 -131 94 -199t107 -68q29 0 47.5 16t18.5 51q0 41 -29 77.5t-74 64.5l33 73h273v98h-581v83h779v-83h-102z
" />
    <glyph glyph-name="jhadeva" unicode="&#x91d;" horiz-adv-x="772" 
d="M272 216q-28 0 -57.5 -7t-53.5 -18q-47 25 -80.5 65t-33.5 90q0 29 10.5 49.5t27.5 33.5q23 18 52.5 25.5t84.5 7.5h86v77h-308v83h786v-83h-101v-539h-96v203q-24 -7 -48.5 -10t-55.5 -3q-15 0 -33 3q5 -19 5 -40q0 -63 -41 -100t-115 -47q56 -23 124 -44l-36 -77
q-60 28 -115 57.5t-101 59.5q-58 3 -92.5 17.5t-34.5 51.5q0 25 15 40t41 15q22 0 44 -11t50 -35q15 -2 26 -2q67 0 102.5 19t35.5 57q0 29 -22 45.5t-66 16.5zM478 272q33 0 59 4t52 12v251h-184v-156h-191q-26 0 -38 -2.5t-19 -8.5q-15 -10 -15 -30t11.5 -34.5t25.5 -26.5
q22 8 47.5 12t54.5 4q49 0 87 -15q24 -5 52 -7.5t58 -2.5z" />
    <glyph glyph-name="nyadeva" unicode="&#x91e;" horiz-adv-x="768" 
d="M198 420q32 14 64.5 20.5t60.5 6.5q69 0 117 -33.5t60 -95.5h11q22 0 40 4t34 10v207h-585v83h782v-83h-101v-539h-96v248q-37 -9 -82 -9h-4q-11 -51 -42.5 -79t-71.5 -39.5t-76 -11.5q-88 0 -158.5 53t-124.5 170l82 34q40 -90 85.5 -130.5t108.5 -40.5q52 0 80.5 23.5
t28.5 63.5q0 43 -26 61.5t-65 18.5q-26 0 -47.5 -6t-44.5 -17z" />
    <glyph glyph-name="ttadeva" unicode="&#x91f;" horiz-adv-x="515" 
d="M530 539h-146v-196h-59q-49 0 -80.5 -7.5t-52.5 -21.5q-53 -35 -53 -97q0 -45 20.5 -74t55 -43t75.5 -14q53 0 92 12t81 35l31 -85q-45 -21 -94.5 -34.5t-107.5 -13.5q-72 0 -128 26t-88.5 76t-32.5 120q0 66 34 111t89.5 68t120.5 23v115h-287v83h530v-83z" />
    <glyph glyph-name="tthadeva" unicode="&#x920;" horiz-adv-x="595" 
d="M609 539h-225v-122q80 -30 124 -88t44 -130q0 -71 -34 -114.5t-91 -64t-125 -20.5q-78 0 -136 25t-90.5 74t-32.5 120q0 67 34 113t89.5 69t120.5 23v115h-287v83h609v-83zM298 84q68 0 112.5 28.5t44.5 90.5q0 45 -27.5 81t-82.5 59h-26q-41 0 -71 -7t-52 -20
q-28 -16 -42.5 -41.5t-14.5 -61.5q0 -65 45 -97t114 -32z" />
    <glyph glyph-name="ddadeva" unicode="&#x921;" horiz-adv-x="589" 
d="M363 216q-29 0 -57.5 -7t-53.5 -18q-46 25 -80 65t-34 90q0 29 10 49.5t27 33.5q23 18 54.5 25.5t85.5 7.5h84v77h-399v83h604v-83h-108v-156h-191q-27 0 -38.5 -2.5t-19.5 -8.5q-14 -11 -14 -30q0 -20 11.5 -34.5t25.5 -26.5q22 8 47.5 12t53.5 4q79 0 128 -38.5
t49 -104.5q0 -67 -50.5 -110.5t-153.5 -43.5q-104 0 -184 45t-138 112l72 57q56 -64 114.5 -96.5t134.5 -32.5q55 0 81.5 18.5t26.5 50.5q0 62 -88 62z" />
    <glyph glyph-name="ddhadeva" unicode="&#x922;" horiz-adv-x="575" 
d="M313 0q-81 0 -141.5 27.5t-94.5 79t-34 125.5q0 70 36 117.5t95.5 72t130.5 25.5v92h-305v83h589v-83h-188v-174h-51q-63 0 -97 -8.5t-57 -24.5q-28 -18 -42.5 -45t-14.5 -65q0 -52 28 -86t80 -48q-11 33 -11 70q0 53 38 93t116 40q51 0 84 -19t49 -49.5t16 -64.5
q0 -70 -60 -114t-166 -44zM321 142q0 -32 13 -61q54 1 85 21t31 56q0 27 -16 42.5t-41 15.5q-33 0 -52.5 -20.5t-19.5 -53.5z" />
    <glyph glyph-name="nnadeva" unicode="&#x923;" horiz-adv-x="745" 
d="M659 539v-539h-97v539h-126v-220q0 -46 -9 -75.5t-28 -52.5q-23 -25 -58 -39.5t-84 -14.5q-98 0 -144 61q-18 24 -27.5 59t-9.5 93v189h-76v83h759v-83h-100zM255 220q48 0 67 30q10 15 13.5 35.5t3.5 61.5v192h-167v-192q0 -37 3.5 -58.5t13.5 -36.5q10 -16 25.5 -24
t40.5 -8z" />
    <glyph glyph-name="tadeva" unicode="&#x924;" horiz-adv-x="586" 
d="M500 539v-539h-97v319h-104q-59 0 -88.5 -5.5t-47.5 -21.5q-23 -19 -23 -59q0 -45 35 -87.5t103 -96.5l-64 -62q-46 39 -85 79.5t-62.5 84t-23.5 92.5q0 35 13.5 63.5t34.5 46.5q29 25 71 37t112 12h129v137h-403v83h600v-83h-100z" />
    <glyph glyph-name="thadeva" unicode="&#x925;" horiz-adv-x="664" 
d="M578 539v-539h-97v171q-30 -20 -71 -33.5t-93 -13.5q-89 0 -149 50.5t-82 147.5q94 20 132 55.5t38 88.5q0 45 -21.5 69.5t-57.5 24.5q-24 0 -38.5 -11.5t-14.5 -31.5q0 -23 17.5 -37t58.5 -19l-14 -75q-66 9 -103.5 41.5t-37.5 89.5q0 58 39 86.5t95 28.5q46 0 85.5 -18
t64 -55t24.5 -94q0 -135 -150 -195q21 -32 48.5 -47.5t72.5 -15.5q50 0 87.5 19.5t69.5 51.5v261h-76v83h273v-83h-100z" />
    <glyph glyph-name="dadeva" unicode="&#x926;" horiz-adv-x="531" 
d="M417 -61q-21 33 -39.5 69t-31.5 62q-25 -3 -56 -3q-43 0 -86.5 10.5t-80 34t-58.5 62.5t-22 97q0 43 16 75.5t42 54.5q34 29 82.5 42t105.5 13v83h-289v83h545v-83h-160v-166h-49q-58 0 -92.5 -6.5t-58.5 -20.5q-46 -28 -46 -85q0 -49 37.5 -80t116.5 -31h10.5t12.5 1
q-5 18 -5 31q0 34 22.5 49.5t50.5 15.5q46 0 70 -25.5t24 -57.5q0 -33 -14.5 -50.5t-37.5 -27.5q13 -23 29.5 -49.5t41.5 -59.5z" />
    <glyph glyph-name="dhadeva" unicode="&#x927;" horiz-adv-x="636" 
d="M651 539h-101v-539h-97v142q-33 -19 -68.5 -31.5t-91.5 -12.5q-82 0 -131 41t-49 109q0 26 8 50t26 43q-46 20 -75.5 57t-29.5 93q0 41 19.5 73t54 50t77.5 18q59 0 95 -29t36 -75q0 -50 -41 -91l-65 42q18 18 18 40q0 16 -10 28t-33 12q-27 0 -46 -20t-19 -52
q0 -30 15 -49t38.5 -28.5t49.5 -12.5q30 8 65 8q12 0 26 -1.5t21 -2.5l-7 -79q-6 1 -14 1h-14q-47 0 -73 -18.5t-26 -52.5q0 -37 26.5 -54.5t66.5 -17.5q53 0 89 22t62 50v287h-60v83h258v-83z" />
    <glyph glyph-name="nadeva" unicode="&#x928;" horiz-adv-x="574" 
d="M0 622h588v-83h-101v-539h-96v288h-175v-45q0 -31 -15 -46.5t-40 -15.5q-20 0 -42 12.5t-41 33t-31 44t-12 44.5q0 24 13.5 40t50.5 16h292v168h-391v83z" />
    <glyph glyph-name="nnnadeva" unicode="&#x929;" horiz-adv-x="574" 
d="M0 622h588v-83h-101v-539h-96v288h-175v-45q0 -31 -15 -46.5t-40 -15.5q-20 0 -42 12.5t-41 33t-31 44t-12 44.5q0 24 13.5 40t50.5 16h292v168h-391v83zM121 29q0 26 17.5 44.5t42.5 18.5q26 0 43.5 -18.5t17.5 -44.5q0 -27 -17.5 -45t-43.5 -18q-25 0 -42.5 18
t-17.5 45z" />
    <glyph glyph-name="padeva" unicode="&#x92a;" horiz-adv-x="581" 
d="M495 539v-539h-97v181q-31 -18 -64.5 -29.5t-80.5 -11.5q-41 0 -74 13.5t-54 35.5q-25 27 -37 63.5t-12 101.5v185h-76v83h596v-83h-101zM398 539h-226v-175q0 -57 6.5 -80.5t21.5 -39.5q21 -21 68 -21q39 0 73.5 19t56.5 41v256z" />
    <glyph glyph-name="phadeva" unicode="&#x92b;" horiz-adv-x="786" 
d="M476 539v-182q24 21 52.5 32t62.5 11q67 0 109.5 -42.5t42.5 -119.5q0 -46 -16 -98t-51 -105l-85 49q24 31 40 70.5t16 78.5q0 43 -19 64t-51 21q-25 0 -51.5 -17.5t-49.5 -45.5v-255h-97v182q-25 -18 -56.5 -30t-73.5 -12q-41 0 -74 14.5t-52 36.5q-25 29 -36 65t-11 95
v188h-76v83h800v-83h-324zM172 539v-181q0 -52 6 -75t21 -39q18 -21 58 -21q39 0 68.5 15.5t53.5 38.5v262h-207z" />
    <glyph glyph-name="badeva" unicode="&#x92c;" horiz-adv-x="585" 
d="M599 539h-100v-539h-97v152q-30 -18 -68 -30.5t-93 -12.5q-56 0 -101 20.5t-71 59.5t-26 92q0 85 60.5 132t157.5 47q26 0 59.5 -2.5t50.5 -6.5l-7 -80q-20 4 -43.5 6.5t-48.5 2.5q-16 0 -30 -2l122 -153q11 8 20 16t18 17v281h-402v83h599v-83zM139 282q0 -50 31 -72.5
t77 -22.5q30 0 58 9l-129 161q-37 -26 -37 -75z" />
    <glyph glyph-name="bhadeva" unicode="&#x92d;" horiz-adv-x="724" 
d="M180 632q40 0 71.5 -10.5t54.5 -35.5q19 -20 31 -54t12 -96v-112h192v215h-122v83h319v-83h-101v-539h-96v241h-192v-30q0 -37 -15.5 -52.5t-39.5 -15.5q-20 0 -42 13t-41 33t-31 43t-12 44q0 20 13.5 34t48.5 14h24v104q0 44 -5 67t-15 37q-19 28 -59 28q-25 0 -38 -12
t-13 -31q0 -25 22 -39.5t74 -17.5l-8 -77q-76 6 -121.5 37.5t-45.5 96.5q0 60 39.5 87.5t95.5 27.5z" />
    <glyph glyph-name="madeva" unicode="&#x92e;" horiz-adv-x="612" 
d="M526 539v-539h-97v241h-210v-31q0 -36 -16 -51.5t-39 -15.5q-20 0 -42 13t-41.5 33t-31.5 43t-12 44q0 20 13.5 34t50.5 14h21v215h-122v83h626v-83h-100zM429 539h-210v-215h210v215z" />
    <glyph glyph-name="yadeva" unicode="&#x92f;" horiz-adv-x="596" 
d="M611 622v-83h-101v-539h-97v169q-29 -19 -68 -32t-88 -13q-94 0 -150 63t-72 164q61 12 90.5 35.5t29.5 66.5q0 25 -10 47t-22 39h-123v83h611zM142 297q19 -44 47.5 -67t75.5 -23t84 20t64 51v261h-190q13 -24 20.5 -49.5t7.5 -52.5q0 -102 -109 -140z" />
    <glyph glyph-name="radeva" unicode="&#x930;" horiz-adv-x="418" 
d="M401 51l-63 -64q-60 49 -111.5 98t-91 92t-62.5 74q-23 30 -29.5 49t-6.5 36q0 21 15.5 40.5t53.5 19.5q25 0 44.5 -11t35.5 -31q68 37 68 111q0 21 -4 40t-10 34h-240v83h433v-83h-97q7 -16 10.5 -37.5t3.5 -49.5q0 -78 -46.5 -124.5t-120.5 -76.5q43 -48 100 -101
t118 -99z" />
    <glyph glyph-name="rradeva" unicode="&#x931;" horiz-adv-x="418" 
d="M401 51l-63 -64q-60 49 -111.5 98t-91 92t-62.5 74q-23 30 -29.5 49t-6.5 36q0 21 15.5 40.5t53.5 19.5q25 0 44.5 -11t35.5 -31q68 37 68 111q0 21 -4 40t-10 34h-240v83h433v-83h-97q7 -16 10.5 -37.5t3.5 -49.5q0 -78 -46.5 -124.5t-120.5 -76.5q43 -48 100 -101
t118 -99zM51 32q0 25 17 42t40 17q24 0 40.5 -17t16.5 -42q0 -26 -16.5 -43t-40.5 -17q-23 0 -40 17t-17 43z" />
    <glyph glyph-name="ladeva" unicode="&#x932;" horiz-adv-x="696" 
d="M0 539v83h710v-83h-101v-539h-96v344h-9q-23 0 -47 -11.5t-46.5 -42t-38.5 -88.5l-92 28q11 41 28 75q-20 16 -42 26t-49 10q-37 0 -57.5 -21t-20.5 -54q0 -34 19.5 -66t58.5 -68t97 -83l-64 -62q-62 51 -108.5 97t-72.5 91.5t-26 96.5q0 55 25 89t62.5 49.5t74.5 15.5
q45 0 82 -14t72 -40q60 54 147 54h7v113h-513z" />
    <glyph glyph-name="lladeva" unicode="&#x933;" horiz-adv-x="773" 
d="M0 539v83h788v-83h-181v-105q54 -16 88.5 -64t34.5 -123q0 -86 -49 -139t-131 -53q-54 0 -95 20t-79 55q-32 -45 -70.5 -60t-84.5 -15q-49 0 -89.5 22.5t-64.5 65.5t-24 107q0 88 50.5 140t130.5 52q53 0 93.5 -20t78.5 -54q25 35 53.5 51t60.5 20v100h-510zM417 205
q-2 -4 -3 -7q30 -29 58.5 -44.5t61.5 -15.5q38 0 68.5 26t30.5 87q0 59 -25.5 83.5t-58.5 24.5q-37 0 -62.5 -25.5t-49.5 -83.5zM140 246q0 -59 25.5 -83.5t57.5 -24.5q38 0 63.5 25t49.5 84l19 45l3 6q-30 30 -58.5 45.5t-60.5 15.5q-38 0 -68.5 -26.5t-30.5 -86.5z" />
    <glyph glyph-name="llladeva" unicode="&#x934;" horiz-adv-x="773" 
d="M0 539v83h788v-83h-181v-105q54 -16 88.5 -64t34.5 -123q0 -86 -49 -139t-131 -53q-54 0 -95 20t-79 55q-32 -45 -70.5 -60t-84.5 -15q-49 0 -89.5 22.5t-64.5 65.5t-24 107q0 88 50.5 140t130.5 52q53 0 93.5 -20t78.5 -54q25 35 53.5 51t60.5 20v100h-510zM417 205
q-2 -4 -3 -7q30 -29 58.5 -44.5t61.5 -15.5q38 0 68.5 26t30.5 87q0 59 -25.5 83.5t-58.5 24.5q-37 0 -62.5 -25.5t-49.5 -83.5zM140 246q0 -59 25.5 -83.5t57.5 -24.5q38 0 63.5 25t49.5 84l19 45l3 6q-30 30 -58.5 45.5t-60.5 15.5q-38 0 -68.5 -26.5t-30.5 -86.5z
M154 -84q0 26 17.5 44.5t42.5 18.5q26 0 43.5 -18.5t17.5 -44.5q0 -27 -17.5 -45t-43.5 -18q-25 0 -42.5 18t-17.5 45z" />
    <glyph glyph-name="vadeva" unicode="&#x935;" horiz-adv-x="570" 
d="M585 539h-101v-539h-96v153q-29 -19 -65 -31.5t-87 -12.5q-56 0 -99.5 20.5t-68.5 59.5t-25 92q0 85 58.5 132t152.5 47q23 0 54.5 -3t47.5 -7l-6 -84q-19 4 -41.5 7t-44.5 3q-59 0 -91.5 -24.5t-32.5 -69.5q0 -48 29.5 -69.5t71.5 -21.5q49 0 85 21t62 48v279h-388v83
h585v-83z" />
    <glyph glyph-name="shadeva" unicode="&#x936;" horiz-adv-x="701" 
d="M126 177q-37 0 -62 18.5t-25 53.5q0 31 19 47.5t51 16.5q19 0 40 -7.5t49 -28.5q47 17 77 58.5t30 103.5q0 55 -27.5 86.5t-70.5 31.5q-28 0 -42 -12.5t-14 -34.5q0 -14 9 -29.5t35.5 -27t77.5 -13.5l-21 -76q-96 7 -142.5 48.5t-46.5 99.5q0 52 37.5 86t108.5 34
q50 0 93.5 -21.5t70.5 -65t27 -109.5q0 -70 -34 -129t-94 -93q42 -37 80.5 -81t68.5 -85l-74 -51q-48 65 -87 110t-73 76q-30 -6 -61 -6zM614 539v-539h-96v539h-85v83h282v-83h-101z" />
    <glyph glyph-name="ssadeva" unicode="&#x937;" horiz-adv-x="592" 
d="M607 622v-83h-101v-539h-97v183q-33 -18 -69 -30.5t-85 -12.5q-42 0 -75 13.5t-55 35.5q-25 27 -37 63.5t-12 101.5v185h-76v83h607zM409 539h-191l191 -248v248zM199 244q21 -21 69 -21q24 0 47.5 7t43.5 18l-188 245v-129q0 -57 6 -80.5t22 -39.5z" />
    <glyph glyph-name="sadeva" unicode="&#x938;" horiz-adv-x="696" 
d="M610 539v-539h-97v257q-28 -8 -57 -11t-65 -3q-47 0 -94 8t-78 20q-18 -10 -39 -19q41 -49 94 -102t112 -100l-63 -63q-56 49 -105 98t-86.5 92t-60.5 74q-22 30 -28 49t-6 36q0 21 15.5 40.5t53.5 19.5q25 0 44 -10.5t34 -29.5q18 20 24.5 47t6.5 55q0 24 -4 45t-9 36
h-202v83h711v-83h-101zM379 325q38 0 69.5 3.5t64.5 13.5v197h-216q6 -16 10 -37.5t4 -49.5q0 -38 -8 -67t-24 -51q23 -4 48.5 -6.5t51.5 -2.5z" />
    <glyph glyph-name="hadeva" unicode="&#x939;" horiz-adv-x="543" 
d="M325 70q34 9 55.5 25.5t21.5 44.5q0 34 -27 53t-89 19q-67 0 -101.5 -26.5t-34.5 -70.5q0 -29 11.5 -56.5t45.5 -61.5t100 -83l-64 -64q-89 70 -139 132.5t-50 138.5q0 38 15 67.5t41 50.5q-19 19 -32 45t-13 61q0 29 10.5 50t28.5 34q23 18 54.5 25.5t77.5 7.5h124v77
h-360v83h557v-83h-101v-159h-218q-30 0 -42.5 -3t-20.5 -10q-14 -11 -14 -32q0 -16 7.5 -29.5t19.5 -25.5q48 15 102 15q72 0 117 -21.5t66.5 -55.5t21.5 -73q0 -117 -140 -154z" />
    <glyph glyph-name="oevowelsigndeva" unicode="&#x93a;" 
d="M-183 616v189h97v-189h-97z" />
    <glyph glyph-name="ooevowelsigndeva" unicode="&#x93b;" horiz-adv-x="269" 
d="M183 539v-539h-97v539h-86v83h284v-83h-101zM86 616v189h97v-189h-97z" />
    <glyph glyph-name="nuktadeva" unicode="&#x93c;" 
d="M-343 -134q0 26 17.5 44.5t42.5 18.5q26 0 43.5 -18.5t17.5 -44.5q0 -27 -17.5 -45t-43.5 -18q-25 0 -42.5 18t-17.5 45z" />
    <glyph glyph-name="avagrahadeva" unicode="&#x93d;" horiz-adv-x="485" 
d="M442 186q0 -67 -45 -107t-121 -40q-49 0 -90.5 17.5t-80.5 60.5t-80 117l81 41q40 -71 76.5 -111t88.5 -40q32 0 52.5 16t20.5 49q0 22 -8 40.5t-30 41t-64 55.5q-46 37 -70.5 65.5t-34.5 53.5t-10 50q0 65 48 97q20 14 51.5 22t97.5 8h97v-83h-106q-35 0 -49.5 -2.5
t-24.5 -7.5q-8 -5 -13.5 -14t-5.5 -22q0 -15 9 -29.5t30 -34t59 -49.5q44 -36 71 -65.5t39 -60t12 -68.5z" />
    <glyph glyph-name="aavowelsigndeva" unicode="&#x93e;" horiz-adv-x="269" 
d="M183 539v-539h-97v539h-86v83h284v-83h-101z" />
    <glyph glyph-name="ivowelsigndeva" unicode="&#x93f;" horiz-adv-x="269" 
d="M86 539h-86v83h79q-12 23 -19.5 48t-7.5 54q0 78 59.5 125t163.5 47q99 0 182 -36t151 -99t124 -146h-104q-153 197 -336 197q-68 0 -106 -27.5t-38 -75.5q0 -27 8.5 -48.5t19.5 -38.5h108v-83h-101v-539h-97v539z" />
    <glyph glyph-name="iivowelsigndeva" unicode="&#x940;" horiz-adv-x="269" 
d="M-198 615q-34 68 -34 129q0 67 44.5 109.5t123.5 42.5q66 0 110 -31t74.5 -92t54.5 -151h109v-83h-101v-539h-97v539h-86v83h86q-27 98 -58.5 144.5t-84.5 46.5q-38 0 -58 -23t-20 -62q0 -33 9 -60t22 -53h-94z" />
    <glyph glyph-name="uvowelsigndeva" unicode="&#x941;" 
d="M-253 -6q55 23 113 23q77 0 119.5 -39.5t42.5 -104.5q0 -61 -46.5 -101t-132.5 -40q-101 0 -173 45.5t-133 121.5l70 50q59 -72 111 -104t122 -32q96 0 96 66q0 31 -22.5 45.5t-51.5 14.5q-25 0 -45.5 -5.5t-40.5 -14.5z" />
    <glyph glyph-name="uuvowelsigndeva" unicode="&#x942;" 
d="M-70 -245q-26 -11 -55 -17t-57 -6q-76 0 -119.5 41t-43.5 102q0 60 47 101t127 41q75 0 131.5 -28t100 -74.5t80.5 -100.5l-72 -45q-53 82 -108 126t-125 44q-46 0 -70 -17.5t-24 -47.5q0 -34 23 -47.5t52 -13.5q25 0 45 5t40 14z" />
    <glyph glyph-name="rvocalicvowelsigndeva" unicode="&#x943;" 
d="M32 -233q-26 -13 -60 -24t-78 -11q-75 0 -119.5 39.5t-44.5 103.5q0 60 46.5 102t136.5 47l8 -76q-56 -6 -80 -26.5t-24 -50.5q0 -31 22.5 -45t53.5 -14q29 0 52 7.5t58 24.5z" />
    <glyph glyph-name="ecandravowelsigndeva" unicode="&#x945;" 
d="M69 862q-25 -104 -81 -146.5t-136 -42.5q-74 0 -131 45.5t-92 143.5l80 28q26 -71 59.5 -105t86.5 -34q56 0 83.5 36.5t44.5 103.5z" />
    <glyph glyph-name="eshortvowelsigndeva" unicode="&#x946;" 
d="M-181 615q-17 70 -38 94t-56 24q-13 0 -26 -1t-26 -1q-34 0 -62.5 11.5t-51.5 41.5t-43 85l77 27q17 -42 35 -63t58 -21q15 0 31 2t33 2q38 0 66 -16.5t50 -60t42 -124.5h-89z" />
    <glyph glyph-name="evowelsigndeva" unicode="&#x947;" 
d="M-180 615q-20 73 -39.5 116t-43.5 61.5t-58 18.5q-21 0 -38 -4t-31 -9l-28 82q22 8 45 12t51 4q54 0 94.5 -24t73 -85t62.5 -172h-88z" />
    <glyph glyph-name="aivowelsigndeva" unicode="&#x948;" 
d="M-189 615q-28 37 -49.5 54.5t-42.5 22.5t-45 5q-21 0 -41.5 -6.5t-40.5 -15.5l-28 74q24 11 49 17t53 6q44 0 77.5 -19t59.5 -57l4 2q-20 48 -38.5 75t-40.5 38t-51 11q-22 0 -38.5 -4t-30.5 -10l-25 74q19 7 41.5 10.5t50.5 3.5q40 0 73 -12t60.5 -43t51.5 -86t47 -140
h-96z" />
    <glyph glyph-name="ocandravowelsigndeva" unicode="&#x949;" horiz-adv-x="269" 
d="M183 539v-539h-97v539h-86v83h284v-83h-101zM314 862q-25 -104 -81 -146.5t-136 -42.5q-74 0 -131 45.5t-92 143.5l80 28q26 -71 59.5 -105t86.5 -34q56 0 83.5 36.5t44.5 103.5z" />
    <glyph glyph-name="oshortvowelsigndeva" unicode="&#x94a;" horiz-adv-x="269" 
d="M183 539v-539h-97v539h-86v83h284v-83h-101zM88 615q-17 70 -38 94t-56 24q-13 0 -26 -1t-26 -1q-34 0 -62.5 11.5t-51.5 41.5t-43 85l77 27q17 -42 35 -63t58 -21q15 0 31 2t33 2q38 0 66 -16.5t50 -60t42 -124.5h-89z" />
    <glyph glyph-name="ovowelsigndeva" unicode="&#x94b;" horiz-adv-x="269" 
d="M183 539v-539h-97v539h-86v83h284v-83h-101zM89 615q-20 73 -39.5 116t-43.5 61.5t-58 18.5q-21 0 -38 -4t-31 -9l-28 82q22 8 45 12t51 4q54 0 94.5 -24t73 -85t62.5 -172h-88z" />
    <glyph glyph-name="auvowelsigndeva" unicode="&#x94c;" horiz-adv-x="269" 
d="M183 539v-539h-97v539h-86v83h284v-83h-101zM80 615q-28 37 -49.5 54.5t-42.5 22.5t-45 5q-21 0 -41.5 -6.5t-40.5 -15.5l-28 74q24 11 49 17t53 6q44 0 77.5 -19t59.5 -57l4 2q-20 48 -38.5 75t-40.5 38t-51 11q-22 0 -38.5 -4t-30.5 -10l-25 74q19 7 41.5 10.5
t50.5 3.5q40 0 73 -12t60.5 -43t51.5 -86t47 -140h-96z" />
    <glyph glyph-name="viramadeva" unicode="&#x94d;" 
d="M-193 -42q12 3 26.5 5t28.5 2q68 0 119 -25.5t91.5 -67.5t75.5 -93l-67 -47q-52 77 -100 113t-114 36q-13 0 -24 -1.5t-21 -3.5z" />
    <glyph glyph-name="uni094E" unicode="&#x94e;" horiz-adv-x="284" 
d="M197 539v-539h-96v622h197v-83h-101z" />
    <glyph glyph-name="awvowelsigndeva" unicode="&#x94f;" horiz-adv-x="269" 
d="M183 539v-539h-97v539h-86v83h284v-83h-101zM62 615q-15 41 -35 54t-43 13q-14 0 -29 -1.5t-31 -1.5q-31 0 -58 8.5t-50 34.5t-44 77l75 27q17 -43 36.5 -58.5t54.5 -15.5q15 0 30.5 1.5t31.5 1.5q31 0 55.5 -10.5t43 -38.5t30.5 -81q7 17 10.5 31t3.5 29q0 29 -14 44
t-44 25l-19 6q-55 18 -77.5 44t-22.5 79v12l81 1q-1 -3 -1 -13q0 -20 9 -32.5t43 -23.5l30 -10q42 -14 67 -38t25 -75q0 -22 -7 -47t-15 -42h-136z" />
    <glyph glyph-name="omdeva" unicode="&#x950;" horiz-adv-x="935" 
d="M514 816q0 22 15 37.5t37 15.5t37.5 -15.5t15.5 -37.5t-15.5 -37.5t-37.5 -15.5t-37 15.5t-15 37.5zM783 834q-24 -104 -80.5 -146.5t-135.5 -42.5q-74 0 -131 45t-92 144l79 28q25 -73 59 -107.5t87 -34.5q58 0 86 37.5t44 105.5zM485 216q0 -70 -45.5 -106t-119.5 -36
q-59 0 -109.5 27t-95.5 88t-89 165l84 31q43 -107 91.5 -166.5t110.5 -59.5q35 0 56.5 16.5t21.5 52.5q0 33 -16 59.5t-44 49.5q-29 -6 -64 -7l-5 81q65 2 91.5 22t26.5 55q0 34 -22.5 48t-51.5 14q-36 0 -65.5 -9.5t-61.5 -25.5l-28 78q27 13 67.5 26t90.5 13q80 0 123 -40
t43 -102q0 -81 -68 -124q25 -24 52 -24q20 0 36 11.5t36 41.5l29 45q35 56 72.5 81.5t97.5 25.5q43 0 80 -19.5t60.5 -59.5t23.5 -103q0 -83 -48 -133t-136 -50q-46 0 -81.5 16.5t-67.5 43.5l57 63q21 -19 42 -29.5t50 -10.5q35 0 61.5 24t26.5 76q0 48 -20 73.5t-51 25.5
q-27 0 -46.5 -17t-42.5 -54l-25 -40q-26 -42 -56.5 -66.5t-79.5 -24.5q9 -23 9 -46z" />
    <glyph glyph-name="udattadeva" unicode="&#x951;" 
d="M-95 671h-79v204h79v-204z" />
    <glyph glyph-name="anudattadeva" unicode="&#x952;" 
d="M-423 -74h342v-77h-342v77z" />
    <glyph glyph-name="uni0953" unicode="&#x953;" 
d="M-164 683l-114 193h121l71 -193h-78z" />
    <glyph glyph-name="uni0954" unicode="&#x954;" 
d="M4 876l-114 -193h-78l72 193h120z" />
    <glyph glyph-name="candralongevowelsigndeva" unicode="&#x955;" 
d="M38 870q-22 -80 -71 -111.5t-120 -31.5q-67 0 -116 34t-80 108l74 26q22 -52 50.5 -74.5t73.5 -22.5q47 0 71 23.5t38 74.5zM-321 722h340v-68h-340v68z" />
    <glyph glyph-name="uevowelsigndeva" unicode="&#x956;" 
d="M-305 -188q-67 0 -118.5 19.5t-83.5 44.5l28 76q36 -26 75.5 -41.5t98.5 -15.5t98 15.5t76 41.5l28 -76q-32 -25 -83.5 -44.5t-118.5 -19.5z" />
    <glyph glyph-name="uuevowelsigndeva" unicode="&#x957;" 
d="M-305 -149q-64 0 -114 18t-86 44l26 70q35 -25 75 -40.5t99 -15.5q60 0 99.5 15.5t74.5 40.5l26 -70q-35 -25 -86.5 -43.5t-113.5 -18.5zM-305 -268q-65 0 -114 16.5t-86 36.5l25 69q43 -25 83.5 -35t91.5 -10t91 10t83 35l26 -69q-36 -20 -85 -36.5t-115 -16.5z" />
    <glyph glyph-name="qadeva" unicode="&#x958;" horiz-adv-x="780" 
d="M795 539h-324v-182q48 43 115 43q66 0 108.5 -42.5t42.5 -119.5q0 -46 -16 -98t-51 -105l-85 49q24 31 40 70.5t16 78.5q0 43 -18.5 64t-50.5 21q-25 0 -50.5 -16t-50.5 -46v-256h-97v160q-27 -20 -62 -35.5t-83 -15.5q-49 0 -91.5 19.5t-68.5 58.5t-26 97
q0 81 56.5 128.5t146.5 47.5q25 0 53 -3t44 -7l-8 -84q-15 4 -38 7t-42 3q-55 0 -85 -24t-30 -67q0 -49 29 -71.5t65 -22.5q44 0 78 20.5t62 49.5v278h-374v83h795v-83zM89 0q0 26 17.5 44.5t42.5 18.5q26 0 43.5 -18.5t17.5 -44.5q0 -27 -17.5 -45t-43.5 -18
q-25 0 -42.5 18t-17.5 45z" />
    <glyph glyph-name="khhadeva" unicode="&#x959;" horiz-adv-x="841" 
d="M755 539v-539h-97v44q-37 -19 -80.5 -28.5t-88.5 -9.5q-123 0 -223.5 61.5t-185.5 169.5q-26 34 -34.5 56.5t-8.5 41.5q0 23 15.5 42t53.5 19q25 0 44 -10.5t34 -29.5q18 20 24.5 47t6.5 55q0 47 -13 81h-202v83h856v-83h-101zM545 243q35 0 63 13.5t50 32.5v250h-361
q7 -17 10.5 -38t3.5 -49q0 -80 -35.5 -127.5t-95.5 -73.5q63 -75 137.5 -118.5t173.5 -43.5q49 0 90 11t77 32v66q-24 -13 -55.5 -22.5t-72.5 -9.5q-74 0 -121 41t-47 112q0 73 48.5 114t129.5 41q16 0 43 -3t43 -7l-7 -77q-14 4 -31.5 6.5t-35.5 2.5q-45 0 -70 -20t-25 -58
t25.5 -56.5t62.5 -18.5zM69 12q0 26 17.5 44.5t42.5 18.5q26 0 43.5 -18.5t17.5 -44.5q0 -27 -17.5 -45t-43.5 -18q-25 0 -42.5 18t-17.5 45z" />
    <glyph glyph-name="ghhadeva" unicode="&#x95a;" horiz-adv-x="577" 
d="M219 539v-307q0 -31 -14 -46.5t-39 -15.5q-21 0 -43 12.5t-41.5 32.5t-31.5 43.5t-12 45.5q0 24 13.5 40t50.5 16h21v179h-123v83h592v-83h-101v-539h-97v539h-175zM100 24q0 26 17.5 44.5t42.5 18.5q26 0 43.5 -18.5t17.5 -44.5q0 -27 -17.5 -45t-43.5 -18
q-25 0 -42.5 18t-17.5 45z" />
    <glyph glyph-name="zadeva" unicode="&#x95b;" horiz-adv-x="764" 
d="M677 539v-539h-96v358h-122q-41 0 -57 2q32 -29 51.5 -66.5t19.5 -78.5q0 -47 -21 -78.5t-56 -47t-77 -15.5q-55 0 -105.5 29.5t-97 100t-88.5 192.5l83 30q45 -131 94 -199t107 -68q29 0 47.5 16t18.5 51q0 41 -29 77.5t-74 64.5l33 73h273v98h-581v83h779v-83h-102z
M225 -61q0 26 17.5 44.5t42.5 18.5q26 0 43.5 -18.5t17.5 -44.5q0 -27 -17.5 -45t-43.5 -18q-25 0 -42.5 18t-17.5 45z" />
    <glyph glyph-name="dddhadeva" unicode="&#x95c;" horiz-adv-x="589" 
d="M363 216q-29 0 -57.5 -7t-53.5 -18q-46 25 -80 65t-34 90q0 29 10 49.5t27 33.5q23 18 54.5 25.5t85.5 7.5h84v77h-399v83h604v-83h-108v-156h-191q-27 0 -38.5 -2.5t-19.5 -8.5q-14 -11 -14 -30q0 -20 11.5 -34.5t25.5 -26.5q22 8 47.5 12t53.5 4q79 0 128 -38.5
t49 -104.5q0 -67 -50.5 -110.5t-153.5 -43.5q-104 0 -184 45t-138 112l72 57q56 -64 114.5 -96.5t134.5 -32.5q55 0 81.5 18.5t26.5 50.5q0 62 -88 62zM260 -134q0 26 17.5 44.5t42.5 18.5q26 0 43.5 -18.5t17.5 -44.5q0 -27 -17.5 -45t-43.5 -18q-25 0 -42.5 18t-17.5 45z
" />
    <glyph glyph-name="rhadeva" unicode="&#x95d;" horiz-adv-x="575" 
d="M313 0q-81 0 -141.5 27.5t-94.5 79t-34 125.5q0 70 36 117.5t95.5 72t130.5 25.5v92h-305v83h589v-83h-188v-174h-51q-63 0 -97 -8.5t-57 -24.5q-28 -18 -42.5 -45t-14.5 -65q0 -52 28 -86t80 -48q-11 33 -11 70q0 53 38 93t116 40q51 0 84 -19t49 -49.5t16 -64.5
q0 -70 -60 -114t-166 -44zM321 142q0 -32 13 -61q54 1 85 21t31 56q0 27 -16 42.5t-41 15.5q-33 0 -52.5 -20.5t-19.5 -53.5zM222 -134q0 26 17.5 44.5t42.5 18.5q26 0 43.5 -18.5t17.5 -44.5q0 -27 -17.5 -45t-43.5 -18q-25 0 -42.5 18t-17.5 45z" />
    <glyph glyph-name="fadeva" unicode="&#x95e;" horiz-adv-x="786" 
d="M476 539v-182q24 21 52.5 32t62.5 11q67 0 109.5 -42.5t42.5 -119.5q0 -46 -16 -98t-51 -105l-85 49q24 31 40 70.5t16 78.5q0 43 -19 64t-51 21q-25 0 -51.5 -17.5t-49.5 -45.5v-255h-97v182q-25 -18 -56.5 -30t-73.5 -12q-41 0 -74 14.5t-52 36.5q-25 29 -36 65t-11 95
v188h-76v83h800v-83h-324zM172 539v-181q0 -52 6 -75t21 -39q18 -21 58 -21q39 0 68.5 15.5t53.5 38.5v262h-207zM89 5q0 26 17.5 44.5t42.5 18.5q26 0 43.5 -18.5t17.5 -44.5q0 -27 -17.5 -45t-43.5 -18q-25 0 -42.5 18t-17.5 45z" />
    <glyph glyph-name="yyadeva" unicode="&#x95f;" horiz-adv-x="596" 
d="M611 622v-83h-101v-539h-97v169q-29 -19 -68 -32t-88 -13q-94 0 -150 63t-72 164q61 12 90.5 35.5t29.5 66.5q0 25 -10 47t-22 39h-123v83h611zM142 297q19 -44 47.5 -67t75.5 -23t84 20t64 51v261h-190q13 -24 20.5 -49.5t7.5 -52.5q0 -102 -109 -140zM98 12
q0 26 17.5 44.5t42.5 18.5q26 0 43.5 -18.5t17.5 -44.5q0 -27 -17.5 -45t-43.5 -18q-25 0 -42.5 18t-17.5 45z" />
    <glyph glyph-name="rrvocalicdeva" unicode="&#x960;" horiz-adv-x="872" 
d="M128 58l-53 75l244 145q-38 47 -66.5 67t-67.5 20q-29 0 -57 -8t-69 -29l-32 84q36 16 74 28t82 12q40 0 71.5 -12t62 -39t66.5 -73v211h-383v83h886v-83h-407v-210q31 2 63 6t54 9q-8 19 -8 37q0 34 22.5 50t50.5 16q41 0 63.5 -23t22.5 -57q0 -27 -13 -44.5t-32 -25.5
q14 -24 28.5 -45.5t29.5 -43.5l-15 -34q-54 -5 -74.5 -23.5t-20.5 -38.5q0 -26 20 -38t55 -12q30 0 53.5 6.5t58.5 22.5l28 -71q-26 -13 -60.5 -23.5t-77.5 -10.5q-14 0 -26 1q-11 -13 -11 -31q0 -49 75 -49q30 0 53.5 6.5t58.5 22.5l28 -71q-26 -13 -60.5 -24t-77.5 -11
q-78 0 -121 37.5t-43 94.5q0 28 15 53q-55 37 -55 102q0 35 22.5 65t67.5 48q-7 13 -13 24.5t-10 20.5q-26 -9 -69.5 -16t-81.5 -10v-249h-96v222z" />
    <glyph glyph-name="llvocalicdeva" unicode="&#x961;" horiz-adv-x="716" 
d="M205 426q46 0 82.5 -14t71.5 -41q47 42 113 52v116h-472v83h731v-83h-164v-121q44 -14 75.5 -52.5t31.5 -105.5q0 -38 -7.5 -66t-18.5 -54q-50 -3 -77.5 -12.5t-37.5 -23.5t-10 -29q0 -50 75 -50q29 0 53 7t59 22l27 -71q-26 -13 -60 -23.5t-78 -10.5q-13 0 -25 1
q-11 -13 -11 -31q0 -48 75 -48q30 0 53.5 6.5t58.5 21.5l28 -71q-26 -13 -60 -24t-78 -11q-79 0 -121.5 37.5t-42.5 94.5q0 29 14 54q-54 37 -54 101q0 45 33 79t100 47q4 13 6 26.5t2 27.5q0 43 -20.5 63.5t-52.5 20.5q-22 0 -46.5 -11.5t-47 -42t-38.5 -88.5l-92 28
q11 42 28 75q-20 16 -42 26t-49 10q-37 0 -57.5 -21t-20.5 -54q0 -34 19.5 -66t58.5 -68t97 -83l-64 -62q-62 51 -108.5 97t-72.5 91.5t-26 96.5q0 55 25 89t62.5 49.5t74.5 15.5z" />
    <glyph glyph-name="dandadeva" unicode="&#x964;" horiz-adv-x="385" 
d="M189 622h97v-622h-97v622z" />
    <glyph glyph-name="dbldandadeva" unicode="&#x965;" horiz-adv-x="611" 
d="M415 622h97v-622h-97v622zM189 622h97v-622h-97v622z" />
    <glyph glyph-name="zerodeva" unicode="&#x966;" horiz-adv-x="557" 
d="M278 114q-62 0 -109 26t-73.5 73t-26.5 108t26.5 107.5t73.5 72.5t109 26t109 -26t74 -72.5t27 -109.5q0 -61 -27 -107.5t-74 -72t-109 -25.5zM276 196q50 0 82 35t32 91t-30 89.5t-80 33.5t-82 -35.5t-32 -91.5t30 -89t80 -33z" />
    <glyph glyph-name="onedeva" unicode="&#x967;" horiz-adv-x="557" 
d="M279 632q77 0 119 -39t42 -99q0 -38 -16 -74.5t-56.5 -77t-112.5 -91.5l117 -91q40 -32 56.5 -61.5t16.5 -64.5q0 -32 -12.5 -60t-37.5 -59l-76 56q12 14 19.5 28t7.5 31q0 20 -9.5 34.5t-32.5 33.5l-182 150l5 31q108 67 162 117t54 97q0 29 -18 43.5t-48 14.5
t-45.5 -13t-15.5 -34q0 -20 14 -35t49 -26l-57 -60q-45 21 -70 51t-25 79q0 28 15.5 55.5t49.5 45.5t87 18z" />
    <glyph glyph-name="twodeva" unicode="&#x968;" horiz-adv-x="557" 
d="M486 40l-75 -52q-92 137 -169 213q-25 -4 -51 -4q-37 0 -62.5 19t-25.5 53q0 31 19.5 47.5t50.5 16.5q19 0 38.5 -7.5t49.5 -29.5q39 15 67 51t28 89q0 58 -32 85.5t-81 27.5q-35 0 -64 -8t-67 -26l-30 79q78 38 171 38q57 0 102.5 -22t72 -65.5t26.5 -109.5
q0 -68 -33.5 -121.5t-90.5 -83.5q44 -43 85 -95t71 -95z" />
    <glyph glyph-name="threedeva" unicode="&#x969;" horiz-adv-x="557" 
d="M90 593q27 14 68.5 26.5t96.5 12.5q83 0 128 -39t45 -101q0 -69 -53 -110q45 -20 65.5 -52t20.5 -72q0 -51 -30.5 -91t-87.5 -62q28 -29 56.5 -61t51.5 -63l-75 -50q-33 46 -63.5 84.5t-59.5 68.5q-26 -3 -55 -3q-38 0 -63.5 19t-25.5 52q0 32 19.5 48.5t50.5 16.5
q21 0 43 -8.5t56 -35.5q84 17 84 85q0 33 -22.5 53.5t-64.5 25.5q-36 -7 -79 -8l-4 82q56 1 86.5 10.5t42.5 27t12 40.5q0 32 -23.5 46.5t-57.5 14.5t-67 -9.5t-66 -25.5z" />
    <glyph glyph-name="fourdeva" unicode="&#x96a;" horiz-adv-x="557" 
d="M441 133q0 -59 -43 -97t-118 -38q-46 0 -84 17t-60.5 48t-22.5 72q0 26 7 51.5t29.5 58.5t68.5 80q-54 52 -85.5 90t-47 66t-20 51.5t-4.5 45.5q0 24 8 54l99 -17q-7 -20 -7 -37q0 -22 8 -46.5t33 -58.5t76 -84q50 51 76 85.5t35 58t9 42.5q0 16 -6 40l98 17q4 -15 6 -28
t2 -27q0 -24 -6 -48t-22.5 -51.5t-48 -64t-83.5 -85.5q48 -48 70 -83t27.5 -61.5t5.5 -50.5zM209 145q0 -25 16 -44.5t52 -19.5q31 0 49.5 17.5t18.5 44.5q0 22 -11.5 48.5t-55.5 73.5q-45 -47 -57 -73t-12 -47z" />
    <glyph glyph-name="fivedeva" unicode="&#x96b;" horiz-adv-x="557" 
d="M471 -67q-22 38 -47 88t-46.5 98.5t-33.5 81.5q-14 -1 -30 -1q-45 0 -87 10.5t-75.5 36t-53 69t-19.5 109.5q0 46 14 101.5t45 105.5l100 -26q-28 -49 -45.5 -94t-17.5 -95q0 -68 33.5 -102t103.5 -34h8q-4 19 -4 32q0 35 23 51t52 16q42 0 66.5 -25t24.5 -59
q0 -31 -15.5 -50.5t-41.5 -29.5q14 -32 36 -76.5t47 -90t47 -79.5z" />
    <glyph glyph-name="sixdeva" unicode="&#x96c;" horiz-adv-x="557" 
d="M466 -77q-17 28 -34 61t-31.5 63.5t-22.5 50.5q-19 -1 -43 -1q-69 0 -115.5 24t-70 63.5t-23.5 86.5q0 26 10.5 52.5t32.5 47.5q-34 21 -53 53.5t-19 74.5q0 65 52.5 99t135.5 34q28 0 60.5 -3t49.5 -7l-7 -81q-18 4 -41.5 7t-53.5 3q-100 0 -100 -63q0 -25 16.5 -42.5
t45.5 -26.5q35 8 78 8q14 0 29.5 -1.5t25.5 -2.5l-9 -80q-10 1 -22.5 1.5t-28.5 0.5q-48 0 -77 -20t-29 -61q0 -44 33 -65t83 -21h6.5h6.5q-2 9 -3 17.5t-1 13.5q0 36 22 51t50 15q43 0 68 -24.5t25 -57.5q0 -31 -15 -49.5t-40 -29.5q15 -32 39.5 -74t50.5 -79z" />
    <glyph glyph-name="sevendeva" unicode="&#x96d;" horiz-adv-x="557" 
d="M522 270q0 -119 -51.5 -172t-131.5 -53q-64 0 -114.5 25.5t-88.5 85.5t-63 163t-39 258l93 15q11 -148 35 -251t64.5 -157t103.5 -54q58 0 77.5 39t19.5 107q0 49 -11 91.5t-33.5 68.5t-54.5 26q-22 0 -34.5 -12.5t-12.5 -32.5q0 -25 23.5 -46t93.5 -25l-18 -78
q-95 9 -141 50t-46 102q0 56 35.5 89.5t99.5 33.5q59 0 102.5 -35.5t67.5 -97t24 -140.5z" />
    <glyph glyph-name="eightdeva" unicode="&#x96e;" horiz-adv-x="557" 
d="M277 0q-53 0 -100 18.5t-76.5 56.5t-29.5 99q0 30 9 60.5t32.5 68t66.5 89.5l198 240l76 -63l-208 -250q-30 -37 -47 -62.5t-23.5 -45.5t-6.5 -41q0 -45 31 -64.5t77 -19.5q52 0 97.5 16.5t96.5 49.5l41 -84q-47 -27 -104 -47.5t-130 -20.5z" />
    <glyph glyph-name="ninedeva" unicode="&#x96f;" horiz-adv-x="557" 
d="M66 464q0 46 21.5 84t61 61t93.5 23q82 0 129 -48t47 -122q0 -65 -35.5 -108t-104.5 -55q11 -6 22 -14t22 -17l139 -110q38 -30 54 -59.5t16 -64.5q0 -32 -12.5 -60t-37.5 -59l-76 56q13 13 20 27.5t7 31.5q0 20 -10 34.5t-32 33.5l-218 180q-63 51 -84.5 93.5
t-21.5 92.5zM160 460q0 -38 22 -61.5t57 -23.5q37 0 59.5 24.5t22.5 63.5t-21.5 62.5t-57.5 23.5t-59 -24.5t-23 -64.5z" />
    <glyph glyph-name="abbreviationsigndeva" unicode="&#x970;" horiz-adv-x="432" 
d="M217 275q-42 0 -76.5 18t-55.5 50.5t-21 75.5q0 39 19.5 71.5t54 52t79.5 19.5q44 0 78.5 -18.5t54.5 -51t20 -73.5t-20 -73.5t-54.5 -51.5t-78.5 -19zM217 348q33 0 54 20t21 51t-21 50.5t-54 19.5q-35 0 -55 -20.5t-20 -49.5q0 -32 21.5 -51.5t53.5 -19.5z" />
    <glyph glyph-name="uni0971" unicode="&#x971;" horiz-adv-x="320" 
d="M103 587q0 28 18 46.5t45 18.5q26 0 44.5 -18.5t18.5 -46.5q0 -27 -18.5 -46.5t-44.5 -19.5q-27 0 -45 19.5t-18 46.5z" />
    <glyph glyph-name="acandradeva" unicode="&#x972;" horiz-adv-x="788" 
d="M485 216q0 -70 -45.5 -106t-119.5 -36q-59 0 -109.5 27t-95.5 88t-89 165l84 31q43 -107 91.5 -166.5t110.5 -59.5q35 0 56.5 16.5t21.5 52.5q0 33 -16 59.5t-44 49.5q-29 -6 -64 -7l-5 81q65 2 91.5 22t26.5 55q0 34 -22.5 48t-51.5 14q-36 0 -65.5 -9.5t-61.5 -25.5
l-28 78q27 13 67.5 26t90.5 13q80 0 123 -40t43 -102q0 -77 -63 -120l16 -16q34 -5 71 -5q59 0 107 14v176h-70v83h268v-83h-101v-539h-97v278q-23 -6 -46 -8.5t-48 -2.5q-15 0 -36 2q10 -25 10 -53zM838 862q-25 -104 -81 -146.5t-136 -42.5q-74 0 -131 45.5t-92 143.5
l80 28q26 -71 59.5 -105t86.5 -34q56 0 83.5 36.5t44.5 103.5z" />
    <glyph glyph-name="oedeva" unicode="&#x973;" horiz-adv-x="788" 
d="M485 216q0 -70 -45.5 -106t-119.5 -36q-59 0 -109.5 27t-95.5 88t-89 165l84 31q43 -107 91.5 -166.5t110.5 -59.5q35 0 56.5 16.5t21.5 52.5q0 33 -16 59.5t-44 49.5q-29 -6 -64 -7l-5 81q65 2 91.5 22t26.5 55q0 34 -22.5 48t-51.5 14q-36 0 -65.5 -9.5t-61.5 -25.5
l-28 78q27 13 67.5 26t90.5 13q80 0 123 -40t43 -102q0 -77 -63 -120l16 -16q34 -5 71 -5q59 0 107 14v176h-70v83h268v-83h-101v-539h-97v278q-23 -6 -46 -8.5t-48 -2.5q-15 0 -36 2q10 -25 10 -53zM605 616v189h97v-189h-97z" />
    <glyph glyph-name="ooedeva" unicode="&#x974;" horiz-adv-x="1058" 
d="M485 216q0 -70 -45.5 -106t-119.5 -36q-59 0 -109.5 27t-95.5 88t-89 165l84 31q43 -107 91.5 -166.5t110.5 -59.5q35 0 56.5 16.5t21.5 52.5q0 33 -16 59.5t-44 49.5q-29 -6 -64 -7l-5 81q65 2 91.5 22t26.5 55q0 34 -22.5 48t-51.5 14q-36 0 -65.5 -9.5t-61.5 -25.5
l-28 78q27 13 67.5 26t90.5 13q80 0 123 -40t43 -102q0 -77 -63 -120l16 -16q34 -5 71 -5q59 0 107 14v176h-70v83h537v-83h-101v-539h-96v539h-173v-539h-97v278q-23 -6 -46 -8.5t-48 -2.5q-15 0 -36 2q10 -25 10 -53zM875 616v189h97v-189h-97z" />
    <glyph glyph-name="awdeva" unicode="&#x975;" horiz-adv-x="1058" 
d="M485 216q0 -70 -45.5 -106t-119.5 -36q-59 0 -109.5 27t-95.5 88t-89 165l84 31q43 -107 91.5 -166.5t110.5 -59.5q35 0 56.5 16.5t21.5 52.5q0 33 -16 59.5t-44 49.5q-29 -6 -64 -7l-5 81q65 2 91.5 22t26.5 55q0 34 -22.5 48t-51.5 14q-36 0 -65.5 -9.5t-61.5 -25.5
l-28 78q27 13 67.5 26t90.5 13q80 0 123 -40t43 -102q0 -77 -63 -120l16 -16q34 -5 71 -5q59 0 107 14v176h-70v83h537v-83h-101v-539h-96v539h-173v-539h-97v278q-23 -6 -46 -8.5t-48 -2.5q-15 0 -36 2q10 -25 10 -53zM851 615q-15 41 -35 54t-43 13q-14 0 -29 -1.5
t-31 -1.5q-31 0 -58 8.5t-50 34.5t-44 77l75 27q17 -43 36.5 -58.5t54.5 -15.5q15 0 30.5 1.5t31.5 1.5q31 0 55.5 -10.5t43 -38.5t30.5 -81q7 17 10.5 31t3.5 29q0 29 -14 44t-44 25l-19 6q-55 18 -77.5 44t-22.5 79v12l81 1q-1 -3 -1 -13q0 -20 9 -32.5t43 -23.5l30 -10
q42 -14 67 -38t25 -75q0 -22 -7 -47t-15 -42h-136z" />
    <glyph glyph-name="uedeva" unicode="&#x976;" horiz-adv-x="788" 
d="M485 216q0 -70 -45.5 -106t-119.5 -36q-59 0 -109.5 27t-95.5 88t-89 165l84 31q43 -107 91.5 -166.5t110.5 -59.5q35 0 56.5 16.5t21.5 52.5q0 33 -16 59.5t-44 49.5q-29 -6 -64 -7l-5 81q65 2 91.5 22t26.5 55q0 34 -22.5 48t-51.5 14q-36 0 -65.5 -9.5t-61.5 -25.5
l-28 78q27 13 67.5 26t90.5 13q80 0 123 -40t43 -102q0 -77 -63 -120l16 -16q34 -5 71 -5q59 0 107 14v176h-70v83h268v-83h-101v-539h-97v278q-23 -6 -46 -8.5t-48 -2.5q-15 0 -36 2q10 -25 10 -53zM483 -188q-67 0 -118.5 19.5t-83.5 44.5l28 76q36 -26 75.5 -41.5
t98.5 -15.5t98 15.5t76 41.5l28 -76q-32 -25 -83.5 -44.5t-118.5 -19.5z" />
    <glyph glyph-name="uuedeva" unicode="&#x977;" horiz-adv-x="788" 
d="M485 216q0 -70 -45.5 -106t-119.5 -36q-59 0 -109.5 27t-95.5 88t-89 165l84 31q43 -107 91.5 -166.5t110.5 -59.5q35 0 56.5 16.5t21.5 52.5q0 33 -16 59.5t-44 49.5q-29 -6 -64 -7l-5 81q65 2 91.5 22t26.5 55q0 34 -22.5 48t-51.5 14q-36 0 -65.5 -9.5t-61.5 -25.5
l-28 78q27 13 67.5 26t90.5 13q80 0 123 -40t43 -102q0 -77 -63 -120l16 -16q34 -5 71 -5q59 0 107 14v176h-70v83h268v-83h-101v-539h-97v278q-23 -6 -46 -8.5t-48 -2.5q-15 0 -36 2q10 -25 10 -53zM483 -149q-64 0 -114 18t-86 44l26 70q35 -25 75 -40.5t99 -15.5
q60 0 99.5 15.5t74.5 40.5l26 -70q-35 -25 -86.5 -43.5t-113.5 -18.5zM483 -268q-65 0 -114 16.5t-86 36.5l25 69q43 -25 83.5 -35t91.5 -10t91 10t83 35l26 -69q-36 -20 -85 -36.5t-115 -16.5z" />
    <glyph glyph-name="marwariddadeva" unicode="&#x978;" horiz-adv-x="569" 
d="M219 539v-119q42 6 81 6q82 0 131.5 -24.5t72 -68t22.5 -101.5q0 -46 -16 -100t-51 -107l-85 48q24 33 39.5 74t15.5 82q0 53 -27.5 84t-101.5 31q-40 0 -81 -9v-72q0 -29 -14 -44.5t-39 -15.5q-21 0 -43 12.5t-41.5 32t-31.5 41.5t-12 40q0 29 19.5 45.5t65.5 28.5v136
h-123v83h583v-83h-364z" />
    <glyph glyph-name="zhadeva" unicode="&#x979;" horiz-adv-x="764" 
d="M677 539v-539h-96v378h-122q-37 0 -55 2q31 -28 50 -62.5t19 -71.5q0 -44 -21 -73.5t-56 -44t-77 -14.5q-55 0 -105.5 28t-97 94t-88.5 180l83 30q45 -122 94 -184.5t107 -62.5q29 0 47.5 14t18.5 46q0 37 -29 70t-74 59l33 73h273v78h-581v83h779v-83h-102zM354 46
q0 22 15.5 38.5t37.5 16.5t37 -16.5t15 -38.5t-15 -39t-37 -17t-37.5 17t-15.5 39zM169 46q0 22 15 38.5t37 16.5t37.5 -16.5t15.5 -38.5t-15.5 -39t-37.5 -17t-37 17t-15 39zM261 -48q0 23 15.5 39t37.5 16t37.5 -16t15.5 -39t-15.5 -39t-37.5 -16t-37.5 16t-15.5 39z" />
    <glyph glyph-name="heavyyadeva" unicode="&#x97a;" horiz-adv-x="596" 
d="M510 539v-539h-97v169q-28 -18 -66.5 -31.5t-87.5 -13.5q-95 0 -151.5 63t-72.5 164q61 12 90.5 35.5t29.5 66.5q0 25 -9.5 47t-22.5 39h-123v83h611v-83h-101zM413 539h-193q8 -16 13 -29l180 -230v259zM282 338q-21 26 -43 56q-15 -69 -97 -97q19 -45 48 -67.5
t77 -22.5q31 0 55.5 7.5t43.5 19.5z" />
    <glyph glyph-name="gabardeva" unicode="&#x97b;" horiz-adv-x="577" 
d="M82 71h313v468h-176v-288q0 -30 -14 -45.5t-39 -15.5q-21 0 -43 12.5t-41.5 32.5t-31.5 43.5t-12 45.5q0 24 13.5 39.5t50.5 15.5h21v160h-123v83h592v-83h-101v-545h-409v77z" />
    <glyph glyph-name="jabardeva" unicode="&#x97c;" horiz-adv-x="748" 
d="M82 71h483v307h-106q-37 0 -55 2q31 -28 50 -62.5t19 -71.5q0 -44 -21 -73.5t-56 -44t-77 -14.5q-55 0 -105.5 28t-97 94t-88.5 180l83 30q45 -122 94 -184.5t107 -62.5q29 0 47.5 14t18.5 46q0 37 -29 70t-74 59l33 73h257v78h-565v83h762v-83h-101v-545h-579v77z" />
    <glyph glyph-name="uni097D" unicode="&#x97d;" horiz-adv-x="478" 
d="M227 632q98 0 152 -52t54 -136q0 -76 -44.5 -125t-119.5 -65v-254h-95v328q85 1 122.5 35t37.5 86q0 50 -33 75t-79 25q-42 0 -72 -9t-61 -23l-29 80q34 13 76.5 24t90.5 11z" />
    <glyph glyph-name="ddabardeva" unicode="&#x97e;" horiz-adv-x="589" 
d="M363 261q-29 0 -60.5 -5.5t-55.5 -15.5q-44 22 -76.5 57.5t-32.5 79.5q0 24 10 42t26 30q22 16 51 22.5t83 6.5h91v61h-399v83h604v-83h-108v-137h-203q-28 0 -44 -6t-16 -26q0 -14 9.5 -26t23.5 -20q22 7 49.5 10.5t55.5 3.5q85 0 131 -33.5t46 -90.5t-49.5 -94.5
t-154.5 -37.5q-101 0 -180.5 36t-142.5 99l68 59q54 -56 114.5 -85t139.5 -29q59 0 83.5 14t24.5 39q0 21 -20 33.5t-68 12.5zM57 71h484v-77h-484v77z" />
    <glyph glyph-name="babardeva" unicode="&#x97f;" horiz-adv-x="585" 
d="M82 71h320v103q-30 -19 -68 -31.5t-93 -12.5q-56 0 -101 20.5t-71 59t-26 91.5q0 84 60.5 130.5t157.5 46.5q26 0 59.5 -2.5t50.5 -6.5l-7 -79q-20 4 -43.5 7t-48.5 3q-15 0 -28 -1l117 -156q12 8 22 16.5t19 18.5v261h-402v83h599v-83h-101v-545h-416v77zM139 301
q0 -49 31 -71.5t77 -22.5q28 0 54 8l-123 162q-39 -25 -39 -76z" />
    <glyph glyph-name="uni200C" unicode="&#x200c;" 
d="M-26 788h52v-954h-52v954z" />
    <glyph glyph-name="uni200D" unicode="&#x200d;" 
d="M146 539l-37 -36l-83 82v-750h-52v750l-83 -82l-37 36l110 107l-110 106l37 36l109 -108l109 108l37 -37l-110 -105z" />
    <glyph glyph-name="uni25CC" unicode="&#x25cc;" horiz-adv-x="510" 
d="M254 457q-28 0 -28 29q0 28 28 28q30 0 30 -28q0 -29 -30 -29zM384 407q-29 0 -29 29t29 29t29 -29t-29 -29zM125 407q-28 0 -28 29t28 29q29 0 29 -29t-29 -29zM81 283q-29 0 -29 29q0 28 29 28q28 0 28 -28q0 -29 -28 -29zM429 283q-29 0 -29 29q0 28 29 28t29 -28
q0 -29 -29 -29zM125 158q-28 0 -28 29t28 29q29 0 29 -29t-29 -29zM384 158q-29 0 -29 29t29 29t29 -29t-29 -29zM254 108q-28 0 -28 29t28 29q30 0 30 -29t-30 -29z" />
    <glyph glyph-name="uni02BC" unicode="&#x2bc;" horiz-adv-x="319" 
d="M241 729l7 -11q-14 -53 -37.5 -116t-48.5 -118h-79q13 59 27 126.5t22 118.5h109z" />
    <glyph glyph-name="ashortnuktadeva" horiz-adv-x="788" 
d="M485 216q0 -70 -45.5 -106t-119.5 -36q-59 0 -109.5 27t-95.5 88t-89 165l84 31q43 -107 91.5 -166.5t110.5 -59.5q35 0 56.5 16.5t21.5 52.5q0 33 -16 59.5t-44 49.5q-29 -6 -64 -7l-5 81q65 2 91.5 22t26.5 55q0 34 -22.5 48t-51.5 14q-36 0 -65.5 -9.5t-61.5 -25.5
l-28 78q27 13 67.5 26t90.5 13q80 0 123 -40t43 -102q0 -77 -63 -120l16 -16q34 -5 71 -5q59 0 107 14v176h-70v83h268v-83h-101v-539h-97v278q-23 -6 -46 -8.5t-48 -2.5q-15 0 -36 2q10 -25 10 -53zM607 615q-17 70 -38 94t-56 24q-13 0 -26 -1t-26 -1q-34 0 -62.5 11.5
t-51.5 41.5t-43 85l77 27q17 -42 35 -63t58 -21q15 0 31 2t33 2q38 0 66 -16.5t50 -60t42 -124.5h-89zM226 -50q0 26 17.5 44.5t42.5 18.5q26 0 43.5 -18.5t17.5 -44.5q0 -27 -17.5 -45t-43.5 -18q-25 0 -42.5 18t-17.5 45z" />
    <glyph glyph-name="anuktadeva" horiz-adv-x="788" 
d="M485 216q0 -70 -45.5 -106t-119.5 -36q-59 0 -109.5 27t-95.5 88t-89 165l84 31q43 -107 91.5 -166.5t110.5 -59.5q35 0 56.5 16.5t21.5 52.5q0 33 -16 59.5t-44 49.5q-29 -6 -64 -7l-5 81q65 2 91.5 22t26.5 55q0 34 -22.5 48t-51.5 14q-36 0 -65.5 -9.5t-61.5 -25.5
l-28 78q27 13 67.5 26t90.5 13q80 0 123 -40t43 -102q0 -77 -63 -120l16 -16q34 -5 71 -5q59 0 107 14v176h-70v83h268v-83h-101v-539h-97v278q-23 -6 -46 -8.5t-48 -2.5q-15 0 -36 2q10 -25 10 -53zM226 -50q0 26 17.5 44.5t42.5 18.5q26 0 43.5 -18.5t17.5 -44.5
q0 -27 -17.5 -45t-43.5 -18q-25 0 -42.5 18t-17.5 45z" />
    <glyph glyph-name="aanuktadeva" horiz-adv-x="1058" 
d="M485 216q0 -70 -45.5 -106t-119.5 -36q-59 0 -109.5 27t-95.5 88t-89 165l84 31q43 -107 91.5 -166.5t110.5 -59.5q35 0 56.5 16.5t21.5 52.5q0 33 -16 59.5t-44 49.5q-29 -6 -64 -7l-5 81q65 2 91.5 22t26.5 55q0 34 -22.5 48t-51.5 14q-36 0 -65.5 -9.5t-61.5 -25.5
l-28 78q27 13 67.5 26t90.5 13q80 0 123 -40t43 -102q0 -77 -63 -120l16 -16q34 -5 71 -5q59 0 107 14v176h-70v83h537v-83h-101v-539h-96v539h-173v-539h-97v278q-23 -6 -46 -8.5t-48 -2.5q-15 0 -36 2q10 -25 10 -53zM226 -50q0 26 17.5 44.5t42.5 18.5q26 0 43.5 -18.5
t17.5 -44.5q0 -27 -17.5 -45t-43.5 -18q-25 0 -42.5 18t-17.5 45z" />
    <glyph glyph-name="inuktadeva" horiz-adv-x="499" 
d="M272 216q-28 0 -57.5 -7t-53.5 -18q-47 25 -80.5 65t-33.5 90q0 29 10.5 49.5t27.5 33.5q23 18 54.5 25.5t84.5 7.5h84v77h-308v83h513v-83h-108v-156h-191q-26 0 -38 -2.5t-19 -8.5q-15 -10 -15 -30t11.5 -34.5t25.5 -26.5q22 8 47.5 12t54.5 4q79 0 127.5 -38.5
t48.5 -105.5q0 -63 -41 -100t-115 -47q56 -23 124 -44l-36 -77q-60 28 -115 57.5t-101 59.5q-58 3 -92.5 17.5t-34.5 51.5q0 25 15 40t41 15q22 0 44 -11t50 -35q15 -2 26 -2q67 0 102.5 19t35.5 57q0 29 -22 45.5t-66 16.5zM139 -150q0 26 17.5 44.5t42.5 18.5
q26 0 43.5 -18.5t17.5 -44.5q0 -27 -17.5 -45t-43.5 -18q-25 0 -42.5 18t-17.5 45z" />
    <glyph glyph-name="iinuktadeva" horiz-adv-x="499" 
d="M272 216q-28 0 -57.5 -7t-53.5 -18q-47 25 -80.5 65t-33.5 90q0 29 10.5 49.5t27.5 33.5q23 18 54.5 25.5t84.5 7.5h84v77h-308v83h513v-83h-108v-156h-191q-26 0 -38 -2.5t-19 -8.5q-15 -10 -15 -30t11.5 -34.5t25.5 -26.5q22 8 47.5 12t54.5 4q79 0 127.5 -38.5
t48.5 -105.5q0 -63 -41 -100t-115 -47q56 -23 124 -44l-36 -77q-60 28 -115 57.5t-101 59.5q-58 3 -92.5 17.5t-34.5 51.5q0 25 15 40t41 15q22 0 44 -11t50 -35q15 -2 26 -2q67 0 102.5 19t35.5 57q0 29 -22 45.5t-66 16.5zM289 615q-21 35 -35 72t-14 72q0 69 46.5 103
t115.5 34q33 0 61 -6t48 -15l-22 -75q-18 8 -36 13t-38 5q-40 0 -59.5 -21.5t-19.5 -56.5q0 -31 12.5 -62t35.5 -63h-95zM139 -150q0 26 17.5 44.5t42.5 18.5q26 0 43.5 -18.5t17.5 -44.5q0 -27 -17.5 -45t-43.5 -18q-25 0 -42.5 18t-17.5 45z" />
    <glyph glyph-name="unuktadeva" horiz-adv-x="559" 
d="M0 622h574v-83h-104q27 -36 27 -80q0 -86 -77 -132q35 -32 63 -74.5t28 -99.5q0 -76 -49.5 -114.5t-127.5 -38.5q-60 0 -113 30t-101 99t-94 184l84 30q45 -119 97 -188t119 -69q39 0 62.5 17.5t23.5 60.5q0 39 -21 70.5t-59 60.5q-30 -6 -65 -7l-5 81q68 2 103 23t35 69
q0 26 -12.5 45.5t-31.5 32.5h-356v83zM224 -134q0 26 17.5 44.5t42.5 18.5q26 0 43.5 -18.5t17.5 -44.5q0 -27 -17.5 -45t-43.5 -18q-25 0 -42.5 18t-17.5 45z" />
    <glyph glyph-name="uunuktadeva" horiz-adv-x="784" 
d="M0 622h798v-83h-328q27 -36 27 -80q0 -86 -77 -132q20 -18 35 -35q32 22 64.5 33.5t68.5 11.5q68 0 111 -39.5t43 -111.5q0 -45 -15 -91.5t-49 -94.5l-85 48q23 28 38 62t15 70q0 40 -19 58t-50 18q-38 0 -79 -36q13 -32 13 -67q0 -76 -49.5 -114.5t-127.5 -38.5
q-60 0 -113 30t-101 99t-94 184l84 30q45 -119 97 -188t119 -69q39 0 62.5 17.5t23.5 60.5q0 39 -21 70.5t-59 60.5q-30 -6 -65 -7l-5 81q68 2 103 23t35 69q0 26 -12.5 45.5t-31.5 32.5h-356v83zM224 -134q0 26 17.5 44.5t42.5 18.5q26 0 43.5 -18.5t17.5 -44.5
q0 -27 -17.5 -45t-43.5 -18q-25 0 -42.5 18t-17.5 45z" />
    <glyph glyph-name="rvocalicnuktadeva" horiz-adv-x="872" 
d="M128 58l-53 75l244 145q-38 47 -66.5 67t-67.5 20q-29 0 -57 -8t-69 -29l-32 84q36 16 74 28t82 12q40 0 71.5 -12t62 -39t66.5 -73v211h-383v83h886v-83h-407v-210q31 2 63 6t54 9q-8 19 -8 37q0 34 22.5 50t50.5 16q41 0 63.5 -23t22.5 -57q0 -27 -13 -44.5t-32 -25.5
q14 -24 28.5 -45.5t29.5 -43.5l-15 -34q-52 -7 -73.5 -26t-21.5 -49q0 -31 22 -45t52 -14q29 0 53 7t58 25l30 -78q-26 -13 -60.5 -23.5t-77.5 -10.5q-76 0 -120 39.5t-44 102.5q0 42 22.5 75.5t68.5 52.5q-7 12 -13.5 24t-10.5 21q-26 -9 -69.5 -16t-81.5 -10v-249h-96v222
zM163 -69q0 26 17.5 44.5t42.5 18.5q26 0 43.5 -18.5t17.5 -44.5q0 -27 -17.5 -45t-43.5 -18q-25 0 -42.5 18t-17.5 45z" />
    <glyph glyph-name="lvocalicnuktadeva" horiz-adv-x="716" 
d="M434 30q0 48 29 84t90 54q11 21 17.5 43.5t6.5 48.5q0 43 -20.5 63.5t-52.5 20.5q-22 0 -46.5 -11.5t-47 -42t-38.5 -88.5l-92 28q11 42 28 75q-20 16 -42 26t-49 10q-37 0 -57.5 -21t-20.5 -54q0 -34 19.5 -66t58.5 -68t97 -83l-64 -62q-62 51 -108.5 97t-72.5 91.5
t-26 96.5q0 55 25 89t62.5 49.5t74.5 15.5q46 0 82.5 -14t71.5 -41q47 42 113 52v116h-472v83h731v-83h-164v-121q44 -14 75.5 -52.5t31.5 -105.5q0 -42 -12 -81t-31 -72q-59 -8 -84.5 -28.5t-25.5 -52.5q0 -31 22 -45t53 -14q29 0 52.5 7.5t58.5 24.5l29 -77
q-26 -14 -60 -24t-78 -10q-75 0 -119.5 39t-44.5 103zM177 -133q0 26 17.5 44.5t42.5 18.5q26 0 43.5 -18.5t17.5 -44.5q0 -27 -17.5 -45t-43.5 -18q-25 0 -42.5 18t-17.5 45z" />
    <glyph glyph-name="ecandranuktadeva" horiz-adv-x="569" 
d="M584 539h-91v-158q0 -51 -7.5 -81t-27.5 -53q-38 -45 -125 -53l-18 84q22 4 36.5 9t23.5 15q11 11 16.5 28t5.5 56v153h-225v-187q0 -44 3 -71.5t13 -46t30 -34.5t54 -35l119 -68q62 -35 87 -68t25 -83q0 -40 -16.5 -76t-32.5 -58l-83 48q13 17 23.5 38.5t10.5 42.5
q0 19 -8 33.5t-31 31.5t-69 44l-97 55q-39 23 -66.5 47t-42.5 59q-7 19 -11 44t-4 63v221h-76v83h584v-83zM559 862q-25 -104 -81 -146.5t-136 -42.5q-74 0 -131 45.5t-92 143.5l80 28q26 -71 59.5 -105t86.5 -34q56 0 83.5 36.5t44.5 103.5zM117 -74q0 26 17.5 44.5
t42.5 18.5q26 0 43.5 -18.5t17.5 -44.5q0 -27 -17.5 -45t-43.5 -18q-25 0 -42.5 18t-17.5 45z" />
    <glyph glyph-name="eshortnuktadeva" horiz-adv-x="569" 
d="M584 539h-91v-158q0 -51 -7.5 -81t-27.5 -53q-38 -45 -125 -53l-18 84q22 4 36.5 9t23.5 15q11 11 16.5 28t5.5 56v153h-225v-187q0 -44 3 -71.5t13 -46t30 -34.5t54 -35l119 -68q62 -35 87 -68t25 -83q0 -40 -16.5 -76t-32.5 -58l-83 48q13 17 23.5 38.5t10.5 42.5
q0 19 -8 33.5t-31 31.5t-69 44l-97 55q-39 23 -66.5 47t-42.5 59q-7 19 -11 44t-4 63v221h-76v83h584v-83zM399 615q-17 70 -38 94t-56 24q-13 0 -26 -1t-26 -1q-34 0 -62.5 11.5t-51.5 41.5t-43 85l77 27q17 -42 35 -63t58 -21q15 0 31 2t33 2q38 0 66 -16.5t50 -60
t42 -124.5h-89zM117 -74q0 26 17.5 44.5t42.5 18.5q26 0 43.5 -18.5t17.5 -44.5q0 -27 -17.5 -45t-43.5 -18q-25 0 -42.5 18t-17.5 45z" />
    <glyph glyph-name="enuktadeva" horiz-adv-x="569" 
d="M584 539h-91v-158q0 -51 -7.5 -81t-27.5 -53q-38 -45 -125 -53l-18 84q22 4 36.5 9t23.5 15q11 11 16.5 28t5.5 56v153h-225v-187q0 -44 3 -71.5t13 -46t30 -34.5t54 -35l119 -68q62 -35 87 -68t25 -83q0 -40 -16.5 -76t-32.5 -58l-83 48q13 17 23.5 38.5t10.5 42.5
q0 19 -8 33.5t-31 31.5t-69 44l-97 55q-39 23 -66.5 47t-42.5 59q-7 19 -11 44t-4 63v221h-76v83h584v-83zM117 -74q0 26 17.5 44.5t42.5 18.5q26 0 43.5 -18.5t17.5 -44.5q0 -27 -17.5 -45t-43.5 -18q-25 0 -42.5 18t-17.5 45z" />
    <glyph glyph-name="ainuktadeva" horiz-adv-x="569" 
d="M584 539h-91v-158q0 -51 -7.5 -81t-27.5 -53q-38 -45 -125 -53l-18 84q22 4 36.5 9t23.5 15q11 11 16.5 28t5.5 56v153h-225v-187q0 -44 3 -71.5t13 -46t30 -34.5t54 -35l119 -68q62 -35 87 -68t25 -83q0 -40 -16.5 -76t-32.5 -58l-83 48q13 17 23.5 38.5t10.5 42.5
q0 19 -8 33.5t-31 31.5t-69 44l-97 55q-39 23 -66.5 47t-42.5 59q-7 19 -11 44t-4 63v221h-76v83h584v-83zM400 615q-20 73 -39.5 116t-43.5 61.5t-58 18.5q-21 0 -38 -4t-31 -9l-28 82q22 8 45 12t51 4q54 0 94.5 -24t73 -85t62.5 -172h-88zM117 -74q0 26 17.5 44.5
t42.5 18.5q26 0 43.5 -18.5t17.5 -44.5q0 -27 -17.5 -45t-43.5 -18q-25 0 -42.5 18t-17.5 45z" />
    <glyph glyph-name="ocandranuktadeva" horiz-adv-x="1058" 
d="M485 216q0 -70 -45.5 -106t-119.5 -36q-59 0 -109.5 27t-95.5 88t-89 165l84 31q43 -107 91.5 -166.5t110.5 -59.5q35 0 56.5 16.5t21.5 52.5q0 33 -16 59.5t-44 49.5q-29 -6 -64 -7l-5 81q65 2 91.5 22t26.5 55q0 34 -22.5 48t-51.5 14q-36 0 -65.5 -9.5t-61.5 -25.5
l-28 78q27 13 67.5 26t90.5 13q80 0 123 -40t43 -102q0 -77 -63 -120l16 -16q34 -5 71 -5q59 0 107 14v176h-70v83h537v-83h-101v-539h-96v539h-173v-539h-97v278q-23 -6 -46 -8.5t-48 -2.5q-15 0 -36 2q10 -25 10 -53zM226 -50q0 26 17.5 44.5t42.5 18.5q26 0 43.5 -18.5
t17.5 -44.5q0 -27 -17.5 -45t-43.5 -18q-25 0 -42.5 18t-17.5 45zM1103 862q-25 -104 -81 -146.5t-136 -42.5q-74 0 -131 45.5t-92 143.5l80 28q26 -71 59.5 -105t86.5 -34q56 0 83.5 36.5t44.5 103.5z" />
    <glyph glyph-name="oshortnuktadeva" horiz-adv-x="1058" 
d="M485 216q0 -70 -45.5 -106t-119.5 -36q-59 0 -109.5 27t-95.5 88t-89 165l84 31q43 -107 91.5 -166.5t110.5 -59.5q35 0 56.5 16.5t21.5 52.5q0 33 -16 59.5t-44 49.5q-29 -6 -64 -7l-5 81q65 2 91.5 22t26.5 55q0 34 -22.5 48t-51.5 14q-36 0 -65.5 -9.5t-61.5 -25.5
l-28 78q27 13 67.5 26t90.5 13q80 0 123 -40t43 -102q0 -77 -63 -120l16 -16q34 -5 71 -5q59 0 107 14v176h-70v83h537v-83h-101v-539h-96v539h-173v-539h-97v278q-23 -6 -46 -8.5t-48 -2.5q-15 0 -36 2q10 -25 10 -53zM877 615q-17 70 -38 94t-56 24q-13 0 -26 -1t-26 -1
q-34 0 -62.5 11.5t-51.5 41.5t-43 85l77 27q17 -42 35 -63t58 -21q15 0 31 2t33 2q38 0 66 -16.5t50 -60t42 -124.5h-89zM226 -50q0 26 17.5 44.5t42.5 18.5q26 0 43.5 -18.5t17.5 -44.5q0 -27 -17.5 -45t-43.5 -18q-25 0 -42.5 18t-17.5 45z" />
    <glyph glyph-name="onuktadeva" horiz-adv-x="1058" 
d="M485 216q0 -70 -45.5 -106t-119.5 -36q-59 0 -109.5 27t-95.5 88t-89 165l84 31q43 -107 91.5 -166.5t110.5 -59.5q35 0 56.5 16.5t21.5 52.5q0 33 -16 59.5t-44 49.5q-29 -6 -64 -7l-5 81q65 2 91.5 22t26.5 55q0 34 -22.5 48t-51.5 14q-36 0 -65.5 -9.5t-61.5 -25.5
l-28 78q27 13 67.5 26t90.5 13q80 0 123 -40t43 -102q0 -77 -63 -120l16 -16q34 -5 71 -5q59 0 107 14v176h-70v83h537v-83h-101v-539h-96v539h-173v-539h-97v278q-23 -6 -46 -8.5t-48 -2.5q-15 0 -36 2q10 -25 10 -53zM878 615q-20 73 -39.5 116t-43.5 61.5t-58 18.5
q-21 0 -38 -4t-31 -9l-28 82q22 8 45 12t51 4q54 0 94.5 -24t73 -85t62.5 -172h-88zM226 -50q0 26 17.5 44.5t42.5 18.5q26 0 43.5 -18.5t17.5 -44.5q0 -27 -17.5 -45t-43.5 -18q-25 0 -42.5 18t-17.5 45z" />
    <glyph glyph-name="aunuktadeva" horiz-adv-x="1058" 
d="M485 216q0 -70 -45.5 -106t-119.5 -36q-59 0 -109.5 27t-95.5 88t-89 165l84 31q43 -107 91.5 -166.5t110.5 -59.5q35 0 56.5 16.5t21.5 52.5q0 33 -16 59.5t-44 49.5q-29 -6 -64 -7l-5 81q65 2 91.5 22t26.5 55q0 34 -22.5 48t-51.5 14q-36 0 -65.5 -9.5t-61.5 -25.5
l-28 78q27 13 67.5 26t90.5 13q80 0 123 -40t43 -102q0 -77 -63 -120l16 -16q34 -5 71 -5q59 0 107 14v176h-70v83h537v-83h-101v-539h-96v539h-173v-539h-97v278q-23 -6 -46 -8.5t-48 -2.5q-15 0 -36 2q10 -25 10 -53zM869 615q-28 37 -49.5 54.5t-42.5 22.5t-45 5
q-21 0 -41.5 -6.5t-40.5 -15.5l-28 74q24 11 49 17t53 6q44 0 77.5 -19t59.5 -57l4 2q-20 48 -38.5 75t-40.5 38t-51 11q-22 0 -38.5 -4t-30.5 -10l-25 74q19 7 41.5 10.5t50.5 3.5q40 0 73 -12t60.5 -43t51.5 -86t47 -140h-96zM226 -50q0 26 17.5 44.5t42.5 18.5
q26 0 43.5 -18.5t17.5 -44.5q0 -27 -17.5 -45t-43.5 -18q-25 0 -42.5 18t-17.5 45z" />
    <glyph glyph-name="rrvocalicnuktadeva" horiz-adv-x="872" 
d="M128 58l-53 75l244 145q-38 47 -66.5 67t-67.5 20q-29 0 -57 -8t-69 -29l-32 84q36 16 74 28t82 12q40 0 71.5 -12t62 -39t66.5 -73v211h-383v83h886v-83h-407v-210q31 2 63 6t54 9q-8 19 -8 37q0 34 22.5 50t50.5 16q41 0 63.5 -23t22.5 -57q0 -27 -13 -44.5t-32 -25.5
q14 -24 28.5 -45.5t29.5 -43.5l-15 -34q-54 -5 -74.5 -23.5t-20.5 -38.5q0 -26 20 -38t55 -12q30 0 53.5 6.5t58.5 22.5l28 -71q-26 -13 -60.5 -23.5t-77.5 -10.5q-14 0 -26 1q-11 -13 -11 -31q0 -49 75 -49q30 0 53.5 6.5t58.5 22.5l28 -71q-26 -13 -60.5 -24t-77.5 -11
q-78 0 -121 37.5t-43 94.5q0 28 15 53q-55 37 -55 102q0 35 22.5 65t67.5 48q-7 13 -13 24.5t-10 20.5q-26 -9 -69.5 -16t-81.5 -10v-249h-96v222zM163 -69q0 26 17.5 44.5t42.5 18.5q26 0 43.5 -18.5t17.5 -44.5q0 -27 -17.5 -45t-43.5 -18q-25 0 -42.5 18t-17.5 45z" />
    <glyph glyph-name="llvocalicnuktadeva" horiz-adv-x="716" 
d="M205 426q46 0 82.5 -14t71.5 -41q47 42 113 52v116h-472v83h731v-83h-164v-121q44 -14 75.5 -52.5t31.5 -105.5q0 -38 -7.5 -66t-18.5 -54q-50 -3 -77.5 -12.5t-37.5 -23.5t-10 -29q0 -50 75 -50q29 0 53 7t59 22l27 -71q-26 -13 -60 -23.5t-78 -10.5q-13 0 -25 1
q-11 -13 -11 -31q0 -48 75 -48q30 0 53.5 6.5t58.5 21.5l28 -71q-26 -13 -60 -24t-78 -11q-79 0 -121.5 37.5t-42.5 94.5q0 29 14 54q-54 37 -54 101q0 45 33 79t100 47q4 13 6 26.5t2 27.5q0 43 -20.5 63.5t-52.5 20.5q-22 0 -46.5 -11.5t-47 -42t-38.5 -88.5l-92 28
q11 42 28 75q-20 16 -42 26t-49 10q-37 0 -57.5 -21t-20.5 -54q0 -34 19.5 -66t58.5 -68t97 -83l-64 -62q-62 51 -108.5 97t-72.5 91.5t-26 96.5q0 55 25 89t62.5 49.5t74.5 15.5zM177 -133q0 26 17.5 44.5t42.5 18.5q26 0 43.5 -18.5t17.5 -44.5q0 -27 -17.5 -45t-43.5 -18
q-25 0 -42.5 18t-17.5 45z" />
    <glyph glyph-name="acandranuktadeva" horiz-adv-x="788" 
d="M485 216q0 -70 -45.5 -106t-119.5 -36q-59 0 -109.5 27t-95.5 88t-89 165l84 31q43 -107 91.5 -166.5t110.5 -59.5q35 0 56.5 16.5t21.5 52.5q0 33 -16 59.5t-44 49.5q-29 -6 -64 -7l-5 81q65 2 91.5 22t26.5 55q0 34 -22.5 48t-51.5 14q-36 0 -65.5 -9.5t-61.5 -25.5
l-28 78q27 13 67.5 26t90.5 13q80 0 123 -40t43 -102q0 -77 -63 -120l16 -16q34 -5 71 -5q59 0 107 14v176h-70v83h268v-83h-101v-539h-97v278q-23 -6 -46 -8.5t-48 -2.5q-15 0 -36 2q10 -25 10 -53zM838 862q-25 -104 -81 -146.5t-136 -42.5q-74 0 -131 45.5t-92 143.5
l80 28q26 -71 59.5 -105t86.5 -34q56 0 83.5 36.5t44.5 103.5zM226 -50q0 26 17.5 44.5t42.5 18.5q26 0 43.5 -18.5t17.5 -44.5q0 -27 -17.5 -45t-43.5 -18q-25 0 -42.5 18t-17.5 45z" />
    <glyph glyph-name="ghanuktadeva" horiz-adv-x="607" 
d="M621 539h-100v-539h-97v159q-32 -20 -69.5 -33t-90.5 -13q-82 0 -131.5 41t-49.5 110q0 26 9 51t27 45q-37 19 -58.5 52.5t-21.5 72.5q0 31 10 54h-49v83h621v-83zM180 267q0 -37 26 -55t67 -18q53 0 90.5 23t60.5 50v272h-269q-19 -22 -19 -50q0 -33 19 -51.5t48 -24.5
q29 7 64 7q28 0 46 -2l-6 -81q-6 1 -14 1h-14q-47 0 -73 -18t-26 -53zM106 4q0 26 17.5 44.5t42.5 18.5q26 0 43.5 -18.5t17.5 -44.5q0 -27 -17.5 -45t-43.5 -18q-25 0 -42.5 18t-17.5 45z" />
    <glyph glyph-name="nganuktadeva" horiz-adv-x="661" 
d="M363 216q-29 0 -57.5 -7t-53.5 -18q-46 25 -80 64.5t-34 90.5q0 29 10 49.5t27 33.5q23 18 54.5 25.5t85.5 7.5h78v77h-393v83h676v-83h-186v-156h-185q-27 0 -38.5 -2.5t-19.5 -8.5q-14 -11 -14 -30q0 -20 11.5 -34.5t25.5 -26.5q22 8 47.5 12t53.5 4q79 0 128 -38.5
t49 -104.5q0 -68 -50.5 -111t-153.5 -43q-104 0 -184 45t-138 112l72 57q56 -64 114.5 -96.5t134.5 -32.5q55 0 81.5 18.5t26.5 50.5q0 29 -22 45.5t-66 16.5zM520 338q0 25 16.5 42t40.5 17t40 -17t16 -42t-16 -42t-40 -17t-40.5 17t-16.5 42zM260 -134q0 26 17.5 44.5
t42.5 18.5q26 0 43.5 -18.5t17.5 -44.5q0 -27 -17.5 -45t-43.5 -18q-25 0 -42.5 18t-17.5 45z" />
    <glyph glyph-name="canuktadeva" horiz-adv-x="651" 
d="M666 539h-102v-539h-96v154q-28 -17 -63 -30.5t-83 -13.5q-82 0 -132.5 42.5t-50.5 112.5q0 29 11.5 54t30.5 41l-143 -3v84h297q19 0 36 -0.5t22 -0.5l-7 -82h-30q-58 0 -89.5 -22.5t-31.5 -65.5q0 -38 26 -58t63 -20q48 0 82 20t62 50v277h-468v83h666v-83zM146 0
q0 26 17.5 44.5t42.5 18.5q26 0 43.5 -18.5t17.5 -44.5q0 -27 -17.5 -45t-43.5 -18q-25 0 -42.5 18t-17.5 45z" />
    <glyph glyph-name="chanuktadeva" horiz-adv-x="718" 
d="M308 82q76 0 137 29t97 79.5t36 114.5q0 42 -20 71.5t-59 29.5q-30 0 -43.5 -15.5t-13.5 -37.5q0 -29 24 -52t77 -36l-38 -71q-80 24 -117 65t-37 92q0 48 27.5 81.5t80.5 43.5v63h-459v83h732v-83h-177v-67q53 -15 86 -57t33 -114q0 -56 -24.5 -109.5t-72 -97t-116 -69
t-155.5 -25.5q-104 0 -156 42t-52 106q0 21 7 42t22 39q-41 20 -64 52t-23 74q0 60 46 92.5t122 32.5q18 0 44.5 -2t41.5 -7l-7 -80q-14 5 -31.5 8t-38.5 3q-80 0 -80 -56q0 -25 19 -39t49 -22q30 9 65 9q11 0 23.5 -1t19.5 -3l-7 -79q-6 1 -13.5 1h-13.5q-85 0 -85 -60
q0 -36 30 -53t84 -17zM287 -134q0 26 17.5 44.5t42.5 18.5q26 0 43.5 -18.5t17.5 -44.5q0 -27 -17.5 -45t-43.5 -18q-25 0 -42.5 18t-17.5 45z" />
    <glyph glyph-name="jhanuktadeva" horiz-adv-x="772" 
d="M272 216q-28 0 -57.5 -7t-53.5 -18q-47 25 -80.5 65t-33.5 90q0 29 10.5 49.5t27.5 33.5q23 18 52.5 25.5t84.5 7.5h86v77h-308v83h786v-83h-101v-539h-96v203q-24 -7 -48.5 -10t-55.5 -3q-15 0 -33 3q5 -19 5 -40q0 -63 -41 -100t-115 -47q56 -23 124 -44l-36 -77
q-60 28 -115 57.5t-101 59.5q-58 3 -92.5 17.5t-34.5 51.5q0 25 15 40t41 15q22 0 44 -11t50 -35q15 -2 26 -2q67 0 102.5 19t35.5 57q0 29 -22 45.5t-66 16.5zM478 272q33 0 59 4t52 12v251h-184v-156h-191q-26 0 -38 -2.5t-19 -8.5q-15 -10 -15 -30t11.5 -34.5t25.5 -26.5
q22 8 47.5 12t54.5 4q49 0 87 -15q24 -5 52 -7.5t58 -2.5zM139 -150q0 26 17.5 44.5t42.5 18.5q26 0 43.5 -18.5t17.5 -44.5q0 -27 -17.5 -45t-43.5 -18q-25 0 -42.5 18t-17.5 45z" />
    <glyph glyph-name="nyanuktadeva" horiz-adv-x="768" 
d="M198 420q32 14 64.5 20.5t60.5 6.5q69 0 117 -33.5t60 -95.5h11q22 0 40 4t34 10v207h-585v83h782v-83h-101v-539h-96v248q-37 -9 -82 -9h-4q-11 -51 -42.5 -79t-71.5 -39.5t-76 -11.5q-88 0 -158.5 53t-124.5 170l82 34q40 -90 85.5 -130.5t108.5 -40.5q52 0 80.5 23.5
t28.5 63.5q0 43 -26 61.5t-65 18.5q-26 0 -47.5 -6t-44.5 -17zM212 -19q0 26 17.5 44.5t42.5 18.5q26 0 43.5 -18.5t17.5 -44.5q0 -27 -17.5 -45t-43.5 -18q-25 0 -42.5 18t-17.5 45z" />
    <glyph glyph-name="ttanuktadeva" horiz-adv-x="515" 
d="M530 539h-146v-196h-59q-49 0 -80.5 -7.5t-52.5 -21.5q-53 -35 -53 -97q0 -45 20.5 -74t55 -43t75.5 -14q53 0 92 12t81 35l31 -85q-45 -21 -94.5 -34.5t-107.5 -13.5q-72 0 -128 26t-88.5 76t-32.5 120q0 66 34 111t89.5 68t120.5 23v115h-287v83h530v-83zM223 -134
q0 26 17.5 44.5t42.5 18.5q26 0 43.5 -18.5t17.5 -44.5q0 -27 -17.5 -45t-43.5 -18q-25 0 -42.5 18t-17.5 45z" />
    <glyph glyph-name="tthanuktadeva" horiz-adv-x="595" 
d="M609 539h-225v-122q80 -30 124 -88t44 -130q0 -71 -34 -114.5t-91 -64t-125 -20.5q-78 0 -136 25t-90.5 74t-32.5 120q0 67 34 113t89.5 69t120.5 23v115h-287v83h609v-83zM298 84q68 0 112.5 28.5t44.5 90.5q0 45 -27.5 81t-82.5 59h-26q-41 0 -71 -7t-52 -20
q-28 -16 -42.5 -41.5t-14.5 -61.5q0 -65 45 -97t114 -32zM239 -134q0 26 17.5 44.5t42.5 18.5q26 0 43.5 -18.5t17.5 -44.5q0 -27 -17.5 -45t-43.5 -18q-25 0 -42.5 18t-17.5 45z" />
    <glyph glyph-name="nnanuktadeva" horiz-adv-x="745" 
d="M659 539v-539h-97v539h-126v-220q0 -46 -9 -75.5t-28 -52.5q-23 -25 -58 -39.5t-84 -14.5q-98 0 -144 61q-18 24 -27.5 59t-9.5 93v189h-76v83h759v-83h-100zM255 220q48 0 67 30q10 15 13.5 35.5t3.5 61.5v192h-167v-192q0 -37 3.5 -58.5t13.5 -36.5q10 -16 25.5 -24
t40.5 -8zM202 -4q0 26 17.5 44.5t42.5 18.5q26 0 43.5 -18.5t17.5 -44.5q0 -27 -17.5 -45t-43.5 -18q-25 0 -42.5 18t-17.5 45z" />
    <glyph glyph-name="tanuktadeva" horiz-adv-x="586" 
d="M500 539v-539h-97v319h-104q-59 0 -88.5 -5.5t-47.5 -21.5q-23 -19 -23 -59q0 -45 35 -87.5t103 -96.5l-64 -62q-46 39 -85 79.5t-62.5 84t-23.5 92.5q0 35 13.5 63.5t34.5 46.5q29 25 71 37t112 12h129v137h-403v83h600v-83h-100zM151 -149q0 26 17.5 44.5t42.5 18.5
q26 0 43.5 -18.5t17.5 -44.5q0 -27 -17.5 -45t-43.5 -18q-25 0 -42.5 18t-17.5 45z" />
    <glyph glyph-name="thanuktadeva" horiz-adv-x="664" 
d="M578 539v-539h-97v171q-30 -20 -71 -33.5t-93 -13.5q-89 0 -149 50.5t-82 147.5q94 20 132 55.5t38 88.5q0 45 -21.5 69.5t-57.5 24.5q-24 0 -38.5 -11.5t-14.5 -31.5q0 -23 17.5 -37t58.5 -19l-14 -75q-66 9 -103.5 41.5t-37.5 89.5q0 58 39 86.5t95 28.5q46 0 85.5 -18
t64 -55t24.5 -94q0 -135 -150 -195q21 -32 48.5 -47.5t72.5 -15.5q50 0 87.5 19.5t69.5 51.5v261h-76v83h273v-83h-100zM164 12q0 26 17.5 44.5t42.5 18.5q26 0 43.5 -18.5t17.5 -44.5q0 -27 -17.5 -45t-43.5 -18q-25 0 -42.5 18t-17.5 45z" />
    <glyph glyph-name="danuktadeva" horiz-adv-x="531" 
d="M417 -61q-21 33 -39.5 69t-31.5 62q-25 -3 -56 -3q-43 0 -86.5 10.5t-80 34t-58.5 62.5t-22 97q0 43 16 75.5t42 54.5q34 29 82.5 42t105.5 13v83h-289v83h545v-83h-160v-166h-49q-58 0 -92.5 -6.5t-58.5 -20.5q-46 -28 -46 -85q0 -49 37.5 -80t116.5 -31h10.5t12.5 1
q-5 18 -5 31q0 34 22.5 49.5t50.5 15.5q46 0 70 -25.5t24 -57.5q0 -33 -14.5 -50.5t-37.5 -27.5q13 -23 29.5 -49.5t41.5 -59.5zM147 -61q0 26 17.5 44.5t42.5 18.5q26 0 43.5 -18.5t17.5 -44.5q0 -27 -17.5 -45t-43.5 -18q-25 0 -42.5 18t-17.5 45z" />
    <glyph glyph-name="dhanuktadeva" horiz-adv-x="636" 
d="M651 539h-101v-539h-97v142q-33 -19 -68.5 -31.5t-91.5 -12.5q-82 0 -131 41t-49 109q0 26 8 50t26 43q-46 20 -75.5 57t-29.5 93q0 41 19.5 73t54 50t77.5 18q59 0 95 -29t36 -75q0 -50 -41 -91l-65 42q18 18 18 40q0 16 -10 28t-33 12q-27 0 -46 -20t-19 -52
q0 -30 15 -49t38.5 -28.5t49.5 -12.5q30 8 65 8q12 0 26 -1.5t21 -2.5l-7 -79q-6 1 -14 1h-14q-47 0 -73 -18.5t-26 -52.5q0 -37 26.5 -54.5t66.5 -17.5q53 0 89 22t62 50v287h-60v83h258v-83zM180 -36q0 26 17.5 44.5t42.5 18.5q26 0 43.5 -18.5t17.5 -44.5
q0 -27 -17.5 -45t-43.5 -18q-25 0 -42.5 18t-17.5 45z" />
    <glyph glyph-name="panuktadeva" horiz-adv-x="581" 
d="M495 539v-539h-97v181q-31 -18 -64.5 -29.5t-80.5 -11.5q-41 0 -74 13.5t-54 35.5q-25 27 -37 63.5t-12 101.5v185h-76v83h596v-83h-101zM398 539h-226v-175q0 -57 6.5 -80.5t21.5 -39.5q21 -21 68 -21q39 0 73.5 19t56.5 41v256zM113 5q0 26 17.5 44.5t42.5 18.5
q26 0 43.5 -18.5t17.5 -44.5q0 -27 -17.5 -45t-43.5 -18q-25 0 -42.5 18t-17.5 45z" />
    <glyph glyph-name="banuktadeva" horiz-adv-x="585" 
d="M599 539h-100v-539h-97v152q-30 -18 -68 -30.5t-93 -12.5q-56 0 -101 20.5t-71 59.5t-26 92q0 85 60.5 132t157.5 47q26 0 59.5 -2.5t50.5 -6.5l-7 -80q-20 4 -43.5 6.5t-48.5 2.5q-16 0 -30 -2l122 -153q11 8 20 16t18 17v281h-402v83h599v-83zM139 282q0 -50 31 -72.5
t77 -22.5q30 0 58 9l-129 161q-37 -26 -37 -75zM122 0q0 26 17.5 44.5t42.5 18.5q26 0 43.5 -18.5t17.5 -44.5q0 -27 -17.5 -45t-43.5 -18q-25 0 -42.5 18t-17.5 45z" />
    <glyph glyph-name="bhanuktadeva" horiz-adv-x="724" 
d="M180 632q40 0 71.5 -10.5t54.5 -35.5q19 -20 31 -54t12 -96v-112h192v215h-122v83h319v-83h-101v-539h-96v241h-192v-30q0 -37 -15.5 -52.5t-39.5 -15.5q-20 0 -42 13t-41 33t-31 43t-12 44q0 20 13.5 34t48.5 14h24v104q0 44 -5 67t-15 37q-19 28 -59 28q-25 0 -38 -12
t-13 -31q0 -25 22 -39.5t74 -17.5l-8 -77q-76 6 -121.5 37.5t-45.5 96.5q0 60 39.5 87.5t95.5 27.5zM246 19q0 26 17.5 44.5t42.5 18.5q26 0 43.5 -18.5t17.5 -44.5q0 -27 -17.5 -45t-43.5 -18q-25 0 -42.5 18t-17.5 45z" />
    <glyph glyph-name="manuktadeva" horiz-adv-x="612" 
d="M526 539v-539h-97v241h-210v-31q0 -36 -16 -51.5t-39 -15.5q-20 0 -42 13t-41.5 33t-31.5 43t-12 44q0 20 13.5 34t50.5 14h21v215h-122v83h626v-83h-100zM429 539h-210v-215h210v215zM145 15q0 26 17.5 44.5t42.5 18.5q26 0 43.5 -18.5t17.5 -44.5q0 -27 -17.5 -45
t-43.5 -18q-25 0 -42.5 18t-17.5 45z" />
    <glyph glyph-name="lanuktadeva" horiz-adv-x="696" 
d="M0 539v83h710v-83h-101v-539h-96v344h-9q-23 0 -47 -11.5t-46.5 -42t-38.5 -88.5l-92 28q11 41 28 75q-20 16 -42 26t-49 10q-37 0 -57.5 -21t-20.5 -54q0 -34 19.5 -66t58.5 -68t97 -83l-64 -62q-62 51 -108.5 97t-72.5 91.5t-26 96.5q0 55 25 89t62.5 49.5t74.5 15.5
q45 0 82 -14t72 -40q60 54 147 54h7v113h-513zM290 -123q0 26 17.5 44.5t42.5 18.5q26 0 43.5 -18.5t17.5 -44.5q0 -27 -17.5 -45t-43.5 -18q-25 0 -42.5 18t-17.5 45z" />
    <glyph glyph-name="vanuktadeva" horiz-adv-x="570" 
d="M585 539h-101v-539h-96v153q-29 -19 -65 -31.5t-87 -12.5q-56 0 -99.5 20.5t-68.5 59.5t-25 92q0 85 58.5 132t152.5 47q23 0 54.5 -3t47.5 -7l-6 -84q-19 4 -41.5 7t-44.5 3q-59 0 -91.5 -24.5t-32.5 -69.5q0 -48 29.5 -69.5t71.5 -21.5q49 0 85 21t62 48v279h-388v83
h585v-83zM119 0q0 26 17.5 44.5t42.5 18.5q26 0 43.5 -18.5t17.5 -44.5q0 -27 -17.5 -45t-43.5 -18q-25 0 -42.5 18t-17.5 45z" />
    <glyph glyph-name="shanuktadeva" horiz-adv-x="701" 
d="M126 177q-37 0 -62 18.5t-25 53.5q0 31 19 47.5t51 16.5q19 0 40 -7.5t49 -28.5q47 17 77 58.5t30 103.5q0 55 -27.5 86.5t-70.5 31.5q-28 0 -42 -12.5t-14 -34.5q0 -14 9 -29.5t35.5 -27t77.5 -13.5l-21 -76q-96 7 -142.5 48.5t-46.5 99.5q0 52 37.5 86t108.5 34
q50 0 93.5 -21.5t70.5 -65t27 -109.5q0 -70 -34 -129t-94 -93q42 -37 80.5 -81t68.5 -85l-74 -51q-48 65 -87 110t-73 76q-30 -6 -61 -6zM614 539v-539h-96v539h-85v83h282v-83h-101zM158 -52q0 26 17.5 44.5t42.5 18.5q26 0 43.5 -18.5t17.5 -44.5q0 -27 -17.5 -45
t-43.5 -18q-25 0 -42.5 18t-17.5 45z" />
    <glyph glyph-name="ssanuktadeva" horiz-adv-x="592" 
d="M607 622v-83h-101v-539h-97v183q-33 -18 -69 -30.5t-85 -12.5q-42 0 -75 13.5t-55 35.5q-25 27 -37 63.5t-12 101.5v185h-76v83h607zM409 539h-191l191 -248v248zM199 244q21 -21 69 -21q24 0 47.5 7t43.5 18l-188 245v-129q0 -57 6 -80.5t22 -39.5zM113 5
q0 26 17.5 44.5t42.5 18.5q26 0 43.5 -18.5t17.5 -44.5q0 -27 -17.5 -45t-43.5 -18q-25 0 -42.5 18t-17.5 45z" />
    <glyph glyph-name="sanuktadeva" horiz-adv-x="694" 
d="M610 539v-539h-97v257q-28 -8 -57 -11t-65 -3q-47 0 -94 8t-78 20q-18 -10 -39 -19q41 -49 94 -102t112 -100l-63 -63q-56 49 -105 98t-86.5 92t-60.5 74q-22 30 -28 49t-6 36q0 21 15.5 40.5t53.5 19.5q25 0 44 -10.5t34 -29.5q18 20 24.5 47t6.5 55q0 24 -4 45t-9 36
h-202v83h711v-83h-101zM379 325q38 0 69.5 3.5t64.5 13.5v197h-216q6 -16 10 -37.5t4 -49.5q0 -38 -8 -67t-24 -51q23 -4 48.5 -6.5t51.5 -2.5zM51 32q0 25 17 42t40 17q24 0 40.5 -17t16.5 -42q0 -26 -16.5 -43t-40.5 -17q-23 0 -40 17t-17 43z" />
    <glyph glyph-name="hanuktadeva" horiz-adv-x="543" 
d="M325 70q34 9 55.5 25.5t21.5 44.5q0 34 -27 53t-89 19q-67 0 -101.5 -26.5t-34.5 -70.5q0 -29 11.5 -56.5t45.5 -61.5t100 -83l-64 -64q-89 70 -139 132.5t-50 138.5q0 38 15 67.5t41 50.5q-19 19 -32 45t-13 61q0 29 10.5 50t28.5 34q23 18 54.5 25.5t77.5 7.5h124v77
h-360v83h557v-83h-101v-159h-218q-30 0 -42.5 -3t-20.5 -10q-14 -11 -14 -32q0 -16 7.5 -29.5t19.5 -25.5q48 15 102 15q72 0 117 -21.5t66.5 -55.5t21.5 -73q0 -117 -140 -154zM61 -186q0 25 17 42t40 17q24 0 40.5 -17t16.5 -42q0 -26 -16.5 -43t-40.5 -17q-23 0 -40 17
t-17 43z" />
    <glyph glyph-name="kassadeva" horiz-adv-x="736" 
d="M650 539v-539h-97v319q-32 -15 -69.5 -24t-89.5 -9q-45 0 -86 9t-75 23q-45 -27 -68.5 -52.5t-23.5 -57.5q0 -20 10 -38t34.5 -30t67.5 -12h19q-5 16 -5 31q0 31 20.5 46t49.5 15q43 0 67 -26.5t24 -55.5t-12 -46t-36 -27q17 -21 36 -41.5t44 -44.5l-68 -45
q-26 29 -50 59t-40 56q-13 -2 -26.5 -2.5t-23.5 -0.5q-66 0 -112.5 21t-71.5 57.5t-25 80.5q0 53 32 88.5t83 66.5q-85 58 -85 143q0 54 42 91.5t123 37.5q69 0 115 -31t46 -91q0 -42 -20 -74.5t-61 -62.5q16 -3 33 -4.5t35 -1.5q96 0 167 49v123h-85v83h283v-83h-101z
M166 496q0 -30 19 -54t49 -40q38 24 55 47.5t17 49.5q0 23 -16 40t-53 17q-31 0 -51 -16t-20 -44z" />
    <glyph glyph-name="janyadeva" horiz-adv-x="662" 
d="M264 224q0 46 -43.5 81t-135.5 61l30 75h364v98h-479v83h677v-83h-101v-539h-97v359h-129q-33 0 -55 1t-36 3q53 -29 76.5 -65t23.5 -81q0 -49 -27 -82.5t-73 -47.5q29 -15 64.5 -29t67.5 -24l-36 -77q-52 21 -103 51.5t-93 62.5q-55 2 -90.5 16.5t-35.5 52.5
q0 26 15.5 41t40.5 15q23 0 45.5 -11t51.5 -36q37 5 57.5 25.5t20.5 49.5z" />
    <glyph glyph-name="rephdeva" 
d="M-202 615q-21 35 -35 72t-14 72q0 69 46.5 103t115.5 34q33 0 61 -6t48 -15l-22 -75q-18 8 -36 13t-38 5q-40 0 -59.5 -21.5t-19.5 -56.5q0 -31 12.5 -62t35.5 -63h-95z" />
    <glyph glyph-name="vattudeva" 
d="M-472 -161l247 147h49l148 -175l-69 -45l-114 138l-208 -138z" />
    <glyph glyph-name="kaprehalfdeva" horiz-adv-x="619" 
d="M634 539h-163v-203q21 13 47.5 21t65.5 8h61v-83h-55q-42 0 -67 -9t-52 -30v-243h-97v160q-27 -20 -62 -35.5t-83 -15.5q-49 0 -91.5 19.5t-68.5 58.5t-26 97q0 81 56.5 128.5t146.5 47.5q25 0 53 -3t44 -7l-8 -84q-15 4 -38 7t-42 3q-55 0 -85 -24t-30 -67
q0 -49 29 -71.5t65 -22.5q44 0 78 20.5t62 49.5v278h-374v83h634v-83z" />
    <glyph glyph-name="khaprehalfdeva" horiz-adv-x="658" 
d="M708 70q-42 -25 -93.5 -44.5t-125.5 -19.5q-123 0 -223.5 61.5t-185.5 169.5q-26 35 -34.5 57t-8.5 41q0 23 15.5 42t53.5 19q25 0 44 -10.5t34 -29.5q18 20 24.5 47t6.5 55q0 44 -13 81h-202v83h673v-83h-376q7 -17 10.5 -38t3.5 -49q0 -80 -35.5 -127.5t-95.5 -73.5
q63 -75 137.5 -118.5t173.5 -43.5q58 0 103 14.5t89 43.5zM683 215q-30 -22 -68 -35.5t-85 -13.5q-74 0 -121 41t-47 112q0 73 48.5 114t129.5 41q16 0 43 -3t43 -7l-7 -77q-14 4 -31.5 6.5t-35.5 2.5q-45 0 -70 -20t-25 -58t25.5 -56.5t62.5 -18.5q35 0 64 14t49 32z" />
    <glyph glyph-name="gaprehalfdeva" horiz-adv-x="289" 
d="M219 539v-307q0 -31 -14 -46.5t-39 -15.5q-21 0 -43 12.5t-41.5 32.5t-31.5 43.5t-12 45.5q0 24 13.5 40t50.5 16h21v179h-123v83h304v-83h-85z" />
    <glyph glyph-name="ghaprehalfdeva" horiz-adv-x="366" 
d="M180 267q0 -37 26 -55t67 -18q53 0 89 22t62 50l49 -70q-37 -32 -87 -57.5t-122 -25.5q-82 0 -131.5 41t-49.5 110q0 26 9 51t27 45q-37 19 -58.5 52.5t-21.5 72.5q0 31 10 54h-49v83h381v-83h-226q-19 -22 -19 -50q0 -33 19 -51.5t48 -24.5q29 7 64 7q28 0 46 -2l-6 -81
q-6 1 -14 1h-14q-47 0 -73 -18t-26 -53z" />
    <glyph glyph-name="ngaprehalfdeva" horiz-adv-x="661" 
d="M363 216q-29 0 -57.5 -7t-53.5 -18q-46 25 -80 64.5t-34 90.5q0 29 10 49.5t27 33.5q23 18 54.5 25.5t85.5 7.5h78v77h-393v83h676v-83h-186v-156h-185q-27 0 -38.5 -2.5t-19.5 -8.5q-14 -11 -14 -30q0 -20 11.5 -34.5t25.5 -26.5q22 8 47.5 12t53.5 4q79 0 128 -38.5
t49 -104.5q0 -68 -50.5 -111t-153.5 -43q-104 0 -184 45t-138 112l72 57q56 -64 114.5 -96.5t134.5 -32.5q55 0 81.5 18.5t26.5 50.5q0 29 -22 45.5t-66 16.5zM520 338q0 25 16.5 42t40.5 17t40 -17t16 -42t-16 -42t-40 -17t-40.5 17t-16.5 42zM254 -42q12 3 26.5 5t28.5 2
q68 0 119 -25.5t91.5 -67.5t75.5 -93l-67 -47q-52 77 -100 113t-114 36q-13 0 -24 -1.5t-21 -3.5z" />
    <glyph glyph-name="caprehalfdeva" horiz-adv-x="408" 
d="M0 622h422v-83h-422v83zM519 193q-31 -29 -79.5 -56t-117.5 -27q-82 0 -132.5 42.5t-50.5 112.5q0 29 11.5 54t30.5 41l-143 -3v84h297q19 0 36 -0.5t22 -0.5l-7 -82h-30q-58 0 -89.5 -22.5t-31.5 -65.5q0 -38 26 -58t63 -20q50 0 84.5 21t62.5 50z" />
    <glyph glyph-name="chaprehalfdeva" horiz-adv-x="718" 
d="M0 539v83h732v-83h-732zM308 82q76 0 137 29t97 79.5t36 114.5q0 42 -20 71.5t-59 29.5q-30 0 -43.5 -15.5t-13.5 -37.5q0 -29 24 -52t77 -36l-38 -71q-80 24 -117 65t-37 92q0 55 37.5 91.5t108.5 36.5q50 0 90 -19.5t63.5 -59t23.5 -99.5q0 -56 -24.5 -109.5t-72 -97
t-116 -69t-155.5 -25.5q-104 0 -156 42t-52 106q0 21 7 42t22 39q-41 20 -64 52t-23 74q0 60 46 92.5t122 32.5q18 0 44.5 -2t41.5 -7l-7 -80q-14 5 -31.5 8t-38.5 3q-80 0 -80 -56q0 -25 19 -39t49 -22q30 9 65 9q11 0 23.5 -1t19.5 -3l-7 -79q-6 1 -13.5 1h-13.5
q-85 0 -85 -60q0 -36 30 -53t84 -17z" />
    <glyph glyph-name="japrehalfdeva" horiz-adv-x="581" 
d="M0 622h596v-83h-596v83zM581 358h-122q-41 0 -57 2q32 -29 51.5 -66.5t19.5 -78.5q0 -47 -21 -78.5t-56 -47t-77 -15.5q-55 0 -105.5 29.5t-97 100t-88.5 192.5l83 30q45 -131 94 -199t107 -68q29 0 47.5 16t18.5 51q0 41 -29 77.5t-74 64.5l33 73h273v-83z" />
    <glyph glyph-name="jhaprehalfdeva" horiz-adv-x="501" 
d="M272 216q-28 0 -57.5 -7t-53.5 -18q-47 25 -80.5 65t-33.5 90q0 29 10.5 49.5t27.5 33.5q23 18 52.5 25.5t84.5 7.5h86v77h-308v83h516v-83h-111v-156h-191q-26 0 -38 -2.5t-19 -8.5q-15 -10 -15 -30t11.5 -34.5t25.5 -26.5q22 8 47.5 12t54.5 4q49 0 87 -15
q24 -5 52 -7.5t58 -2.5q39 0 65.5 5t45.5 12l15 -80q-25 -10 -51.5 -14.5t-67.5 -4.5q-15 0 -33 3q5 -19 5 -40q0 -63 -41 -100t-115 -47q56 -23 124 -44l-36 -77q-60 28 -115 57.5t-101 59.5q-58 3 -92.5 17.5t-34.5 51.5q0 25 15 40t41 15q22 0 44 -11t50 -35q15 -2 26 -2
q67 0 102.5 19t35.5 57q0 29 -22 45.5t-66 16.5z" />
    <glyph glyph-name="nyaprehalfdeva" horiz-adv-x="557" 
d="M0 622h571v-83h-571v83zM198 420q32 14 64.5 20.5t60.5 6.5q69 0 117 -33.5t60 -95.5h11q41 0 74 14v-84q-19 -4 -39 -6.5t-43 -2.5h-4q-11 -51 -42.5 -79t-71.5 -39.5t-76 -11.5q-88 0 -158.5 53t-124.5 170l82 34q40 -90 85.5 -130.5t108.5 -40.5q52 0 80.5 23.5
t28.5 63.5q0 43 -26 61.5t-65 18.5q-26 0 -47.5 -6t-44.5 -17z" />
    <glyph glyph-name="ttaprehalfdeva" horiz-adv-x="515" 
d="M530 539h-146v-196h-59q-49 0 -80.5 -7.5t-52.5 -21.5q-53 -35 -53 -97q0 -45 20.5 -74t55 -43t75.5 -14q53 0 92 12t81 35l31 -85q-45 -21 -94.5 -34.5t-107.5 -13.5q-72 0 -128 26t-88.5 76t-32.5 120q0 66 34 111t89.5 68t120.5 23v115h-287v83h530v-83zM216 -42
q12 3 26.5 5t28.5 2q68 0 119 -25.5t91.5 -67.5t75.5 -93l-67 -47q-52 77 -100 113t-114 36q-13 0 -24 -1.5t-21 -3.5z" />
    <glyph glyph-name="tthaprehalfdeva" horiz-adv-x="595" 
d="M609 539h-225v-122q80 -30 124 -88t44 -130q0 -71 -34 -114.5t-91 -64t-125 -20.5q-78 0 -136 25t-90.5 74t-32.5 120q0 67 34 113t89.5 69t120.5 23v115h-287v83h609v-83zM298 84q68 0 112.5 28.5t44.5 90.5q0 45 -27.5 81t-82.5 59h-26q-41 0 -71 -7t-52 -20
q-28 -16 -42.5 -41.5t-14.5 -61.5q0 -65 45 -97t114 -32zM216 -42q12 3 26.5 5t28.5 2q68 0 119 -25.5t91.5 -67.5t75.5 -93l-67 -47q-52 77 -100 113t-114 36q-13 0 -24 -1.5t-21 -3.5z" />
    <glyph glyph-name="ddaprehalfdeva" horiz-adv-x="589" 
d="M363 216q-29 0 -57.5 -7t-53.5 -18q-46 25 -80 65t-34 90q0 29 10 49.5t27 33.5q23 18 54.5 25.5t85.5 7.5h84v77h-399v83h604v-83h-108v-156h-191q-27 0 -38.5 -2.5t-19.5 -8.5q-14 -11 -14 -30q0 -20 11.5 -34.5t25.5 -26.5q22 8 47.5 12t53.5 4q79 0 128 -38.5
t49 -104.5q0 -67 -50.5 -110.5t-153.5 -43.5q-104 0 -184 45t-138 112l72 57q56 -64 114.5 -96.5t134.5 -32.5q55 0 81.5 18.5t26.5 50.5q0 62 -88 62zM254 -42q12 3 26.5 5t28.5 2q68 0 119 -25.5t91.5 -67.5t75.5 -93l-67 -47q-52 77 -100 113t-114 36q-13 0 -24 -1.5
t-21 -3.5z" />
    <glyph glyph-name="ddhaprehalfdeva" horiz-adv-x="575" 
d="M313 0q-81 0 -141.5 27.5t-94.5 79t-34 125.5q0 70 36 117.5t95.5 72t130.5 25.5v92h-305v83h589v-83h-188v-174h-51q-63 0 -97 -8.5t-57 -24.5q-28 -18 -42.5 -45t-14.5 -65q0 -52 28 -86t80 -48q-11 33 -11 70q0 53 38 93t116 40q51 0 84 -19t49 -49.5t16 -64.5
q0 -70 -60 -114t-166 -44zM321 142q0 -32 13 -61q54 1 85 21t31 56q0 27 -16 42.5t-41 15.5q-33 0 -52.5 -20.5t-19.5 -53.5zM221 -42q12 3 26.5 5t28.5 2q68 0 119 -25.5t91.5 -67.5t75.5 -93l-67 -47q-52 77 -100 113t-114 36q-13 0 -24 -1.5t-21 -3.5z" />
    <glyph glyph-name="nnaprehalfdeva" horiz-adv-x="479" 
d="M257 137q-98 0 -144 61q-18 24 -27.5 59t-9.5 93v189h-76v83h493v-83h-57v-220q0 -46 -9 -75.5t-28 -52.5q-23 -25 -58 -39.5t-84 -14.5zM255 220q48 0 67 30q10 15 13.5 35.5t3.5 61.5v192h-167v-192q0 -37 3.5 -58.5t13.5 -36.5q10 -16 25.5 -24t40.5 -8z" />
    <glyph glyph-name="taprehalfdeva" horiz-adv-x="353" 
d="M0 622h367v-83h-367v83zM43 243q0 35 13.5 63.5t34.5 46.5q29 25 71 37t112 12h109v-83h-84q-59 0 -88.5 -5.5t-47.5 -21.5q-23 -19 -23 -59q0 -45 35 -87.5t103 -96.5l-64 -62q-46 39 -85 79.5t-62.5 84t-23.5 92.5z" />
    <glyph glyph-name="thaprehalfdeva" horiz-adv-x="407" 
d="M186 386q-66 9 -103.5 41.5t-37.5 89.5q0 58 39 86.5t95 28.5q46 0 85.5 -18t64 -55t24.5 -94q0 -136 -150 -195q21 -32 48.5 -47.5t72.5 -15.5q50 0 88 19t69 53l47 -75q-40 -33 -90 -56.5t-121 -23.5q-89 0 -149 50.5t-82 147.5q94 20 132 55.5t38 88.5
q0 45 -21.5 69.5t-57.5 24.5q-24 0 -38.5 -11.5t-14.5 -31.5q0 -23 17.5 -37t58.5 -19z" />
    <glyph glyph-name="daprehalfdeva" horiz-adv-x="531" 
d="M417 -61q-21 33 -39.5 69t-31.5 62q-25 -3 -56 -3q-43 0 -86.5 10.5t-80 34t-58.5 62.5t-22 97q0 43 16 75.5t42 54.5q34 29 82.5 42t105.5 13v83h-289v83h545v-83h-160v-166h-49q-58 0 -92.5 -6.5t-58.5 -20.5q-46 -28 -46 -85q0 -49 37.5 -80t116.5 -31h10.5t12.5 1
q-5 18 -5 31q0 34 22.5 49.5t50.5 15.5q46 0 70 -25.5t24 -57.5q0 -33 -14.5 -50.5t-37.5 -27.5q13 -23 29.5 -49.5t41.5 -59.5zM290 -42q12 3 26.5 5t28.5 2q68 0 119 -25.5t91.5 -67.5t75.5 -93l-67 -47q-52 77 -100 113t-114 36q-13 0 -24 -1.5t-21 -3.5z" />
    <glyph glyph-name="dhaprehalfdeva" horiz-adv-x="376" 
d="M499 177q-41 -35 -88.5 -57t-117.5 -22q-82 0 -131 41t-49 109q0 26 8 50t26 43q-46 20 -75.5 57t-29.5 93q0 41 19.5 73t54 50t77.5 18q59 0 95 -29t36 -75q0 -50 -41 -91l-65 42q18 18 18 40q0 16 -10 28t-33 12q-27 0 -46 -20t-19 -52q0 -30 15 -49t38.5 -28.5
t49.5 -12.5q30 8 65 8q12 0 26 -1.5t21 -2.5l-7 -79q-6 1 -14 1h-14q-47 0 -73 -18.5t-26 -52.5q0 -37 26.5 -54.5t66.5 -17.5q52 0 89 22t62 50z" />
    <glyph glyph-name="naprehalfdeva" horiz-adv-x="367" 
d="M0 622h382v-83h-382v83zM216 288v-45q0 -31 -15 -46.5t-40 -15.5q-20 0 -42 12.5t-41 33t-31 44t-12 44.5q0 24 13.5 40t50.5 16h292v-83h-175z" />
    <glyph glyph-name="paprehalfdeva" horiz-adv-x="319" 
d="M172 539v-175q0 -57 6.5 -80.5t21.5 -39.5q21 -21 68 -21q40 0 74.5 19.5t57.5 42.5l45 -75q-40 -28 -83.5 -49t-108.5 -21q-41 0 -74 13.5t-54 35.5q-25 27 -37 63.5t-12 101.5v185h-76v83h333v-83h-161z" />
    <glyph glyph-name="phaprehalfdeva" horiz-adv-x="625" 
d="M639 539h-163v-200q22 12 48 19t66 7h61v-83h-56q-43 0 -67.5 -7t-51.5 -28v-247h-97v182q-24 -18 -56 -30t-74 -12q-41 0 -74 14.5t-52 36.5q-25 29 -36 65t-11 95v188h-76v83h639v-83zM172 539v-181q0 -52 6 -75t21 -39q18 -21 58 -21q39 0 68.5 15.5t53.5 39.5v261
h-207z" />
    <glyph glyph-name="baprehalfdeva" horiz-adv-x="402" 
d="M0 622h417v-83h-417v83zM444 183q-38 -31 -87 -52.5t-116 -21.5q-56 0 -101 20.5t-71 59.5t-26 92q0 85 60.5 132t157.5 47q26 0 59.5 -2.5t50.5 -6.5l-7 -80q-20 4 -43.5 6.5t-48.5 2.5q-16 0 -30 -2l122 -153q11 8 20.5 16t17.5 17zM139 282q0 -50 31 -72.5t77 -22.5
q30 0 58 9l-129 161q-37 -26 -37 -75z" />
    <glyph glyph-name="bhaprehalfdeva" horiz-adv-x="467" 
d="M349 241v-30q0 -37 -15.5 -52.5t-39.5 -15.5q-20 0 -42 13t-41 33t-31 43t-12 44q0 20 13.5 34t48.5 14h24v104q0 44 -5 67t-15 37q-19 28 -59 28q-25 0 -38 -12t-13 -31q0 -25 22 -39.5t74 -17.5l-8 -77q-76 6 -121.5 37.5t-45.5 96.5q0 60 39.5 87.5t95.5 27.5
q40 0 71.5 -10.5t54.5 -35.5q19 -20 31 -54t12 -96v-112h192v-83h-192zM419 622h63v-83h-63v83z" />
    <glyph glyph-name="maprehalfdeva" horiz-adv-x="367" 
d="M219 324h210v-83h-210v-31q0 -36 -16 -51.5t-39 -15.5q-20 0 -42 13t-41.5 33t-31.5 43t-12 44q0 20 13.5 34t50.5 14h21v215h-122v83h381v-83h-162v-215z" />
    <glyph glyph-name="yaprehalfdeva" horiz-adv-x="340" 
d="M461 204q-43 -34 -90 -57t-114 -23q-94 0 -150 63t-72 164q61 12 90.5 35.5t29.5 66.5q0 25 -10 46.5t-22 39.5h-123v83h355v-83h-132q13 -24 20.5 -49.5t7.5 -52.5q0 -104 -109 -140q19 -44 47.5 -67t75.5 -23t84.5 20.5t64.5 51.5z" />
    <glyph glyph-name="raprehalfdeva" horiz-adv-x="403" 
d="M0 539v83h418v-83h-418zM447 272q-35 -20 -75 -27.5t-83 -7.5q-65 0 -128 17t-136 55l35 78q56 -30 106 -47.5t105 -17.5q54 0 89.5 8t74.5 28z" />
    <glyph glyph-name="laprehalfdeva" horiz-adv-x="513" 
d="M0 622h528v-83h-528v83zM542 338q-16 6 -38 6q-23 0 -47 -11.5t-46.5 -42t-38.5 -88.5l-92 28q11 41 28 75q-20 16 -42 26t-49 10q-37 0 -57.5 -21t-20.5 -54q0 -34 19.5 -66t58.5 -68t97 -83l-64 -62q-62 51 -108.5 97t-72.5 91.5t-26 96.5q0 55 25 89t62.5 49.5
t74.5 15.5q45 0 82 -14t72 -40q60 54 147 54q15 0 31 -2t27 -7z" />
    <glyph glyph-name="llaprehalfdeva" horiz-adv-x="734" 
d="M0 622h749v-83h-749v83zM730 247q0 -86 -49 -139.5t-131 -53.5q-54 0 -95 20.5t-79 54.5q-32 -44 -70.5 -59.5t-84.5 -15.5q-49 0 -89.5 22.5t-64.5 66t-24 107.5q0 88 50.5 140t130.5 52q53 0 93.5 -20t78.5 -54q33 46 71.5 60t83.5 14q50 0 90.5 -22.5t64.5 -66
t24 -106.5zM417 205q-2 -4 -3 -7q30 -29 58.5 -44.5t61.5 -15.5q38 0 68.5 26t30.5 87q0 59 -25.5 83.5t-58.5 24.5q-37 0 -62.5 -25.5t-49.5 -83.5zM139 246q0 -59 26 -83.5t58 -24.5q38 0 63.5 25t49.5 84l19 45l3 6q-30 30 -58.5 45.5t-60.5 15.5q-38 0 -69 -26.5
t-31 -86.5z" />
    <glyph glyph-name="vaprehalfdeva" horiz-adv-x="392" 
d="M0 622h406v-83h-406v83zM430 183q-38 -31 -86.5 -52.5t-107.5 -21.5q-56 0 -99.5 20.5t-68.5 59.5t-25 92q0 85 58.5 132t152.5 47q23 0 54.5 -3t47.5 -7l-6 -84q-19 4 -41.5 7t-44.5 3q-59 0 -91.5 -24.5t-32.5 -69.5q0 -48 29.5 -69.5t71.5 -21.5q49 0 85 21t62 48z
" />
    <glyph glyph-name="shaprehalfdeva" horiz-adv-x="421" 
d="M126 177q-37 0 -62 18.5t-25 53.5q0 31 19 47.5t51 16.5q19 0 40 -7.5t49 -28.5q47 17 77 58.5t30 103.5q0 55 -27.5 86.5t-70.5 31.5q-28 0 -42 -12.5t-14 -34.5q0 -14 9 -29.5t35.5 -27t77.5 -13.5l-21 -76q-96 7 -142.5 48.5t-46.5 99.5q0 52 37.5 86t108.5 34
q50 0 93.5 -21.5t70.5 -65t27 -109.5q0 -70 -34 -129t-94 -93q42 -37 80.5 -81t68.5 -85l-74 -51q-48 65 -87 110t-73 76q-30 -6 -61 -6z" />
    <glyph glyph-name="ssaprehalfdeva" horiz-adv-x="383" 
d="M410 290l39 -82q-41 -27 -85 -47.5t-109 -20.5q-42 0 -75 13.5t-55 35.5q-25 27 -37 63.5t-12 101.5v185h-76v83h398v-83h-180zM268 223q25 0 48 7t43 18l-188 246v-130q0 -57 6 -80.5t22 -39.5q21 -21 69 -21z" />
    <glyph glyph-name="saprehalfdeva" horiz-adv-x="421" 
d="M379 325q59 0 111 11l8 -84q-26 -5 -52.5 -7t-54.5 -2q-47 0 -94 8t-78 20q-18 -10 -39 -19q41 -49 94 -102t112 -100l-63 -63q-56 49 -105 98t-86.5 92t-60.5 74q-22 30 -28 49t-6 36q0 21 15.5 40.5t53.5 19.5q25 0 44 -10.5t34 -29.5q18 20 24.5 47t6.5 55q0 24 -4 45
t-9 36h-202v83h435v-83h-138q6 -16 10 -37.5t4 -49.5q0 -38 -8 -67t-24 -51q23 -4 48.5 -6.5t51.5 -2.5z" />
    <glyph glyph-name="haprehalfdeva" horiz-adv-x="451" 
d="M495 212h-183q-53 0 -81.5 -7t-45.5 -19q-35 -26 -35 -72q0 -29 11.5 -56t45.5 -61t100 -83l-64 -64q-89 70 -139 132t-50 139q0 38 15.5 67t41.5 51q-19 19 -32.5 45t-13.5 61q0 29 10.5 50t28.5 34q23 18 54.5 25.5t77.5 7.5h60v77h-296v83h466v-83h-74v-159h-154
q-30 0 -42.5 -3t-20.5 -10q-14 -11 -14 -32q0 -16 7.5 -30t20.5 -26q25 8 60 11.5t89 3.5h157v-82z" />
    <glyph glyph-name="zhaprehalfdeva" horiz-adv-x="581" 
d="M0 622h596v-83h-596v83zM319 114q-55 0 -105.5 28t-97 94t-88.5 180l83 30q45 -122 94 -184.5t107 -62.5q29 0 47.5 14t18.5 46q0 37 -29 70t-74 59l33 73h273v-83h-122q-37 0 -55 2q31 -28 50 -62.5t19 -71.5q0 -44 -21 -73.5t-56 -44t-77 -14.5zM221 -10q-22 0 -37 17
t-15 39t15 38.5t37 16.5t37.5 -16.5t15.5 -38.5t-15.5 -39t-37.5 -17zM407 -10q-22 0 -37.5 17t-15.5 39t15.5 38.5t37.5 16.5t37 -16.5t15 -38.5t-15 -39t-37 -17zM314 -103q-22 0 -37.5 16t-15.5 39t15.5 39t37.5 16t37.5 -16t15.5 -39t-15.5 -39t-37.5 -16z" />
    <glyph glyph-name="heavyyaprehalfdeva" horiz-adv-x="340" 
d="M259 124q-95 0 -151.5 63t-72.5 164q61 12 90.5 35.5t29.5 66.5q0 25 -9.5 47t-22.5 39h-123v83h355v-83h-135q8 -16 13 -29l187 -238l12 -94q-34 -22 -77 -38t-96 -16zM282 338q-21 26 -42 56q-17 -69 -98 -97q19 -45 48 -67.5t77 -22.5q30 0 54.5 7.5t44.5 19.5z" />
    <glyph glyph-name="kassaprehalfdeva" horiz-adv-x="479" 
d="M527 308q-25 -10 -57 -16t-76 -6q-45 0 -86 9t-75 23q-45 -27 -68.5 -52.5t-23.5 -57.5q0 -20 10 -38t34.5 -30t67.5 -12h19q-5 16 -5 31q0 31 20.5 46t49.5 15q43 0 67 -26.5t24 -55.5t-12 -46t-36 -27q17 -21 36 -41.5t44 -44.5l-68 -45q-26 29 -50 59t-40 56
q-13 -2 -26.5 -2.5t-23.5 -0.5q-66 0 -112.5 21t-71.5 57.5t-25 80.5q0 53 32 88.5t83 66.5q-85 58 -85 143q0 54 42 91.5t123 37.5q69 0 115 -31t46 -91q0 -42 -20 -74.5t-61 -62.5q17 -3 34.5 -4.5t33.5 -1.5q67 0 119 23zM166 496q0 -30 19 -54t49 -40q38 24 55 47.5
t17 49.5q0 23 -16 40t-53 17q-31 0 -51 -16t-20 -44z" />
    <glyph glyph-name="janyaprehalfdeva" horiz-adv-x="437" 
d="M0 622h452v-83h-452v83zM264 224q0 46 -43.5 81t-135.5 61l30 75h354v-82h-119q-33 0 -55 1t-36 3q53 -29 76.5 -65t23.5 -81q0 -49 -27 -82.5t-73 -47.5q29 -15 64.5 -29t67.5 -24l-36 -77q-52 21 -103 51.5t-93 62.5q-55 2 -90.5 16.5t-35.5 52.5q0 26 15.5 41t40.5 15
q23 0 45.5 -11t51.5 -36q37 5 57.5 25.5t20.5 49.5z" />
    <glyph glyph-name="kanuktaprehalfdeva" horiz-adv-x="619" 
d="M634 539h-163v-203q21 13 47.5 21t65.5 8h61v-83h-55q-42 0 -67 -9t-52 -30v-243h-97v160q-27 -20 -62 -35.5t-83 -15.5q-49 0 -91.5 19.5t-68.5 58.5t-26 97q0 81 56.5 128.5t146.5 47.5q25 0 53 -3t44 -7l-8 -84q-15 4 -38 7t-42 3q-55 0 -85 -24t-30 -67
q0 -49 29 -71.5t65 -22.5q44 0 78 20.5t62 49.5v278h-374v83h634v-83zM89 0q0 26 17.5 44.5t42.5 18.5q26 0 43.5 -18.5t17.5 -44.5q0 -27 -17.5 -45t-43.5 -18q-25 0 -42.5 18t-17.5 45z" />
    <glyph glyph-name="khanuktaprehalfdeva" horiz-adv-x="658" 
d="M708 70q-42 -25 -93.5 -44.5t-125.5 -19.5q-123 0 -223.5 61.5t-185.5 169.5q-26 35 -34.5 57t-8.5 41q0 23 15.5 42t53.5 19q25 0 44 -10.5t34 -29.5q18 20 24.5 47t6.5 55q0 44 -13 81h-202v83h673v-83h-376q7 -17 10.5 -38t3.5 -49q0 -80 -35.5 -127.5t-95.5 -73.5
q63 -75 137.5 -118.5t173.5 -43.5q58 0 103 14.5t89 43.5zM683 215q-30 -22 -68 -35.5t-85 -13.5q-74 0 -121 41t-47 112q0 73 48.5 114t129.5 41q16 0 43 -3t43 -7l-7 -77q-14 4 -31.5 6.5t-35.5 2.5q-45 0 -70 -20t-25 -58t25.5 -56.5t62.5 -18.5q35 0 64 14t49 32zM69 12
q0 26 17.5 44.5t42.5 18.5q26 0 43.5 -18.5t17.5 -44.5q0 -27 -17.5 -45t-43.5 -18q-25 0 -42.5 18t-17.5 45z" />
    <glyph glyph-name="ganuktaprehalfdeva" horiz-adv-x="289" 
d="M219 539v-307q0 -31 -14 -46.5t-39 -15.5q-21 0 -43 12.5t-41.5 32.5t-31.5 43.5t-12 45.5q0 24 13.5 40t50.5 16h21v179h-123v83h304v-83h-85zM100 24q0 26 17.5 44.5t42.5 18.5q26 0 43.5 -18.5t17.5 -44.5q0 -27 -17.5 -45t-43.5 -18q-25 0 -42.5 18t-17.5 45z" />
    <glyph glyph-name="ghanuktaprehalfdeva" horiz-adv-x="366" 
d="M180 267q0 -37 26 -55t67 -18q53 0 89 22t62 50l49 -70q-37 -32 -87 -57.5t-122 -25.5q-82 0 -131.5 41t-49.5 110q0 26 9 51t27 45q-37 19 -58.5 52.5t-21.5 72.5q0 31 10 54h-49v83h381v-83h-226q-19 -22 -19 -50q0 -33 19 -51.5t48 -24.5q29 7 64 7q28 0 46 -2l-6 -81
q-6 1 -14 1h-14q-47 0 -73 -18t-26 -53zM106 4q0 26 17.5 44.5t42.5 18.5q26 0 43.5 -18.5t17.5 -44.5q0 -27 -17.5 -45t-43.5 -18q-25 0 -42.5 18t-17.5 45z" />
    <glyph glyph-name="nganuktaprehalfdeva" horiz-adv-x="661" 
d="M363 216q-29 0 -57.5 -7t-53.5 -18q-46 25 -80 64.5t-34 90.5q0 29 10 49.5t27 33.5q23 18 54.5 25.5t85.5 7.5h78v77h-393v83h676v-83h-186v-156h-185q-27 0 -38.5 -2.5t-19.5 -8.5q-14 -11 -14 -30q0 -20 11.5 -34.5t25.5 -26.5q22 8 47.5 12t53.5 4q79 0 128 -38.5
t49 -104.5q0 -68 -50.5 -111t-153.5 -43q-104 0 -184 45t-138 112l72 57q56 -64 114.5 -96.5t134.5 -32.5q55 0 81.5 18.5t26.5 50.5q0 29 -22 45.5t-66 16.5zM520 338q0 25 16.5 42t40.5 17t40 -17t16 -42t-16 -42t-40 -17t-40.5 17t-16.5 42zM262 -42q12 3 26.5 5t27.5 2
q69 0 120 -25.5t91 -67.5t75 -93l-67 -47q-52 77 -100 113t-113 36q-13 0 -24.5 -1.5t-21.5 -3.5zM102 -145q0 26 17.5 44.5t42.5 18.5t43 -18.5t18 -44.5t-18 -44.5t-43 -18.5t-42.5 18.5t-17.5 44.5z" />
    <glyph glyph-name="canuktaprehalfdeva" horiz-adv-x="408" 
d="M0 622h422v-83h-422v83zM519 193q-31 -29 -79.5 -56t-117.5 -27q-82 0 -132.5 42.5t-50.5 112.5q0 29 11.5 54t30.5 41l-143 -3v84h297q19 0 36 -0.5t22 -0.5l-7 -82h-30q-58 0 -89.5 -22.5t-31.5 -65.5q0 -38 26 -58t63 -20q50 0 84.5 21t62.5 50zM146 0q0 26 17.5 44.5
t42.5 18.5q26 0 43.5 -18.5t17.5 -44.5q0 -27 -17.5 -45t-43.5 -18q-25 0 -42.5 18t-17.5 45z" />
    <glyph glyph-name="chanuktaprehalfdeva" horiz-adv-x="718" 
d="M0 539v83h732v-83h-732zM308 82q76 0 137 29t97 79.5t36 114.5q0 42 -20 71.5t-59 29.5q-30 0 -43.5 -15.5t-13.5 -37.5q0 -29 24 -52t77 -36l-38 -71q-80 24 -117 65t-37 92q0 55 37.5 91.5t108.5 36.5q50 0 90 -19.5t63.5 -59t23.5 -99.5q0 -56 -24.5 -109.5t-72 -97
t-116 -69t-155.5 -25.5q-104 0 -156 42t-52 106q0 21 7 42t22 39q-41 20 -64 52t-23 74q0 60 46 92.5t122 32.5q18 0 44.5 -2t41.5 -7l-7 -80q-14 5 -31.5 8t-38.5 3q-80 0 -80 -56q0 -25 19 -39t49 -22q30 9 65 9q11 0 23.5 -1t19.5 -3l-7 -79q-6 1 -13.5 1h-13.5
q-85 0 -85 -60q0 -36 30 -53t84 -17zM287 -134q0 26 17.5 44.5t42.5 18.5q26 0 43.5 -18.5t17.5 -44.5q0 -27 -17.5 -45t-43.5 -18q-25 0 -42.5 18t-17.5 45z" />
    <glyph glyph-name="januktaprehalfdeva" horiz-adv-x="581" 
d="M0 622h596v-83h-596v83zM581 358h-122q-41 0 -57 2q32 -29 51.5 -66.5t19.5 -78.5q0 -47 -21 -78.5t-56 -47t-77 -15.5q-55 0 -105.5 29.5t-97 100t-88.5 192.5l83 30q45 -131 94 -199t107 -68q29 0 47.5 16t18.5 51q0 41 -29 77.5t-74 64.5l33 73h273v-83zM225 -61
q0 26 17.5 44.5t42.5 18.5q26 0 43.5 -18.5t17.5 -44.5q0 -27 -17.5 -45t-43.5 -18q-25 0 -42.5 18t-17.5 45z" />
    <glyph glyph-name="jhanuktaprehalfdeva" horiz-adv-x="501" 
d="M272 216q-28 0 -57.5 -7t-53.5 -18q-47 25 -80.5 65t-33.5 90q0 29 10.5 49.5t27.5 33.5q23 18 52.5 25.5t84.5 7.5h86v77h-308v83h516v-83h-111v-156h-191q-26 0 -38 -2.5t-19 -8.5q-15 -10 -15 -30t11.5 -34.5t25.5 -26.5q22 8 47.5 12t54.5 4q49 0 87 -15
q24 -5 52 -7.5t58 -2.5q39 0 65.5 5t45.5 12l15 -80q-25 -10 -51.5 -14.5t-67.5 -4.5q-15 0 -33 3q5 -19 5 -40q0 -63 -41 -100t-115 -47q56 -23 124 -44l-36 -77q-60 28 -115 57.5t-101 59.5q-58 3 -92.5 17.5t-34.5 51.5q0 25 15 40t41 15q22 0 44 -11t50 -35q15 -2 26 -2
q67 0 102.5 19t35.5 57q0 29 -22 45.5t-66 16.5zM139 -150q0 26 17.5 44.5t42.5 18.5q26 0 43.5 -18.5t17.5 -44.5q0 -27 -17.5 -45t-43.5 -18q-25 0 -42.5 18t-17.5 45z" />
    </font>
</defs>
</svg>
