<svg id="Layer_1" data-name="Layer 1" xmlns="http://www.w3.org/2000/svg" viewBox="0 0 36 36"><defs><style>.cls-1{fill:#506b87;}.cls-2{fill:#fff;}</style></defs><title>mail_1</title><rect class="cls-1" width="36" height="36" rx="18"/><rect class="cls-2" x="6.76" y="9.68" width="22.52" height="16.48"/><path class="cls-1" d="M30,11A2.11,2.11,0,0,0,27.9,8.85H8.1A2.11,2.11,0,0,0,6,11V25A2.11,2.11,0,0,0,8.1,27.15H27.9A2.11,2.11,0,0,0,30,25Zm-22.62.29L14.17,18,7.39,24.75ZM18,19.82,8.4,10.26H27.61ZM15.17,19l2.38,2.36a.7.7,0,0,0,1,0L20.86,19l6.75,6.74H8.39Zm6.69-1,6.75-6.75v13.5Z"/></svg>