<svg id="Layer_1" data-name="Layer 1" xmlns="http://www.w3.org/2000/svg" viewBox="0 0 28 28"><defs><style>.cls-1{fill:#4f6b86;}.cls-2{fill:#fff;}</style></defs><title>insta</title><path class="cls-1" d="M14,0A14,14,0,1,1,0,14,14,14,0,0,1,14,0"/><path class="cls-2" d="M22.75,9.43a6.75,6.75,0,0,1-2,.52,3.27,3.27,0,0,0,1.5-1.83,6.77,6.77,0,0,1-2.16.8,3.49,3.49,0,0,0-2.5-1,3.36,3.36,0,0,0-3.41,3.31,3.22,3.22,0,0,0,.09.76,9.81,9.81,0,0,1-7-3.46,3.23,3.23,0,0,0-.46,1.66,3.29,3.29,0,0,0,1.52,2.76,3.51,3.51,0,0,1-1.55-.42v0a3.34,3.34,0,0,0,2.74,3.25A3.44,3.44,0,0,1,8,15.84a3.41,3.41,0,0,0,3.19,2.3,7,7,0,0,1-4.24,1.41,7.38,7.38,0,0,1-.82,0A9.89,9.89,0,0,0,11.35,21a9.5,9.5,0,0,0,9.71-9.43v-.42a6.78,6.78,0,0,0,1.7-1.72"/></svg>