<svg id="Layer_1" data-name="Layer 1" xmlns="http://www.w3.org/2000/svg" viewBox="0 0 289 70"><defs><style>.cls-1{fill:#e3a14e;}.cls-2{fill:#bd5454;}.cls-3{fill:#4f6b87;}.cls-4{fill:#8e985b;}</style></defs><title>Logo</title><path class="cls-1" d="M128.51,44.35h17V29.55C145.52,20.31,149,17,156,17a25.24,25.24,0,0,1,3.52.49V.52A18.69,18.69,0,0,0,157.3.27c-6.63,0-10.8,3.19-13.17,9.9H144V1.5H128.51Z"/><path class="cls-2" d="M205.08,44.35v-.82c-2.2-1.78-2.28-3-2.28-5.46V18C202.8,7.8,201.57.27,181.28.27c-16.93,0-23.39,5.32-23.39,14.39h16.36c.41-3.68,3.6-4.17,6-4.17,1.8,0,5.56.41,5.56,3.53,0,8-30.5-.83-30.5,18.65,0,8.9,7.19,12.91,15.29,12.91,6.38,0,11.29-1.31,16.11-5.81l.82,4.58Zm-26.82-8.42c-3.35,0-5.4-1.46-5.4-3.59,0-5.54,7.36-4.24,12.92-6.93C186.19,31.28,184.23,35.93,178.26,35.93Z"/><path class="cls-2" d="M265.11,12.46c5.4,0,7.2,4.49,7.2,9.24,0,4.58-2,9.08-7.2,8.83-4.58-.08-6.71-4.09-6.71-8.34,0-5.56,1.56-9.82,6.71-9.73M243.6,46.56c.82,6.3,7.2,12.35,22.33,12.35,21.1,0,22.57-10.06,22.57-22.9V1.5h-15V7.14a16.27,16.27,0,0,0-13-6.87C246.46.27,241.39,11.48,241.39,22c0,10.95,6.79,20.28,18.65,20.28,6.13,0,9.81-2.21,12.27-4.66v3.51c0,6.14-2,8.34-6.88,8.34a5.43,5.43,0,0,1-3.67-1.06,2.79,2.79,0,0,1-1.07-1.88Z"/><path class="cls-3" d="M201.18,44.35h17V22.52c0-5.48,1.39-8.84,6.63-8.84,4.82,0,6,3.76,6,8V44.35h17V18.67c0-11.77-5.32-18.4-16.6-18.4-6.47,0-10.64,2.78-14.48,7.93V1.5H201.18Z"/><path class="cls-2" d="M.5,55.17C1.4,66.71,12.2,69.73,22,69.73c15.7,0,23.06-6.05,23.06-15,0-16-27.07-12-27.07-18,0-2.14,1.88-3,4.83-3a5.36,5.36,0,0,1,3.43,1.07,4.49,4.49,0,0,1,1.64,3.11H43.36c-1-11.37-11.95-13.5-21.27-13.5-8.91,0-20.28,3.19-20.28,14.15,0,16.62,26.25,11.15,26.25,18,0,3-2.78,3.83-5.4,3.83a6.93,6.93,0,0,1-4.17-1.3,4.8,4.8,0,0,1-1.8-3.94Z"/><path class="cls-3" d="M88.67,68.5v-.82c-2.21-1.78-2.29-3-2.29-5.46v-20c0-10.25-1.23-17.78-21.51-17.78-16.36,0-23,5-23.37,13.5H58c.79-2.87,3.63-3.28,5.79-3.28,1.8,0,5.57.41,5.57,3.54,0,8-30.51-.84-30.51,18.64,0,8.9,7.2,12.91,15.29,12.91,6.38,0,11.29-1.31,16.12-5.81l.81,4.58ZM61.84,60.08c-3.35,0-5.4-1.46-5.4-3.59,0-5.54,7.36-4.23,12.93-6.93C69.78,55.43,67.81,60.08,61.84,60.08Z"/><path class="cls-4" d="M102.35,1.5h-17v67h15.3v-6h.16c2.13,4.09,6,7.28,13.17,7.28,14,0,19.38-10.22,19.38-22.9,0-12.92-7.69-22.41-18.64-22.41A15.07,15.07,0,0,0,102.35,30Zm6.78,56c-5.56,0-7.19-5.81-7.19-10.38s2-9.49,7.19-9.49c5.48,0,7.2,5.23,7.2,9.81S114.7,57.46,109.13,57.46Z"/></svg>