<svg id="Layer_1" data-name="Layer 1" xmlns="http://www.w3.org/2000/svg" viewBox="0 0 34.62 34.62"><defs><style>.cls-1{fill:#506b87;}.cls-2{fill:#fff;}</style></defs><title>Print</title><path class="cls-1" d="M17.31,0A17.31,17.31,0,1,1,0,17.31,17.31,17.31,0,0,1,17.31,0Zm0,0"/><path class="cls-2" d="M13.19,21.94V25h8.23V19.88H13.19Zm1-1h6.17v1H14.22Zm0,2.05h6.17v1H14.22Zm0,0"/><path class="cls-2" d="M21.42,12.68V9.6H13.19v5.14h8.23Zm0,0"/><path class="cls-2" d="M23.47,12.68h-1v3.09H12.17V12.68h-1a2.22,2.22,0,0,0-2.06,2.06v5.14a2.22,2.22,0,0,0,2.06,2.06h1V18.85H22.45v3.09h1a2.22,2.22,0,0,0,2.06-2.06V14.74a2.22,2.22,0,0,0-2.06-2.06Zm0,0"/></svg>