<svg id="Layer_1" data-name="Layer 1" xmlns="http://www.w3.org/2000/svg" viewBox="0 0 27.05 27.05"><defs><style>.cls-1{fill:#4f6a88;}.cls-2{fill:#fff;}</style></defs><title>twitter</title><path class="cls-1" d="M13.52,0A13.53,13.53,0,1,1,0,13.52,13.53,13.53,0,0,1,13.52,0Zm0,0"/><path class="cls-2" d="M22,9.11a6.69,6.69,0,0,1-1.89.51,3.27,3.27,0,0,0,1.45-1.78,6.64,6.64,0,0,1-2.1.78,3.34,3.34,0,0,0-2.4-1,3.25,3.25,0,0,0-3.3,3.2,2.92,2.92,0,0,0,.09.73A9.48,9.48,0,0,1,7,8.2a3.12,3.12,0,0,0-.44,1.6,3.2,3.2,0,0,0,1.46,2.67,3.41,3.41,0,0,1-1.49-.4v0A3.22,3.22,0,0,0,9.2,15.24a3,3,0,0,1-.86.12,3.11,3.11,0,0,1-.62-.06,3.29,3.29,0,0,0,3.08,2.22,6.74,6.74,0,0,1-4.1,1.37,7,7,0,0,1-.79-.05A9.55,9.55,0,0,0,11,20.28a9.17,9.17,0,0,0,9.38-9.1v-.41A6.63,6.63,0,0,0,22,9.11Zm0,0"/></svg>