<svg id="Layer_1" data-name="Layer 1" xmlns="http://www.w3.org/2000/svg" viewBox="0 0 37.2 37.2"><defs><style>.cls-1{fill:#506b87;}.cls-2{fill:#fff;fill-rule:evenodd;}</style></defs><title>whatsapp</title><path class="cls-1" d="M18.6,0A18.6,18.6,0,1,1,0,18.6,18.6,18.6,0,0,1,18.6,0Zm0,0"/><path class="cls-2" d="M23.49,20.49c-.06-.1-.21-.15-.44-.27s-1.35-.66-1.56-.73-.37-.12-.52.11-.59.74-.72.89-.27.17-.5.06a6.48,6.48,0,0,1-1.84-1.13,7.28,7.28,0,0,1-1.28-1.57c-.13-.23,0-.35.1-.47s.23-.26.35-.39a2.14,2.14,0,0,0,.23-.38.43.43,0,0,0,0-.4c-.06-.11-.52-1.23-.71-1.69s-.38-.38-.51-.38l-.44,0a.85.85,0,0,0-.61.29,2.55,2.55,0,0,0-.8,1.89,4.43,4.43,0,0,0,.93,2.35,9.39,9.39,0,0,0,3.91,3.43c2.33.91,2.33.61,2.75.57a2.35,2.35,0,0,0,1.55-1.08,1.85,1.85,0,0,0,.13-1.08m-4.72-9.93a7.83,7.83,0,0,0-7.85,7.8,7.69,7.69,0,0,0,1.5,4.56l-1,2.9,3-1a7.81,7.81,0,1,0,4.32-14.3Zm9.34,7.8a9.3,9.3,0,0,1-9.34,9.26,9.41,9.41,0,0,1-4.51-1.15L9.09,28.11l1.68-5a9.17,9.17,0,0,1-1.34-4.78,9.34,9.34,0,0,1,18.68,0Z"/></svg>