<svg id="Layer_1" data-name="Layer 1" xmlns="http://www.w3.org/2000/svg" viewBox="0 0 27.05 27.05"><defs><style>.cls-1{fill:#4f6a88;}.cls-2{fill:#fff;}</style></defs><title>youtube</title><path class="cls-1" d="M13.52,0A13.53,13.53,0,1,1,0,13.52,13.53,13.53,0,0,1,13.52,0Zm0,0"/><path class="cls-2" d="M13.2,11a1.63,1.63,0,0,0,1-.33,1,1,0,0,0,.36-.8v-2a.89.89,0,0,0-.37-.74,1.54,1.54,0,0,0-1-.29,1.71,1.71,0,0,0-1,.27.87.87,0,0,0-.38.74V9.84a1,1,0,0,0,.37.81,1.55,1.55,0,0,0,1,.34Zm-.45-3.1a.22.22,0,0,1,.12-.19.61.61,0,0,1,.32-.08.62.62,0,0,1,.33.08.21.21,0,0,1,.13.19v2a.25.25,0,0,1-.12.22.59.59,0,0,1-.34.08.54.54,0,0,1-.33-.08.27.27,0,0,1-.11-.22ZM16,11a1,1,0,0,0,.46-.18,1.57,1.57,0,0,0,.46-.38v.46h.8V6.77H17V9.9a1.31,1.31,0,0,1-.25.22.49.49,0,0,1-.22.08.2.2,0,0,1-.16-.06.41.41,0,0,1-.05-.21V6.77h-.8v3.44a.91.91,0,0,0,.14.55A.53.53,0,0,0,16,11Zm2.32,1.7H8.7a2.72,2.72,0,0,0-2.78,2.67v2.25A2.72,2.72,0,0,0,8.7,20.28h9.65a2.73,2.73,0,0,0,2.78-2.67V15.36a2.73,2.73,0,0,0-2.78-2.67ZM10.13,15H9.28v3.53H8.45V15H7.6v-.61h2.53V15Zm2.55,3.58h-.89v-.37a1.7,1.7,0,0,1-.51.31,1.25,1.25,0,0,1-.52.11.62.62,0,0,1-.46-.15.58.58,0,0,1-.16-.45V15.22H11v2.56a.25.25,0,0,0,.05.17.25.25,0,0,0,.19.06.8.8,0,0,0,.25-.07,1.27,1.27,0,0,0,.27-.18V15.22h.89v3.34Zm3.37-.63a.63.63,0,0,1-.21.5.85.85,0,0,1-.59.17,1.56,1.56,0,0,1-.46-.06,1.28,1.28,0,0,1-.38-.21v.23h-.89V14.37h.89v1.35a1.58,1.58,0,0,1,.38-.21,1.12,1.12,0,0,1,.4-.07.94.94,0,0,1,.64.19.73.73,0,0,1,.22.58ZM19.44,17H17.8v.61a.55.55,0,0,0,.08.35.4.4,0,0,0,.29.09.42.42,0,0,0,.3-.08.5.5,0,0,0,.09-.36v-.15h.88v.16a.89.89,0,0,1-.33.75,1.58,1.58,0,0,1-1,.24,1.41,1.41,0,0,1-.91-.26.88.88,0,0,1-.33-.73V16.17a.78.78,0,0,1,.37-.68,1.52,1.52,0,0,1,.94-.26,1.46,1.46,0,0,1,.9.24.83.83,0,0,1,.32.7V17ZM9.66,11h1V8.54l1.18-3.46h-1l-.62,2.36h-.07L9.47,5.08h-1l1.2,3.57V11Zm5.12,4.93-.19,0-.18.09V18a1.06,1.06,0,0,0,.21.11l.21,0a.33.33,0,0,0,.24-.07.25.25,0,0,0,.07-.21v-1.6a.29.29,0,0,0-.09-.23.36.36,0,0,0-.27-.08Zm0,0"/><path class="cls-2" d="M18.22,15.79a.42.42,0,0,0-.3.08.46.46,0,0,0-.08.29v.32h.75v-.32a.4.4,0,0,0-.09-.29.36.36,0,0,0-.28-.08Zm0,0"/></svg>