<?xml version="1.0" encoding="utf-8"?>
<!-- Generator: Adobe Illustrator 21.1.0, SVG Export Plug-In . SVG Version: 6.00 Build 0)  -->
<svg version="1.1" id="icons" xmlns="http://www.w3.org/2000/svg" xmlns:xlink="http://www.w3.org/1999/xlink" x="0px" y="0px"
	 width="65px" height="65px" viewBox="0 0 65 65" style="enable-background:new 0 0 65 65;" xml:space="preserve">
<style type="text/css">
	.st0{fill:#B7B7B7;}
	.st1{fill:#FFFFFF;}
</style>
<title>weather</title>
<path class="st0" d="M55.4,35c0.7-3.7-0.1-7.4-2.1-10.6c-2.3-3.6-5.9-6.1-10-7c-1.3-0.3-2.6-0.5-3.9-0.5c-5.9-0.1-11.4,3-14.3,8.1
	c-1.4-0.9-3-1.3-4.6-1.3c-2.2,0-4.3,0.8-5.8,2.3c-1.3,1.2-2.1,2.9-2.3,4.6C5.9,30.9,0.7,36,0.4,42.4c-0.1,3.2,1.2,6.3,3.5,8.6
	c2.4,2.3,5.5,3.7,8.9,3.7h40.6c5.7,0.1,10.4-4.3,10.5-10C63.7,39.9,60.2,35.8,55.4,35z"/>
<rect x="38.4" y="44.1" transform="matrix(0.8447 -0.5352 0.5352 0.8447 -18.6249 29.1817)" class="st1" width="5.2" height="5.2"/>
<rect x="42.6" y="27.8" transform="matrix(0.8447 -0.5352 0.5352 0.8447 -9.232 28.8827)" class="st1" width="5.2" height="5.2"/>
<rect x="10.2" y="44.1" transform="matrix(0.8447 -0.5352 0.5352 0.8447 -22.999 14.1056)" class="st1" width="5.2" height="5.2"/>
<rect x="22.2" y="32.1" transform="matrix(0.8447 -0.5352 0.5352 0.8447 -15.153 19.3988)" class="st1" width="7.3" height="7.3"/>
</svg>
