<?xml version="1.0" encoding="utf-8"?>
<!-- Generator: Adobe Illustrator 23.0.2, SVG Export Plug-In . SVG Version: 6.00 Build 0)  -->
<svg version="1.1" xmlns="http://www.w3.org/2000/svg" xmlns:xlink="http://www.w3.org/1999/xlink" x="0px" y="0px"
	 viewBox="0 0 150 150" style="enable-background:new 0 0 150 150;" xml:space="preserve">
<style type="text/css">
	.st0{clip-path:url(#SVGID_2_);}
	.st1{fill:#25D366;}
	.st2{fill-rule:evenodd;clip-rule:evenodd;fill:#FFFFFF;}
	.st3{fill:#0077FB;}
	.st4{fill:#FFFFFF;}
	.st5{fill:#1DA1F2;}
	.st6{fill:#FF4500;}
</style>
<g id="background_1_">
</g>
<g id="WhatsApp_Logo">
	<g>
		<defs>
			<circle id="SVGID_1_" cx="-92.7" cy="74.6" r="74"/>
		</defs>
		<clipPath id="SVGID_2_">
			<use xlink:href="#SVGID_1_"  style="overflow:visible;"/>
		</clipPath>
		<g class="st0">
			<path id="background_2_" class="st1" d="M40.9,189.4h-267.1c-2.4,0-4.3-1.9-4.3-4.3V-36c0-2.4,1.9-4.3,4.3-4.3H40.9
				c2.4,0,4.3,1.9,4.3,4.3v221.2C45.2,187.5,43.3,189.4,40.9,189.4z"/>
		</g>
	</g>
	<g>
		<path class="st3" d="M149,75c0-40.9-33.1-74-74-74C34.1,1,1,34.1,1,75c0,36.9,27.1,67.6,62.5,73.1V96.4H44.6V75h18.9l0-16.3
			c0-18.5,11-28.8,27.9-28.8c8.1,0,16.5,1.6,16.5,1.6v18.1h-9.3c-9.2,0-12.1,5.8-12.1,11.6l0,13.9h20.6l-3.3,21.4H86.5v51.7
			C121.9,142.6,149,111.9,149,75"/>
		<path class="st4" d="M103.8,96.4l3.3-21.4H86.5l0-13.9c0-5.9,2.9-11.6,12.1-11.6h9.3V31.4c0,0-8.4-1.6-16.5-1.6
			c-16.9,0-27.9,10.3-27.9,28.8l0,16.3H44.6v21.4h18.9v51.7c3.7,0.6,7.6,0.9,11.5,0.9s7.8-0.3,11.5-0.9V96.4H103.8z"/>
	</g>
</g>
</svg>
