<svg xmlns="http://www.w3.org/2000/svg" width="30.372" height="30.372" viewBox="0 0 30.372 30.372"><defs><style>.a{opacity:0.8;}</style></defs><g class="a" transform="translate(-2.5 -2.5)"><path d="M42.186,29.786a1.2,1.2,0,0,0-1.662,0l-4.572,4.572-4.6-4.572a1.176,1.176,0,0,0-1.662,1.662l4.6,4.572-4.572,4.6a1.2,1.2,0,0,0,0,1.662,1.158,1.158,0,0,0,1.662,0l4.572-4.6,4.6,4.6a1.158,1.158,0,0,0,1.662,0,1.2,1.2,0,0,0,0-1.662l-4.6-4.6,4.6-4.6A1.13,1.13,0,0,0,42.186,29.786Z" transform="translate(-18.266 -18.334)"/><path d="M17.686,2.5A15.186,15.186,0,1,0,32.872,17.686,15.2,15.2,0,0,0,17.686,2.5Zm0,28.038A12.852,12.852,0,1,1,30.538,17.686,12.853,12.853,0,0,1,17.686,30.538Z"/></g></svg>