<?xml version="1.0" encoding="UTF-8" standalone="no"?>
<svg width="36px" height="605px" viewBox="0 0 36 605" version="1.1" xmlns="http://www.w3.org/2000/svg" xmlns:xlink="http://www.w3.org/1999/xlink">
    <!-- Generator: Sketch 3.8.3 (29802) - http://www.bohemiancoding.com/sketch -->
    <title>Group 2</title>
    <desc>Created with Sketch.</desc>
    <defs>
        <path d="M2.875,0 C1.294,0 0,1.26 0,2.8 L0,25.2 C0,26.74 1.294,28 2.875,28 L20.125,28 C21.706,28 23,26.74 23,25.2 L23,2.8 C23,1.26 21.706,0 20.125,0 L2.875,0 L2.875,0 L2.875,0 Z M2.875,2.8 L10.062,2.8 L10.062,14 L6.469,11.9 L2.875,14 L2.875,2.8 L2.875,2.8 L2.875,2.8 Z" id="path-1"></path>
        <path d="M1.171,0 C0.529,0 0,0.566 0,1.208 L0,24.264 C0,26.301 1.7,28 3.74,28 L30.26,28 C32.3,27.962 34,26.339 34,24.264 L34,4.529 C34,3.887 33.471,3.359 32.791,3.359 L28.938,3.359 L28.938,1.208 C28.938,0.566 28.371,0 27.691,0 L1.171,0 L1.171,0 L1.171,0 Z M2.455,24.264 L2.455,2.452 L26.52,2.452 L26.52,24.264 C26.52,24.679 26.595,25.132 26.746,25.547 L3.74,25.547 C3.022,25.547 2.455,24.981 2.455,24.264 L2.455,24.264 L2.455,24.264 Z M28.9,24.264 L28.9,5.773 L31.544,5.773 L31.544,24.264 C31.544,24.981 30.978,25.547 30.222,25.547 C29.505,25.547 28.9,24.981 28.9,24.264 L28.9,24.264 L28.9,24.264 Z M4.836,10.227 L24.065,10.227 L24.065,5.925 L4.836,5.925 L4.836,10.227 L4.836,10.227 L4.836,10.227 Z M15.3,15.773 L24.064,15.773 L24.064,13.622 L15.3,13.622 L15.3,15.773 L15.3,15.773 L15.3,15.773 Z M4.836,22.359 L12.958,22.359 L12.958,14.66 L4.836,14.66 L4.836,22.359 L4.836,22.359 L4.836,22.359 Z M15.3,21.359 L24.064,21.359 L24.064,19.208 L15.3,19.208 L15.3,21.359 L15.3,21.359 L15.3,21.359 Z" id="path-3"></path>
        <path d="M2.875,0 C1.294,0 0,1.26 0,2.8 L0,25.2 C0,26.74 1.294,28 2.875,28 L20.125,28 C21.706,28 23,26.74 23,25.2 L23,2.8 C23,1.26 21.706,0 20.125,0 L2.875,0 L2.875,0 L2.875,0 Z M2.875,2.8 L10.062,2.8 L10.062,14 L6.469,11.9 L2.875,14 L2.875,2.8 L2.875,2.8 L2.875,2.8 Z" id="path-5"></path>
        <path d="M1.171,0 C0.529,0 0,0.566 0,1.208 L0,24.264 C0,26.301 1.7,28 3.74,28 L30.26,28 C32.3,27.962 34,26.339 34,24.264 L34,4.529 C34,3.887 33.471,3.359 32.791,3.359 L28.938,3.359 L28.938,1.208 C28.938,0.566 28.371,0 27.691,0 L1.171,0 L1.171,0 L1.171,0 Z M2.455,24.264 L2.455,2.452 L26.52,2.452 L26.52,24.264 C26.52,24.679 26.595,25.132 26.746,25.547 L3.74,25.547 C3.022,25.547 2.455,24.981 2.455,24.264 L2.455,24.264 L2.455,24.264 Z M28.9,24.264 L28.9,5.773 L31.544,5.773 L31.544,24.264 C31.544,24.981 30.978,25.547 30.222,25.547 C29.505,25.547 28.9,24.981 28.9,24.264 L28.9,24.264 L28.9,24.264 Z M4.836,10.227 L24.065,10.227 L24.065,5.925 L4.836,5.925 L4.836,10.227 L4.836,10.227 L4.836,10.227 Z M15.3,15.773 L24.064,15.773 L24.064,13.622 L15.3,13.622 L15.3,15.773 L15.3,15.773 L15.3,15.773 Z M4.836,22.359 L12.958,22.359 L12.958,14.66 L4.836,14.66 L4.836,22.359 L4.836,22.359 L4.836,22.359 Z M15.3,21.359 L24.064,21.359 L24.064,19.208 L15.3,19.208 L15.3,21.359 L15.3,21.359 L15.3,21.359 Z" id="path-7"></path>
    </defs>
    <g id="Page-1" stroke="none" stroke-width="1" fill="none" fill-rule="evenodd">
        <g id="Group-2">
            <g id="1458648911_square-facebook" transform="translate(2.000000, 160.000000)">
                <g id="Layer_1">
                    <g id="Group">
                        <path d="M32,30 C32,31.104 31.104,32 30,32 L2,32 C0.896,32 0,31.104 0,30 L0,2 C0,0.896 0.896,0 2,0 L30,0 C31.104,0 32,0.896 32,2 L32,30 L32,30 Z" id="Shape" fill="#3B5998"></path>
                        <path d="M22,32 L22,20 L26,20 L27,15 L22,15 L22,13 C22,11 23.002,10 25,10 L27,10 L27,5 L23,5 C19.325,5 17,7.881 17,12 L17,15 L13,15 L13,20 L17,20 L17,32 L22,32 L22,32 Z" id="f" fill="#FFFFFF"></path>
                    </g>
                </g>
            </g>
            <g id="1458648931_square-twitter" transform="translate(2.000000, 197.000000)">
                <g id="Layer_1">
                    <g id="Group">
                        <path d="M32,30 C32,31.104 31.104,32 30,32 L2,32 C0.896,32 0,31.104 0,30 L0,2 C0,0.896 0.896,0 2,0 L30,0 C31.104,0 32,0.896 32,2 L32,30 L32,30 Z" id="Shape" fill="#55ACEE"></path>
                        <path d="M25.987,9.894 C25.251,10.216 24.462,10.431 23.63,10.529 C24.48,10.031 25.13,9.24 25.436,8.298 C24.644,8.759 23.766,9.095 22.831,9.276 C22.083,8.491 21.017,8 19.838,8 C17.572,8 15.738,9.807 15.738,12.038 C15.738,12.352 15.774,12.663 15.842,12.96 C12.435,12.788 9.413,11.181 7.39,8.739 C7.038,9.336 6.834,10.029 6.834,10.771 C6.834,12.17 7.56,13.406 8.658,14.131 C7.987,14.109 7.354,13.928 6.802,13.625 C6.801,13.642 6.801,13.659 6.801,13.677 C6.801,15.632 8.215,17.266 10.091,17.637 C9.748,17.727 9.386,17.779 9.01,17.779 C8.746,17.779 8.49,17.755 8.24,17.707 C8.76,19.311 10.274,20.478 12.068,20.512 C10.67,21.594 8.9,22.24 6.979,22.24 C6.649,22.24 6.321,22.222 6,22.184 C7.814,23.329 9.971,23.997 12.287,23.997 C19.828,23.997 23.953,17.843 23.953,12.506 C23.953,12.333 23.948,12.156 23.941,11.985 C24.741,11.414 25.438,10.703 25.987,9.894 L25.987,9.894 Z" id="Shape" fill="#FFFFFF"></path>
                    </g>
                </g>
            </g>
            <g id="1458648939_square-google-plus" transform="translate(2.000000, 234.000000)">
                <g id="Layer_1">
                    <g id="Group">
                        <path d="M32,30 C32,31.104 31.104,32 30,32 L2,32 C0.896,32 0,31.104 0,30 L0,2 C0,0.896 0.896,0 2,0 L30,0 C31.104,0 32,0.896 32,2 L32,30 L32,30 Z" id="Shape" fill="#E02F2F"></path>
                        <g transform="translate(6.000000, 6.000000)" id="Shape" fill="#FFFFFF">
                            <path d="M13,-1.77635684e-15 L6.836,-1.77635684e-15 C4.016,-1.77635684e-15 1.361,1.979 1.361,4.453 C1.361,6.981 3.283,8.947 6.152,8.947 C6.352,8.947 6.546,8.902 6.736,8.888 C6.548,9.243 6.418,9.625 6.418,10.042 C6.418,10.745 6.795,11.306 7.272,11.771 C6.914,11.771 6.563,11.776 6.182,11.776 C2.689,11.777 0,14 0,16.307 C0,18.579 2.948,20.002 6.441,20.002 C10.424,20.002 12.624,17.74 12.624,15.468 C12.624,13.647 12.086,12.555 10.425,11.377 C9.856,10.976 8.769,9.997 8.769,9.421 C8.769,8.747 8.961,8.415 9.977,7.621 C11.016,6.809 11.753,5.84 11.753,4.51 C11.753,2.929 11.073,1 9.75,1 L12,1 L13,-1.77635684e-15 L13,-1.77635684e-15 Z M10.931,15.074 C10.979,15.286 11.008,15.503 11.008,15.723 C11.008,17.559 9.823,18.994 6.428,18.994 C4.013,18.994 2.27,17.466 2.27,15.63 C2.27,13.831 4.433,12.332 6.849,12.359 C7.411,12.365 7.937,12.456 8.413,12.608 C9.724,13.521 10.664,14.036 10.931,15.074 L10.931,15.074 Z M7.063,8.225 C5.442,8.178 3.901,6.412 3.622,4.285 C3.343,2.155 4.43,0.526 6.05,0.574 C7.67,0.624 9.212,2.332 9.491,4.46 C9.771,6.588 8.684,8.273 7.063,8.225 L7.063,8.225 Z"></path>
                            <polygon points="18 7.993 18 4.993 16 4.993 16 7.993 13 7.993 13 9.993 16 9.993 16 12.993 18 12.993 18 9.993 21 9.993 21 7.993"></polygon>
                        </g>
                    </g>
                </g>
            </g>
            <g id="1458649423_whatsapp-square-social-media" transform="translate(2.000000, 272.000000)">
                <g id="soical">
                    <g id="social">
                        <g id="square-flat" fill="#57BA63">
                            <path d="M1.59783307,0 L30.4021669,0 C31.2846256,0 32,0.713232 32,1.59783307 L32,30.4021669 C32,31.2846256 31.286768,32 30.4021669,32 L1.59783307,32 C0.7153744,32 0,31.286768 0,30.4021669 L0,1.59783307 C0,0.7153744 0.713232,0 1.59783307,0 L1.59783307,0 Z" id="square-49"></path>
                        </g>
                        <g id="icon" transform="translate(6.933333, 6.933333)" fill="#FFFFFF">
                            <path d="M9.10467307,17.7178912 C7.57910987,17.7178912 6.14590347,17.3279835 4.89898667,16.6436757 L0.0820512,18.1743589 L1.65231573,13.5423344 C0.8602912,12.2412635 0.404020267,10.7155035 0.404020267,9.08458667 C0.404020267,4.316488 4.29935573,0.451282133 9.10486987,0.451282133 C13.9097931,0.451282133 17.805128,4.316488 17.805128,9.08458667 C17.805128,13.8526853 13.9099899,17.7178912 9.10467307,17.7178912 L9.10467307,17.7178912 Z M9.10467307,1.82619893 C5.07090027,1.82619893 1.789768,5.08232213 1.789768,9.08458667 C1.789768,10.6727712 2.30747893,12.1435899 3.18299893,13.3402912 L2.26927573,16.0357744 L5.08015573,15.1423344 C6.23530667,15.9006853 7.618888,16.3429744 9.10467307,16.3429744 C13.1378544,16.3429744 16.4195776,13.087048 16.4195776,9.08478347 C16.4195776,5.08251893 13.1378544,1.82619893 9.10467307,1.82619893 L9.10467307,1.82619893 L9.10467307,1.82619893 Z M13.4980267,11.0729189 C13.4444635,10.9848944 13.3022853,10.9317253 13.0894112,10.8259776 C12.8759467,10.7202299 11.8271344,10.2080331 11.6319835,10.1377312 C11.4362421,10.0672331 11.2938667,10.0315899 11.1518853,10.2434789 C11.0099035,10.455368 10.6010912,10.9317253 10.4764389,11.0729189 C10.3519835,11.2143099 10.2277253,11.2320331 10.0144576,11.126088 C9.80138667,11.0203403 9.11412533,10.7968331 8.2992576,10.0758976 C7.66536213,9.51506027 7.2372512,8.82267893 7.11299307,8.61059307 C6.9885376,8.39890027 7.09979893,8.284488 7.2065312,8.1791344 C7.30243307,8.0842176 7.41979893,7.93199573 7.5265312,7.80852533 C7.63326347,7.6848576 7.66870987,7.59683307 7.73960213,7.45544213 C7.810888,7.314248 7.77524533,7.1907776 7.72187893,7.08463573 C7.66851307,6.978888 7.24178027,5.93755893 7.06415573,5.51378027 C6.8865312,5.09039573 6.70910347,5.1608944 6.5844512,5.1608944 C6.45999573,5.1608944 6.3178176,5.1431712 6.17563893,5.1431712 C6.03346027,5.1431712 5.80227307,5.19614347 5.606728,5.40783573 C5.41138027,5.61972533 4.86058667,6.13172533 4.86058667,7.1728576 C4.86058667,8.21418667 5.6244512,9.22026667 5.73138027,9.36126347 C5.83791573,9.50226027 7.2063344,11.7085867 9.37426027,12.5559467 C11.5429744,13.4031099 11.5429744,13.1205253 11.9340635,13.0852757 C12.3245621,13.0500267 13.1953557,12.5734731 13.3735712,12.0793931 C13.5509989,11.5849189 13.5509989,11.1611403 13.4980267,11.0729189 L13.4980267,11.0729189 L13.4980267,11.0729189 Z" id="whatsapp"></path>
                        </g>
                    </g>
                </g>
            </g>
            <g id="icn_mail-square-social-media" transform="translate(2.000000, 310.000000)">
                <g id="soical">
                    <g id="social">
                        <g id="square-flat" fill="#3498DB">
                            <path d="M1.59783307,0 L30.4021669,0 C31.2846256,0 32,0.713232 32,1.59783307 L32,30.4021669 C32,31.2846256 31.286768,32 30.4021669,32 L1.59783307,32 C0.7153744,32 0,31.286768 0,30.4021669 L0,1.59783307 C0,0.7153744 0.713232,0 1.59783307,0 L1.59783307,0 Z" id="square-58"></path>
                        </g>
                        <g id="icon" transform="translate(5.866667, 9.600000)" fill="#FFFFFF">
                            <path d="M10.1333333,8.2461536 L19.3641024,0.2461536 L0.902564267,0.2461536 L10.1333333,8.2461536 L10.1333333,8.2461536 Z M7.6400944,7.36056213 L10.1333333,9.40706133 L12.5875099,7.36056213 L19.3641024,13.1692309 L0.902564267,13.1692309 L7.6400944,7.36056213 L7.6400944,7.36056213 Z M0.287179733,12.5538464 L0.287179733,0.861538667 L7.05641013,6.70769227 L0.287179733,12.5538464 L0.287179733,12.5538464 Z M19.9794869,12.5538464 L19.9794869,0.861538667 L13.2102565,6.70769227 L19.9794869,12.5538464 L19.9794869,12.5538464 Z" id="mail"></path>
                        </g>
                    </g>
                </g>
            </g>
            <g id="1458650236_menu-alt" transform="translate(4.000000, 354.000000)" fill="#000000">
                <path d="M2,4 L26,4 C27.104,4 28,3.104 28,2 C28,0.896 27.104,0 26,0 L2,0 C0.896,0 0,0.896 0,2 C0,3.104 0.896,4 2,4 L2,4 Z M26,8 L2,8 C0.896,8 0,8.896 0,10 C0,11.104 0.896,12 2,12 L26,12 C27.104,12 28,11.104 28,10 C28,8.896 27.104,8 26,8 L26,8 Z M26,16 L2,16 C0.896,16 0,16.896 0,18 C0,19.104 0.896,20 2,20 L26,20 C27.104,20 28,19.104 28,18 C28,16.896 27.104,16 26,16 L26,16 Z" id="Shape"></path>
            </g>
            <g id="1458650412_Find01" transform="translate(3.000000, 384.000000)" fill="#000000">
                <path d="M31.0821333,26.9229333 L23.7997333,19.64 C25.0370667,17.6701333 25.7552,15.3418667 25.7552,12.8432 C25.7552,5.77413333 20.0245333,0.0442666667 12.9557333,0.0442666667 C5.88693333,0.0442666667 0.1568,5.77413333 0.1568,12.8432 C0.1568,19.9125333 5.88666667,25.6418667 12.9557333,25.6418667 C15.6749333,25.6418667 18.1936,24.7917333 20.2661333,23.3472 L27.4618667,30.5434667 C27.9618667,31.0429333 28.6173333,31.2917333 29.272,31.2917333 C29.9274667,31.2917333 30.5821333,31.0429333 31.0829333,30.5434667 C32.0821333,29.5432 32.0821333,27.9229333 31.0821333,26.9229333 L31.0821333,26.9229333 Z M12.9557333,21.4952 C8.17786667,21.4952 4.30426667,17.6218667 4.30426667,12.8437333 C4.30426667,8.0656 8.17786667,4.192 12.9557333,4.192 C17.7338667,4.192 21.6072,8.0656 21.6072,12.8437333 C21.6072,17.6218667 17.7338667,21.4952 12.9557333,21.4952 L12.9557333,21.4952 Z" id="Shape"></path>
            </g>
            <g id="1458650547_icon-close-round" transform="translate(4.000000, 427.466667)" fill="#000000">
                <path d="M31.0466321,26.826943 L20.2196891,16 L31.0466321,5.17305699 C32.215544,4.00414508 32.215544,2.12227979 31.0466321,0.953367876 C29.8777202,-0.215544041 27.9958549,-0.215544041 26.826943,0.953367876 L16,11.7803109 L5.17305699,0.953367876 C4.00414508,-0.215544041 2.12227979,-0.215544041 0.953367876,0.953367876 C-0.215544041,2.12227979 -0.215544041,4.00414508 0.953367876,5.17305699 L11.7803109,16 L0.953367876,26.826943 C-0.215544041,27.9958549 -0.215544041,29.8777202 0.953367876,31.0466321 C2.12227979,32.215544 4.00414508,32.215544 5.17305699,31.0466321 L16,20.2196891 L26.826943,31.0466321 C27.9958549,32.215544 29.8777202,32.215544 31.0466321,31.0466321 C32.2072539,29.8777202 32.2072539,27.9875648 31.0466321,26.826943 L31.0466321,26.826943 Z" id="Shape"></path>
            </g>
            <g id="Fill-7-Clipped" transform="translate(6.000000, 120.000000)">
                <mask id="mask-2" fill="white">
                    <use xlink:href="#path-1"></use>
                </mask>
                <g id="path-5"></g>
                <polygon id="Fill-7" fill="#FFFFFF" mask="url(#mask-2)" points="-5 33 28 33 28 -5 -5 -5"></polygon>
            </g>
            <g id="Fill-1-Clipped" transform="translate(0.000000, 40.000000)">
                <mask id="mask-4" fill="white">
                    <use xlink:href="#path-3"></use>
                </mask>
                <g id="path-1"></g>
                <polygon id="Fill-1" fill="#FFFFFF" mask="url(#mask-4)" points="39 33 39 -5 -5 -5 -5 33"></polygon>
            </g>
            <g id="Fill-7-Clipped" transform="translate(6.000000, 80.000000)">
                <mask id="mask-6" fill="white">
                    <use xlink:href="#path-5"></use>
                </mask>
                <g id="path-5"></g>
                <polygon id="Fill-7" fill="#D0021B" mask="url(#mask-6)" points="-5 33 28 33 28 -5 -5 -5"></polygon>
            </g>
            <g id="Fill-1-Clipped">
                <mask id="mask-8" fill="white">
                    <use xlink:href="#path-7"></use>
                </mask>
                <g id="path-1"></g>
                <polygon id="Fill-1" fill="#D0021B" mask="url(#mask-8)" points="-5 33 39 33 39 -5 -5 -5"></polygon>
            </g>
            <path d="M22.435098,478.496225 L19.5,469.466667 L16.5639706,478.496225 L7,478.496225 L14.750098,484.051324 L11.7743137,493.077941 L19.5,487.478333 L27.2247549,493.077941 L24.249902,484.051324 L32,478.496225 L22.435098,478.496225 L22.435098,478.496225 Z M23.370098,484.341176 L25.4488725,490.646569 L20.0434314,486.728725 L19.5,486.334951 L18.9565686,486.728725 L13.5501471,490.64652 L15.6289706,484.341127 L15.8423529,483.695049 L15.2889706,483.298971 L9.88083333,479.422157 L16.5639706,479.422157 L17.2367157,479.422157 L17.4446569,478.782402 L19.5,472.46098 L21.5544118,478.782402 L21.7623529,479.422157 L22.435098,479.422157 L29.1182353,479.422157 L23.710049,483.29902 L23.157598,483.695098 L23.370098,484.341176 L23.370098,484.341176 Z" id="Shape" fill="#7A7A7A"></path>
            <polygon id="Shape" fill="#FF9000" points="20.5 503.077941 17.5639706 512.1075 8 512.1075 15.750098 517.662598 12.7743137 526.689216 20.5 521.089608 28.2247549 526.689216 25.249902 517.662598 33 512.1075 23.435098 512.1075"></polygon>
            <path d="M12.2926251,595.7235 L21.2946251,604.7225 C21.6896251,605.1165 22.3296251,605.1165 22.7256251,604.7225 C23.1206251,604.3285 23.1206251,603.6885 22.7256251,603.2945 L14.4376251,595.0095 L22.7246251,586.7245 C23.1196251,586.3305 23.1196251,585.6905 22.7246251,585.2955 C22.3296251,584.9015 21.6886251,584.9015 21.2936251,585.2955 L12.2916251,594.2945 C11.9026251,594.6845 11.9026251,595.3345 12.2926251,595.7235 L12.2926251,595.7235 Z" id="Chevron_left" fill="#FFFFFF" transform="translate(17.510938, 595.009000) scale(-1, 1) translate(-17.510938, -595.009000) "></path>
            <path d="M12.2926251,556.7235 L21.2946251,565.7225 C21.6896251,566.1165 22.3296251,566.1165 22.7256251,565.7225 C23.1206251,565.3285 23.1206251,564.6885 22.7256251,564.2945 L14.4376251,556.0095 L22.7246251,547.7245 C23.1196251,547.3305 23.1196251,546.6905 22.7246251,546.2955 C22.3296251,545.9015 21.6886251,545.9015 21.2936251,546.2955 L12.2916251,555.2945 C11.9026251,555.6845 11.9026251,556.3345 12.2926251,556.7235 L12.2926251,556.7235 Z" id="Chevron_Right-Copy" fill="#FFFFFF"></path>
        </g>
    </g>
</svg>