<?xml version="1.0" encoding="UTF-8"?>
<svg width="545px" height="92px" viewBox="0 0 545 92" version="1.1" xmlns="http://www.w3.org/2000/svg" xmlns:xlink="http://www.w3.org/1999/xlink">
    <!-- Generator: Sketch 61.2 (89653) - https://sketch.com -->
    <title>Group 2</title>
    <desc>Created with Sketch.</desc>
    <g id="Page-1" stroke="none" stroke-width="1" fill="none" fill-rule="evenodd">
        <g id="Group-2">
            <g id="ndtv-black" transform="translate(5.500000, 0.000000)" fill-rule="nonzero">
                <path d="M26.4928499,17.605201 L26.2305439,17.605201 C24.48106,17.605201 23.4305479,15.9183274 22.9945569,15.1624399 L18.5359059,6.49535483 C16.4384388,2.45374168 12.6785756,0.0131058284 8.48069749,0.0131058284 L0,0.0131058284 L0,24.6729617 L8.21992467,24.6729617 L8.21992467,7.08281474 L8.48069749,7.08281474 C10.3173918,7.08281474 11.4551758,8.93398347 11.714538,9.52356866 L16.2611353,18.1926019 C18.1863894,22.234097 21.9462526,24.6729617 26.2305439,24.6729617 L34.6241535,24.6729617 L34.6241535,0.0131058284 L26.4928499,0.0131058284 L26.4928499,17.605201" id="Fill-1" fill="#3B3C3B"></path>
                <path d="M54.0303243,0.0131058284 L37.1560173,0.0131058284 L37.1560173,24.6729617 L54.0303243,24.6729617 L54.0303243,18.8660761 L45.114433,18.8660761 L45.114433,5.82536362 L54.0303243,5.82536362 L54.0303243,0.0131058284 Z M127.215062,0.0131058284 L117.245347,18.3597307 L106.663564,0.0131058284 L54.0303243,0.0131058284 L54.0303243,5.82536362 L58.3131438,5.82536362 C61.3778991,5.82536362 62.8583918,7.3345411 62.8583918,9.60674933 L62.8583918,14.9959014 C62.8583918,17.5190686 61.4637601,18.8660761 58.3131438,18.8660761 L54.0303243,18.8660761 L54.0303243,24.6729617 L59.4525222,24.6729617 C67.1471602,24.6729617 70.8214076,20.3794451 70.8214076,13.3084374 L70.8214076,10.6158981 C70.8214076,9.86130939 70.8214076,7.83876127 70.2050466,5.82536362 L82.4482443,5.82536362 L82.4482443,24.6729617 L90.3149728,24.6729617 L90.3149728,5.82536362 L101.330968,5.82536362 L112.265396,24.6729617 L122.142503,24.6729617 L135.692018,0.0131058284 L127.215062,0.0131058284 Z" id="Fill-2" fill="#3B3C3B"></path>
                <path d="M40.6557208,12.385244 C40.6557208,14.9072304 38.5589284,17.0136086 35.8468175,17.0136086 C33.2240637,17.0136086 31.1266577,14.9072304 31.1266577,12.385244 C31.1266577,9.86130939 33.2240637,7.66956621 35.8468175,7.66956621 C38.5589284,7.66956621 40.6557208,9.86130939 40.6557208,12.385244" id="Fill-3" fill="#D8262C"></path>
            </g>
            <path d="M24.517345,80.2574528 C37.328322,80.2574528 46.4888594,72.4744398 47.0743073,60.662168 L34.9176543,60.662168 C34.1255778,66.4822086 30.0963188,70.1326483 24.5517831,70.1326483 C17.5952848,70.1326483 13.2560829,64.2437314 13.2560829,54.4977462 C13.2560829,44.8550753 17.6297229,38.9661584 24.517345,38.9661584 C30.0618807,38.9661584 34.2288921,42.8232268 34.8487781,48.6777056 L47.005431,48.6777056 C46.6266118,36.9343099 37.0872552,28.841354 24.517345,28.841354 C9.70895752,28.841354 0.376229614,38.3118344 0.376229614,54.5321843 C0.376229614,70.7869724 9.6400813,80.2574528 24.517345,80.2574528 Z M76.1745105,80.2574528 C91.2239647,80.2574528 100.694445,70.4081532 100.694445,54.5666224 C100.694445,38.7250917 91.2239647,28.841354 76.1745105,28.841354 C61.1250563,28.841354 51.6201378,38.7250917 51.6201378,54.5666224 C51.6201378,70.4081532 61.0906182,80.2574528 76.1745105,80.2574528 Z M76.1745105,69.9948959 C69.0802598,69.9948959 64.4999911,64.0026647 64.4999911,54.5666224 C64.4999911,45.0961421 69.1146979,39.1039109 76.1745105,39.1039109 C83.2343231,39.1039109 87.8490299,45.0961421 87.8490299,54.5666224 C87.8490299,64.0026647 83.2343231,69.9948959 76.1745105,69.9948959 Z M119.497653,79.3965 L119.497653,62.0052543 L125.93758,62.0052543 L134.478231,79.3965 L148.666733,79.3965 L138.714119,60.1455963 C144.15534,57.7693667 147.220332,52.1903928 147.220332,46.0948473 C147.220332,35.8322904 140.539339,29.7023068 128.141619,29.7023068 L106.858867,29.7023068 L106.858867,79.3965 L119.497653,79.3965 Z M126.901847,53.3612886 L119.497653,53.3612886 L119.497653,39.2416633 L126.867409,39.2416633 C131.378801,39.2416633 134.306041,42.1000265 134.306041,46.3359141 C134.306041,50.6406779 131.550992,53.3612886 126.901847,53.3612886 Z M247.538548,79.3965 L247.538548,50.2274205 L247.814052,50.2274205 L268.99349,79.3965 L278.980542,79.3965 L278.980542,29.7023068 L266.99608,29.7023068 L266.99608,58.5958813 L266.720575,58.5958813 L245.644452,29.7023068 L235.554085,29.7023068 L235.554085,79.3965 L247.538548,79.3965 Z M296.612855,79.3965 L299.781161,68.479619 L316.035949,68.479619 L319.169817,79.3965 L332.60068,79.3965 L315.898197,29.7023068 L300.435485,29.7023068 L283.733002,79.3965 L296.612855,79.3965 Z M313.556405,59.3879579 L302.226267,59.3879579 L307.770803,40.2403685 L308.046307,40.2403685 L313.556405,59.3879579 Z M366.350028,79.3965 L382.191559,29.7023068 L368.347439,29.7023068 L358.808082,67.0332184 L358.532577,67.0332184 L348.958783,29.7023068 L334.598091,29.7023068 L350.439621,79.3965 L366.350028,79.3965 Z M399.582805,79.3965 L399.582805,29.7023068 L386.944018,29.7023068 L386.944018,79.3965 L399.582805,79.3965 Z M419.729099,79.3965 L419.729099,62.0052543 L426.169026,62.0052543 L434.709677,79.3965 L448.898179,79.3965 L438.945565,60.1455963 C444.386786,57.7693667 447.451778,52.1903928 447.451778,46.0948473 C447.451778,35.8322904 440.770785,29.7023068 428.373065,29.7023068 L407.090313,29.7023068 L407.090313,79.3965 L419.729099,79.3965 Z M427.133293,53.3612886 L419.729099,53.3612886 L419.729099,39.2416633 L427.098855,39.2416633 C431.610247,39.2416633 434.537487,42.1000265 434.537487,46.3359141 C434.537487,50.6406779 431.782438,53.3612886 427.133293,53.3612886 Z M475.174457,80.2574528 C488.088748,80.2574528 496.560524,72.9221353 496.560524,61.7641875 L496.560524,29.7023068 L483.921737,29.7023068 L483.921737,60.4211012 C483.921737,66.2067037 480.787869,69.6505148 475.174457,69.6505148 C469.526607,69.6505148 466.392739,66.2067037 466.392739,60.4211012 L466.392739,29.7023068 L453.753952,29.7023068 L453.753952,61.7641875 C453.753952,72.9221353 462.225728,80.2574528 475.174457,80.2574528 Z M523.112307,80.2574528 C535.923284,80.2574528 544.085116,73.9552786 544.085116,64.0715409 C544.085116,56.2196517 539.677038,51.7771355 529.862176,49.8830394 L523.42225,48.6777056 C518.222095,47.6101241 516.018056,46.1292854 516.018056,43.4431128 C516.018056,40.4125591 518.945295,38.4151487 523.353373,38.4151487 C527.899204,38.4151487 531.239701,40.5847496 531.480767,44.2007512 L543.120849,44.2007512 C542.983096,34.8680233 535.647779,28.841354 523.215621,28.841354 C511.713292,28.841354 503.448146,35.0402139 503.448146,44.6828848 C503.448146,52.2248309 508.166167,57.1839188 517.326704,58.9402625 L523.835507,60.2144725 C529.483357,61.3853683 531.584082,62.7284546 531.584082,65.4835034 C531.584082,68.479619 528.381338,70.6836581 523.456688,70.6836581 C518.773105,70.6836581 514.950474,68.4107428 514.502779,65.0013699 L502.483879,65.0013699 C502.621631,74.6440408 510.439082,80.2574528 523.112307,80.2574528 Z" id="CORNAVIRUS" fill="#3B3C3B" fill-rule="nonzero"></path>
            <g id="Group" transform="translate(148.000000, 10.000000)" stroke="#3B3C3B" stroke-width="2.62891417">
                <path d="M8.60371909,1.31445708 C4.57797085,1.31445708 1.31445708,4.57797085 1.31445708,8.60371909 C1.31445708,12.6294673 4.57797085,15.8929811 8.60371909,15.8929811 C9.0091598,15.8929811 9.40987737,15.8600082 9.80339192,15.794937 L10.5132336,15.6775583 L21.9291669,28.3560781 L21.3524463,29.2079884 C20.0014543,31.2036239 18.9841259,33.4074316 18.3464281,35.7399869 L18.0055925,36.9866871 L9.25176065,34.7515909 L9.19705552,33.7907913 C9.12176269,32.4684047 8.02353389,31.4274739 6.69178152,31.4274739 C5.30586819,31.4274739 4.18236345,32.5509786 4.18236345,33.936892 C4.18236345,35.3228053 5.30586819,36.44631 6.69178152,36.44631 C7.39978357,36.44631 8.05768672,36.1533605 8.53051025,35.6446205 L9.05210111,35.0834087 L17.966391,37.2035489 L17.7945325,38.3924423 C17.6426837,39.4429117 17.5659265,40.5087548 17.5659265,41.5846423 C17.5659265,47.3233324 19.7600089,52.7141291 23.6298863,56.7945045 L24.4280285,57.6360608 L13.4079642,71.0685323 L12.8781116,71.128634 C10.6583288,71.3804261 8.96220739,73.2675043 8.96220739,75.5215343 C8.96220739,77.9633815 10.9417157,79.9428899 13.383563,79.9428899 C15.8254103,79.9428899 17.8049187,77.9633815 17.8049187,75.5215343 C17.8049187,75.1340789 17.755393,74.7543767 17.6586729,74.3882597 L17.4916568,73.7560496 L27.9779967,60.3820589 L28.9584715,60.9264164 C32.2089674,62.7310848 35.8696909,63.6914205 39.6727047,63.6914205 C41.2802065,63.6914205 42.8646145,63.5200637 44.40761,63.183458 L45.6553768,62.9112566 L47.9672069,72.212897 L47.3299279,72.7400955 C46.6466534,73.3053443 46.2449901,74.1402195 46.2449901,75.0435499 C46.2449901,76.6934467 47.5824958,78.0309523 49.2323926,78.0309523 C50.8822894,78.0309523 52.219795,76.6934467 52.219795,75.0435499 C52.219795,73.5119406 51.0608549,72.2321025 49.5510477,72.0728342 L48.6794276,71.9808878 L45.9516345,62.8242081 L47.1238956,62.4046224 C49.9218537,61.4031534 52.4861725,59.8433484 54.6674258,57.8288141 L55.5472095,57.0162746 L68.2070633,68.3946874 L68.2617731,68.8935444 C68.532462,71.3617503 70.6271227,73.2511084 73.1316123,73.2511084 C75.8374431,73.2511084 78.0309523,71.0575991 78.0309523,68.3517683 C78.0309523,65.6459376 75.8374431,63.4524283 73.1316123,63.4524283 C72.7494387,63.4524283 72.3739391,63.4959367 72.0096627,63.5811865 L71.3811412,63.7282763 L58.4931226,53.2403251 L59.0259528,52.278183 C60.823267,49.0327368 61.7794829,45.3795085 61.7794829,41.5846423 C61.7794829,38.3258974 61.0747516,35.1694609 59.7323938,32.2805137 L59.2525906,31.247908 L68.8677472,24.9747621 L69.5864795,25.4452888 C70.0681412,25.7606145 70.6296134,25.9306534 71.2196747,25.9306534 C72.8695715,25.9306534 74.2070772,24.5931477 74.2070772,22.9432509 C74.2070772,21.2933541 72.8695715,19.9558484 71.2196747,19.9558484 C69.5697779,19.9558484 68.2322722,21.2933541 68.2322722,22.9432509 C68.2322722,23.1863074 68.261028,23.4245291 68.3172739,23.6550256 L68.5300289,24.5268988 L59.1830946,31.0877773 L58.4487568,29.9094593 C56.6469026,27.0182057 54.1956014,24.5731095 51.2997555,22.7786794 L50.2266065,22.1136955 L54.8192856,13.9874383 L55.3685679,13.8511237 C57.3226994,13.3661695 58.7203828,11.6025979 58.7203828,9.55968788 C58.7203828,7.11784058 56.7408745,5.13833224 54.2990272,5.13833224 C51.8571799,5.13833224 49.8776715,7.11784058 49.8776715,9.55968788 C49.8776715,10.2131459 50.0186779,10.8440747 50.2873398,11.4216496 L50.5813412,12.0536996 L45.6552565,20.2748018 L44.7215808,20.0567341 C43.080087,19.6733495 41.3896437,19.4778641 39.6727047,19.4778641 C35.4171954,19.4778641 31.3428514,20.6810507 27.8305421,22.9136902 L26.8924458,23.5100018 L15.5526491,10.9171882 L15.706488,10.2504953 C15.8299932,9.71525977 15.8929811,9.16408025 15.8929811,8.60371909 C15.8929811,4.57797085 12.6294673,1.31445708 8.60371909,1.31445708 Z" id="Combined-Shape"></path>
                <circle id="Oval" cx="37.7607671" cy="30.1130168" r="3.94337125"></circle>
                <circle id="Oval-Copy-7" cx="50.1883614" cy="40.6286735" r="3.94337125"></circle>
                <circle id="Oval-Copy-8" cx="41.5846423" cy="54.0122365" r="3.94337125"></circle>
                <circle id="Oval-Copy-9" cx="28.2010792" cy="43.4965799" r="3.94337125"></circle>
            </g>
            <path d="M386.486328,20 L386.486328,14.1015625 L392.541016,14.1015625 L392.541016,12.2558594 L386.486328,12.2558594 L386.486328,7.79296875 L393.097656,7.79296875 L393.097656,5.90820312 L384.298828,5.90820312 L384.298828,20 L386.486328,20 Z M400.705078,20.234375 C404.240234,20.234375 406.408203,18.0859375 406.408203,15.0488281 L406.408203,5.90820312 L404.230469,5.90820312 L404.230469,14.8632812 C404.230469,16.875 402.951172,18.2910156 400.705078,18.2910156 C398.458984,18.2910156 397.189453,16.875 397.189453,14.8632812 L397.189453,5.90820312 L395.001953,5.90820312 L395.001953,15.0488281 C395.001953,18.0859375 397.169922,20.234375 400.705078,20.234375 Z M417.755859,20 L417.755859,18.1054688 L411.193359,18.1054688 L411.193359,5.90820312 L409.005859,5.90820312 L409.005859,20 L417.755859,20 Z M428.380859,20 L428.380859,18.1054688 L421.818359,18.1054688 L421.818359,5.90820312 L419.630859,5.90820312 L419.630859,20 L428.380859,20 Z M440.255859,20.234375 C443.498047,20.234375 445.705078,18.5253906 446.242188,15.6152344 L444.064453,15.6152344 C443.625,17.3144531 442.228516,18.3203125 440.265625,18.3203125 C437.677734,18.3203125 436.037109,16.2402344 436.037109,12.9492188 C436.037109,9.6875 437.697266,7.58789062 440.255859,7.58789062 C442.169922,7.58789062 443.673828,8.76953125 444.064453,10.5761719 L446.232422,10.5761719 C445.861328,7.63671875 443.449219,5.67382812 440.255859,5.67382812 C436.320312,5.67382812 433.800781,8.48632812 433.800781,12.9492188 C433.800781,17.4414062 436.300781,20.234375 440.255859,20.234375 Z M454.308594,20.234375 C458.361328,20.234375 460.910156,17.4414062 460.910156,12.9589844 C460.910156,8.4765625 458.361328,5.67382812 454.308594,5.67382812 C450.246094,5.67382812 447.707031,8.4765625 447.707031,12.9589844 C447.707031,17.4414062 450.246094,20.234375 454.308594,20.234375 Z M454.308594,18.3105469 C451.632812,18.3105469 449.943359,16.2402344 449.943359,12.9589844 C449.943359,9.66796875 451.632812,7.59765625 454.308594,7.59765625 C456.984375,7.59765625 458.664062,9.66796875 458.664062,12.9589844 C458.664062,16.2402344 456.984375,18.3105469 454.308594,18.3105469 Z M469.367188,20 L474.396484,5.90820312 L472.0625,5.90820312 L468.214844,17.5390625 L468.15625,17.5390625 L464.318359,5.90820312 L461.945312,5.90820312 L466.974609,20 L469.367188,20 Z M484.894531,20 L484.894531,18.1054688 L478.136719,18.1054688 L478.136719,13.7304688 L484.533203,13.7304688 L484.533203,11.9140625 L478.136719,11.9140625 L478.136719,7.79296875 L484.894531,7.79296875 L484.894531,5.90820312 L475.949219,5.90820312 L475.949219,20 L484.894531,20 Z M489.328125,20 L489.328125,14.5800781 L492.335938,14.5800781 L495.207031,20 L497.726562,20 L494.572266,14.2382812 C496.291016,13.6621094 497.306641,12.1191406 497.306641,10.2148438 C497.306641,7.58789062 495.5,5.90820312 492.599609,5.90820312 L487.140625,5.90820312 L487.140625,20 L489.328125,20 Z M492.394531,12.8125 L489.328125,12.8125 L489.328125,7.74414062 L492.335938,7.74414062 C494.025391,7.74414062 495.050781,8.70117188 495.050781,10.2734375 C495.050781,11.8847656 494.083984,12.8125 492.394531,12.8125 Z M500.646484,20 L501.935547,16.1914062 L507.306641,16.1914062 L508.595703,20 L510.910156,20 L505.822266,5.90820312 L503.458984,5.90820312 L498.371094,20 L500.646484,20 Z M506.75,14.4335938 L502.492188,14.4335938 L504.591797,8.25195312 L504.650391,8.25195312 L506.75,14.4335938 Z M518.527344,20.234375 C522.345703,20.234375 524.601562,17.9589844 524.601562,14.140625 L524.601562,12.7050781 L518.800781,12.7050781 L518.800781,14.4726562 L522.443359,14.4726562 L522.443359,14.7167969 C522.414062,16.8554688 520.832031,18.3203125 518.546875,18.3203125 C515.861328,18.3203125 514.191406,16.2402344 514.191406,12.8710938 C514.191406,9.56054688 515.8125,7.58789062 518.507812,7.58789062 C520.34375,7.58789062 521.720703,8.59375 522.248047,10.3417969 L524.494141,10.3417969 C524.005859,7.52929688 521.632812,5.67382812 518.498047,5.67382812 C514.484375,5.67382812 511.955078,8.44726562 511.955078,12.890625 C511.955078,17.4121094 514.494141,20.234375 518.527344,20.234375 Z M535.685547,20 L535.685547,18.1054688 L528.927734,18.1054688 L528.927734,13.7304688 L535.324219,13.7304688 L535.324219,11.9140625 L528.927734,11.9140625 L528.927734,7.79296875 L535.685547,7.79296875 L535.685547,5.90820312 L526.740234,5.90820312 L526.740234,20 L535.685547,20 Z" id="FULLCOVERAGE" fill="#FFFFFF" fill-rule="nonzero"></path>
        </g>
    </g>
</svg>