<svg xmlns="http://www.w3.org/2000/svg" width="11" height="15" viewBox="0 0 11 15">
    <path fill="#000" fill-rule="nonzero" d="M10.74 3.733c-.057-.2-.172-.413-.258-.6C9.461.827 7.228 0 5.426 0 3.013 0 .355 1.52 0 4.653v.64c0 .027.01.267.024.387.199 1.493 1.453 3.08 2.39 4.573 1.007 1.6 2.053 3.174 3.09 4.747.638-1.027 1.274-2.067 1.899-3.067.17-.293.367-.586.538-.867.113-.186.33-.373.43-.546C9.377 8.787 11 7.04 11 5.32v-.707c0-.186-.246-.84-.26-.88zM5.47 6.947c-.71 0-1.486-.333-1.87-1.254-.056-.146-.052-.44-.052-.466v-.414c0-1.173 1.06-1.706 1.983-1.706 1.136 0 2.014.853 2.014 1.92s-.94 1.92-2.075 1.92z" opacity=".5"/>
</svg>
