<svg xmlns="http://www.w3.org/2000/svg" width="18" height="18" viewBox="0 0 18 18">
    <g fill="none" fill-rule="nonzero">
        <circle cx="9" cy="9" r="9" fill="#25D366"/>
        <path fill="#FFF" d="M9.005 3C5.695 3 3 5.69 3 9c0 1.31.422 2.53 1.144 3.519l-.748 2.23L5.7 14.01C6.647 14.636 7.78 15 9 15c3.31 0 6-2.69 6-6 .005-3.31-2.684-6-5.995-6zm3.867 9.065c-.142.436-.71.792-1.158.894-.31.068-.711.125-2.07-.475C7.906 11.708 6.79 9.81 6.7 9.686 6.616 9.562 6 8.684 6 7.772c0-.911.432-1.353.606-1.545.142-.159.379-.227.605-.227.074 0 .137.006.2.006.174.005.258.017.374.311.142.368.49 1.28.532 1.376.042.096.084.22.026.346-.057.124-.105.18-.19.288-.083.108-.168.193-.257.306-.08.102-.169.21-.069.396.1.182.448.793.959 1.28.658.634 1.195.833 1.385.918.142.062.31.05.416-.074.132-.153.295-.408.463-.657.116-.181.269-.204.422-.136.158.062 1.005.51 1.18.6.173.091.289.136.331.216.032.09.032.458-.11.889z"/>
    </g>
</svg>
