<?xml version="1.0" standalone="no"?>
<!DOCTYPE svg PUBLIC "-//W3C//DTD SVG 1.1//EN" "http://www.w3.org/Graphics/SVG/1.1/DTD/svg11.dtd" >
<svg>
<metadata>
Created by FontForge 20090914 at Tue May 24 17:13:52 2016
 By www-data
Copyright (c) 1999 by ARS Type&#194;&#174;-Angus R. Shamal. All rights reserved.
</metadata>
<defs>
<font id="." horiz-adv-x="587" >
  <font-face 
    font-family="."
    font-weight="400"
    font-stretch="normal"
    units-per-em="1000"
    panose-1="2 0 0 0 0 0 0 0 0 0"
    ascent="800"
    descent="-200"
    x-height="515"
    cap-height="700"
    bbox="-169 -200.007 1182.99 1000"
    underline-thickness="50"
    underline-position="-50"
    unicode-range="U+0002-U+FB02"
  />
<missing-glyph horiz-adv-x="560" 
d="M33 666h494v-666h-494v666zM81 636l416 -580v580h-416zM63 30h415l-415 580v-580z" />
    <glyph glyph-name="f_f" unicode="ff" horiz-adv-x="641" 
d="M636 643c-8 2 -17.165 3.99805 -27.498 5.99805s-21.833 3 -34.5 3c-24.667 0 -43.334 -5.16699 -56.001 -15.5s-19 -28.166 -19 -53.499v-68h123v-73h-123v-442h-85v442h-220v-442h-86v442h-89v73h89v67c0 48.667 14 84.667 42 108s65.667 35 113 35
c14.667 0 29.167 -1 43.5 -3s26.166 -4.66699 35.499 -8l-11 -71c-8 2 -17.167 4 -27.5 6s-21.833 3 -34.5 3c-25.333 0 -44.166 -5.16699 -56.499 -15.5s-18.5 -28.166 -18.5 -53.499v-68h220v67c0 48.667 13.833 84.667 41.5 108s65.167 35 112.5 35
c14.667 0 29.167 -1 43.5 -3s26.166 -4.66699 35.499 -8z" />
    <glyph glyph-name="fi" unicode="fi" horiz-adv-x="564" 
d="M331 643c-8 2 -17.332 3.99902 -27.999 5.99902s-22.667 3 -36 3c-24 0 -42.167 -5.16699 -54.5 -15.5s-18.5 -28.166 -18.5 -53.499v-68h123v-73h-123v-442h-86v442h-89v73h89v67c0 48.667 14 84.667 42 108s65.667 35 113 35c14.667 0 29.167 -1 43.5 -3
s26.166 -4.66699 35.499 -8zM407.001 -0.000976562v515h86v-515h-86zM407.001 626.999v87h86v-87h-86z" />
    <glyph glyph-name="fl" unicode="fl" horiz-adv-x="572" 
d="M331 643c-8 2 -17.332 3.99902 -27.999 5.99902s-22.667 3 -36 3c-24 0 -42.167 -5.16699 -54.5 -15.5s-18.5 -28.166 -18.5 -53.499v-68h123v-73h-123v-442h-86v442h-89v73h89v67c0 48.667 14 84.667 42 108s65.667 35 113 35c14.667 0 29.167 -1 43.5 -3
s26.166 -4.66699 35.499 -8zM412.001 -0.000976562v714h86v-714h-86z" />
    <glyph glyph-name=".notdef" horiz-adv-x="560" 
d="M33 666h494v-666h-494v666zM81 636l416 -580v580h-416zM63 30h415l-415 580v-580z" />
    <glyph glyph-name="NULL" horiz-adv-x="0" 
 />
    <glyph glyph-name="NULL" horiz-adv-x="0" 
 />
    <glyph glyph-name="uni0002" horiz-adv-x="270" 
 />
    <glyph glyph-name="nonmarkingreturn" unicode="&#xd;" horiz-adv-x="270" 
 />
    <glyph glyph-name="space" unicode=" " horiz-adv-x="270" 
 />
    <glyph glyph-name="exclam" unicode="!" horiz-adv-x="255" 
d="M151 201h-47l-26 351v148h99v-148zM78 0v110h99v-110h-99z" />
    <glyph glyph-name="quotedbl" unicode="&#x22;" horiz-adv-x="371" 
d="M298 455h-39l-30 212v33h99v-33zM112 455h-39l-31 212v33h100v-33z" />
    <glyph glyph-name="numbersign" unicode="#" horiz-adv-x="644" 
d="M483 446l-33 -192h121v-55h-131l-35 -199h-61l36 199h-168l-36 -199h-59l34 199h-121v55h130l34 192h-121v56h130l36 198h60l-35 -198h168l36 198h59l-35 -198h121v-56h-130zM255 446l-34 -192h168l34 192h-168z" />
    <glyph glyph-name="dollar" unicode="$" 
d="M271 -102l0.000976562 89.998c-58.667 3.33301 -109.167 17.333 -151.5 42s-75.5 57 -99.5 97l72 47c21.333 -33.333 47.666 -58.666 78.999 -75.999s64.666 -28.333 99.999 -33v258c-26 6 -52.333 13.333 -79 22s-50.5 20.334 -71.5 35.001s-38.167 33.167 -51.5 55.5
s-20 50.166 -20 83.499c0 30 5.5 56.667 16.5 80s26.333 43.166 46 59.499s43.167 29.166 70.5 38.499s57 14.666 89 15.999v74h56v-75c44 -5.33301 84.5 -18 121.5 -38s68.167 -47 93.5 -81l-65 -46c-39.333 47.333 -89.333 76 -150 86v-233
c28.667 -7.33301 56.834 -15.833 84.501 -25.5s52.167 -22.167 73.5 -37.5s38.5 -34.166 51.5 -56.499s19.5 -49.833 19.5 -82.5c0 -29.333 -5.33301 -56.166 -16 -80.499s-26 -45.666 -46 -63.999s-44.167 -33.166 -72.5 -44.499s-59.833 -18.333 -94.5 -21v-90h-56z
M468.001 190.998c0 18.667 -3.33105 34.333 -9.99805 47s-16.334 23.5 -29.001 32.5s-27.667 16.5 -45 22.5s-36.333 11.667 -57 17v-246c43.333 3.33301 77.666 16 102.999 38s38 51.667 38 89zM137.003 527.997c0 -18 3.33105 -32.9971 9.99805 -44.9971
s16 -22.333 28 -31s26.167 -15.834 42.5 -21.501s34.166 -11.167 53.499 -16.5v223c-17.333 -0.666992 -34.166 -3.16699 -50.499 -7.5s-30.666 -10.833 -42.999 -19.5s-22.166 -19.834 -29.499 -33.501s-11 -29.834 -11 -48.501z" />
    <glyph glyph-name="percent" unicode="%" horiz-adv-x="778" 
d="M355 540c0 -24.667 -4 -47.5 -12 -68.5s-19.167 -39.333 -33.5 -55s-31.666 -27.834 -51.999 -36.501s-42.5 -13 -66.5 -13c-24.667 0 -47 4.33301 -67 13s-37.167 20.834 -51.5 36.501s-25.5 34 -33.5 55s-12 43.833 -12 68.5c0 24 4 46.167 12 66.5
s19.167 38.166 33.5 53.499s31.5 27.333 51.5 36s42.333 13 67 13c24 0 46.167 -4.33301 66.5 -13s37.666 -20.667 51.999 -36s25.5 -33.166 33.5 -53.499s12 -42.5 12 -66.5zM242 0h-69l363 700h69zM751 163c0 -24.667 -3.83301 -47.5 -11.5 -68.5
s-18.667 -39.167 -33 -54.5s-31.666 -27.333 -51.999 -36s-42.833 -13 -67.5 -13c-24 0 -46 4.33301 -66 13s-37.333 20.667 -52 36s-26 33.5 -34 54.5s-12 43.833 -12 68.5c0 24 4 46.333 12 67s19.333 38.667 34 54s32 27.333 52 36s42 13 66 13
c24.667 0 47.167 -4.33301 67.5 -13s37.666 -20.667 51.999 -36s25.333 -33.333 33 -54s11.5 -43 11.5 -67zM293 540c0 30.667 -9.16797 56.334 -27.501 77.001s-43.166 31 -74.499 31c-32 0 -57 -10.333 -75 -31s-27 -46.334 -27 -77.001c0 -32 9 -58.5 27 -79.5
s43 -31.5 75 -31.5s57 10.5 75 31.5s27 47.5 27 79.5zM689.999 163c0 30.667 -9.33301 56.334 -28 77.001s-43.667 31 -75 31s-56 -10.333 -74 -31s-27 -46.334 -27 -77.001c0 -31.333 9 -57.666 27 -78.999s42.667 -32 74 -32c32 0 57.167 10.667 75.5 32
s27.5 47.666 27.5 78.999z" />
    <glyph glyph-name="ampersand" unicode="&#x26;" horiz-adv-x="679" 
d="M636 303c-9.33301 -32.667 -21.834 -63.8271 -37.501 -93.4941s-33.167 -56.834 -52.5 -81.501l126 -128h-113l-71 71c-64 -56 -137.333 -84 -220 -84c-34 0 -65.667 4.5 -95 13.5s-55 22 -77 39s-39.333 37.667 -52 62s-19 52.166 -19 83.499
c0 25.333 4.16699 48 12.5 68s19.666 38 33.999 54s31.166 30.167 50.499 42.5s40.333 23.5 63 33.5c-27.333 29.333 -47.666 56.166 -60.999 80.499s-20 52.166 -20 83.499c0 27.333 4.83301 51.333 14.5 72s22.834 38 39.501 52s36.5 24.5 59.5 31.5
s47.833 10.5 74.5 10.5c28 0 53.5 -3.83301 76.5 -11.5s42.667 -18.5 59 -32.5s29 -30.833 38 -50.5s13.5 -41.5 13.5 -65.5c0 -40.667 -13.5 -76.334 -40.5 -107.001s-67.5 -58.334 -121.5 -83.001l173 -178c15.333 21.333 28.833 43.833 40.5 67.5
s20.834 47.167 27.501 70.5zM277.999 65.0068c29.333 0 56.667 4.83301 82 14.5s50.333 25.167 75 46.5l-202 206c-16 -7.33301 -31 -15.333 -45 -24s-26.333 -18.5 -37 -29.5s-19.167 -23.5 -25.5 -37.5s-9.5 -29.667 -9.5 -47c0 -40 15 -71.5 45 -94.5s69 -34.5 117 -34.5
zM399 548.007c0 15.333 -2.99902 28.832 -8.99902 40.499s-13.833 21.334 -23.5 29.001s-20.834 13.334 -33.501 17.001s-26 5.5 -40 5.5s-27.5 -2 -40.5 -6s-24.5 -9.83301 -34.5 -17.5s-17.833 -17.167 -23.5 -28.5s-8.5 -24.666 -8.5 -39.999
c0 -25.333 7.5 -47.833 22.5 -67.5s34.167 -41.834 57.5 -66.501c16.667 8 33 16.333 49 25s30.333 18.167 43 28.5s22.667 22.166 30 35.499s11 28.333 11 45z" />
    <glyph glyph-name="quotesingle" unicode="'" horiz-adv-x="184" 
d="M111 455h-38l-30 212v33h99v-33z" />
    <glyph glyph-name="parenleft" unicode="(" horiz-adv-x="279" 
d="M214 -130c-63.333 65.333 -109 136.166 -137 212.499s-42 154.833 -42 235.5s14 159.5 42 236.5s73.667 147.833 137 212.5l57 -46c-56 -58 -96.167 -121.167 -120.5 -189.5s-36.5 -139.5 -36.5 -213.5c0 -73.333 12.167 -144.166 36.5 -212.499
s64.5 -131.5 120.5 -189.5z" />
    <glyph glyph-name="parenright" unicode=")" horiz-adv-x="279" 
d="M65 767c63.333 -65.333 109 -136.329 137 -212.996s42 -155.334 42 -236.001s-14 -159.334 -42 -236.001s-73.667 -147.334 -137 -212.001l-56 46c55.333 58 95.166 121.167 119.499 189.5s36.5 139.166 36.5 212.499c0 74 -12.167 145.167 -36.5 213.5
s-64.166 131.5 -119.499 189.5z" />
    <glyph glyph-name="asterisk" unicode="*" horiz-adv-x="417" 
d="M225 476l6.99609 -46.498c2 -13 3.5 -25.167 4.5 -36.5s1.66699 -22.5 2 -33.5s0.5 -23.167 0.5 -36.5h-60c0 13.333 0.166992 25.5 0.5 36.5s1 22.167 2 33.5s2.33301 23.5 4 36.5s4.16699 28.5 7.5 46.5l-36.5 -29.5c-10.333 -8.33301 -20.166 -15.666 -29.499 -21.999
s-18.666 -12.333 -27.999 -18s-20 -11.834 -32 -18.501l-29 51l31.5 18c9.66699 5.33301 19.5 10.333 29.5 15s21.167 9.5 33.5 14.5l44.5 17.5c-17.333 6 -32.166 11.5 -44.499 16.5s-23.5 9.83301 -33.5 14.5s-19.833 9.66699 -29.5 15l-31.5 18l29 52
c12 -6.66699 22.667 -12.834 32 -18.501s18.666 -11.834 27.999 -18.501l29.5 -22c10.333 -8 22.5 -18 36.5 -30c-3.33301 18 -5.83301 33.5 -7.5 46.5s-3 25.167 -4 36.5s-1.66699 22.5 -2 33.5s-0.5 23.5 -0.5 37.5h60c0 -14 -0.166992 -26.5 -0.5 -37.5
s-1 -22.167 -2 -33.5s-2.5 -23.5 -4.5 -36.5l-7 -46.5c14 12 26.167 22 36.5 30l29.5 22c9.33301 6.66699 18.666 12.834 27.999 18.501l31 18.5l30 -52l-32 -18c-9.33301 -5.33301 -19.166 -10.333 -29.499 -15s-21.666 -9.5 -33.999 -14.5s-27.166 -10.5 -44.499 -16.5
l44.5 -17.5c12.333 -5 23.666 -9.83301 33.999 -14.5s20.166 -9.66699 29.499 -15l32 -18l-30 -51l-31 18.5c-9.33301 5.66699 -18.666 11.667 -27.999 18s-19.166 13.666 -29.499 21.999z" />
    <glyph glyph-name="plus" unicode="+" 
d="M332 266v-199h-76v199h-200v76h200v200h76v-200h199v-76h-199z" />
    <glyph glyph-name="comma" unicode="," horiz-adv-x="235" 
d="M169 7c0 -32 -6.66797 -60.667 -20.001 -86s-32.666 -49.333 -57.999 -72l-32 33c18 15.333 31.667 31.5 41 48.5s14 33.167 14 48.5v21h-51v105h106v-98z" />
    <glyph glyph-name="hyphen" unicode="-" horiz-adv-x="380" 
d="M56 242v78h268v-78h-268z" />
    <glyph glyph-name="period" unicode="." horiz-adv-x="235" 
d="M63 0v105h106v-105h-106z" />
    <glyph glyph-name="slash" unicode="/" horiz-adv-x="340" 
d="M96 -108h-70l220 822h70z" />
    <glyph glyph-name="zero" unicode="0" 
d="M547 350c0 -44.667 -4 -88.667 -12 -132s-21.667 -82.166 -41 -116.499s-45.333 -62 -78 -83s-73.334 -31.5 -122.001 -31.5c-49.333 0 -90.333 10.5 -123 31.5s-58.667 48.667 -78 83s-33 73.166 -41 116.499s-12 87.333 -12 132s4 88.667 12 132
s21.667 82.166 41 116.499s45.333 62 78 83s73.667 31.5 123 31.5c48.667 0 89.334 -10.5 122.001 -31.5s58.667 -48.667 78 -83s33 -73.166 41 -116.499s12 -87.333 12 -132zM451 350c0 38.667 -2.5 75.167 -7.5 109.5s-13.5 64.333 -25.5 90s-28 45.834 -48 60.501
s-45.333 22 -76 22s-56.167 -7.33301 -76.5 -22s-36.5 -34.834 -48.5 -60.501s-20.5 -55.667 -25.5 -90s-7.5 -70.833 -7.5 -109.5s2.5 -75.167 7.5 -109.5s13.5 -64.333 25.5 -90s28.167 -46 48.5 -61s45.833 -22.5 76.5 -22.5s56 7.5 76 22.5s36 35.333 48 61
s20.5 55.667 25.5 90s7.5 70.833 7.5 109.5z" />
    <glyph glyph-name="one" unicode="1" 
d="M96 0l0.00195312 76.001h176v512c-8.66699 -4.66699 -19.5 -9.66699 -32.5 -15s-27.333 -10.333 -43 -15s-32.334 -8.83398 -50.001 -12.501s-34.834 -6.5 -51.501 -8.5l-11 72c49.333 9.33301 91.333 21.5 126 36.5s63 33.167 85 54.5h71v-624h167v-76h-437z" />
    <glyph glyph-name="two" unicode="2" 
d="M54 0l-0.00292969 72.001l167 143c46 41.333 83.333 78.333 112 111s49.5 62.5 62.5 89.5s19.5 53.5 19.5 79.5c0 44.667 -13.167 78 -39.5 100s-59.166 33 -98.499 33c-38 0 -70.667 -9.5 -98 -28.5s-49.333 -41.833 -66 -68.5l-73 48c27.333 40 61.333 72.333 102 97
s88 37 142 37c32.667 0 63 -5 91 -15s52.333 -24.167 73 -42.5s36.834 -40.833 48.501 -67.5s17.5 -56.334 17.5 -89.001c0 -32 -6.16699 -63.167 -18.5 -93.5s-31.666 -61.5 -57.999 -93.5s-60 -66.333 -101 -103s-89.833 -77.667 -146.5 -123h351v-86h-487z" />
    <glyph glyph-name="three" unicode="3" 
d="M227 322l0.00195312 83.001h57c44 0 77.667 10.5 101 31.5s35 48.833 35 83.5c0 34 -11.667 60.5 -35 79.5s-56 28.5 -98 28.5c-72.667 0 -129.334 -27.333 -170.001 -82l-68 48c60.667 79.333 140.667 119 240 119c33.333 0 63.833 -4.5 91.5 -13.5
s51.5 -21.667 71.5 -38s35.667 -35.833 47 -58.5s17 -47.334 17 -74.001c0 -38 -9.83301 -70 -29.5 -96s-45.5 -46.667 -77.5 -62c44.667 -17.333 77.167 -41.5 97.5 -72.5s30.5 -64.5 30.5 -100.5c0 -30 -5.66699 -57.833 -17 -83.5s-27.833 -48 -49.5 -67
s-47.834 -33.833 -78.501 -44.5s-65 -16 -103 -16c-64 0 -117.167 12.333 -159.5 37s-75.5 58.667 -99.5 102l81 44c18 -34.667 42.667 -59.667 74 -75s66 -23 104 -23c48.667 0 85.834 11.833 111.501 35.5s38.5 55.5 38.5 95.5c0 36 -12.833 64.833 -38.5 86.5
s-65.834 32.5 -120.501 32.5h-53z" />
    <glyph glyph-name="four" unicode="4" 
d="M459 166l-0.00195312 -166.001h-94v166h-340v78c24 41.333 45 82.833 63 124.5s33 82 45 121s21 76.333 27 112s9 68.5 9 98.5h93c0 -30 -3.33301 -63.5 -10 -100.5s-16.167 -75.167 -28.5 -114.5s-27.666 -79.166 -45.999 -119.499s-39.166 -79.5 -62.499 -117.5h251
v291h93v-291h104v-82h-104z" />
    <glyph glyph-name="five" unicode="5" 
d="M284 72c48 0 86.832 13.335 116.499 40.002s44.5 64 44.5 112c0 46 -14 82 -42 108s-66.333 39 -115 39c-64 0 -114.667 -22.667 -152 -68l-58 28l24 369h400v-86h-323l-17 -207c24 17.333 49 29 75 35s50 9 72 9c33.333 0 64.333 -5.33301 93 -16
s53.334 -25.834 74.001 -45.501s36.834 -43.334 48.501 -71.001s17.5 -58.167 17.5 -91.5c0 -32 -5.66699 -62.5 -17 -91.5s-27.833 -54.5 -49.5 -76.5s-48.334 -39.5 -80.001 -52.5s-67.834 -19.5 -108.501 -19.5c-58.667 0 -108.667 11.5 -150 34.5
s-74.666 55.833 -99.999 98.5l80 48c18 -34 41.833 -58.5 71.5 -73.5s61.5 -22.5 95.5 -22.5z" />
    <glyph glyph-name="six" unicode="6" 
d="M425 700c-22 -18 -45.665 -38.832 -70.998 -62.499s-49.833 -48.834 -73.5 -75.501s-45.334 -53.834 -65.001 -81.501s-34.834 -54.5 -45.501 -80.5c9.33301 10.667 20.5 19.667 33.5 27s26.667 13.333 41 18s28.833 8 43.5 10s28 3 40 3c32 0 61.667 -5.5 89 -16.5
s51.166 -26.5 71.499 -46.5s36.333 -44.167 48 -72.5s17.5 -59.833 17.5 -94.5c0 -35.333 -6 -67.666 -18 -96.999s-29.167 -54.666 -51.5 -75.999s-49.333 -38 -81 -50s-66.834 -18 -105.501 -18c-38 0 -72.667 5.83301 -104 17.5s-58 28.5 -80 50.5s-39.167 49 -51.5 81
s-18.5 68.667 -18.5 110c0 43.333 6.5 85.166 19.5 125.499s30.833 79.333 53.5 117s49.334 74 80.001 109s63.334 69.167 98.001 102.5h130zM140.002 226.001c0 -46 14 -83.333 42 -112s67.333 -43 118 -43s89.5 14.333 116.5 43s40.5 66 40.5 112
s-13.5 82.833 -40.5 110.5s-65.833 41.5 -116.5 41.5s-90 -14 -118 -42s-42 -64.667 -42 -110z" />
    <glyph glyph-name="seven" unicode="7" 
d="M549 623c-15.333 -19.333 -32.8359 -42.665 -52.5029 -69.998s-40.167 -57.5 -61.5 -90.5s-42.5 -68.333 -63.5 -106s-39.833 -76.334 -56.5 -116.001s-30.667 -79.834 -42 -120.501s-18 -80.667 -20 -120h-101c3.33301 58 15.833 116.833 37.5 176.5
s47.334 117 77.001 172s60.334 105.5 92.001 151.5s58.834 84 81.501 114h-398v86h507v-77z" />
    <glyph glyph-name="eight" unicode="8" 
d="M293 69c50.667 0 89.667 12 117 36s41 56.333 41 97c0 40 -13 72.167 -39 96.5s-65.667 36.5 -119 36.5c-52.667 0 -92 -12.167 -118 -36.5s-39 -56.5 -39 -96.5c0 -40.667 13.5 -73 40.5 -97s65.833 -36 116.5 -36zM293 413c42 0 74.833 9.5 98.5 28.5
s35.5 45.5 35.5 79.5c0 34.667 -11.833 61.667 -35.5 81s-56.5 29 -98.5 29c-41.333 0 -74 -9.66699 -98 -29s-36 -46.333 -36 -81c0 -34 11.833 -60.5 35.5 -79.5s56.5 -28.5 98.5 -28.5zM293 -13c-40 0 -75.668 5.33301 -107.001 16s-58 25.5 -80 44.5
s-38.833 41.167 -50.5 66.5s-17.5 53 -17.5 83c0 38 10.167 73.5 30.5 106.5s52.5 58.5 96.5 76.5c-31.333 14 -56 33.333 -74 58s-27 55 -27 91c0 27.333 5.83301 52.333 17.5 75s27.667 42 48 58s44.5 28.5 72.5 37.5s58.333 13.5 91 13.5s63 -4.5 91 -13.5
s52.333 -21.5 73 -37.5s36.834 -35.333 48.501 -58s17.5 -47.667 17.5 -75c0 -36 -9 -66.333 -27 -91s-42.667 -44 -74 -58c44 -18 76.167 -43.5 96.5 -76.5s30.5 -68.5 30.5 -106.5c0 -30 -5.83301 -57.667 -17.5 -83s-28.5 -47.5 -50.5 -66.5s-48.833 -33.833 -80.5 -44.5
s-67.5 -16 -107.5 -16z" />
    <glyph glyph-name="nine" unicode="9" 
d="M162 0c22.667 18 46.6699 38.832 72.0029 62.499s49.833 48.834 73.5 75.501s45.167 53.834 64.5 81.501s34.666 54.5 45.999 80.5c-10 -10.667 -21.5 -19.667 -34.5 -27s-26.667 -13.333 -41 -18s-28.666 -8 -42.999 -10s-27.833 -3 -40.5 -3
c-32 0 -61.667 5.5 -89 16.5s-51.166 26.5 -71.499 46.5s-36.333 44.167 -48 72.5s-17.5 59.833 -17.5 94.5c0 35.333 6.16699 67.666 18.5 96.999s29.666 54.666 51.999 75.999s49.166 38 80.499 50s66.333 18 105 18c38 0 72.667 -5.83301 104 -17.5
s58.166 -28.5 80.499 -50.5s39.666 -49.167 51.999 -81.5s18.5 -68.833 18.5 -109.5c0 -43.333 -6.5 -85.166 -19.5 -125.499s-30.833 -79.333 -53.5 -117s-49.167 -74 -79.5 -109s-62.833 -69.167 -97.5 -102.5h-132zM448.003 473.999c0 46 -13.833 83.333 -41.5 112
s-67.167 43 -118.5 43s-90.333 -14.333 -117 -43s-40 -66 -40 -112s13.333 -82.833 40 -110.5s65.667 -41.5 117 -41.5s90.833 14 118.5 42s41.5 64.667 41.5 110z" />
    <glyph glyph-name="colon" unicode=":" horiz-adv-x="287" 
d="M91 0v105h105v-105h-105zM91 410v105h105v-105h-105z" />
    <glyph glyph-name="semicolon" unicode=";" horiz-adv-x="284" 
d="M196 7c0 -32 -6.5 -60.667 -19.5 -86s-32.5 -49.333 -58.5 -72l-31 33c18 15.333 31.667 31.5 41 48.5s14 33.167 14 48.5v21h-51v105h105v-98zM91 410v105h105v-105h-105z" />
    <glyph glyph-name="less" unicode="&#x3c;" 
d="M393 26l-280 279l280 280l52 -53l-227 -227l227 -226z" />
    <glyph glyph-name="equal" unicode="=" 
d="M56 364v75h475v-75h-475zM56 169v76h475v-76h-475z" />
    <glyph glyph-name="greater" unicode="&#x3e;" 
d="M193 26l-51 53l227 226l-227 227l51 53l280 -280z" />
    <glyph glyph-name="question" unicode="?" horiz-adv-x="495" 
d="M458 514c0 -29.333 -5.33203 -56.002 -15.999 -80.002s-25.334 -44.667 -44.001 -62s-40.667 -31.5 -66 -42.5s-53 -18.5 -83 -22.5v-106h-83v181c6.66699 -1.33301 13 -2.16602 19 -2.49902s11.667 -0.5 17 -0.5c23.333 0 44.833 3 64.5 9s36.667 14.5 51 25.5
s25.5 24.667 33.5 41s12 34.833 12 55.5c0 34.667 -11.5 63.334 -34.5 86.001s-56.5 34 -100.5 34c-30.667 0 -58.5 -5.5 -83.5 -16.5s-48.167 -26.5 -69.5 -46.5l-52 63c30 26 62.333 46.333 97 61s73 22 115 22c31.333 0 60.5 -4.5 87.5 -13.5s50.5 -22 70.5 -39
s35.833 -37.833 47.5 -62.5s17.5 -52.667 17.5 -84zM157.001 -0.00195312v110h99v-110h-99z" />
    <glyph glyph-name="at" unicode="@" horiz-adv-x="864" 
d="M552 184c-16.667 -25.333 -37.3301 -43.998 -61.9971 -55.998s-51.334 -18 -80.001 -18c-27.333 0 -52 5.16699 -74 15.5s-40.667 24.666 -56 42.999s-27.166 40 -35.499 65s-12.5 51.833 -12.5 80.5s4.16699 55.334 12.5 80.001s20.333 46.167 36 64.5
s34.5 32.666 56.5 42.999s47 15.5 75 15.5c24 0 46.5 -4.33301 67.5 -13s40.167 -23.667 57.5 -45v50h74v-275c0 -18.667 4.5 -34.334 13.5 -47.001s25.167 -19 48.5 -19c33.333 0 58 13.833 74 41.5s24 63.5 24 107.5c0 46.667 -8 90.5 -24 131.5s-38.667 76.667 -68 107
s-64.333 54.166 -105 71.499s-86 26 -136 26s-95.5 -9 -136.5 -27s-76.333 -42.5 -106 -73.5s-52.5 -66.833 -68.5 -107.5s-24 -84 -24 -130s8.16699 -89.333 24.5 -130s39.166 -76.167 68.499 -106.5s64.5 -54.333 105.5 -72s86.167 -26.5 135.5 -26.5
c30 0 58.833 3.5 86.5 10.5s54.167 17.833 79.5 32.5l29 -53c-28.667 -15.333 -59.5 -27.5 -92.5 -36.5s-68.5 -13.5 -106.5 -13.5c-58 0 -111.333 10.333 -160 31s-90.667 48.667 -126 84s-62.833 77 -82.5 125s-29.5 99.667 -29.5 155
c0 54.667 9.83301 106.167 29.5 154.5s47.167 90.5 82.5 126.5s77.666 64.5 126.999 85.5s103.666 31.5 162.999 31.5c58.667 0 112.5 -10.5 161.5 -31.5s91 -49.167 126 -84.5s62.333 -76.5 82 -123.5s29.5 -96.5 29.5 -148.5c0 -32 -4 -61.167 -12 -87.5
s-19.167 -48.666 -33.5 -66.999s-31.833 -32.5 -52.5 -42.5s-43.667 -15 -69 -15c-22 0 -44 5 -66 15s-39 28.667 -51 56zM537.004 314.002c0 18.667 -2.50195 36.333 -7.50195 53s-12.333 31.167 -22 43.5s-21.667 22 -36 29s-30.833 10.5 -49.5 10.5
c-37.333 0 -65.166 -13.167 -83.499 -39.5s-27.5 -58.5 -27.5 -96.5c0 -18.667 2.33301 -36.334 7 -53.001s11.5 -31.167 20.5 -43.5s20.5 -22.166 34.5 -29.499s30.333 -11 49 -11s35.334 3.66699 50.001 11s26.667 17.166 36 29.499s16.5 26.833 21.5 43.5
s7.5 34.334 7.5 53.001z" />
    <glyph glyph-name="A" unicode="A" horiz-adv-x="678" 
d="M573 0l-77 198h-317l-79 -198h-98l283 700h108l283 -700h-103zM339 613l-130 -333h257z" />
    <glyph glyph-name="B" unicode="B" horiz-adv-x="672" 
d="M629 201c0 -28 -4.66699 -54.168 -14 -78.501s-23.5 -45.5 -42.5 -63.5s-43 -32.333 -72 -43s-63.167 -16 -102.5 -16h-313v700h290c72 0 127.5 -14.5 166.5 -43.5s58.5 -69.833 58.5 -122.5c0 -36 -8.33301 -66.667 -25 -92s-39 -45.666 -67 -60.999
c40 -16.667 70.167 -40.5 90.5 -71.5s30.5 -67.167 30.5 -108.5zM506 519.999c0 33.333 -11.167 57.5 -33.5 72.5s-55.833 22.5 -100.5 22.5h-195v-205h202c40.667 0 72 9.83301 94 29.5s33 46.5 33 80.5zM533 204.999c0 36 -10.834 65.667 -32.501 89s-55.167 35 -100.5 35
h-223v-244h218c44.667 0 78.834 10.5 102.501 31.5s35.5 50.5 35.5 88.5z" />
    <glyph glyph-name="C" unicode="C" horiz-adv-x="683" 
d="M579 523c-21.333 33.333 -48.498 59.0029 -81.498 77.0029s-71.833 27 -116.5 27c-36.667 0 -70 -6.5 -100 -19.5s-55.5 -31.5 -76.5 -55.5s-37.167 -53 -48.5 -87s-17 -72 -17 -114s5.66699 -80.167 17 -114.5s27.5 -63.5 48.5 -87.5s46.333 -42.667 76 -56
s62.5 -20 98.5 -20c44 0 82.833 9.33301 116.5 28s61.167 44.667 82.5 78l77 -49c-30 -44.667 -68.167 -79.667 -114.5 -105s-99.833 -38 -160.5 -38c-51.333 0 -97.833 9.16699 -139.5 27.5s-77.334 43.666 -107.001 75.999s-52.5 70.666 -68.5 114.999s-24 92.5 -24 144.5
c0 52.667 8 101.167 24 145.5s38.833 82.666 68.5 114.999s65.167 57.5 106.5 75.5s87.666 27 138.999 27c60.667 0 113.5 -12.167 158.5 -36.5s83.167 -58.5 114.5 -102.5z" />
    <glyph glyph-name="D" unicode="D" horiz-adv-x="735" 
d="M355 86c38.667 0 73 6.33301 103 19s55.167 30.5 75.5 53.5s35.666 50.667 45.999 83s15.5 68.5 15.5 108.5s-5.16699 76.167 -15.5 108.5s-25.666 60 -45.999 83s-45.5 40.833 -75.5 53.5s-64.333 19 -103 19h-177v-528h177zM85 0v700h270c54 0 102 -8.83301 144 -26.5
s77.333 -42.167 106 -73.5s50.5 -68.333 65.5 -111s22.5 -89 22.5 -139s-7.5 -96.333 -22.5 -139s-36.833 -79.667 -65.5 -111s-64 -55.833 -106 -73.5s-90 -26.5 -144 -26.5h-270z" />
    <glyph glyph-name="E" unicode="E" horiz-adv-x="635" 
d="M85 0v700h503v-86h-410v-203h349v-81h-349v-244h410v-86h-503z" />
    <glyph glyph-name="F" unicode="F" horiz-adv-x="610" 
d="M178 614v-207h348v-81h-348v-326h-93v700h503v-86h-410z" />
    <glyph glyph-name="G" unicode="G" horiz-adv-x="736" 
d="M382 713c59.333 0 111.666 -12.1699 156.999 -36.5029s83 -58.166 113 -101.499l-75 -49c-21.333 32 -48.666 56.833 -81.999 74.5s-72 26.5 -116 26.5c-37.333 0 -70.833 -6.66699 -100.5 -20s-54.834 -32.166 -75.501 -56.499s-36.5 -53.5 -47.5 -87.5
s-16.5 -71.333 -16.5 -112c0 -42 5.5 -80.167 16.5 -114.5s27 -63.666 48 -87.999s46.333 -43.333 76 -57s63.5 -20.5 101.5 -20.5c31.333 0 60.333 4.83301 87 14.5s50 23.334 70 41.001s36 39.167 48 64.5s19 53.666 21 84.999h-207v82h300
c1.33301 -7.33301 2.33301 -15 3 -23s1 -16.667 1 -26c0 -43.333 -7.16699 -84.5 -21.5 -123.5s-35.166 -73.167 -62.499 -102.5s-61 -52.666 -101 -69.999s-85.667 -26 -137 -26c-52 0 -99 9.16699 -141 27.5s-77.833 43.666 -107.5 75.999s-52.5 70.833 -68.5 115.5
s-24 93 -24 145c0 52.667 8 101.167 24 145.5s38.833 82.5 68.5 114.5s65.5 57 107.5 75s89 27 141 27z" />
    <glyph glyph-name="H" unicode="H" horiz-adv-x="744" 
d="M566 0v328h-389v-328h-92v700h92v-287h389v287h92v-700h-92z" />
    <glyph glyph-name="I" unicode="I" horiz-adv-x="263" 
d="M85 0v700h92v-700h-92z" />
    <glyph glyph-name="J" unicode="J" horiz-adv-x="498" 
d="M420 218c0 -37.333 -5.33105 -70.498 -15.998 -99.498s-25.834 -53.167 -45.501 -72.5s-43.167 -34 -70.5 -44s-57.666 -15 -90.999 -15c-41.333 0 -78.5 8.16699 -111.5 24.5s-60.5 42.166 -82.5 77.499l76 47c15.333 -22 33.166 -38 53.499 -48s43.166 -15 68.499 -15
c46 0 78.5 13.167 97.5 39.5s28.5 61.166 28.5 104.499v483h93v-482v0z" />
    <glyph glyph-name="K" unicode="K" horiz-adv-x="653" 
d="M548 0l-246 336l-125 -137v-199h-92v700h92v-381l346 381h112l-270 -297l298 -403h-115z" />
    <glyph glyph-name="L" unicode="L" horiz-adv-x="588" 
d="M85 0v700h92v-614h391v-86h-483z" />
    <glyph glyph-name="M" unicode="M" horiz-adv-x="899" 
d="M724 0v604l-234 -604h-81l-234 604v-604h-90v700h140l227 -584l227 584h135v-700h-90z" />
    <glyph glyph-name="N" unicode="N" horiz-adv-x="738" 
d="M543 0l-369 584v-584h-89v700h119l360 -571v571h89v-700h-110z" />
    <glyph glyph-name="O" unicode="O" horiz-adv-x="762" 
d="M722 350c0 -51.333 -8 -99.166 -24 -143.499s-38.833 -82.833 -68.5 -115.5s-65.5 -58.167 -107.5 -76.5s-89 -27.5 -141 -27.5s-99 9.16699 -141 27.5s-77.833 43.833 -107.5 76.5s-52.5 71.167 -68.5 115.5s-24 92.166 -24 143.499c0 52 8 100 24 144
s38.833 82.333 68.5 115s65.5 58.167 107.5 76.5s89 27.5 141 27.5s99 -9.16699 141 -27.5s77.833 -43.833 107.5 -76.5s52.5 -71 68.5 -115s24 -92 24 -144zM624 350c0 40.667 -5.5 78 -16.5 112s-27 63.167 -48 87.5s-46.5 43.166 -76.5 56.499s-64 20 -102 20
s-72 -6.66699 -102 -20s-55.333 -32.166 -76 -56.499s-36.5 -53.5 -47.5 -87.5s-16.5 -71.333 -16.5 -112s5.5 -77.834 16.5 -111.501s26.833 -62.667 47.5 -87s46 -43.333 76 -57s64 -20.5 102 -20.5s72 6.83301 102 20.5s55.5 32.667 76.5 57s37 53.333 48 87
s16.5 70.834 16.5 111.501z" />
    <glyph glyph-name="P" unicode="P" horiz-adv-x="643" 
d="M622 485c0 -32.667 -5.33301 -62.166 -16 -88.499s-26.334 -48.833 -47.001 -67.5s-46.334 -33.167 -77.001 -43.5s-66 -15.5 -106 -15.5h-199v-270h-92v700h291c40 0 75.333 -5.16699 106 -15.5s56.334 -24.833 77.001 -43.5s36.334 -41.334 47.001 -68.001
s16 -56 16 -88zM377 355.001c50.667 0 88.167 11.833 112.5 35.5s36.5 55.167 36.5 94.5c0 40 -12.167 71.5 -36.5 94.5s-61.833 34.5 -112.5 34.5h-200v-259h200z" />
    <glyph glyph-name="Q" unicode="Q" horiz-adv-x="762" 
d="M722 350c0 -57.333 -10 -109.832 -30 -157.499s-48 -88.167 -84 -121.5l79 -95l-63 -52l-84 101c-45.333 -25.333 -98.333 -38 -159 -38c-52 0 -99 9.16699 -141 27.5s-77.833 43.833 -107.5 76.5s-52.5 71.167 -68.5 115.5s-24 92.166 -24 143.499c0 52 8 100 24 144
s38.833 82.333 68.5 115s65.5 58.167 107.5 76.5s89 27.5 141 27.5s99 -9.16699 141 -27.5s77.833 -43.833 107.5 -76.5s52.5 -71 68.5 -115s24 -92 24 -144zM624 350.001c0 40.667 -5.50098 77.834 -16.501 111.501s-27 62.667 -48 87s-46.5 43.333 -76.5 57
s-64 20.5 -102 20.5s-72 -6.83301 -102 -20.5s-55.333 -32.667 -76 -57s-36.5 -53.333 -47.5 -87s-16.5 -70.834 -16.5 -111.501c0 -40 5.5 -77 16.5 -111s26.833 -63.167 47.5 -87.5s46 -43.333 76 -57s64 -20.5 102 -20.5c36.667 0 70.334 7.33301 101.001 22l-74 92
l61 50l79 -96c24.667 24 43.5 53.667 56.5 89s19.5 75 19.5 119z" />
    <glyph glyph-name="R" unicode="R" horiz-adv-x="672" 
d="M536 0l-151 285.001h-208v-285h-92v700h304c36 0 68.333 -4.83301 97 -14.5s53.167 -23.334 73.5 -41.001s35.833 -39 46.5 -64s16 -52.833 16 -83.5c0 -49.333 -13.5 -90.5 -40.5 -123.5s-61.833 -56.833 -104.5 -71.5l165 -302h-106zM526 490.001
c0 38 -12.667 68.167 -38 90.5s-59 33.5 -101 33.5h-210v-246h214c42 0 75 11.333 99 34s36 52 36 88z" />
    <glyph glyph-name="S" unicode="S" horiz-adv-x="611" 
d="M303 713c53.333 0 102.326 -10.5068 146.993 -31.5068s82 -51.5 112 -91.5l-72 -50c-22.667 28.667 -50.167 50.834 -82.5 66.501s-68.833 23.5 -109.5 23.5c-18.667 0 -36.667 -1.83301 -54 -5.5s-32.5 -9.66699 -45.5 -18s-23.5 -19.166 -31.5 -32.499
s-12 -29.666 -12 -48.999s4.16699 -35.166 12.5 -47.499s19.833 -22.666 34.5 -30.999s31.834 -15.333 51.501 -21s40.834 -11.167 63.501 -16.5c33.333 -8 65.333 -16.667 96 -26s57.834 -21.666 81.501 -36.999s42.5 -34.666 56.5 -57.999s21 -52.333 21 -87
c0 -32 -6.16699 -61.167 -18.5 -87.5s-30 -48.833 -53 -67.5s-50.667 -33.167 -83 -43.5s-68.833 -15.5 -109.5 -15.5c-65.333 0 -122 13.167 -170 39.5s-85 60.5 -111 102.5l78 51c23.333 -38.667 54 -66.667 92 -84s77.667 -26 119 -26
c48.667 0 87.834 10.833 117.501 32.5s44.5 52.167 44.5 91.5c0 21.333 -4.83301 38.833 -14.5 52.5s-23 24.834 -40 33.501s-37 16 -60 22s-48.167 12 -75.5 18c-28.667 6 -56.667 13.333 -84 22s-51.666 20.334 -72.999 35.001s-38.5 33.167 -51.5 55.5
s-19.5 50.166 -19.5 83.499c0 31.333 6.16699 59.166 18.5 83.499s29.333 45 51 62s47.334 29.833 77.001 38.5s61.834 13 96.501 13z" />
    <glyph glyph-name="T" unicode="T" horiz-adv-x="603" 
d="M348 614v-614h-93v614h-240v86h573v-86h-240z" />
    <glyph glyph-name="U" unicode="U" horiz-adv-x="723" 
d="M647 263c0 -42 -7.16797 -80 -21.501 -114s-34.166 -63 -59.499 -87s-55.5 -42.5 -90.5 -55.5s-73.167 -19.5 -114.5 -19.5s-79.5 6.5 -114.5 19.5s-65.167 31.5 -90.5 55.5s-45 53 -59 87s-21 72 -21 114v437h92v-437c0 -57.333 17 -103.166 51 -137.499
s81.333 -51.5 142 -51.5c29.333 0 56 4.5 80 13.5s44.5 21.667 61.5 38s30 36.166 39 59.499s13.5 49.333 13.5 78v437h92v-437z" />
    <glyph glyph-name="V" unicode="V" horiz-adv-x="640" 
d="M637 700l-268 -700h-97l-270 700h100l218 -591l221 591h96z" />
    <glyph glyph-name="W" unicode="W" horiz-adv-x="970" 
d="M756 0h-105l-167 577l-166 -577h-107l-193 700h98l153 -584l173 584h90l172 -585l151 585h97z" />
    <glyph glyph-name="X" unicode="X" horiz-adv-x="657" 
d="M545 0l-217 295l-220 -295h-110l273 364l-252 336h111l199 -274l200 274h108l-250 -336l272 -364h-114z" />
    <glyph glyph-name="Y" unicode="Y" horiz-adv-x="621" 
d="M357 287v-287h-93v287l-268 413h109l207 -329l208 329h106z" />
    <glyph glyph-name="Z" unicode="Z" horiz-adv-x="608" 
d="M32 0v79l412 535h-396v86h516v-77l-413 -537h421v-86h-540z" />
    <glyph glyph-name="bracketleft" unicode="[" horiz-adv-x="290" 
d="M75 -114v864h216v-69h-137v-725h137v-70h-216z" />
    <glyph glyph-name="backslash" unicode="\" horiz-adv-x="340" 
d="M243 -108l-220 822h71l220 -822h-71z" />
    <glyph glyph-name="bracketright" unicode="]" horiz-adv-x="291" 
d="M-1 -114v70h138v725h-138v69h217v-864h-217z" />
    <glyph glyph-name="asciicircum" unicode="^" 
d="M507 384l-212 213l-214 -213l-52 53l229 229h72l229 -229z" />
    <glyph glyph-name="underscore" unicode="_" horiz-adv-x="592" 
d="M-2 -125v50h597v-50h-597z" />
    <glyph glyph-name="grave" unicode="`" horiz-adv-x="306" 
d="M195 593c-15.333 8.66699 -30.666 18.998 -45.999 30.998s-29.833 24.667 -43.5 38s-25.834 26.833 -36.501 40.5s-19 26.834 -25 39.501l92 14c4.66699 -9.33301 10.667 -19.666 18 -30.999s15.5 -22.833 24.5 -34.5l27 -34.5c9 -11.333 18.167 -22 27.5 -32z" />
    <glyph glyph-name="a" unicode="a" horiz-adv-x="556" 
d="M552 2c-9.33301 -3.33301 -19.335 -5.83301 -30.002 -7.5s-20.334 -2.5 -29.001 -2.5c-25.333 0 -47.5 6.5 -66.5 19.5s-30.833 33.833 -35.5 62.5c-22.667 -32.667 -50.167 -55.167 -82.5 -67.5s-64.5 -18.5 -96.5 -18.5c-53.333 0 -96 13.833 -128 41.5
s-48 66.167 -48 115.5c0 30 5.83301 54.5 17.5 73.5s26.5 34 44.5 45s37.5 19 58.5 24s40.5 8.5 58.5 10.5l61.5 8c20.333 2.66699 38.333 6.5 54 11.5s28.334 12.167 38.001 21.5s14.5 22 14.5 38c0 14 -3.66699 25.833 -11 35.5s-16.833 17.5 -28.5 23.5
s-24.667 10.167 -39 12.5s-28.166 3.5 -41.499 3.5c-28.667 0 -57 -4.66699 -85 -14s-53.667 -22.666 -77 -39.999l-40 64c30 21.333 61.667 37.666 95 48.999s70.333 17 111 17c30 0 57.333 -3.33301 82 -10s45.834 -16.667 63.501 -30s31.5 -30.333 41.5 -51
s15 -45 15 -73v-249c0 -19.333 3 -33.333 9 -42s16.667 -13 32 -13c12.667 0 23 2 31 6zM382.998 289c-9.33301 -11.333 -19.332 -19.833 -29.999 -25.5s-22.334 -10.167 -35.001 -13.5s-26.167 -5.83301 -40.5 -7.5s-29.5 -3.83398 -45.5 -6.50098
c-15.333 -2.66699 -29.5 -5.66699 -42.5 -9s-24.333 -8.33301 -34 -15s-17.334 -15 -23.001 -25s-8.5 -23 -8.5 -39c0 -31.333 10.333 -53.833 31 -67.5s46.334 -20.5 77.001 -20.5c18.667 0 37.167 2.66699 55.5 8s34.5 13.5 48.5 24.5s25.333 25.333 34 43
s13 38.834 13 63.501v90z" />
    <glyph glyph-name="b" unicode="b" horiz-adv-x="619" 
d="M157 714l0.000976562 -284c24.667 35.333 52.834 60.333 84.501 75s65.167 22 100.5 22c37.333 0 70.833 -6.83301 100.5 -20.5s54.667 -32.5 75 -56.5s36 -52.5 47 -85.5s16.5 -68.5 16.5 -106.5s-5.5 -73.5 -16.5 -106.5s-26.833 -61.667 -47.5 -86
s-45.834 -43.333 -75.501 -57s-62.834 -20.5 -99.501 -20.5c-36 0 -69.667 7.5 -101 22.5s-59.333 39.833 -84 74.5v-85h-86v714h86zM157.001 257c0 -26.667 3.66602 -51.5 10.999 -74.5s18.166 -43 32.499 -60s32 -30.5 53 -40.5s45.167 -15 72.5 -15s51.333 5 72 15
s37.834 23.5 51.501 40.5s23.834 37 30.501 60s10 47.833 10 74.5c0 26 -3.33301 50.667 -10 74s-16.834 43.666 -30.501 60.999s-30.667 31 -51 41s-44.5 15 -72.5 15c-27.333 0 -51.5 -5 -72.5 -15s-38.667 -23.667 -53 -41s-25.166 -37.666 -32.499 -60.999
s-11 -48 -11 -74z" />
    <glyph glyph-name="c" unicode="c" horiz-adv-x="525" 
d="M499 96c-22 -31.333 -50.4971 -57.167 -85.4971 -77.5s-76.5 -30.5 -124.5 -30.5c-38.667 0 -73.5 6.83301 -104.5 20.5s-57.333 32.5 -79 56.5s-38.334 52.5 -50.001 85.5s-17.5 68.833 -17.5 107.5c0 38 5.83301 73.5 17.5 106.5s28.5 61.5 50.5 85.5
s48.5 42.833 79.5 56.5s65.5 20.5 103.5 20.5c46.667 0 87.5 -9.83301 122.5 -29.5s63.833 -45.834 86.5 -78.501l-67 -47c-15.333 23.333 -34.5 42 -57.5 56s-50.167 21 -81.5 21c-25.333 0 -48 -4.83301 -68 -14.5s-37 -23 -51 -40s-24.833 -37.167 -32.5 -60.5
s-11.5 -48.666 -11.5 -75.999s3.83301 -52.833 11.5 -76.5s18.5 -44 32.5 -61s31 -30.333 51 -40s42.333 -14.5 67 -14.5c33.333 0 61.666 7.5 84.999 22.5s42.666 33.5 57.999 55.5z" />
    <glyph glyph-name="d" unicode="d" horiz-adv-x="619" 
d="M462 0l0.000976562 85c-24.667 -35.333 -52.834 -60.333 -84.501 -75s-65.167 -22 -100.5 -22c-37.333 0 -70.666 6.83301 -99.999 20.5s-54.333 32.667 -75 57s-36.5 52.833 -47.5 85.5s-16.5 68 -16.5 106s5.5 73.5 16.5 106.5s26.833 61.667 47.5 86
s45.667 43.333 75 57s62.666 20.5 99.999 20.5c36 0 69.667 -7.5 101 -22.5s59.333 -39.833 84 -74.5v284h86v-714h-86zM462.001 258c0 26.667 -3.66699 51.499 -11 74.499s-18.166 43 -32.499 60s-32 30.5 -53 40.5s-45.167 15 -72.5 15s-51.333 -5 -72 -15
s-37.834 -23.5 -51.501 -40.5s-23.834 -37.167 -30.501 -60.5s-10 -48 -10 -74s3.33301 -50.667 10 -74s16.834 -43.666 30.501 -60.999s30.667 -31 51 -41s44.5 -15 72.5 -15s52.5 5 73.5 15s38.5 23.667 52.5 41s24.667 37.5 32 60.5s11 47.833 11 74.5z" />
    <glyph glyph-name="e" unicode="e" horiz-adv-x="572" 
d="M540 273c0 -8 -0.166992 -14.668 -0.5 -20.001s-0.833008 -9.66602 -1.5 -12.999h-409c0 -20.667 3.33301 -41 10 -61s15.667 -36.667 27 -50c32 -41.333 78.333 -62 139 -62s112.334 22.333 155.001 67l57 -56c-26.667 -28 -57.5 -50 -92.5 -66s-75.5 -24 -121.5 -24
c-42 0 -79.5 6.83301 -112.5 20.5s-60.833 32.5 -83.5 56.5s-39.834 52.333 -51.501 85s-17.5 68 -17.5 106s5.83301 73.5 17.5 106.5s28.5 61.667 50.5 86s48.667 43.5 80 57.5s66.666 21 105.999 21c38 0 72.333 -6.5 103 -19.5s56.834 -30.833 78.501 -53.5
s38.167 -49.5 49.5 -80.5s17 -64.5 17 -100.5zM451 303.999c0 13.333 -2 25.832 -6 37.499s-8.66699 22.834 -14 33.501c-14 26 -33.333 45.667 -58 59s-52 20 -82 20c-22.667 0 -43.5 -3.66699 -62.5 -11s-35.333 -17.5 -49 -30.5s-24.667 -28.833 -33 -47.5
s-13.5 -39 -15.5 -61h320z" />
    <glyph glyph-name="f" unicode="f" horiz-adv-x="336" 
d="M331 643c-8 2 -17.332 3.99902 -27.999 5.99902s-22.667 3 -36 3c-24 0 -42.167 -5.16699 -54.5 -15.5s-18.5 -28.166 -18.5 -53.499v-68h123v-73h-123v-442h-86v442h-89v73h89v67c0 48.667 14 84.667 42 108s65.667 35 113 35c14.667 0 29.167 -1 43.5 -3
s26.166 -4.66699 35.499 -8z" />
    <glyph glyph-name="g" unicode="g" horiz-adv-x="621" 
d="M551 82c0 -40 -4.16699 -75.002 -12.5 -105.002s-22.833 -56.667 -43.5 -80c-25.333 -28.667 -56.833 -49.334 -94.5 -62.001s-79.167 -19 -124.5 -19c-83.333 0 -155.333 20.667 -216 62l43 69c24 -16.667 50.5 -29.667 79.5 -39s60.833 -14 95.5 -14
c26 0 50.5 3.16699 73.5 9.5s42.833 16.5 59.5 30.5s29.834 31.833 39.501 53.5s14.5 47.5 14.5 77.5v56c-21.333 -33.333 -49 -57.833 -83 -73.5s-69.667 -23.5 -107 -23.5c-35.333 0 -67.333 6.33301 -96 19s-53.334 30 -74.001 52s-36.667 48.333 -48 79s-17 64 -17 100
c0 36.667 5.83301 70.334 17.5 101.001s28.167 57.334 49.5 80.001s46.5 40.334 75.5 53.001s61.167 19 96.5 19c37.333 0 72.333 -7.83301 105 -23.5s59.667 -40.167 81 -73.5v85h86v-433zM466 276.998c0 24 -3.66797 46.5 -11.001 67.5s-18.166 39.333 -32.499 55
s-32.166 28 -53.499 37s-46 13.5 -74 13.5s-52.167 -4.5 -72.5 -13.5s-37.333 -21.333 -51 -37s-23.834 -34 -30.501 -55s-10 -43.5 -10 -67.5s3.33301 -46.667 10 -68s16.834 -40 30.501 -56s30.834 -28.667 51.501 -38s44.667 -14 72 -14s51.666 4.66699 72.999 14
s39.166 22 53.499 38s25.333 34.667 33 56s11.5 44 11.5 68z" />
    <glyph glyph-name="h" unicode="h" horiz-adv-x="583" 
d="M70 0v714.001h86v-285c21.333 32 46.833 56.333 76.5 73s63.5 25 101.5 25c56.667 0 101.167 -17.167 133.5 -51.5s48.5 -82.5 48.5 -144.5v-331h-86v311c0 15.333 -1.5 31.166 -4.5 47.499s-8.66699 31 -17 44s-20 23.667 -35 32s-34.833 12.5 -59.5 12.5
c-22.667 0 -43.667 -4 -63 -12s-36 -19.167 -50 -33.5s-25 -31.5 -33 -51.5s-12 -42 -12 -66v-284h-86z" />
    <glyph glyph-name="i" unicode="i" horiz-adv-x="228" 
d="M71 0v515h86v-515h-86zM71 627v87h86v-87h-86z" />
    <glyph glyph-name="j" unicode="j" horiz-adv-x="228" 
d="M157 -1c0 -30.667 -4.33398 -57.334 -13.001 -80.001s-20.667 -41.5 -36 -56.5s-33.666 -26.167 -54.999 -33.5s-44.333 -11 -69 -11c-16 0 -31.167 1.33301 -45.5 4s-26.5 6.33398 -36.5 11.001l23 72c14.667 -7.33301 33 -11 55 -11c34 0 57.667 9.33301 71 28
s20 43.667 20 75v518h86v-516zM70.999 627v87h86v-87h-86z" />
    <glyph glyph-name="k" unicode="k" horiz-adv-x="553" 
d="M419 515h109l-211 -211l238 -304h-109l-189 248l-100 -101v-147h-86v714h86v-466z" />
    <glyph glyph-name="l" unicode="l" horiz-adv-x="233" 
d="M73 0v714h86v-714h-86z" />
    <glyph glyph-name="m" unicode="m" horiz-adv-x="902" 
d="M70 0l0.00292969 514.998h86v-84c22 31.333 46.5 55.166 73.5 71.499s58.833 24.5 95.5 24.5c38 0 70.333 -9 97 -27s45.667 -44 57 -78c21.333 32.667 47.5 58.334 78.5 77.001s66.167 28 105.5 28c55.333 0 98.166 -17 128.499 -51s45.166 -81.333 44.499 -142v-334
h-86v313c0 16.667 -1.16699 33 -3.5 49s-7.5 30.333 -15.5 43s-19 22.834 -33 30.501s-32.333 11.5 -55 11.5c-21.333 0 -40.833 -3.83301 -58.5 -11.5s-33 -18.5 -46 -32.5s-23.167 -30.833 -30.5 -50.5s-11 -41.5 -11 -65.5v-287h-87v313c0 16.667 -1.33301 33 -4 49
s-7.83398 30.333 -15.501 43s-18.5 22.834 -32.5 30.501s-32.333 11.5 -55 11.5c-21.333 0 -40.833 -3.83301 -58.5 -11.5s-33 -18.5 -46 -32.5s-23.333 -30.833 -31 -50.5s-11.5 -41.5 -11.5 -65.5v-287h-86z" />
    <glyph glyph-name="n" unicode="n" horiz-adv-x="583" 
d="M70 0v515.001h86v-86c21.333 32 46.833 56.333 76.5 73s63.5 25 101.5 25c56.667 0 101.167 -17.167 133.5 -51.5s48.5 -82.5 48.5 -144.5v-331h-86v311c0 15.333 -1.5 31.166 -4.5 47.499s-8.66699 31 -17 44s-20 23.667 -35 32s-34.833 12.5 -59.5 12.5
c-22.667 0 -43.667 -4 -63 -12s-36 -19.167 -50 -33.5s-25 -31.5 -33 -51.5s-12 -42 -12 -66v-284h-86z" />
    <glyph glyph-name="o" unicode="o" horiz-adv-x="586" 
d="M549 257c0 -38.667 -6 -74.334 -18 -107.001s-29 -61 -51 -85s-48.833 -42.833 -80.5 -56.5s-67.167 -20.5 -106.5 -20.5s-74.666 6.83301 -105.999 20.5s-58 32.5 -80 56.5s-39 52.333 -51 85s-18 68.334 -18 107.001s6 74.5 18 107.5s29 61.5 51 85.5
s48.667 42.833 80 56.5s66.666 20.5 105.999 20.5s74.833 -6.83301 106.5 -20.5s58.5 -32.5 80.5 -56.5s39 -52.5 51 -85.5s18 -68.833 18 -107.5zM457 257c0 27.333 -3.66699 52.666 -11 75.999s-18 43.666 -32 60.999s-31.167 31 -51.5 41s-43.5 15 -69.5 15
s-49.167 -5 -69.5 -15s-37.5 -23.667 -51.5 -41s-24.667 -37.666 -32 -60.999s-11 -48.666 -11 -75.999c0 -26.667 3.66699 -51.834 11 -75.501s18 -44 32 -61s31.167 -30.5 51.5 -40.5s43.5 -15 69.5 -15s49.167 5 69.5 15s37.5 23.5 51.5 40.5s24.667 37.333 32 61
s11 48.834 11 75.501z" />
    <glyph glyph-name="p" unicode="p" horiz-adv-x="619" 
d="M157 515l0.000976562 -85c24.667 35.333 52.834 60.333 84.501 75s65.167 22 100.5 22c37.333 0 70.833 -6.83301 100.5 -20.5s54.667 -32.667 75 -57s36 -52.833 47 -85.5s16.5 -68 16.5 -106s-5.5 -73.5 -16.5 -106.5s-26.833 -61.667 -47.5 -86
s-45.834 -43.333 -75.501 -57s-62.834 -20.5 -99.501 -20.5c-36 0 -69.667 7.5 -101 22.5s-59.333 39.5 -84 73.5v-258h-86v689h86zM157.001 257c0 -26.667 3.66699 -51.499 11 -74.499s18.166 -43 32.499 -60s32 -30.5 53 -40.5s45.167 -15 72.5 -15s51.333 5 72 15
s37.834 23.5 51.501 40.5s23.834 37.167 30.501 60.5s10 48 10 74s-3.33301 50.667 -10 74s-16.834 43.666 -30.501 60.999s-30.667 31 -51 41s-44.5 15 -72.5 15s-52.5 -5 -73.5 -15s-38.5 -23.667 -52.5 -41s-24.667 -37.5 -32 -60.5s-11 -47.833 -11 -74.5z" />
    <glyph glyph-name="q" unicode="q" horiz-adv-x="619" 
d="M462 -174l0.000976562 259c-24.667 -35.333 -52.834 -60.333 -84.501 -75s-65.167 -22 -100.5 -22c-37.333 0 -70.666 6.83301 -99.999 20.5s-54.333 32.667 -75 57s-36.5 52.833 -47.5 85.5s-16.5 68 -16.5 106s5.5 73.5 16.5 106.5s26.833 61.667 47.5 86
s45.667 43.333 75 57s62.666 20.5 99.999 20.5c36 0 69.667 -7.33301 101 -22s59.333 -39.667 84 -75v85h86v-689h-86zM462.001 258c0 26.667 -3.66699 51.5 -11 74.5s-18.166 43 -32.499 60s-32 30.5 -53 40.5s-45.167 15 -72.5 15s-51.333 -5 -72 -15
s-37.834 -23.5 -51.501 -40.5s-23.834 -37 -30.501 -60s-10 -47.833 -10 -74.5c0 -26 3.33301 -50.667 10 -74s16.834 -43.666 30.501 -60.999s30.667 -31 51 -41s44.5 -15 72.5 -15s52.5 5 73.5 15s38.5 23.667 52.5 41s24.667 37.666 32 60.999s11 48 11 74z" />
    <glyph glyph-name="r" unicode="r" horiz-adv-x="386" 
d="M352 425c-9.33301 4.66699 -18.832 8.33301 -28.499 11s-20.167 4 -31.5 4c-17.333 0 -34.166 -3.83301 -50.499 -11.5s-30.833 -18.667 -43.5 -33s-22.667 -32.333 -30 -54s-11 -46.5 -11 -74.5v-267h-86v515h86v-88c17.333 28 38.833 51.333 64.5 70s54.5 28 86.5 28
c15.333 0 29.166 -1.83301 41.499 -5.5s22.166 -8.16699 29.499 -13.5z" />
    <glyph glyph-name="s" unicode="s" horiz-adv-x="503" 
d="M468 152c0 -48.667 -18.6689 -88.1689 -56.002 -118.502s-89.333 -45.5 -156 -45.5c-51.333 0 -96.333 9.16699 -135 27.5s-70 44.5 -94 78.5l60 50c20 -27.333 44.5 -48.166 73.5 -62.499s61.833 -21.5 98.5 -21.5c34.667 0 64 7 88 21s36 35.667 36 65
c0 13.333 -2.83301 24.166 -8.5 32.499s-14.334 15.5 -26.001 21.5s-26.5 11 -44.5 15l-65 14c-24 4.66699 -47.167 10.167 -69.5 16.5s-42 15 -59 26s-30.5 24.833 -40.5 41.5s-15 37.667 -15 63c0 26.667 5.33301 49.5 16 68.5s24.834 34.667 42.501 47s38 21.333 61 27
s47.167 8.5 72.5 8.5c24.667 0 47.5 -2.33301 68.5 -7s40.333 -11 58 -19s33.5 -17 47.5 -27s26 -20.333 36 -31l-57 -54c-19.333 22.667 -42.166 39.334 -68.499 50.001s-54.5 16 -84.5 16c-14 0 -27.667 -1.33301 -41 -4s-25 -6.66699 -35 -12
s-18.167 -12.666 -24.5 -21.999s-9.5 -20.333 -9.5 -33c0 -13.333 3.5 -24.333 10.5 -33s16.333 -16 28 -22s25.334 -10.833 41.001 -14.5s32.167 -7.16699 49.5 -10.5c26 -4.66699 51.167 -10 75.5 -16s45.833 -14.5 64.5 -25.5s33.667 -25.333 45 -43s17 -40.167 17 -67.5
z" />
    <glyph glyph-name="t" unicode="t" horiz-adv-x="379" 
d="M372 23c-30 -23.333 -67.334 -34.998 -112.001 -34.998c-30.667 0 -57.667 5.16699 -81 15.5s-41.666 27.166 -54.999 50.499c-7.33301 13.333 -12.833 27.666 -16.5 42.999s-5.5 35.333 -5.5 60v285h-89v73h89v151h86v-151h169v-73h-169v-285
c0 -60.667 26.667 -91 80 -91c16 0 29.5 2.33301 40.5 7s20.167 9.66699 27.5 15z" />
    <glyph glyph-name="u" unicode="u" horiz-adv-x="582" 
d="M512 515l0.00292969 -515.001h-86v86c-22 -32 -47.667 -56.333 -77 -73s-63 -25 -101 -25c-56.667 0 -101.334 17.167 -134.001 51.5s-49 82.833 -49 145.5v330h86v-310c0 -16 1.5 -32 4.5 -48s8.66699 -30.667 17 -44s20.166 -24.166 35.499 -32.499s35 -12.5 59 -12.5
c22.667 0 43.667 4 63 12s36.166 19.167 50.499 33.5s25.5 31.5 33.5 51.5s12 42 12 66v284h86z" />
    <glyph glyph-name="v" unicode="v" horiz-adv-x="520" 
d="M304 0h-89l-208 515h97l157 -412l157 412h95z" />
    <glyph glyph-name="w" unicode="w" horiz-adv-x="770" 
d="M606 0h-94l-127 406l-127 -406h-95l-143 515h91l106 -413l130 413h80l129 -413l106 413h88z" />
    <glyph glyph-name="x" unicode="x" horiz-adv-x="522" 
d="M409 0l-148 208l-149 -208h-105l201 269l-183 246h104l135 -189l132 189h102l-182 -246l198 -269h-105z" />
    <glyph glyph-name="y" unicode="y" horiz-adv-x="519" 
d="M304 -25c-10 -26 -20.332 -48.8311 -30.999 -68.498s-23 -36.334 -37 -50.001s-30 -23.834 -48 -30.501s-39 -10 -63 -10c-40.667 0 -75.667 10.667 -105 32l37 63c9.33301 -6 19.166 -10.833 29.499 -14.5s21.5 -5.5 33.5 -5.5c24 0 43 7.5 57 22.5
s25.667 33.833 35 56.5l14 31l-220 514h99l166 -401l148 401h92z" />
    <glyph glyph-name="z" unicode="z" horiz-adv-x="490" 
d="M33 0v70l307 368h-294v77h403v-69l-308 -370h317v-76h-425z" />
    <glyph glyph-name="braceleft" unicode="{" horiz-adv-x="353" 
d="M317 -120c-26 0 -49.833 4.00195 -71.5 12.002s-40.5 19.5 -56.5 34.5s-28.333 33.667 -37 56s-13 48.166 -13 77.499v117c0 31.333 -6.83301 57 -20.5 77s-38.834 30 -75.501 30h-29v69h29c36.667 0 61.834 10 75.501 30s20.5 45.667 20.5 77v117
c0 28.667 4.33301 54.334 13 77.001s21 41.5 37 56.5s34.833 26.5 56.5 34.5s45.5 12 71.5 12h39v-70h-38c-36 0 -61.333 -9.83301 -76 -29.5s-22 -45.834 -22 -78.501v-113c0 -39.333 -7.83301 -71 -23.5 -95s-37.5 -41.667 -65.5 -53c28 -10.667 49.833 -28 65.5 -52
s23.5 -55.667 23.5 -95v-113c0 -32.667 7.33301 -58.834 22 -78.501s40 -29.5 76 -29.5h38v-70h-39z" />
    <glyph glyph-name="bar" unicode="|" horiz-adv-x="211" 
d="M73 -108v822h66v-822h-66z" />
    <glyph glyph-name="braceright" unicode="}" horiz-adv-x="353" 
d="M311 284c-36.667 0 -62 -9.83301 -76 -29.5s-21 -45.5 -21 -77.5v-117c0 -58.667 -16.5 -103.334 -49.5 -134.001s-75.833 -46 -128.5 -46h-39v70h38c37.333 0 63.333 9.83301 78 29.5s22 45.834 22 78.501v113c0 39.333 7.5 71 22.5 95s36.5 41.333 64.5 52
c-28 11.333 -49.5 29 -64.5 53s-22.5 55.667 -22.5 95v113c0 32.667 -7.33301 58.834 -22 78.501s-40.667 29.5 -78 29.5h-38v70h39c52.667 0 95.5 -15.333 128.5 -46s49.5 -75.334 49.5 -134.001v-117c0 -32 7 -57.833 21 -77.5s39.333 -29.5 76 -29.5h28v-69h-28z" />
    <glyph glyph-name="asciitilde" unicode="~" 
d="M42 275c16 18 30.833 33.6699 44.5 47.0029s27.167 24.666 40.5 33.999s27 16.333 41 21s29.667 7 47 7c10 0 20.667 -1.5 32 -4.5s25.666 -9.83301 42.999 -20.5c15.333 -10 28 -18 38 -24s18.5 -10.667 25.5 -14s12.833 -5.5 17.5 -6.5s9.66699 -1.5 15 -1.5
c18.667 0 36.5 5.66699 53.5 17s37.167 29.666 60.5 54.999l48 -40c-16 -18 -30.833 -33.833 -44.5 -47.5s-27.167 -25 -40.5 -34s-27.166 -15.833 -41.499 -20.5s-29.833 -7 -46.5 -7c-10 0 -20.667 1.33301 -32 4s-25.666 9.66699 -42.999 21
c-17.333 9.33301 -31 17 -41 23s-18.167 10.667 -24.5 14s-11.5 5.66602 -15.5 6.99902s-9 2 -15 2c-18.667 0 -36.334 -5.83301 -53.001 -17.5s-37 -30.167 -61 -55.5z" />
    <glyph glyph-name="uni00A0" unicode="&#xa0;" horiz-adv-x="270" 
 />
    <glyph glyph-name="exclamdown" unicode="&#xa1;" horiz-adv-x="251" 
d="M76 -174v148l26 338h47l26 -338v-148h-99zM76 405v110h99v-110h-99z" />
    <glyph glyph-name="cent" unicode="&#xa2;" 
d="M523 102c-19.333 -30 -44.165 -55.1689 -74.498 -75.502s-66.5 -32.833 -108.5 -37.5v-83h-54v84c-34.667 2.66699 -65.834 11.5 -93.501 26.5s-51.167 34.5 -70.5 58.5s-34.166 51.833 -44.499 83.5s-15.5 65.5 -15.5 101.5s5.16699 69.833 15.5 101.5
s25 59.334 44 83.001s42.333 43 70 58s59.167 24.167 94.5 27.5v83h54v-82c40 -4 75.333 -15.667 106 -35s56 -44.666 76 -75.999l-70 -42c-12.667 20 -28.334 36.5 -47.001 49.5s-40.334 21.167 -65.001 24.5v-385c25.333 4 47.5 12.833 66.5 26.5s34.167 30.167 45.5 49.5
zM150.001 259.998c0 -25.333 3.16602 -48.833 9.49902 -70.5s15.333 -41 27 -58s25.834 -31 42.501 -42s35.667 -18.167 57 -21.5v384c-21.333 -3.33301 -40.5 -10.5 -57.5 -21.5s-31.333 -25 -43 -42s-20.5 -36.5 -26.5 -58.5s-9 -45.333 -9 -70z" />
    <glyph glyph-name="sterling" unicode="&#xa3;" 
d="M578 99c-16 -38.667 -36 -67.002 -60 -85.002s-51 -27 -81 -27c-17.333 0 -34.5 2.33301 -51.5 7s-34.167 9.66699 -51.5 15s-34.833 10.333 -52.5 15s-35.834 7 -54.501 7c-19.333 0 -43.166 -3.16699 -71.499 -9.5s-57.5 -17.833 -87.5 -34.5l-33 66
c42.667 26 71.834 52.167 87.501 78.5s23.5 52.5 23.5 78.5c0 12 -1.5 25.5 -4.5 40.5s-7.83301 30.167 -14.5 45.5h-108v65h84c-6.66699 16.667 -12.334 31.5 -17.001 44.5s-8.66699 25 -12 36s-5.83301 21.5 -7.5 31.5s-2.5 20.667 -2.5 32c0 32.667 6 61.834 18 87.501
s28.667 47.5 50 65.5s46.5 31.833 75.5 41.5s60.5 14.5 94.5 14.5c53.333 0 99.833 -11.333 139.5 -34s73.5 -55 101.5 -97l-78 -46c-16.667 26 -38.334 47.333 -65.001 64s-59 25 -97 25c-20 0 -38.833 -2.66699 -56.5 -8s-33 -13.166 -46 -23.499
s-23.167 -23.333 -30.5 -39s-11 -33.834 -11 -54.501c0 -25.333 4.66699 -49.666 14 -72.999l27 -67h212v-65h-193c4 -12.667 7 -25.834 9 -39.501s2.33301 -26.167 1 -37.5c-0.666992 -18.667 -5 -39 -13 -61s-23.667 -45.667 -47 -71
c17.333 7.33301 32.333 12.666 45 15.999s26.667 5 42 5c17.333 0 33.666 -1.66699 48.999 -5s29.833 -7.16602 43.5 -11.499s26.834 -8.16602 39.501 -11.499s25.667 -5 39 -5c20.667 0 36.834 5 48.501 15s22.167 26.333 31.5 49l71 -40v0z" />
    <glyph glyph-name="currency" unicode="&#xa4;" 
d="M172 304c0 -17.333 3.16699 -33.333 9.5 -48s15 -27.5 26 -38.5s23.833 -19.667 38.5 -26s30.667 -9.5 48 -9.5c16.667 0 32.5 3.16699 47.5 9.5s28 15 39 26s19.667 23.833 26 38.5s9.5 30.667 9.5 48c0 16.667 -3.16699 32.5 -9.5 47.5s-15 28 -26 39
s-24 19.667 -39 26s-30.833 9.5 -47.5 9.5c-17.333 0 -33.333 -3.16699 -48 -9.5s-27.5 -15 -38.5 -26s-19.667 -24 -26 -39s-9.5 -30.833 -9.5 -47.5zM105 304c0 19.333 2.83203 37.665 8.49902 54.998s13.167 33.333 22.5 48l-71 73l53 54l72 -73
c14.667 10 30.834 17.833 48.501 23.5s36.167 8.5 55.5 8.5s37.666 -2.83301 54.999 -8.5s33.333 -13.5 48 -23.5l72 73l54 -54l-72 -72c10 -15.333 17.833 -31.666 23.5 -48.999s8.5 -35.666 8.5 -54.999s-2.83301 -37.833 -8.5 -55.5s-13.5 -33.834 -23.5 -48.501l72 -71
l-54 -55l-71 72c-15.333 -9.33301 -31.666 -16.833 -48.999 -22.5s-35.666 -8.5 -54.999 -8.5s-37.833 2.83301 -55.5 8.5s-33.834 13.167 -48.501 22.5l-72 -72l-53 55l71 71c-9.33301 14.667 -16.833 30.834 -22.5 48.501s-8.5 36.167 -8.5 55.5z" />
    <glyph glyph-name="yen" unicode="&#xa5;" 
d="M385 365h142v-54h-171l-16 -26v-65h187v-54h-187v-166h-93v166h-188v54h188v65l-16 26h-172v54h144l-184 336h108l170 -332l167 332h106z" />
    <glyph glyph-name="brokenbar" unicode="&#xa6;" horiz-adv-x="209" 
d="M74 400v314h61v-314h-61zM74 -108v314h61v-314h-61z" />
    <glyph glyph-name="section" unicode="&#xa7;" horiz-adv-x="527" 
d="M492 140c0 -38 -6.16504 -73.3311 -18.498 -105.998s-30 -61.167 -53 -85.5s-51 -43.333 -84 -57s-69.833 -20.5 -110.5 -20.5c-34 0 -66.167 4.83301 -96.5 14.5s-57.166 24.167 -80.499 43.5l49 64c16.667 -14.667 35.5 -25.834 56.5 -33.501s45.167 -11.5 72.5 -11.5
c68.667 0 119 27 151 81l-44.5 28l-44.5 28l-46 28c-27.333 17.333 -53.833 35.833 -79.5 55.5s-48.167 41.334 -67.5 65.001s-34.833 50.167 -46.5 79.5s-17.5 62 -17.5 98c0 38 6.16699 73.333 18.5 106s30.166 61 53.499 85s51.333 42.833 84 56.5s69.667 20.5 111 20.5
c34 0 66.167 -5 96.5 -15s57.166 -24.333 80.499 -43l-50 -64c-16 14 -34.5 25 -55.5 33s-45.167 12 -72.5 12c-68.667 0 -119 -26.667 -151 -80l44 -28.5l45 -28.5l52 -33c29.333 -18.667 56.333 -37.834 81 -57.501s46.167 -41.167 64.5 -64.5
s32.666 -48.833 42.999 -76.5s15.5 -58.834 15.5 -93.501zM410.002 140.002c0 28 -4.33105 53.168 -12.998 75.501s-21.334 43.333 -38.001 63s-37.334 39 -62.001 58l-85 62.5l-91 64l-3.5 -19c-1 -5.33301 -1.5 -10.333 -1.5 -15c-0.666992 -4.66699 -1 -9 -1 -13v-11
c0.666992 -28 5.16699 -52.833 13.5 -74.5s20.833 -42.167 37.5 -61.5s37.167 -38.333 61.5 -57s52.5 -39 84.5 -61l93 -63c2 13.333 3.33301 23.666 4 30.999s1 14.333 1 21z" />
    <glyph glyph-name="dieresis" unicode="&#xa8;" horiz-adv-x="306" 
d="M2 606v82h80v-82h-80zM224 606v82h80v-82h-80z" />
    <glyph glyph-name="copyright" unicode="&#xa9;" horiz-adv-x="803" 
d="M771 350c0 -50.667 -9.66699 -98.334 -29 -143.001s-45.833 -83.834 -79.5 -117.501s-72.834 -60.167 -117.501 -79.5s-92.334 -29 -143.001 -29c-51.333 0 -99.333 9.66699 -144 29s-83.834 45.833 -117.501 79.5s-60.167 72.834 -79.5 117.501s-29 92.334 -29 143.001
s9.66699 98.5 29 143.5s45.833 84.167 79.5 117.5s72.834 59.666 117.501 78.999s92.667 29 144 29c50.667 0 98.334 -9.66699 143.001 -29s83.834 -45.666 117.501 -78.999s60.167 -72.5 79.5 -117.5s29 -92.833 29 -143.5zM715 350
c0 43.333 -8.16699 84.166 -24.5 122.499s-38.666 71.666 -66.999 99.999s-61.5 50.833 -99.5 67.5s-78.667 25 -122 25s-84.166 -8.33301 -122.499 -25s-71.833 -39.167 -100.5 -67.5s-51.334 -61.666 -68.001 -99.999s-25 -79.166 -25 -122.499s8.33301 -84 25 -122
s39.334 -71.333 68.001 -100s62.167 -51.167 100.5 -67.5s79.166 -24.5 122.499 -24.5s84 8.16699 122 24.5s71.167 38.833 99.5 67.5s50.666 62 66.999 100s24.5 78.667 24.5 122zM583 243c-19.333 -32 -44.833 -57.001 -76.5 -75.001s-66.5 -27 -104.5 -27
c-29.333 0 -56.666 5.5 -81.999 16.5s-47.5 26 -66.5 45s-34 41.167 -45 66.5s-16.5 52.333 -16.5 81s5.5 55.834 16.5 81.501s26 48 45 67s41.167 34 66.5 45s52.666 16.5 81.999 16.5c37.333 0 71.666 -8.83301 102.999 -26.5s57 -42.5 77 -74.5l-54 -36
c-13.333 23.333 -31.166 41.166 -53.499 53.499s-46.5 18.5 -72.5 18.5c-20 0 -38.833 -3.83301 -56.5 -11.5s-33.167 -18 -46.5 -31s-23.833 -28.333 -31.5 -46s-11.5 -36.5 -11.5 -56.5s3.83301 -38.667 11.5 -56s18.167 -32.666 31.5 -45.999s28.833 -23.833 46.5 -31.5
s36.5 -11.5 56.5 -11.5c26.667 0 51 6.5 73 19.5s40.333 30.833 55 53.5z" />
    <glyph glyph-name="ordfeminine" unicode="&#xaa;" horiz-adv-x="423" 
d="M384 337c-5.33301 -3.33301 -12.332 -5.49609 -20.999 -6.49609s-15.667 -1.5 -21 -1.5c-16.667 0 -31.5 3.66699 -44.5 11s-21.167 20 -24.5 38c-15.333 -20.667 -33.166 -34.5 -53.499 -41.5s-41.5 -10.5 -63.5 -10.5c-33.333 0 -61 9 -83 27s-33 43 -33 75
c0 25.333 5.5 44.666 16.5 57.999s24.833 23.166 41.5 29.499s34.667 10.5 54 12.5s37.333 4.16699 54 6.5s30.5 6.16602 41.5 11.499s16.5 14.666 16.5 27.999c0 8 -2.16699 14.833 -6.5 20.5s-10 10.167 -17 13.5s-15 5.66602 -24 6.99902s-17.833 2 -26.5 2
c-18 0 -36.167 -2.83301 -54.5 -8.5s-35.166 -14.167 -50.499 -25.5l-31 45c20.667 14.667 42.667 25.834 66 33.501s47.666 11.5 72.999 11.5c48 0 82.833 -10.333 104.5 -31s32.5 -53.667 32.5 -99v-131c0 -11.333 1.66699 -19.333 5 -24s9.66602 -7 18.999 -7
c2 0 5.16699 0.5 9.5 1.5s8.16602 2.16699 11.499 3.5zM266.001 509.004c-10 -9.33301 -21.332 -15.165 -33.999 -17.498l-50 -9.5l-31 -5.5c-9.33301 -1.66699 -17.5 -4.33398 -24.5 -8.00098s-12.5 -8.33398 -16.5 -14.001s-6 -13.5 -6 -23.5
c0 -17.333 6.66699 -30 20 -38s28.666 -12 45.999 -12c12 0 23.833 1.66699 35.5 5s22 8.33301 31 15s16.167 15.167 21.5 25.5s8 22.5 8 36.5v46z" />
    <glyph glyph-name="guillemotleft" unicode="&#xab;" horiz-adv-x="449" 
d="M24 274l143 192l52 -39l-122 -167l122 -167l-52 -39l-143 192v28zM212 274l143 192l51 -39l-122 -167l122 -167l-51 -39l-143 192v28z" />
    <glyph glyph-name="logicalnot" unicode="&#xac;" 
d="M451 67v199h-401v76h476v-275h-75z" />
    <glyph glyph-name="uni00AD" unicode="&#xad;" horiz-adv-x="380" 
d="M56 242v78h268v-78h-268z" />
    <glyph glyph-name="registered" unicode="&#xae;" horiz-adv-x="803" 
d="M771 350c0 -50.667 -9.66699 -98.334 -29 -143.001s-45.833 -83.834 -79.5 -117.501s-72.834 -60.167 -117.501 -79.5s-92.334 -29 -143.001 -29c-51.333 0 -99.333 9.66699 -144 29s-83.834 45.833 -117.501 79.5s-60.167 72.834 -79.5 117.501s-29 92.334 -29 143.001
s9.66699 98.5 29 143.5s45.833 84.167 79.5 117.5s72.834 59.666 117.501 78.999s92.667 29 144 29c50.667 0 98.334 -9.66699 143.001 -29s83.834 -45.666 117.501 -78.999s60.167 -72.5 79.5 -117.5s29 -92.833 29 -143.5zM716 350
c0 43.333 -8.16699 84.166 -24.5 122.499s-38.833 71.666 -67.5 99.999s-62 50.833 -100 67.5s-78.667 25 -122 25s-84.166 -8.33301 -122.499 -25s-71.833 -39.167 -100.5 -67.5s-51.334 -61.666 -68.001 -99.999s-25 -79.166 -25 -122.499s8.33301 -84 25 -122
s39.334 -71.333 68.001 -100s62.167 -51.167 100.5 -67.5s79.166 -24.5 122.499 -24.5s84 8.16699 122 24.5s71.333 38.833 100 67.5s51.167 62 67.5 100s24.5 78.667 24.5 122zM504 150l-83 153h-101v-153h-67v402h174c42 0 75.833 -11.167 101.5 -33.5
s38.5 -52.5 38.5 -90.5c0 -28 -7.66699 -51.833 -23 -71.5s-34.333 -33.5 -57 -41.5l90 -165h-73zM499 427c0 20.667 -6.33301 37.333 -19 50s-30.667 19 -54 19h-106v-138h106c24 0 42.167 6.5 54.5 19.5s18.5 29.5 18.5 49.5z" />
    <glyph glyph-name="macron" unicode="&#xaf;" horiz-adv-x="310" 
d="M6 621v58h300v-58h-300z" />
    <glyph glyph-name="degree" unicode="&#xb0;" horiz-adv-x="368" 
d="M334 527c0 -20.667 -4 -40 -12 -58s-18.833 -33.833 -32.5 -47.5s-29.5 -24.334 -47.5 -32.001s-37.333 -11.5 -58 -11.5s-40.167 3.83301 -58.5 11.5s-34.166 18.334 -47.499 32.001s-24 29.5 -32 47.5s-12 37.333 -12 58s4 40.167 12 58.5s18.667 34.333 32 48
s29.166 24.5 47.499 32.5s37.833 12 58.5 12s40 -4 58 -12s33.833 -18.833 47.5 -32.5s24.5 -29.667 32.5 -48s12 -37.833 12 -58.5zM276 527c0 12.667 -2.33301 24.667 -7 36s-11.167 21.166 -19.5 29.499s-18.166 15 -29.499 20s-23.333 7.5 -36 7.5
s-24.5 -2.5 -35.5 -7.5s-20.667 -11.667 -29 -20s-15 -18.166 -20 -29.499s-7.5 -23.333 -7.5 -36c0 -12 2.5 -23.5 7.5 -34.5s11.667 -20.667 20 -29s18 -15 29 -20s22.833 -7.5 35.5 -7.5s24.667 2.5 36 7.5s21.166 11.667 29.499 20s14.833 18 19.5 29s7 22.5 7 34.5z
" />
    <glyph glyph-name="plusminus" unicode="&#xb1;" 
d="M56 0v75h475v-75h-475zM331 338v-194h-76v194h-200v74h200v195h76v-195h200v-74h-200z" />
    <glyph glyph-name="twosuperior" unicode="&#xb2;" horiz-adv-x="366" 
d="M31 337v52l104.5 85c28.333 24 51.333 45.333 69 64s30.334 35.5 38.001 50.5s11.5 29.5 11.5 43.5c0 23.333 -8.66699 41 -26 53s-37 18 -59 18c-20.667 0 -39.334 -5.16699 -56.001 -15.5s-30 -23.166 -40 -38.499l-55 33c18.667 25.333 40.834 45.833 66.501 61.5
s55.5 23.5 89.5 23.5c22 0 42.167 -3 60.5 -9s34.166 -14.5 47.499 -25.5s23.833 -24.833 31.5 -41.5s11.5 -35.334 11.5 -56.001c0 -19.333 -3 -37 -9 -53s-16.167 -32.667 -30.5 -50s-33.333 -36.5 -57 -57.5s-53.5 -45.833 -89.5 -74.5h203v-63h-311z" />
    <glyph glyph-name="threesuperior" unicode="&#xb3;" horiz-adv-x="373" 
d="M342 457c0 -19.333 -3.83398 -36.8311 -11.501 -52.498s-18.5 -29 -32.5 -40s-30.5 -19.667 -49.5 -26s-39.833 -9.5 -62.5 -9.5c-38.667 0 -72 7.16699 -100 21.5s-50.333 37.833 -67 70.5l63 25c11.333 -20.667 26.333 -34.834 45 -42.501s38.667 -11.5 60 -11.5
c26.667 0 47.334 6.5 62.001 19.5s22 29.5 22 49.5c0 18.667 -6.5 33.167 -19.5 43.5s-31.167 15.5 -54.5 15.5h-56v62h53c6.66699 0 14 1 22 3s15.333 5.5 22 10.5s12.167 11.167 16.5 18.5s6.5 16.666 6.5 27.999c0 21.333 -8.5 36.833 -25.5 46.5
s-36.167 14.5 -57.5 14.5c-44 0 -77 -15.667 -99 -47l-53 33c36.667 52 88.667 78 156 78c20.667 0 39.834 -2.5 57.501 -7.5s33.167 -12.5 46.5 -22.5s23.833 -22.167 31.5 -36.5s11.5 -30.833 11.5 -49.5c0 -19.333 -3.83301 -37 -11.5 -53s-20.834 -29 -39.501 -39
c24.667 -9.33301 41.5 -23.833 50.5 -43.5s13.5 -39.167 13.5 -58.5z" />
    <glyph glyph-name="acute" unicode="&#xb4;" horiz-adv-x="306" 
d="M82 624c9.33301 10 18.5 20.6689 27.5 32.002l27 34.5c9 11.667 17.167 23.167 24.5 34.5s13.333 21.666 18 30.999l92 -14c-6 -12.667 -14.333 -25.834 -25 -39.501s-22.834 -27.167 -36.501 -40.5s-28.167 -26 -43.5 -38s-30.666 -22.333 -45.999 -31z" />
    <glyph glyph-name="mu" unicode="&#xb5;" 
d="M55 -174v688.999h86v-306c0 -45.333 9.33301 -80.333 28 -105s48 -37 88 -37c20 0 39 3.5 57 10.5s33.667 17.333 47 31s23.833 30.667 31.5 51s11.5 43.833 11.5 70.5v285h86v-400c0 -18 2.66699 -31.667 8 -41s14.666 -14 27.999 -14c4.66699 0 9.66699 0.5 15 1.5
s9.33301 2.5 12 4.5l10 -65c-7.33301 -3.33301 -16.166 -5.66602 -26.499 -6.99902s-19.166 -2 -26.499 -2c-26 0 -48.333 7.16699 -67 21.5s-29 35.833 -31 64.5c-20.667 -32 -45 -55 -73 -69s-56.333 -21 -85 -21c-26.667 0 -49.834 5.33301 -69.501 16
s-34.167 24 -43.5 40v-218h-86z" />
    <glyph glyph-name="paragraph" unicode="&#xb6;" horiz-adv-x="542" 
d="M419 -91l0.000976562 701.998h-65v-702h-62v349h-59c-29.333 0 -56.333 4.83301 -81 14.5s-46.334 23.334 -65.001 41.001s-33.167 39 -43.5 64s-15.5 53.167 -15.5 84.5s5.5 59.5 16.5 84.5s25.667 46.333 44 64s40 31.334 65 41.001s51.5 14.5 79.5 14.5h236v-757h-50z
" />
    <glyph glyph-name="periodcentered" unicode="&#xb7;" horiz-adv-x="245" 
d="M185 304c0 -17.333 -6 -32 -18 -44s-26.667 -18 -44 -18s-32 6 -44 18s-18 26.667 -18 44s6 32.166 18 44.499s26.667 18.5 44 18.5s32 -6.16699 44 -18.5s18 -27.166 18 -44.499z" />
    <glyph glyph-name="cedilla" unicode="&#xb8;" horiz-adv-x="306" 
d="M46 -84c8 -7.33301 17.501 -13.834 28.501 -19.501s22.833 -8.5 35.5 -8.5c13.333 0 24.833 3.83301 34.5 11.5s14.5 18.167 14.5 31.5c0 27.333 -18 51.333 -54 72l25 16c27.333 -10 49.666 -24 66.999 -42s26 -38.667 26 -62c0 -25.333 -9.83301 -45.5 -29.5 -60.5
s-43.5 -22.5 -71.5 -22.5c-16 0 -30.833 2.33301 -44.5 7s-24.167 10.334 -31.5 17.001v60z" />
    <glyph glyph-name="onesuperior" unicode="&#xb9;" horiz-adv-x="310" 
d="M141 398v280.001c-12 -5.33301 -28 -10.333 -48 -15s-40 -8.33398 -60 -11.001l-9 53c32 6.66699 58.833 14.167 80.5 22.5s39.5 18.833 53.5 31.5h51v-361h95v-61h-271v61h108z" />
    <glyph glyph-name="ordmasculine" unicode="&#xba;" horiz-adv-x="410" 
d="M375 500c0 -24.667 -4 -47.5 -12 -68.5s-19.333 -39.333 -34 -55s-32.5 -27.834 -53.5 -36.501s-44.5 -13 -70.5 -13s-49.5 4.33301 -70.5 13s-38.833 20.834 -53.5 36.501s-26 34 -34 55s-12 43.833 -12 68.5c0 25.333 4 48.666 12 69.999s19.333 39.666 34 54.999
s32.5 27.333 53.5 36s44.5 13 70.5 13s49.5 -4.33301 70.5 -13s38.833 -20.667 53.5 -36s26 -33.666 34 -54.999s12 -44.666 12 -69.999zM308 500c0 32.667 -9.00195 60 -27.002 82s-43.333 33 -76 33s-58 -11 -76 -33s-27 -49.333 -27 -82c0 -16 2.33301 -30.833 7 -44.5
s11.334 -25.667 20.001 -36s19.5 -18.5 32.5 -24.5s27.5 -9 43.5 -9s30.5 3 43.5 9s23.833 14.167 32.5 24.5s15.334 22.333 20.001 36s7 28.5 7 44.5z" />
    <glyph glyph-name="guillemotright" unicode="&#xbb;" horiz-adv-x="449" 
d="M424 246l-143 -192l-51 39l122 167l-122 167l51 39l143 -192v-28zM237 246l-143 -192l-52 39l122 167l-122 167l52 39l143 -192v-28z" />
    <glyph glyph-name="onequarter" unicode="&#xbc;" horiz-adv-x="935" 
d="M836 97l-0.00195312 -97h-67v97h-212v56c11.333 20 22.166 41.333 32.499 64s19.333 45.667 27 69s13.834 46.5 18.501 69.5s7.33398 45.167 8.00098 66.5h67c-1.33301 -42 -9.66602 -86.5 -24.999 -133.5s-34 -90.5 -56 -130.5h140v169h67v-169h63v-61h-63zM253.998 0
h-66l482 700h65zM165.998 339v280.001c-12 -5.33301 -28 -10.333 -48 -15s-40 -8.33398 -60 -11.001l-10 53c32 6.66699 59 14.167 81 22.5s40 18.833 54 31.5h51v-361h95v-61h-271v61h108z" />
    <glyph glyph-name="onehalf" unicode="&#xbd;" horiz-adv-x="935" 
d="M254 0h-66l482 700h65zM166 339v280.001c-12 -5.33301 -28 -10.333 -48 -15s-40 -8.33398 -60 -11.001l-10 53c32 6.66699 59 14.167 81 22.5s40 18.833 54 31.5h51v-361h95v-61h-271v61h108zM581 0.000976562l-0.000976562 52.998l104.5 85
c28.333 24 51.333 45.333 69 64s30.334 35.334 38.001 50.001s11.5 29 11.5 43c0 23.333 -8.66699 41 -26 53s-37 18 -59 18c-20.667 0 -39.334 -5 -56.001 -15s-30 -23 -40 -39l-55 33c18.667 26 40.834 46.667 66.501 62s55.5 23 89.5 23c21.333 0 41.166 -3 59.499 -9
s34.333 -14.5 48 -25.5s24.334 -24.667 32.001 -41s11.5 -34.833 11.5 -55.5c0 -19.333 -3 -37 -9 -53s-16.167 -32.667 -30.5 -50s-33.333 -36.666 -57 -57.999s-53.5 -46.333 -89.5 -75h203v-63h-311z" />
    <glyph glyph-name="threequarters" unicode="&#xbe;" horiz-adv-x="935" 
d="M355 398c0 -19.333 -3.83301 -36.8311 -11.5 -52.498s-18.334 -29 -32.001 -40s-30 -19.667 -49 -26s-39.833 -9.5 -62.5 -9.5c-39.333 0 -72.833 7.16699 -100.5 21.5s-49.834 37.833 -66.501 70.5l63 25c11.333 -20.667 26.333 -34.834 45 -42.501
s38.334 -11.5 59.001 -11.5c26.667 0 47.5 6.5 62.5 19.5s22.5 29.5 22.5 49.5c0 18.667 -6.66699 33.167 -20 43.5s-31.666 15.5 -54.999 15.5h-55v62h52c6.66699 0 14 1 22 3s15.333 5.5 22 10.5s12.167 11.167 16.5 18.5s6.5 16.666 6.5 27.999
c0 21.333 -8.5 36.833 -25.5 46.5s-36.167 14.5 -57.5 14.5c-42.667 0 -75.667 -15.667 -99 -47l-52 33c36 52 87.667 78 155 78c20.667 0 39.834 -2.5 57.501 -7.5s33.167 -12.5 46.5 -22.5s23.833 -22.167 31.5 -36.5s11.5 -30.833 11.5 -49.5
c0 -19.333 -3.83301 -37 -11.5 -53s-20.834 -29 -39.501 -39c25.333 -9.33301 42.333 -23.833 51 -43.5s13 -39.167 13 -58.5zM846 97.002l-0.00292969 -97h-67v97h-211v56c11.333 20 22 41.333 32 64s18.833 45.667 26.5 69s13.834 46.5 18.501 69.5
s7.33398 45.167 8.00098 66.5h67c-1.33301 -42 -9.66602 -86.5 -24.999 -133.5s-34 -90.5 -56 -130.5h141v169h66v-169h63v-61h-63zM263.997 0.00195312h-65l481 700h66z" />
    <glyph glyph-name="questiondown" unicode="&#xbf;" horiz-adv-x="495" 
d="M47 16c0 29.333 5.33301 55.835 16 79.502s25.167 44.167 43.5 61.5s40.333 31.5 66 42.5s53.5 18.5 83.5 22.5v91h83v-166c-6.66699 1.33301 -13 2.16602 -19 2.49902s-11.667 0.5 -17 0.5c-23.333 0 -44.833 -3 -64.5 -9s-36.667 -14.5 -51 -25.5
s-25.5 -24.667 -33.5 -41s-12 -34.833 -12 -55.5c0 -34 11.5 -62.5 34.5 -85.5s56.5 -34.5 100.5 -34.5c30.667 0 58.5 5.66699 83.5 17s48.167 26.666 69.5 45.999l51 -63c-30 -26 -62.167 -46.333 -96.5 -61s-72.5 -22 -114.5 -22c-31.333 0 -60.5 4.5 -87.5 13.5
s-50.5 22 -70.5 39s-35.833 38 -47.5 63s-17.5 53.167 -17.5 84.5zM248 405.002v110h99v-110h-99z" />
    <glyph glyph-name="Agrave" unicode="&#xc0;" horiz-adv-x="678" 
d="M573 0l-77 198h-317l-79 -198h-98l283 700h108l283 -700h-103zM339 613l-130 -333h257zM363 755c-15.333 8.66699 -30.666 18.998 -45.999 30.998s-29.833 24.667 -43.5 38s-25.834 26.833 -36.501 40.5s-19 26.834 -25 39.501l92 14
c4.66699 -9.33301 10.667 -19.666 18 -30.999s15.5 -22.833 24.5 -34.5l27 -34.5c9 -11.333 18.167 -22 27.5 -32z" />
    <glyph glyph-name="Aacute" unicode="&#xc1;" horiz-adv-x="652" 
d="M573 0l-77 198h-317l-79 -198h-98l283 700h108l283 -700h-103zM339 613l-130 -333h257zM280 786c9.33301 10 18.5 20.6689 27.5 32.002l27 34.5c9 11.667 17.167 23.167 24.5 34.5s13.333 21.666 18 30.999l92 -14c-6 -12.667 -14.333 -25.834 -25 -39.501
s-22.834 -27.167 -36.501 -40.5s-28.167 -26 -43.5 -38s-30.666 -22.333 -45.999 -31z" />
    <glyph glyph-name="Acircumflex" unicode="&#xc2;" horiz-adv-x="678" 
d="M573 0l-77 198h-317l-79 -198h-98l283 700h108l283 -700h-103zM339 613l-130 -333h257zM375 906c20 -18 40.6699 -35.667 62.0029 -53s45.666 -35.333 72.999 -54l-27 -44c-26.667 10 -53 22.333 -79 37s-47.667 30 -65 46c-18 -16 -39.833 -31.333 -65.5 -46
s-51.834 -27 -78.501 -37l-27 44c27.333 18.667 51.666 36.667 72.999 54s42 35 62 53h72z" />
    <glyph glyph-name="Atilde" unicode="&#xc3;" horiz-adv-x="678" 
d="M573 0l-77 198h-317l-79 -198h-98l283 700h108l283 -700h-103zM339 613l-130 -333h257zM512 861c-10 -27.333 -23.999 -48.834 -41.999 -64.501s-37.667 -23.5 -59 -23.5c-12 0 -24 2.16699 -36 6.5s-23.833 9 -35.5 14s-23.167 9.66699 -34.5 14s-22 6.5 -32 6.5
c-12 0 -23.5 -3.16699 -34.5 -9.5s-22.5 -16.5 -34.5 -30.5l-37 25c10 26.667 24 47.834 42 63.501s38 23.5 60 23.5c12 0 24 -2.16699 36 -6.5s23.833 -8.83301 35.5 -13.5l34 -13.5c11 -4.33301 21.5 -6.5 31.5 -6.5c12 0 23.667 3 35 9s22.666 16 33.999 30z" />
    <glyph glyph-name="Adieresis" unicode="&#xc4;" horiz-adv-x="678" 
d="M573 0l-77 198h-317l-79 -198h-98l283 700h108l283 -700h-103zM339 613l-130 -333h257zM188 768v82h80v-82h-80zM410 768v82h80v-82h-80z" />
    <glyph glyph-name="Aring" unicode="&#xc5;" horiz-adv-x="678" 
d="M225 757c0 14.667 3 28.667 9 42s14.167 25 24.5 35s22.333 18 36 24s28.5 9 44.5 9s30.833 -3 44.5 -9s25.834 -14 36.501 -24s19 -21.667 25 -35s9 -27.333 9 -42c0 -19.333 -4.5 -36.666 -13.5 -51.999s-20.5 -27.666 -34.5 -36.999l270 -668h-103l-77 198h-317
l-79 -198h-98l271 668c-14.667 9.33301 -26.334 21.666 -35.001 36.999s-13 32.666 -13 51.999zM339 613l-130 -333h257zM400 756c0 17.333 -5.66699 31.833 -17 43.5s-25.666 17.5 -42.999 17.5s-31.833 -5.83301 -43.5 -17.5s-17.5 -26.167 -17.5 -43.5
s5.83301 -31.666 17.5 -42.999s26.167 -17 43.5 -17s31.666 5.66699 42.999 17s17 25.666 17 42.999z" />
    <glyph glyph-name="AE" unicode="&#xc6;" horiz-adv-x="933" 
d="M447 0v198h-257l-102 -198h-100l360 700h541v-86h-349v-203h287v-81h-287v-244h349v-86h-442zM447 618h-45l-171 -338h216v338z" />
    <glyph glyph-name="Ccedilla" unicode="&#xc7;" horiz-adv-x="683" 
d="M260 -90c8.66699 -8 18.8311 -14.835 30.498 -20.502s23.834 -8.5 36.501 -8.5c14.667 0 26.834 4 36.501 12s14.5 19 14.5 33c0 22 -12.667 43.667 -38 65c-45.333 4.66699 -86.5 16.667 -123.5 36s-68.5 44.833 -94.5 76.5s-46 68.334 -60 110.001
s-21 87.167 -21 136.5c0 52.667 8 101.167 24 145.5s38.833 82.666 68.5 114.999s65.167 57.5 106.5 75.5s87.666 27 138.999 27c60.667 0 113.5 -12.167 158.5 -36.5s83.167 -58.5 114.5 -102.5l-73 -51c-21.333 33.333 -48.5 59 -81.5 77s-71.833 27 -116.5 27
c-36.667 0 -70 -6.5 -100 -19.5s-55.5 -31.5 -76.5 -55.5s-37.167 -53 -48.5 -87s-17 -72 -17 -114s5.66699 -80.167 17 -114.5s27.5 -63.5 48.5 -87.5s46.333 -42.667 76 -56s62.5 -20 98.5 -20c44 0 82.833 9.33301 116.5 28s61.167 44.667 82.5 78l77 -49
c-28.667 -42 -64.167 -75.167 -106.5 -99.5s-91.166 -38.166 -146.499 -41.499c12.667 -10.667 22.667 -22.5 30 -35.5s11 -27.167 11 -42.5c0 -27.333 -10 -48.666 -30 -63.999s-44.667 -23 -74 -23c-16.667 0 -32 2.33301 -46 7s-25 10.667 -33 18v61z" />
    <glyph glyph-name="Egrave" unicode="&#xc8;" horiz-adv-x="635" 
d="M85 0v700h503v-86h-410v-203h349v-81h-349v-244h410v-86h-503zM367 755c-15.333 8.66699 -30.666 18.998 -45.999 30.998s-29.833 24.667 -43.5 38s-25.834 26.833 -36.501 40.5s-19 26.834 -25 39.501l92 14c4.66699 -9.33301 10.667 -19.666 18 -30.999
s15.5 -22.833 24.5 -34.5l27 -34.5c9 -11.333 18.167 -22 27.5 -32z" />
    <glyph glyph-name="Eacute" unicode="&#xc9;" horiz-adv-x="635" 
d="M85 0v700h503v-86h-410v-203h349v-81h-349v-244h410v-86h-503zM279 786c9.33301 10 18.5 20.6689 27.5 32.002l27 34.5c9 11.667 17.167 23.167 24.5 34.5s13.333 21.666 18 30.999l92 -14c-6 -12.667 -14.333 -25.834 -25 -39.501s-22.834 -27.167 -36.501 -40.5
s-28.167 -26 -43.5 -38s-30.666 -22.333 -45.999 -31z" />
    <glyph glyph-name="Ecircumflex" unicode="&#xca;" horiz-adv-x="635" 
d="M85 0v700h503v-86h-410v-203h349v-81h-349v-244h410v-86h-503zM379 906c20 -18 40.6699 -35.667 62.0029 -53s45.666 -35.333 72.999 -54l-27 -44c-26.667 10 -53 22.333 -79 37s-47.667 30 -65 46c-18 -16 -39.833 -31.333 -65.5 -46s-51.834 -27 -78.501 -37l-27 44
c27.333 18.667 51.666 36.667 72.999 54s42 35 62 53h72z" />
    <glyph glyph-name="Edieresis" unicode="&#xcb;" horiz-adv-x="635" 
d="M85 0v700h503v-86h-410v-203h349v-81h-349v-244h410v-86h-503zM191 768v82h80v-82h-80zM413 768v82h80v-82h-80z" />
    <glyph glyph-name="Igrave" unicode="&#xcc;" horiz-adv-x="263" 
d="M85 0v700h92v-700h-92zM148 755c-15.333 8.66699 -30.666 18.998 -45.999 30.998s-29.833 24.667 -43.5 38s-25.834 26.833 -36.501 40.5s-19 26.834 -25 39.501l92 14c4.66699 -9.33301 10.667 -19.666 18 -30.999s15.5 -22.833 24.5 -34.5l27 -34.5
c9 -11.333 18.167 -22 27.5 -32z" />
    <glyph glyph-name="Iacute" unicode="&#xcd;" horiz-adv-x="263" 
d="M85 0v700h92v-700h-92zM83 786c9.33301 10 18.5 20.6689 27.5 32.002l27 34.5c9 11.667 17.167 23.167 24.5 34.5s13.333 21.666 18 30.999l92 -14c-6 -12.667 -14.333 -25.834 -25 -39.501s-22.834 -27.167 -36.501 -40.5s-28.167 -26 -43.5 -38
s-30.666 -22.333 -45.999 -31z" />
    <glyph glyph-name="Icircumflex" unicode="&#xce;" horiz-adv-x="263" 
d="M85 0v700h92v-700h-92zM169 906c20 -18 40.6699 -35.667 62.0029 -53s45.666 -35.333 72.999 -54l-27 -44c-26.667 10 -53 22.333 -79 37s-47.667 30 -65 46c-18 -16 -39.833 -31.333 -65.5 -46s-51.834 -27 -78.501 -37l-27 44c27.333 18.667 51.666 36.667 72.999 54
s42 35 62 53h72z" />
    <glyph glyph-name="Idieresis" unicode="&#xcf;" horiz-adv-x="263" 
d="M85 0v700h92v-700h-92zM-19 768v82h80v-82h-80zM203 768v82h80v-82h-80z" />
    <glyph glyph-name="Eth" unicode="&#xd0;" horiz-adv-x="761" 
d="M719 350c0 -51.333 -7.16699 -98.333 -21.5 -141s-35.5 -79.5 -63.5 -110.5s-62.667 -55.167 -104 -72.5s-89 -26 -143 -26h-276v320h-115v77h115v303h276c54 0 101.667 -8.66699 143 -26s76 -41.5 104 -72.5s49.167 -67.833 63.5 -110.5s21.5 -89.667 21.5 -141z
M622 350c0 84.667 -20.833 149.833 -62.5 195.5s-99.167 68.5 -172.5 68.5h-182v-217h196v-77h-196v-234h182c73.333 0 130.833 23 172.5 69s62.5 111 62.5 195z" />
    <glyph glyph-name="Ntilde" unicode="&#xd1;" horiz-adv-x="738" 
d="M543 0l-369 584v-584h-89v700h119l360 -571v571h89v-700h-110zM550 861c-10 -27.333 -23.999 -48.834 -41.999 -64.501s-37.667 -23.5 -59 -23.5c-12 0 -24 2.16699 -36 6.5s-23.833 9 -35.5 14s-23.167 9.66699 -34.5 14s-22 6.5 -32 6.5
c-12 0 -23.5 -3.16699 -34.5 -9.5s-22.5 -16.5 -34.5 -30.5l-37 25c10 26.667 24 47.834 42 63.501s38 23.5 60 23.5c12 0 24 -2.16699 36 -6.5s23.833 -8.83301 35.5 -13.5l34 -13.5c11 -4.33301 21.5 -6.5 31.5 -6.5c12 0 23.667 3 35 9s22.666 16 33.999 30z" />
    <glyph glyph-name="Ograve" unicode="&#xd2;" horiz-adv-x="762" 
d="M722 350c0 -51.333 -8 -99.166 -24 -143.499s-38.833 -82.833 -68.5 -115.5s-65.5 -58.167 -107.5 -76.5s-89 -27.5 -141 -27.5s-99 9.16699 -141 27.5s-77.833 43.833 -107.5 76.5s-52.5 71.167 -68.5 115.5s-24 92.166 -24 143.499c0 52 8 100 24 144
s38.833 82.333 68.5 115s65.5 58.167 107.5 76.5s89 27.5 141 27.5s99 -9.16699 141 -27.5s77.833 -43.833 107.5 -76.5s52.5 -71 68.5 -115s24 -92 24 -144zM624 350c0 40.667 -5.5 78 -16.5 112s-27 63.167 -48 87.5s-46.5 43.166 -76.5 56.499s-64 20 -102 20
s-72 -6.66699 -102 -20s-55.333 -32.166 -76 -56.499s-36.5 -53.5 -47.5 -87.5s-16.5 -71.333 -16.5 -112s5.5 -77.834 16.5 -111.501s26.833 -62.667 47.5 -87s46 -43.333 76 -57s64 -20.5 102 -20.5s72 6.83301 102 20.5s55.5 32.667 76.5 57s37 53.333 48 87
s16.5 70.834 16.5 111.501zM403 755c-15.333 8.66699 -30.666 18.998 -45.999 30.998s-29.833 24.667 -43.5 38s-25.834 26.833 -36.501 40.5s-19 26.834 -25 39.501l92 14c4.66699 -9.33301 10.667 -19.666 18 -30.999s15.5 -22.833 24.5 -34.5l27 -34.5
c9 -11.333 18.167 -22 27.5 -32z" />
    <glyph glyph-name="Oacute" unicode="&#xd3;" horiz-adv-x="762" 
d="M722 350c0 -51.333 -8 -99.166 -24 -143.499s-38.833 -82.833 -68.5 -115.5s-65.5 -58.167 -107.5 -76.5s-89 -27.5 -141 -27.5s-99 9.16699 -141 27.5s-77.833 43.833 -107.5 76.5s-52.5 71.167 -68.5 115.5s-24 92.166 -24 143.499c0 52 8 100 24 144
s38.833 82.333 68.5 115s65.5 58.167 107.5 76.5s89 27.5 141 27.5s99 -9.16699 141 -27.5s77.833 -43.833 107.5 -76.5s52.5 -71 68.5 -115s24 -92 24 -144zM624 350c0 40.667 -5.5 78 -16.5 112s-27 63.167 -48 87.5s-46.5 43.166 -76.5 56.499s-64 20 -102 20
s-72 -6.66699 -102 -20s-55.333 -32.166 -76 -56.499s-36.5 -53.5 -47.5 -87.5s-16.5 -71.333 -16.5 -112s5.5 -77.834 16.5 -111.501s26.833 -62.667 47.5 -87s46 -43.333 76 -57s64 -20.5 102 -20.5s72 6.83301 102 20.5s55.5 32.667 76.5 57s37 53.333 48 87
s16.5 70.834 16.5 111.501zM311 786c9.33301 10 18.5 20.6689 27.5 32.002l27 34.5c9 11.667 17.167 23.167 24.5 34.5s13.333 21.666 18 30.999l92 -14c-6 -12.667 -14.333 -25.834 -25 -39.501s-22.834 -27.167 -36.501 -40.5s-28.167 -26 -43.5 -38
s-30.666 -22.333 -45.999 -31z" />
    <glyph glyph-name="Ocircumflex" unicode="&#xd4;" horiz-adv-x="762" 
d="M722 350c0 -51.333 -8 -99.166 -24 -143.499s-38.833 -82.833 -68.5 -115.5s-65.5 -58.167 -107.5 -76.5s-89 -27.5 -141 -27.5s-99 9.16699 -141 27.5s-77.833 43.833 -107.5 76.5s-52.5 71.167 -68.5 115.5s-24 92.166 -24 143.499c0 52 8 100 24 144
s38.833 82.333 68.5 115s65.5 58.167 107.5 76.5s89 27.5 141 27.5s99 -9.16699 141 -27.5s77.833 -43.833 107.5 -76.5s52.5 -71 68.5 -115s24 -92 24 -144zM624 350c0 40.667 -5.5 78 -16.5 112s-27 63.167 -48 87.5s-46.5 43.166 -76.5 56.499s-64 20 -102 20
s-72 -6.66699 -102 -20s-55.333 -32.166 -76 -56.499s-36.5 -53.5 -47.5 -87.5s-16.5 -71.333 -16.5 -112s5.5 -77.834 16.5 -111.501s26.833 -62.667 47.5 -87s46 -43.333 76 -57s64 -20.5 102 -20.5s72 6.83301 102 20.5s55.5 32.667 76.5 57s37 53.333 48 87
s16.5 70.834 16.5 111.501zM417 906c20 -18 40.6699 -35.667 62.0029 -53s45.666 -35.333 72.999 -54l-27 -44c-26.667 10 -53 22.333 -79 37s-47.667 30 -65 46c-18 -16 -39.833 -31.333 -65.5 -46s-51.834 -27 -78.501 -37l-27 44c27.333 18.667 51.666 36.667 72.999 54
s42 35 62 53h72z" />
    <glyph glyph-name="Otilde" unicode="&#xd5;" horiz-adv-x="762" 
d="M722 350c0 -51.333 -8 -99.166 -24 -143.499s-38.833 -82.833 -68.5 -115.5s-65.5 -58.167 -107.5 -76.5s-89 -27.5 -141 -27.5s-99 9.16699 -141 27.5s-77.833 43.833 -107.5 76.5s-52.5 71.167 -68.5 115.5s-24 92.166 -24 143.499c0 52 8 100 24 144
s38.833 82.333 68.5 115s65.5 58.167 107.5 76.5s89 27.5 141 27.5s99 -9.16699 141 -27.5s77.833 -43.833 107.5 -76.5s52.5 -71 68.5 -115s24 -92 24 -144zM624 350c0 40.667 -5.5 78 -16.5 112s-27 63.167 -48 87.5s-46.5 43.166 -76.5 56.499s-64 20 -102 20
s-72 -6.66699 -102 -20s-55.333 -32.166 -76 -56.499s-36.5 -53.5 -47.5 -87.5s-16.5 -71.333 -16.5 -112s5.5 -77.834 16.5 -111.501s26.833 -62.667 47.5 -87s46 -43.333 76 -57s64 -20.5 102 -20.5s72 6.83301 102 20.5s55.5 32.667 76.5 57s37 53.333 48 87
s16.5 70.834 16.5 111.501zM552 861c-10 -27.333 -23.999 -48.834 -41.999 -64.501s-37.667 -23.5 -59 -23.5c-12 0 -24 2.16699 -36 6.5s-23.833 9 -35.5 14s-23.167 9.66699 -34.5 14s-22 6.5 -32 6.5c-12 0 -23.5 -3.16699 -34.5 -9.5s-22.5 -16.5 -34.5 -30.5l-37 25
c10 26.667 24 47.834 42 63.501s38 23.5 60 23.5c12 0 24 -2.16699 36 -6.5s23.833 -8.83301 35.5 -13.5l34 -13.5c11 -4.33301 21.5 -6.5 31.5 -6.5c12 0 23.667 3 35 9s22.666 16 33.999 30z" />
    <glyph glyph-name="Odieresis" unicode="&#xd6;" horiz-adv-x="762" 
d="M722 350c0 -51.333 -8 -99.166 -24 -143.499s-38.833 -82.833 -68.5 -115.5s-65.5 -58.167 -107.5 -76.5s-89 -27.5 -141 -27.5s-99 9.16699 -141 27.5s-77.833 43.833 -107.5 76.5s-52.5 71.167 -68.5 115.5s-24 92.166 -24 143.499c0 52 8 100 24 144
s38.833 82.333 68.5 115s65.5 58.167 107.5 76.5s89 27.5 141 27.5s99 -9.16699 141 -27.5s77.833 -43.833 107.5 -76.5s52.5 -71 68.5 -115s24 -92 24 -144zM624 350c0 40.667 -5.5 78 -16.5 112s-27 63.167 -48 87.5s-46.5 43.166 -76.5 56.499s-64 20 -102 20
s-72 -6.66699 -102 -20s-55.333 -32.166 -76 -56.499s-36.5 -53.5 -47.5 -87.5s-16.5 -71.333 -16.5 -112s5.5 -77.834 16.5 -111.501s26.833 -62.667 47.5 -87s46 -43.333 76 -57s64 -20.5 102 -20.5s72 6.83301 102 20.5s55.5 32.667 76.5 57s37 53.333 48 87
s16.5 70.834 16.5 111.501zM230 768v82h80v-82h-80zM452 768v82h80v-82h-80z" />
    <glyph glyph-name="multiply" unicode="&#xd7;" 
d="M469 74l-175 177l-176 -177l-53 55l176 175l-176 176l53 54l176 -177l175 177l54 -54l-176 -176l176 -175z" />
    <glyph glyph-name="Oslash" unicode="&#xd8;" horiz-adv-x="762" 
d="M116 22l35 48.998c-36 34 -63.5 74.667 -82.5 122s-28.5 99.666 -28.5 156.999c0 52 8 100 24 144s38.833 82.333 68.5 115s65.5 58.167 107.5 76.5s89 27.5 141 27.5c35.333 0 68.333 -4.33301 99 -13s58.667 -21 84 -37l35 48l47 -33l-36 -50
c36 -33.333 63.667 -73.666 83 -120.999s29 -99.666 29 -156.999c0 -51.333 -8 -99.166 -24 -143.499s-38.833 -82.833 -68.5 -115.5s-65.5 -58.167 -107.5 -76.5s-89 -27.5 -141 -27.5c-36 0 -69.167 4.33301 -99.5 13s-58.5 21 -84.5 37l-34 -48zM624 349.998
c0 42 -5.83203 79.8311 -17.499 113.498s-28.167 62.834 -49.5 87.501l-309 -439c37.333 -25.333 81.666 -38 132.999 -38c38 0 72 6.83301 102 20.5s55.5 32.667 76.5 57s37 53.333 48 87s16.5 70.834 16.5 111.501zM139.001 349.996
c0 -84.667 21.667 -151.668 65 -201.001l309 440c-18.667 11.333 -39 20.333 -61 27s-45.667 10 -71 10c-38 0 -72 -6.66699 -102 -20s-55.333 -32.166 -76 -56.499s-36.5 -53.5 -47.5 -87.5s-16.5 -71.333 -16.5 -112z" />
    <glyph glyph-name="Ugrave" unicode="&#xd9;" horiz-adv-x="723" 
d="M648 263c0 -42 -7.16797 -80 -21.501 -114s-34.166 -63 -59.499 -87s-55.5 -42.5 -90.5 -55.5s-73.167 -19.5 -114.5 -19.5s-79.5 6.5 -114.5 19.5s-65.167 31.5 -90.5 55.5s-45 53 -59 87s-21 72 -21 114v437h92v-437c0 -57.333 17 -103.166 51 -137.499
s81.333 -51.5 142 -51.5c29.333 0 56 4.5 80 13.5s44.5 21.667 61.5 38s30 36.166 39 59.499s13.5 49.333 13.5 78v437h92v-437zM370.999 755c-15.333 8.66699 -30.666 18.998 -45.999 30.998s-29.833 24.667 -43.5 38s-25.834 26.833 -36.501 40.5s-19 26.834 -25 39.501
l92 14c4.66699 -9.33301 10.667 -19.666 18 -30.999s15.5 -22.833 24.5 -34.5l27 -34.5c9 -11.333 18.167 -22 27.5 -32z" />
    <glyph glyph-name="Uacute" unicode="&#xda;" horiz-adv-x="723" 
d="M648 263c0 -42 -7.16797 -80 -21.501 -114s-34.166 -63 -59.499 -87s-55.5 -42.5 -90.5 -55.5s-73.167 -19.5 -114.5 -19.5s-79.5 6.5 -114.5 19.5s-65.167 31.5 -90.5 55.5s-45 53 -59 87s-21 72 -21 114v437h92v-437c0 -57.333 17 -103.166 51 -137.499
s81.333 -51.5 142 -51.5c29.333 0 56 4.5 80 13.5s44.5 21.667 61.5 38s30 36.166 39 59.499s13.5 49.333 13.5 78v437h92v-437zM309.999 786c9.33301 10 18.5 20.6689 27.5 32.002l27 34.5c9 11.667 17.167 23.167 24.5 34.5s13.333 21.666 18 30.999l92 -14
c-6 -12.667 -14.333 -25.834 -25 -39.501s-22.834 -27.167 -36.501 -40.5s-28.167 -26 -43.5 -38s-30.666 -22.333 -45.999 -31z" />
    <glyph glyph-name="Ucircumflex" unicode="&#xdb;" horiz-adv-x="723" 
d="M648 263c0 -42 -7.16797 -80 -21.501 -114s-34.166 -63 -59.499 -87s-55.5 -42.5 -90.5 -55.5s-73.167 -19.5 -114.5 -19.5s-79.5 6.5 -114.5 19.5s-65.167 31.5 -90.5 55.5s-45 53 -59 87s-21 72 -21 114v437h92v-437c0 -57.333 17 -103.166 51 -137.499
s81.333 -51.5 142 -51.5c29.333 0 56 4.5 80 13.5s44.5 21.667 61.5 38s30 36.166 39 59.499s13.5 49.333 13.5 78v437h92v-437zM400.999 906c20 -18 40.6699 -35.667 62.0029 -53s45.666 -35.333 72.999 -54l-27 -44c-26.667 10 -53 22.333 -79 37s-47.667 30 -65 46
c-18 -16 -39.833 -31.333 -65.5 -46s-51.834 -27 -78.501 -37l-27 44c27.333 18.667 51.666 36.667 72.999 54s42 35 62 53h72z" />
    <glyph glyph-name="Udieresis" unicode="&#xdc;" horiz-adv-x="723" 
d="M648 263c0 -42 -7.16797 -80 -21.501 -114s-34.166 -63 -59.499 -87s-55.5 -42.5 -90.5 -55.5s-73.167 -19.5 -114.5 -19.5s-79.5 6.5 -114.5 19.5s-65.167 31.5 -90.5 55.5s-45 53 -59 87s-21 72 -21 114v437h92v-437c0 -57.333 17 -103.166 51 -137.499
s81.333 -51.5 142 -51.5c29.333 0 56 4.5 80 13.5s44.5 21.667 61.5 38s30 36.166 39 59.499s13.5 49.333 13.5 78v437h92v-437zM210.999 768v82h80v-82h-80zM432.999 768v82h80v-82h-80z" />
    <glyph glyph-name="Yacute" unicode="&#xdd;" horiz-adv-x="621" 
d="M357 287v-287h-93v287l-268 413h109l207 -329l208 329h106zM262 786c9.33301 10 18.5 20.6689 27.5 32.002l27 34.5c9 11.667 17.167 23.167 24.5 34.5s13.333 21.666 18 30.999l92 -14c-6 -12.667 -14.333 -25.834 -25 -39.501s-22.834 -27.167 -36.501 -40.5
s-28.167 -26 -43.5 -38s-30.666 -22.333 -45.999 -31z" />
    <glyph glyph-name="Thorn" unicode="&#xde;" horiz-adv-x="645" 
d="M622 377c0 -32 -5.33301 -61.167 -16 -87.5s-26.334 -48.833 -47.001 -67.5s-46.334 -33.167 -77.001 -43.5s-66 -15.5 -106 -15.5h-199v-163h-92v700h92v-107h199c40 0 75.333 -5.16699 106 -15.5s56.334 -25 77.001 -44s36.334 -41.667 47.001 -68s16 -55.833 16 -88.5
zM377 249c50.667 0 88.167 11.668 112.5 35.001s36.5 54.666 36.5 93.999s-12.167 70.833 -36.5 94.5s-61.833 35.5 -112.5 35.5h-200v-259h200z" />
    <glyph glyph-name="germandbls" unicode="&#xdf;" horiz-adv-x="604" 
d="M567 202c0 -33.333 -5.49707 -63.334 -16.4971 -90.001s-26.5 -49.167 -46.5 -67.5s-44.5 -32.333 -73.5 -42s-61.5 -14.5 -97.5 -14.5c-17.333 0 -36.333 1.66699 -57 5s-38.667 8.33301 -54 15l20 77c13.333 -7.33301 28 -12.5 44 -15.5s30 -4.5 42 -4.5
c48 0 84.833 13.167 110.5 39.5s38.5 61.166 38.5 104.499c0 47.333 -14.833 81.833 -44.5 103.5s-68.5 32.5 -116.5 32.5h-59v74h41c18 0 35 2.33301 51 7s30.167 11.834 42.5 21.501s22 21.834 29 36.501s10.5 32 10.5 52c0 20.667 -3.83301 38.167 -11.5 52.5
s-17.834 26 -30.501 35s-27.334 15.667 -44.001 20s-34 6.5 -52 6.5c-18.667 0 -36.334 -2.5 -53.001 -7.5s-31.334 -12.333 -44.001 -22s-22.667 -21.834 -30 -36.501s-11 -31.667 -11 -51v-533h-84v533c0 30 5.66699 56.833 17 80.5s27 43.834 47 60.501
s43.667 29.334 71 38.001s57.333 13 90 13c30.667 0 59.667 -4 87 -12s51 -19.5 71 -34.5s35.833 -33.5 47.5 -55.5s17.5 -47.333 17.5 -76c0 -32.667 -7.16699 -61.334 -21.5 -86.001s-40.166 -47 -77.499 -67c50 -16.667 87 -41.5 111 -74.5s36 -72.167 36 -117.5z" />
    <glyph glyph-name="agrave" unicode="&#xe0;" horiz-adv-x="556" 
d="M552 2c-9.33301 -3.33301 -19.335 -5.83301 -30.002 -7.5s-20.334 -2.5 -29.001 -2.5c-25.333 0 -47.5 6.5 -66.5 19.5s-30.833 33.833 -35.5 62.5c-22.667 -32.667 -50.167 -55.167 -82.5 -67.5s-64.5 -18.5 -96.5 -18.5c-53.333 0 -96 13.833 -128 41.5
s-48 66.167 -48 115.5c0 30 5.83301 54.5 17.5 73.5s26.5 34 44.5 45s37.5 19 58.5 24s40.5 8.5 58.5 10.5l61.5 8c20.333 2.66699 38.333 6.5 54 11.5s28.334 12.167 38.001 21.5s14.5 22 14.5 38c0 14 -3.66699 25.833 -11 35.5s-16.833 17.5 -28.5 23.5
s-24.667 10.167 -39 12.5s-28.166 3.5 -41.499 3.5c-28.667 0 -57 -4.66699 -85 -14s-53.667 -22.666 -77 -39.999l-40 64c30 21.333 61.667 37.666 95 48.999s70.333 17 111 17c30 0 57.333 -3.33301 82 -10s45.834 -16.667 63.501 -30s31.5 -30.333 41.5 -51
s15 -45 15 -73v-249c0 -19.333 3 -33.333 9 -42s16.667 -13 32 -13c12.667 0 23 2 31 6zM382.998 289c-9.33301 -11.333 -19.332 -19.833 -29.999 -25.5s-22.334 -10.167 -35.001 -13.5s-26.167 -5.83301 -40.5 -7.5s-29.5 -3.83398 -45.5 -6.50098
c-15.333 -2.66699 -29.5 -5.66699 -42.5 -9s-24.333 -8.33301 -34 -15s-17.334 -15 -23.001 -25s-8.5 -23 -8.5 -39c0 -31.333 10.333 -53.833 31 -67.5s46.334 -20.5 77.001 -20.5c18.667 0 37.167 2.66699 55.5 8s34.5 13.5 48.5 24.5s25.333 25.333 34 43
s13 38.834 13 63.501v90zM288.999 593c-15.333 8.66699 -30.666 18.998 -45.999 30.998s-29.833 24.667 -43.5 38s-25.834 26.833 -36.501 40.5s-19 26.834 -25 39.501l92 14c4.66699 -9.33301 10.667 -19.666 18 -30.999s15.5 -22.833 24.5 -34.5l27 -34.5
c9 -11.333 18.167 -22 27.5 -32z" />
    <glyph glyph-name="aacute" unicode="&#xe1;" horiz-adv-x="556" 
d="M552 2c-9.33301 -3.33301 -19.335 -5.83301 -30.002 -7.5s-20.334 -2.5 -29.001 -2.5c-25.333 0 -47.5 6.5 -66.5 19.5s-30.833 33.833 -35.5 62.5c-22.667 -32.667 -50.167 -55.167 -82.5 -67.5s-64.5 -18.5 -96.5 -18.5c-53.333 0 -96 13.833 -128 41.5
s-48 66.167 -48 115.5c0 30 5.83301 54.5 17.5 73.5s26.5 34 44.5 45s37.5 19 58.5 24s40.5 8.5 58.5 10.5l61.5 8c20.333 2.66699 38.333 6.5 54 11.5s28.334 12.167 38.001 21.5s14.5 22 14.5 38c0 14 -3.66699 25.833 -11 35.5s-16.833 17.5 -28.5 23.5
s-24.667 10.167 -39 12.5s-28.166 3.5 -41.499 3.5c-28.667 0 -57 -4.66699 -85 -14s-53.667 -22.666 -77 -39.999l-40 64c30 21.333 61.667 37.666 95 48.999s70.333 17 111 17c30 0 57.333 -3.33301 82 -10s45.834 -16.667 63.501 -30s31.5 -30.333 41.5 -51
s15 -45 15 -73v-249c0 -19.333 3 -33.333 9 -42s16.667 -13 32 -13c12.667 0 23 2 31 6zM382.998 289c-9.33301 -11.333 -19.332 -19.833 -29.999 -25.5s-22.334 -10.167 -35.001 -13.5s-26.167 -5.83301 -40.5 -7.5s-29.5 -3.83398 -45.5 -6.50098
c-15.333 -2.66699 -29.5 -5.66699 -42.5 -9s-24.333 -8.33301 -34 -15s-17.334 -15 -23.001 -25s-8.5 -23 -8.5 -39c0 -31.333 10.333 -53.833 31 -67.5s46.334 -20.5 77.001 -20.5c18.667 0 37.167 2.66699 55.5 8s34.5 13.5 48.5 24.5s25.333 25.333 34 43
s13 38.834 13 63.501v90zM203.999 624c9.33301 10 18.5 20.6689 27.5 32.002l27 34.5c9 11.667 17.167 23.167 24.5 34.5s13.333 21.666 18 30.999l92 -14c-6 -12.667 -14.333 -25.834 -25 -39.501s-22.834 -27.167 -36.501 -40.5s-28.167 -26 -43.5 -38
s-30.666 -22.333 -45.999 -31z" />
    <glyph glyph-name="acircumflex" unicode="&#xe2;" horiz-adv-x="556" 
d="M552 2c-9.33301 -3.33301 -19.335 -5.83301 -30.002 -7.5s-20.334 -2.5 -29.001 -2.5c-25.333 0 -47.5 6.5 -66.5 19.5s-30.833 33.833 -35.5 62.5c-22.667 -32.667 -50.167 -55.167 -82.5 -67.5s-64.5 -18.5 -96.5 -18.5c-53.333 0 -96 13.833 -128 41.5
s-48 66.167 -48 115.5c0 30 5.83301 54.5 17.5 73.5s26.5 34 44.5 45s37.5 19 58.5 24s40.5 8.5 58.5 10.5l61.5 8c20.333 2.66699 38.333 6.5 54 11.5s28.334 12.167 38.001 21.5s14.5 22 14.5 38c0 14 -3.66699 25.833 -11 35.5s-16.833 17.5 -28.5 23.5
s-24.667 10.167 -39 12.5s-28.166 3.5 -41.499 3.5c-28.667 0 -57 -4.66699 -85 -14s-53.667 -22.666 -77 -39.999l-40 64c30 21.333 61.667 37.666 95 48.999s70.333 17 111 17c30 0 57.333 -3.33301 82 -10s45.834 -16.667 63.501 -30s31.5 -30.333 41.5 -51
s15 -45 15 -73v-249c0 -19.333 3 -33.333 9 -42s16.667 -13 32 -13c12.667 0 23 2 31 6zM382.998 289c-9.33301 -11.333 -19.332 -19.833 -29.999 -25.5s-22.334 -10.167 -35.001 -13.5s-26.167 -5.83301 -40.5 -7.5s-29.5 -3.83398 -45.5 -6.50098
c-15.333 -2.66699 -29.5 -5.66699 -42.5 -9s-24.333 -8.33301 -34 -15s-17.334 -15 -23.001 -25s-8.5 -23 -8.5 -39c0 -31.333 10.333 -53.833 31 -67.5s46.334 -20.5 77.001 -20.5c18.667 0 37.167 2.66699 55.5 8s34.5 13.5 48.5 24.5s25.333 25.333 34 43
s13 38.834 13 63.501v90zM298.999 744c20 -18 40.6699 -35.667 62.0029 -53s45.666 -35.333 72.999 -54l-27 -44c-26.667 10 -53 22.333 -79 37s-47.667 30 -65 46c-18 -16 -39.833 -31.333 -65.5 -46s-51.834 -27 -78.501 -37l-27 44
c27.333 18.667 51.666 36.667 72.999 54s42 35 62 53h72z" />
    <glyph glyph-name="atilde" unicode="&#xe3;" horiz-adv-x="556" 
d="M552 2c-9.33301 -3.33301 -19.335 -5.83301 -30.002 -7.5s-20.334 -2.5 -29.001 -2.5c-25.333 0 -47.5 6.5 -66.5 19.5s-30.833 33.833 -35.5 62.5c-22.667 -32.667 -50.167 -55.167 -82.5 -67.5s-64.5 -18.5 -96.5 -18.5c-53.333 0 -96 13.833 -128 41.5
s-48 66.167 -48 115.5c0 30 5.83301 54.5 17.5 73.5s26.5 34 44.5 45s37.5 19 58.5 24s40.5 8.5 58.5 10.5l61.5 8c20.333 2.66699 38.333 6.5 54 11.5s28.334 12.167 38.001 21.5s14.5 22 14.5 38c0 14 -3.66699 25.833 -11 35.5s-16.833 17.5 -28.5 23.5
s-24.667 10.167 -39 12.5s-28.166 3.5 -41.499 3.5c-28.667 0 -57 -4.66699 -85 -14s-53.667 -22.666 -77 -39.999l-40 64c30 21.333 61.667 37.666 95 48.999s70.333 17 111 17c30 0 57.333 -3.33301 82 -10s45.834 -16.667 63.501 -30s31.5 -30.333 41.5 -51
s15 -45 15 -73v-249c0 -19.333 3 -33.333 9 -42s16.667 -13 32 -13c12.667 0 23 2 31 6zM382.998 289c-9.33301 -11.333 -19.332 -19.833 -29.999 -25.5s-22.334 -10.167 -35.001 -13.5s-26.167 -5.83301 -40.5 -7.5s-29.5 -3.83398 -45.5 -6.50098
c-15.333 -2.66699 -29.5 -5.66699 -42.5 -9s-24.333 -8.33301 -34 -15s-17.334 -15 -23.001 -25s-8.5 -23 -8.5 -39c0 -31.333 10.333 -53.833 31 -67.5s46.334 -20.5 77.001 -20.5c18.667 0 37.167 2.66699 55.5 8s34.5 13.5 48.5 24.5s25.333 25.333 34 43
s13 38.834 13 63.501v90zM431.999 699c-10 -27.333 -23.999 -48.834 -41.999 -64.501s-37.667 -23.5 -59 -23.5c-12 0 -24 2.16699 -36 6.5s-23.833 9 -35.5 14s-23.167 9.66699 -34.5 14s-22 6.5 -32 6.5c-12 0 -23.5 -3.16699 -34.5 -9.5s-22.5 -16.5 -34.5 -30.5l-37 25
c10 26.667 24 47.834 42 63.501s38 23.5 60 23.5c12 0 24 -2.16699 36 -6.5s23.833 -8.83301 35.5 -13.5l34 -13.5c11 -4.33301 21.5 -6.5 31.5 -6.5c12 0 23.667 3 35 9s22.666 16 33.999 30z" />
    <glyph glyph-name="adieresis" unicode="&#xe4;" horiz-adv-x="556" 
d="M552 2c-9.33301 -3.33301 -19.335 -5.83301 -30.002 -7.5s-20.334 -2.5 -29.001 -2.5c-25.333 0 -47.5 6.5 -66.5 19.5s-30.833 33.833 -35.5 62.5c-22.667 -32.667 -50.167 -55.167 -82.5 -67.5s-64.5 -18.5 -96.5 -18.5c-53.333 0 -96 13.833 -128 41.5
s-48 66.167 -48 115.5c0 30 5.83301 54.5 17.5 73.5s26.5 34 44.5 45s37.5 19 58.5 24s40.5 8.5 58.5 10.5l61.5 8c20.333 2.66699 38.333 6.5 54 11.5s28.334 12.167 38.001 21.5s14.5 22 14.5 38c0 14 -3.66699 25.833 -11 35.5s-16.833 17.5 -28.5 23.5
s-24.667 10.167 -39 12.5s-28.166 3.5 -41.499 3.5c-28.667 0 -57 -4.66699 -85 -14s-53.667 -22.666 -77 -39.999l-40 64c30 21.333 61.667 37.666 95 48.999s70.333 17 111 17c30 0 57.333 -3.33301 82 -10s45.834 -16.667 63.501 -30s31.5 -30.333 41.5 -51
s15 -45 15 -73v-249c0 -19.333 3 -33.333 9 -42s16.667 -13 32 -13c12.667 0 23 2 31 6zM382.998 289c-9.33301 -11.333 -19.332 -19.833 -29.999 -25.5s-22.334 -10.167 -35.001 -13.5s-26.167 -5.83301 -40.5 -7.5s-29.5 -3.83398 -45.5 -6.50098
c-15.333 -2.66699 -29.5 -5.66699 -42.5 -9s-24.333 -8.33301 -34 -15s-17.334 -15 -23.001 -25s-8.5 -23 -8.5 -39c0 -31.333 10.333 -53.833 31 -67.5s46.334 -20.5 77.001 -20.5c18.667 0 37.167 2.66699 55.5 8s34.5 13.5 48.5 24.5s25.333 25.333 34 43
s13 38.834 13 63.501v90zM109.999 606v82h80v-82h-80zM331.999 606v82h80v-82h-80z" />
    <glyph glyph-name="aring" unicode="&#xe5;" horiz-adv-x="556" 
d="M552 2c-9.33301 -3.33301 -19.335 -5.83301 -30.002 -7.5s-20.334 -2.5 -29.001 -2.5c-25.333 0 -47.5 6.5 -66.5 19.5s-30.833 33.833 -35.5 62.5c-22.667 -32.667 -50.167 -55.167 -82.5 -67.5s-64.5 -18.5 -96.5 -18.5c-53.333 0 -96 13.833 -128 41.5
s-48 66.167 -48 115.5c0 30 5.83301 54.5 17.5 73.5s26.5 34 44.5 45s37.5 19 58.5 24s40.5 8.5 58.5 10.5l61.5 8c20.333 2.66699 38.333 6.5 54 11.5s28.334 12.167 38.001 21.5s14.5 22 14.5 38c0 14 -3.66699 25.833 -11 35.5s-16.833 17.5 -28.5 23.5
s-24.667 10.167 -39 12.5s-28.166 3.5 -41.499 3.5c-28.667 0 -57 -4.66699 -85 -14s-53.667 -22.666 -77 -39.999l-40 64c30 21.333 61.667 37.666 95 48.999s70.333 17 111 17c30 0 57.333 -3.33301 82 -10s45.834 -16.667 63.501 -30s31.5 -30.333 41.5 -51
s15 -45 15 -73v-249c0 -19.333 3 -33.333 9 -42s16.667 -13 32 -13c12.667 0 23 2 31 6zM382.998 289c-9.33301 -11.333 -19.332 -19.833 -29.999 -25.5s-22.334 -10.167 -35.001 -13.5s-26.167 -5.83301 -40.5 -7.5s-29.5 -3.83398 -45.5 -6.50098
c-15.333 -2.66699 -29.5 -5.66699 -42.5 -9s-24.333 -8.33301 -34 -15s-17.334 -15 -23.001 -25s-8.5 -23 -8.5 -39c0 -31.333 10.333 -53.833 31 -67.5s46.334 -20.5 77.001 -20.5c18.667 0 37.167 2.66699 55.5 8s34.5 13.5 48.5 24.5s25.333 25.333 34 43
s13 38.834 13 63.501v90zM365.999 679c0 -14 -2.66699 -27.167 -8 -39.5s-12.666 -23 -21.999 -32s-20.5 -16.167 -33.5 -21.5s-26.833 -8 -41.5 -8s-28.5 2.66699 -41.5 8s-24.167 12.5 -33.5 21.5s-16.833 19.667 -22.5 32s-8.5 25.5 -8.5 39.5s2.83301 27.167 8.5 39.5
s13.167 23.333 22.5 33s20.5 17.167 33.5 22.5s26.833 8 41.5 8s28.5 -2.66699 41.5 -8s24.167 -12.833 33.5 -22.5s16.666 -20.667 21.999 -33s8 -25.5 8 -39.5zM317.999 679c0 16 -5.66699 29.667 -17 41s-24.666 17 -39.999 17s-28.666 -5.66699 -39.999 -17
s-17 -25 -17 -41s5.66699 -29.5 17 -40.5s24.666 -16.5 39.999 -16.5s28.666 5.5 39.999 16.5s17 24.5 17 40.5z" />
    <glyph glyph-name="ae" unicode="&#xe6;" horiz-adv-x="904" 
d="M379 288c-9.33301 -10.667 -19.332 -19.001 -29.999 -25.001s-22.334 -10.5 -35.001 -13.5s-26.167 -5.5 -40.5 -7.5s-29.5 -4.33301 -45.5 -7c-15.333 -2 -29.5 -4.83301 -42.5 -8.5s-24.333 -8.66699 -34 -15s-17.334 -14.5 -23.001 -24.5s-8.5 -23 -8.5 -39
c0 -31.333 10.333 -53.833 31 -67.5s46.334 -20.5 77.001 -20.5c18.667 0 37.167 2.66699 55.5 8s34.5 13.5 48.5 24.5s25.333 25.333 34 43s13 38.834 13 63.501v89zM849.001 78.999c-27.333 -28.667 -58.3301 -51.002 -92.9971 -67.002s-75 -24 -121 -24s-87 9 -123 27
s-65.333 45.333 -88 82c-21.333 -36 -48.333 -63.167 -81 -81.5s-72.334 -27.5 -119.001 -27.5c-28 0 -53.833 3.33301 -77.5 10s-44 16.667 -61 30s-30.167 29.833 -39.5 49.5s-14 42.5 -14 68.5c0 29.333 5.83301 53.333 17.5 72s26.334 33.5 44.001 44.5s37 19 58 24
s40.833 8.83301 59.5 11.5c20.667 2.66699 41 5.16699 61 7.5s37.833 6 53.5 11s28.167 12.167 37.5 21.5s14 22.333 14 39c0 14 -3.5 25.667 -10.5 35s-16.167 17 -27.5 23s-24 10.167 -38 12.5s-28 3.5 -42 3.5c-28.667 0 -57 -4.5 -85 -13.5s-53.667 -22.5 -77 -40.5
l-40 65c29.333 20.667 60.666 36.667 93.999 48s69.666 17 108.999 17c38.667 0 74.167 -6.66699 106.5 -20s56.833 -36.666 73.5 -69.999c25.333 32 53.5 55 84.5 69s64.5 21 100.5 21c38 0 72.167 -6.66699 102.5 -20s56.166 -31.5 77.499 -54.5
s37.666 -50.167 48.999 -81.5s17 -65 17 -101c0 -7.33301 -0.166992 -13.666 -0.5 -18.999s-0.833008 -10 -1.5 -14h-408c2.66699 -54 19.834 -95.833 51.501 -125.5s73.167 -44.5 124.5 -44.5c61.333 0 112.333 22.333 153 67zM783.004 301.997
c-4.66699 50 -22 87.667 -52 113s-66 38 -108 38c-46 0 -83.333 -14 -112 -42s-44.667 -64.333 -48 -109h320z" />
    <glyph glyph-name="ccedilla" unicode="&#xe7;" horiz-adv-x="525" 
d="M178 -83c8 -8 17.6689 -14.666 29.002 -19.999s23 -8 35 -8c13.333 0 24.833 3.83301 34.5 11.5s14.5 18.167 14.5 31.5c0 20.667 -12 40 -36 58c-33.333 4 -63.5 13.5 -90.5 28.5s-49.833 34.333 -68.5 58s-33 51 -43 82s-15 64.167 -15 99.5
c0 38 5.83301 73.5 17.5 106.5s28.5 61.5 50.5 85.5s48.5 42.833 79.5 56.5s65.5 20.5 103.5 20.5c46.667 0 87.5 -9.83301 122.5 -29.5s63.833 -45.834 86.5 -78.501l-67 -47c-15.333 23.333 -34.5 42 -57.5 56s-50.167 21 -81.5 21c-25.333 0 -48 -4.83301 -68 -14.5
s-37 -23 -51 -40s-24.833 -37.167 -32.5 -60.5s-11.5 -48.666 -11.5 -75.999s3.83301 -52.833 11.5 -76.5s18.5 -44 32.5 -61s31 -30.333 51 -40s42.333 -14.5 67 -14.5c33.333 0 61.666 7.5 84.999 22.5s42.666 33.5 57.999 55.5l65 -48
c-20 -28.667 -45.167 -52.667 -75.5 -72s-66.5 -30.666 -108.5 -33.999c12.667 -10 22.5 -21.333 29.5 -34s10.5 -26.334 10.5 -41.001c0 -25.333 -9.83301 -45.333 -29.5 -60s-43.5 -22 -71.5 -22c-16 0 -30.833 2.16699 -44.5 6.5s-24.167 10.166 -31.5 17.499v60z" />
    <glyph glyph-name="egrave" unicode="&#xe8;" horiz-adv-x="572" 
d="M540 273c0 -8 -0.166992 -14.668 -0.5 -20.001s-0.833008 -9.66602 -1.5 -12.999h-409c0 -20.667 3.33301 -41 10 -61s15.667 -36.667 27 -50c32 -41.333 78.333 -62 139 -62s112.334 22.333 155.001 67l57 -56c-26.667 -28 -57.5 -50 -92.5 -66s-75.5 -24 -121.5 -24
c-42 0 -79.5 6.83301 -112.5 20.5s-60.833 32.5 -83.5 56.5s-39.834 52.333 -51.501 85s-17.5 68 -17.5 106s5.83301 73.5 17.5 106.5s28.5 61.667 50.5 86s48.667 43.5 80 57.5s66.666 21 105.999 21c38 0 72.333 -6.5 103 -19.5s56.834 -30.833 78.501 -53.5
s38.167 -49.5 49.5 -80.5s17 -64.5 17 -100.5zM451 303.999c0 13.333 -2 25.832 -6 37.499s-8.66699 22.834 -14 33.501c-14 26 -33.333 45.667 -58 59s-52 20 -82 20c-22.667 0 -43.5 -3.66699 -62.5 -11s-35.333 -17.5 -49 -30.5s-24.667 -28.833 -33 -47.5
s-13.5 -39 -15.5 -61h320zM312 592.998c-15.333 8.66699 -30.666 18.998 -45.999 30.998s-29.833 24.667 -43.5 38s-25.834 26.833 -36.501 40.5s-19 26.834 -25 39.501l92 14c4.66699 -9.33301 10.667 -19.666 18 -30.999s15.5 -22.833 24.5 -34.5l27 -34.5
c9 -11.333 18.167 -22 27.5 -32z" />
    <glyph glyph-name="eacute" unicode="&#xe9;" horiz-adv-x="572" 
d="M540 273c0 -8 -0.166992 -14.668 -0.5 -20.001s-0.833008 -9.66602 -1.5 -12.999h-409c0 -20.667 3.33301 -41 10 -61s15.667 -36.667 27 -50c32 -41.333 78.333 -62 139 -62s112.334 22.333 155.001 67l57 -56c-26.667 -28 -57.5 -50 -92.5 -66s-75.5 -24 -121.5 -24
c-42 0 -79.5 6.83301 -112.5 20.5s-60.833 32.5 -83.5 56.5s-39.834 52.333 -51.501 85s-17.5 68 -17.5 106s5.83301 73.5 17.5 106.5s28.5 61.667 50.5 86s48.667 43.5 80 57.5s66.666 21 105.999 21c38 0 72.333 -6.5 103 -19.5s56.834 -30.833 78.501 -53.5
s38.167 -49.5 49.5 -80.5s17 -64.5 17 -100.5zM451 303.999c0 13.333 -2 25.832 -6 37.499s-8.66699 22.834 -14 33.501c-14 26 -33.333 45.667 -58 59s-52 20 -82 20c-22.667 0 -43.5 -3.66699 -62.5 -11s-35.333 -17.5 -49 -30.5s-24.667 -28.833 -33 -47.5
s-13.5 -39 -15.5 -61h320zM224 623.998c9.33301 10 18.5 20.6689 27.5 32.002l27 34.5c9 11.667 17.167 23.167 24.5 34.5s13.333 21.666 18 30.999l92 -14c-6 -12.667 -14.333 -25.834 -25 -39.501s-22.834 -27.167 -36.501 -40.5s-28.167 -26 -43.5 -38
s-30.666 -22.333 -45.999 -31z" />
    <glyph glyph-name="ecircumflex" unicode="&#xea;" horiz-adv-x="572" 
d="M540 273c0 -8 -0.166992 -14.668 -0.5 -20.001s-0.833008 -9.66602 -1.5 -12.999h-409c0 -20.667 3.33301 -41 10 -61s15.667 -36.667 27 -50c32 -41.333 78.333 -62 139 -62s112.334 22.333 155.001 67l57 -56c-26.667 -28 -57.5 -50 -92.5 -66s-75.5 -24 -121.5 -24
c-42 0 -79.5 6.83301 -112.5 20.5s-60.833 32.5 -83.5 56.5s-39.834 52.333 -51.501 85s-17.5 68 -17.5 106s5.83301 73.5 17.5 106.5s28.5 61.667 50.5 86s48.667 43.5 80 57.5s66.666 21 105.999 21c38 0 72.333 -6.5 103 -19.5s56.834 -30.833 78.501 -53.5
s38.167 -49.5 49.5 -80.5s17 -64.5 17 -100.5zM451 303.999c0 13.333 -2 25.832 -6 37.499s-8.66699 22.834 -14 33.501c-14 26 -33.333 45.667 -58 59s-52 20 -82 20c-22.667 0 -43.5 -3.66699 -62.5 -11s-35.333 -17.5 -49 -30.5s-24.667 -28.833 -33 -47.5
s-13.5 -39 -15.5 -61h320zM325 743.998c20 -18 40.6699 -35.667 62.0029 -53s45.666 -35.333 72.999 -54l-27 -44c-26.667 10 -53 22.333 -79 37s-47.667 30 -65 46c-18 -16 -39.833 -31.333 -65.5 -46s-51.834 -27 -78.501 -37l-27 44
c27.333 18.667 51.666 36.667 72.999 54s42 35 62 53h72z" />
    <glyph glyph-name="edieresis" unicode="&#xeb;" horiz-adv-x="572" 
d="M540 273c0 -8 -0.166992 -14.668 -0.5 -20.001s-0.833008 -9.66602 -1.5 -12.999h-409c0 -20.667 3.33301 -41 10 -61s15.667 -36.667 27 -50c32 -41.333 78.333 -62 139 -62s112.334 22.333 155.001 67l57 -56c-26.667 -28 -57.5 -50 -92.5 -66s-75.5 -24 -121.5 -24
c-42 0 -79.5 6.83301 -112.5 20.5s-60.833 32.5 -83.5 56.5s-39.834 52.333 -51.501 85s-17.5 68 -17.5 106s5.83301 73.5 17.5 106.5s28.5 61.667 50.5 86s48.667 43.5 80 57.5s66.666 21 105.999 21c38 0 72.333 -6.5 103 -19.5s56.834 -30.833 78.501 -53.5
s38.167 -49.5 49.5 -80.5s17 -64.5 17 -100.5zM451 303.999c0 13.333 -2 25.832 -6 37.499s-8.66699 22.834 -14 33.501c-14 26 -33.333 45.667 -58 59s-52 20 -82 20c-22.667 0 -43.5 -3.66699 -62.5 -11s-35.333 -17.5 -49 -30.5s-24.667 -28.833 -33 -47.5
s-13.5 -39 -15.5 -61h320zM139 605.998v82h80v-82h-80zM361 605.998v82h80v-82h-80z" />
    <glyph glyph-name="igrave" unicode="&#xec;" horiz-adv-x="228" 
d="M71 0v515h86v-515h-86zM142 593c-15.333 8.66699 -30.666 18.998 -45.999 30.998s-29.833 24.667 -43.5 38s-25.834 26.833 -36.501 40.5s-19 26.834 -25 39.501l92 14c4.66699 -9.33301 10.667 -19.666 18 -30.999s15.5 -22.833 24.5 -34.5l27 -34.5
c9 -11.333 18.167 -22 27.5 -32z" />
    <glyph glyph-name="iacute" unicode="&#xed;" horiz-adv-x="228" 
d="M71 0v515h86v-515h-86zM57 624c9.33301 10 18.5 20.6689 27.5 32.002l27 34.5c9 11.667 17.167 23.167 24.5 34.5s13.333 21.666 18 30.999l92 -14c-6 -12.667 -14.333 -25.834 -25 -39.501s-22.834 -27.167 -36.501 -40.5s-28.167 -26 -43.5 -38
s-30.666 -22.333 -45.999 -31z" />
    <glyph glyph-name="icircumflex" unicode="&#xee;" horiz-adv-x="228" 
d="M71 0v515h86v-515h-86zM150 744c20 -18 40.6699 -35.667 62.0029 -53s45.666 -35.333 72.999 -54l-27 -44c-26.667 10 -53 22.333 -79 37s-47.667 30 -65 46c-18 -16 -39.833 -31.333 -65.5 -46s-51.834 -27 -78.501 -37l-27 44c27.333 18.667 51.666 36.667 72.999 54
s42 35 62 53h72z" />
    <glyph glyph-name="idieresis" unicode="&#xef;" horiz-adv-x="228" 
d="M-10 608v78h75v-78h-75zM163 608v78h75v-78h-75zM71 0v515h86v-515h-86z" />
    <glyph glyph-name="eth" unicode="&#xf0;" horiz-adv-x="599" 
d="M275 494c29.333 0 57.832 -4.99902 85.499 -14.999s52.167 -25.667 73.5 -47c-12.667 26.667 -28.834 52.667 -48.501 78s-41.5 49 -65.5 71l-126 -59l-18 41l103 50l-42.5 29c-14.333 9.33301 -29.166 17.666 -44.499 24.999l58 58l57 -35
c18.667 -12 36.667 -25.667 54 -41l120 56l19 -41l-101 -48c39.333 -38.667 72.5 -82.834 99.5 -132.501s43.833 -104.167 50.5 -163.5c1.33301 -9.33301 2.16602 -19 2.49902 -29s0.5 -20 0.5 -30c-1.33301 -38 -7.16602 -74 -17.499 -108s-27.833 -63.667 -52.5 -89
c-24 -25.333 -52 -44.333 -84 -57s-66.667 -19 -104 -19c-38.667 0 -73.667 6.5 -105 19.5s-58.166 30.833 -80.499 53.5s-39.5 49.5 -51.5 80.5s-18 64.5 -18 100.5c0 36.667 5.66699 70.334 17 101.001s27.5 57.167 48.5 79.5s45.833 39.833 74.5 52.5s60.667 19 96 19z
M464.999 241.001c0 24 -3.83301 46.667 -11.5 68s-18.667 40 -33 56s-32.166 28.667 -53.499 38s-45.666 14 -72.999 14s-51.333 -4.66699 -72 -14s-37.834 -22 -51.501 -38s-23.834 -34.667 -30.501 -56s-10 -44 -10 -68s3.33301 -46.5 10 -67.5s16.834 -39.333 30.501 -55
s30.834 -28.167 51.501 -37.5s44.667 -14 72 -14c28 0 52.667 4.5 74 13.5s39.166 21.5 53.499 37.5s25.166 34.5 32.499 55.5s11 43.5 11 67.5z" />
    <glyph glyph-name="ntilde" unicode="&#xf1;" horiz-adv-x="583" 
d="M70 0v515.001h86v-86c21.333 32 46.833 56.333 76.5 73s63.5 25 101.5 25c56.667 0 101.167 -17.167 133.5 -51.5s48.5 -82.5 48.5 -144.5v-331h-86v311c0 15.333 -1.5 31.166 -4.5 47.499s-8.66699 31 -17 44s-20 23.667 -35 32s-34.833 12.5 -59.5 12.5
c-22.667 0 -43.667 -4 -63 -12s-36 -19.167 -50 -33.5s-25 -31.5 -33 -51.5s-12 -42 -12 -66v-284h-86zM482 699.001c-10 -27.333 -23.999 -48.834 -41.999 -64.501s-37.667 -23.5 -59 -23.5c-12 0 -24 2.16699 -36 6.5s-23.833 9 -35.5 14s-23.167 9.66699 -34.5 14
s-22 6.5 -32 6.5c-12 0 -23.5 -3.16699 -34.5 -9.5s-22.5 -16.5 -34.5 -30.5l-37 25c10 26.667 24 47.834 42 63.501s38 23.5 60 23.5c12 0 24 -2.16699 36 -6.5s23.833 -8.83301 35.5 -13.5l34 -13.5c11 -4.33301 21.5 -6.5 31.5 -6.5c12 0 23.667 3 35 9
s22.666 16 33.999 30z" />
    <glyph glyph-name="ograve" unicode="&#xf2;" horiz-adv-x="586" 
d="M303 593c-15.333 8.66699 -30.666 18.998 -45.999 30.998s-29.833 24.667 -43.5 38s-25.834 26.833 -36.501 40.5s-19 26.834 -25 39.501l92 14c4.66699 -9.33301 10.667 -19.666 18 -30.999s15.5 -22.833 24.5 -34.5l27 -34.5c9 -11.333 18.167 -22 27.5 -32z
M549 256.998c0 -38.667 -6 -74.334 -18 -107.001s-29 -61 -51 -85s-48.833 -42.833 -80.5 -56.5s-67.167 -20.5 -106.5 -20.5s-74.666 6.83301 -105.999 20.5s-58 32.5 -80 56.5s-39 52.333 -51 85s-18 68.334 -18 107.001s6 74.5 18 107.5s29 61.5 51 85.5
s48.667 42.833 80 56.5s66.666 20.5 105.999 20.5s74.833 -6.83301 106.5 -20.5s58.5 -32.5 80.5 -56.5s39 -52.5 51 -85.5s18 -68.833 18 -107.5zM457 256.998c0 27.333 -3.66699 52.666 -11 75.999s-18 43.666 -32 60.999s-31.167 31 -51.5 41s-43.5 15 -69.5 15
s-49.167 -5 -69.5 -15s-37.5 -23.667 -51.5 -41s-24.667 -37.666 -32 -60.999s-11 -48.666 -11 -75.999c0 -26.667 3.66699 -51.834 11 -75.501s18 -44 32 -61s31.167 -30.5 51.5 -40.5s43.5 -15 69.5 -15s49.167 5 69.5 15s37.5 23.5 51.5 40.5s24.667 37.333 32 61
s11 48.834 11 75.501z" />
    <glyph glyph-name="oacute" unicode="&#xf3;" horiz-adv-x="586" 
d="M229 624c9.33301 10 18.5 20.6689 27.5 32.002l27 34.5c9 11.667 17.167 23.167 24.5 34.5s13.333 21.666 18 30.999l92 -14c-6 -12.667 -14.333 -25.834 -25 -39.501s-22.834 -27.167 -36.501 -40.5s-28.167 -26 -43.5 -38s-30.666 -22.333 -45.999 -31zM549 257.002
c0 -38.667 -6 -74.334 -18 -107.001s-29 -61 -51 -85s-48.833 -42.833 -80.5 -56.5s-67.167 -20.5 -106.5 -20.5s-74.666 6.83301 -105.999 20.5s-58 32.5 -80 56.5s-39 52.333 -51 85s-18 68.334 -18 107.001s6 74.5 18 107.5s29 61.5 51 85.5s48.667 42.833 80 56.5
s66.666 20.5 105.999 20.5s74.833 -6.83301 106.5 -20.5s58.5 -32.5 80.5 -56.5s39 -52.5 51 -85.5s18 -68.833 18 -107.5zM457 257.002c0 27.333 -3.66699 52.666 -11 75.999s-18 43.666 -32 60.999s-31.167 31 -51.5 41s-43.5 15 -69.5 15s-49.167 -5 -69.5 -15
s-37.5 -23.667 -51.5 -41s-24.667 -37.666 -32 -60.999s-11 -48.666 -11 -75.999c0 -26.667 3.66699 -51.834 11 -75.501s18 -44 32 -61s31.167 -30.5 51.5 -40.5s43.5 -15 69.5 -15s49.167 5 69.5 15s37.5 23.5 51.5 40.5s24.667 37.333 32 61s11 48.834 11 75.501z" />
    <glyph glyph-name="ocircumflex" unicode="&#xf4;" horiz-adv-x="586" 
d="M329 744c20 -18 40.6699 -35.667 62.0029 -53s45.666 -35.333 72.999 -54l-27 -44c-26.667 10 -53 22.333 -79 37s-47.667 30 -65 46c-18 -16 -39.833 -31.333 -65.5 -46s-51.834 -27 -78.501 -37l-27 44c27.333 18.667 51.666 36.667 72.999 54s42 35 62 53h72z
M549.003 257c0 -38.667 -6 -74.334 -18 -107.001s-29 -61 -51 -85s-48.833 -42.833 -80.5 -56.5s-67.167 -20.5 -106.5 -20.5s-74.666 6.83301 -105.999 20.5s-58 32.5 -80 56.5s-39 52.333 -51 85s-18 68.334 -18 107.001s6 74.5 18 107.5s29 61.5 51 85.5
s48.667 42.833 80 56.5s66.666 20.5 105.999 20.5s74.833 -6.83301 106.5 -20.5s58.5 -32.5 80.5 -56.5s39 -52.5 51 -85.5s18 -68.833 18 -107.5zM457.003 257c0 27.333 -3.66699 52.666 -11 75.999s-18 43.666 -32 60.999s-31.167 31 -51.5 41s-43.5 15 -69.5 15
s-49.167 -5 -69.5 -15s-37.5 -23.667 -51.5 -41s-24.667 -37.666 -32 -60.999s-11 -48.666 -11 -75.999c0 -26.667 3.66699 -51.834 11 -75.501s18 -44 32 -61s31.167 -30.5 51.5 -40.5s43.5 -15 69.5 -15s49.167 5 69.5 15s37.5 23.5 51.5 40.5s24.667 37.333 32 61
s11 48.834 11 75.501z" />
    <glyph glyph-name="otilde" unicode="&#xf5;" horiz-adv-x="586" 
d="M463 699c-10 -27.333 -23.999 -48.834 -41.999 -64.501s-37.667 -23.5 -59 -23.5c-12 0 -24 2.16699 -36 6.5s-23.833 9 -35.5 14s-23.167 9.66699 -34.5 14s-22 6.5 -32 6.5c-12 0 -23.5 -3.16699 -34.5 -9.5s-22.5 -16.5 -34.5 -30.5l-37 25
c10 26.667 24 47.834 42 63.501s38 23.5 60 23.5c12 0 24 -2.16699 36 -6.5s23.833 -8.83301 35.5 -13.5l34 -13.5c11 -4.33301 21.5 -6.5 31.5 -6.5c12 0 23.667 3 35 9s22.666 16 33.999 30zM549.001 256.999c0 -38.667 -6 -74.334 -18 -107.001s-29 -61 -51 -85
s-48.833 -42.833 -80.5 -56.5s-67.167 -20.5 -106.5 -20.5s-74.666 6.83301 -105.999 20.5s-58 32.5 -80 56.5s-39 52.333 -51 85s-18 68.334 -18 107.001s6 74.5 18 107.5s29 61.5 51 85.5s48.667 42.833 80 56.5s66.666 20.5 105.999 20.5s74.833 -6.83301 106.5 -20.5
s58.5 -32.5 80.5 -56.5s39 -52.5 51 -85.5s18 -68.833 18 -107.5zM457.001 256.999c0 27.333 -3.66699 52.666 -11 75.999s-18 43.666 -32 60.999s-31.167 31 -51.5 41s-43.5 15 -69.5 15s-49.167 -5 -69.5 -15s-37.5 -23.667 -51.5 -41s-24.667 -37.666 -32 -60.999
s-11 -48.666 -11 -75.999c0 -26.667 3.66699 -51.834 11 -75.501s18 -44 32 -61s31.167 -30.5 51.5 -40.5s43.5 -15 69.5 -15s49.167 5 69.5 15s37.5 23.5 51.5 40.5s24.667 37.333 32 61s11 48.834 11 75.501z" />
    <glyph glyph-name="odieresis" unicode="&#xf6;" horiz-adv-x="586" 
d="M142 606v82h80v-82h-80zM364 606v82h80v-82h-80zM549 257c0 -38.667 -6 -74.334 -18 -107.001s-29 -61 -51 -85s-48.833 -42.833 -80.5 -56.5s-67.167 -20.5 -106.5 -20.5s-74.666 6.83301 -105.999 20.5s-58 32.5 -80 56.5s-39 52.333 -51 85s-18 68.334 -18 107.001
s6 74.5 18 107.5s29 61.5 51 85.5s48.667 42.833 80 56.5s66.666 20.5 105.999 20.5s74.833 -6.83301 106.5 -20.5s58.5 -32.5 80.5 -56.5s39 -52.5 51 -85.5s18 -68.833 18 -107.5zM457 257c0 27.333 -3.66699 52.666 -11 75.999s-18 43.666 -32 60.999
s-31.167 31 -51.5 41s-43.5 15 -69.5 15s-49.167 -5 -69.5 -15s-37.5 -23.667 -51.5 -41s-24.667 -37.666 -32 -60.999s-11 -48.666 -11 -75.999c0 -26.667 3.66699 -51.834 11 -75.501s18 -44 32 -61s31.167 -30.5 51.5 -40.5s43.5 -15 69.5 -15s49.167 5 69.5 15
s37.5 23.5 51.5 40.5s24.667 37.333 32 61s11 48.834 11 75.501z" />
    <glyph glyph-name="divide" unicode="&#xf7;" 
d="M355 491c0 -17.333 -5.83301 -32 -17.5 -44s-26.167 -18 -43.5 -18s-32 6 -44 18s-18 26.667 -18 44c0 16.667 6 31 18 43s26.667 18 44 18s31.833 -6 43.5 -18s17.5 -26.333 17.5 -43zM56 266v76h475v-76h-475zM355 117c0 -16.667 -5.83301 -31 -17.5 -43
s-26.167 -18 -43.5 -18s-32 6 -44 18s-18 26.333 -18 43c0 17.333 6 32.166 18 44.499s26.667 18.5 44 18.5s31.833 -6.16699 43.5 -18.5s17.5 -27.166 17.5 -44.499z" />
    <glyph glyph-name="oslash" unicode="&#xf8;" horiz-adv-x="586" 
d="M92 20l24.002 35.002c-25.333 24 -44.666 53.5 -57.999 88.5s-20 73.5 -20 115.5c0 39.333 6 75.666 18 108.999s29 62.166 51 86.499s48.667 43.333 80 57s66.666 20.5 105.999 20.5c25.333 0 49.166 -3 71.499 -9s42.833 -14.667 61.5 -26l23 33l45 -30l-24 -35
c25.333 -24.667 44.833 -54.5 58.5 -89.5s20.5 -73.833 20.5 -116.5c0 -38.667 -6 -74.5 -18 -107.5s-29 -61.667 -51 -86s-48.833 -43.333 -80.5 -57s-67.167 -20.5 -106.5 -20.5c-50.667 0 -95.334 11.667 -134.001 35l-22 -33zM128.002 259.002
c0 -25.333 3.16797 -49.167 9.50098 -71.5s16.166 -42.166 29.499 -59.499l212 302c-24 16.667 -52.667 25 -86 25c-26 0 -49.333 -5 -70 -15s-38 -23.833 -52 -41.5s-24.667 -38.334 -32 -62.001s-11 -49.5 -11 -77.5zM457.003 259.001c0 52.667 -13 96.668 -39 132.001
l-212 -302c24 -16 53 -24 87 -24c26 0 49.167 5 69.5 15s37.5 23.833 51.5 41.5s24.667 38.167 32 61.5s11 48.666 11 75.999z" />
    <glyph glyph-name="ugrave" unicode="&#xf9;" horiz-adv-x="582" 
d="M512 515l0.00292969 -515.001h-86v86c-22 -32 -47.667 -56.333 -77 -73s-63 -25 -101 -25c-56.667 0 -101.334 17.167 -134.001 51.5s-49 82.833 -49 145.5v330h86v-310c0 -16 1.5 -32 4.5 -48s8.66699 -30.667 17 -44s20.166 -24.166 35.499 -32.499s35 -12.5 59 -12.5
c22.667 0 43.667 4 63 12s36.166 19.167 50.499 33.5s25.5 31.5 33.5 51.5s12 42 12 66v284h86zM300.003 592.999c-15.333 8.66699 -30.666 18.998 -45.999 30.998s-29.833 24.667 -43.5 38s-25.834 26.833 -36.501 40.5s-19 26.834 -25 39.501l92 14
c4.66699 -9.33301 10.667 -19.666 18 -30.999s15.5 -22.833 24.5 -34.5l27 -34.5c9 -11.333 18.167 -22 27.5 -32z" />
    <glyph glyph-name="uacute" unicode="&#xfa;" horiz-adv-x="582" 
d="M512 515l0.00292969 -515.001h-86v86c-22 -32 -47.667 -56.333 -77 -73s-63 -25 -101 -25c-56.667 0 -101.334 17.167 -134.001 51.5s-49 82.833 -49 145.5v330h86v-310c0 -16 1.5 -32 4.5 -48s8.66699 -30.667 17 -44s20.166 -24.166 35.499 -32.499s35 -12.5 59 -12.5
c22.667 0 43.667 4 63 12s36.166 19.167 50.499 33.5s25.5 31.5 33.5 51.5s12 42 12 66v284h86zM243.003 623.999c9.33301 10 18.5 20.6689 27.5 32.002l27 34.5c9 11.667 17.167 23.167 24.5 34.5s13.333 21.666 18 30.999l92 -14c-6 -12.667 -14.333 -25.834 -25 -39.501
s-22.834 -27.167 -36.501 -40.5s-28.167 -26 -43.5 -38s-30.666 -22.333 -45.999 -31z" />
    <glyph glyph-name="ucircumflex" unicode="&#xfb;" horiz-adv-x="582" 
d="M512 515l0.00292969 -515.001h-86v86c-22 -32 -47.667 -56.333 -77 -73s-63 -25 -101 -25c-56.667 0 -101.334 17.167 -134.001 51.5s-49 82.833 -49 145.5v330h86v-310c0 -16 1.5 -32 4.5 -48s8.66699 -30.667 17 -44s20.166 -24.166 35.499 -32.499s35 -12.5 59 -12.5
c22.667 0 43.667 4 63 12s36.166 19.167 50.499 33.5s25.5 31.5 33.5 51.5s12 42 12 66v284h86zM323.003 743.999c20 -18 40.6699 -35.667 62.0029 -53s45.666 -35.333 72.999 -54l-27 -44c-26.667 10 -53 22.333 -79 37s-47.667 30 -65 46
c-18 -16 -39.833 -31.333 -65.5 -46s-51.834 -27 -78.501 -37l-27 44c27.333 18.667 51.666 36.667 72.999 54s42 35 62 53h72z" />
    <glyph glyph-name="udieresis" unicode="&#xfc;" horiz-adv-x="582" 
d="M512 515l0.00292969 -515.001h-86v86c-22 -32 -47.667 -56.333 -77 -73s-63 -25 -101 -25c-56.667 0 -101.334 17.167 -134.001 51.5s-49 82.833 -49 145.5v330h86v-310c0 -16 1.5 -32 4.5 -48s8.66699 -30.667 17 -44s20.166 -24.166 35.499 -32.499s35 -12.5 59 -12.5
c22.667 0 43.667 4 63 12s36.166 19.167 50.499 33.5s25.5 31.5 33.5 51.5s12 42 12 66v284h86zM137.003 605.999v82h80v-82h-80zM359.003 605.999v82h80v-82h-80z" />
    <glyph glyph-name="yacute" unicode="&#xfd;" horiz-adv-x="519" 
d="M304 -25c-10 -26 -20.332 -48.8311 -30.999 -68.498s-23 -36.334 -37 -50.001s-30 -23.834 -48 -30.501s-39 -10 -63 -10c-40.667 0 -75.667 10.667 -105 32l37 63c9.33301 -6 19.166 -10.833 29.499 -14.5s21.5 -5.5 33.5 -5.5c24 0 43 7.5 57 22.5
s25.667 33.833 35 56.5l14 31l-220 514h99l166 -401l148 401h92zM210.001 624.002c9.33301 10 18.5 20.6689 27.5 32.002l27 34.5c9 11.667 17.167 23.167 24.5 34.5s13.333 21.666 18 30.999l92 -14c-6 -12.667 -14.333 -25.834 -25 -39.501s-22.834 -27.167 -36.501 -40.5
s-28.167 -26 -43.5 -38s-30.666 -22.333 -45.999 -31z" />
    <glyph glyph-name="thorn" unicode="&#xfe;" horiz-adv-x="619" 
d="M157 714v-284c24.667 35.333 52.834 60.333 84.501 75s64.834 22 99.501 22c37.333 0 70.833 -6.83301 100.5 -20.5s54.834 -32.667 75.501 -57s36.5 -52.833 47.5 -85.5s16.5 -68 16.5 -106s-5.5 -73.5 -16.5 -106.5s-26.833 -61.667 -47.5 -86
s-45.834 -43.333 -75.501 -57s-63.167 -20.5 -100.5 -20.5c-34.667 0 -67.834 7.5 -99.501 22.5s-59.834 39.5 -84.501 73.5v-258h-86v888h86zM157 257c0 -26.667 3.66797 -51.499 11.001 -74.499s18.166 -43 32.499 -60s32 -30.5 53 -40.5s45.5 -15 73.5 -15
c27.333 0 51.166 5 71.499 15s37.333 23.5 51 40.5s23.834 37.167 30.501 60.5s10 48 10 74s-3.33301 50.667 -10 74s-16.834 43.666 -30.501 60.999s-30.667 31 -51 41s-44.166 15 -71.499 15c-28 0 -52.667 -5 -74 -15s-39 -23.667 -53 -41s-24.667 -37.5 -32 -60.5
s-11 -47.833 -11 -74.5z" />
    <glyph glyph-name="ydieresis" unicode="&#xff;" horiz-adv-x="519" 
d="M304 -25c-10 -26 -20.332 -48.8311 -30.999 -68.498s-23 -36.334 -37 -50.001s-30 -23.834 -48 -30.501s-39 -10 -63 -10c-40.667 0 -75.667 10.667 -105 32l37 63c9.33301 -6 19.166 -10.833 29.499 -14.5s21.5 -5.5 33.5 -5.5c24 0 43 7.5 57 22.5
s25.667 33.833 35 56.5l14 31l-220 514h99l166 -401l148 401h92zM113.001 606.002v82h80v-82h-80zM335.001 606.002v82h80v-82h-80z" />
    <glyph glyph-name="Amacron" unicode="&#x100;" horiz-adv-x="678" 
d="M573 0l-77 198h-317l-79 -198h-98l283 700h108l283 -700h-103zM339 613l-130 -333h257zM189 783v58h300v-58h-300z" />
    <glyph glyph-name="amacron" unicode="&#x101;" horiz-adv-x="556" 
d="M552 2c-9.33301 -3.33301 -19.335 -5.83301 -30.002 -7.5s-20.334 -2.5 -29.001 -2.5c-25.333 0 -47.5 6.5 -66.5 19.5s-30.833 33.833 -35.5 62.5c-22.667 -32.667 -50.167 -55.167 -82.5 -67.5s-64.5 -18.5 -96.5 -18.5c-53.333 0 -96 13.833 -128 41.5
s-48 66.167 -48 115.5c0 30 5.83301 54.5 17.5 73.5s26.5 34 44.5 45s37.5 19 58.5 24s40.5 8.5 58.5 10.5l61.5 8c20.333 2.66699 38.333 6.5 54 11.5s28.334 12.167 38.001 21.5s14.5 22 14.5 38c0 14 -3.66699 25.833 -11 35.5s-16.833 17.5 -28.5 23.5
s-24.667 10.167 -39 12.5s-28.166 3.5 -41.499 3.5c-28.667 0 -57 -4.66699 -85 -14s-53.667 -22.666 -77 -39.999l-40 64c30 21.333 61.667 37.666 95 48.999s70.333 17 111 17c30 0 57.333 -3.33301 82 -10s45.834 -16.667 63.501 -30s31.5 -30.333 41.5 -51
s15 -45 15 -73v-249c0 -19.333 3 -33.333 9 -42s16.667 -13 32 -13c12.667 0 23 2 31 6zM382.998 289c-9.33301 -11.333 -19.332 -19.833 -29.999 -25.5s-22.334 -10.167 -35.001 -13.5s-26.167 -5.83301 -40.5 -7.5s-29.5 -3.83398 -45.5 -6.50098
c-15.333 -2.66699 -29.5 -5.66699 -42.5 -9s-24.333 -8.33301 -34 -15s-17.334 -15 -23.001 -25s-8.5 -23 -8.5 -39c0 -31.333 10.333 -53.833 31 -67.5s46.334 -20.5 77.001 -20.5c18.667 0 37.167 2.66699 55.5 8s34.5 13.5 48.5 24.5s25.333 25.333 34 43
s13 38.834 13 63.501v90zM111.999 621v58h300v-58h-300z" />
    <glyph glyph-name="Abreve" unicode="&#x102;" horiz-adv-x="678" 
d="M573 0l-77 198h-317l-79 -198h-98l283 700h108l283 -700h-103zM339 613l-130 -333h257zM339 765c-46.667 0 -84.5 11.667 -113.5 35s-46.167 52.666 -51.5 87.999l53 16c5.33301 -20.667 17.5 -37.834 36.5 -51.501s44.167 -20.5 75.5 -20.5s56.5 6.83301 75.5 20.5
s31.167 30.834 36.5 51.501l53 -16c-5.33301 -35.333 -22.5 -64.666 -51.5 -87.999s-66.833 -35 -113.5 -35z" />
    <glyph glyph-name="abreve" unicode="&#x103;" horiz-adv-x="556" 
d="M552 2c-9.33301 -3.33301 -19.335 -5.83301 -30.002 -7.5s-20.334 -2.5 -29.001 -2.5c-25.333 0 -47.5 6.5 -66.5 19.5s-30.833 33.833 -35.5 62.5c-22.667 -32.667 -50.167 -55.167 -82.5 -67.5s-64.5 -18.5 -96.5 -18.5c-53.333 0 -96 13.833 -128 41.5
s-48 66.167 -48 115.5c0 30 5.83301 54.5 17.5 73.5s26.5 34 44.5 45s37.5 19 58.5 24s40.5 8.5 58.5 10.5l61.5 8c20.333 2.66699 38.333 6.5 54 11.5s28.334 12.167 38.001 21.5s14.5 22 14.5 38c0 14 -3.66699 25.833 -11 35.5s-16.833 17.5 -28.5 23.5
s-24.667 10.167 -39 12.5s-28.166 3.5 -41.499 3.5c-28.667 0 -57 -4.66699 -85 -14s-53.667 -22.666 -77 -39.999l-40 64c30 21.333 61.667 37.666 95 48.999s70.333 17 111 17c30 0 57.333 -3.33301 82 -10s45.834 -16.667 63.501 -30s31.5 -30.333 41.5 -51
s15 -45 15 -73v-249c0 -19.333 3 -33.333 9 -42s16.667 -13 32 -13c12.667 0 23 2 31 6zM382.998 289c-9.33301 -11.333 -19.332 -19.833 -29.999 -25.5s-22.334 -10.167 -35.001 -13.5s-26.167 -5.83301 -40.5 -7.5s-29.5 -3.83398 -45.5 -6.50098
c-15.333 -2.66699 -29.5 -5.66699 -42.5 -9s-24.333 -8.33301 -34 -15s-17.334 -15 -23.001 -25s-8.5 -23 -8.5 -39c0 -31.333 10.333 -53.833 31 -67.5s46.334 -20.5 77.001 -20.5c18.667 0 37.167 2.66699 55.5 8s34.5 13.5 48.5 24.5s25.333 25.333 34 43
s13 38.834 13 63.501v90zM259.999 603c-46.667 0 -84.5 11.667 -113.5 35s-46.167 52.666 -51.5 87.999l53 16c5.33301 -20.667 17.5 -37.834 36.5 -51.501s44.167 -20.5 75.5 -20.5s56.5 6.83301 75.5 20.5s31.167 30.834 36.5 51.501l53 -16
c-5.33301 -35.333 -22.5 -64.666 -51.5 -87.999s-66.833 -35 -113.5 -35z" />
    <glyph glyph-name="Aogonek" unicode="&#x104;" horiz-adv-x="678" 
d="M676 0c-38.667 -5.33301 -67.6689 -14.501 -87.002 -27.501s-29 -29.167 -29 -48.5c0 -12.667 4.5 -23.334 13.5 -32.001s21.833 -13 38.5 -13c16 0 29.333 3.5 40 10.5s20.334 15.5 29.001 25.5v-69c-7.33301 -8 -18.166 -15.167 -32.499 -21.5
s-31.166 -9.5 -50.499 -9.5c-14 0 -27.167 1.83301 -39.5 5.5s-23.333 9.33398 -33 17.001s-17.334 16.834 -23.001 27.501s-8.5 23 -8.5 37c0 16.667 5.33301 33.667 16 51s31 34.333 61 51l-77 194h-315l-79 -198h-98l283 700h108zM338.998 612.999l-130 -333h256z" />
    <glyph glyph-name="aogonek" unicode="&#x105;" horiz-adv-x="556" 
d="M548 2c-7.33301 -3.33301 -15.498 -5.49512 -24.498 -6.49512s-17.167 -1.83301 -24.5 -2.5h-15.5c-5 0 -10.167 0.333008 -15.5 1c-18 -17.333 -27.667 -36.333 -29 -57c-1.33301 -15.333 1.66699 -26.333 9 -33c3.33301 -5.33301 8.33301 -9.5 15 -12.5
s14.667 -4.5 24 -4.5c14 0 26 3.16699 36 9.5s18.667 13.833 26 22.5v-67c-7.33301 -6.66699 -17.333 -12.667 -30 -18s-27.667 -8 -45 -8c-28 0 -51.833 7 -71.5 21s-29.5 35.333 -29.5 64c0 15.333 4.5 31.166 13.5 47.499s23.833 32.166 44.5 47.499
c-11.333 6.66699 -20.833 15.5 -28.5 26.5s-12.834 24.833 -15.501 41.5c-22.667 -32.667 -50.167 -55.167 -82.5 -67.5s-64.5 -18.5 -96.5 -18.5c-53.333 0 -96 13.667 -128 41s-48 65.666 -48 114.999c0 30 5.83301 54.5 17.5 73.5s26.5 34 44.5 45s37.5 19 58.5 24
s40.5 8.83301 58.5 11.5l51.5 6c17 2 32.5 4.66699 46.5 8s26.5 7.66602 37.5 12.999s19.167 12.666 24.5 21.999c4.66699 10 6.66699 21.333 6 34c-1.33301 12.667 -5.66602 23.5 -12.999 32.5s-16.666 16.333 -27.999 22s-23.833 9.66699 -37.5 12
s-26.834 3.5 -39.501 3.5c-30 0 -58.833 -4.66699 -86.5 -14s-52.834 -22.666 -75.501 -39.999l-40 65c30 21.333 61.667 37.5 95 48.5s70.666 16.5 111.999 16.5c28.667 0 55 -3 79 -9s44.833 -15.5 62.5 -28.5s31.5 -29.5 41.5 -49.5s15.667 -44 17 -72
c0.666992 -7.33301 1 -14.5 1 -21.5v-21.5v-211c0 -18.667 3 -32.334 9 -41.001s16.667 -13 32 -13c12.667 0 23 2 31 6zM379.002 288.005c-10.667 -12.667 -24.499 -22.168 -41.499 -28.501s-35 -11.333 -54 -15s-38.333 -6.83398 -58 -9.50098
s-37.334 -7.16699 -53.001 -13.5s-28.334 -15.166 -38.001 -26.499s-14.5 -27 -14.5 -47c0 -31.333 10.333 -53.833 31 -67.5s46.334 -20.5 77.001 -20.5c18.667 0 37.167 2.66699 55.5 8s34.5 13.5 48.5 24.5s25.333 25.333 34 43s13 38.834 13 63.501v89z" />
    <glyph glyph-name="Cacute" unicode="&#x106;" horiz-adv-x="683" 
d="M579 523c-21.333 33.333 -48.498 59.0029 -81.498 77.0029s-71.833 27 -116.5 27c-36.667 0 -70 -6.5 -100 -19.5s-55.5 -31.5 -76.5 -55.5s-37.167 -53 -48.5 -87s-17 -72 -17 -114s5.66699 -80.167 17 -114.5s27.5 -63.5 48.5 -87.5s46.333 -42.667 76 -56
s62.5 -20 98.5 -20c44 0 82.833 9.33301 116.5 28s61.167 44.667 82.5 78l77 -49c-30 -44.667 -68.167 -79.667 -114.5 -105s-99.833 -38 -160.5 -38c-51.333 0 -97.833 9.16699 -139.5 27.5s-77.334 43.666 -107.001 75.999s-52.5 70.666 -68.5 114.999s-24 92.5 -24 144.5
c0 52.667 8 101.167 24 145.5s38.833 82.666 68.5 114.999s65.167 57.5 106.5 75.5s87.666 27 138.999 27c60.667 0 113.5 -12.167 158.5 -36.5s83.167 -58.5 114.5 -102.5zM305.002 786.003c9.33301 10 18.5 20.6689 27.5 32.002l27 34.5c9 11.667 17.167 23.167 24.5 34.5
s13.333 21.666 18 30.999l92 -14c-6 -12.667 -14.333 -25.834 -25 -39.501s-22.834 -27.167 -36.501 -40.5s-28.167 -26 -43.5 -38s-30.666 -22.333 -45.999 -31z" />
    <glyph glyph-name="cacute" unicode="&#x107;" horiz-adv-x="525" 
d="M499 96c-22 -31.333 -50.4971 -57.167 -85.4971 -77.5s-76.5 -30.5 -124.5 -30.5c-38.667 0 -73.5 6.83301 -104.5 20.5s-57.333 32.5 -79 56.5s-38.334 52.5 -50.001 85.5s-17.5 68.833 -17.5 107.5c0 38 5.83301 73.5 17.5 106.5s28.5 61.5 50.5 85.5
s48.5 42.833 79.5 56.5s65.5 20.5 103.5 20.5c46.667 0 87.5 -9.83301 122.5 -29.5s63.833 -45.834 86.5 -78.501l-67 -47c-15.333 23.333 -34.5 42 -57.5 56s-50.167 21 -81.5 21c-25.333 0 -48 -4.83301 -68 -14.5s-37 -23 -51 -40s-24.833 -37.167 -32.5 -60.5
s-11.5 -48.666 -11.5 -75.999s3.83301 -52.833 11.5 -76.5s18.5 -44 32.5 -61s31 -30.333 51 -40s42.333 -14.5 67 -14.5c33.333 0 61.666 7.5 84.999 22.5s42.666 33.5 57.999 55.5zM237.003 616.999c16 18.667 30.999 40 44.999 64s25.333 45.667 34 65l87 -13
c-10.667 -24.667 -27.667 -50.167 -51 -76.5s-49.666 -48.833 -78.999 -67.5z" />
    <glyph glyph-name="Ccircumflex" unicode="&#x108;" horiz-adv-x="683" 
d="M579 523c-21.333 33.333 -48.498 59.0029 -81.498 77.0029s-71.833 27 -116.5 27c-36.667 0 -70 -6.5 -100 -19.5s-55.5 -31.5 -76.5 -55.5s-37.167 -53 -48.5 -87s-17 -72 -17 -114s5.66699 -80.167 17 -114.5s27.5 -63.5 48.5 -87.5s46.333 -42.667 76 -56
s62.5 -20 98.5 -20c44 0 82.833 9.33301 116.5 28s61.167 44.667 82.5 78l77 -49c-30 -44.667 -68.167 -79.667 -114.5 -105s-99.833 -38 -160.5 -38c-51.333 0 -97.833 9.16699 -139.5 27.5s-77.334 43.666 -107.001 75.999s-52.5 70.666 -68.5 114.999s-24 92.5 -24 144.5
c0 52.667 8 101.167 24 145.5s38.833 82.666 68.5 114.999s65.167 57.5 106.5 75.5s87.666 27 138.999 27c60.667 0 113.5 -12.167 158.5 -36.5s83.167 -58.5 114.5 -102.5zM413.002 906.003c20 -18 40.6699 -35.667 62.0029 -53s45.666 -35.333 72.999 -54l-27 -44
c-26.667 10 -53 22.333 -79 37s-47.667 30 -65 46c-18 -16 -39.833 -31.333 -65.5 -46s-51.834 -27 -78.501 -37l-27 44c27.333 18.667 51.666 36.667 72.999 54s42 35 62 53h72z" />
    <glyph glyph-name="ccircumflex" unicode="&#x109;" horiz-adv-x="525" 
d="M499 96c-22 -31.333 -50.4971 -57.167 -85.4971 -77.5s-76.5 -30.5 -124.5 -30.5c-38.667 0 -73.5 6.83301 -104.5 20.5s-57.333 32.5 -79 56.5s-38.334 52.5 -50.001 85.5s-17.5 68.833 -17.5 107.5c0 38 5.83301 73.5 17.5 106.5s28.5 61.5 50.5 85.5
s48.5 42.833 79.5 56.5s65.5 20.5 103.5 20.5c46.667 0 87.5 -9.83301 122.5 -29.5s63.833 -45.834 86.5 -78.501l-67 -47c-15.333 23.333 -34.5 42 -57.5 56s-50.167 21 -81.5 21c-25.333 0 -48 -4.83301 -68 -14.5s-37 -23 -51 -40s-24.833 -37.167 -32.5 -60.5
s-11.5 -48.666 -11.5 -75.999s3.83301 -52.833 11.5 -76.5s18.5 -44 32.5 -61s31 -30.333 51 -40s42.333 -14.5 67 -14.5c33.333 0 61.666 7.5 84.999 22.5s42.666 33.5 57.999 55.5zM327.003 743.999c20 -18 40.6699 -35.667 62.0029 -53s45.666 -35.333 72.999 -54
l-27 -44c-26.667 10 -53 22.333 -79 37s-47.667 30 -65 46c-18 -16 -39.833 -31.333 -65.5 -46s-51.834 -27 -78.501 -37l-27 44c27.333 18.667 51.666 36.667 72.999 54s42 35 62 53h72z" />
    <glyph glyph-name="Cdotaccent" unicode="&#x10a;" horiz-adv-x="683" 
d="M579 523c-21.333 33.333 -48.498 59.0029 -81.498 77.0029s-71.833 27 -116.5 27c-36.667 0 -70 -6.5 -100 -19.5s-55.5 -31.5 -76.5 -55.5s-37.167 -53 -48.5 -87s-17 -72 -17 -114s5.66699 -80.167 17 -114.5s27.5 -63.5 48.5 -87.5s46.333 -42.667 76 -56
s62.5 -20 98.5 -20c44 0 82.833 9.33301 116.5 28s61.167 44.667 82.5 78l77 -49c-30 -44.667 -68.167 -79.667 -114.5 -105s-99.833 -38 -160.5 -38c-51.333 0 -97.833 9.16699 -139.5 27.5s-77.334 43.666 -107.001 75.999s-52.5 70.666 -68.5 114.999s-24 92.5 -24 144.5
c0 52.667 8 101.167 24 145.5s38.833 82.666 68.5 114.999s65.167 57.5 106.5 75.5s87.666 27 138.999 27c60.667 0 113.5 -12.167 158.5 -36.5s83.167 -58.5 114.5 -102.5zM335.002 769.003v81h81v-81h-81z" />
    <glyph glyph-name="cdotaccent" unicode="&#x10b;" horiz-adv-x="525" 
d="M499 96c-22 -31.333 -50.4971 -57.167 -85.4971 -77.5s-76.5 -30.5 -124.5 -30.5c-38.667 0 -73.5 6.83301 -104.5 20.5s-57.333 32.5 -79 56.5s-38.334 52.5 -50.001 85.5s-17.5 68.833 -17.5 107.5c0 38 5.83301 73.5 17.5 106.5s28.5 61.5 50.5 85.5
s48.5 42.833 79.5 56.5s65.5 20.5 103.5 20.5c46.667 0 87.5 -9.83301 122.5 -29.5s63.833 -45.834 86.5 -78.501l-67 -47c-15.333 23.333 -34.5 42 -57.5 56s-50.167 21 -81.5 21c-25.333 0 -48 -4.83301 -68 -14.5s-37 -23 -51 -40s-24.833 -37.167 -32.5 -60.5
s-11.5 -48.666 -11.5 -75.999s3.83301 -52.833 11.5 -76.5s18.5 -44 32.5 -61s31 -30.333 51 -40s42.333 -14.5 67 -14.5c33.333 0 61.666 7.5 84.999 22.5s42.666 33.5 57.999 55.5zM243.003 606.999v81h81v-81h-81z" />
    <glyph glyph-name="Ccaron" unicode="&#x10c;" horiz-adv-x="683" 
d="M579 523c-21.333 33.333 -48.498 59.0029 -81.498 77.0029s-71.833 27 -116.5 27c-36.667 0 -70 -6.5 -100 -19.5s-55.5 -31.5 -76.5 -55.5s-37.167 -53 -48.5 -87s-17 -72 -17 -114s5.66699 -80.167 17 -114.5s27.5 -63.5 48.5 -87.5s46.333 -42.667 76 -56
s62.5 -20 98.5 -20c44 0 82.833 9.33301 116.5 28s61.167 44.667 82.5 78l77 -49c-30 -44.667 -68.167 -79.667 -114.5 -105s-99.833 -38 -160.5 -38c-51.333 0 -97.833 9.16699 -139.5 27.5s-77.334 43.666 -107.001 75.999s-52.5 70.666 -68.5 114.999s-24 92.5 -24 144.5
c0 52.667 8 101.167 24 145.5s38.833 82.666 68.5 114.999s65.167 57.5 106.5 75.5s87.666 27 138.999 27c60.667 0 113.5 -12.167 158.5 -36.5s83.167 -58.5 114.5 -102.5zM339.002 758.003c-20 18 -40.6699 35.5 -62.0029 52.5s-45.666 34.833 -72.999 53.5l27 44
c26.667 -9.33301 52.834 -21.333 78.501 -36s47.5 -30 65.5 -46c17.333 16 39 31.333 65 46s52.333 26.667 79 36l27 -44c-27.333 -18.667 -51.666 -36.5 -72.999 -53.5s-42 -34.5 -62 -52.5h-72z" />
    <glyph glyph-name="ccaron" unicode="&#x10d;" horiz-adv-x="525" 
d="M499 96c-22 -31.333 -50.4971 -57.167 -85.4971 -77.5s-76.5 -30.5 -124.5 -30.5c-38.667 0 -73.5 6.83301 -104.5 20.5s-57.333 32.5 -79 56.5s-38.334 52.5 -50.001 85.5s-17.5 68.833 -17.5 107.5c0 38 5.83301 73.5 17.5 106.5s28.5 61.5 50.5 85.5
s48.5 42.833 79.5 56.5s65.5 20.5 103.5 20.5c46.667 0 87.5 -9.83301 122.5 -29.5s63.833 -45.834 86.5 -78.501l-67 -47c-15.333 23.333 -34.5 42 -57.5 56s-50.167 21 -81.5 21c-25.333 0 -48 -4.83301 -68 -14.5s-37 -23 -51 -40s-24.833 -37.167 -32.5 -60.5
s-11.5 -48.666 -11.5 -75.999s3.83301 -52.833 11.5 -76.5s18.5 -44 32.5 -61s31 -30.333 51 -40s42.333 -14.5 67 -14.5c33.333 0 61.666 7.5 84.999 22.5s42.666 33.5 57.999 55.5zM251.003 595.999c-20 18 -40.6699 35.5 -62.0029 52.5s-45.666 34.833 -72.999 53.5
l27 44c26.667 -9.33301 52.834 -21.333 78.501 -36s47.5 -30 65.5 -46c17.333 16 39 31.333 65 46s52.333 26.667 79 36l27 -44c-27.333 -18.667 -51.666 -36.5 -72.999 -53.5s-42 -34.5 -62 -52.5h-72z" />
    <glyph glyph-name="Dcaron" unicode="&#x10e;" horiz-adv-x="735" 
d="M355 86c38.667 0 73 6.33301 103 19s55.167 30.5 75.5 53.5s35.666 50.667 45.999 83s15.5 68.5 15.5 108.5s-5.16699 76.167 -15.5 108.5s-25.666 60 -45.999 83s-45.5 40.833 -75.5 53.5s-64.333 19 -103 19h-177v-528h177zM85 0v700h270c54 0 102 -8.83301 144 -26.5
s77.333 -42.167 106 -73.5s50.5 -68.333 65.5 -111s22.5 -89 22.5 -139s-7.5 -96.333 -22.5 -139s-36.833 -79.667 -65.5 -111s-64 -55.833 -106 -73.5s-90 -26.5 -144 -26.5h-270zM317 758c-20 18 -40.6699 35.5 -62.0029 52.5s-45.666 34.833 -72.999 53.5l27 44
c26.667 -9.33301 52.834 -21.333 78.501 -36s47.5 -30 65.5 -46c17.333 16 39 31.333 65 46s52.333 26.667 79 36l27 -44c-27.333 -18.667 -51.666 -36.5 -72.999 -53.5s-42 -34.5 -62 -52.5h-72z" />
    <glyph glyph-name="dcaron" unicode="&#x10f;" horiz-adv-x="657" 
d="M462 0l0.000976562 85c-24.667 -35.333 -52.834 -60.333 -84.501 -75s-65.167 -22 -100.5 -22c-37.333 0 -70.666 6.83301 -99.999 20.5s-54.333 32.667 -75 57s-36.5 52.833 -47.5 85.5s-16.5 68 -16.5 106s5.5 73.5 16.5 106.5s26.833 61.667 47.5 86
s45.667 43.333 75 57s62.666 20.5 99.999 20.5c36 0 69.667 -7.5 101 -22.5s59.333 -39.833 84 -74.5v284h86v-714h-86zM462.001 258c0 26.667 -3.66699 51.499 -11 74.499s-18.166 43 -32.499 60s-32 30.5 -53 40.5s-45.167 15 -72.5 15s-51.333 -5 -72 -15
s-37.834 -23.5 -51.501 -40.5s-23.834 -37.167 -30.501 -60.5s-10 -48 -10 -74s3.33301 -50.667 10 -74s16.834 -43.666 30.501 -60.999s30.667 -31 51 -41s44.5 -15 72.5 -15s52.5 5 73.5 15s38.5 23.667 52.5 41s24.667 37.5 32 60.5s11 47.833 11 74.5zM727.001 639.999
c0 -32 -6.66895 -60.5029 -20.002 -85.5029s-32.666 -49.167 -57.999 -72.5l-31 32c12.667 13.333 22.834 28.5 30.501 45.5s11.5 33.833 11.5 50.5c0 8.66699 -1.16699 16.334 -3.5 23.001s-4.83301 13.334 -7.5 20.001s-5 13.334 -7 20.001s-3 14.667 -3 24v17h88v-74z
" />
    <glyph glyph-name="Dcroat" unicode="&#x110;" horiz-adv-x="759" 
d="M109 0v323.002h-115v75h115v302h269c54 0 102 -8.83301 144 -26.5s77.333 -42 106 -73s50.5 -67.833 65.5 -110.5s22.5 -89 22.5 -139s-7.5 -96.333 -22.5 -139s-36.833 -79.834 -65.5 -111.501s-64 -56.334 -106 -74.001s-90 -26.5 -144 -26.5h-269zM378 86.002
c39.333 0 74 6.33301 104 19s55.167 30.5 75.5 53.5s35.666 50.833 45.999 83.5s15.5 69 15.5 109s-5.16699 76.167 -15.5 108.5s-25.666 60 -45.999 83s-45.5 40.667 -75.5 53s-64.667 18.5 -104 18.5h-175v-216h195v-75h-195v-237h175z" />
    <glyph glyph-name="dcroat" unicode="&#x111;" horiz-adv-x="619" 
d="M462 0v85c-24.667 -35.333 -52.834 -60.333 -84.501 -75s-64.834 -22 -99.501 -22c-37.333 0 -70.833 6.83301 -100.5 20.5s-54.834 32.667 -75.501 57s-36.5 52.833 -47.5 85.5s-16.5 68 -16.5 106c0 38.667 5.5 74.5 16.5 107.5s26.833 61.5 47.5 85.5
s45.834 42.833 75.501 56.5s63.167 20.5 100.5 20.5c34.667 0 67.834 -7.33301 99.501 -22s59.834 -39.667 84.501 -75v178h-139v58h139v48h86v-48h75v-58h-75v-608h-86zM462 258c0 26.667 -3.66699 51.499 -11 74.499s-18.166 43 -32.499 60s-32 30.5 -53 40.5
s-45.5 15 -73.5 15c-27.333 0 -51.166 -5 -71.499 -15s-37.333 -23.5 -51 -40.5s-23.834 -37 -30.501 -60s-10 -47.833 -10 -74.5c0 -26 3.33301 -50.667 10 -74s16.834 -43.666 30.501 -60.999s30.667 -31 51 -41s44.166 -15 71.499 -15c28 0 52.667 5 74 15
s39.166 23.667 53.499 41s25 37.5 32 60.5s10.5 47.833 10.5 74.5z" />
    <glyph glyph-name="Emacron" unicode="&#x112;" horiz-adv-x="635" 
d="M85 0v700h503v-86h-410v-203h349v-81h-349v-244h410v-86h-503zM193 783v58h300v-58h-300z" />
    <glyph glyph-name="emacron" unicode="&#x113;" horiz-adv-x="572" 
d="M540 273c0 -8 -0.166992 -14.668 -0.5 -20.001s-0.833008 -9.66602 -1.5 -12.999h-409c0 -20.667 3.33301 -41 10 -61s15.667 -36.667 27 -50c32 -41.333 78.333 -62 139 -62s112.334 22.333 155.001 67l57 -56c-26.667 -28 -57.5 -50 -92.5 -66s-75.5 -24 -121.5 -24
c-42 0 -79.5 6.83301 -112.5 20.5s-60.833 32.5 -83.5 56.5s-39.834 52.333 -51.501 85s-17.5 68 -17.5 106s5.83301 73.5 17.5 106.5s28.5 61.667 50.5 86s48.667 43.5 80 57.5s66.666 21 105.999 21c38 0 72.333 -6.5 103 -19.5s56.834 -30.833 78.501 -53.5
s38.167 -49.5 49.5 -80.5s17 -64.5 17 -100.5zM451 303.999c0 13.333 -2 25.832 -6 37.499s-8.66699 22.834 -14 33.501c-14 26 -33.333 45.667 -58 59s-52 20 -82 20c-22.667 0 -43.5 -3.66699 -62.5 -11s-35.333 -17.5 -49 -30.5s-24.667 -28.833 -33 -47.5
s-13.5 -39 -15.5 -61h320zM142 620.998v58h300v-58h-300z" />
    <glyph glyph-name="Ebreve" unicode="&#x114;" horiz-adv-x="635" 
d="M85 0v700h503v-86h-410v-203h349v-81h-349v-244h410v-86h-503zM342 765c-46.667 0 -84.5 11.667 -113.5 35s-46.167 52.666 -51.5 87.999l53 16c5.33301 -20.667 17.5 -37.834 36.5 -51.501s44.167 -20.5 75.5 -20.5s56.5 6.83301 75.5 20.5s31.167 30.834 36.5 51.501
l53 -16c-5.33301 -35.333 -22.5 -64.666 -51.5 -87.999s-66.833 -35 -113.5 -35z" />
    <glyph glyph-name="ebreve" unicode="&#x115;" horiz-adv-x="572" 
d="M540 273c0 -8 -0.166992 -14.668 -0.5 -20.001s-0.833008 -9.66602 -1.5 -12.999h-409c0 -20.667 3.33301 -41 10 -61s15.667 -36.667 27 -50c32 -41.333 78.333 -62 139 -62s112.334 22.333 155.001 67l57 -56c-26.667 -28 -57.5 -50 -92.5 -66s-75.5 -24 -121.5 -24
c-42 0 -79.5 6.83301 -112.5 20.5s-60.833 32.5 -83.5 56.5s-39.834 52.333 -51.501 85s-17.5 68 -17.5 106s5.83301 73.5 17.5 106.5s28.5 61.667 50.5 86s48.667 43.5 80 57.5s66.666 21 105.999 21c38 0 72.333 -6.5 103 -19.5s56.834 -30.833 78.501 -53.5
s38.167 -49.5 49.5 -80.5s17 -64.5 17 -100.5zM451 303.999c0 13.333 -2 25.832 -6 37.499s-8.66699 22.834 -14 33.501c-14 26 -33.333 45.667 -58 59s-52 20 -82 20c-22.667 0 -43.5 -3.66699 -62.5 -11s-35.333 -17.5 -49 -30.5s-24.667 -28.833 -33 -47.5
s-13.5 -39 -15.5 -61h320zM289 602.998c-46.667 0 -84.5 11.667 -113.5 35s-46.167 52.666 -51.5 87.999l53 16c5.33301 -20.667 17.5 -37.834 36.5 -51.501s44.167 -20.5 75.5 -20.5s56.5 6.83301 75.5 20.5s31.167 30.834 36.5 51.501l53 -16
c-5.33301 -35.333 -22.5 -64.666 -51.5 -87.999s-66.833 -35 -113.5 -35z" />
    <glyph glyph-name="Edotaccent" unicode="&#x116;" horiz-adv-x="635" 
d="M85 0v700h503v-86h-410v-203h349v-81h-349v-244h410v-86h-503zM307 769v81h81v-81h-81z" />
    <glyph glyph-name="edotaccent" unicode="&#x117;" horiz-adv-x="572" 
d="M540 273c0 -8 -0.166992 -14.668 -0.5 -20.001s-0.833008 -9.66602 -1.5 -12.999h-409c0 -20.667 3.33301 -41 10 -61s15.667 -36.667 27 -50c32 -41.333 78.333 -62 139 -62s112.334 22.333 155.001 67l57 -56c-26.667 -28 -57.5 -50 -92.5 -66s-75.5 -24 -121.5 -24
c-42 0 -79.5 6.83301 -112.5 20.5s-60.833 32.5 -83.5 56.5s-39.834 52.333 -51.501 85s-17.5 68 -17.5 106s5.83301 73.5 17.5 106.5s28.5 61.667 50.5 86s48.667 43.5 80 57.5s66.666 21 105.999 21c38 0 72.333 -6.5 103 -19.5s56.834 -30.833 78.501 -53.5
s38.167 -49.5 49.5 -80.5s17 -64.5 17 -100.5zM451 303.999c0 13.333 -2 25.832 -6 37.499s-8.66699 22.834 -14 33.501c-14 26 -33.333 45.667 -58 59s-52 20 -82 20c-22.667 0 -43.5 -3.66699 -62.5 -11s-35.333 -17.5 -49 -30.5s-24.667 -28.833 -33 -47.5
s-13.5 -39 -15.5 -61h320zM249 606.998v81h81v-81h-81z" />
    <glyph glyph-name="Eogonek" unicode="&#x118;" horiz-adv-x="635" 
d="M85 0l-0.000976562 700.001h503v-86h-410v-203h349v-81h-349v-244h410v-86h-83c-22 -22 -33 -44.333 -33 -67c0 -15.333 4.66699 -27 14 -35s21.333 -12 36 -12c15.333 0 28.333 3.5 39 10.5s19.667 15.167 27 24.5v-67c-7.33301 -7.33301 -17.666 -14 -30.999 -20
s-29.666 -9 -48.999 -9c-27.333 0 -50.833 7.16699 -70.5 21.5s-29.5 35.5 -29.5 63.5c0 14 3.16699 28.667 9.5 44s18.166 30.666 35.499 45.999h-368z" />
    <glyph glyph-name="eogonek" unicode="&#x119;" horiz-adv-x="573" 
d="M540 271c0 -8 -0.171875 -14.6611 -0.504883 -19.9941s-0.833008 -10 -1.5 -14h-408c2 -54 18.833 -95.833 50.5 -125.5s73.167 -44.5 124.5 -44.5c61.333 0 112.333 22.333 153 67l59 -55c-11.333 -12.667 -22.166 -22.834 -32.499 -30.501s-21.833 -15.167 -34.5 -22.5
c-19.333 -12.667 -35.166 -26.834 -47.499 -42.501s-18.5 -32.5 -18.5 -50.5c0 -15.333 4.66699 -26.833 14 -34.5s21 -11.5 35 -11.5c15.333 0 28.333 3.66699 39 11s20 15.666 28 24.999v-68c-7.33301 -7.33301 -17.666 -14 -30.999 -20s-29.666 -9 -48.999 -9
c-27.333 0 -51 7.16699 -71 21.5s-30 35.166 -30 62.499c0 13.333 3 27.166 9 41.499s16.667 28.166 32 41.499c-9.33301 -1.33301 -18.666 -2.5 -27.999 -3.5s-19.333 -1.5 -30 -1.5c-42 0 -79.333 6.83301 -112 20.5s-60.167 32.5 -82.5 56.5s-39.5 52.333 -51.5 85
s-18 68 -18 106s5.83301 73.5 17.5 106.5s28.5 61.667 50.5 86s48.667 43.5 80 57.5s66.666 21 105.999 21c38 0 72.333 -6.66699 103 -20s56.834 -31.5 78.501 -54.5s38.167 -50 49.5 -81s17 -64.5 17 -100.5zM450.995 302.006c-4.66699 50 -22 87.667 -52 113
s-66 38 -108 38c-46 0 -83.167 -14 -111.5 -42s-44.5 -64.333 -48.5 -109h320z" />
    <glyph glyph-name="Ecaron" unicode="&#x11a;" horiz-adv-x="635" 
d="M85 0v700h503v-86h-410v-203h349v-81h-349v-244h410v-86h-503zM306 758c-20 18 -40.6699 35.5 -62.0029 52.5s-45.666 34.833 -72.999 53.5l27 44c26.667 -9.33301 52.834 -21.333 78.501 -36s47.5 -30 65.5 -46c17.333 16 39 31.333 65 46s52.333 26.667 79 36l27 -44
c-27.333 -18.667 -51.666 -36.5 -72.999 -53.5s-42 -34.5 -62 -52.5h-72z" />
    <glyph glyph-name="ecaron" unicode="&#x11b;" horiz-adv-x="572" 
d="M540 273c0 -8 -0.166992 -14.668 -0.5 -20.001s-0.833008 -9.66602 -1.5 -12.999h-409c0 -20.667 3.33301 -41 10 -61s15.667 -36.667 27 -50c32 -41.333 78.333 -62 139 -62s112.334 22.333 155.001 67l57 -56c-26.667 -28 -57.5 -50 -92.5 -66s-75.5 -24 -121.5 -24
c-42 0 -79.5 6.83301 -112.5 20.5s-60.833 32.5 -83.5 56.5s-39.834 52.333 -51.501 85s-17.5 68 -17.5 106s5.83301 73.5 17.5 106.5s28.5 61.667 50.5 86s48.667 43.5 80 57.5s66.666 21 105.999 21c38 0 72.333 -6.5 103 -19.5s56.834 -30.833 78.501 -53.5
s38.167 -49.5 49.5 -80.5s17 -64.5 17 -100.5zM451 303.999c0 13.333 -2 25.832 -6 37.499s-8.66699 22.834 -14 33.501c-14 26 -33.333 45.667 -58 59s-52 20 -82 20c-22.667 0 -43.5 -3.66699 -62.5 -11s-35.333 -17.5 -49 -30.5s-24.667 -28.833 -33 -47.5
s-13.5 -39 -15.5 -61h320zM254 595.998c-20 18 -40.6699 35.5 -62.0029 52.5s-45.666 34.833 -72.999 53.5l27 44c26.667 -9.33301 52.834 -21.333 78.501 -36s47.5 -30 65.5 -46c17.333 16 39 31.333 65 46s52.333 26.667 79 36l27 -44
c-27.333 -18.667 -51.666 -36.5 -72.999 -53.5s-42 -34.5 -62 -52.5h-72z" />
    <glyph glyph-name="Gcircumflex" unicode="&#x11c;" horiz-adv-x="736" 
d="M382 713c59.333 0 111.666 -12.1699 156.999 -36.5029s83 -58.166 113 -101.499l-75 -49c-21.333 32 -48.666 56.833 -81.999 74.5s-72 26.5 -116 26.5c-37.333 0 -70.833 -6.66699 -100.5 -20s-54.834 -32.166 -75.501 -56.499s-36.5 -53.5 -47.5 -87.5
s-16.5 -71.333 -16.5 -112c0 -42 5.5 -80.167 16.5 -114.5s27 -63.666 48 -87.999s46.333 -43.333 76 -57s63.5 -20.5 101.5 -20.5c31.333 0 60.333 4.83301 87 14.5s50 23.334 70 41.001s36 39.167 48 64.5s19 53.666 21 84.999h-207v82h300
c1.33301 -7.33301 2.33301 -15 3 -23s1 -16.667 1 -26c0 -43.333 -7.16699 -84.5 -21.5 -123.5s-35.166 -73.167 -62.499 -102.5s-61 -52.666 -101 -69.999s-85.667 -26 -137 -26c-52 0 -99 9.16699 -141 27.5s-77.833 43.666 -107.5 75.999s-52.5 70.833 -68.5 115.5
s-24 93 -24 145c0 52.667 8 101.167 24 145.5s38.833 82.5 68.5 114.5s65.5 57 107.5 75s89 27 141 27zM413 905.997c20 -18 40.6699 -35.667 62.0029 -53s45.666 -35.333 72.999 -54l-27 -44c-26.667 10 -53 22.333 -79 37s-47.667 30 -65 46
c-18 -16 -39.833 -31.333 -65.5 -46s-51.834 -27 -78.501 -37l-27 44c27.333 18.667 51.666 36.667 72.999 54s42 35 62 53h72z" />
    <glyph glyph-name="gcircumflex" unicode="&#x11d;" horiz-adv-x="621" 
d="M551 82c0 -40 -4.16699 -75.002 -12.5 -105.002s-22.833 -56.667 -43.5 -80c-25.333 -28.667 -56.833 -49.334 -94.5 -62.001s-79.167 -19 -124.5 -19c-83.333 0 -155.333 20.667 -216 62l43 69c24 -16.667 50.5 -29.667 79.5 -39s60.833 -14 95.5 -14
c26 0 50.5 3.16699 73.5 9.5s42.833 16.5 59.5 30.5s29.834 31.833 39.501 53.5s14.5 47.5 14.5 77.5v56c-21.333 -33.333 -49 -57.833 -83 -73.5s-69.667 -23.5 -107 -23.5c-35.333 0 -67.333 6.33301 -96 19s-53.334 30 -74.001 52s-36.667 48.333 -48 79s-17 64 -17 100
c0 36.667 5.83301 70.334 17.5 101.001s28.167 57.334 49.5 80.001s46.5 40.334 75.5 53.001s61.167 19 96.5 19c37.333 0 72.333 -7.83301 105 -23.5s59.667 -40.167 81 -73.5v85h86v-433zM466 276.998c0 24 -3.66797 46.5 -11.001 67.5s-18.166 39.333 -32.499 55
s-32.166 28 -53.499 37s-46 13.5 -74 13.5s-52.167 -4.5 -72.5 -13.5s-37.333 -21.333 -51 -37s-23.834 -34 -30.501 -55s-10 -43.5 -10 -67.5s3.33301 -46.667 10 -68s16.834 -40 30.501 -56s30.834 -28.667 51.501 -38s44.667 -14 72 -14s51.666 4.66699 72.999 14
s39.166 22 53.499 38s25.333 34.667 33 56s11.5 44 11.5 68zM331.999 743.998c20 -18 40.6699 -35.667 62.0029 -53s45.666 -35.333 72.999 -54l-27 -44c-26.667 10 -53 22.333 -79 37s-47.667 30 -65 46c-18 -16 -39.833 -31.333 -65.5 -46s-51.834 -27 -78.501 -37l-27 44
c27.333 18.667 51.666 36.667 72.999 54s42 35 62 53h72z" />
    <glyph glyph-name="Gbreve" unicode="&#x11e;" horiz-adv-x="736" 
d="M382 713c59.333 0 111.666 -12.1699 156.999 -36.5029s83 -58.166 113 -101.499l-75 -49c-21.333 32 -48.666 56.833 -81.999 74.5s-72 26.5 -116 26.5c-37.333 0 -70.833 -6.66699 -100.5 -20s-54.834 -32.166 -75.501 -56.499s-36.5 -53.5 -47.5 -87.5
s-16.5 -71.333 -16.5 -112c0 -42 5.5 -80.167 16.5 -114.5s27 -63.666 48 -87.999s46.333 -43.333 76 -57s63.5 -20.5 101.5 -20.5c31.333 0 60.333 4.83301 87 14.5s50 23.334 70 41.001s36 39.167 48 64.5s19 53.666 21 84.999h-207v82h300
c1.33301 -7.33301 2.33301 -15 3 -23s1 -16.667 1 -26c0 -43.333 -7.16699 -84.5 -21.5 -123.5s-35.166 -73.167 -62.499 -102.5s-61 -52.666 -101 -69.999s-85.667 -26 -137 -26c-52 0 -99 9.16699 -141 27.5s-77.833 43.666 -107.5 75.999s-52.5 70.833 -68.5 115.5
s-24 93 -24 145c0 52.667 8 101.167 24 145.5s38.833 82.5 68.5 114.5s65.5 57 107.5 75s89 27 141 27zM375 764.997c-46.667 0 -84.5 11.667 -113.5 35s-46.167 52.666 -51.5 87.999l53 16c5.33301 -20.667 17.5 -37.834 36.5 -51.501s44.167 -20.5 75.5 -20.5
s56.5 6.83301 75.5 20.5s31.167 30.834 36.5 51.501l53 -16c-5.33301 -35.333 -22.5 -64.666 -51.5 -87.999s-66.833 -35 -113.5 -35z" />
    <glyph glyph-name="gbreve" unicode="&#x11f;" horiz-adv-x="621" 
d="M551 82c0 -40 -4.16699 -75.002 -12.5 -105.002s-22.833 -56.667 -43.5 -80c-25.333 -28.667 -56.833 -49.334 -94.5 -62.001s-79.167 -19 -124.5 -19c-83.333 0 -155.333 20.667 -216 62l43 69c24 -16.667 50.5 -29.667 79.5 -39s60.833 -14 95.5 -14
c26 0 50.5 3.16699 73.5 9.5s42.833 16.5 59.5 30.5s29.834 31.833 39.501 53.5s14.5 47.5 14.5 77.5v56c-21.333 -33.333 -49 -57.833 -83 -73.5s-69.667 -23.5 -107 -23.5c-35.333 0 -67.333 6.33301 -96 19s-53.334 30 -74.001 52s-36.667 48.333 -48 79s-17 64 -17 100
c0 36.667 5.83301 70.334 17.5 101.001s28.167 57.334 49.5 80.001s46.5 40.334 75.5 53.001s61.167 19 96.5 19c37.333 0 72.333 -7.83301 105 -23.5s59.667 -40.167 81 -73.5v85h86v-433zM466 276.998c0 24 -3.66797 46.5 -11.001 67.5s-18.166 39.333 -32.499 55
s-32.166 28 -53.499 37s-46 13.5 -74 13.5s-52.167 -4.5 -72.5 -13.5s-37.333 -21.333 -51 -37s-23.834 -34 -30.501 -55s-10 -43.5 -10 -67.5s3.33301 -46.667 10 -68s16.834 -40 30.501 -56s30.834 -28.667 51.501 -38s44.667 -14 72 -14s51.666 4.66699 72.999 14
s39.166 22 53.499 38s25.333 34.667 33 56s11.5 44 11.5 68zM294.999 602.998c-46.667 0 -84.5 11.667 -113.5 35s-46.167 52.666 -51.5 87.999l53 16c5.33301 -20.667 17.5 -37.834 36.5 -51.501s44.167 -20.5 75.5 -20.5s56.5 6.83301 75.5 20.5
s31.167 30.834 36.5 51.501l53 -16c-5.33301 -35.333 -22.5 -64.666 -51.5 -87.999s-66.833 -35 -113.5 -35z" />
    <glyph glyph-name="Gdotaccent" unicode="&#x120;" horiz-adv-x="736" 
d="M382 713c59.333 0 111.666 -12.1699 156.999 -36.5029s83 -58.166 113 -101.499l-75 -49c-21.333 32 -48.666 56.833 -81.999 74.5s-72 26.5 -116 26.5c-37.333 0 -70.833 -6.66699 -100.5 -20s-54.834 -32.166 -75.501 -56.499s-36.5 -53.5 -47.5 -87.5
s-16.5 -71.333 -16.5 -112c0 -42 5.5 -80.167 16.5 -114.5s27 -63.666 48 -87.999s46.333 -43.333 76 -57s63.5 -20.5 101.5 -20.5c31.333 0 60.333 4.83301 87 14.5s50 23.334 70 41.001s36 39.167 48 64.5s19 53.666 21 84.999h-207v82h300
c1.33301 -7.33301 2.33301 -15 3 -23s1 -16.667 1 -26c0 -43.333 -7.16699 -84.5 -21.5 -123.5s-35.166 -73.167 -62.499 -102.5s-61 -52.666 -101 -69.999s-85.667 -26 -137 -26c-52 0 -99 9.16699 -141 27.5s-77.833 43.666 -107.5 75.999s-52.5 70.833 -68.5 115.5
s-24 93 -24 145c0 52.667 8 101.167 24 145.5s38.833 82.5 68.5 114.5s65.5 57 107.5 75s89 27 141 27zM338 768.997v81h81v-81h-81z" />
    <glyph glyph-name="gdotaccent" unicode="&#x121;" horiz-adv-x="621" 
d="M551 82c0 -40 -4.16699 -75.002 -12.5 -105.002s-22.833 -56.667 -43.5 -80c-25.333 -28.667 -56.833 -49.334 -94.5 -62.001s-79.167 -19 -124.5 -19c-83.333 0 -155.333 20.667 -216 62l43 69c24 -16.667 50.5 -29.667 79.5 -39s60.833 -14 95.5 -14
c26 0 50.5 3.16699 73.5 9.5s42.833 16.5 59.5 30.5s29.834 31.833 39.501 53.5s14.5 47.5 14.5 77.5v56c-21.333 -33.333 -49 -57.833 -83 -73.5s-69.667 -23.5 -107 -23.5c-35.333 0 -67.333 6.33301 -96 19s-53.334 30 -74.001 52s-36.667 48.333 -48 79s-17 64 -17 100
c0 36.667 5.83301 70.334 17.5 101.001s28.167 57.334 49.5 80.001s46.5 40.334 75.5 53.001s61.167 19 96.5 19c37.333 0 72.333 -7.83301 105 -23.5s59.667 -40.167 81 -73.5v85h86v-433zM466 276.998c0 24 -3.66797 46.5 -11.001 67.5s-18.166 39.333 -32.499 55
s-32.166 28 -53.499 37s-46 13.5 -74 13.5s-52.167 -4.5 -72.5 -13.5s-37.333 -21.333 -51 -37s-23.834 -34 -30.501 -55s-10 -43.5 -10 -67.5s3.33301 -46.667 10 -68s16.834 -40 30.501 -56s30.834 -28.667 51.501 -38s44.667 -14 72 -14s51.666 4.66699 72.999 14
s39.166 22 53.499 38s25.333 34.667 33 56s11.5 44 11.5 68zM252.999 606.998v81h81v-81h-81z" />
    <glyph glyph-name="Gcommaaccent" unicode="&#x122;" horiz-adv-x="736" 
d="M382 713c59.333 0 111.666 -12.1699 156.999 -36.5029s83 -58.166 113 -101.499l-75 -49c-21.333 32 -48.666 56.833 -81.999 74.5s-72 26.5 -116 26.5c-37.333 0 -70.833 -6.66699 -100.5 -20s-54.834 -32.166 -75.501 -56.499s-36.5 -53.5 -47.5 -87.5
s-16.5 -71.333 -16.5 -112c0 -42 5.5 -80.167 16.5 -114.5s27 -63.666 48 -87.999s46.333 -43.333 76 -57s63.5 -20.5 101.5 -20.5c31.333 0 60.333 4.83301 87 14.5s50 23.334 70 41.001s36 39.167 48 64.5s19 53.666 21 84.999h-207v82h300
c1.33301 -7.33301 2.33301 -15 3 -23s1 -16.667 1 -26c0 -43.333 -7.16699 -84.5 -21.5 -123.5s-35.166 -73.167 -62.499 -102.5s-61 -52.666 -101 -69.999s-85.667 -26 -137 -26c-52 0 -99 9.16699 -141 27.5s-77.833 43.666 -107.5 75.999s-52.5 70.833 -68.5 115.5
s-24 93 -24 145c0 52.667 8 101.167 24 145.5s38.833 82.5 68.5 114.5s65.5 57 107.5 75s89 27 141 27zM275 -173.003c13.333 17.333 26.665 37.167 39.998 59.5s23.666 43.166 30.999 62.499l83 -12c-5.33301 -11.333 -12.166 -23.166 -20.499 -35.499
s-17.666 -24.5 -27.999 -36.5s-21.666 -23.667 -33.999 -35s-24.833 -21.333 -37.5 -30z" />
    <glyph glyph-name="gcommaaccent" unicode="&#x123;" horiz-adv-x="621" 
d="M398 727c-15.333 -18.667 -29.832 -40.002 -43.499 -64.002s-24.834 -45.667 -33.501 -65l-87 11c5.33301 12.667 12.333 25.667 21 39s18.667 26.333 30 39s23.333 24.834 36 36.501s26 21.834 40 30.501zM551.001 81.998c0 -40 -4.16699 -75.002 -12.5 -105.002
s-22.833 -56.667 -43.5 -80c-25.333 -28.667 -56.833 -49.334 -94.5 -62.001s-79.167 -19 -124.5 -19c-83.333 0 -155.333 20.667 -216 62l43 69c24 -16.667 50.5 -29.667 79.5 -39s60.833 -14 95.5 -14c26 0 50.5 3.16699 73.5 9.5s42.833 16.5 59.5 30.5
s29.834 31.833 39.501 53.5s14.5 47.5 14.5 77.5v56c-21.333 -33.333 -49 -57.833 -83 -73.5s-69.667 -23.5 -107 -23.5c-35.333 0 -67.333 6.33301 -96 19s-53.334 30 -74.001 52s-36.667 48.333 -48 79s-17 64 -17 100c0 36.667 5.83301 70.334 17.5 101.001
s28.167 57.334 49.5 80.001s46.5 40.334 75.5 53.001s61.167 19 96.5 19c37.333 0 72.333 -7.83301 105 -23.5s59.667 -40.167 81 -73.5v85h86v-433zM466.001 276.996c0 24 -3.66797 46.5 -11.001 67.5s-18.166 39.333 -32.499 55s-32.166 28 -53.499 37s-46 13.5 -74 13.5
s-52.167 -4.5 -72.5 -13.5s-37.333 -21.333 -51 -37s-23.834 -34 -30.501 -55s-10 -43.5 -10 -67.5s3.33301 -46.667 10 -68s16.834 -40 30.501 -56s30.834 -28.667 51.501 -38s44.667 -14 72 -14s51.666 4.66699 72.999 14s39.166 22 53.499 38s25.333 34.667 33 56
s11.5 44 11.5 68z" />
    <glyph glyph-name="Hcircumflex" unicode="&#x124;" horiz-adv-x="744" 
d="M566 0v328h-389v-328h-92v700h92v-287h389v287h92v-700h-92zM407 906c20 -18 40.6699 -35.667 62.0029 -53s45.666 -35.333 72.999 -54l-27 -44c-26.667 10 -53 22.333 -79 37s-47.667 30 -65 46c-18 -16 -39.833 -31.333 -65.5 -46s-51.834 -27 -78.501 -37l-27 44
c27.333 18.667 51.666 36.667 72.999 54s42 35 62 53h72z" />
    <glyph glyph-name="hcircumflex" unicode="&#x125;" horiz-adv-x="583" 
d="M70 0v714.001h86v-285c21.333 32 46.833 56.333 76.5 73s63.5 25 101.5 25c56.667 0 101.167 -17.167 133.5 -51.5s48.5 -82.5 48.5 -144.5v-331h-86v311c0 15.333 -1.5 31.166 -4.5 47.499s-8.66699 31 -17 44s-20 23.667 -35 32s-34.833 12.5 -59.5 12.5
c-22.667 0 -43.667 -4 -63 -12s-36 -19.167 -50 -33.5s-25 -31.5 -33 -51.5s-12 -42 -12 -66v-284h-86zM152 906.001c20 -18 40.6699 -35.667 62.0029 -53s45.666 -35.333 72.999 -54l-27 -44c-26.667 10 -53 22.333 -79 37s-47.667 30 -65 46
c-18 -16 -39.833 -31.333 -65.5 -46s-51.834 -27 -78.501 -37l-27 44c27.333 18.667 51.666 36.667 72.999 54s42 35 62 53h72z" />
    <glyph glyph-name="Hbar" unicode="&#x126;" horiz-adv-x="744" 
d="M566 0v328h-389v-328h-92v537h-51v54h51v109h92v-109h389v109h92v-109h52v-54h-52v-537h-92zM566 413v124h-389v-124h389z" />
    <glyph glyph-name="hbar" unicode="&#x127;" horiz-adv-x="583" 
d="M71 0v608h-75v58h75v48h86v-48h139v-58h-139v-174c21.333 32 46.833 56.333 76.5 73s63.5 25 101.5 25c56.667 0 101.167 -17.167 133.5 -51.5s48.5 -82.833 48.5 -145.5v-335h-86v315c0 16 -1.5 32 -4.5 48s-8.66699 30.5 -17 43.5s-20 23.667 -35 32
s-34.833 12.5 -59.5 12.5c-22.667 0 -43.667 -3.83301 -63 -11.5s-36 -18.667 -50 -33s-25 -31.5 -33 -51.5s-12 -42.333 -12 -67v-288h-86z" />
    <glyph glyph-name="Itilde" unicode="&#x128;" horiz-adv-x="263" 
d="M85 0v700h92v-700h-92zM306 861c-10 -27.333 -23.999 -48.834 -41.999 -64.501s-37.667 -23.5 -59 -23.5c-12 0 -24 2.16699 -36 6.5s-23.833 9 -35.5 14s-23.167 9.66699 -34.5 14s-22 6.5 -32 6.5c-12 0 -23.5 -3.16699 -34.5 -9.5s-22.5 -16.5 -34.5 -30.5l-37 25
c10 26.667 24 47.834 42 63.501s38 23.5 60 23.5c12 0 24 -2.16699 36 -6.5s23.833 -8.83301 35.5 -13.5l34 -13.5c11 -4.33301 21.5 -6.5 31.5 -6.5c12 0 23.667 3 35 9s22.666 16 33.999 30z" />
    <glyph glyph-name="itilde" unicode="&#x129;" horiz-adv-x="228" 
d="M71 0v515h86v-515h-86zM288 699c-10 -27.333 -23.999 -48.834 -41.999 -64.501s-37.667 -23.5 -59 -23.5c-12 0 -24 2.16699 -36 6.5s-23.833 9 -35.5 14s-23.167 9.66699 -34.5 14s-22 6.5 -32 6.5c-12 0 -23.5 -3.16699 -34.5 -9.5s-22.5 -16.5 -34.5 -30.5l-37 25
c10 26.667 24 47.834 42 63.501s38 23.5 60 23.5c12 0 24 -2.16699 36 -6.5s23.833 -8.83301 35.5 -13.5l34 -13.5c11 -4.33301 21.5 -6.5 31.5 -6.5c12 0 23.667 3 35 9s22.666 16 33.999 30z" />
    <glyph glyph-name="Imacron" unicode="&#x12a;" horiz-adv-x="263" 
d="M85 0v700h92v-700h-92zM-12.168 783v58h291.596v-58h-291.596z" />
    <glyph glyph-name="imacron" unicode="&#x12b;" horiz-adv-x="228" 
d="M71 0v515h86v-515h-86zM-30.167 621v58h291.669v-58h-291.669z" />
    <glyph glyph-name="Ibreve" unicode="&#x12c;" horiz-adv-x="263" 
d="M85 0v700h92v-700h-92zM133 765c-46.667 0 -84.5 11.667 -113.5 35s-46.167 52.666 -51.5 87.999l53 16c5.33301 -20.667 17.5 -37.834 36.5 -51.501s44.167 -20.5 75.5 -20.5s56.5 6.83301 75.5 20.5s31.167 30.834 36.5 51.501l53 -16
c-5.33301 -35.333 -22.5 -64.666 -51.5 -87.999s-66.833 -35 -113.5 -35z" />
    <glyph glyph-name="ibreve" unicode="&#x12d;" horiz-adv-x="228" 
d="M71 0v515h86v-515h-86zM114 603c-46.667 0 -84.5 11.667 -113.5 35s-46.167 52.666 -51.5 87.999l53 16c5.33301 -20.667 17.5 -37.834 36.5 -51.501s44.167 -20.5 75.5 -20.5s56.5 6.83301 75.5 20.5s31.167 30.834 36.5 51.501l53 -16
c-5.33301 -35.333 -22.5 -64.666 -51.5 -87.999s-66.833 -35 -113.5 -35z" />
    <glyph glyph-name="Iogonek" unicode="&#x12e;" horiz-adv-x="263" 
d="M85 700l92.001 0.000976562v-700c-8 -2 -17.167 -4.66699 -27.5 -8s-20 -7.66602 -29 -12.999s-16.5 -12 -22.5 -20s-9 -17.667 -9 -29c0 -12 3.66699 -21.833 11 -29.5s17.666 -11.834 30.999 -12.501c12.667 -0.666992 24.667 2 36 8c13.333 5.33301 24 13 32 23v-67
c-7.33301 -7.33301 -17.333 -13.666 -30 -18.999s-27 -8 -43 -8c-28 0 -51.5 7.83301 -70.5 23.5s-28.5 35.5 -28.5 59.5c0 17.333 4.83301 34.166 14.5 50.499s24.167 30.166 43.5 41.499v700z" />
    <glyph glyph-name="iogonek" unicode="&#x12f;" horiz-adv-x="228" 
d="M71 515l86.0039 -0.00292969v-515c-7.33301 -1.33301 -16 -3.66602 -26 -6.99902s-19.667 -7.66602 -29 -12.999s-17.333 -12.166 -24 -20.499s-10 -18.166 -10 -29.499c0 -12 3.66699 -21.833 11 -29.5s17.666 -11.834 30.999 -12.501s25.666 2 36.999 8
c6.66699 2.66699 12.667 6 18 10s10 8.33301 14 13v-67c-7.33301 -7.33301 -17.333 -13.666 -30 -18.999s-27 -8 -43 -8c-26.667 0 -49.167 7 -67.5 21s-28.5 32.333 -30.5 55c-1.33301 11.333 0 22.666 4 33.999c3.33301 12.667 10.166 24.667 20.499 36
s23.166 21 38.499 29v515zM71.0039 624.997v89h86v-89h-86z" />
    <glyph glyph-name="Idotaccent" unicode="&#x130;" horiz-adv-x="263" 
d="M85 0v700h92v-700h-92zM91 769v81h81v-81h-81z" />
    <glyph glyph-name="dotlessi" unicode="&#x131;" horiz-adv-x="228" 
d="M71 0v515h86v-515h-86z" />
    <glyph glyph-name="Jcircumflex" unicode="&#x134;" horiz-adv-x="498" 
d="M420 218c0 -37.333 -5.33105 -70.498 -15.998 -99.498s-25.834 -53.167 -45.501 -72.5s-43.167 -34 -70.5 -44s-57.666 -15 -90.999 -15c-41.333 0 -78.5 8.16699 -111.5 24.5s-60.5 42.166 -82.5 77.499l76 47c15.333 -22 33.166 -38 53.499 -48s43.166 -15 68.499 -15
c46 0 78.5 13.167 97.5 39.5s28.5 61.166 28.5 104.499v483h93v-482v0zM408.002 906.002c20 -18 40.6699 -35.667 62.0029 -53s45.666 -35.333 72.999 -54l-27 -44c-26.667 10 -53 22.333 -79 37s-47.667 30 -65 46c-18 -16 -39.833 -31.333 -65.5 -46
s-51.834 -27 -78.501 -37l-27 44c27.333 18.667 51.666 36.667 72.999 54s42 35 62 53h72z" />
    <glyph glyph-name="jcircumflex" unicode="&#x135;" horiz-adv-x="228" 
d="M150 744c20 -18 40.6699 -35.667 62.0029 -53s45.666 -35.333 72.999 -54l-27 -44c-26.667 10 -53 22.333 -79 37s-47.667 30 -65 46c-18 -16 -39.833 -31.333 -65.5 -46s-51.834 -27 -78.501 -37l-27 44c27.333 18.667 51.666 36.667 72.999 54s42 35 62 53h72z
M157.003 -1c0 -61.333 -16.167 -106.834 -48.5 -136.501s-74.833 -44.5 -127.5 -44.5c-13.333 0 -27.333 1.33301 -42 4s-27 6.33398 -37 11.001l23 72c7.33301 -3.33301 15.5 -6 24.5 -8s18.167 -3 27.5 -3c35.333 0 59.833 9.16699 73.5 27.5s20.5 43.5 20.5 75.5v518h86
v-516z" />
    <glyph glyph-name="Kcommaaccent" unicode="&#x136;" horiz-adv-x="629" 
d="M548 0l-246 336l-125 -137v-199h-92v700h92v-381l346 381h112l-270 -297l298 -403h-115zM241 -173c13.333 17.333 26.665 37.167 39.998 59.5s23.666 43.166 30.999 62.499l83 -12c-5.33301 -11.333 -12.166 -23.166 -20.499 -35.499s-17.666 -24.5 -27.999 -36.5
s-21.666 -23.667 -33.999 -35s-24.833 -21.333 -37.5 -30z" />
    <glyph glyph-name="kcommaaccent" unicode="&#x137;" horiz-adv-x="553" 
d="M419 515h109l-211 -211l238 -304h-109l-189 248l-100 -101v-147h-86v714h86v-466zM203 -173c13.333 17.333 26.665 37.167 39.998 59.5s23.666 43.166 30.999 62.499l83 -12c-5.33301 -11.333 -12.166 -23.166 -20.499 -35.499s-17.666 -24.5 -27.999 -36.5
s-21.666 -23.667 -33.999 -35s-24.833 -21.333 -37.5 -30z" />
    <glyph glyph-name="kgreenlandic" unicode="&#x138;" horiz-adv-x="553" 
d="M419 515h109l-211 -211l238 -304h-109l-189 248l-100 -101v-147h-86v515h86v-267z" />
    <glyph glyph-name="Lacute" unicode="&#x139;" horiz-adv-x="588" 
d="M85 0v700h92v-614h391v-86h-483zM71 786c9.33301 10 18.5 20.6689 27.5 32.002l27 34.5c9 11.667 17.167 23.167 24.5 34.5s13.333 21.666 18 30.999l92 -14c-6 -12.667 -14.333 -25.834 -25 -39.501s-22.834 -27.167 -36.501 -40.5s-28.167 -26 -43.5 -38
s-30.666 -22.333 -45.999 -31z" />
    <glyph glyph-name="lacute" unicode="&#x13a;" horiz-adv-x="233" 
d="M73 0v714h86v-714h-86zM65 786c9.33301 10 18.5 20.6689 27.5 32.002l27 34.5c9 11.667 17.167 23.167 24.5 34.5s13.333 21.666 18 30.999l92 -14c-6 -12.667 -14.333 -25.834 -25 -39.501s-22.834 -27.167 -36.501 -40.5s-28.167 -26 -43.5 -38
s-30.666 -22.333 -45.999 -31z" />
    <glyph glyph-name="Lcommaaccent" unicode="&#x13b;" horiz-adv-x="588" 
d="M85 0v700h92v-614h391v-86h-483zM226 -173c13.333 17.333 26.665 37.167 39.998 59.5s23.666 43.166 30.999 62.499l83 -12c-5.33301 -11.333 -12.166 -23.166 -20.499 -35.499s-17.666 -24.5 -27.999 -36.5s-21.666 -23.667 -33.999 -35s-24.833 -21.333 -37.5 -30z" />
    <glyph glyph-name="lcommaaccent" unicode="&#x13c;" horiz-adv-x="233" 
d="M73 0v714h86v-714h-86zM8 -173c13.333 17.333 26.665 37.167 39.998 59.5s23.666 43.166 30.999 62.499l83 -12c-5.33301 -11.333 -12.166 -23.166 -20.499 -35.499s-17.666 -24.5 -27.999 -36.5s-21.666 -23.667 -33.999 -35s-24.833 -21.333 -37.5 -30z" />
    <glyph glyph-name="Lcaron" unicode="&#x13d;" horiz-adv-x="588" 
d="M85 0v700h92v-614h391v-86h-483zM366 626c0 -32 -6.66895 -60.5029 -20.002 -85.5029s-32.666 -49.167 -57.999 -72.5l-31 32c12.667 13.333 22.834 28.5 30.501 45.5s11.5 33.833 11.5 50.5c0 8.66699 -1.16699 16.334 -3.5 23.001s-4.83301 13.334 -7.5 20.001
s-5 13.334 -7 20.001s-3 14.667 -3 24v17h88v-74z" />
    <glyph glyph-name="lcaron" unicode="&#x13e;" horiz-adv-x="279" 
d="M73 0v714h86v-714h-86zM346 640c0 -32 -6.66895 -60.5029 -20.002 -85.5029s-32.666 -49.167 -57.999 -72.5l-31 32c12.667 13.333 22.834 28.5 30.501 45.5s11.5 33.833 11.5 50.5c0 8.66699 -1.16699 16.334 -3.5 23.001s-4.83301 13.334 -7.5 20.001
s-5 13.334 -7 20.001s-3 14.667 -3 24v17h88v-74z" />
    <glyph glyph-name="Ldot" unicode="&#x13f;" horiz-adv-x="588" 
d="M85 0v700h92v-614h391v-86h-483zM485 304c0 -17.333 -6 -32 -18 -44s-26.667 -18 -44 -18s-32 6 -44 18s-18 26.667 -18 44s6 32.166 18 44.499s26.667 18.5 44 18.5s32 -6.16699 44 -18.5s18 -27.166 18 -44.499z" />
    <glyph glyph-name="ldot" unicode="&#x140;" horiz-adv-x="455" 
d="M73 0v714h86v-714h-86zM395 304c0 -17.333 -6 -32 -18 -44s-26.667 -18 -44 -18s-32 6 -44 18s-18 26.667 -18 44s6 32.166 18 44.499s26.667 18.5 44 18.5s32 -6.16699 44 -18.5s18 -27.166 18 -44.499z" />
    <glyph glyph-name="Lslash" unicode="&#x141;" horiz-adv-x="628" 
d="M124 0v276l-119 -55v75l119 56v348h93v-305l230 107v-76l-230 -108v-232h391v-86h-484z" />
    <glyph glyph-name="lslash" unicode="&#x142;" horiz-adv-x="315" 
d="M200 397v-397h-86v360l-113 -52v74l113 52v280h86v-243l115 53v-75z" />
    <glyph glyph-name="Nacute" unicode="&#x143;" horiz-adv-x="738" 
d="M543 0l-369 584v-584h-89v700h119l360 -571v571h89v-700h-110zM308 786c9.33301 10 18.5 20.6689 27.5 32.002l27 34.5c9 11.667 17.167 23.167 24.5 34.5s13.333 21.666 18 30.999l92 -14c-6 -12.667 -14.333 -25.834 -25 -39.501s-22.834 -27.167 -36.501 -40.5
s-28.167 -26 -43.5 -38s-30.666 -22.333 -45.999 -31z" />
    <glyph glyph-name="nacute" unicode="&#x144;" horiz-adv-x="583" 
d="M70 0v515.001h86v-86c21.333 32 46.833 56.333 76.5 73s63.5 25 101.5 25c56.667 0 101.167 -17.167 133.5 -51.5s48.5 -82.5 48.5 -144.5v-331h-86v311c0 15.333 -1.5 31.166 -4.5 47.499s-8.66699 31 -17 44s-20 23.667 -35 32s-34.833 12.5 -59.5 12.5
c-22.667 0 -43.667 -4 -63 -12s-36 -19.167 -50 -33.5s-25 -31.5 -33 -51.5s-12 -42 -12 -66v-284h-86zM250 617.001c16 18.667 30.999 40 44.999 64s25.333 45.667 34 65l87 -13c-10.667 -24.667 -27.667 -50.167 -51 -76.5s-49.666 -48.833 -78.999 -67.5z" />
    <glyph glyph-name="Ncommaaccent" unicode="&#x145;" horiz-adv-x="738" 
d="M543 0l-369 584v-584h-89v700h119l360 -571v571h89v-700h-110zM272 -173c13.333 17.333 26.665 37.167 39.998 59.5s23.666 43.166 30.999 62.499l83 -12c-5.33301 -11.333 -12.166 -23.166 -20.499 -35.499s-17.666 -24.5 -27.999 -36.5s-21.666 -23.667 -33.999 -35
s-24.833 -21.333 -37.5 -30z" />
    <glyph glyph-name="ncommaaccent" unicode="&#x146;" horiz-adv-x="583" 
d="M70 0v515.001h86v-86c21.333 32 46.833 56.333 76.5 73s63.5 25 101.5 25c56.667 0 101.167 -17.167 133.5 -51.5s48.5 -82.5 48.5 -144.5v-331h-86v311c0 15.333 -1.5 31.166 -4.5 47.499s-8.66699 31 -17 44s-20 23.667 -35 32s-34.833 12.5 -59.5 12.5
c-22.667 0 -43.667 -4 -63 -12s-36 -19.167 -50 -33.5s-25 -31.5 -33 -51.5s-12 -42 -12 -66v-284h-86zM195 -172.999c13.333 17.333 26.665 37.167 39.998 59.5s23.666 43.166 30.999 62.499l83 -12c-5.33301 -11.333 -12.166 -23.166 -20.499 -35.499
s-17.666 -24.5 -27.999 -36.5s-21.666 -23.667 -33.999 -35s-24.833 -21.333 -37.5 -30z" />
    <glyph glyph-name="Ncaron" unicode="&#x147;" horiz-adv-x="738" 
d="M543 0l-369 584v-584h-89v700h119l360 -571v571h89v-700h-110zM341 758c-20 18 -40.6699 35.5 -62.0029 52.5s-45.666 34.833 -72.999 53.5l27 44c26.667 -9.33301 52.834 -21.333 78.501 -36s47.5 -30 65.5 -46c17.333 16 39 31.333 65 46s52.333 26.667 79 36l27 -44
c-27.333 -18.667 -51.666 -36.5 -72.999 -53.5s-42 -34.5 -62 -52.5h-72z" />
    <glyph glyph-name="ncaron" unicode="&#x148;" horiz-adv-x="583" 
d="M70 0v515.001h86v-86c21.333 32 46.833 56.333 76.5 73s63.5 25 101.5 25c56.667 0 101.167 -17.167 133.5 -51.5s48.5 -82.5 48.5 -144.5v-331h-86v311c0 15.333 -1.5 31.166 -4.5 47.499s-8.66699 31 -17 44s-20 23.667 -35 32s-34.833 12.5 -59.5 12.5
c-22.667 0 -43.667 -4 -63 -12s-36 -19.167 -50 -33.5s-25 -31.5 -33 -51.5s-12 -42 -12 -66v-284h-86zM262 596.001c-20 18 -40.6699 35.5 -62.0029 52.5s-45.666 34.833 -72.999 53.5l27 44c26.667 -9.33301 52.834 -21.333 78.501 -36s47.5 -30 65.5 -46
c17.333 16 39 31.333 65 46s52.333 26.667 79 36l27 -44c-27.333 -18.667 -51.666 -36.5 -72.999 -53.5s-42 -34.5 -62 -52.5h-72z" />
    <glyph glyph-name="Eng" unicode="&#x14a;" horiz-adv-x="738" 
d="M653 37c0 -37.333 -5.5 -70.333 -16.5 -99s-26.167 -52.5 -45.5 -71.5s-42.5 -33.333 -69.5 -43s-56.5 -14.5 -88.5 -14.5c-37.333 0 -70.333 6 -99 18l32 79c20.667 -8.66699 42.667 -13 66 -13c42 0 72.5 9.83301 91.5 29.5s30.167 47.167 33.5 82.5l-383 575v-580h-89
v700h116l363 -543v543h89v-663z" />
    <glyph glyph-name="eng" unicode="&#x14b;" horiz-adv-x="583" 
d="M517 -1c0 -60 -15.5 -105.167 -46.5 -135.5s-73.5 -45.5 -127.5 -45.5c-14 0 -28.333 1.33301 -43 4s-27.334 6.33398 -38.001 11.001l24 72c14.667 -7.33301 32 -11 52 -11c34.667 0 58.834 9 72.501 27s20.5 42.667 20.5 74v316c0 15.333 -1.5 31.166 -4.5 47.499
s-8.66699 31 -17 44s-20 23.667 -35 32s-34.833 12.5 -59.5 12.5c-22.667 0 -43.667 -4 -63 -12s-36 -19.167 -50 -33.5s-25 -31.5 -33 -51.5s-12 -42 -12 -66v-284h-86v515h86v-86c21.333 32 46.833 56.333 76.5 73s63.5 25 101.5 25c56.667 0 101.167 -17.167 133.5 -51.5
s48.5 -82.5 48.5 -144.5v-332z" />
    <glyph glyph-name="Omacron" unicode="&#x14c;" horiz-adv-x="762" 
d="M722 350c0 -51.333 -8 -99.166 -24 -143.499s-38.833 -82.833 -68.5 -115.5s-65.5 -58.167 -107.5 -76.5s-89 -27.5 -141 -27.5s-99 9.16699 -141 27.5s-77.833 43.833 -107.5 76.5s-52.5 71.167 -68.5 115.5s-24 92.166 -24 143.499c0 52 8 100 24 144
s38.833 82.333 68.5 115s65.5 58.167 107.5 76.5s89 27.5 141 27.5s99 -9.16699 141 -27.5s77.833 -43.833 107.5 -76.5s52.5 -71 68.5 -115s24 -92 24 -144zM624 350c0 40.667 -5.5 78 -16.5 112s-27 63.167 -48 87.5s-46.5 43.166 -76.5 56.499s-64 20 -102 20
s-72 -6.66699 -102 -20s-55.333 -32.166 -76 -56.499s-36.5 -53.5 -47.5 -87.5s-16.5 -71.333 -16.5 -112s5.5 -77.834 16.5 -111.501s26.833 -62.667 47.5 -87s46 -43.333 76 -57s64 -20.5 102 -20.5s72 6.83301 102 20.5s55.5 32.667 76.5 57s37 53.333 48 87
s16.5 70.834 16.5 111.501zM228 783v58h300v-58h-300z" />
    <glyph glyph-name="omacron" unicode="&#x14d;" horiz-adv-x="586" 
d="M549 257c0 -38.667 -6 -74.334 -18 -107.001s-29 -61 -51 -85s-48.833 -42.833 -80.5 -56.5s-67.167 -20.5 -106.5 -20.5s-74.666 6.83301 -105.999 20.5s-58 32.5 -80 56.5s-39 52.333 -51 85s-18 68.334 -18 107.001s6 74.5 18 107.5s29 61.5 51 85.5
s48.667 42.833 80 56.5s66.666 20.5 105.999 20.5s74.833 -6.83301 106.5 -20.5s58.5 -32.5 80.5 -56.5s39 -52.5 51 -85.5s18 -68.833 18 -107.5zM457 257c0 27.333 -3.66699 52.666 -11 75.999s-18 43.666 -32 60.999s-31.167 31 -51.5 41s-43.5 15 -69.5 15
s-49.167 -5 -69.5 -15s-37.5 -23.667 -51.5 -41s-24.667 -37.666 -32 -60.999s-11 -48.666 -11 -75.999c0 -26.667 3.66699 -51.834 11 -75.501s18 -44 32 -61s31.167 -30.5 51.5 -40.5s43.5 -15 69.5 -15s49.167 5 69.5 15s37.5 23.5 51.5 40.5s24.667 37.333 32 61
s11 48.834 11 75.501zM143 621v58h300v-58h-300z" />
    <glyph glyph-name="Obreve" unicode="&#x14e;" horiz-adv-x="762" 
d="M722 350c0 -51.333 -8 -99.166 -24 -143.499s-38.833 -82.833 -68.5 -115.5s-65.5 -58.167 -107.5 -76.5s-89 -27.5 -141 -27.5s-99 9.16699 -141 27.5s-77.833 43.833 -107.5 76.5s-52.5 71.167 -68.5 115.5s-24 92.166 -24 143.499c0 52 8 100 24 144
s38.833 82.333 68.5 115s65.5 58.167 107.5 76.5s89 27.5 141 27.5s99 -9.16699 141 -27.5s77.833 -43.833 107.5 -76.5s52.5 -71 68.5 -115s24 -92 24 -144zM624 350c0 40.667 -5.5 78 -16.5 112s-27 63.167 -48 87.5s-46.5 43.166 -76.5 56.499s-64 20 -102 20
s-72 -6.66699 -102 -20s-55.333 -32.166 -76 -56.499s-36.5 -53.5 -47.5 -87.5s-16.5 -71.333 -16.5 -112s5.5 -77.834 16.5 -111.501s26.833 -62.667 47.5 -87s46 -43.333 76 -57s64 -20.5 102 -20.5s72 6.83301 102 20.5s55.5 32.667 76.5 57s37 53.333 48 87
s16.5 70.834 16.5 111.501zM380 765c-46.667 0 -84.5 11.667 -113.5 35s-46.167 52.666 -51.5 87.999l53 16c5.33301 -20.667 17.5 -37.834 36.5 -51.501s44.167 -20.5 75.5 -20.5s56.5 6.83301 75.5 20.5s31.167 30.834 36.5 51.501l53 -16
c-5.33301 -35.333 -22.5 -64.666 -51.5 -87.999s-66.833 -35 -113.5 -35z" />
    <glyph glyph-name="obreve" unicode="&#x14f;" horiz-adv-x="586" 
d="M549 257c0 -38.667 -6 -74.334 -18 -107.001s-29 -61 -51 -85s-48.833 -42.833 -80.5 -56.5s-67.167 -20.5 -106.5 -20.5s-74.666 6.83301 -105.999 20.5s-58 32.5 -80 56.5s-39 52.333 -51 85s-18 68.334 -18 107.001s6 74.5 18 107.5s29 61.5 51 85.5
s48.667 42.833 80 56.5s66.666 20.5 105.999 20.5s74.833 -6.83301 106.5 -20.5s58.5 -32.5 80.5 -56.5s39 -52.5 51 -85.5s18 -68.833 18 -107.5zM457 257c0 27.333 -3.66699 52.666 -11 75.999s-18 43.666 -32 60.999s-31.167 31 -51.5 41s-43.5 15 -69.5 15
s-49.167 -5 -69.5 -15s-37.5 -23.667 -51.5 -41s-24.667 -37.666 -32 -60.999s-11 -48.666 -11 -75.999c0 -26.667 3.66699 -51.834 11 -75.501s18 -44 32 -61s31.167 -30.5 51.5 -40.5s43.5 -15 69.5 -15s49.167 5 69.5 15s37.5 23.5 51.5 40.5s24.667 37.333 32 61
s11 48.834 11 75.501zM294 603c-46.667 0 -84.5 11.667 -113.5 35s-46.167 52.666 -51.5 87.999l53 16c5.33301 -20.667 17.5 -37.834 36.5 -51.501s44.167 -20.5 75.5 -20.5s56.5 6.83301 75.5 20.5s31.167 30.834 36.5 51.501l53 -16
c-5.33301 -35.333 -22.5 -64.666 -51.5 -87.999s-66.833 -35 -113.5 -35z" />
    <glyph glyph-name="Ohungarumlaut" unicode="&#x150;" horiz-adv-x="762" 
d="M722 350c0 -51.333 -8 -99.166 -24 -143.499s-38.833 -82.833 -68.5 -115.5s-65.5 -58.167 -107.5 -76.5s-89 -27.5 -141 -27.5s-99 9.16699 -141 27.5s-77.833 43.833 -107.5 76.5s-52.5 71.167 -68.5 115.5s-24 92.166 -24 143.499c0 52 8 100 24 144
s38.833 82.333 68.5 115s65.5 58.167 107.5 76.5s89 27.5 141 27.5s99 -9.16699 141 -27.5s77.833 -43.833 107.5 -76.5s52.5 -71 68.5 -115s24 -92 24 -144zM624 350c0 40.667 -5.5 78 -16.5 112s-27 63.167 -48 87.5s-46.5 43.166 -76.5 56.499s-64 20 -102 20
s-72 -6.66699 -102 -20s-55.333 -32.166 -76 -56.499s-36.5 -53.5 -47.5 -87.5s-16.5 -71.333 -16.5 -112s5.5 -77.834 16.5 -111.501s26.833 -62.667 47.5 -87s46 -43.333 76 -57s64 -20.5 102 -20.5s72 6.83301 102 20.5s55.5 32.667 76.5 57s37 53.333 48 87
s16.5 70.834 16.5 111.501zM249 786c9.33301 10 18.5 20.6689 27.5 32.002l27 34.5c9 11.667 17.167 23.167 24.5 34.5s13.333 21.666 18 30.999l92 -14c-6 -12.667 -14.333 -25.834 -25 -39.501s-22.834 -27.167 -36.501 -40.5s-28.167 -26 -43.5 -38
s-30.666 -22.333 -45.999 -31zM408 786.002c9.33301 10 18.5 20.6689 27.5 32.002l27 34.5c9 11.667 17.167 23.167 24.5 34.5s13.333 21.666 18 30.999l92 -14c-6 -12.667 -14.333 -25.834 -25 -39.501s-22.834 -27.167 -36.501 -40.5s-28.167 -26 -43.5 -38
s-30.666 -22.333 -45.999 -31z" />
    <glyph glyph-name="ohungarumlaut" unicode="&#x151;" horiz-adv-x="586" 
d="M549 257c0 -38.667 -6 -74.334 -18 -107.001s-29 -61 -51 -85s-48.833 -42.833 -80.5 -56.5s-67.167 -20.5 -106.5 -20.5s-74.666 6.83301 -105.999 20.5s-58 32.5 -80 56.5s-39 52.333 -51 85s-18 68.334 -18 107.001s6 74.5 18 107.5s29 61.5 51 85.5
s48.667 42.833 80 56.5s66.666 20.5 105.999 20.5s74.833 -6.83301 106.5 -20.5s58.5 -32.5 80.5 -56.5s39 -52.5 51 -85.5s18 -68.833 18 -107.5zM457 257c0 27.333 -3.66699 52.666 -11 75.999s-18 43.666 -32 60.999s-31.167 31 -51.5 41s-43.5 15 -69.5 15
s-49.167 -5 -69.5 -15s-37.5 -23.667 -51.5 -41s-24.667 -37.666 -32 -60.999s-11 -48.666 -11 -75.999c0 -26.667 3.66699 -51.834 11 -75.501s18 -44 32 -61s31.167 -30.5 51.5 -40.5s43.5 -15 69.5 -15s49.167 5 69.5 15s37.5 23.5 51.5 40.5s24.667 37.333 32 61
s11 48.834 11 75.501zM172 624c9.33301 10 18.5 20.6689 27.5 32.002l27 34.5c9 11.667 17.167 23.167 24.5 34.5s13.333 21.666 18 30.999l92 -14c-6 -12.667 -14.333 -25.834 -25 -39.501s-22.834 -27.167 -36.501 -40.5s-28.167 -26 -43.5 -38
s-30.666 -22.333 -45.999 -31zM331 624.002c9.33301 10 18.5 20.6689 27.5 32.002l27 34.5c9 11.667 17.167 23.167 24.5 34.5s13.333 21.666 18 30.999l92 -14c-6 -12.667 -14.333 -25.834 -25 -39.501s-22.834 -27.167 -36.501 -40.5s-28.167 -26 -43.5 -38
s-30.666 -22.333 -45.999 -31z" />
    <glyph glyph-name="OE" unicode="&#x152;" horiz-adv-x="1025" 
d="M380 0c-54 0 -102 8.83398 -144 26.501s-77.333 42.167 -106 73.5s-50.5 68.5 -65.5 111.5s-22.5 89.5 -22.5 139.5s7.5 96.167 22.5 138.5s36.833 79.166 65.5 110.499s64 55.833 106 73.5s90 26.5 144 26.5h599v-86h-379v-203h317v-81h-317v-244h379v-86h-599z
M141 351.001c0 -40 5.16699 -76.333 15.5 -109s25.666 -60.5 45.999 -83.5s45.333 -40.833 75 -53.5s63.834 -19 102.501 -19h126v528h-126c-38.667 0 -72.834 -6.16699 -102.501 -18.5s-54.667 -30 -75 -53s-35.666 -50.667 -45.999 -83s-15.5 -68.5 -15.5 -108.5z" />
    <glyph glyph-name="oe" unicode="&#x153;" horiz-adv-x="988" 
d="M956 267c0 -6 -0.168945 -11.5 -0.501953 -16.5s-0.833008 -9.5 -1.5 -13.5h-409c2.66699 -54 19.834 -95.833 51.501 -125.5s73.5 -44.5 125.5 -44.5c31.333 0 59.5 5.5 84.5 16.5s47.167 27.167 66.5 48.5l60 -53c-27.333 -29.333 -58.333 -51.833 -93 -67.5
s-75 -23.5 -121 -23.5c-52 0 -96.5 10.5 -133.5 31.5s-65.5 49.833 -85.5 86.5c-20.667 -36 -48.667 -64.667 -84 -86s-77.333 -32 -126 -32c-39.333 0 -74.5 6.83301 -105.5 20.5s-57.333 32.5 -79 56.5s-38.334 52.5 -50.001 85.5s-17.5 68.5 -17.5 106.5
c0 38.667 5.83301 74.5 17.5 107.5s28.334 61.5 50.001 85.5s48 42.833 79 56.5s66.167 20.5 105.5 20.5c48.667 0 90.834 -10.667 126.501 -32s63.5 -50.333 83.5 -87c20 36 47.833 64.833 83.5 86.5s77.5 32.5 125.5 32.5c38 0 72.167 -6.66699 102.5 -20
s56.333 -31.5 78 -54.5s38.167 -50.5 49.5 -82.5s17 -66.333 17 -103zM453.998 257c0 27.333 -3.66699 52.666 -11 75.999s-17.833 43.666 -31.5 60.999s-30.5 31 -50.5 41s-43 15 -69 15s-49.167 -5 -69.5 -15s-37.333 -23.667 -51 -41s-24.167 -37.666 -31.5 -60.999
s-11 -48.666 -11 -75.999c0 -26.667 3.66699 -51.667 11 -75s17.833 -43.666 31.5 -60.999s30.667 -31 51 -41s43.5 -15 69.5 -15s49 5 69 15s36.833 23.667 50.5 41s24.167 37.666 31.5 60.999s11 48.333 11 75zM866.998 302c-4.66699 50 -22 87.667 -52 113
s-66 38 -108 38c-46 0 -83.167 -14 -111.5 -42s-44.5 -64.333 -48.5 -109h320z" />
    <glyph glyph-name="Racute" unicode="&#x154;" horiz-adv-x="672" 
d="M536 0l-151 285.001h-208v-285h-92v700h304c36 0 68.333 -4.83301 97 -14.5s53.167 -23.334 73.5 -41.001s35.833 -39 46.5 -64s16 -52.833 16 -83.5c0 -49.333 -13.5 -90.5 -40.5 -123.5s-61.833 -56.833 -104.5 -71.5l165 -302h-106zM526 490.001
c0 38 -12.667 68.167 -38 90.5s-59 33.5 -101 33.5h-210v-246h214c42 0 75 11.333 99 34s36 52 36 88zM261 786.001c9.33301 10 18.5 20.6689 27.5 32.002l27 34.5c9 11.667 17.167 23.167 24.5 34.5s13.333 21.666 18 30.999l92 -14
c-6 -12.667 -14.333 -25.834 -25 -39.501s-22.834 -27.167 -36.501 -40.5s-28.167 -26 -43.5 -38s-30.666 -22.333 -45.999 -31z" />
    <glyph glyph-name="racute" unicode="&#x155;" horiz-adv-x="378" 
d="M352 425c-9.33301 4.66699 -18.832 8.33301 -28.499 11s-20.167 4 -31.5 4c-17.333 0 -34.166 -3.83301 -50.499 -11.5s-30.833 -18.667 -43.5 -33s-22.667 -32.333 -30 -54s-11 -46.5 -11 -74.5v-267h-86v515h86v-88c17.333 28 38.833 51.333 64.5 70s54.5 28 86.5 28
c15.333 0 29.166 -1.83301 41.499 -5.5s22.166 -8.16699 29.499 -13.5zM145.001 623.999c9.33301 10 18.5 20.6689 27.5 32.002l27 34.5c9 11.667 17.167 23.167 24.5 34.5s13.333 21.666 18 30.999l92 -14c-6 -12.667 -14.333 -25.834 -25 -39.501
s-22.834 -27.167 -36.501 -40.5s-28.167 -26 -43.5 -38s-30.666 -22.333 -45.999 -31z" />
    <glyph glyph-name="Rcommaaccent" unicode="&#x156;" horiz-adv-x="672" 
d="M536 0l-151 285.001h-208v-285h-92v700h304c36 0 68.333 -4.83301 97 -14.5s53.167 -23.334 73.5 -41.001s35.833 -39 46.5 -64s16 -52.833 16 -83.5c0 -49.333 -13.5 -90.5 -40.5 -123.5s-61.833 -56.833 -104.5 -71.5l165 -302h-106zM526 490.001
c0 38 -12.667 68.167 -38 90.5s-59 33.5 -101 33.5h-210v-246h214c42 0 75 11.333 99 34s36 52 36 88zM233 -172.999c13.333 17.333 26.665 37.167 39.998 59.5s23.666 43.166 30.999 62.499l83 -12c-5.33301 -11.333 -12.166 -23.166 -20.499 -35.499
s-17.666 -24.5 -27.999 -36.5s-21.666 -23.667 -33.999 -35s-24.833 -21.333 -37.5 -30z" />
    <glyph glyph-name="rcommaaccent" unicode="&#x157;" horiz-adv-x="378" 
d="M352 425c-9.33301 4.66699 -18.832 8.33301 -28.499 11s-20.167 4 -31.5 4c-17.333 0 -34.166 -3.83301 -50.499 -11.5s-30.833 -18.667 -43.5 -33s-22.667 -32.333 -30 -54s-11 -46.5 -11 -74.5v-267h-86v515h86v-88c17.333 28 38.833 51.333 64.5 70s54.5 28 86.5 28
c15.333 0 29.166 -1.83301 41.499 -5.5s22.166 -8.16699 29.499 -13.5zM4.00098 -173.001c13.333 17.333 26.665 37.167 39.998 59.5s23.666 43.166 30.999 62.499l83 -12c-5.33301 -11.333 -12.166 -23.166 -20.499 -35.499s-17.666 -24.5 -27.999 -36.5
s-21.666 -23.667 -33.999 -35s-24.833 -21.333 -37.5 -30z" />
    <glyph glyph-name="Rcaron" unicode="&#x158;" horiz-adv-x="672" 
d="M536 0l-151 285.001h-208v-285h-92v700h304c36 0 68.333 -4.83301 97 -14.5s53.167 -23.334 73.5 -41.001s35.833 -39 46.5 -64s16 -52.833 16 -83.5c0 -49.333 -13.5 -90.5 -40.5 -123.5s-61.833 -56.833 -104.5 -71.5l165 -302h-106zM526 490.001
c0 38 -12.667 68.167 -38 90.5s-59 33.5 -101 33.5h-210v-246h214c42 0 75 11.333 99 34s36 52 36 88zM286 758.001c-20 18 -40.6699 35.5 -62.0029 52.5s-45.666 34.833 -72.999 53.5l27 44c26.667 -9.33301 52.834 -21.333 78.501 -36s47.5 -30 65.5 -46
c17.333 16 39 31.333 65 46s52.333 26.667 79 36l27 -44c-27.333 -18.667 -51.666 -36.5 -72.999 -53.5s-42 -34.5 -62 -52.5h-72z" />
    <glyph glyph-name="rcaron" unicode="&#x159;" horiz-adv-x="378" 
d="M352 425c-9.33301 4.66699 -18.832 8.33301 -28.499 11s-20.167 4 -31.5 4c-17.333 0 -34.166 -3.83301 -50.499 -11.5s-30.833 -18.667 -43.5 -33s-22.667 -32.333 -30 -54s-11 -46.5 -11 -74.5v-267h-86v515h86v-88c17.333 28 38.833 51.333 64.5 70s54.5 28 86.5 28
c15.333 0 29.166 -1.83301 41.499 -5.5s22.166 -8.16699 29.499 -13.5zM185.001 595.999c-20 18 -40.6699 35.5 -62.0029 52.5s-45.666 34.833 -72.999 53.5l27 44c26.667 -9.33301 52.834 -21.333 78.501 -36s47.5 -30 65.5 -46c17.333 16 39 31.333 65 46
s52.333 26.667 79 36l27 -44c-27.333 -18.667 -51.666 -36.5 -72.999 -53.5s-42 -34.5 -62 -52.5h-72z" />
    <glyph glyph-name="Sacute" unicode="&#x15a;" horiz-adv-x="611" 
d="M303 713c53.333 0 102.326 -10.5068 146.993 -31.5068s82 -51.5 112 -91.5l-72 -50c-22.667 28.667 -50.167 50.834 -82.5 66.501s-68.833 23.5 -109.5 23.5c-18.667 0 -36.667 -1.83301 -54 -5.5s-32.5 -9.66699 -45.5 -18s-23.5 -19.166 -31.5 -32.499
s-12 -29.666 -12 -48.999s4.16699 -35.166 12.5 -47.499s19.833 -22.666 34.5 -30.999s31.834 -15.333 51.501 -21s40.834 -11.167 63.501 -16.5c33.333 -8 65.333 -16.667 96 -26s57.834 -21.666 81.501 -36.999s42.5 -34.666 56.5 -57.999s21 -52.333 21 -87
c0 -32 -6.16699 -61.167 -18.5 -87.5s-30 -48.833 -53 -67.5s-50.667 -33.167 -83 -43.5s-68.833 -15.5 -109.5 -15.5c-65.333 0 -122 13.167 -170 39.5s-85 60.5 -111 102.5l78 51c23.333 -38.667 54 -66.667 92 -84s77.667 -26 119 -26
c48.667 0 87.834 10.833 117.501 32.5s44.5 52.167 44.5 91.5c0 21.333 -4.83301 38.833 -14.5 52.5s-23 24.834 -40 33.501s-37 16 -60 22s-48.167 12 -75.5 18c-28.667 6 -56.667 13.333 -84 22s-51.666 20.334 -72.999 35.001s-38.5 33.167 -51.5 55.5
s-19.5 50.166 -19.5 83.499c0 31.333 6.16699 59.166 18.5 83.499s29.333 45 51 62s47.334 29.833 77.001 38.5s61.834 13 96.501 13zM235.993 785.993c9.33301 10 18.5 20.6689 27.5 32.002l27 34.5c9 11.667 17.167 23.167 24.5 34.5s13.333 21.666 18 30.999l92 -14
c-6 -12.667 -14.333 -25.834 -25 -39.501s-22.834 -27.167 -36.501 -40.5s-28.167 -26 -43.5 -38s-30.666 -22.333 -45.999 -31z" />
    <glyph glyph-name="sacute" unicode="&#x15b;" horiz-adv-x="503" 
d="M468 152c0 -48.667 -18.6689 -88.1689 -56.002 -118.502s-89.333 -45.5 -156 -45.5c-51.333 0 -96.333 9.16699 -135 27.5s-70 44.5 -94 78.5l60 50c20 -27.333 44.5 -48.166 73.5 -62.499s61.833 -21.5 98.5 -21.5c34.667 0 64 7 88 21s36 35.667 36 65
c0 13.333 -2.83301 24.166 -8.5 32.499s-14.334 15.5 -26.001 21.5s-26.5 11 -44.5 15l-65 14c-24 4.66699 -47.167 10.167 -69.5 16.5s-42 15 -59 26s-30.5 24.833 -40.5 41.5s-15 37.667 -15 63c0 26.667 5.33301 49.5 16 68.5s24.834 34.667 42.501 47s38 21.333 61 27
s47.167 8.5 72.5 8.5c24.667 0 47.5 -2.33301 68.5 -7s40.333 -11 58 -19s33.5 -17 47.5 -27s26 -20.333 36 -31l-57 -54c-19.333 22.667 -42.166 39.334 -68.499 50.001s-54.5 16 -84.5 16c-14 0 -27.667 -1.33301 -41 -4s-25 -6.66699 -35 -12
s-18.167 -12.666 -24.5 -21.999s-9.5 -20.333 -9.5 -33c0 -13.333 3.5 -24.333 10.5 -33s16.333 -16 28 -22s25.334 -10.833 41.001 -14.5s32.167 -7.16699 49.5 -10.5c26 -4.66699 51.167 -10 75.5 -16s45.833 -14.5 64.5 -25.5s33.667 -25.333 45 -43s17 -40.167 17 -67.5
zM199.998 616.998c16 18.667 30.999 40 44.999 64s25.333 45.667 34 65l87 -13c-10.667 -24.667 -27.667 -50.167 -51 -76.5s-49.666 -48.833 -78.999 -67.5z" />
    <glyph glyph-name="Scircumflex" unicode="&#x15c;" horiz-adv-x="611" 
d="M303 713c53.333 0 102.326 -10.5068 146.993 -31.5068s82 -51.5 112 -91.5l-72 -50c-22.667 28.667 -50.167 50.834 -82.5 66.501s-68.833 23.5 -109.5 23.5c-18.667 0 -36.667 -1.83301 -54 -5.5s-32.5 -9.66699 -45.5 -18s-23.5 -19.166 -31.5 -32.499
s-12 -29.666 -12 -48.999s4.16699 -35.166 12.5 -47.499s19.833 -22.666 34.5 -30.999s31.834 -15.333 51.501 -21s40.834 -11.167 63.501 -16.5c33.333 -8 65.333 -16.667 96 -26s57.834 -21.666 81.501 -36.999s42.5 -34.666 56.5 -57.999s21 -52.333 21 -87
c0 -32 -6.16699 -61.167 -18.5 -87.5s-30 -48.833 -53 -67.5s-50.667 -33.167 -83 -43.5s-68.833 -15.5 -109.5 -15.5c-65.333 0 -122 13.167 -170 39.5s-85 60.5 -111 102.5l78 51c23.333 -38.667 54 -66.667 92 -84s77.667 -26 119 -26
c48.667 0 87.834 10.833 117.501 32.5s44.5 52.167 44.5 91.5c0 21.333 -4.83301 38.833 -14.5 52.5s-23 24.834 -40 33.501s-37 16 -60 22s-48.167 12 -75.5 18c-28.667 6 -56.667 13.333 -84 22s-51.666 20.334 -72.999 35.001s-38.5 33.167 -51.5 55.5
s-19.5 50.166 -19.5 83.499c0 31.333 6.16699 59.166 18.5 83.499s29.333 45 51 62s47.334 29.833 77.001 38.5s61.834 13 96.501 13zM338.993 905.993c20 -18 40.6699 -35.667 62.0029 -53s45.666 -35.333 72.999 -54l-27 -44c-26.667 10 -53 22.333 -79 37
s-47.667 30 -65 46c-18 -16 -39.833 -31.333 -65.5 -46s-51.834 -27 -78.501 -37l-27 44c27.333 18.667 51.666 36.667 72.999 54s42 35 62 53h72z" />
    <glyph glyph-name="scircumflex" unicode="&#x15d;" horiz-adv-x="503" 
d="M468 152c0 -48.667 -18.6689 -88.1689 -56.002 -118.502s-89.333 -45.5 -156 -45.5c-51.333 0 -96.333 9.16699 -135 27.5s-70 44.5 -94 78.5l60 50c20 -27.333 44.5 -48.166 73.5 -62.499s61.833 -21.5 98.5 -21.5c34.667 0 64 7 88 21s36 35.667 36 65
c0 13.333 -2.83301 24.166 -8.5 32.499s-14.334 15.5 -26.001 21.5s-26.5 11 -44.5 15l-65 14c-24 4.66699 -47.167 10.167 -69.5 16.5s-42 15 -59 26s-30.5 24.833 -40.5 41.5s-15 37.667 -15 63c0 26.667 5.33301 49.5 16 68.5s24.834 34.667 42.501 47s38 21.333 61 27
s47.167 8.5 72.5 8.5c24.667 0 47.5 -2.33301 68.5 -7s40.333 -11 58 -19s33.5 -17 47.5 -27s26 -20.333 36 -31l-57 -54c-19.333 22.667 -42.166 39.334 -68.499 50.001s-54.5 16 -84.5 16c-14 0 -27.667 -1.33301 -41 -4s-25 -6.66699 -35 -12
s-18.167 -12.666 -24.5 -21.999s-9.5 -20.333 -9.5 -33c0 -13.333 3.5 -24.333 10.5 -33s16.333 -16 28 -22s25.334 -10.833 41.001 -14.5s32.167 -7.16699 49.5 -10.5c26 -4.66699 51.167 -10 75.5 -16s45.833 -14.5 64.5 -25.5s33.667 -25.333 45 -43s17 -40.167 17 -67.5
zM286.998 743.998c20 -18 40.6699 -35.667 62.0029 -53s45.666 -35.333 72.999 -54l-27 -44c-26.667 10 -53 22.333 -79 37s-47.667 30 -65 46c-18 -16 -39.833 -31.333 -65.5 -46s-51.834 -27 -78.501 -37l-27 44c27.333 18.667 51.666 36.667 72.999 54s42 35 62 53h72z
" />
    <glyph glyph-name="Scedilla" unicode="&#x15e;" horiz-adv-x="611" 
d="M303 713c53.333 0 102.325 -10.5068 146.992 -31.5068s82 -51.5 112 -91.5l-72 -50c-22.667 28.667 -50.167 50.834 -82.5 66.501s-68.833 23.5 -109.5 23.5c-18.667 0 -36.667 -1.83301 -54 -5.5s-32.5 -9.66699 -45.5 -18s-23.5 -19.166 -31.5 -32.499
s-12 -29.666 -12 -48.999s4.16699 -35.166 12.5 -47.499s19.833 -22.666 34.5 -30.999s31.834 -15.333 51.501 -21s40.834 -11.167 63.501 -16.5c33.333 -8 65.333 -16.667 96 -26s57.834 -21.666 81.501 -36.999s42.5 -34.666 56.5 -57.999s21 -52.333 21 -87
c0 -32 -6.16699 -61.167 -18.5 -87.5s-30 -48.833 -53 -67.5s-50.833 -33.334 -83.5 -44.001c-24 -7.33301 -50.667 -12 -80 -14c12.667 -10 22.667 -21.5 30 -34.5s11 -27.167 11 -42.5c0 -27.333 -10.167 -48.666 -30.5 -63.999s-44.833 -23 -73.5 -23
c-16.667 0 -32 2.33301 -46 7s-25 10.667 -33 18v61c8 -8 17.833 -14.833 29.5 -20.5s23.834 -8.5 36.501 -8.5c14 0 26 4 36 12s15 19 15 33c0 21.333 -11.333 42 -34 62c-53.333 3.33301 -100 16 -140 38c-48 26.667 -85 61 -111 103l78 51
c23.333 -38.667 54 -66.667 92 -84s77.667 -26 119 -26c48.667 0 87.834 10.833 117.501 32.5s44.5 52.167 44.5 91.5c0 21.333 -4.83301 38.833 -14.5 52.5s-23 24.834 -40 33.501s-37 16 -60 22s-48.167 12 -75.5 18c-28.667 6 -56.667 13.333 -84 22
s-51.666 20.334 -72.999 35.001s-38.5 33.167 -51.5 55.5s-19.5 50.166 -19.5 83.499c0 31.333 6.16699 59.166 18.5 83.499s29.333 45 51 62s47.334 29.833 77.001 38.5s61.834 13 96.501 13z" />
    <glyph glyph-name="scedilla" unicode="&#x15f;" horiz-adv-x="503" 
d="M468 152c0 -48.667 -18.668 -88.334 -56.001 -119.001c-32 -25.333 -75 -40 -129 -44c11.333 -9.33301 20.666 -20.333 27.999 -33s11 -26.334 11 -41.001c0 -25.333 -9.83301 -45.5 -29.5 -60.5s-43.5 -22.5 -71.5 -22.5c-16 0 -30.833 2.33301 -44.5 7
s-24.167 10.334 -31.5 17.001v60c8 -7.33301 17.5 -13.833 28.5 -19.5s22.833 -8.5 35.5 -8.5c13.333 0 24.833 3.83301 34.5 11.5s14.5 18.167 14.5 31.5c0 21.333 -11.333 40.666 -34 57.999c-38.667 3.33301 -73 12 -103 26c-38.667 18.667 -70 45 -94 79l60 50
c20 -27.333 44.5 -48.166 73.5 -62.499s61.833 -21.5 98.5 -21.5c34.667 0 64 7 88 21s36 35.667 36 65c0 13.333 -2.83301 24.166 -8.5 32.499s-14.334 15.5 -26.001 21.5s-26.5 11 -44.5 15l-65 14c-24 4.66699 -47.167 10.167 -69.5 16.5s-42 15 -59 26
s-30.5 24.833 -40.5 41.5s-15 37.667 -15 63c0 26.667 5.33301 49.5 16 68.5s24.834 34.667 42.501 47s38 21.333 61 27s47.167 8.5 72.5 8.5c24.667 0 47.5 -2.33301 68.5 -7s40.333 -11 58 -19s33.5 -17 47.5 -27s26 -20.333 36 -31l-57 -54
c-19.333 22.667 -42.166 39.334 -68.499 50.001s-54.5 16 -84.5 16c-14 0 -27.667 -1.33301 -41 -4s-25 -6.66699 -35 -12s-18.167 -12.666 -24.5 -21.999s-9.5 -20.333 -9.5 -33c0 -13.333 3.5 -24.333 10.5 -33s16.333 -16 28 -22s25.334 -10.833 41.001 -14.5
s32.167 -7.16699 49.5 -10.5c26 -4.66699 51.167 -10 75.5 -16s45.833 -14.5 64.5 -25.5s33.667 -25.333 45 -43s17 -40.167 17 -67.5z" />
    <glyph glyph-name="Scaron" unicode="&#x160;" horiz-adv-x="611" 
d="M303 713c53.333 0 102.326 -10.5068 146.993 -31.5068s82 -51.5 112 -91.5l-72 -50c-22.667 28.667 -50.167 50.834 -82.5 66.501s-68.833 23.5 -109.5 23.5c-18.667 0 -36.667 -1.83301 -54 -5.5s-32.5 -9.66699 -45.5 -18s-23.5 -19.166 -31.5 -32.499
s-12 -29.666 -12 -48.999s4.16699 -35.166 12.5 -47.499s19.833 -22.666 34.5 -30.999s31.834 -15.333 51.501 -21s40.834 -11.167 63.501 -16.5c33.333 -8 65.333 -16.667 96 -26s57.834 -21.666 81.501 -36.999s42.5 -34.666 56.5 -57.999s21 -52.333 21 -87
c0 -32 -6.16699 -61.167 -18.5 -87.5s-30 -48.833 -53 -67.5s-50.667 -33.167 -83 -43.5s-68.833 -15.5 -109.5 -15.5c-65.333 0 -122 13.167 -170 39.5s-85 60.5 -111 102.5l78 51c23.333 -38.667 54 -66.667 92 -84s77.667 -26 119 -26
c48.667 0 87.834 10.833 117.501 32.5s44.5 52.167 44.5 91.5c0 21.333 -4.83301 38.833 -14.5 52.5s-23 24.834 -40 33.501s-37 16 -60 22s-48.167 12 -75.5 18c-28.667 6 -56.667 13.333 -84 22s-51.666 20.334 -72.999 35.001s-38.5 33.167 -51.5 55.5
s-19.5 50.166 -19.5 83.499c0 31.333 6.16699 59.166 18.5 83.499s29.333 45 51 62s47.334 29.833 77.001 38.5s61.834 13 96.501 13zM263.993 757.993c-20 18 -40.6699 35.5 -62.0029 52.5s-45.666 34.833 -72.999 53.5l27 44c26.667 -9.33301 52.834 -21.333 78.501 -36
s47.5 -30 65.5 -46c17.333 16 39 31.333 65 46s52.333 26.667 79 36l27 -44c-27.333 -18.667 -51.666 -36.5 -72.999 -53.5s-42 -34.5 -62 -52.5h-72z" />
    <glyph glyph-name="scaron" unicode="&#x161;" horiz-adv-x="503" 
d="M212 596c-20 18 -40.6699 35.5 -62.0029 52.5s-45.666 34.833 -72.999 53.5l27 44c26.667 -9.33301 52.834 -21.333 78.501 -36s47.5 -30 65.5 -46c17.333 16 39 31.333 65 46s52.333 26.667 79 36l27 -44c-27.333 -18.667 -51.666 -36.5 -72.999 -53.5
s-42 -34.5 -62 -52.5h-72zM467.997 152c0 -48.667 -18.6689 -88.1689 -56.002 -118.502s-89.333 -45.5 -156 -45.5c-51.333 0 -96.333 9.16699 -135 27.5s-70 44.5 -94 78.5l60 50c20 -27.333 44.5 -48.166 73.5 -62.499s61.833 -21.5 98.5 -21.5c34.667 0 64 7 88 21
s36 35.667 36 65c0 13.333 -2.83301 24.166 -8.5 32.499s-14.334 15.5 -26.001 21.5s-26.5 11 -44.5 15l-65 14c-24 4.66699 -47.167 10.167 -69.5 16.5s-42 15 -59 26s-30.5 24.833 -40.5 41.5s-15 37.667 -15 63c0 26.667 5.33301 49.5 16 68.5s24.834 34.667 42.501 47
s38 21.333 61 27s47.167 8.5 72.5 8.5c24.667 0 47.5 -2.33301 68.5 -7s40.333 -11 58 -19s33.5 -17 47.5 -27s26 -20.333 36 -31l-57 -54c-19.333 22.667 -42.166 39.334 -68.499 50.001s-54.5 16 -84.5 16c-14 0 -27.667 -1.33301 -41 -4s-25 -6.66699 -35 -12
s-18.167 -12.666 -24.5 -21.999s-9.5 -20.333 -9.5 -33c0 -13.333 3.5 -24.333 10.5 -33s16.333 -16 28 -22s25.334 -10.833 41.001 -14.5s32.167 -7.16699 49.5 -10.5c26 -4.66699 51.167 -10 75.5 -16s45.833 -14.5 64.5 -25.5s33.667 -25.333 45 -43s17 -40.167 17 -67.5
z" />
    <glyph glyph-name="Tcedilla" unicode="&#x162;" horiz-adv-x="603" 
d="M196 -87c8 -7.33301 17.5 -13.834 28.5 -19.501s22.833 -8.5 35.5 -8.5c13.333 0 24.833 3.83301 34.5 11.5s14.5 18.167 14.5 31.5c0 27.333 -18 51.333 -54 72v614h-240v86h573v-86h-240v-614h-35c12.667 -7.33301 24 -16 34 -26c17.333 -18 26 -38.667 26 -62
c0 -25.333 -9.83301 -45.5 -29.5 -60.5s-43.5 -22.5 -71.5 -22.5c-16 0 -30.833 2.33301 -44.5 7s-24.167 10.334 -31.5 17.001v60z" />
    <glyph glyph-name="tcedilla" unicode="&#x163;" horiz-adv-x="379" 
d="M121 -84c8 -7.33301 17.5 -13.833 28.5 -19.5s22.833 -8.5 35.5 -8.5c13.333 0 24.833 3.83301 34.5 11.5s14.5 18.167 14.5 31.5c0 27.333 -18 51.333 -54 72c-24 10.667 -42.667 27.667 -56 51c-7.33301 13.333 -12.833 27.666 -16.5 42.999s-5.5 35.333 -5.5 60v285
h-89v73h89v151h86v-151h169v-73h-169v-285c0 -60.667 26.667 -91 80 -91c16 0 29.5 2.33301 40.5 7s20.167 9.66699 27.5 15l36 -65c-30 -23.333 -67.333 -35 -112 -35c4 -3.33301 8 -7 12 -11c17.333 -18 26 -38.667 26 -62c0 -25.333 -9.83301 -45.5 -29.5 -60.5
s-43.5 -22.5 -71.5 -22.5c-16 0 -30.833 2.33301 -44.5 7s-24.167 10.334 -31.5 17.001v60z" />
    <glyph glyph-name="Tcaron" unicode="&#x164;" horiz-adv-x="603" 
d="M348 614v-614h-93v614h-240v86h573v-86h-240zM267 758c-20 18 -40.6699 35.5 -62.0029 52.5s-45.666 34.833 -72.999 53.5l27 44c26.667 -9.33301 52.834 -21.333 78.501 -36s47.5 -30 65.5 -46c17.333 16 39 31.333 65 46s52.333 26.667 79 36l27 -44
c-27.333 -18.667 -51.666 -36.5 -72.999 -53.5s-42 -34.5 -62 -52.5h-72z" />
    <glyph glyph-name="tcaron" unicode="&#x165;" horiz-adv-x="379" 
d="M372 23c-30 -23.333 -67.334 -34.998 -112.001 -34.998c-30.667 0 -57.667 5.16699 -81 15.5s-41.666 27.166 -54.999 50.499c-7.33301 13.333 -12.833 27.666 -16.5 42.999s-5.5 35.333 -5.5 60v285h-89v73h89v151h86v-151h169v-73h-169v-285
c0 -60.667 26.667 -91 80 -91c16 0 29.5 2.33301 40.5 7s20.167 9.66699 27.5 15zM352.196 690.768c0 -27.2852 -6.07227 -51.5869 -18.2168 -72.9033c-12.1436 -21.3164 -29.7529 -41.9229 -52.8281 -61.8184l-28.2354 27.2852
c11.5371 11.3691 20.7969 24.3018 27.7803 38.7969s10.4746 28.8477 10.4746 43.0586c0 7.38965 -1.0625 13.9268 -3.1875 19.6113c-2.12598 5.68457 -4.40332 11.3691 -6.83203 17.0537s-4.55371 11.3691 -6.375 17.0537s-2.73242 12.5059 -2.73242 20.4639v14.4961
h80.1523v-63.0977z" />
    <glyph glyph-name="Tbar" unicode="&#x166;" horiz-adv-x="603" 
d="M348 332v-332h-93v332h-113v60h113v222h-240v86h573v-86h-240v-222h112v-60h-112z" />
    <glyph glyph-name="tbar" unicode="&#x167;" horiz-adv-x="379" 
d="M102 264l-89.001 0.00195312v58h89v120h-89v73h89v151h86v-151h169v-73h-169v-120h126v-58h-126v-107c0 -60.667 26.667 -91 80 -91c16 0 29.5 2.33301 40.5 7s20.167 9.66699 27.5 15l36 -65c-30 -23.333 -67.333 -35 -112 -35c-30.667 0 -57.667 5.16699 -81 15.5
s-41.666 27.166 -54.999 50.499c-7.33301 13.333 -12.833 27.666 -16.5 42.999s-5.5 35.333 -5.5 60v107z" />
    <glyph glyph-name="Utilde" unicode="&#x168;" horiz-adv-x="723" 
d="M648 263c0 -42 -7.16797 -80 -21.501 -114s-34.166 -63 -59.499 -87s-55.5 -42.5 -90.5 -55.5s-73.167 -19.5 -114.5 -19.5s-79.5 6.5 -114.5 19.5s-65.167 31.5 -90.5 55.5s-45 53 -59 87s-21 72 -21 114v437h92v-437c0 -57.333 17 -103.166 51 -137.499
s81.333 -51.5 142 -51.5c29.333 0 56 4.5 80 13.5s44.5 21.667 61.5 38s30 36.166 39 59.499s13.5 49.333 13.5 78v437h92v-437zM535.999 861c-10 -27.333 -23.999 -48.834 -41.999 -64.501s-37.667 -23.5 -59 -23.5c-12 0 -24 2.16699 -36 6.5s-23.833 9 -35.5 14
s-23.167 9.66699 -34.5 14s-22 6.5 -32 6.5c-12 0 -23.5 -3.16699 -34.5 -9.5s-22.5 -16.5 -34.5 -30.5l-37 25c10 26.667 24 47.834 42 63.501s38 23.5 60 23.5c12 0 24 -2.16699 36 -6.5s23.833 -8.83301 35.5 -13.5l34 -13.5c11 -4.33301 21.5 -6.5 31.5 -6.5
c12 0 23.667 3 35 9s22.666 16 33.999 30z" />
    <glyph glyph-name="utilde" unicode="&#x169;" horiz-adv-x="582" 
d="M512 515l0.00292969 -515.001h-86v86c-22 -32 -47.667 -56.333 -77 -73s-63 -25 -101 -25c-56.667 0 -101.334 17.167 -134.001 51.5s-49 82.833 -49 145.5v330h86v-310c0 -16 1.5 -32 4.5 -48s8.66699 -30.667 17 -44s20.166 -24.166 35.499 -32.499s35 -12.5 59 -12.5
c22.667 0 43.667 4 63 12s36.166 19.167 50.499 33.5s25.5 31.5 33.5 51.5s12 42 12 66v284h86zM461.003 698.999c-10 -27.333 -23.999 -48.834 -41.999 -64.501s-37.667 -23.5 -59 -23.5c-12 0 -24 2.16699 -36 6.5s-23.833 9 -35.5 14s-23.167 9.66699 -34.5 14
s-22 6.5 -32 6.5c-12 0 -23.5 -3.16699 -34.5 -9.5s-22.5 -16.5 -34.5 -30.5l-37 25c10 26.667 24 47.834 42 63.501s38 23.5 60 23.5c12 0 24 -2.16699 36 -6.5s23.833 -8.83301 35.5 -13.5l34 -13.5c11 -4.33301 21.5 -6.5 31.5 -6.5c12 0 23.667 3 35 9
s22.666 16 33.999 30z" />
    <glyph glyph-name="Umacron" unicode="&#x16a;" horiz-adv-x="723" 
d="M648 263c0 -42 -7.16797 -80 -21.501 -114s-34.166 -63 -59.499 -87s-55.5 -42.5 -90.5 -55.5s-73.167 -19.5 -114.5 -19.5s-79.5 6.5 -114.5 19.5s-65.167 31.5 -90.5 55.5s-45 53 -59 87s-21 72 -21 114v437h92v-437c0 -57.333 17 -103.166 51 -137.499
s81.333 -51.5 142 -51.5c29.333 0 56 4.5 80 13.5s44.5 21.667 61.5 38s30 36.166 39 59.499s13.5 49.333 13.5 78v437h92v-437zM211.999 783v58h300v-58h-300z" />
    <glyph glyph-name="umacron" unicode="&#x16b;" horiz-adv-x="582" 
d="M512 515l0.00292969 -515.001h-86v86c-22 -32 -47.667 -56.333 -77 -73s-63 -25 -101 -25c-56.667 0 -101.334 17.167 -134.001 51.5s-49 82.833 -49 145.5v330h86v-310c0 -16 1.5 -32 4.5 -48s8.66699 -30.667 17 -44s20.166 -24.166 35.499 -32.499s35 -12.5 59 -12.5
c22.667 0 43.667 4 63 12s36.166 19.167 50.499 33.5s25.5 31.5 33.5 51.5s12 42 12 66v284h86zM138.003 620.999v58h300v-58h-300z" />
    <glyph glyph-name="Ubreve" unicode="&#x16c;" horiz-adv-x="723" 
d="M648 263c0 -42 -7.16797 -80 -21.501 -114s-34.166 -63 -59.499 -87s-55.5 -42.5 -90.5 -55.5s-73.167 -19.5 -114.5 -19.5s-79.5 6.5 -114.5 19.5s-65.167 31.5 -90.5 55.5s-45 53 -59 87s-21 72 -21 114v437h92v-437c0 -57.333 17 -103.166 51 -137.499
s81.333 -51.5 142 -51.5c29.333 0 56 4.5 80 13.5s44.5 21.667 61.5 38s30 36.166 39 59.499s13.5 49.333 13.5 78v437h92v-437zM363.999 765c-46.667 0 -84.5 11.667 -113.5 35s-46.167 52.666 -51.5 87.999l53 16c5.33301 -20.667 17.5 -37.834 36.5 -51.501
s44.167 -20.5 75.5 -20.5s56.5 6.83301 75.5 20.5s31.167 30.834 36.5 51.501l53 -16c-5.33301 -35.333 -22.5 -64.666 -51.5 -87.999s-66.833 -35 -113.5 -35z" />
    <glyph glyph-name="ubreve" unicode="&#x16d;" horiz-adv-x="582" 
d="M512 515l0.00292969 -515.001h-86v86c-22 -32 -47.667 -56.333 -77 -73s-63 -25 -101 -25c-56.667 0 -101.334 17.167 -134.001 51.5s-49 82.833 -49 145.5v330h86v-310c0 -16 1.5 -32 4.5 -48s8.66699 -30.667 17 -44s20.166 -24.166 35.499 -32.499s35 -12.5 59 -12.5
c22.667 0 43.667 4 63 12s36.166 19.167 50.499 33.5s25.5 31.5 33.5 51.5s12 42 12 66v284h86zM288.003 602.999c-46.667 0 -84.5 11.667 -113.5 35s-46.167 52.666 -51.5 87.999l53 16c5.33301 -20.667 17.5 -37.834 36.5 -51.501s44.167 -20.5 75.5 -20.5
s56.5 6.83301 75.5 20.5s31.167 30.834 36.5 51.501l53 -16c-5.33301 -35.333 -22.5 -64.666 -51.5 -87.999s-66.833 -35 -113.5 -35z" />
    <glyph glyph-name="Uring" unicode="&#x16e;" horiz-adv-x="723" 
d="M648 263c0 -42 -7.16797 -80 -21.501 -114s-34.166 -63 -59.499 -87s-55.5 -42.5 -90.5 -55.5s-73.167 -19.5 -114.5 -19.5s-79.5 6.5 -114.5 19.5s-65.167 31.5 -90.5 55.5s-45 53 -59 87s-21 72 -21 114v437h92v-437c0 -57.333 17 -103.166 51 -137.499
s81.333 -51.5 142 -51.5c29.333 0 56 4.5 80 13.5s44.5 21.667 61.5 38s30 36.166 39 59.499s13.5 49.333 13.5 78v437h92v-437zM468.999 821c0 -14 -2.66699 -27.167 -8 -39.5s-12.666 -23 -21.999 -32s-20.5 -16.167 -33.5 -21.5s-26.833 -8 -41.5 -8
s-28.5 2.66699 -41.5 8s-24.167 12.5 -33.5 21.5s-16.833 19.667 -22.5 32s-8.5 25.5 -8.5 39.5s2.83301 27.167 8.5 39.5s13.167 23.333 22.5 33s20.5 17.167 33.5 22.5s26.833 8 41.5 8s28.5 -2.66699 41.5 -8s24.167 -12.833 33.5 -22.5s16.666 -20.667 21.999 -33
s8 -25.5 8 -39.5zM420.999 821c0 16 -5.66699 29.667 -17 41s-24.666 17 -39.999 17s-28.666 -5.66699 -39.999 -17s-17 -25 -17 -41s5.66699 -29.5 17 -40.5s24.666 -16.5 39.999 -16.5s28.666 5.5 39.999 16.5s17 24.5 17 40.5z" />
    <glyph glyph-name="uring" unicode="&#x16f;" horiz-adv-x="582" 
d="M512 515l0.00292969 -515.001h-86v86c-22 -32 -47.667 -56.333 -77 -73s-63 -25 -101 -25c-56.667 0 -101.334 17.167 -134.001 51.5s-49 82.833 -49 145.5v330h86v-310c0 -16 1.5 -32 4.5 -48s8.66699 -30.667 17 -44s20.166 -24.166 35.499 -32.499s35 -12.5 59 -12.5
c22.667 0 43.667 4 63 12s36.166 19.167 50.499 33.5s25.5 31.5 33.5 51.5s12 42 12 66v284h86zM393.003 678.999c0 -14 -2.66699 -27.167 -8 -39.5s-12.666 -23 -21.999 -32s-20.5 -16.167 -33.5 -21.5s-26.833 -8 -41.5 -8s-28.5 2.66699 -41.5 8s-24.167 12.5 -33.5 21.5
s-16.833 19.667 -22.5 32s-8.5 25.5 -8.5 39.5s2.83301 27.167 8.5 39.5s13.167 23.333 22.5 33s20.5 17.167 33.5 22.5s26.833 8 41.5 8s28.5 -2.66699 41.5 -8s24.167 -12.833 33.5 -22.5s16.666 -20.667 21.999 -33s8 -25.5 8 -39.5zM345.003 678.999
c0 16 -5.66699 29.667 -17 41s-24.666 17 -39.999 17s-28.666 -5.66699 -39.999 -17s-17 -25 -17 -41s5.66699 -29.5 17 -40.5s24.666 -16.5 39.999 -16.5s28.666 5.5 39.999 16.5s17 24.5 17 40.5z" />
    <glyph glyph-name="Uhungarumlaut" unicode="&#x170;" horiz-adv-x="723" 
d="M648 263c0 -42 -7.16797 -80 -21.501 -114s-34.166 -63 -59.499 -87s-55.5 -42.5 -90.5 -55.5s-73.167 -19.5 -114.5 -19.5s-79.5 6.5 -114.5 19.5s-65.167 31.5 -90.5 55.5s-45 53 -59 87s-21 72 -21 114v437h92v-437c0 -57.333 17 -103.166 51 -137.499
s81.333 -51.5 142 -51.5c29.333 0 56 4.5 80 13.5s44.5 21.667 61.5 38s30 36.166 39 59.499s13.5 49.333 13.5 78v437h92v-437zM218.999 786c9.33301 10 18.5 20.6689 27.5 32.002l27 34.5c9 11.667 17.167 23.167 24.5 34.5s13.333 21.666 18 30.999l92 -14
c-6 -12.667 -14.333 -25.834 -25 -39.501s-22.834 -27.167 -36.501 -40.5s-28.167 -26 -43.5 -38s-30.666 -22.333 -45.999 -31zM377.999 786.002c9.33301 10 18.5 20.6689 27.5 32.002l27 34.5c9 11.667 17.167 23.167 24.5 34.5s13.333 21.666 18 30.999l92 -14
c-6 -12.667 -14.333 -25.834 -25 -39.501s-22.834 -27.167 -36.501 -40.5s-28.167 -26 -43.5 -38s-30.666 -22.333 -45.999 -31z" />
    <glyph glyph-name="uhungarumlaut" unicode="&#x171;" horiz-adv-x="582" 
d="M512 515l0.00292969 -515.001h-86v86c-22 -32 -47.667 -56.333 -77 -73s-63 -25 -101 -25c-56.667 0 -101.334 17.167 -134.001 51.5s-49 82.833 -49 145.5v330h86v-310c0 -16 1.5 -32 4.5 -48s8.66699 -30.667 17 -44s20.166 -24.166 35.499 -32.499s35 -12.5 59 -12.5
c22.667 0 43.667 4 63 12s36.166 19.167 50.499 33.5s25.5 31.5 33.5 51.5s12 42 12 66v284h86zM166.003 623.999c9.33301 10 18.5 20.6689 27.5 32.002l27 34.5c9 11.667 17.167 23.167 24.5 34.5s13.333 21.666 18 30.999l92 -14c-6 -12.667 -14.333 -25.834 -25 -39.501
s-22.834 -27.167 -36.501 -40.5s-28.167 -26 -43.5 -38s-30.666 -22.333 -45.999 -31zM325.003 624.001c9.33301 10 18.5 20.6689 27.5 32.002l27 34.5c9 11.667 17.167 23.167 24.5 34.5s13.333 21.666 18 30.999l92 -14c-6 -12.667 -14.333 -25.834 -25 -39.501
s-22.834 -27.167 -36.501 -40.5s-28.167 -26 -43.5 -38s-30.666 -22.333 -45.999 -31z" />
    <glyph glyph-name="Uogonek" unicode="&#x172;" horiz-adv-x="723" 
d="M647 263c0 -54.667 -11.1689 -100.832 -33.502 -138.499s-52.5 -69.167 -90.5 -94.5c-21.333 -14 -38.666 -29.5 -51.999 -46.5s-20 -35.5 -20 -55.5c0 -16 4.83301 -28 14.5 -36s22.167 -12 37.5 -12c16 0 29.5 3.83301 40.5 11.5s20.167 16.5 27.5 26.5v-71
c-7.33301 -8 -18 -15.167 -32 -21.5s-31 -9.5 -51 -9.5c-14 0 -27.167 1.83301 -39.5 5.5s-23.166 9.16699 -32.499 16.5s-16.833 16.5 -22.5 27.5s-8.5 24.167 -8.5 39.5c0 14 3.16699 28.667 9.5 44s17.833 30.666 34.5 45.999c-11.333 -2 -22.5 -3.83301 -33.5 -5.5
s-22.833 -2.5 -35.5 -2.5c-41.333 0 -79.333 6.5 -114 19.5s-64.667 31.5 -90 55.5s-45 53 -59 87s-21 72 -21 114v437h92v-437c0 -57.333 17 -103.166 51 -137.499s81.333 -51.5 142 -51.5c29.333 0 56 4.5 80 13.5s44.5 21.667 61.5 38s30 36.166 39 59.499
s13.5 49.333 13.5 78v437h92v-437z" />
    <glyph glyph-name="uogonek" unicode="&#x173;" horiz-adv-x="582" 
d="M425 86c-22 -32 -47.667 -56.332 -77 -72.999s-63 -25 -101 -25c-31.333 0 -58.333 5.16699 -81 15.5s-41.667 24.5 -57 42.5s-26.666 38.833 -33.999 62.5s-11 49.167 -11 76.5v330h86v-306c0 -41.333 9 -75.166 27 -101.499s48 -39.5 90 -39.5c22 0 42.667 4 62 12
s36.166 19.167 50.499 33.5s25.5 31.5 33.5 51.5s12 42 12 66v284h86v-515c-9.33301 -1.33301 -19.666 -3.83301 -30.999 -7.5s-21.833 -8.33398 -31.5 -14.001s-17.834 -12.667 -24.501 -21s-10 -17.833 -10 -28.5c0 -12 4.33301 -22 13 -30s20.667 -12 36 -12
c14 0 26 3.33301 36 10s18.333 14 25 22v-67c-7.33301 -7.33301 -17.333 -13.666 -30 -18.999s-27 -8 -43 -8c-28 0 -51.5 7.83301 -70.5 23.5s-28.5 35.5 -28.5 59.5c0 17.333 5.5 34.666 16.5 51.999s29.833 30.666 56.5 39.999v86z" />
    <glyph glyph-name="Wcircumflex" unicode="&#x174;" horiz-adv-x="970" 
d="M756 0h-105l-167 577l-166 -577h-107l-193 700h98l153 -584l173 584h90l172 -585l151 585h97zM521 906c20 -18 40.6699 -35.667 62.0029 -53s45.666 -35.333 72.999 -54l-27 -44c-26.667 10 -53 22.333 -79 37s-47.667 30 -65 46c-18 -16 -39.833 -31.333 -65.5 -46
s-51.834 -27 -78.501 -37l-27 44c27.333 18.667 51.666 36.667 72.999 54s42 35 62 53h72z" />
    <glyph glyph-name="wcircumflex" unicode="&#x175;" horiz-adv-x="770" 
d="M606 0h-94l-127 406l-127 -406h-95l-143 515h91l106 -413l130 413h80l129 -413l106 413h88zM421 744c20 -18 40.6699 -35.667 62.0029 -53s45.666 -35.333 72.999 -54l-27 -44c-26.667 10 -53 22.333 -79 37s-47.667 30 -65 46c-18 -16 -39.833 -31.333 -65.5 -46
s-51.834 -27 -78.501 -37l-27 44c27.333 18.667 51.666 36.667 72.999 54s42 35 62 53h72z" />
    <glyph glyph-name="Ycircumflex" unicode="&#x176;" horiz-adv-x="621" 
d="M357 287v-287h-93v287l-268 413h109l207 -329l208 329h106zM347 906c20 -18 40.6699 -35.667 62.0029 -53s45.666 -35.333 72.999 -54l-27 -44c-26.667 10 -53 22.333 -79 37s-47.667 30 -65 46c-18 -16 -39.833 -31.333 -65.5 -46s-51.834 -27 -78.501 -37l-27 44
c27.333 18.667 51.666 36.667 72.999 54s42 35 62 53h72z" />
    <glyph glyph-name="ycircumflex" unicode="&#x177;" horiz-adv-x="519" 
d="M304 -25c-10 -26 -20.332 -48.8311 -30.999 -68.498s-23 -36.334 -37 -50.001s-30 -23.834 -48 -30.501s-39 -10 -63 -10c-40.667 0 -75.667 10.667 -105 32l37 63c9.33301 -6 19.166 -10.833 29.499 -14.5s21.5 -5.5 33.5 -5.5c24 0 43 7.5 57 22.5
s25.667 33.833 35 56.5l14 31l-220 514h99l166 -401l148 401h92zM296.001 744.002c20 -18 40.6699 -35.667 62.0029 -53s45.666 -35.333 72.999 -54l-27 -44c-26.667 10 -53 22.333 -79 37s-47.667 30 -65 46c-18 -16 -39.833 -31.333 -65.5 -46s-51.834 -27 -78.501 -37
l-27 44c27.333 18.667 51.666 36.667 72.999 54s42 35 62 53h72z" />
    <glyph glyph-name="Ydieresis" unicode="&#x178;" horiz-adv-x="621" 
d="M357 287v-287h-93v287l-268 413h109l207 -329l208 329h106zM161 768v82h80v-82h-80zM383 768v82h80v-82h-80z" />
    <glyph glyph-name="Zacute" unicode="&#x179;" horiz-adv-x="608" 
d="M32 0v79l412 535h-396v86h516v-77l-413 -537h421v-86h-540zM230 786c9.33301 10 18.5 20.6689 27.5 32.002l27 34.5c9 11.667 17.167 23.167 24.5 34.5s13.333 21.666 18 30.999l92 -14c-6 -12.667 -14.333 -25.834 -25 -39.501s-22.834 -27.167 -36.501 -40.5
s-28.167 -26 -43.5 -38s-30.666 -22.333 -45.999 -31z" />
    <glyph glyph-name="zacute" unicode="&#x17a;" horiz-adv-x="490" 
d="M33 0v70l307 368h-294v77h403v-69l-308 -370h317v-76h-425zM197 617c16 18.667 30.999 40 44.999 64s25.333 45.667 34 65l87 -13c-10.667 -24.667 -27.667 -50.167 -51 -76.5s-49.666 -48.833 -78.999 -67.5z" />
    <glyph glyph-name="Zdotaccent" unicode="&#x17b;" horiz-adv-x="608" 
d="M32 0v79l412 535h-396v86h516v-77l-413 -537h421v-86h-540zM257 769v81h81v-81h-81z" />
    <glyph glyph-name="zdotaccent" unicode="&#x17c;" horiz-adv-x="490" 
d="M33 0v70l307 368h-294v77h403v-69l-308 -370h317v-76h-425zM203 607v81h81v-81h-81z" />
    <glyph glyph-name="Zcaron" unicode="&#x17d;" horiz-adv-x="608" 
d="M32 0v79l412 535h-396v86h516v-77l-413 -537h421v-86h-540zM257 758c-20 18 -40.6699 35.5 -62.0029 52.5s-45.666 34.833 -72.999 53.5l27 44c26.667 -9.33301 52.834 -21.333 78.501 -36s47.5 -30 65.5 -46c17.333 16 39 31.333 65 46s52.333 26.667 79 36l27 -44
c-27.333 -18.667 -51.666 -36.5 -72.999 -53.5s-42 -34.5 -62 -52.5h-72z" />
    <glyph glyph-name="zcaron" unicode="&#x17e;" horiz-adv-x="490" 
d="M33 0v70l307 368h-294v77h403v-69l-308 -370h317v-76h-425zM202 596c-20 18 -40.6699 35.5 -62.0029 52.5s-45.666 34.833 -72.999 53.5l27 44c26.667 -9.33301 52.834 -21.333 78.501 -36s47.5 -30 65.5 -46c17.333 16 39 31.333 65 46s52.333 26.667 79 36l27 -44
c-27.333 -18.667 -51.666 -36.5 -72.999 -53.5s-42 -34.5 -62 -52.5h-72z" />
    <glyph glyph-name="florin" unicode="&#x192;" 
d="M521 625c-10 4 -19.0039 6.83301 -27.0039 8.5s-18 2.5 -30 2.5c-35.333 0 -61.166 -7.83301 -77.499 -23.5s-27.166 -38.834 -32.499 -69.501l-18 -107h137l-13 -70h-136l-54 -313c-4 -25.333 -11 -48.833 -21 -70.5s-22.833 -40.167 -38.5 -55.5
s-34.5 -27.333 -56.5 -36s-47.333 -13 -76 -13c-18 0 -34.167 1.5 -48.5 4.5s-27.5 7.16699 -39.5 12.5l28 71c8 -3.33301 17 -6.16602 27 -8.49902s21.333 -3.5 34 -3.5c32 0 56.333 8.16699 73 24.5s27.667 39.833 33 70.5l55 317h-107l12 70h107l17 103
c8.66699 52.667 28.834 95 60.501 127s75.834 48 132.501 48c18 0 34.167 -1.5 48.5 -4.5s26.5 -7.16699 36.5 -12.5z" />
    <glyph glyph-name="Aringacute" unicode="&#x1fa;" horiz-adv-x="678" 
d="M302 873l81 127h105l-122 -127h-64zM225 757c0 14.667 3 28.667 9 42s14.167 25 24.5 35s22.333 18 36 24s28.5 9 44.5 9s30.833 -3 44.5 -9s25.834 -14 36.501 -24s19 -21.667 25 -35s9 -27.333 9 -42c0 -19.333 -4.5 -36.666 -13.5 -51.999
s-20.5 -27.666 -34.5 -36.999l270 -668h-103l-77 198h-317l-79 -198h-98l271 668c-14.667 9.33301 -26.334 21.666 -35.001 36.999s-13 32.666 -13 51.999zM339 613l-130 -333h257zM400 756c0 17.333 -5.66699 31.833 -17 43.5s-25.666 17.5 -42.999 17.5
s-31.833 -5.83301 -43.5 -17.5s-17.5 -26.167 -17.5 -43.5s5.83301 -31.666 17.5 -42.999s26.167 -17 43.5 -17s31.666 5.66699 42.999 17s17 25.666 17 42.999z" />
    </font>
</defs>
</svg>
