<svg width="57" height="48" viewBox="0 0 57 48" xmlns="http://www.w3.org/2000/svg"><g id="icons" stroke="none" stroke-width="1" fill="none" fill-rule="evenodd"><path d="M270.068 63c-4.356 0-7.623-1.6-9.8-4.8C258.088 55 257 50.525 257 44.774c0-6.586 1.622-12.383 4.866-17.391 3.244-5.01 8.202-9.137 14.875-12.383l4.45 8.904c-4.172 2.134-7.3 4.568-9.385 7.305-2.085 2.736-3.128 6.191-3.128 10.365.278-.093.742-.14 1.39-.14 2.966 0 5.492.905 7.577 2.714s3.128 4.29 3.128 7.443c0 3.525-1.02 6.308-3.058 8.348-2.04 2.04-4.588 3.061-7.647 3.061zm32.81 0c-4.356 0-7.623-1.6-9.801-4.8-2.178-3.2-3.267-7.675-3.267-13.426 0-6.586 1.622-12.383 4.866-17.391 3.244-5.01 8.202-9.137 14.875-12.383L314 23.904c-4.17 2.134-7.299 4.568-9.384 7.305-2.086 2.736-3.128 6.191-3.128 10.365.278-.093.741-.14 1.39-.14 2.966 0 5.492.905 7.577 2.714s3.128 4.29 3.128 7.443c0 3.525-1.02 6.308-3.059 8.348-2.039 2.04-4.587 3.061-7.646 3.061z" transform="translate(-257 -15)" fill="#000" id="quote"/></g></svg>