 <svg

      xmlns="http://www.w3.org/2000/svg"
      viewBox="0 0 65 16"
      width="140"
      height="20"

    >
      <path
        fill="#2B2A29"
        fillRule="evenodd"
        d="M27.7923211.9890909C27.7923211.40727274 27.395288 0 26.8280977 0c-.5671902 0-.9642234.40727273-.9642234.9890909 0 .2909091.0567191.52363637.2268761.69818183.1134381.11636363.1701571.17454545.3970332.23272727l.1701571.23272727c.113438.17454546.3403141.29090909.6239092.29090909l.4537522-.11636363v-.05818182h-.1701571l-.3403141-.11636364L27.1116928 1.92l.3970332-.23272727c.1701571-.17454546.2835951-.40727273.2835951-.69818182zm-.5104712 0c0 .58181819-.1701571.87272728-.4537522.87272728-.3403141 0-.5104712-.29090909-.5104712-.87272727 0-.58181818.1701571-.87272727.5104712-.87272727.2835951 0 .4537522.29090909.4537522.87272727zM29.4938918 1.92v-.05818182c-.113438 0-.113438-.05818182-.2835951-.40727273L28.6431065 0h-.1134381l-.5671902 1.51272727c-.1134381.29090909-.1701571.29090909-.2835951.34909091V1.92h.5671902v-.05818182c-.1701571 0-.2268761-.05818182-.2268761-.11636363l.056719-.23272728.0567191-.11636363h.6239092l.113438.34909091c0 .05818181-.056719.11636363-.170157.11636363h-.056719V1.92h.8507853zm-.7940663-.64h-.5104712l.2268761-.69818182L28.6998255 1.28zm2.438918-1.16363636V.05818182h-.5671903v.05818182c.1701571 0 .2268761.05818181.2268761.29090909v.81454545c0 .40727273-.113438.64-.4537522.64-.2835951 0-.3970331-.17454545-.3970331-.58181818V.3490909c0-.17454544.056719-.23272726.2835951-.23272726V.05818182h-.9642234v.05818182c.2268761 0 .2268761.05818181.2268761.23272727V1.28c0 .29090909.056719.40727273.2268761.52363636.113438.11636364.2835951.17454546.5104712.17454546.1701571 0 .3970332-.05818182.5104712-.17454546.113438-.05818181.1701571-.29090909.1701571-.58181818V.34909091c0-.17454545.056719-.23272727.2268761-.23272727zM33.6910995 1.92v-.05818182c-.1701571-.05818182-.2268761-.05818182-.2268761-.23272727v-1.28c0-.17454545.056719-.23272727.2268761-.23272727V.05818182h-.6806283l-.5104712 1.28-.5671902-1.28h-.6806283v.05818182c.1701571 0 .2268761.05818181.2268761.17454545v1.33818182c0 .17454545 0 .23272727-.2268761.23272727V1.92h.6239093v-.05818182c-.2268761 0-.2835952-.05818182-.2835952-.29090909v-1.28L32.2731239 1.92h.1134381l.6806282-1.68727273v1.39636364c0 .17454545-.056719.23272727-.2835951.23272727V1.92h.9075044zm1.0776614 0v-.05818182c-.2268761 0-.2835951-.05818182-.2835951-.17454545V.29090909c0-.11636363.056719-.17454545.2835951-.17454545V.05818182h-.9642234v.05818182c.1701571 0 .2268761.05818181.2268761.17454545v1.39636364c0 .11636363-.056719.17454545-.2268761.17454545V1.92h.9642234zm2.7225131 0v-.05818182c-.113438 0-.1701571-.05818182-.2835951-.40727273L36.5837696 0h-.056719l-.6239092 1.51272727c-.1134381.29090909-.1134381.29090909-.2835952.34909091V1.92h.5671903v-.05818182c-.1701571 0-.2268761-.05818182-.2268761-.11636363l.056719-.23272728.056719-.11636363h.6239093l.113438.34909091c0 .05818181 0 .11636363-.113438.11636363h-.1134381V1.92h.9075044zm-.8507853-.64h-.5104712l.226876-.69818182L36.6404887 1.28zM39.7600349.11636364V.05818182h-.5104712v.05818182c.113438 0 .1701571.05818181.1701571.11636363v.11636364L39.0794066 1.28l-.2835951-.9309091V.23272728c0-.05818182 0-.11636363.1134381-.11636363h.056719V.05818182h-.8507854v.05818182c.1134381 0 .1701571 0 .2268761.11636363l.0567191.23272727-.2835952.87272728-.3403141-.98909091V.23272727c0-.05818182 0-.11636363.1701571-.11636363V.05818182h-.8507854v.05818182c.1701571 0 .1701571.05818181.2268761.17454545l.5671903 1.68727273h.056719L38.4554974.64l.4537522 1.33818182h.113438l.5104712-1.68727273c.056719-.11636363.1134381-.17454545.2268761-.17454545zM41.1780105 1.92v-.05818182c-.1134381 0-.1134381-.05818182-.2835951-.40727273L40.2705061 0h-.056719l-.6239093 1.51272727c-.056719.29090909-.113438.29090909-.2268761.34909091V1.92h.5104712v-.05818182c-.113438 0-.170157-.05818182-.170157-.11636363l.056719-.23272728.056719-.11636363h.5671903l.170157.34909091c0 .05818181-.056719.11636363-.170157.11636363h-.0567191V1.92h.8507854zm-.7940663-.64h-.5671903l.2835951-.69818182L40.3839442 1.28zm2.552356 0h-.056719l-.2835952.46545455-.5671902.05818181h-.2268761L42.8228621.11636364V.05818182h-1.4179755L41.3481675.64h.1134381c.113438-.40727273.2268761-.46545455.6239092-.46545455l.2268761-.05818181-1.0209424 1.74545454V1.92h1.5881327l.056719-.64zM6.0122164 7.15636364h2.43891798V16H0v-2.5018182h6.0122164V7.15636364zm55.6980803-4.01454546H65v9.48363632h-9.8691099V16h-9.3019198v-2.5018182h6.9197208v-.8727273h-3.2897033V6.69090909h5.6719023v3.49090911h7.4301919V9.01818182h-3.2329843V3.14181818h2.382199zm.8507853 2.50181818h-.8507853v.87272728h.8507853v-.87272728zm-6.5226876-2.50181818h2.438918v2.50181818h-2.438918V3.14181818zm-3.2897033 6.92363632v-.87272723h-.8507853v.87272723h.8507853zm0-6.92363632h2.382199v2.50181818h-2.382199V3.14181818zm-4.7643979 2.50181818v3.37454546h-8.5078534v.81454545h5.1614311V16h-17.299302V9.83272727h2.438918v3.66545453h12.421466v-1.1636363h-5.1047121V6.51636364h8.4511344v-.87272728h-.8507853v.58181819h-2.382199V3.14181818h5.6719023v2.50181818zm-31.0820244.87272728l1.9851658-.05818182c.3970331-1.45454546 1.6448516-1.28 2.7792321-1.28h9.3586387c1.5881326.11636363 2.438918-.69818182 2.8359511-2.03636364h-2.3821989c-.5104712 1.10545455-1.9851658.93090909-2.9493892.93090909H19.965096c-1.8150087-.05818182-2.8359511.75636364-3.0628272 2.44363637zm2.3821989 2.79272727v.87272729h.8507854v-.87272729h-.8507854zm-2.438918.87272729V6.80727273h5.7286213V16h-9.3019197v-2.5018182h6.8630018v-.8727273h-3.2897034v-2.4436363zm6.9197208-4.71272729h2.382199V16h-2.382199V5.46909091zM9.64223386 3.14181818h2.43891794V16H9.64223386V3.14181818zm-3.63001746 0h2.43891798v2.50181818H6.0122164V3.14181818z"
      />
    </svg>
