<?xml version="1.0" standalone="no"?>
<!DOCTYPE svg PUBLIC "-//W3C//DTD SVG 1.1//EN" "http://www.w3.org/Graphics/SVG/1.1/DTD/svg11.dtd" >
<svg xmlns="http://www.w3.org/2000/svg">
<metadata></metadata>
<defs>
<font id="oregon_ldobold" horiz-adv-x="688" >
<font-face units-per-em="2048" ascent="1638" descent="-410" />
<missing-glyph horiz-adv-x="569" />
<glyph horiz-adv-x="2048" />
<glyph horiz-adv-x="2048" />
<glyph unicode="&#xd;" horiz-adv-x="569" />
<glyph unicode=" "  horiz-adv-x="569" />
<glyph unicode="&#x09;" horiz-adv-x="569" />
<glyph unicode="&#xa0;" horiz-adv-x="569" />
<glyph unicode="!" horiz-adv-x="356" d="M27 125q0 61 44 105t105 44t105.5 -44t44.5 -105q0 -59 -44 -103.5t-106 -44.5q-61 0 -105 44.5t-44 103.5zM43 1296q0 74 41 104t92 30t92 -30t41 -104q0 -14 -5 -80.5t-12 -165t-17.5 -218t-20.5 -240.5q-4 -57 -11 -132t-12 -128h-110q-2 27 -5 60.5t-6.5 68.5 t-6.5 68.5t-5 62.5q-6 90 -16 208t-18.5 224t-14.5 184t-6 88z" />
<glyph unicode="&#x22;" horiz-adv-x="591" d="M59 795v635h181v-635h-181zM348 795v635h178v-635h-178z" />
<glyph unicode="#" horiz-adv-x="905" d="M-8 274q12 25 22.5 56.5t18.5 64.5t13 63.5t5 53.5h148l67 326h-157q12 25 22 56.5t18.5 64t13.5 62.5t5 52h147q12 57 20.5 97t13.5 66t8 42t5 29q0 12 1.5 34.5t1.5 24.5q63 -18 79 -18q8 0 35 6t76 22q-12 -31 -22.5 -57.5t-20.5 -59t-20.5 -76.5t-24.5 -110h139 q12 57 20.5 97t13.5 66t8 42t5 29q0 12 1 34.5t1 24.5q63 -18 80 -18q8 0 35 6t76 22q-12 -31 -23.5 -57.5t-21.5 -59t-20.5 -76.5t-24.5 -110h153q-10 -23 -20 -54.5t-17.5 -64t-12.5 -64.5t-5 -52h-147q-8 -45 -16.5 -84t-16.5 -78t-17.5 -79t-17.5 -85h154 q-10 -25 -20.5 -56.5t-17.5 -64.5t-12.5 -63.5t-5.5 -53.5h-147q-4 -20 -8 -37.5t-7 -33.5q-20 -92 -28 -141.5t-12 -67.5q-4 0 -28 1t-28 1l-18 4l-21 -4h-14t-26.5 -1t-27.5 -1h-12q12 25 19.5 43t15.5 45t17.5 71t25.5 121h-139q-4 -20 -7 -37.5t-7 -33.5 q-20 -92 -28.5 -141.5t-12.5 -67.5q-4 0 -27.5 1t-28.5 1l-18 4l-20 -4h-14.5t-26 -1t-25.5 -1h-14q12 25 19 43t15.5 45t17.5 71t25 121h-155zM348 512h141l68 326h-141q-8 -45 -16.5 -84t-16.5 -78t-17.5 -79t-17.5 -85z" />
<glyph unicode="$" horiz-adv-x="905" d="M6 102q23 55 32 101.5t17 113.5h84q59 -109 124 -149.5t124 -46.5v479q-88 35 -151.5 71t-105.5 81t-62.5 101t-20.5 134q0 147 93 249.5t247 133.5q-2 35 -8 73t-27 105q82 -31 109 -30q23 0 104 28q-20 -72 -24 -105.5t-4 -60.5q59 -4 106 -16t84 -28.5t65.5 -36 t53.5 -35.5q-27 -49 -43.5 -96.5t-30.5 -110.5h-82q-8 23 -21.5 48t-32 49t-43 43.5t-56.5 27.5v-424q84 -33 149.5 -68t109.5 -78t67.5 -98t23.5 -131t-23.5 -145.5t-68.5 -128t-111 -101.5t-147 -63q0 -47 4 -104.5t18 -137.5q-37 12 -62.5 19.5t-35.5 7.5q-23 0 -105 -29 q16 80 22.5 132t8.5 93h-14q-96 0 -185.5 31t-181.5 102zM276 1040q0 -121 111 -180v352q-49 -23 -80 -67.5t-31 -104.5zM537 143q57 29 88.5 87.5t31.5 125.5q0 23 -3 45.5t-15 44t-36.5 44t-65.5 47.5v-394z" />
<glyph unicode="%" horiz-adv-x="1742" d="M53 1020q0 76 24.5 142.5t71 114.5t111 75.5t143.5 27.5q80 0 144.5 -27.5t111 -75.5t71 -114.5t24.5 -142.5q0 -78 -24.5 -143.5t-71 -113.5t-111 -76t-144.5 -28t-144 28t-110.5 76t-71 113.5t-24.5 143.5zM274 1020q0 -47 8.5 -90t24 -76t40 -52.5t56.5 -19.5 q33 0 57.5 19.5t41 52.5t23.5 76t7 90q0 45 -7 88t-23.5 76t-41 52t-57.5 19t-57 -19t-39.5 -52t-24 -76t-8.5 -88zM383 -109l782 1543q49 -18 66 -19q4 0 36.5 11.5t86.5 29.5l-783 -1542q-25 10 -41 15t-22 5t-39 -12t-86 -31zM989 330q0 76 24.5 142.5t70.5 114.5 t111 75.5t144 27.5q80 0 144.5 -27.5t110.5 -75.5t71 -114.5t25 -142.5q0 -78 -25 -143.5t-71 -113.5t-110.5 -76t-144.5 -28t-144.5 28t-110.5 76t-70.5 113.5t-24.5 143.5zM1210 330q0 -47 7.5 -90t23.5 -76t40 -52.5t58 -19.5q33 0 57.5 19.5t40 52.5t23.5 76t8 90 q0 45 -8 88t-23.5 75.5t-40 52t-57.5 19.5q-35 0 -58.5 -19.5t-39.5 -52t-23.5 -75.5t-7.5 -88z" />
<glyph unicode="&#x26;" horiz-adv-x="1312" d="M47 332q0 63 25.5 125.5t70.5 118t105.5 103.5t130.5 85q-49 74 -80 144.5t-31 142.5q0 70 25.5 129t70 104t106.5 70.5t136 25.5q129 0 213 -65.5t84 -190.5q0 -55 -22.5 -106t-58.5 -95t-80 -82t-87 -67q4 -4 8.5 -12t8.5 -12v2q37 -49 69.5 -90t63.5 -80t62.5 -78 t68.5 -80q63 90 118.5 186.5t114.5 227.5q29 -66 63 -102t66 -56q-63 -100 -126.5 -190.5t-139.5 -182.5q31 -35 69 -77t77 -85t73.5 -82.5t63.5 -72.5h-61.5t-35 1t-17.5 2t-7 1h4q-49 6 -92 6q-16 0 -39 -2t-45 -6q-4 0 -22.5 -1t-24.5 -1q-20 31 -48 70.5t-57 76.5 q-86 -78 -183 -125t-232 -47q-84 0 -158 23.5t-129 69.5t-88 115t-33 159zM283 367q0 -45 18 -87t51 -75t78 -52.5t98 -19.5q80 0 139.5 25.5t114.5 77.5q-88 106 -164.5 203.5t-158.5 211.5q-80 -53 -128 -119.5t-48 -164.5zM483 1104q0 -45 24.5 -106.5t65.5 -118.5 q74 53 113 120.5t39 126.5q0 53 -31.5 87t-85.5 34q-59 0 -92 -41t-33 -102z" />
<glyph unicode="'" horiz-adv-x="294" d="M51 795v635h180v-635h-180z" />
<glyph unicode="(" horiz-adv-x="440" d="M-4 584q0 221 88 448.5t260 413.5l96 -88q-78 -98 -125 -191.5t-74.5 -187.5t-36.5 -191.5t-9 -203.5q0 -109 9 -206t36.5 -190.5t74.5 -187.5t125 -193l-94 -88q-174 186 -262 409.5t-88 455.5z" />
<glyph unicode=")" horiz-adv-x="440" d="M-2 -193q76 98 124 192.5t75.5 188t37 190.5t9.5 206q0 106 -9.5 203.5t-37 191.5t-75.5 187.5t-124 191.5l94 90q174 -186 262 -410.5t88 -453.5q0 -221 -88 -448.5t-260 -414.5z" />
<glyph unicode="*" horiz-adv-x="749" d="M-27 1130q29 27 59.5 76t30.5 109l236 -170l-23 272q39 -12 60.5 -17t38.5 -5q14 0 36.5 5t63.5 19l-29 -274q55 41 118 88t108 78q6 -53 33.5 -100.5t72.5 -77.5l-262 -117q63 -29 134 -62.5t122 -56.5q-35 -27 -64.5 -73t-35.5 -99l-228 160q8 -66 15.5 -138.5 t11.5 -128.5q-29 6 -55.5 12.5t-40.5 6.5q-10 0 -38 -6t-61 -10l25 262q-55 -41 -116.5 -85t-106.5 -77q-6 55 -35 101t-68 75l256 119q-66 29 -134 59.5t-124 54.5z" />
<glyph unicode="+" horiz-adv-x="1048" d="M-4 440v178h438v439h180v-439h439v-178h-439v-440h-180v440h-438z" />
<glyph unicode="," horiz-adv-x="360" d="M-16 -311l161 508q10 33 39 66.5t84 33.5q35 0 72 -24.5t37 -79.5q0 -29 -10.5 -51.5t-20.5 -45.5q-2 -2 -2 -3t-2 -3q-59 -102 -128 -218t-128 -218z" />
<glyph unicode="-" d="M63 387v199h560v-199h-560z" />
<glyph unicode="." horiz-adv-x="360" d="M29 125q0 61 44 105t105 44t105.5 -44t44.5 -105q0 -59 -44 -103.5t-106 -44.5q-61 0 -105 44.5t-44 103.5z" />
<glyph unicode="/" horiz-adv-x="684" d="M-41 -68l578 1518q57 -20 73 -20q10 0 40 9t75 23l-578 -1515q-27 8 -45 13t-28 5t-40 -9t-75 -24z" />
<glyph unicode="0" horiz-adv-x="1093" d="M55 674q0 143 25.5 272t83 225.5t152 152.5t231.5 56q152 0 247 -56t149 -152.5t74.5 -225.5t20.5 -272q0 -139 -28.5 -267t-89 -225.5t-153.5 -155t-220 -57.5q-152 0 -247 56.5t-149.5 151.5t-75 223.5t-20.5 273.5zM291 674q0 -121 13 -224.5t43 -179t79 -118.5 t121 -43t121 43t78.5 118.5t43 179t13.5 224.5t-13.5 224t-43 179t-79 119t-120.5 43q-72 0 -121 -40t-79 -113.5t-43 -178t-13 -233.5z" />
<glyph unicode="1" horiz-adv-x="569" d="M-27 1128v64q123 49 248 107.5t234 111.5l55 -31q-8 -129 -13 -265t-5 -265v-324q0 -61 2 -131.5t4 -141.5t5 -140.5t7 -130.5q-45 8 -79 13t-54 5q-18 0 -53 -5t-80 -13q10 125 14 272t4 272v625q-51 -29 -108.5 -61.5t-100.5 -55.5q-16 31 -36.5 55.5t-43.5 38.5z" />
<glyph unicode="2" horiz-adv-x="983" d="M35 -12v86q135 133 234.5 235.5t169 183t113.5 144t68.5 121t34 112t9.5 117.5q0 125 -53.5 184.5t-125.5 59.5q-53 0 -90 -22.5t-62.5 -54.5t-39.5 -68.5t-21 -65.5l-65 -4l-94 133q72 121 169 176t230 55q84 0 158.5 -22.5t130 -68.5t87.5 -118.5t32 -173.5 q0 -72 -16.5 -132t-48.5 -117.5t-80 -115t-111 -122.5q-12 -14 -26.5 -29.5t-31.5 -31.5q-72 -72 -133 -128.5t-108 -123.5h104q70 0 139.5 2t133 4t117.5 5t95 7q-10 -39 -15 -68.5t-5 -46.5q0 -14 5 -43.5t15 -68.5q-104 4 -232 8t-233 4q-104 0 -227 -4t-227 -8z" />
<glyph unicode="3" horiz-adv-x="940" d="M23 55q6 12 12 33t11 43.5t9 45t4 40.5l60 31q18 -23 44.5 -46.5t58.5 -45t70 -34.5t79 -13q127 0 199.5 79.5t72.5 204.5q0 137 -65.5 193.5t-169.5 56.5q-23 0 -61 -7t-73 -15q4 31 8.5 56t4.5 34q0 4 -4 30.5t-9 57.5q41 -6 79 -11.5t55 -5.5q55 0 91 24.5t55 62.5 t26.5 84t7.5 87q0 104 -52.5 151.5t-115.5 47.5q-66 0 -117 -47t-74 -107l-65 -4l-66 154q25 25 57.5 50.5t73.5 47t90.5 34.5t108.5 13q84 0 159 -19.5t130 -59t88 -102t33 -146.5q0 -117 -56.5 -194t-128.5 -122q45 -12 89 -35.5t79 -62.5t56.5 -93t21.5 -128 q0 -96 -38 -178t-108.5 -142.5t-169 -94.5t-216.5 -34q-106 0 -191.5 28t-152.5 58z" />
<glyph unicode="4" horiz-adv-x="1040" d="M-6 344v88q86 119 182 254t185.5 264t165 239.5t122.5 184.5q55 -16 84 -16q14 0 42 6t63 16q-4 -84 -8.5 -187t-6.5 -214t-3 -224.5t-1 -215.5q49 4 103.5 10t101.5 14q-10 -39 -17.5 -67.5t-7.5 -44.5q0 -14 7.5 -43t17.5 -68q-59 8 -111.5 13t-93.5 7v-43 q0 -66 3 -135t7 -123v-15t1 -24.5t1 -24.5v-13q-43 8 -75.5 13t-48.5 5q-18 0 -51 -5t-76 -13q2 27 5 68.5t6 89.5t5 94.5t2 82.5v43q-51 0 -137 -2t-176 -5t-171 -5t-120 -4zM256 539h342l-2 491q-43 -59 -91 -125.5t-94 -133t-87 -127t-68 -105.5z" />
<glyph unicode="5" horiz-adv-x="944" d="M37 63v43q10 25 19.5 67t13.5 79h71q37 -72 110 -107.5t142 -35.5q49 0 96.5 19t83 59t57 99.5t21.5 141.5q0 72 -19.5 123t-52 83t-74.5 46t-87 14q-35 0 -68 -9t-58.5 -20.5t-45 -23.5t-27.5 -18l-63 41q16 90 19 177t3 169q0 76 -4 166t-14 172l51 32q41 -6 119 -12 q41 -4 100 -5t133 -1q92 0 172 1t115 3l37 -35q-16 -70 -17 -121q0 -8 1 -19t12 -63q-57 10 -130 17.5t-149 11.5t-144.5 6t-117.5 2l-20 -338q33 12 70.5 18.5t103.5 6.5q94 0 169.5 -33t129 -88t83 -128t29.5 -154q0 -98 -38 -186.5t-107.5 -153t-164.5 -102.5t-212 -38 q-92 0 -181 20.5t-167 73.5z" />
<glyph unicode="6" horiz-adv-x="1005" d="M47 565q0 170 40 319.5t118 260t192.5 174t264.5 61.5q35 0 57 -3t49 -7l49 -104l-43 -43q-55 16 -112 16q-84 0 -148.5 -46t-109 -117.5t-72 -160t-37.5 -170.5q45 45 109.5 74t156.5 29q55 0 128 -17.5t137.5 -61.5t109.5 -122t45 -201q0 -106 -33 -194t-94 -150.5 t-148.5 -97.5t-193.5 -35q-90 0 -174 32t-148.5 102.5t-103.5 184t-39 277.5zM295 406q0 -131 61.5 -214t157.5 -83q104 0 161.5 83t57.5 214q0 129 -51 210.5t-156 81.5q-49 0 -91 -21.5t-73.5 -60t-49 -93t-17.5 -117.5z" />
<glyph unicode="7" horiz-adv-x="950" d="M-2 -31q92 145 194.5 313.5t198.5 328t178 298t133 228.5q-104 0 -274 -4.5t-381 -16.5q4 35 9 71t5 56q0 14 -5 51t-11 78q39 -4 82 -7t84 -6t78 -5t63 -2q33 0 81 -1t99.5 -2t100.5 -1h86q31 0 57.5 1t50.5 1h131v-78q-86 -147 -178 -308t-184 -327t-181 -332 t-169 -321q-59 16 -94 16q-16 0 -57.5 -8t-96.5 -23z" />
<glyph unicode="8" horiz-adv-x="1034" d="M45 385q0 117 54.5 215t181.5 158q-66 37 -117 106.5t-51 167.5q0 70 28.5 132.5t81.5 110.5t127 76.5t166 28.5q106 0 183 -27.5t127.5 -72.5t75 -103.5t24.5 -119.5q0 -84 -43 -161t-123 -126q39 -16 79 -43t72.5 -68t54 -98t21.5 -131q0 -104 -37 -189t-101.5 -145.5 t-149.5 -93.5t-183 -33q-100 0 -186 28t-149.5 81t-99.5 131t-36 176zM293 395q0 -125 59.5 -205.5t163.5 -80.5t163.5 80.5t59.5 205.5t-59 206t-164 81q-104 0 -163.5 -81t-59.5 -206zM350 1030q0 -43 9.5 -81t30 -66.5t52 -45t76.5 -16.5t78 16.5t53.5 45t29.5 66.5t9 81 t-9 81t-29.5 66.5t-53.5 45t-78 16.5t-76.5 -16.5t-52 -45t-30 -66.5t-9.5 -81z" />
<glyph unicode="9" horiz-adv-x="1019" d="M33 926q0 96 32.5 179t94 144.5t148.5 96t194 34.5q94 0 180 -31.5t150.5 -103t103.5 -185.5t39 -278q0 -170 -41 -317.5t-120 -258t-192.5 -174t-256.5 -63.5q-55 0 -106.5 12.5t-80.5 24.5q-8 29 -22.5 73t-34.5 79l59 43q47 -41 97.5 -66.5t97.5 -25.5q82 0 142.5 42 t103.5 110.5t66.5 157.5t31.5 185q-49 -47 -116.5 -74.5t-153.5 -27.5q-193 0 -304.5 110.5t-111.5 313.5zM281 926q0 -145 53 -210t147 -65q57 0 101.5 28t75 73t46 103.5t15.5 121.5q0 117 -60.5 189.5t-158.5 72.5q-96 0 -157.5 -84t-61.5 -229z" />
<glyph unicode=":" horiz-adv-x="378" d="M37 125q0 61 44 105t105 44t105.5 -44t44.5 -105q0 -59 -44 -103.5t-106 -44.5q-61 0 -105 44.5t-44 103.5zM37 836q0 59 44 104t105 45t105.5 -45t44.5 -104q0 -61 -44 -105.5t-106 -44.5q-61 0 -105 44.5t-44 105.5z" />
<glyph unicode=";" horiz-adv-x="393" d="M-6 -311l160 508q10 33 38.5 66.5t83.5 33.5q18 0 38 -6t36.5 -18.5t26.5 -33t10 -46.5q0 -29 -10 -51.5t-21 -45.5q-2 -2 -2 -3t-2 -3q-59 -102 -128.5 -218t-129.5 -218zM104 836q0 59 44.5 104t103.5 45q61 0 105 -45t44 -104q0 -61 -44 -105.5t-105 -44.5 q-59 0 -103.5 44.5t-44.5 105.5z" />
<glyph unicode="&#x3c;" horiz-adv-x="1124" d="M-6 455v149l1057 494v-185l-836 -385q207 -94 419 -192t417 -191v-188z" />
<glyph unicode="=" horiz-adv-x="1144" d="M78 252v178h1057v-178h-1057zM78 627v180h1057v-180h-1057z" />
<glyph unicode="&#x3e;" horiz-adv-x="1122" d="M72 -41v186l835 383q-207 96 -419 193.5t-416 191.5v187l1056 -498v-149z" />
<glyph unicode="?" horiz-adv-x="585" d="M14 1346q49 31 107.5 57.5t132.5 26.5q80 0 140.5 -24t101.5 -63.5t62.5 -94t21.5 -113.5q0 -61 -17.5 -112.5t-47.5 -96.5t-65.5 -84t-72.5 -76q-55 -55 -98 -108.5t-43 -112.5q0 -25 15 -50.5t46 -25.5q16 0 35.5 8t29.5 15l72 -39q-16 -18 -29.5 -48t-17.5 -49 q-49 -18 -104 -18q-29 0 -71 13.5t-81 43t-66.5 77.5t-27.5 120q0 55 16.5 102t44 89t61.5 78t68 71q55 55 99.5 109.5t44.5 119.5q0 57 -40 88t-87 31q-43 0 -97.5 -41t-107.5 -106zM102 125q0 61 45.5 105t104.5 44q61 0 105 -44t44 -105q0 -59 -44 -103.5t-105 -44.5 q-59 0 -104.5 44.5t-45.5 103.5z" />
<glyph unicode="@" horiz-adv-x="1402" d="M57 694q0 123 49.5 239t141.5 207t222 146t292 55q170 0 282.5 -43t180 -113.5t95.5 -160.5t28 -182q0 -115 -39 -208t-98.5 -158.5t-132 -102.5t-142.5 -37q-68 0 -103.5 24.5t-50.5 59.5q-37 -35 -84 -59.5t-104 -24.5q-121 0 -184.5 74.5t-63.5 222.5q0 104 31 192 t83 150.5t121.5 97.5t149.5 35q86 0 137 -45l6 27h183q-41 -197 -64.5 -310.5t-35 -173t-14.5 -80t-3 -30.5q0 -29 27 -29q33 0 69.5 25.5t68.5 70.5t53.5 106.5t21.5 133.5q0 86 -20.5 159.5t-70 126t-130 82t-203.5 29.5q-109 0 -201 -44t-158.5 -121t-104.5 -181 t-38 -225q0 -106 34 -186.5t93 -133.5t141 -79.5t178 -26.5q66 0 133.5 18.5t130 48t120 65.5t104.5 73l-17 -164q-29 -25 -76.5 -58.5t-113.5 -62.5t-148.5 -49.5t-179.5 -20.5q-100 0 -205.5 39t-192.5 118t-142.5 199.5t-55.5 284.5zM543 627q0 -72 16 -108t64 -36 q47 0 82.5 42t59 101.5t35 124t11.5 111.5t-15.5 77t-64.5 30q-45 0 -80 -34t-59.5 -84t-36.5 -110.5t-12 -113.5z" />
<glyph unicode="A" horiz-adv-x="1355" d="M-2 -25q78 170 161 354.5t166 372t164.5 371.5t155.5 357h86q35 -80 77 -180.5t81 -194.5q61 -150 132 -315t136.5 -314.5t118.5 -269t82 -176.5q-59 10 -102.5 15t-67.5 5q-23 0 -55.5 -4t-75.5 -12q-25 92 -69 205.5t-91 226.5q-12 31 -19.5 49t-17.5 47 q-57 2 -113.5 2h-115.5h-104.5t-104.5 -2q-61 -154 -112.5 -292t-76.5 -236q-61 16 -98 16q-16 0 -53 -7t-84 -18zM487 674h50q27 -2 52 -2h52h45.5h34.5t34.5 1t45.5 1l-158 360q-20 -47 -38.5 -90l-37 -86t-38 -88t-42.5 -96z" />
<glyph unicode="B" horiz-adv-x="1064" d="M70 -14q6 129 12 275.5t6 270.5v334q0 125 -6 271.5t-12 271.5q72 -6 135 -10t110 -4q25 0 49.5 1t53.5 3q27 2 52.5 4t51.5 2q90 0 171 -14.5t142.5 -50t97.5 -97t36 -156.5q0 -119 -54.5 -199.5t-150.5 -127.5q121 -33 186.5 -114t65.5 -228q0 -119 -48 -201t-125 -132 t-171 -72.5t-185 -22.5q-25 0 -50 1t-48 3t-45 4t-45 2q-47 0 -105.5 -4t-123.5 -10zM324 502q0 -66 2 -130.5t6 -129.5v-45t2 -52q33 -4 74 -5t79 -1q55 0 104.5 18.5t86.5 55.5t59.5 90t22.5 123q0 72 -27.5 118t-79 71.5t-122 36t-158.5 10.5h-49v-160zM324 809h65 q61 0 120.5 11t107 39t76 75t28.5 117q0 66 -24.5 106.5t-64.5 62t-89 28.5t-99 7h-61.5t-48.5 -4v-45t-2 -45q-4 -61 -6 -122.5t-2 -123.5v-106z" />
<glyph unicode="C" horiz-adv-x="1341" d="M51 698q0 174 56.5 310.5t158 229.5t241.5 142.5t310 49.5q129 0 253 -32t222 -79q-23 -43 -36 -88t-19 -76q0 -8 -1 -24.5t-1 -18.5l-68 -4q-20 23 -54 52.5t-79 56t-100 45t-117 18.5q-106 0 -197.5 -35t-158 -105.5t-104.5 -181t-38 -260.5q0 -152 38 -261t104.5 -181 t158 -106.5t197.5 -34.5q63 0 122.5 18.5t111 45t92.5 56t71 52.5l46 -45l-23 -150q-20 -16 -63.5 -37.5t-101.5 -42t-129 -34t-146 -13.5q-162 0 -298.5 49t-235.5 143.5t-155.5 230.5t-56.5 310z" />
<glyph unicode="D" horiz-adv-x="1445" d="M82 -12q6 127 12 272.5t6 269.5v334q0 125 -6 270.5t-12 272.5q37 -2 80 -4t87 -4t87 -3t80 -1t71.5 1t71.5 3t75 4t75 2q180 0 308 -47t210 -135t120.5 -214t38.5 -284q0 -205 -70.5 -345t-180 -227t-240.5 -125t-252 -38q-35 0 -67.5 1t-65.5 3t-63.5 4t-63.5 2 q-66 0 -151 -4t-150 -8zM336 530q0 -104 2 -190t8 -186q41 -6 99.5 -10.5t117.5 -4.5q98 0 197.5 23.5t179.5 88t129 179.5t49 295q0 156 -39 257t-106.5 159.5t-160.5 81t-204 22.5q-72 0 -139.5 -5t-122.5 -9q-4 -86 -7 -179.5t-3 -187.5v-334z" />
<glyph unicode="E" horiz-adv-x="851" d="M66 -12q6 129 12 274.5t6 269.5v334q0 125 -6 270.5t-12 270.5q88 -4 194.5 -8t192.5 -4q43 0 94 1t103 3t102.5 4t93.5 4q-6 -41 -10.5 -64.5t-4.5 -33.5t4.5 -35t10.5 -66q-14 0 -34.5 2t-43.5 3t-42 3.5t-32 2.5q-41 4 -80 7t-82 5t-93 4t-111 2q0 -20 -1 -29.5 t-3 -27.5q-2 -33 -3.5 -72t-1.5 -80q0 -45 1.5 -88t1.5 -82v-47q154 2 268.5 8t212.5 17q-8 -41 -12.5 -67t-4.5 -36q0 -14 4.5 -38.5t12.5 -65.5q-59 6 -127 10t-134.5 7t-125 5t-97.5 2v-241v-164t3 -88q61 0 129.5 1t138 4t138.5 11t132 21q-10 -43 -15 -73t-5 -38 q0 -16 18 -98q-43 2 -94 4t-104.5 4t-104.5 3t-96 1q-90 0 -196.5 -4t-196.5 -8z" />
<glyph unicode="F" horiz-adv-x="845" d="M66 -18q2 63 6 132.5t6 141.5t4 142.5t2 131.5v334q0 125 -6 270.5t-12 272.5q88 -4 194.5 -8t192.5 -4q88 0 201.5 4t217.5 8q-8 -41 -12 -64.5t-4 -33.5q0 -14 4 -39t12 -66q-59 6 -133.5 11.5t-150.5 10.5t-145.5 8t-120.5 3q-2 -59 -3.5 -110.5t-1.5 -104.5 q0 -35 1 -66.5t1 -62.5v-78q113 2 239 7t271 20q-8 -35 -13 -63.5t-5 -41.5q0 -10 5 -39.5t13 -62.5q-129 16 -259 19t-251 3v-127q0 -61 2.5 -131.5t4.5 -142.5t5 -141.5t7 -132.5q-47 8 -81 13t-56 5q-20 0 -54 -5t-81 -13z" />
<glyph unicode="G" horiz-adv-x="1460" d="M57 698q0 174 56.5 310.5t161 229.5t251 142.5t326.5 49.5q100 0 183 -13.5t149.5 -33t120 -44t94.5 -45.5q-20 -37 -38 -96t-24 -106h-75q-31 35 -73 68.5t-94.5 60t-113.5 43t-129 16.5q-113 0 -209 -35t-166.5 -105.5t-111.5 -181t-41 -260.5q0 -270 141 -421.5 t397 -151.5q74 0 149.5 10t125.5 35q2 51 2 104.5v106.5q0 55 -2 108.5t-7 106.5v20.5t-1 30t-1 29.5v20q35 -10 72 -15t60 -5q18 0 46.5 4t79.5 20q-2 -23 -4 -65.5t-4 -101t-3 -130t-1 -149.5v-78q0 -20 1 -53t1 -53q-47 -16 -114.5 -35t-141 -34t-146.5 -25.5t-130 -10.5 q-182 0 -327.5 47t-248 139.5t-157 229.5t-54.5 317z" />
<glyph unicode="H" horiz-adv-x="1398" d="M78 -18q2 63 6 132.5t6 141.5t4 142.5t2 131.5v334q0 61 -2 132t-4 142.5t-6 141.5t-6 133q47 -8 81 -13t56 -5q20 0 54 5t81 13q-4 -63 -7 -133t-5 -141.5t-4 -142t-2 -132.5v-28q23 0 48.5 -1t49.5 -1q66 -2 133.5 -3.5t134.5 -1.5q68 0 135.5 1t133.5 4q35 0 49 1 t49 1v28q0 61 -2 132t-4 142.5t-6 141.5t-6 133q47 -8 80.5 -13t54.5 -5q23 0 56.5 5t80.5 13q-4 -63 -7 -133t-5 -141.5t-4.5 -142t-2.5 -132.5v-334q0 -61 2.5 -131.5t4.5 -142.5t5 -141.5t7 -132.5q-47 8 -81 13t-56 5q-20 0 -54 -5t-81 -13q2 63 6 132.5t6 141.5 t4 142.5t2 131.5v138q-92 2 -183 2h-184h-95h-88t-88 -1t-95 -1v-138q0 -61 2 -131.5t4 -142.5t5 -141.5t7 -132.5q-47 8 -80.5 13t-54.5 5q-23 0 -56.5 -5t-80.5 -13z" />
<glyph unicode="I" horiz-adv-x="370" d="M47 -18q6 127 11 275.5t5 272.5v334q0 125 -5 273.5t-11 275.5q45 -8 80 -13t55 -5t55 5t80 13q-6 -127 -11 -275.5t-5 -273.5v-334q0 -125 5 -273t11 -275q-45 8 -79.5 13t-55.5 5q-20 0 -55 -5t-80 -13z" />
<glyph unicode="J" horiz-adv-x="585" d="M27 -403q88 0 140 34.5t77.5 98t33 151.5t7.5 195l10 788q0 61 -2 132t-4 142.5t-6 141.5t-7 133q47 -8 81 -13t55 -5q23 0 56.5 5t80.5 13q-4 -63 -7 -133t-5 -141.5t-4.5 -142t-2.5 -132.5v-106.5v-128t-1 -141t-1 -146.5v-109.5t-1 -124t-1 -113.5v-77 q0 -94 -33.5 -177t-94 -144.5t-146.5 -96.5t-191 -35z" />
<glyph unicode="K" horiz-adv-x="1189" d="M76 1413q45 -8 79.5 -13t55.5 -5q20 0 55 5t80 13q-2 -63 -5 -133t-5 -141.5t-4 -142t-2 -132.5v-55q66 59 137.5 131t144 150.5t146 159.5t141.5 159q27 -6 50.5 -10t41.5 -4q16 0 76.5 10t149.5 27q-82 -72 -181.5 -163t-196 -183.5t-182.5 -177.5t-141 -146 q72 -84 148.5 -170t150.5 -174q39 -45 90 -102.5t104.5 -118t104.5 -119t92 -103.5q-78 10 -133 17.5t-84 7.5q-23 0 -55.5 -4t-67.5 -10q-66 80 -142.5 174t-151 185t-139 168t-103.5 120v-103q0 -61 2 -131.5t4 -142.5t5 -141.5t5 -132.5q-45 8 -80 13t-55 5t-42 -3 t-46 -7l-45 41q6 125 10 250t4 249v334q0 125 -5 273.5t-11 275.5z" />
<glyph unicode="L" horiz-adv-x="841" d="M66 -12q6 127 12 272.5t6 269.5v334q0 61 -2 132t-4 142.5t-6 141.5t-6 133q47 -8 80.5 -13t56.5 -5q20 0 54 5t81 13q-4 -63 -7 -133t-5 -141.5t-4.5 -142t-2.5 -132.5q0 -190 1.5 -337.5t3.5 -270.5q0 -37 1 -51.5t1 -44.5q63 0 122.5 1t124 4t138 9t166.5 19 q-12 -37 -19.5 -66t-7.5 -39q0 -12 7 -38.5t17 -61.5q-90 4 -204.5 8t-204.5 4t-198.5 -4t-200.5 -8z" />
<glyph unicode="M" horiz-adv-x="1767" d="M66 -20q25 160 53 349t56 382.5t51.5 379t39.5 339.5h94q66 -137 129.5 -263.5t128 -249t132 -248.5t141.5 -261q35 66 88 165t117 215q43 76 88 161t91 169t88 164t79 148h84q16 -131 31.5 -271.5t27.5 -263.5q25 -223 52.5 -460.5t58.5 -452.5q-45 8 -81 13t-56 5 t-52 -5t-73 -13q-10 131 -19.5 245.5t-19 224t-21.5 221t-28 236.5q-2 -2 -1 -2t-2 -2h3q-121 -223 -238 -443t-221 -462h-68q-76 160 -163 334t-173 340q-23 43 -35 67.5t-22 46t-23.5 46t-35.5 67.5q-12 -115 -26.5 -239.5t-26 -246.5t-18.5 -233.5t-7 -199.5 q-35 8 -62.5 13t-44.5 5q-20 0 -50 -5t-66 -15z" />
<glyph unicode="N" horiz-adv-x="1386" d="M63 -20q4 29 10.5 88t12.5 137t11 168t9.5 180t6.5 173t2 146v178.5t-1 160t-3 130t-5 89.5h91q20 -23 45.5 -51.5t48.5 -51.5q115 -125 228.5 -249t220 -239.5t203.5 -218t177 -184.5q0 123 -1 253t-3 257t-5 247t-9 222q35 -10 63.5 -15t44.5 -5q12 0 39 6t68 16 q-6 -51 -12.5 -145t-11.5 -198.5t-9 -203t-4 -153.5v-118v-144.5t1 -153.5t1 -145.5t1 -117.5t1 -73h-82q-205 240 -441.5 495t-467.5 501l-14 18q-2 -53 -3.5 -125t-1.5 -172q0 -61 2.5 -162.5t5.5 -208t7 -199t10 -135.5q-41 10 -69.5 16.5t-45.5 6.5q-16 0 -48 -5 t-73 -15z" />
<glyph unicode="O" horiz-adv-x="1660" d="M66 698q0 174 56 310.5t157.5 229.5t242 142.5t307.5 49.5q168 0 309.5 -49.5t243 -142.5t157.5 -229.5t56 -310.5t-56 -310t-157.5 -230.5t-243 -143.5t-309.5 -49t-308 49t-241.5 143.5t-157.5 230.5t-56 310zM334 698q0 -152 38 -261t104.5 -181t157.5 -106.5 t195 -34.5q106 0 197.5 34.5t158 106.5t104.5 181t38 261q0 150 -38 260.5t-104.5 181t-157.5 105.5t-198 35q-104 0 -195 -35t-157.5 -105.5t-104.5 -181t-38 -260.5z" />
<glyph unicode="P" horiz-adv-x="1001" d="M70 -18q6 127 11 275.5t5 272.5v334q0 125 -5 271.5t-11 273.5q66 -6 124 -10t105 -4q25 0 57.5 2t67.5 4q31 2 63.5 3t51.5 1q47 0 124.5 -6t153.5 -41t130 -109.5t54 -210.5q0 -141 -59 -228t-145 -135t-183.5 -65.5t-171.5 -17.5h-37h-26t-24.5 1t-30.5 1v-64 q0 -61 2 -131.5t4 -142.5t5 -141.5t5 -132.5q-45 8 -80 13t-55 5t-55 -5t-80 -13zM324 750q23 -4 49 -6.5t49 -2.5q53 0 110.5 12.5t104.5 44t77.5 87t30.5 141.5q0 70 -20 115t-57 70.5t-90.5 34.5t-118.5 9h-135v-505z" />
<glyph unicode="Q" horiz-adv-x="1699" d="M33 698q0 174 56 310.5t157.5 229.5t242 142.5t308.5 49.5q170 0 310 -49.5t241.5 -142.5t158 -229.5t56.5 -310.5q0 -268 -125 -441t-340 -245q61 -49 145 -113.5t171 -130t167 -124t133 -95.5q-98 -6 -166.5 -40.5t-89.5 -65.5q-53 49 -133 117.5t-168 142.5 t-172 143.5t-143 118.5h-45q-168 0 -308.5 49t-242 143.5t-157.5 230.5t-56 310zM301 698q0 -152 38 -261t104.5 -181t157.5 -106.5t196 -34.5q106 0 197 34.5t158 106.5t104.5 181t37.5 261q0 150 -37.5 260.5t-104.5 181t-158 105.5t-197 35q-104 0 -195.5 -35 t-158 -105.5t-104.5 -181t-38 -260.5z" />
<glyph unicode="R" horiz-adv-x="1169" d="M76 -18q2 63 5 132.5t5 141.5t4 142.5t2 131.5v334q0 125 -6 271.5t-10 273.5q55 -4 130 -9t130 -5q29 0 54.5 1t53.5 3q29 2 56.5 4t56.5 2q90 0 170 -17.5t140.5 -58.5t96 -106.5t35.5 -163.5q0 -86 -34.5 -152.5t-89 -116t-119 -80t-121.5 -46.5q16 -23 35.5 -47.5 t42.5 -53.5q51 -66 120.5 -151.5t139 -171.5t129 -158t90.5 -107q-78 10 -133 17.5t-82 7.5t-59.5 -4t-71.5 -10q-31 45 -90.5 129t-130 179t-144 186t-133.5 153h-20v-103q0 -61 2 -131.5t4 -142.5t5 -141.5t7 -132.5q-45 8 -80 13t-55 5t-55 -5t-80 -13zM328 786 q20 -2 44.5 -3t47.5 -1q53 0 111.5 12.5t107.5 42t81 80t32 123.5q0 63 -25 105.5t-63.5 67t-85 33.5t-89.5 9q-53 0 -87.5 -1t-63.5 -5q-4 -92 -7 -192.5t-3 -192.5v-78z" />
<glyph unicode="S" horiz-adv-x="960" d="M37 102q12 31 19 56.5t12.5 51.5t9.5 53.5t8 62.5h82q14 -35 39.5 -71t60.5 -64.5t81 -47t102 -18.5q113 0 175 70.5t62 171.5q0 51 -20.5 89t-56.5 65.5t-82 48t-95 40.5q-66 27 -129 56.5t-113.5 75.5t-82 114t-31.5 168q0 90 31.5 165t92 128t145.5 83t190 30 q98 0 178 -30t157 -91q-23 -43 -37 -91.5t-30 -119.5h-84q-10 27 -25.5 58.5t-40 59t-58.5 46t-79 18.5q-92 0 -151.5 -55.5t-59.5 -145.5q0 -55 22.5 -94t58.5 -66.5t83 -49t96 -40.5q63 -25 127 -54.5t113 -72.5t80 -105t31 -157q0 -96 -35 -183t-101.5 -151.5 t-162 -102.5t-216.5 -38q-127 0 -215 43t-151 94z" />
<glyph unicode="T" horiz-adv-x="1097" d="M-6 1198q26 73 26 107q0 29 -22 102q63 -2 134 -4t142.5 -4t142 -3t132.5 -1q61 0 132 1t142.5 3t142 4t134.5 4q-23 -74 -23 -102q0 -31 27 -107q-109 10 -224.5 18.5t-207.5 10.5q-4 -92 -4 -181.5v-181.5v-334q0 -125 5 -273t11 -275q-45 8 -80 13t-55 5t-55 -5 t-80 -13q6 127 11 275.5t5 272.5v334v181t-4 182q-98 0 -211 -7.5t-221 -21.5z" />
<glyph unicode="U" horiz-adv-x="1359" d="M74 1392.5v20.5q41 -8 78.5 -13t60.5 -5t57.5 5t71.5 15q-6 -53 -11 -132t-10.5 -173t-7.5 -198.5t-2 -211.5q0 -92 6.5 -192t43 -183t116.5 -137.5t228 -54.5q145 0 224 62.5t114.5 153.5t42 195.5t6.5 190.5v243.5t-2.5 187.5t-6.5 141.5t-12 107.5q41 -10 74 -15 t53 -5q10 0 38 8t64 18q-6 -68 -12 -171t-12 -221t-10 -239.5t-6 -228.5q-2 -137 -42 -246.5t-115 -187.5t-184.5 -120t-250.5 -42q-307 0 -449.5 145.5t-142.5 446.5q0 49 2 91t4 83q2 35 3 66.5t1 66.5q0 137 -3 250t-7 197v22.5t-1 29.5t-1 29.5z" />
<glyph unicode="V" horiz-adv-x="1359" d="M6 1415q55 -10 97 -15t65 -5t54.5 4t72.5 12q86 -260 189.5 -530.5t226.5 -565.5q53 123 113.5 274.5t117.5 303t105.5 290t78.5 230.5q31 -8 56.5 -13t40.5 -5q16 0 53 8t86 18q-76 -166 -155 -349t-156.5 -369.5t-151.5 -369.5t-137 -351q-29 8 -51.5 13t-38.5 5 q-12 0 -26.5 -2t-24.5 -6l-50 24q-29 80 -68.5 183.5t-86.5 222.5t-99.5 247t-105.5 257t-105.5 254t-99.5 235z" />
<glyph unicode="W" horiz-adv-x="2105" d="M51 1415q55 -10 95 -15t63 -5q41 0 123 16q37 -147 67.5 -264t65.5 -233.5t78 -252t102 -319.5q6 23 17.5 54.5t17.5 54.5q27 78 56.5 168t60 182t60.5 182t55.5 171t45 147.5t29.5 111.5q29 -8 52.5 -13t37.5 -5q16 0 40 5t52 13q14 -53 41 -139t58.5 -188.5t67.5 -213 t70 -212t62.5 -186.5t47.5 -134q23 70 52 165t61 200.5t63.5 213t59.5 204t48.5 172t30.5 118.5q33 -8 57.5 -13t42.5 -5q14 0 48 8t83 18q-18 -45 -58 -155.5t-90 -253t-105.5 -302t-104.5 -304t-88 -259t-55 -165.5q-29 8 -52.5 13t-40.5 5q-14 0 -37.5 -5t-52.5 -13 q-43 135 -82 261t-78.5 249.5t-82.5 252.5t-93 275q-31 -90 -74.5 -219t-93 -271.5t-97.5 -286t-87 -261.5q-33 8 -55.5 13t-36.5 5q-16 0 -29.5 -2t-29.5 -6l-45 26q-16 53 -50 163t-76 248t-90.5 289.5t-92.5 290t-79.5 247t-54.5 159.5z" />
<glyph unicode="X" horiz-adv-x="1228" d="M4 -33q57 82 120.5 175.5t128 188.5t126 189t117.5 178q-49 82 -105.5 174.5t-115 186.5t-116 185t-108.5 173q61 -10 109.5 -16t72.5 -6q27 0 58.5 4t68.5 10q66 -131 133.5 -252t145.5 -250q78 115 149.5 234t153.5 270q59 -16 92 -16q16 0 60.5 9t103.5 23 q-12 -18 -34.5 -48.5t-47 -63.5t-46 -63.5t-34.5 -49.5q-84 -117 -157.5 -220t-149.5 -222q53 -90 114.5 -191.5t125 -204t126 -202t117.5 -185.5q-66 10 -114.5 16.5t-73.5 6.5q-27 0 -58.5 -4t-70.5 -10l-59 112q-59 115 -118 224.5t-130 224.5q-88 -135 -170 -275.5 t-160 -287.5q-59 16 -94 16q-16 0 -58.5 -9t-101.5 -24z" />
<glyph unicode="Y" horiz-adv-x="1218" d="M-23 1419q68 -10 118 -17t71 -7q25 0 58.5 4t70.5 10q43 -84 83 -162t82 -154.5t87 -156.5t94 -166q41 68 85 146.5t89 161.5t88 168t82 165q61 -16 98 -16q20 0 62.5 8t97.5 20q-104 -160 -187 -287.5t-145.5 -229t-107.5 -179.5t-74 -135q0 -72 1 -155t3 -166t6 -158.5 t9 -130.5q-45 8 -80 13t-58 5q-16 0 -52 -5t-87 -13q16 139 18.5 286.5t2.5 300.5q-20 37 -62.5 106.5t-92.5 153.5t-105.5 176.5t-105.5 174.5t-90 145.5t-59 93.5z" />
<glyph unicode="Z" horiz-adv-x="1247" d="M33 -12v88q76 104 159.5 220t164.5 232.5t158 227t141.5 205t112.5 166t73 110.5h-66q-70 0 -160 -3t-183 -8t-181 -11.5t-154 -14.5q10 37 17.5 65.5t7.5 41.5q0 12 -6 39.5t-17 62.5q47 -4 131 -7t196 -4t248 -2t286 -1q41 0 80.5 2t80.5 6q12 0 43 1t41 1v-90 q-37 -39 -99.5 -122t-139 -189.5t-160.5 -226.5t-164 -234.5t-146.5 -215t-109.5 -165.5q27 -2 48.5 -2h45.5q74 0 174.5 3t205 9t199.5 13.5t157 15.5q-10 -37 -15.5 -66t-5.5 -45q0 -14 5 -40.5t16 -61.5q-139 4 -266.5 8t-237.5 4q-76 0 -178.5 -1t-202 -3t-181 -4 t-118.5 -4z" />
<glyph unicode="[" horiz-adv-x="423" d="M53 -240q2 66 4 139.5t4 148.5t3.5 149.5t1.5 142.5v487q0 68 -1.5 141.5t-3.5 149.5t-4 149.5t-4 139.5q88 -12 140 -12q45 0 105 2t101 4l58 -4q-4 -20 -8.5 -38t-4.5 -24q0 -2 4.5 -23.5t8.5 -45.5q-41 2 -91.5 4t-95.5 2q-6 -111 -10 -221.5t-4 -223.5v-487 q0 -121 3 -223.5t11 -220.5q47 0 100.5 2t86.5 4q-4 -25 -8.5 -44.5t-4.5 -23.5t3.5 -24.5t7.5 -42.5h-56q-41 0 -101 2t-105 2q-27 0 -63 -3.5t-77 -7.5z" />
<glyph unicode="\" horiz-adv-x="686" d="M-41 1462q45 -14 74.5 -23t40.5 -9q16 0 73 20l578 -1518q-45 14 -74.5 23.5t-40.5 9.5q-10 0 -28.5 -5t-44.5 -13z" />
<glyph unicode="]" horiz-adv-x="428" d="M-33 -98q41 -2 91.5 -4t95.5 -2q6 111 10 221t4 223v487q0 121 -3 222.5t-11 222.5q-47 0 -100.5 -2t-86.5 -4q4 23 8.5 43t4.5 24t-3.5 24.5t-7.5 43.5h54q41 -2 102 -4t106 -2q55 0 140 12q-2 -66 -4 -139.5t-4.5 -149.5t-3.5 -149.5t-1 -141.5v-487q0 -68 1 -142.5 t3.5 -149.5t4.5 -148.5t4 -139.5q-41 4 -77 7.5t-63 3.5q-45 0 -106.5 -2t-101.5 -2l-56 2q4 23 8.5 40t4.5 23q0 2 -4.5 22.5t-8.5 47.5z" />
<glyph unicode="^" horiz-adv-x="1136" d="M-2 393l498 955h147l494 -955h-189l-381 737q-92 -180 -191.5 -370.5t-189.5 -366.5h-188z" />
<glyph unicode="_" horiz-adv-x="1202" d="M78 -78h1044v-174h-1044v174z" />
<glyph unicode="`" horiz-adv-x="581" d="M33 1395q0 49 35.5 74.5t66.5 25.5q29 0 59.5 -16.5t55.5 -40.5l350 -355h-186l-295 189q-29 18 -57.5 44.5t-28.5 78.5z" />
<glyph unicode="a" horiz-adv-x="974" d="M43 248q0 135 83 208.5t224 96.5q94 14 146.5 24.5t77 19.5t29.5 21.5t5 30.5q0 41 -9 78t-30.5 65.5t-54.5 45t-80 16.5q-68 0 -127 -34t-94 -97h-84v158q104 78 185 105.5t165 27.5q78 0 143.5 -23.5t111.5 -66.5t71.5 -102.5t25.5 -133.5v-107.5t-2 -107.5t-3 -116.5 t-1 -120.5q0 -16 1 -35t4.5 -34t10.5 -25.5t21 -10.5q4 0 18.5 4t59.5 31v-133q-29 -12 -75 -26.5t-87 -14.5q-57 0 -94 24.5t-59 63.5q-59 -51 -128 -80t-157 -29q-55 0 -109.5 19.5t-95.5 55.5t-66.5 87t-25.5 115zM281 274q0 -72 39.5 -108.5t89.5 -36.5q61 0 111 32 t79 77l8 229q-16 -4 -32.5 -7t-30.5 -7q-45 -8 -92 -18.5t-85 -30t-62.5 -50t-24.5 -80.5z" />
<glyph unicode="b" horiz-adv-x="1038" d="M66 0q6 55 9 129t6 153.5t4 158.5t1 147v350q0 68 -1 147.5t-3 161.5t-6 159t-10 138q45 -10 78.5 -15t52.5 -5q20 0 56 5t85 13q-6 -51 -11 -128t-9 -166t-5.5 -183t-1.5 -178q117 127 291 127q111 0 191.5 -41t134 -108.5t79 -157t25.5 -187.5q0 -121 -37 -221 t-100.5 -173t-151.5 -114t-188 -41q-84 0 -163 39t-126 86q-27 -20 -53.5 -45.5t-52.5 -50.5h-94zM301 461q0 -174 62.5 -262t181.5 -88q51 0 95 29.5t76 84t50 130t18 169.5q0 80 -18 142.5t-49 103.5t-71 62.5t-83 21.5q-53 0 -101 -20.5t-84 -66.5t-56.5 -122t-20.5 -184 z" />
<glyph unicode="c" horiz-adv-x="991" d="M53 492q0 135 46 234t121 162.5t171 94.5t197 31q115 0 212 -35t146 -78q-33 -70 -57 -178h-70q-14 25 -36.5 51.5t-51.5 49t-64.5 36.5t-74.5 14q-78 0 -132 -28.5t-89 -79.5t-51.5 -121t-16.5 -151q0 -180 77 -272.5t218 -92.5q72 0 151.5 45t137.5 111l55 -52 q-14 -76 -18 -124q-35 -27 -77 -51.5t-89 -44t-96.5 -31t-98.5 -11.5q-92 0 -183 29t-164 91.5t-118 162t-45 238.5z" />
<glyph unicode="d" horiz-adv-x="1036" d="M6 485q0 133 40 232.5t104.5 165t145.5 98.5t165 33q82 0 147.5 -28t114.5 -79v176.5t-1 175t-3 158.5t-4 127q2 0 13 -3t24.5 -5t23.5 -5t15 -3l-3 2q31 -6 54 -6q18 0 49 6q4 0 15.5 2t25.5 4t25.5 4t15.5 2q-8 -76 -13.5 -203t-8.5 -274t-5 -298t-2 -273q0 -88 1 -164 t3 -150v-44.5t1 -54.5t1 -54.5v-44.5q-8 0 -35.5 5t-37.5 9l4 -2q-6 0 -15.5 1t-18.5 2t-15.5 2t-4.5 1q-14 0 -32 -6v2q-2 0 -13.5 -3t-24 -5t-22.5 -4t-12 -2v108q-45 -49 -113.5 -84t-173.5 -35q-80 0 -157.5 30t-138 92.5t-97.5 159.5t-37 232zM254 475 q0 -104 20.5 -173t52 -108.5t72.5 -56t82 -16.5q66 0 113 33.5t77.5 89t45 126t14.5 142.5q0 166 -61.5 254t-182.5 88q-59 0 -103 -29.5t-72.5 -80t-43 -120t-14.5 -149.5z" />
<glyph unicode="e" horiz-adv-x="1015" d="M47 465q0 127 32 228.5t93 173t150.5 109.5t205.5 38q113 0 196 -35t137 -94.5t81 -138t27 -166.5q0 -18 -2 -57.5t-4 -57.5h-40t-48.5 1t-48 1h-42.5q-68 2 -136 3t-136 1q-43 0 -85 -1t-83 -3q-23 0 -26 -1t-23 -1v-16q0 -68 19.5 -126.5t57.5 -101.5t93 -67.5 t127 -24.5q70 0 150.5 45t138.5 111l51 -49l-14 -127q-35 -27 -78 -51.5t-90.5 -44t-96.5 -31t-96 -11.5q-115 0 -208 38t-160.5 104.5t-104.5 157t-37 194.5zM305 614h33q43 -2 88 -3t88 -1t88 1t90 3h41q-2 43 -12 89.5t-33.5 84t-61 62t-94.5 24.5q-55 0 -96 -23.5 t-68.5 -61t-42 -84t-20.5 -91.5z" />
<glyph unicode="f" horiz-adv-x="618" d="M-10 829q4 27 7 49.5t3 28.5t-2 28.5t-6 49.5h24.5t33 -1t32.5 -1h24h33q4 57 17.5 121.5t37 126t54.5 117t69 92.5q39 39 100.5 69.5t123.5 30.5q23 0 77 -16q0 -41 -1 -60.5t-3 -36.5v3q-2 -23 -3 -58t-1 -57l-51 -25q-57 35 -104 35q-66 0 -93.5 -47t-27.5 -109 q0 -29 5 -81t13 -105h66h31.5t41 1t41 1h31.5q-4 -27 -7 -49.5t-3 -28.5t4 -28.5t8 -49.5h-24.5t-34 1t-32.5 1h-23q-16 0 -27.5 1.5t-21 2.5t-19.5 1h-27v-209t2 -219.5t3 -219t6 -206.5q-41 8 -74 13t-49 5q-18 0 -51 -5t-78 -13q14 215 18 428t4 426q-20 0 -28.5 -1 t-26.5 -4h-18.5t-28 -1t-27.5 -1h-18z" />
<glyph unicode="g" horiz-adv-x="1038" d="M49 -207q0 88 49 154.5t109 105.5q-35 29 -53.5 68t-18.5 86q0 53 26.5 96t65.5 72q-66 47 -105.5 117.5t-39.5 166.5q0 90 32.5 157t88 111t130.5 65.5t159 21.5q25 0 49 -1t53 -3q12 -2 26.5 -2t30.5 -2q10 0 17.5 -1t13.5 -1q68 -6 102 -7q59 0 112.5 5.5t90.5 15.5 q-4 -31 -8 -57.5t-4 -32.5q0 -4 4 -30t8 -56q-6 0 -21.5 2t-33 4t-32.5 4t-23 2q-18 2 -21 3l-4 1h-3h-24q29 -41 49.5 -95t20.5 -108q0 -166 -108.5 -258t-290.5 -92q-14 0 -28.5 1t-29.5 1q-12 2 -24.5 2h-24.5q-23 0 -40 -13t-17 -36q0 -31 16.5 -45t59.5 -16 q27 -2 53 -2h53q27 -2 52.5 -2h54.5q98 -4 168.5 -27t115.5 -60.5t65.5 -89t20.5 -110.5q0 -74 -28.5 -150.5t-88 -139t-154.5 -102.5t-226 -40q-205 0 -325 85t-120 232zM252 -186q0 -113 70.5 -159t175.5 -46q51 0 100 13t87 39t61.5 67t23.5 96q0 92 -59.5 134t-194.5 42 q-125 0 -194.5 -42t-69.5 -144zM311 659q0 -104 44 -164.5t137 -60.5q45 0 77.5 19.5t54 51.5t32 74t10.5 89q0 102 -47.5 156.5t-124.5 54.5q-86 0 -134.5 -59.5t-48.5 -160.5z" />
<glyph unicode="h" horiz-adv-x="942" d="M66 -18q6 61 10 138t6 157.5t3 161.5t1 149v350q0 68 -1 147.5t-3 161.5t-6 159t-10 138q43 -10 76.5 -15t52.5 -5q20 0 53 5t78 15q-6 -61 -10.5 -138t-6.5 -158t-3 -158.5t-1 -141.5v-41q53 53 121 80t156 27q59 0 121.5 -16.5t112.5 -59.5t82 -115.5t32 -185.5 q0 -39 -1 -81t-3 -83q-2 -43 -3 -95t-1 -99v-70t1 -79t2 -79t3 -69q-43 8 -75 13t-48 5t-47 -5t-72 -13l8 206q2 68 4 134.5t2 138.5v119q0 123 -47 189.5t-125 66.5q-117 0 -170 -73t-53 -208q0 -55 1 -129t3 -152.5t6 -154.5t11 -137q-45 8 -78 13t-53 5q-18 0 -52 -5 t-77 -13z" />
<glyph unicode="i" horiz-adv-x="321" d="M23 1292q0 57 39.5 97.5t97.5 40.5q57 0 97 -40t40 -98q0 -57 -40 -97t-97 -40t-97 40t-40 97zM29 -18q10 113 15 218t5 191v201q0 86 -5 190.5t-15 221.5q86 -18 131 -19q18 0 53 4t78 15q-10 -117 -15.5 -221.5t-5.5 -190.5v-201q0 -86 5.5 -190.5t15.5 -218.5 q-43 8 -78 13t-53 5q-20 0 -54 -5t-77 -13z" />
<glyph unicode="j" horiz-adv-x="503" d="M25 -434q23 -6 44 -10.5t27 -4.5q43 0 70 30t41 76t19 104.5t5 113.5l-4 641q0 113 -5 243t-17 245q88 -18 133 -19q18 0 53 4t78 15q-12 -117 -17.5 -221.5t-5.5 -190.5v-201q0 -119 7 -254q4 -68 6 -134t2 -122q0 -86 -9.5 -158.5t-60.5 -146.5q-47 -70 -137 -117 t-209 -51zM199 1292q0 57 41 97.5t98 40.5q55 0 96 -40t41 -98q0 -57 -41 -97t-96 -40q-57 0 -98 40t-41 97z" />
<glyph unicode="k" horiz-adv-x="966" d="M39 -18q6 61 10 138t6 157.5t3 161.5t1 149v350q0 68 -1 147.5t-3 161.5t-6 159t-10 138q45 -10 78 -15t53 -5q18 0 52 5t77 15q-6 -61 -10 -138t-6 -159t-3 -161.5t-1 -147.5v-346q12 8 30 24l6 9q18 12 60.5 52t94.5 93t108.5 112.5t103.5 114.5q23 -6 46.5 -9t41.5 -3 q23 0 76 6h22.5t44 1t44 1h22.5q-160 -129 -289 -236.5t-217 -193.5q55 -68 120.5 -142.5t133.5 -151t134.5 -151.5t125.5 -141q-82 10 -135 16.5t-74 6.5q-23 0 -51.5 -4t-62.5 -10q-41 53 -91.5 115.5t-102.5 124t-102.5 118.5t-88.5 98v-71q0 -84 5 -178.5t17 -210.5 q-43 8 -78 13t-53 5q-20 0 -53 -5t-78 -13z" />
<glyph unicode="l" horiz-adv-x="342" d="M39 -18q6 61 9 138t5 157.5t3 161.5t1 149v350q0 68 -1 147.5t-3 161.5t-5 159t-9 138q43 -10 77 -15t52 -5t52 5t77 15q-6 -61 -9 -138t-5 -159t-3 -161.5t-1 -147.5v-350q0 -68 1 -149t3 -161.5t5 -157.5t9 -138q-43 8 -77 13t-52 5t-52 -5t-77 -13z" />
<glyph unicode="m" horiz-adv-x="1591" d="M80 -18q10 113 15 218t5 191v201q0 86 -5 190.5t-15 221.5q86 -18 131 -19q33 0 123 19q-4 -29 -7 -51.5t-3 -39.5q104 100 251 101q90 0 168 -42t121 -108q53 74 132 112t175 38q72 0 133.5 -19.5t106.5 -61.5t70.5 -107.5t25.5 -157.5q0 -27 -1 -55.5t-3 -63.5 q-4 -55 -6 -129t-2 -180q0 -27 1 -60t2 -67.5t3 -68.5t4 -64q-45 10 -77.5 15t-47.5 5q-16 0 -50 -5t-81 -15q8 70 17.5 235.5t9.5 425.5q0 82 -36 138.5t-130 56.5q-59 0 -99 -22.5t-63 -53.5v2q-12 -18 -20 -36.5t-12.5 -60.5t-5.5 -118t-1 -209q0 -86 3 -176t8 -180 q-43 8 -76 13t-49 5t-50 -5t-77 -13q4 53 7 116.5t6 128t5 127t2 115.5q0 86 -1 135t-4 79t-9 46t-17 37h2q-16 29 -52 49.5t-77 20.5q-106 0 -157 -73t-51 -208v-164q0 -86 5 -190.5t17 -218.5q-45 8 -79 13t-54 5t-54 -5t-77 -13z" />
<glyph unicode="n" horiz-adv-x="991" d="M59 -18q12 113 16.5 218t4.5 191v201q0 86 -4 190.5t-17 221.5q86 -18 131 -19q14 0 47 4t76 15q-4 -29 -7 -54.5t-3 -40.5q53 57 117.5 81t157.5 24q59 0 121.5 -16.5t112.5 -59.5t82 -115.5t32 -185.5q0 -39 -1 -81t-3 -83q-2 -43 -3 -95t-1 -99v-70t1 -79t2 -79t3 -69 q-43 8 -75 13t-48 5t-47 -5t-72 -13l6 206q4 68 6 134.5t2 138.5v119q0 123 -47 189.5t-125 66.5q-117 0 -170 -73t-53 -208v-164q0 -86 5 -190.5t18 -218.5q-45 8 -79 13t-55 5q-20 0 -54 -5t-77 -13z" />
<glyph unicode="o" horiz-adv-x="1124" d="M51 492q0 143 45 242.5t118 161.5t164 90t183 28t183.5 -28t164 -90t117.5 -161.5t45 -242.5t-45 -242.5t-117.5 -161t-164 -89.5t-183.5 -28t-183 28t-164 89.5t-118 161t-45 242.5zM299 492q0 -74 13.5 -142.5t44 -122t80.5 -85t124 -31.5t124 31.5t81 85t44 122 t13 142.5t-13 143.5t-44 122.5t-81 84.5t-124 31.5t-124 -31.5t-80.5 -84.5t-44 -122.5t-13.5 -143.5z" />
<glyph unicode="p" horiz-adv-x="1040" d="M66 -528q6 61 10 138t6 157.5t3 161.5t1 149v313q0 68 -1 147.5t-3 161.5t-6 161t-10 143q45 -10 78.5 -14.5t52.5 -4.5q16 0 52 5t83 16q-8 -41 -12.5 -66t-4.5 -43q45 47 113 82t172 35q82 0 160 -30t138 -93.5t97 -160.5t37 -232q0 -133 -40 -231.5t-104.5 -164 t-146.5 -98.5t-166 -33t-150.5 28t-117.5 79q0 -68 1 -149t3 -161.5t5 -157.5t10 -138q-43 8 -77 13t-52 5t-52 -5t-79 -13zM307 483q0 -362 244 -362q59 0 103 29.5t73 80t43 120t14 149.5q0 104 -20.5 172.5t-52 108.5t-72.5 56.5t-82 16.5q-68 0 -116 -29.5t-77.5 -80 t-43 -118t-13.5 -143.5z" />
<glyph unicode="q" horiz-adv-x="1038" d="M4 485q0 137 41 237.5t105.5 165t143.5 95.5t157 31q90 0 156.5 -26.5t113.5 -74.5q-4 23 -6 45.5t-6 47.5q47 -10 81.5 -15.5t51.5 -5.5q18 0 52 4t77 15q-6 -63 -9.5 -142.5t-5.5 -161.5t-3 -161.5t-1 -147.5v-313q0 -68 1 -149t3 -161.5t5.5 -157.5t9.5 -138 q-43 8 -77 13t-52 5t-52 -5t-77 -13q6 61 9 138t5 157.5t3 161.5t1 149v22q-57 -63 -130 -96t-150 -33q-78 0 -158 27t-144.5 87t-104.5 158.5t-40 241.5zM254 471q0 -76 13.5 -139.5t41 -110.5t68.5 -73.5t96 -26.5q63 0 112.5 33.5t81 89t48 125t16.5 143.5q0 68 -13 129 t-42 108.5t-75 76t-109 28.5q-41 0 -83 -16.5t-77 -59.5t-56.5 -117.5t-21.5 -189.5z" />
<glyph unicode="r" horiz-adv-x="595" d="M55 -18q8 106 10.5 226t2.5 284v63q0 76 -2.5 200t-8.5 249q86 -18 121 -19q47 0 121 19q-4 -35 -6 -49.5t-4 -21.5t-2 -14.5t2 -25.5q104 121 217 121q23 0 45 -6.5t70 -22.5q-20 -47 -23.5 -102.5t-3.5 -96.5l-62 -38q-14 16 -38.5 28t-47.5 12q-74 0 -116.5 -66.5 t-42.5 -164.5v-214t1 -150.5t4 -112.5t7 -98q-37 8 -67.5 13t-53.5 5q-16 0 -48 -5t-75 -13z" />
<glyph unicode="s" horiz-adv-x="755" d="M33 57q8 16 16 41t15.5 52.5t11.5 54t4 49.5h86q10 -20 28.5 -44t44 -43.5t56.5 -32.5t65 -13q59 0 104.5 33.5t45.5 101.5q0 61 -52 88t-122 47q-51 14 -101.5 33.5t-90.5 50.5t-65.5 80t-25.5 127q0 72 23.5 133.5t70 105.5t114 68.5t153.5 24.5q59 0 103 -13.5 t81 -27.5q6 -4 9 -5t11.5 -4t22.5 -7.5t45 -10.5q-12 -23 -23.5 -50.5t-20.5 -57t-16.5 -55t-9.5 -40.5h-86q-16 47 -53 84t-88 37q-45 0 -86 -29.5t-41 -95.5q0 -33 15.5 -55t40 -37.5t56.5 -27t66 -21.5h-2q51 -14 101.5 -31.5t90.5 -47.5t64.5 -79t24.5 -125 q0 -61 -26.5 -122.5t-77 -110.5t-122 -80t-161.5 -31q-94 0 -169 28t-130 58z" />
<glyph unicode="t" horiz-adv-x="579" d="M-4 817q4 25 7 47.5t3 32.5q0 2 -3 26.5t-7 53.5q45 -4 77.5 -6t55.5 -2v22q-2 35 -3 89.5t-3 90.5l186 82h66q-6 -72 -11.5 -143.5t-9.5 -142.5q41 2 100.5 3t110.5 5q-4 -41 -5 -56.5t-1 -25.5q0 -6 1 -18.5t7 -65.5q-25 2 -55.5 3t-60 2t-55 2t-44.5 1q-2 -29 -4 -83 t-3 -118.5t-2 -131t-1 -119.5q0 -47 2 -93.5t13.5 -82t35 -57t66.5 -21.5q14 0 51 8t76 18v-125q-47 -16 -97.5 -28.5t-91.5 -12.5q-141 0 -208.5 75t-67.5 206q0 47 2 99t4 114q0 39 1 77t2 79t2 89t1 107h-137z" />
<glyph unicode="u" horiz-adv-x="993" d="M66 328q0 55 1 102t3 88q2 35 2 65.5v63.5v78t-1 93t-2 96.5t-1 89.5q41 -10 72.5 -14.5t47.5 -4.5q12 0 44 5t77 16q-4 -57 -8 -130t-7 -151t-5 -158t-2 -151q0 -90 14 -138.5t35 -70.5q23 -23 58.5 -40t80.5 -17q68 0 113 29.5t67 72.5v-2q12 29 20.5 51.5t11.5 59 t4 101t1 175.5v88t-1 99t-2 97.5t-3 82.5q82 -18 121 -19q47 0 121 19q-10 -152 -14 -318t-3 -319q0 -43 1 -93.5t2 -101.5t3.5 -100t4.5 -90q-37 8 -67 13t-50 5t-51 -5t-66 -13q4 31 5 49t1 51q-53 -55 -121.5 -83t-144.5 -28q-170 0 -266 92.5t-96 264.5z" />
<glyph unicode="v" horiz-adv-x="1005" d="M-6 1008q125 -23 164 -23q14 0 42.5 4t69.5 12q59 -195 126 -370.5t136 -337.5q59 129 114.5 279.5t109.5 297.5q10 25 23.5 67t23.5 67q29 -10 51.5 -14.5t32.5 -4.5q16 0 49 8t80 23q-6 -16 -18.5 -43t-26 -57.5t-25.5 -58.5l-18 -42q-90 -203 -181.5 -418t-162.5 -415 q-29 8 -51.5 13t-34.5 5t-25.5 -2t-26.5 -6l-47 26q-6 16 -13 33t-11 35v-2q-41 106 -87 224t-94.5 238t-99.5 236.5t-100 225.5z" />
<glyph unicode="w" horiz-adv-x="1626" d="M35 1008q55 -10 95 -16.5t58 -6.5q33 0 115 16q100 -352 221 -679q25 68 55.5 153.5t62.5 176.5t61.5 182.5t52.5 169.5q55 -18 82 -19q27 0 82 19q47 -180 102 -345t117 -335q27 70 59.5 155.5t65 175.5t65.5 179.5t60 166.5q61 -16 88 -16q12 0 47 9.5t82 25.5 q-125 -268 -232.5 -524t-197.5 -506q-4 0 -20.5 1t-20.5 1q-10 4 -19.5 6t-17.5 2q-12 0 -35 -6t-43 -12q-47 168 -100.5 331.5t-118.5 329.5q-25 -63 -54.5 -143t-60.5 -167t-59.5 -175t-53.5 -168q-4 0 -22.5 1t-22.5 1q-10 4 -20 6t-19 2q-8 0 -19 -2t-21 -6 q-4 0 -6.5 -1t-6.5 -1l-37 28q-25 78 -64.5 195t-88.5 251t-103.5 275.5t-107.5 268.5z" />
<glyph unicode="x" horiz-adv-x="1058" d="M-10 -39q45 57 99 125t109.5 136.5t108.5 136t96 124.5q-43 57 -93 126t-103 138.5t-105.5 137t-97.5 125.5q68 -12 118 -18.5t77 -6.5q49 0 123 12q53 -92 110 -176t115 -164q66 84 130 171t122 169q49 -12 84 -12q16 0 63 10.5t113 26.5q-47 -53 -101.5 -116.5 t-112 -128t-110.5 -128t-96 -114.5q43 -63 96 -136t109.5 -147t112 -145.5t102.5 -133.5q-70 10 -120 18.5t-73 8.5t-52.5 -4t-63.5 -10q-66 100 -123.5 187t-126.5 185q-66 -92 -132.5 -189t-125.5 -185q-55 16 -82 16q-14 0 -59.5 -11.5t-110.5 -27.5z" />
<glyph unicode="y" horiz-adv-x="997" d="M10 1010q57 -12 98.5 -18.5t57.5 -6.5q20 0 50 3t65 11q53 -166 122.5 -343t139.5 -351q72 160 140.5 341t123.5 355q61 -16 90 -16q12 0 48 7t89 24q-14 -29 -47 -99.5t-78 -168t-98 -216t-109.5 -242.5t-110.5 -248t-100.5 -233.5t-80 -196.5t-50.5 -138q-29 6 -52 11 t-38 5q-14 0 -54 -8.5t-95 -24.5q100 166 174 307.5t127 262.5q-25 59 -60.5 147t-76.5 187.5t-84 202t-81 191.5t-67.5 156.5t-42.5 98.5z" />
<glyph unicode="z" horiz-adv-x="995" d="M35 -10v80q70 86 145.5 182t148 192.5t140.5 187.5t123 167q10 14 12 17l2 3l1 2t9 13q-47 -2 -111.5 -6.5t-133 -9.5t-135 -9t-115.5 -8q18 80 18 98q0 10 -4 34.5t-12 65.5q100 -10 229 -12t303 -2h75t67.5 1t70.5 4t80 7v-84q-78 -102 -164 -214.5t-165.5 -218 t-146 -192.5t-103.5 -138q55 0 115.5 2t131 6t152.5 9t182 15q-8 -35 -13 -63.5t-5 -34.5q0 -10 5 -38t11 -56h-36.5t-47 1t-48 2t-38.5 1q-88 4 -181 5t-181 1q-127 0 -256 -6q-25 -2 -65 -3t-60 -1z" />
<glyph unicode="{" horiz-adv-x="497" d="M-10 504v160q70 0 105.5 38.5t35.5 104.5v328q0 154 54.5 210t154.5 56h152v-150h-101q-33 0 -47 -21.5t-14 -94.5v-318q0 -86 -33 -143.5t-86 -91.5q53 -37 86 -93.5t33 -140.5v-317q0 -72 14 -94.5t47 -22.5h101v-147h-152q-100 0 -154.5 56t-54.5 208v329 q0 66 -36 105t-105 39z" />
<glyph unicode="|" horiz-adv-x="294" d="M51 -483v2013h180v-2013h-180z" />
<glyph unicode="}" horiz-adv-x="497" d="M4 -86h100q33 0 47.5 22.5t14.5 94.5v317q0 86 32.5 142.5t86.5 93.5q-53 35 -86 91t-33 142v318q0 74 -14.5 95t-47.5 21h-100v150h152q100 0 154.5 -56.5t54.5 -209.5v-328q0 -66 35.5 -104.5t105.5 -38.5v-160q-70 0 -105.5 -39t-35.5 -105v-329q0 -152 -54.5 -208 t-154.5 -56h-152v147z" />
<glyph unicode="~" horiz-adv-x="1064" d="M45 483q29 45 57.5 83t61.5 63.5t72.5 40t91.5 14.5q63 0 108 -15.5t88 -37.5q35 -12 64 -29q41 -20 77.5 -34.5t73.5 -14.5q23 0 47.5 17.5t47 45t43 59.5t36.5 60l107 -157q-25 -37 -53.5 -73t-63.5 -64.5t-76 -47t-90 -18.5q-59 0 -115.5 20.5t-121.5 53.5 q-47 27 -88 42t-74 15q-35 0 -62.5 -18.5t-51 -46t-41 -60.5t-29.5 -64z" />
<glyph unicode="&#xa1;" horiz-adv-x="358" d="M27 864q0 61 44 105.5t105 44.5t105.5 -44t44.5 -106q0 -61 -44 -105t-106 -44q-61 0 -105 44t-44 105zM43 -305q0 14 5 80.5t12.5 165t17.5 217t20 239.5q4 59 11.5 134t11.5 128h108q2 -27 5.5 -60.5t7.5 -68t7 -69.5t5 -64q6 -90 16.5 -206.5t18.5 -223t14 -184.5 t6 -88q0 -76 -41 -105.5t-92 -29.5t-92 29.5t-41 105.5z" />
<glyph unicode="&#xa2;" horiz-adv-x="983" d="M49 492q0 117 34 204.5t91 151t134 100.5t161 53q-2 39 -5 95.5t-13 130.5q37 -12 62.5 -19.5t35.5 -7.5t34.5 7t61.5 20q-18 -141 -18 -215q104 -6 187 -38t128 -73q-33 -70 -57 -178h-72q-25 45 -73 89t-113 58q2 -193 3 -367.5t3 -369.5q66 12 133.5 53t116.5 99 l55 -52q-14 -76 -18 -127q-57 -47 -134 -81.5t-159 -44.5q0 -45 4 -107.5t12 -128.5q-37 12 -61.5 19.5t-32.5 7.5q-10 0 -35 -7.5t-61 -19.5q6 59 10 123.5t6 112.5q-80 12 -155.5 47.5t-134 97t-94.5 153t-36 214.5zM299 494q0 -135 44 -220.5t126 -119.5v696 q-90 -39 -130 -133t-40 -223z" />
<glyph unicode="&#xa3;" horiz-adv-x="1038" d="M14 -10q4 27 6.5 53.5t2.5 46.5q0 12 -2.5 41t-6.5 62h70q70 0 115 20t69.5 57t33.5 89.5t9 117.5q0 37 -4 80t-10 82q-47 -2 -105.5 -2h-95.5q10 41 11.5 56.5t1.5 27.5q0 10 -2.5 24.5t-16.5 65.5q51 -10 99.5 -15t86.5 -5q-2 23 -2 46v46q0 145 40 241.5t103.5 152.5 t139.5 79.5t148 23.5q39 0 81.5 -9t82.5 -26.5t74 -44t58 -63.5q-25 -29 -53 -71t-61 -95l-49 49q-16 53 -52 82t-81 29q-88 0 -141.5 -64.5t-53.5 -158.5q0 -59 2 -107.5t6 -93.5q2 -14 1 -9t1 -7q53 0 92 1t84 5h-2q8 0 26.5 1t38 3t38 3t28.5 1q-4 -31 -8 -56.5t-4 -27.5 q0 -16 2 -36.5t6 -47.5h-61q-35 0 -60.5 1l-51 2t-53.5 1h-65v-49q0 -127 -37.5 -225.5t-97.5 -169.5q106 0 216 5t210 9q16 0 41 1t49.5 3t47 3t38.5 1q-4 -41 -7 -70.5t-3 -48.5q0 -35 12 -110q-29 0 -80 1t-79 3q-82 4 -171 5t-171 1q-164 0 -330 -6q-14 0 -35.5 -1 l-43 -2t-42 -1h-33.5z" />
<glyph unicode="&#xa4;" horiz-adv-x="1175" d="M53 270l107 109q-43 61 -67.5 137t-24.5 158t26.5 158.5t69.5 138.5q-27 29 -57.5 60.5t-53.5 53.5l123 123l111 -110q63 43 141 69.5t160 26.5t157.5 -25.5t139.5 -70.5l110 110l123 -123l-108 -110q45 -63 70.5 -139t25.5 -162q0 -82 -25.5 -159t-66.5 -138l104 -107 l-123 -127l-110 109q-66 -45 -139.5 -70.5t-157.5 -25.5q-86 0 -162 25.5t-139 70.5q-29 -27 -58.5 -57.5t-52.5 -51.5zM246 674q0 -72 25.5 -136.5t71.5 -111.5t108.5 -74.5t136.5 -27.5t135 27.5t107.5 74.5t72 111.5t25.5 136.5q0 74 -25.5 137t-72 110.5t-107.5 75 t-135 27.5t-136.5 -27.5t-108.5 -75t-71.5 -110.5t-25.5 -137z" />
<glyph unicode="&#xa5;" horiz-adv-x="1124" d="M-20 1419q70 -10 117.5 -17t66.5 -7q20 0 52 4t75 12q16 -39 50 -102.5t76 -138t87 -153.5t86 -147q90 139 171 272.5t152 268.5q55 -16 86 -16q16 0 59.5 10t104.5 27q-37 -49 -91 -124t-113.5 -160t-119 -174t-110.5 -165q-6 -4 -6 -8q0 2 1 2t-1 -4v2q-2 -2 0 -2 q-4 -4 -6 -8q78 0 147.5 1t139.5 3q-10 -57 -11 -80q0 -10 3 -33t8 -47q-29 0 -80.5 1t-79.5 1q-29 0 -50.5 1t-42 2t-42 1h-47.5v-90h174t168 2q-4 -27 -7.5 -49.5t-3.5 -30.5q0 -10 3 -33.5t8 -48.5q-86 4 -172.5 7t-169.5 3q0 -106 4 -219.5t12 -199.5q-43 8 -78 13 t-53 5q-20 0 -54 -5t-79 -13q8 104 13 209.5t5 209.5q-80 -2 -172 -4t-166 -6q4 25 7 48.5t3 33.5q0 8 -3 30.5t-7 49.5q84 -2 169 -2h169v90q-45 0 -91 -1t-91 -3q-29 0 -78 -1t-78 -1q4 25 7 47.5t3 32.5t-3 32.5t-7 49.5q78 -2 143.5 -4t143.5 -2q-23 37 -49.5 77.5 t-48.5 77.5q-31 49 -70 110.5t-80 125t-81 126t-72 111.5z" />
<glyph unicode="&#xa6;" horiz-adv-x="266" d="M51 -340v756h180v-756h-180zM51 629v755h180v-755h-180z" />
<glyph unicode="&#xa7;" horiz-adv-x="894" d="M39 651q0 88 40 150.5t81 97.5q-16 31 -27.5 66.5t-11.5 107.5q0 68 24.5 132.5t72.5 113.5t120 80t166 31q53 0 99 -14.5t85 -37t72 -51.5t57 -57q-27 -25 -49.5 -70t-28.5 -80h-86q-16 61 -62 110.5t-114 49.5q-33 0 -64.5 -10t-57 -30.5t-41 -48.5t-15.5 -65 q0 -41 20.5 -70.5t53.5 -53t74.5 -42t87.5 -36.5q57 -25 115.5 -50.5t104.5 -62.5t74.5 -90t28.5 -129q0 -78 -31.5 -143.5t-66.5 -108.5q31 -31 44 -70t13 -104q0 -78 -28.5 -152.5t-86 -133t-140.5 -93.5t-191 -35q-39 0 -82 9.5t-86 23.5t-81 33.5t-69 40.5 q12 43 19.5 107.5t7.5 111.5h90q8 -23 27.5 -52.5t50.5 -57t75 -47t103 -19.5q43 0 82 16t67.5 43t46 60.5t17.5 68.5q0 39 -20.5 66.5t-54.5 50t-77 40t-90 36.5q-66 25 -129 52t-114.5 69t-83 101.5t-31.5 145.5zM209 715q0 -59 42 -98t142 -80q106 -47 170 -75t101 -50 q10 18 17 43.5t7 50.5q0 57 -31.5 89t-115.5 69q-72 33 -122 56t-84 39.5t-55.5 28t-33.5 19.5q-16 -18 -26.5 -41t-10.5 -51z" />
<glyph unicode="&#xa8;" horiz-adv-x="770" d="M55 1272q0 57 40 98t98 41q57 0 97 -41t40 -98q0 -55 -40 -96t-97 -41t-97.5 41t-40.5 96zM436 1272q0 57 41 98t98 41t97.5 -41t40.5 -98q0 -55 -40 -96t-98 -41q-57 0 -98 41t-41 96z" />
<glyph unicode="&#xa9;" horiz-adv-x="1587" d="M59 698q0 152 57.5 285t157 232.5t233.5 157t286 57.5t285.5 -57.5t233 -157t157 -232.5t57.5 -285t-57.5 -285.5t-157 -233t-233.5 -157t-285 -57.5q-152 0 -286 57.5t-233.5 157t-157 233t-57.5 285.5zM219 698q0 -121 44 -227t122 -185t182.5 -125t225.5 -46t225 46 t182 125t122 185t44 227t-44 226.5t-122 184.5t-182.5 125t-224.5 46q-121 0 -225.5 -46t-182.5 -125t-122 -184.5t-44 -226.5zM326 694q0 123 40 217.5t110.5 156.5t163.5 94t202 32q98 0 180 -21.5t143 -58.5q-35 -66 -39 -149l-65 -4q-12 12 -31.5 29.5t-46.5 32.5 t-60.5 26.5t-76.5 11.5q-59 0 -116.5 -16.5t-101.5 -58.5t-71 -112.5t-27 -181.5q0 -76 20.5 -139.5t60.5 -109.5t98.5 -72.5t132.5 -26.5q37 0 72.5 10.5t68.5 26.5t60.5 34.5t46.5 35.5l81 -2q-20 -47 -25 -82t-5 -58q-23 -14 -56.5 -30.5t-75.5 -31t-90.5 -24.5 t-99.5 -10q-109 0 -200 34t-156.5 97.5t-101 151t-35.5 198.5z" />
<glyph unicode="&#xaa;" horiz-adv-x="698" d="M39 905q0 84 47 129t176 70q86 16 116 22.5t30 10.5q0 72 -29 91t-70 19q-45 0 -76.5 -26.5t-42.5 -51.5h-88v136q49 27 107.5 51t142.5 24q39 0 82 -8t79 -32.5t59.5 -68.5t23.5 -114q0 -41 -2 -88t-4 -88q-2 -35 -3 -61.5t-1 -45.5q0 -29 4 -28q4 0 31.5 13t44.5 22 v-117q-23 -14 -59 -27.5t-70 -13.5q-72 0 -103 53q-41 -29 -82 -41t-94 -12q-37 0 -76 9t-70.5 29.5t-52 55.5t-20.5 88zM236 915q0 -29 19 -45t48 -16q33 0 58.5 17.5t46.5 39.5v107q-10 -4 -21.5 -5t-21.5 -3q-25 -4 -47.5 -10.5t-41 -15.5t-29.5 -25.5t-11 -43.5z" />
<glyph unicode="&#xab;" horiz-adv-x="739" d="M8 487l295 439q18 -35 54 -62.5t81 -34.5l-237 -340q27 -41 56.5 -87l59 -92t57 -91t52.5 -82q-39 -4 -78 -33.5t-55 -68.5zM289 487l295 439q18 -35 54 -62.5t81 -34.5l-236 -340q25 -41 54.5 -87t59.5 -92t57.5 -91t52.5 -82q-39 -4 -78 -33.5t-56 -68.5z" />
<glyph unicode="&#xac;" horiz-adv-x="1130" d="M-6 627v180h1057v-598h-179v418h-878z" />
<glyph unicode="&#xad;" d="M63 387v199h560v-199h-560z" />
<glyph unicode="&#xae;" horiz-adv-x="1587" d="M59 698q0 152 57.5 285t157 232.5t233.5 157t286 57.5t285.5 -57.5t233 -157t157 -232.5t57.5 -285t-57.5 -285.5t-157 -233t-233.5 -157t-285 -57.5q-152 0 -286 57.5t-233.5 157t-157 233t-57.5 285.5zM219 698q0 -121 44 -227t122 -185t182.5 -125t225.5 -46 q102 0 193 32.5t163 90.5q-45 10 -64 10q-20 0 -43.5 -4t-50.5 -11q-72 104 -149.5 210t-163.5 210h-4v-98q0 -72 4 -154t12 -174q-35 10 -62.5 15.5t-41.5 5.5t-42 -6t-67 -17q0 6 2 22.5t3 34t3 33t2 23.5q4 53 6.5 107.5t2.5 103.5v330q0 61 -5.5 145t-13.5 162 q-119 -78 -188.5 -206t-69.5 -282zM477 1186q61 -8 113.5 -12.5t89.5 -4.5q16 0 34.5 1t39.5 4q18 2 40.5 4t43.5 2q57 0 109 -14.5t90 -43t60.5 -71.5t22.5 -103q0 -57 -21.5 -101t-55 -78t-75.5 -55.5t-81 -33.5q16 -18 29.5 -36.5t29.5 -41.5q33 -43 67 -87t66.5 -84 t63.5 -72.5t55 -53.5v-22q78 78 123 185t45 230q0 121 -44 226.5t-122 184.5t-182.5 125t-224.5 46q-90 0 -170 -24.5t-146 -69.5zM674 776h43q84 0 144.5 36t60.5 122q0 57 -40 90t-102 33q-53 0 -98 -6q-4 -41 -6 -77t-2 -71v-127z" />
<glyph unicode="&#xaf;" horiz-adv-x="737" d="M63 1169v179h609v-179h-609z" />
<glyph unicode="&#xb0;" horiz-adv-x="716" d="M37 1059q0 68 25.5 126t68.5 101t101.5 68.5t123.5 25.5q66 0 124.5 -25.5t101.5 -68.5t68.5 -101.5t25.5 -125.5q0 -66 -25.5 -124t-68.5 -101t-101.5 -69t-124.5 -26t-124 26t-101 69t-68.5 101t-25.5 124zM186 1059q0 -72 49.5 -121t120.5 -49q72 0 121 49t49 121 q0 37 -13 67.5t-36.5 54t-54.5 37t-66 13.5t-66.5 -13.5t-54 -37t-36 -54t-13.5 -67.5z" />
<glyph unicode="&#xb1;" horiz-adv-x="1069" d="M6 0v178h438v348h-438v179h438v352h181v-352h438v-179h-438v-348h438v-178h-1057z" />
<glyph unicode="&#xb2;" horiz-adv-x="690" d="M31 502v86q18 18 43.5 40.5t42.5 39.5q74 70 134 127t101 111.5t63.5 107.5t22.5 114q0 66 -30.5 96.5t-71.5 30.5q-31 0 -52.5 -12t-37 -30.5t-24.5 -40t-11 -39.5l-61 -5l-72 101q53 78 118.5 114.5t157.5 36.5q61 0 114.5 -14t92.5 -44t61.5 -77t22.5 -110 q0 -47 -12 -89t-48 -92.5t-102.5 -117t-175.5 -164.5q88 0 186.5 2t163.5 6q-8 -35 -12 -56.5t-4 -31.5t5 -30.5t16 -61.5q-35 2 -76 5t-85 5t-86 3t-77 1q-33 0 -73 -1t-81 -3t-81 -4t-72 -4z" />
<glyph unicode="&#xb3;" horiz-adv-x="665" d="M25 559l34 135h58q20 -23 60 -45t89 -22q72 0 115 41t43 104q0 76 -37 103.5t-80 27.5q-23 0 -62.5 -10t-78.5 -21q29 82 29 91q0 18 -31 110q55 -27 86 -37t41 -10q29 0 48 12.5t30.5 33t15.5 44t4 45.5q0 47 -27.5 70.5t-62.5 23.5q-39 0 -69.5 -25.5t-43.5 -58.5 l-61 -2l-53 111q39 35 98 67.5t156 32.5q55 0 102 -13t83 -38.5t56.5 -65.5t20.5 -94q0 -61 -26.5 -108t-67.5 -76q57 -23 97 -68t40 -131q0 -129 -98.5 -206.5t-262.5 -77.5q-76 0 -136 17.5t-109 39.5z" />
<glyph unicode="&#xb4;" horiz-adv-x="577" d="M-23 1083l351 355q25 25 54.5 41t59.5 16q31 0 67 -25.5t36 -74.5q0 -51 -30 -78t-58 -45q-72 -47 -146.5 -95.5t-146.5 -93.5h-187z" />
<glyph unicode="&#xb5;" horiz-adv-x="944" d="M72 -454.5q0 40.5 1 80.5t2 78t1 67q2 80 3 180t1 201q0 141 -1 257.5t-3 221.5q0 41 -1 91t-1 101v98.5v82.5q41 -10 72.5 -14.5t48.5 -4.5q12 0 43.5 5t76.5 16q-4 -57 -8 -130t-7 -151t-5 -158t-2 -151q0 -90 14.5 -138.5t34.5 -70.5q23 -23 58.5 -40t80.5 -17 q68 0 113 29.5t68 72.5v-2q12 29 20 51.5t11 59t4 101t1 175.5v88t-1 99t-2 97.5t-3 82.5q82 -18 121 -19q47 0 121 19q-10 -152 -13 -318t-3 -319q0 -43 1 -93.5t2 -101.5t3 -100t4 -90q-37 8 -67 13t-50 5t-51 -5t-66 -13q4 31 5 49t1 51q-110 -111 -268 -111 q-41 0 -72.5 3t-66.5 20q0 -123 4 -248t20 -276q-45 10 -77.5 15t-46.5 5q-16 0 -48 -5t-73 -13v73.5z" />
<glyph unicode="&#xb6;" horiz-adv-x="1015" d="M12 999q0 199 113 297.5t311 98.5h543v-119l-143 -23v-1476h-148v1454q-10 -2 -20.5 -3t-26.5 -5v-1446h-147v786q-125 4 -216.5 38t-149.5 91.5t-87 135t-29 171.5z" />
<glyph unicode="&#xb7;" horiz-adv-x="374" d="M29 631q0 66 45 110.5t110 44.5q66 0 111 -45t45 -110q0 -63 -45 -108.5t-111 -45.5t-110.5 45.5t-44.5 108.5z" />
<glyph unicode="&#xb8;" horiz-adv-x="503" d="M-6 -385l57 135q33 -14 77 -24.5t85 -10.5q33 0 55.5 11.5t22.5 31.5t-18.5 29.5t-43.5 9.5q-53 0 -86 -26l-55 55l98 252h148l-45 -131q94 0 146 -49.5t52 -128.5q0 -49 -21.5 -87t-58 -64t-85 -39t-103.5 -13q-68 0 -126 16.5t-99 32.5z" />
<glyph unicode="&#xb9;" horiz-adv-x="468" d="M33 1176v73q86 27 171 62t146 69h74q-6 -76 -11 -170t-5 -172v-194q0 -37 1 -82t4 -92t5 -93.5t6 -84.5q-74 23 -109 22q-37 0 -108 -22q2 39 4 85t4 93t3 92t1 82l19 342q-35 -16 -74 -37t-68 -35q-10 16 -27.5 34.5t-35.5 27.5z" />
<glyph unicode="&#xba;" horiz-adv-x="808" d="M55 1051q0 90 31 153.5t80 102.5t111.5 56t128.5 17q61 0 123.5 -17t111.5 -56t80 -102.5t31 -153.5t-31 -152.5t-80 -101.5t-111.5 -56.5t-123.5 -17.5q-66 0 -128.5 17.5t-111.5 56.5t-80 101.5t-31 152.5zM260 1051q0 -37 7 -74t24.5 -66.5t45.5 -47t69 -17.5 q39 0 65.5 17.5t43.5 47t24.5 66.5t7.5 74q0 39 -7.5 75.5t-24.5 65.5t-44 46t-65 17q-41 0 -69 -17t-45.5 -46t-24.5 -65.5t-7 -75.5z" />
<glyph unicode="&#xbb;" horiz-adv-x="741" d="M20 145l236 338l-223 355q39 4 78 33.5t55 68.5l285 -455l-295 -436q-18 35 -54 62.5t-82 33.5zM301 145l236 338l-224 355q39 4 78 33.5t55 68.5l285 -455l-295 -436q-18 35 -54 62.5t-81 33.5z" />
<glyph unicode="&#xbc;" horiz-adv-x="1560" d="M45 1176v73q86 27 170 62t145 69h74q-6 -76 -11 -170t-5 -172v-194q0 -37 1 -82t4 -92t5 -93.5t6 -84.5q-74 23 -108 22q-35 0 -109 -22q2 39 5 85t5 93t3 92t1 82l17 342q-35 -16 -74 -37t-68 -35q-10 16 -27.5 34.5t-33.5 27.5zM338 -84l580 1499q55 -23 67 -22 q6 0 36 11t77 28l-580 -1498q-29 10 -45 15.5t-24 5.5q-10 0 -111 -39zM825 199v98q102 135 216 281.5t219 281.5q39 -14 65 -14q12 0 38 6t54 16q-6 -125 -9 -255t-3 -253q25 4 58.5 10.5t66.5 14.5q-8 -33 -14.5 -60.5t-6.5 -37.5t6.5 -36t12.5 -54q-23 2 -55.5 7t-67.5 5 q2 -55 4 -118.5t4 -110.5q-35 10 -61.5 15t-42.5 5t-44 -5t-63 -15q4 55 9.5 114.5t5.5 114.5q-55 0 -114 -1t-112 -3t-97 -3t-69 -3zM1044 358h173v230q-4 -2 -5.5 -4t-3.5 -4v2q-41 -55 -85 -112.5t-79 -111.5z" />
<glyph unicode="&#xbd;" horiz-adv-x="1533" d="M43 1176v73q86 27 171 62t146 69h74q-6 -76 -11 -170t-5 -172v-194q0 -37 1 -82t4 -92t5 -93.5t6 -84.5q-74 23 -108 22q-37 0 -109 -22q2 39 4 85t4 93t3 92t1 82l19 342q-35 -16 -74 -37t-68 -35q-10 16 -27.5 34.5t-35.5 27.5zM330 -84l581 1499q55 -23 68 -22 q6 0 35.5 11t77.5 28l-582 -1498q-57 20 -68 21q-6 0 -34.5 -10.5t-77.5 -28.5zM874 -12v86q18 18 44 40.5t45 41.5q74 70 133 127t101 110t64.5 107.5t22.5 115.5q0 66 -30.5 95.5t-71.5 29.5q-31 0 -53.5 -12t-38 -30.5t-24.5 -40t-11 -37.5l-62 -5l-71 99 q53 78 119.5 114.5t156.5 36.5q125 0 208 -58t83 -185q0 -49 -12.5 -91.5t-48 -92.5t-102 -116.5t-175.5 -162.5h91t95 1t90 2t76 3q-18 -68 -18 -86q0 -10 5 -31.5t17 -62.5q-35 2 -76.5 5t-86 5t-86 3t-74.5 1q-68 0 -155 -4t-155 -8z" />
<glyph unicode="&#xbe;" horiz-adv-x="1644" d="M33 559l35 135h55q23 -23 61.5 -45t87.5 -22q74 0 117 41t43 104q0 76 -37 103.5t-82 27.5q-20 0 -60 -10t-79 -21q27 78 27 91q0 10 -7.5 36.5t-23.5 73.5q57 -27 88 -37t41 -10q29 0 47.5 12.5t29.5 33t16 44t5 45.5q0 47 -27.5 70.5t-64.5 23.5t-67.5 -25.5 t-42.5 -58.5l-64 -2l-51 111q18 16 41.5 34.5t54.5 33t70 23.5t88 9q55 0 102 -13t82 -38.5t55.5 -65.5t20.5 -94q0 -61 -26.5 -108t-65.5 -76q57 -23 96 -68t39 -131q0 -129 -98.5 -206.5t-262.5 -77.5q-74 0 -135 17.5t-108 39.5zM440 -84l580 1499q55 -23 70 -22 q4 0 33.5 11t76.5 28l-579 -1498q-57 20 -68 21q-12 0 -113 -39zM905 199v98q102 135 215 281.5t219 281.5q39 -14 66 -14q10 0 36.5 6t55.5 16q-8 -125 -10 -255t-2 -253q25 4 58.5 10.5t66.5 14.5q-10 -33 -15.5 -60.5t-5.5 -37.5t5 -36t14 -54q-23 2 -55.5 7t-67.5 5 q0 -55 2 -118.5t6 -110.5q-35 10 -61.5 15t-42.5 5t-44 -5t-63 -15q4 55 9 114.5t5 114.5q-55 0 -113.5 -1t-111.5 -3t-97 -3t-69 -3zM1124 358h172v230q-4 -2 -5 -4t-3 -4v2q-41 -55 -85 -112.5t-79 -111.5z" />
<glyph unicode="&#xbf;" horiz-adv-x="585" d="M4 -145q0 61 17.5 112t47 96.5t65.5 85t73 76.5q55 55 98 108.5t43 112.5q0 25 -15.5 49.5t-45.5 24.5q-16 0 -37 -9t-31 -15l-69 41q14 18 28.5 47.5t18.5 48.5q25 10 50 15t54 5t71 -13t81 -43t66.5 -79t27.5 -119q0 -57 -16.5 -104t-44 -88t-61.5 -78t-69 -72 q-55 -55 -99 -109t-44 -118q0 -57 40 -89t87 -32q43 0 97.5 41t107.5 107l24 -213q-49 -31 -107.5 -57.5t-131.5 -26.5q-80 0 -140.5 23.5t-101.5 63.5t-62.5 94t-21.5 114zM182 864q0 61 44 105.5t106 44.5q59 0 104 -44t45 -106q0 -61 -45 -105t-104 -44q-61 0 -105.5 44 t-44.5 105z" />
<glyph unicode="&#xc0;" horiz-adv-x="1355" d="M8 -25q78 170 161 354.5t166 372t165 371.5t155 357h52l-275 174q-29 20 -57.5 46.5t-28.5 78.5q0 49 36 74.5t67 25.5t58.5 -16.5t55.5 -40.5l350 -357h-165q33 -78 73.5 -174t77.5 -186q61 -150 132 -315t136.5 -314.5t118.5 -269t82 -176.5q-59 10 -102 15t-68 5 q-23 0 -55.5 -4t-75.5 -12q-25 92 -69 205.5t-91 226.5q-12 31 -19 49t-18 47q-57 2 -113.5 2h-115.5h-104t-105 -2q-61 -154 -112.5 -292t-75.5 -236q-61 16 -99 16q-16 0 -53 -7t-84 -18zM498 674h49q27 -2 52.5 -2h51.5h45.5h35t34.5 1t45 1l-158 360q-20 -47 -38.5 -90 l-37 -86t-38 -88t-41.5 -96z" />
<glyph unicode="&#xc1;" horiz-adv-x="1357" d="M-10 -25q76 168 158.5 350.5t165.5 369t163 369.5t154 353q0 -2 -2 -2h-187l353 357q25 25 53.5 41t58.5 16q31 0 67 -25.5t36 -74.5q0 -51 -29 -78t-57 -47q-68 -41 -137.5 -86t-135.5 -88h72q35 -80 77 -180.5t81 -194.5q61 -150 131.5 -315t136 -314.5t119 -269 t82.5 -176.5q-59 10 -102.5 15t-67.5 5q-23 0 -55.5 -4t-75.5 -12q-25 92 -69 205.5t-91 226.5q-12 31 -19.5 49t-17.5 47q-57 2 -113.5 2h-115.5h-104.5t-104.5 -2q-61 -154 -112.5 -292t-76.5 -236q-61 16 -98 16q-16 0 -53 -7t-84 -18zM479 674h49q27 -2 52.5 -2h52.5h45 h34.5t35 1t45.5 1l-158 360q-20 -47 -38.5 -90l-37 -86t-38 -88t-42.5 -96z" />
<glyph unicode="&#xc2;" horiz-adv-x="1368" d="M4 -25q78 170 161 354.5t166 372t165 371.5t155 357h86q35 -80 77 -180.5t81 -194.5q61 -150 132 -315t136.5 -314.5t118.5 -269t82 -176.5q-59 10 -102 15t-68 5q-23 0 -55.5 -4t-75.5 -12q-25 92 -69 205.5t-91 226.5q-12 31 -19 49t-18 47q-57 2 -113.5 2h-115.5 h-104.5t-104.5 -2q-61 -154 -112.5 -292t-75.5 -236q-61 16 -99 16q-16 0 -53 -7t-84 -18zM303 1415l295 402h170l295 -402h-162l-219 193q-51 -45 -110.5 -96.5t-106.5 -96.5h-162zM494 674h49q27 -2 52.5 -2h51.5h45.5h34.5t34.5 1t45.5 1l-158 360q-20 -47 -38.5 -90 l-37 -86t-38 -88t-41.5 -96z" />
<glyph unicode="&#xc3;" horiz-adv-x="1355" d="M-2 -25q78 170 161 354.5t166 372t164.5 371.5t155.5 357h86q35 -80 77 -180.5t81 -194.5q61 -150 132 -315t136.5 -314.5t118.5 -269t82 -176.5q-59 10 -102.5 15t-67.5 5q-23 0 -55.5 -4t-75.5 -12q-25 92 -69 205.5t-91 226.5q-12 31 -19.5 49t-17.5 47 q-57 2 -113.5 2h-115.5h-104.5t-104.5 -2q-61 -154 -112.5 -292t-76.5 -236q-61 16 -98 16q-16 0 -53 -7t-84 -18zM311 1464q8 47 26.5 96.5t49.5 89.5t74 65.5t98 25.5q20 0 36.5 -2t34 -7.5t39 -14.5t50.5 -23q49 -25 69.5 -33t40.5 -8q29 0 49.5 29.5t32.5 66.5h131 q-6 -31 -21 -80t-45 -94t-77 -78t-115 -33q-61 0 -159 49q-45 23 -67.5 32t-39.5 9q-29 0 -43 -19t-31 -71h-133zM487 674h50q27 -2 52 -2h52h45.5h34.5t34.5 1t45.5 1l-158 360q-20 -47 -38.5 -90l-37 -86t-38 -88t-42.5 -96z" />
<glyph unicode="&#xc4;" horiz-adv-x="1353" d="M-2 -25q78 170 161 354.5t166 372t164.5 371.5t155.5 357h86q35 -80 77 -180.5t81 -194.5q61 -150 132 -315t136.5 -314.5t118.5 -269t82 -176.5q-59 10 -102.5 15t-67.5 5q-23 0 -55.5 -4t-75.5 -12q-25 92 -69 205.5t-91 226.5q-12 31 -19.5 49t-17.5 47 q-57 2 -113.5 2h-115.5h-104.5t-104.5 -2q-61 -154 -112.5 -292t-76.5 -236q-61 16 -98 16q-16 0 -53 -7t-84 -18zM348 1606q0 57 40 97t97 40t98.5 -40t41.5 -97t-41 -97.5t-99 -40.5q-57 0 -97 40.5t-40 97.5zM487 674h50q27 -2 52 -2h52h45.5h34.5t34.5 1t45.5 1 l-158 360q-20 -47 -38.5 -90l-37 -86t-38 -88t-42.5 -96zM731 1606q0 57 40 97t97 40t97.5 -40t40.5 -97t-40 -97.5t-98 -40.5q-57 0 -97 40.5t-40 97.5z" />
<glyph unicode="&#xc5;" horiz-adv-x="1366" d="M4 -25q76 164 156 343.5t161.5 360.5t160.5 361.5t151 348.5q-80 18 -133.5 82.5t-53.5 150.5q0 49 18.5 91t51.5 75t76 51.5t92 18.5t91 -18.5t75 -51.5t51.5 -75t18.5 -91q0 -80 -48.5 -142.5t-119.5 -84.5q33 -76 70.5 -166l72.5 -174q61 -150 132 -315t136.5 -314.5 t118.5 -269t82 -176.5q-59 10 -102 15t-68 5q-23 0 -55.5 -4t-75.5 -12q-25 92 -69 205.5t-91 226.5q-12 31 -19 49t-18 47q-57 2 -113.5 2h-115.5h-104.5t-104.5 -2q-61 -154 -112.5 -292t-75.5 -236q-61 16 -99 16q-16 0 -53 -7t-84 -18zM494 674h49q27 -2 52.5 -2h51.5 h45.5h34.5t34.5 1t45.5 1l-158 360q-20 -47 -38.5 -90l-37 -86t-38 -88t-41.5 -96zM604 1622q0 -33 22.5 -55.5t55.5 -22.5q35 0 57.5 22.5t22.5 55.5t-22.5 55.5t-55.5 22.5q-35 0 -57.5 -22.5t-22.5 -55.5z" />
<glyph unicode="&#xc6;" horiz-adv-x="1697" d="M-25 -29q59 84 133 191.5t155 230.5t166 255l170 264t165 258t149 237q82 -4 174.5 -8t174.5 -4q41 0 90 1t99 3t98 5t87 5q-23 -74 -22 -102q0 -12 7 -42t19 -71q-43 8 -83.5 15.5t-94 13.5t-126 10t-179.5 4q0 -12 -1 -24.5t-3 -22.5q-2 -61 -3 -127t-1 -127v-121 q92 0 153.5 1t102.5 3t66.5 4t48.5 4h14t25.5 1t24.5 1h15q-12 -35 -18 -59.5t-6 -34.5q0 -8 6 -32.5t18 -59.5h-15t-25.5 1t-26.5 1h-14q-23 2 -48.5 4t-67.5 4t-102.5 3t-150.5 1v-157q0 -72 1 -142.5t3 -142.5q2 -18 3 -25.5t1 -29.5q188 2 309 11t187 19 q-12 -37 -19.5 -64.5t-7.5 -39.5t7 -37.5t18 -60.5q-43 2 -93.5 4t-101.5 4t-100 3t-90 1q-84 0 -186.5 -4t-186.5 -8q12 141 15 259t3 230l-387 10q-72 -119 -139.5 -243.5t-130.5 -259.5q-35 8 -59.5 12t-42.5 4q-16 0 -63.5 -8t-113.5 -21zM616 645q74 -2 143.5 -3 t151.5 -5v477q-78 -121 -145.5 -230.5t-149.5 -238.5z" />
<glyph unicode="&#xc7;" horiz-adv-x="1288" d="M31 698q0 174 56 310.5t157.5 229.5t242 142.5t310.5 49.5q129 0 253 -32t222 -79q-23 -43 -36 -88t-19 -76q0 -8 -1.5 -24.5t-1.5 -18.5l-67 -4q-20 23 -54 52.5t-79 56t-100.5 45t-116.5 18.5q-106 0 -197.5 -35t-158 -105.5t-104.5 -181t-38 -260.5q0 -152 38 -261 t104.5 -181t157.5 -106.5t198 -34.5q63 0 122.5 18.5t110.5 45t92 56t72 52.5l47 -47l-24 -148q-20 -16 -62.5 -37.5t-101 -41t-128 -34t-145.5 -14.5q-4 -8 -4 -14t-4 -17q92 0 144.5 -48t52.5 -128q0 -51 -21.5 -89t-58.5 -63.5t-85 -38.5t-104 -13q-68 0 -126 17t-99 32 l57 135q33 -12 77 -23.5t85 -11.5q33 0 55.5 11.5t22.5 31.5t-18.5 29.5t-42.5 9.5q-51 0 -86 -25l-58 56l66 157q-133 20 -243.5 79t-190.5 151t-124 217t-44 278z" />
<glyph unicode="&#xc8;" horiz-adv-x="823" d="M55 -12q6 129 12.5 274.5t6.5 269.5v334q0 125 -6.5 270.5t-12.5 270.5q88 -4 194.5 -8t192.5 -4q43 0 94.5 1t103.5 3t102.5 4t93.5 4q-6 -41 -10.5 -64.5t-4.5 -33.5t4 -35t11 -66q-14 0 -35 2t-43.5 3t-42 3.5t-31.5 2.5q-41 4 -80 7t-82 5t-93 4t-112 2 q0 -20 -1 -29.5t-3 -27.5q-2 -33 -3 -72t-1 -80q0 -45 1 -88t1 -82v-47q154 2 268.5 8t213.5 17q-8 -41 -12.5 -67t-4.5 -36q0 -14 4 -38.5t13 -65.5q-59 6 -127 10t-134.5 7t-125 5t-97.5 2v-241v-164t2 -88q61 0 130 1t138.5 4t138 11t132.5 21q-10 -43 -15.5 -73 t-5.5 -38q0 -16 19 -98q-43 2 -94.5 4t-104.5 4t-104 3t-96 1q-90 0 -197 -4t-197 -8zM96 1729q0 49 36 74.5t67 25.5t59.5 -16.5t54.5 -40.5l351 -357h-187l-293 189q-29 20 -58.5 46.5t-29.5 78.5z" />
<glyph unicode="&#xc9;" horiz-adv-x="821" d="M33 -12q6 129 12 274.5t6 269.5v334q0 125 -6 270.5t-12 270.5q88 -4 194.5 -8t192.5 -4q43 0 94 1t103.5 3t102.5 4t93 4q-6 -41 -10 -64.5t-4 -33.5t4 -35t10 -66q-14 0 -34.5 2t-43 3t-42 3.5t-31.5 2.5q-41 4 -80 7t-82 5t-93.5 4t-111.5 2q0 -20 -1 -29.5t-3 -27.5 q-2 -33 -3 -72t-1 -80q0 -45 1 -88t1 -82v-47q154 2 268.5 8t212.5 17q-8 -41 -12 -67t-4 -36q0 -14 4 -38.5t12 -65.5q-59 6 -127 10t-134.5 7t-124.5 5t-97 2v-241v-164t2 -88q61 0 129.5 1t138.5 4t138.5 11t131.5 21q-10 -43 -15 -73t-5 -38q0 -16 18 -98q-43 2 -94 4 t-104.5 4t-104.5 3t-96 1q-90 0 -196.5 -4t-196.5 -8zM190 1415l351 357q25 25 54.5 41t59.5 16q31 0 67 -25.5t36 -74.5q0 -51 -30 -78t-58 -47q-72 -45 -146.5 -93.5t-146.5 -95.5h-187z" />
<glyph unicode="&#xca;" horiz-adv-x="835" d="M51 -12q6 129 12.5 274.5t6.5 269.5v334q0 125 -6.5 270.5t-12.5 270.5q88 -4 194.5 -8t192.5 -4q43 0 94.5 1t103.5 3t102 4t93 4q-6 -41 -10 -64.5t-4 -33.5t4 -35t10 -66q-14 0 -34.5 2t-43 3t-42 3.5t-31.5 2.5q-41 4 -80 7t-82 5t-93 4t-112 2q0 -20 -1 -29.5 t-3 -27.5q-2 -33 -3 -72t-1 -80q0 -45 1 -88t1 -82v-47q154 2 268.5 8t212.5 17q-8 -41 -12 -67t-4 -36q0 -14 4 -38.5t12 -65.5q-59 6 -126.5 10t-134 7t-125 5t-97.5 2v-241v-164t2 -88q61 0 130 1t138.5 4t138 11t132.5 21q-10 -43 -15.5 -73t-5.5 -38q0 -16 19 -98 q-43 2 -94.5 4t-104.5 4t-104.5 3t-96.5 1q-90 0 -196.5 -4t-196.5 -8zM53 1415l297 402h168l297 -402h-164l-219 193q-51 -45 -109.5 -96.5t-107.5 -96.5h-162z" />
<glyph unicode="&#xcb;" horiz-adv-x="833" d="M51 -12q6 129 12.5 274.5t6.5 269.5v334q0 125 -6.5 270.5t-12.5 270.5q88 -4 194.5 -8t192.5 -4q43 0 94.5 1t103.5 3t102 4t93 4q-6 -41 -10 -64.5t-4 -33.5t4 -35t10 -66q-14 0 -34.5 2t-43 3t-42 3.5t-31.5 2.5q-41 4 -80 7t-82 5t-93 4t-112 2q0 -20 -1 -29.5 t-3 -27.5q-2 -33 -3 -72t-1 -80q0 -45 1 -88t1 -82v-47q154 2 268.5 8t212.5 17q-8 -41 -12 -67t-4 -36q0 -14 4 -38.5t12 -65.5q-59 6 -126.5 10t-134 7t-125 5t-97.5 2v-241v-164t2 -88q61 0 130 1t138.5 4t138 11t132.5 21q-10 -43 -15.5 -73t-5.5 -38q0 -16 19 -98 q-43 2 -94.5 4t-104.5 4t-104.5 3t-96.5 1q-90 0 -196.5 -4t-196.5 -8zM106 1606q0 57 40 97t98 40q57 0 97 -40t40 -97t-40 -97.5t-97 -40.5t-97.5 40.5t-40.5 97.5zM487 1606q0 57 40 97t98 40q57 0 97 -40t40 -97t-40 -97.5t-97 -40.5t-97.5 40.5t-40.5 97.5z" />
<glyph unicode="&#xcc;" horiz-adv-x="520" d="M-10 1729q0 49 35.5 74.5t66.5 25.5t59.5 -16.5t55.5 -40.5l350 -357h-186l-295 189q-29 20 -57.5 46.5t-28.5 78.5zM195 -18q2 63 6 132.5t6 141.5t4 142.5t2 131.5v334q0 61 -2 132t-4 142.5t-6 141.5t-6 133q45 -8 79.5 -13t55.5 -5q23 0 56.5 5t80.5 13 q-4 -63 -7 -133t-5 -141.5t-4 -142t-2 -132.5v-334q0 -61 2 -131.5t4 -142.5t5 -141.5t7 -132.5q-47 8 -81 13t-56 5q-20 0 -55 -5t-80 -13z" />
<glyph unicode="&#xcd;" horiz-adv-x="518" d="M-39 1415l350 357q25 25 54.5 41t60.5 16t66.5 -25.5t35.5 -74.5q0 -51 -29.5 -78t-58.5 -47q-72 -45 -146.5 -93.5t-146.5 -95.5h-186zM49 -18q2 63 6 132.5t6 141.5t4.5 142.5t2.5 131.5v334q0 61 -2.5 132t-4.5 142.5t-6 141.5t-6 133q47 -8 81 -13t56 -5q20 0 55 5 t81 13q-4 -63 -7.5 -133t-5.5 -141.5t-4 -142t-2 -132.5v-334q0 -61 2 -131.5t4 -142.5t5 -141.5t8 -132.5q-45 8 -80 13t-56 5q-23 0 -56.5 -5t-80.5 -13z" />
<glyph unicode="&#xce;" d="M-37 1415l295 402h170l295 -402h-162l-219 193q-51 -45 -110.5 -96.5t-106.5 -96.5h-162zM207 -18q6 127 11 275.5t5 272.5v334q0 125 -5 273.5t-11 275.5q45 -8 80 -13t55 -5t55 5t80 13q-6 -127 -11 -275.5t-5 -273.5v-334q0 -125 5 -273t11 -275q-45 8 -80 13t-55 5 t-55 -5t-80 -13z" />
<glyph unicode="&#xcf;" horiz-adv-x="653" d="M-2 1606q0 57 40 97t97 40t97 -40t40 -97t-39.5 -97.5t-97.5 -40.5q-57 0 -97 40.5t-40 97.5zM190 -18q6 127 11.5 275.5t5.5 272.5v334q0 125 -5 273.5t-12 275.5q45 -8 80 -13t56 -5q20 0 55 5t80 13q-6 -127 -11.5 -275.5t-5.5 -273.5v-334q0 -125 5.5 -273t11.5 -275 q-45 8 -80 13t-55 5t-55 -5t-81 -13zM379 1606q0 57 41 97t98 40t97 -40t40 -97t-40 -97.5t-97 -40.5t-98 40.5t-41 97.5z" />
<glyph unicode="&#xd0;" horiz-adv-x="1597" d="M47 864q53 -4 102.5 -6t94.5 -2v8q0 125 -6.5 270.5t-10.5 272.5q37 -2 79 -4t87 -4t87 -3t79 -1t73 1t70 3q37 2 76 4t74 2q180 0 309 -47t211 -135t120 -214t38 -284q0 -205 -70.5 -345t-180.5 -227t-241 -125t-252 -38q-35 0 -66.5 1t-64.5 3t-64.5 4t-64.5 2 q-66 0 -149.5 -4t-149.5 -8q4 127 10.5 272.5t6.5 269.5v177q-47 0 -97.5 -1t-97.5 -6q4 27 6 49.5t2 32.5zM481 530q0 -104 2 -190t6 -186q43 -6 100.5 -10.5t117.5 -4.5q100 0 199.5 23.5t179 88t129 179.5t49.5 295q0 156 -39 257t-106.5 159.5t-162 81t-204.5 22.5 q-70 0 -138.5 -5t-124.5 -9q-4 -86 -6 -179.5t-2 -187.5v-8q45 0 95.5 1t100.5 2t98 2t89 3q-18 -66 -18 -82t18 -84q-90 4 -190.5 6.5t-192.5 2.5v-177z" />
<glyph unicode="&#xd1;" horiz-adv-x="1353" d="M47 -20q4 29 10 88t12.5 137t11.5 168t9 180t6 173t2 146v178.5t-1 160t-3 130t-4 89.5h90q20 -23 46 -51.5t48 -51.5q115 -125 228.5 -249t220 -239.5t204 -218t177.5 -184.5q0 123 -1 253t-3 257t-5 247t-10 222q35 -10 64 -15t45 -5q12 0 39 6t67 16q-6 -51 -12 -145 t-11 -198.5t-9 -203t-4 -153.5v-118v-144.5t1 -153.5t1 -145.5t1 -117.5t1 -73h-82q-205 240 -441.5 495t-468.5 501l-14 18q-2 -53 -3 -125t-1 -172q0 -61 2 -162.5t5 -208t7 -199t11 -135.5q-41 10 -70 16.5t-45 6.5t-48 -5t-73 -15zM342 1464q8 47 26.5 96.5t49.5 89.5 t74 65.5t98 25.5q20 0 36.5 -2t34 -7.5t39 -14.5t50.5 -23q49 -25 70.5 -33t39.5 -8q29 0 49.5 29.5t32.5 66.5h131q-6 -31 -21.5 -80t-45 -94t-76.5 -78t-115 -33q-61 0 -160 49q-45 23 -67.5 32t-38.5 9q-29 0 -43 -19t-31 -71h-133z" />
<glyph unicode="&#xd2;" horiz-adv-x="1624" d="M51 698q0 174 56.5 310.5t158 229.5t241.5 142.5t308 49.5q4 0 9 -1.5t10 -1.5l-273 177q-29 20 -57.5 46.5t-28.5 78.5q0 49 36 74.5t67 25.5t58.5 -16.5t53.5 -40.5l352 -357h-59q135 -23 244.5 -81t188.5 -148t122 -213t43 -275q0 -174 -56.5 -310t-157.5 -230.5 t-242.5 -143.5t-309.5 -49t-308 49t-241.5 143.5t-158 230.5t-56.5 310zM319 698q0 -152 38 -261t104.5 -181t158 -106.5t195.5 -34.5q106 0 197.5 34.5t158 106.5t104.5 181t38 261q0 150 -38 260.5t-104.5 181t-157.5 105.5t-198 35q-104 0 -195.5 -35t-158 -105.5 t-104.5 -181t-38 -260.5z" />
<glyph unicode="&#xd3;" horiz-adv-x="1624" d="M43 698q0 152 43 275t121 213t187.5 148.5t244.5 80.5h-57l350 357q27 25 55.5 41t59.5 16t66.5 -25.5t35.5 -74.5q0 -51 -28.5 -78t-57.5 -47q-68 -41 -137.5 -86t-137.5 -91q4 0 9.5 1.5t9.5 1.5q168 0 309 -49.5t242.5 -142.5t158 -229.5t56.5 -310.5t-56.5 -310 t-158 -230.5t-242.5 -143.5t-309 -49t-308.5 49t-241.5 143.5t-157.5 230.5t-56.5 310zM311 698q0 -152 38 -261t104.5 -181t157.5 -106.5t196 -34.5q106 0 197.5 34.5t158 106.5t104.5 181t38 261q0 150 -38 260.5t-104.5 181t-158 105.5t-197.5 35q-104 0 -195.5 -35 t-158 -105.5t-104.5 -181t-38 -260.5z" />
<glyph unicode="&#xd4;" horiz-adv-x="1632" d="M51 698q0 174 56.5 310.5t158 229.5t241.5 142.5t308 49.5t309.5 -49.5t242.5 -142.5t157.5 -229.5t56.5 -310.5t-56.5 -310t-157.5 -230.5t-242.5 -143.5t-309.5 -49t-308 49t-241.5 143.5t-158 230.5t-56.5 310zM319 698q0 -152 38 -261t104.5 -181t158 -106.5 t195.5 -34.5q106 0 197.5 34.5t158 106.5t104.5 181t38 261q0 150 -38 260.5t-104.5 181t-157.5 105.5t-198 35q-104 0 -195.5 -35t-158 -105.5t-104.5 -181t-38 -260.5zM436 1415l295 402h170l295 -402h-162l-219 193q-51 -45 -110.5 -96.5t-106.5 -96.5h-162z" />
<glyph unicode="&#xd5;" horiz-adv-x="1632" d="M51 698q0 174 56.5 310.5t158 229.5t241.5 142.5t308 49.5t309.5 -49.5t242.5 -142.5t157.5 -229.5t56.5 -310.5t-56.5 -310t-157.5 -230.5t-242.5 -143.5t-309.5 -49t-308 49t-241.5 143.5t-158 230.5t-56.5 310zM319 698q0 -152 38 -261t104.5 -181t158 -106.5 t195.5 -34.5q106 0 197.5 34.5t158 106.5t104.5 181t38 261q0 150 -38 260.5t-104.5 181t-157.5 105.5t-198 35q-104 0 -195.5 -35t-158 -105.5t-104.5 -181t-38 -260.5zM451 1464q8 47 26.5 96.5t49 89.5t73.5 65.5t98 25.5q20 0 37 -2t34 -7.5t38.5 -14.5t50.5 -23 q49 -25 69.5 -33t41.5 -8q29 0 49 29.5t31 66.5h133q-6 -31 -21.5 -80t-45.5 -94t-77 -78t-114 -33q-61 0 -160 49q-45 23 -67.5 32t-39.5 9q-29 0 -43 -19t-32 -71h-131z" />
<glyph unicode="&#xd6;" horiz-adv-x="1632" d="M51 698q0 174 56.5 310.5t158 229.5t241.5 142.5t308 49.5t309.5 -49.5t242.5 -142.5t157.5 -229.5t56.5 -310.5t-56.5 -310t-157.5 -230.5t-242.5 -143.5t-309.5 -49t-308 49t-241.5 143.5t-158 230.5t-56.5 310zM319 698q0 -152 38 -261t104.5 -181t158 -106.5 t195.5 -34.5q106 0 197.5 34.5t158 106.5t104.5 181t38 261q0 150 -38 260.5t-104.5 181t-157.5 105.5t-198 35q-104 0 -195.5 -35t-158 -105.5t-104.5 -181t-38 -260.5zM487 1606q0 57 40 97t98 40q57 0 97 -40t40 -97t-40 -97.5t-97 -40.5t-97.5 40.5t-40.5 97.5z M868 1606q0 57 41 97t99 40q57 0 97 -40t40 -97t-40 -97.5t-97 -40.5t-98.5 40.5t-41.5 97.5z" />
<glyph unicode="&#xd7;" horiz-adv-x="1060" d="M47 172l359 356l-359 359l127 125l356 -357q86 86 180.5 179.5t178.5 177.5l125 -125l-359 -359l359 -356l-125 -125l-359 356l-356 -356z" />
<glyph unicode="&#xd8;" horiz-adv-x="1656" d="M63 698q0 174 56.5 310.5t158 229.5t241.5 142.5t308 49.5q137 0 252 -30t209 -93q20 23 45 53.5t48.5 61t43 59t29.5 47.5q25 -31 59.5 -61.5t67.5 -51.5q-16 -12 -40.5 -35.5t-51.5 -49t-53.5 -53.5t-46.5 -50q94 -94 149 -228.5t55 -300.5q0 -174 -56 -310 t-157.5 -230.5t-243 -143.5t-309.5 -49q-131 0 -245.5 31t-206.5 90q-20 -23 -44 -51.5t-48.5 -58t-46 -60.5t-37.5 -57q-49 68 -127 108q18 14 43.5 38t53.5 51.5t54.5 56t46.5 53.5q-98 94 -152.5 228t-54.5 304zM332 698q0 -117 21.5 -209t62.5 -159l745 835 q-63 59 -148 87t-186 28q-104 0 -195 -35t-157.5 -105.5t-104.5 -181t-38 -260.5zM500 229q66 -59 149.5 -86.5t177.5 -27.5q106 0 197.5 34.5t158 106.5t104.5 181.5t38 260.5q0 221 -82 361z" />
<glyph unicode="&#xd9;" horiz-adv-x="1316" d="M57 1392.5v20.5q41 -8 79 -13t61 -5t57.5 5t71.5 15q-6 -53 -11.5 -132t-10.5 -173t-7 -198.5t-2 -211.5q0 -92 6 -192t43 -183t117 -137.5t227 -54.5q145 0 224 62.5t115 153.5t42 195.5t6 190.5v243.5t-2 187.5t-6 141.5t-12 107.5q41 -10 73.5 -15t53.5 -5 q10 0 37.5 8t64.5 18q-6 -68 -12 -171t-12.5 -221t-10.5 -239.5t-6 -228.5q-2 -137 -42 -246.5t-114.5 -187.5t-184 -120t-251.5 -42q-307 0 -449.5 145.5t-142.5 446.5q0 49 2 91t5 83q2 35 3 66.5t1 66.5q0 137 -3.5 250t-7.5 197v22.5t-1 29.5t-1 29.5zM328 1729 q0 49 35.5 74.5t66.5 25.5t58.5 -16.5t56.5 -40.5l350 -357h-186l-295 189q-29 20 -57.5 46.5t-28.5 78.5z" />
<glyph unicode="&#xda;" horiz-adv-x="1314" d="M43 1392.5v20.5q41 -8 79 -13t60 -5q23 0 57.5 5t71.5 15q-6 -53 -11 -132t-10 -173t-7 -198.5t-2 -211.5q0 -92 6 -192t43 -183t116.5 -137.5t227.5 -54.5q145 0 224 62.5t115 153.5t42 195.5t6 190.5v243.5t-2 187.5t-6 141.5t-13 107.5q41 -10 74 -15t53 -5q10 0 38 8 t65 18q-6 -68 -12.5 -171t-12.5 -221t-10 -239.5t-6 -228.5q-2 -137 -42 -246.5t-115 -187.5t-184.5 -120t-250.5 -42q-307 0 -449.5 145.5t-142.5 446.5q0 49 2 91t4 83q2 35 3 66.5t1 66.5q0 137 -3 250t-7 197v22.5t-1 29.5t-1 29.5zM428 1415l352 357q25 25 53.5 41 t59.5 16t66.5 -25.5t35.5 -74.5q0 -51 -28.5 -78t-57.5 -47q-72 -45 -147.5 -93.5t-147.5 -95.5h-186z" />
<glyph unicode="&#xdb;" horiz-adv-x="1325" d="M55 1392.5v20.5q41 -8 79 -13t61 -5t57.5 5t71.5 15q-6 -53 -11.5 -132t-10.5 -173t-7 -198.5t-2 -211.5q0 -92 6 -192t43 -183t117 -137.5t227 -54.5q145 0 224 62.5t115 153.5t42 195.5t6 190.5v243.5t-2 187.5t-6 141.5t-12 107.5q41 -10 73.5 -15t53.5 -5 q10 0 37.5 8t64.5 18q-6 -68 -12 -171t-12.5 -221t-10.5 -239.5t-6 -228.5q-2 -137 -42 -246.5t-114.5 -187.5t-184 -120t-251.5 -42q-307 0 -449.5 145.5t-142.5 446.5q0 49 2 91t4 83q2 35 3.5 66.5t1.5 66.5q0 137 -3.5 250t-7.5 197v22.5t-1 29.5t-1 29.5zM287 1415 l295 402h170l295 -402h-162l-219 193q-51 -45 -110.5 -96.5t-106.5 -96.5h-162z" />
<glyph unicode="&#xdc;" horiz-adv-x="1327" d="M55 1392.5v20.5q41 -8 79 -13t61 -5t57.5 5t71.5 15q-6 -53 -11.5 -132t-10.5 -173t-7 -198.5t-2 -211.5q0 -92 6 -192t43 -183t117 -137.5t227 -54.5q145 0 224 62.5t115 153.5t42 195.5t6 190.5v243.5t-2 187.5t-6 141.5t-12 107.5q41 -10 73.5 -15t53.5 -5 q10 0 37.5 8t64.5 18q-6 -68 -12 -171t-12.5 -221t-10.5 -239.5t-6 -228.5q-2 -137 -42 -246.5t-114.5 -187.5t-184 -120t-251.5 -42q-307 0 -449.5 145.5t-142.5 446.5q0 49 2 91t4 83q2 35 3.5 66.5t1.5 66.5q0 137 -3.5 250t-7.5 197v22.5t-1 29.5t-1 29.5zM338 1606 q0 57 40 97t97 40t98 -40t41 -97t-41 -97.5t-98 -40.5t-97 40.5t-40 97.5zM721 1606q0 57 40 97t97 40t97 -40t40 -97t-40 -97.5t-97 -40.5t-97 40.5t-40 97.5z" />
<glyph unicode="&#xdd;" horiz-adv-x="1191" d="M-39 1419q68 -10 118 -17t71 -7q25 0 58.5 4t70.5 10q43 -84 82.5 -162t81.5 -154.5t87 -156.5t95 -166q41 68 85 146.5t89 161.5t88 168t82 165q61 -16 98 -16q20 0 62 8t98 20q-104 -160 -187.5 -287.5t-146 -229t-107.5 -179.5t-73 -135q0 -72 1 -155t3 -166t6 -158.5 t8 -130.5q-45 8 -80 13t-57 5q-16 0 -52 -5t-87 -13q16 139 18 286.5t2 300.5q-20 37 -62 106.5t-92.5 153.5t-105.5 176.5t-105.5 174.5t-90 145.5t-58.5 93.5zM367 1397l352 354q25 25 53.5 42t58.5 17q31 0 67 -26.5t36 -75.5q0 -51 -28.5 -77.5t-57.5 -45.5 q-72 -47 -147.5 -95t-147.5 -93h-186z" />
<glyph unicode="&#xde;" horiz-adv-x="970" d="M70 -18q2 63 5 132.5t5 141.5t4 142.5t2 131.5v334q0 61 -2 132t-4 142.5t-5 141.5t-5 133q45 -8 79.5 -13t55.5 -5q23 0 57.5 5t79.5 13q-6 -66 -12 -131t-6 -131h198q106 0 190.5 -22.5t143.5 -68.5t91 -117t32 -169q0 -119 -45 -196.5t-119 -123.5t-166 -64.5 t-184 -18.5h-44.5h-32.5t-29.5 1t-34.5 3v-68q0 -82 6 -171t22 -154q-51 8 -89 13t-58 5t-55 -5t-80 -13zM324 522q23 -2 51 -2h59q55 0 107.5 15.5t92.5 46t64.5 78t24.5 112.5q0 41 -13.5 82t-45 74t-83 53t-124.5 20h-133v-479z" />
<glyph unicode="&#xdf;" horiz-adv-x="1060" d="M53 -18q6 61 10.5 138t6.5 157.5t3 161.5t1 149v237q0 61 -1 107.5t-3 79.5q0 16 -1 28.5t-1 18.5q0 131 41 222t104 148.5t139 84t148 26.5q49 0 106.5 -18.5t104.5 -52t78.5 -82t31.5 -105.5q0 -47 -13 -87t-33.5 -76t-47.5 -67.5t-51 -60.5q-33 -35 -58.5 -67.5 t-25.5 -61.5q0 -41 50 -81t106 -74q45 -29 90 -61t81.5 -71.5t60.5 -89t24 -112.5q0 -70 -35 -141.5t-92.5 -129t-134 -94.5t-158.5 -37q-68 0 -132.5 20.5t-113.5 49.5q23 35 36 83t17 83h66q20 -35 67 -60.5t99 -25.5q33 0 63.5 11t55 32.5t39 52.5t14.5 70t-17.5 71.5 t-46.5 61.5t-63.5 53.5t-71.5 48.5q-41 27 -79 54.5t-67.5 60.5t-48 70.5t-18.5 87.5q0 63 37 115.5t88 105.5q49 53 92 112.5t43 131.5q0 61 -41 101t-113 40q-113 0 -153.5 -92t-40.5 -267v-454q0 -68 1 -149t2 -161.5t5 -157.5t10 -138q-43 8 -76.5 13t-52.5 5 q-20 0 -53 -5t-78 -13z" />
<glyph unicode="&#xe0;" horiz-adv-x="948" d="M41 248q0 135 83 208.5t224 96.5q94 14 146.5 24.5t77 19.5t29.5 21.5t5 30.5q0 41 -9 78t-30.5 65.5t-54.5 45t-80 16.5q-68 0 -127 -34t-94 -97h-84v158q104 78 185 105.5t165 27.5q78 0 143.5 -23.5t111.5 -66.5t71.5 -102.5t25.5 -133.5v-107.5t-2 -107.5t-3 -116.5 t-1 -120.5q0 -16 1 -35t4 -34t10.5 -25.5t21.5 -10.5q4 0 18.5 4t59.5 31v-133q-29 -12 -75 -26.5t-87 -14.5q-57 0 -94 24.5t-59 63.5q-59 -51 -128 -80t-157 -29q-55 0 -109.5 19.5t-95.5 55.5t-66.5 87t-25.5 115zM143 1395q0 49 36 74.5t67 25.5t59.5 -16.5t54.5 -40.5 l351 -355h-187l-295 189q-29 18 -57.5 44.5t-28.5 78.5zM279 274q0 -72 39.5 -108.5t89.5 -36.5q61 0 111 32t79 77l8 229q-16 -4 -32.5 -7t-30.5 -7q-45 -8 -92.5 -18.5t-85 -30t-62 -50t-24.5 -80.5z" />
<glyph unicode="&#xe1;" horiz-adv-x="940" d="M10 248q0 135 83 208.5t224 96.5q94 14 146.5 24.5t77 19.5t29.5 21.5t5 30.5q0 41 -9 78t-30.5 65.5t-54 45t-80.5 16.5q-68 0 -127 -34t-94 -97h-84v158q104 78 185 105.5t165 27.5q78 0 143.5 -23.5t112 -66.5t72 -102.5t25.5 -133.5v-107.5t-2 -107.5t-3 -116.5 t-1 -120.5q0 -16 1 -35t4 -34t10 -25.5t21 -10.5q4 0 18.5 4t59.5 31v-133q-29 -12 -75 -26.5t-87 -14.5q-57 0 -94 24.5t-59 63.5q-59 -51 -128 -80t-157 -29q-55 0 -109.5 19.5t-95.5 55.5t-66.5 87t-25.5 115zM227 1083l353 355q25 25 54.5 41t57.5 16q31 0 68 -25.5 t37 -74.5q0 -51 -30 -78t-58 -45q-72 -47 -148 -95.5t-147 -93.5h-187zM248 274q0 -72 40 -108.5t89 -36.5q61 0 111.5 32t78.5 77l8 229q-16 -4 -32.5 -7t-30.5 -7q-45 -8 -92 -18.5t-85 -30t-62.5 -50t-24.5 -80.5z" />
<glyph unicode="&#xe2;" horiz-adv-x="954" d="M31 248q0 135 83 208.5t224 96.5q94 14 146.5 24.5t77 19.5t29.5 21.5t5 30.5q0 41 -9 78t-30.5 65.5t-54.5 45t-80 16.5q-68 0 -127 -34t-94 -97h-84v158q104 78 185 105.5t165 27.5q78 0 143.5 -23.5t111.5 -66.5t71.5 -102.5t25.5 -133.5v-107.5t-2 -107.5t-3 -116.5 t-1 -120.5q0 -16 1 -35t4 -34t10.5 -25.5t21.5 -10.5q4 0 18.5 4t59.5 31v-133q-29 -12 -75 -26.5t-87 -14.5q-57 0 -94 24.5t-60 63.5q-59 -51 -127.5 -80t-156.5 -29q-55 0 -109.5 19.5t-95.5 55.5t-66.5 87t-25.5 115zM94 1083l295 402h170l297 -402h-164l-219 191 q-51 -45 -110.5 -96.5t-106.5 -94.5h-162zM268 274q0 -72 40 -108.5t89 -36.5q61 0 111.5 32t79.5 77l8 229q-16 -4 -32.5 -7t-31.5 -7q-45 -8 -92 -18.5t-85 -30t-62.5 -50t-24.5 -80.5z" />
<glyph unicode="&#xe3;" horiz-adv-x="968" d="M39 248q0 135 83 208.5t224 96.5q94 14 146.5 24.5t77 19.5t29.5 21.5t5 30.5q0 41 -9 78t-30.5 65.5t-54.5 45t-80 16.5q-68 0 -127 -34t-94 -97h-84v158q104 78 185 105.5t165 27.5q78 0 143.5 -23.5t111.5 -66.5t71.5 -102.5t25.5 -133.5v-107.5t-2 -107.5t-3 -116.5 t-1 -120.5q0 -16 1 -35t4 -34t10.5 -25.5t21.5 -10.5q4 0 18.5 4t59.5 31v-133q-29 -12 -75 -26.5t-87 -14.5q-57 0 -94 24.5t-59 63.5q-59 -51 -128 -80t-157 -29q-55 0 -109.5 19.5t-95.5 55.5t-66.5 87t-25.5 115zM117 1130q8 47 27.5 97.5t50 90.5t72.5 65.5t98 25.5 q20 0 36.5 -2t34 -8t39 -15.5t49.5 -23.5q49 -25 70.5 -33t40.5 -8q29 0 49.5 29.5t32.5 66.5h131q-6 -31 -21.5 -80t-45 -94t-77 -78t-114.5 -33q-63 0 -158 50q-47 23 -68.5 32t-37.5 9q-29 0 -44.5 -18.5t-31.5 -72.5h-133zM276 274q0 -72 40 -108.5t90 -36.5 q61 0 111 32t79 77l8 229q-16 -4 -32.5 -7t-30.5 -7q-45 -8 -92.5 -18.5t-85 -30t-62.5 -50t-25 -80.5z" />
<glyph unicode="&#xe4;" horiz-adv-x="964" d="M37 248q0 135 83 208.5t224 96.5q94 14 146.5 24.5t77 19.5t29.5 21.5t5 30.5q0 41 -9 78t-30.5 65.5t-54.5 45t-80 16.5q-68 0 -127 -34t-94 -97h-84v158q104 78 185 105.5t165 27.5q78 0 143.5 -23.5t111.5 -66.5t71.5 -102.5t25.5 -133.5v-107.5t-2 -107.5t-3 -116.5 t-1 -120.5q0 -16 1 -35t4 -34t10.5 -25.5t21.5 -10.5q4 0 18.5 4t59.5 31v-133q-29 -12 -75 -26.5t-87 -14.5q-57 0 -94 24.5t-60 63.5q-59 -51 -127.5 -80t-156.5 -29q-55 0 -109.5 19.5t-95.5 55.5t-66.5 87t-25.5 115zM152 1272q0 57 40.5 98t96.5 41q57 0 98 -41t41 -98 q0 -55 -41 -96t-98 -41q-55 0 -96 41t-41 96zM274 274q0 -72 40 -108.5t89 -36.5q61 0 111.5 32t79.5 77l8 229q-16 -4 -32.5 -7t-30.5 -7q-45 -8 -92.5 -18.5t-85 -30t-62.5 -50t-25 -80.5zM535 1272q0 57 39.5 98t97.5 41q57 0 97 -41t40 -98q0 -55 -40 -96t-97 -41 t-97 41t-40 96z" />
<glyph unicode="&#xe5;" horiz-adv-x="952" d="M31 248q0 135 83 208.5t224 96.5q94 14 146.5 24.5t77 19.5t29.5 21.5t5 30.5q0 41 -9 78t-30.5 65.5t-54.5 45t-80 16.5q-68 0 -127 -34t-94 -97h-84v158q104 78 185 105.5t165 27.5q78 0 143.5 -23.5t111.5 -66.5t71.5 -102.5t25.5 -133.5v-107.5t-2 -107.5t-3 -116.5 t-1 -120.5q0 -16 1 -35t4 -34t10.5 -25.5t21.5 -10.5q4 0 18.5 4t59.5 31v-133q-29 -12 -75 -26.5t-87 -14.5q-57 0 -94 24.5t-60 63.5q-59 -51 -127.5 -80t-156.5 -29q-55 0 -109.5 19.5t-95.5 55.5t-66.5 87t-25.5 115zM238 1288q0 49 18 91t51 75t76 51.5t92 18.5 t92 -18.5t75 -51.5t51.5 -75t19.5 -91t-19.5 -91t-51.5 -74.5t-76 -51t-93 -18.5t-91 18.5t-75 51t-51 74.5t-18 91zM268 274q0 -72 40 -108.5t89 -36.5q61 0 111.5 32t79.5 77l8 229q-16 -4 -32.5 -7t-31.5 -7q-45 -8 -92 -18.5t-85 -30t-62.5 -50t-24.5 -80.5zM395 1288 q0 -33 22.5 -55.5t55.5 -22.5q35 0 57.5 22.5t22.5 55.5t-22.5 55.5t-55.5 22.5q-35 0 -57.5 -22.5t-22.5 -55.5z" />
<glyph unicode="&#xe6;" horiz-adv-x="1605" d="M72 248q0 135 83 208.5t224 96.5q94 14 146.5 24.5t77 19.5t29.5 21.5t5 30.5q0 41 -9.5 78t-31 65.5t-54 45t-79.5 16.5q-68 0 -128.5 -34t-92.5 -97h-84v158q104 78 185 105.5t165 27.5q66 0 144.5 -23.5t146.5 -101.5q55 57 130 91t165 34q113 0 195.5 -35t137 -94.5 t81 -138t26.5 -166.5q0 -18 -2 -57.5t-4 -57.5h-42t-48.5 1t-48 1h-39.5q-70 2 -137.5 3t-137.5 1q-41 0 -83 -1t-85 -3h-15t-8 -1t-8.5 -1h-17.5v-16q0 -68 19.5 -126.5t57.5 -101.5t93 -67.5t127 -24.5t151.5 45t137.5 111l53 -49l-16 -127q-35 -27 -77 -51.5t-89 -44 t-96.5 -31t-98.5 -11.5q-123 0 -226 49.5t-167 133.5q-41 -80 -124 -131.5t-234 -51.5q-55 0 -109.5 19.5t-95.5 55.5t-66.5 87t-25.5 115zM309 274q0 -66 39 -105.5t105 -39.5q61 0 117.5 43t62.5 127q2 29 2 63.5v65.5v39q-16 -4 -31.5 -7t-32.5 -7q-45 -8 -91 -18.5 t-84 -30t-62.5 -50.5t-24.5 -80zM868 614h33q45 -2 90 -3t86 -1q45 0 89 1t89 3h41q-2 43 -12 89.5t-32.5 84t-59.5 62t-94 24.5t-97 -23.5t-68 -61t-43.5 -84t-21.5 -91.5z" />
<glyph unicode="&#xe7;" horiz-adv-x="968" d="M41 492q0 135 46 234t121 162.5t171 94.5t196 31q115 0 212.5 -35t146.5 -78q-33 -70 -57 -178h-70q-14 25 -36.5 51.5t-51.5 49t-65 36.5t-74 14q-78 0 -132.5 -28.5t-89 -79.5t-51 -121t-16.5 -151q0 -180 76.5 -272.5t218.5 -92.5q72 0 151.5 45t136.5 111l56 -52 q-14 -76 -19 -127q-59 -47 -140 -85.5t-169 -45.5q-8 -20 -10 -28q94 0 146.5 -49.5t52.5 -128.5q0 -49 -21.5 -87t-58.5 -64t-86.5 -39t-104.5 -13q-66 0 -125 16.5t-100 32.5l59 135q33 -14 76 -24.5t84 -10.5q33 0 55.5 11.5t22.5 31.5t-17.5 29.5t-42.5 9.5 q-51 0 -88 -26l-53 55l58 156q-76 14 -150 52t-131 100.5t-92 151.5t-35 206z" />
<glyph unicode="&#xe8;" horiz-adv-x="972" d="M37 465q0 127 31.5 228.5t93 173t150.5 109.5t206 38q113 0 196 -35t137 -94.5t80.5 -138t26.5 -166.5q0 -18 -2 -57.5t-4 -57.5h-39.5t-48 1t-48 1h-42.5q-68 2 -136.5 3t-135.5 1q-43 0 -85 -1t-83 -3q-23 0 -26 -1t-23 -1v-16q0 -68 19.5 -126.5t57 -101.5t93 -67.5 t127.5 -24.5q70 0 150.5 45t137.5 111l52 -49l-15 -127q-35 -27 -78 -51.5t-90 -44t-96 -31t-96 -11.5q-115 0 -208 38t-160.5 104.5t-104.5 157t-37 194.5zM182 1395q0 49 36 74.5t67 25.5t59.5 -16.5t54.5 -40.5l351 -355h-187l-295 189q-29 18 -57.5 44.5t-28.5 78.5z M295 614h33q43 -2 88 -3t88 -1t88 1t90 3h41q-2 43 -12.5 89.5t-34 84t-60.5 62t-94 24.5q-55 0 -96 -23.5t-68.5 -61t-42 -84t-20.5 -91.5z" />
<glyph unicode="&#xe9;" horiz-adv-x="976" d="M14 465q0 127 32 228.5t93.5 173t150.5 109.5t206 38q113 0 195.5 -35t137 -94.5t81 -138t26.5 -166.5q0 -18 -2 -57.5t-4 -57.5h-40t-48.5 1t-48 1h-41.5q-68 2 -136.5 3t-136.5 1q-43 0 -85 -1t-83 -3q-23 0 -25.5 -1t-23.5 -1v-16q0 -68 19.5 -126.5t57.5 -101.5 t93 -67.5t127 -24.5q70 0 151 45t138 111l51 -49l-14 -127q-35 -27 -78 -51.5t-90 -44t-96.5 -31t-96.5 -11.5q-115 0 -208 38t-160.5 104.5t-104.5 157t-37 194.5zM272 614h33q43 -2 88 -3t88 -1t88 1t90 3h41q-2 43 -12 89.5t-33.5 84t-60.5 62t-94 24.5 q-55 0 -96.5 -23.5t-69 -61t-41.5 -84t-21 -91.5zM276 1083l351 355q25 25 54.5 41t59.5 16q14 0 33 -6t34 -19.5t25.5 -32t10.5 -42.5q0 -51 -30 -78t-58 -45q-72 -47 -148 -95.5t-147 -93.5h-185z" />
<glyph unicode="&#xea;" horiz-adv-x="985" d="M31 465q0 127 31.5 228.5t93 173t150.5 109.5t206 38q113 0 196 -35t137 -94.5t80.5 -138t26.5 -166.5q0 -18 -2 -57.5t-4 -57.5h-39.5t-48 1t-48.5 1h-42q-68 2 -136.5 3t-135.5 1q-43 0 -85 -1t-83 -3q-23 0 -26 -1t-23 -1v-16q0 -68 19 -126.5t57 -101.5t93.5 -67.5 t126.5 -24.5q70 0 151 45t138 111l51 -49l-14 -127q-35 -27 -78 -51.5t-90 -44t-96 -31t-96 -11.5q-115 0 -208 38t-161 104.5t-104.5 157t-36.5 194.5zM137 1083l297 402h168l297 -402h-164l-219 191q-51 -45 -109.5 -96.5t-107.5 -94.5h-162zM289 614h33q43 -2 88 -3 t88 -1t88 1t90 3h41q-2 43 -12.5 89.5t-34 84t-60.5 62t-94 24.5q-55 0 -96 -23.5t-68.5 -61t-42 -84t-20.5 -91.5z" />
<glyph unicode="&#xeb;" horiz-adv-x="999" d="M37 465q0 127 31.5 228.5t93 173t150.5 109.5t206 38q113 0 196 -35t137 -94.5t80.5 -138t26.5 -166.5q0 -18 -2 -57.5t-4 -57.5h-39.5t-48 1t-48 1h-42.5q-68 2 -136.5 3t-135.5 1q-43 0 -85 -1t-83 -3q-23 0 -26 -1t-23 -1v-16q0 -68 19.5 -126.5t57 -101.5t93 -67.5 t127.5 -24.5q70 0 150.5 45t137.5 111l52 -49l-15 -127q-35 -27 -78 -51.5t-90 -44t-96 -31t-96 -11.5q-115 0 -208 38t-160.5 104.5t-104.5 157t-37 194.5zM195 1272q0 57 40.5 98t98.5 41q55 0 96 -41t41 -98q0 -55 -41 -96t-96 -41q-57 0 -98 41t-41 96zM295 614h33 q43 -2 88 -3t88 -1t88 1t90 3h41q-2 43 -12.5 89.5t-34 84t-60.5 62t-94 24.5q-55 0 -96 -23.5t-68.5 -61t-42 -84t-20.5 -91.5zM578 1272q0 57 39.5 98t97.5 41q57 0 97 -41t40 -98q0 -55 -40 -96t-97 -41t-97 41t-40 96z" />
<glyph unicode="&#xec;" horiz-adv-x="514" d="M-8 1395q0 49 35.5 74.5t66.5 25.5t59.5 -16.5t55.5 -40.5l350 -355h-186l-295 189q-29 18 -57.5 44.5t-28.5 78.5zM201 -18q12 113 16 218t4 191v201q0 86 -4 190.5t-16 221.5q86 -18 131 -19q43 0 133 19q-12 -117 -17.5 -221.5t-5.5 -190.5v-201q0 -86 5.5 -190.5 t17.5 -218.5q-45 8 -79 13t-54 5t-54 -5t-77 -13z" />
<glyph unicode="&#xed;" horiz-adv-x="514" d="M-47 1083l350 355q25 25 54.5 41t60.5 16t66.5 -25.5t35.5 -74.5q0 -51 -29.5 -78t-58.5 -45q-72 -47 -146.5 -95.5t-146.5 -93.5h-186zM45 -18q12 113 17.5 218t5.5 191v201q0 86 -5.5 190.5t-17.5 221.5q88 -18 133 -19q18 0 53 4t78 15q-12 -117 -16 -221.5t-4 -190.5 v-201q0 -86 4 -190.5t16 -218.5q-43 8 -77.5 13t-53.5 5q-23 0 -55.5 -5t-77.5 -13z" />
<glyph unicode="&#xee;" horiz-adv-x="681" d="M-39 1083l295 402h170l295 -402h-162l-219 191q-51 -45 -110.5 -96.5t-106.5 -94.5h-162zM209 -18q10 113 15 218t5 191v201q0 86 -5 190.5t-15 221.5q86 -18 131 -19q18 0 53 4t78 15q-10 -117 -15 -221.5t-5 -190.5v-201q0 -86 5 -190.5t15 -218.5q-43 8 -78 13t-53 5 q-20 0 -54 -5t-77 -13z" />
<glyph unicode="&#xef;" horiz-adv-x="675" d="M8 1272q0 57 40 98t97 41t97.5 -41t40.5 -98q0 -55 -40 -96t-98 -41q-57 0 -97 41t-40 96zM205 -18q10 113 15 218t5 191v201q0 86 -5 190.5t-15 221.5q86 -18 131 -19q18 0 53 4t78 15q-10 -117 -15.5 -221.5t-5.5 -190.5v-201q0 -86 5.5 -190.5t15.5 -218.5 q-43 8 -78 13t-53 5q-20 0 -54 -5t-77 -13zM389 1272q0 57 41 98t98 41t97.5 -41t40.5 -98q0 -55 -40 -96t-98 -41q-57 0 -98 41t-41 96z" />
<glyph unicode="&#xf0;" horiz-adv-x="1099" d="M35 1485l231 57q70 -49 134.5 -95t117.5 -91q59 18 120.5 42.5t131.5 51.5q25 -63 88 -141q-59 -16 -111.5 -28.5t-107.5 -29.5q430 -387 430 -759q0 -143 -45 -242.5t-117.5 -161t-164 -89.5t-183.5 -28t-183 28t-164 89.5t-118 161t-45 242.5t45 242.5t118 161.5 t164 90t183 28q10 0 8 1t-8 1q-72 76 -160 160q-59 -20 -129.5 -45t-130.5 -48q-14 29 -35.5 63t-50.5 79q59 14 112.5 27.5t117.5 31.5q-51 45 -111.5 94t-136.5 107zM297 492q0 -74 12.5 -142.5t43 -122t80.5 -85t126 -31.5q74 0 124 31.5t81 85t43 122t12 142.5 t-12 143.5t-43 122.5t-81 84.5t-124 31.5q-76 0 -126 -31.5t-80.5 -84.5t-43 -123t-12.5 -143zM552 1018q3 0 7 -2q2 0 2 -1t2 -1q-14 4 -11 4z" />
<glyph unicode="&#xf1;" horiz-adv-x="966" d="M47 -18q12 113 16.5 218t4.5 191v201q0 86 -4.5 190.5t-16.5 221.5q86 -18 131 -19q14 0 47 4t76 15q-4 -29 -7 -54.5t-3 -40.5q53 57 117.5 81t156.5 24q59 0 122 -16.5t113 -59.5t81.5 -115.5t31.5 -185.5q0 -39 -1 -81t-3 -83q-2 -43 -3 -95t-1 -99v-70t1 -79t2 -79 t3 -69q-43 8 -74.5 13t-48.5 5q-16 0 -46.5 -5t-71.5 -13l6 206q4 68 6 134.5t2 138.5v119q0 123 -47 189.5t-125 66.5q-117 0 -170 -73t-53 -208v-164q0 -86 5 -190.5t17 -218.5q-45 8 -78.5 13t-54.5 5q-20 0 -54 -5t-77 -13zM119 1130q8 47 26.5 97.5t49 90.5t73.5 65.5 t99 25.5q20 0 36.5 -2t34 -8t39 -15.5t49.5 -23.5q49 -25 69.5 -33t41.5 -8q29 0 49.5 29.5t30.5 66.5h133q-6 -31 -21.5 -80t-45 -94t-77 -78t-114.5 -33q-61 0 -160 50q-45 23 -67.5 32t-38.5 9q-29 0 -43.5 -18.5t-32.5 -72.5h-131z" />
<glyph unicode="&#xf2;" horiz-adv-x="1081" d="M41 492q0 143 45 242.5t117.5 161.5t164 90t183.5 28t183 -28t164 -90t118 -161.5t45 -242.5t-45 -242.5t-118 -161t-164 -89.5t-183 -28t-183.5 28t-164 89.5t-117.5 161t-45 242.5zM211 1395q0 49 36 74.5t66 25.5q31 0 58.5 -16.5t54.5 -40.5l352 -355h-186l-295 189 q-29 18 -57.5 44.5t-28.5 78.5zM289 492q0 -74 13 -142.5t44 -122t81 -85t124 -31.5t124 31.5t80.5 85t44 122t13.5 142.5t-13.5 143.5t-44 122.5t-80.5 84.5t-124 31.5t-124 -31.5t-81 -84.5t-44 -122.5t-13 -143.5z" />
<glyph unicode="&#xf3;" horiz-adv-x="1079" d="M18 492q0 143 45.5 242.5t118 161.5t163.5 90t183 28t183.5 -28t164 -90t117.5 -161.5t45 -242.5t-45 -242.5t-117.5 -161t-163.5 -89.5t-184 -28q-92 0 -183 28t-163.5 89.5t-118 161t-45.5 242.5zM266 492q0 -74 13.5 -142.5t44 -122t81 -85t123.5 -31.5q74 0 124 31.5 t81 85t44.5 122t13.5 142.5t-13.5 143.5t-44.5 122.5t-81 84.5t-124 31.5t-124 -31.5t-80.5 -84.5t-44 -122.5t-13.5 -143.5zM303 1083l350 355q27 25 55.5 41t59.5 16t66.5 -25.5t35.5 -74.5q0 -51 -28.5 -78t-57.5 -45q-72 -47 -147.5 -95.5t-147.5 -93.5h-186z" />
<glyph unicode="&#xf4;" horiz-adv-x="1089" d="M35 492q0 143 45 242.5t117.5 161.5t164 90t183.5 28t183 -28t164 -90t118 -161.5t45 -242.5t-45 -242.5t-118 -161t-164 -89.5t-183 -28t-183.5 28t-164 89.5t-117.5 161t-45 242.5zM166 1083l295 402h170l295 -402h-162l-219 191q-51 -45 -110.5 -96.5t-106.5 -94.5 h-162zM283 492q0 -74 13 -142.5t44 -122t81 -85t124 -31.5t124 31.5t80.5 85t44 122t13.5 142.5t-13.5 143.5t-44 122.5t-81 84.5t-123.5 31.5q-74 0 -124 -31.5t-81 -84.5t-44 -122.5t-13 -143.5z" />
<glyph unicode="&#xf5;" horiz-adv-x="1099" d="M39 492q0 143 45 242.5t117.5 161.5t164 90t183.5 28t183 -28t164 -90t118 -161.5t45 -242.5t-45 -242.5t-118 -161t-164 -89.5t-183 -28t-183.5 28t-164 89.5t-117.5 161t-45 242.5zM184 1130q8 47 26.5 97.5t49.5 90.5t74 65.5t98 25.5q20 0 36.5 -2t34 -8t39 -15.5 t50.5 -23.5q49 -25 69.5 -33t40.5 -8q29 0 49.5 29.5t30.5 66.5h133q-6 -31 -21 -80t-45 -94t-77 -78t-115 -33q-61 0 -159 50q-45 23 -67.5 32t-39.5 9q-29 0 -43 -18.5t-33 -72.5h-131zM287 492q0 -74 13 -142.5t44 -122t81 -85t124 -31.5t124 31.5t80.5 85t44 122 t13.5 142.5t-13.5 143.5t-44 122.5t-80.5 84.5t-124 31.5t-124 -31.5t-81 -84.5t-44 -122.5t-13 -143.5z" />
<glyph unicode="&#xf6;" horiz-adv-x="1099" d="M39 492q0 143 45 242.5t117.5 161.5t164 90t183.5 28t183 -28t164 -90t118 -161.5t45 -242.5t-45 -242.5t-118 -161t-164 -89.5t-183 -28t-183.5 28t-164 89.5t-117.5 161t-45 242.5zM221 1272q0 57 40 98t97 41t97.5 -41t40.5 -98q0 -55 -40 -96t-98 -41q-57 0 -97 41 t-40 96zM287 492q0 -74 13 -142.5t44 -122t81 -85t124 -31.5t124 31.5t80.5 85t44 122t13.5 142.5t-13.5 143.5t-44 122.5t-80.5 84.5t-124 31.5t-124 -31.5t-81 -84.5t-44 -122.5t-13 -143.5zM602 1272q0 57 41 98t98 41t97.5 -41t40.5 -98q0 -55 -40 -96t-98 -41 q-57 0 -98 41t-41 96z" />
<glyph unicode="&#xf7;" horiz-adv-x="1056" d="M0 440v178h1057v-178h-1057zM379 150q0 61 44 105t105 44t105.5 -44t44.5 -105t-44 -105.5t-106 -44.5q-61 0 -105 44.5t-44 105.5zM379 909q0 59 44 103.5t105 44.5t105.5 -44t44.5 -104q0 -61 -44 -105t-106 -44q-61 0 -105 44t-44 105z" />
<glyph unicode="&#xf8;" horiz-adv-x="1189" d="M27 -25q14 12 35.5 33t46 45.5t49 50t43.5 48.5q-49 61 -77 143t-28 197q0 143 45 242.5t118 161.5t164 90t183 28q74 0 151 -19.5t142 -60.5q41 43 78 90t61 88q47 -68 125 -108q-37 -29 -85 -72t-83 -84q55 -66 87 -152t32 -204q0 -143 -45 -242.5t-117.5 -161 t-163 -89.5t-182.5 -28q-82 0 -159.5 20.5t-149.5 67.5q-23 -25 -45.5 -50t-43 -50t-37.5 -44t-26 -32q-43 59 -118 92zM344 492q0 -45 3 -84t13 -80l424 473q-29 35 -73.5 54t-104.5 19q-76 0 -126 -31.5t-80.5 -84.5t-43 -123t-12.5 -143zM418 197q31 -39 78 -62.5 t110 -23.5q74 0 124 31.5t81 85t43 122t12 142.5q0 49 -4 98t-18 90z" />
<glyph unicode="&#xf9;" horiz-adv-x="935" d="M51 328q0 55 1 102t3 88q2 35 2 65.5v63.5v78t-1 93t-2 96.5t-1 89.5q41 -10 73 -14.5t48 -4.5q12 0 44 5t77 16q-4 -57 -8 -130t-7.5 -151t-5.5 -158t-2 -151q0 -90 14.5 -138.5t35.5 -70.5q23 -23 58.5 -40t80.5 -17q68 0 112.5 29.5t67.5 72.5v-2q12 29 20.5 51.5 t11.5 59t4 101t1 175.5v88t-1 99t-2 97.5t-3 82.5q82 -18 121 -19q47 0 120 19q-10 -152 -13 -318t-3 -319q0 -43 1 -93.5t2 -101.5t3 -100t4 -90q-37 8 -66.5 13t-49.5 5t-51 -5t-66 -13q4 31 5 49t1 51q-53 -55 -122 -83t-144 -28q-170 0 -266.5 92.5t-96.5 264.5z M141 1395q0 49 36 74.5t67 25.5t58.5 -16.5t53.5 -40.5l353 -355h-187l-295 189q-29 18 -57.5 44.5t-28.5 78.5z" />
<glyph unicode="&#xfa;" horiz-adv-x="935" d="M23 328q0 55 1 102t3 88q2 35 2 65.5v63.5v78t-1 93t-2 96.5t-1 89.5q41 -10 72.5 -14.5t47.5 -4.5q12 0 44 5t77 16q-4 -57 -8 -130t-7 -151t-5 -158t-2 -151q0 -90 14 -138.5t35 -70.5q23 -23 58.5 -40t80.5 -17q68 0 113 29.5t67 72.5v-2q12 29 20.5 51.5t11.5 59 t4 101t1 175.5v88t-1 99t-2 97.5t-3 82.5q82 -18 121 -19q47 0 121 19q-10 -152 -13.5 -318t-3.5 -319q0 -43 1 -93.5t2 -101.5t3.5 -100t4.5 -90q-37 8 -67 13t-50 5t-51 -5t-66 -13q4 31 5 49t1 51q-53 -55 -121.5 -83t-144.5 -28q-170 0 -266 92.5t-96 264.5zM227 1083 l351 355q27 25 55.5 41t58.5 16q31 0 67 -25.5t36 -74.5q0 -51 -29 -78t-57 -45q-72 -47 -148 -95.5t-147 -93.5h-187z" />
<glyph unicode="&#xfb;" horiz-adv-x="952" d="M45 328q0 55 1 102t3 88q2 35 2 65.5v63.5v78t-1 93t-2 96.5t-1 89.5q41 -10 73 -14.5t48 -4.5q12 0 44 5t77 16q-4 -57 -8.5 -130t-7.5 -151t-5 -158t-2 -151q0 -90 14.5 -138.5t34.5 -70.5q23 -23 59 -40t81 -17q68 0 112.5 29.5t67.5 72.5v-2q12 29 20.5 51.5t11.5 59 t4 101t1 175.5v88t-1 99t-2 97.5t-3 82.5q82 -18 120 -19q47 0 121 19q-10 -152 -13 -318t-3 -319q0 -43 1 -93.5t2 -101.5t3 -100t4 -90q-37 8 -66.5 13t-50.5 5q-20 0 -51 -5t-65 -13q4 31 5 49t1 51q-53 -55 -122 -83t-144 -28q-170 0 -266.5 92.5t-96.5 264.5zM96 1083 l295 402h170l295 -402h-162l-219 191q-51 -45 -110.5 -96.5t-106.5 -94.5h-162z" />
<glyph unicode="&#xfc;" horiz-adv-x="964" d="M51 328q0 55 1 102t3 88q2 35 2 65.5v63.5v78t-1 93t-2 96.5t-1 89.5q41 -10 73 -14.5t48 -4.5q12 0 44 5t77 16q-4 -57 -8 -130t-7.5 -151t-5.5 -158t-2 -151q0 -90 14.5 -138.5t35.5 -70.5q23 -23 58.5 -40t80.5 -17q68 0 112.5 29.5t67.5 72.5v-2q12 29 20.5 51.5 t11.5 59t4 101t1 175.5v88t-1 99t-2 97.5t-3 82.5q82 -18 121 -19q47 0 120 19q-10 -152 -13 -318t-3 -319q0 -43 1 -93.5t2 -101.5t3 -100t4 -90q-37 8 -66.5 13t-49.5 5t-51 -5t-66 -13q4 31 5 49t1 51q-53 -55 -122 -83t-144 -28q-170 0 -266.5 92.5t-96.5 264.5z M154 1272q0 57 39.5 98t97.5 41q57 0 97 -41t40 -98q0 -55 -40 -96t-97 -41t-97 41t-40 96zM535 1272q0 57 40.5 98t98.5 41q57 0 97 -41t40 -98q0 -55 -40 -96t-97 -41t-98 41t-41 96z" />
<glyph unicode="&#xfd;" horiz-adv-x="964" d="M-23 1010q57 -12 98.5 -18.5t57.5 -6.5q20 0 50 3t65 11q53 -166 122.5 -343t139.5 -351q72 160 140.5 341t123.5 355q61 -16 90 -16q12 0 48 7t89 24q-14 -29 -46.5 -99.5t-78 -168t-98.5 -216t-109.5 -242.5t-110.5 -248t-100 -233.5t-80 -196.5t-50 -138 q-29 6 -52.5 11t-37.5 5t-54.5 -8.5t-95.5 -24.5q100 166 174 307.5t127 262.5q-23 59 -59.5 147t-77.5 187.5t-84 202t-81 191.5t-67.5 156.5t-42.5 98.5zM260 1083l352 355q25 25 54.5 41t58.5 16q31 0 67.5 -25.5t36.5 -74.5q0 -51 -29.5 -78t-58.5 -45 q-72 -47 -147.5 -95.5t-147.5 -93.5h-186z" />
<glyph unicode="&#xfe;" horiz-adv-x="1024" d="M68 -528q6 61 10 138t6 157.5t3 161.5t1 149v860q0 68 -1 147.5t-3 161.5t-6 159t-10 138q45 -10 78.5 -15t52.5 -5q18 0 52 5t77 15q-6 -61 -9.5 -138t-5.5 -159t-3 -161.5t-1 -147.5v-51q45 49 116 88t177 39q82 0 160 -30t138.5 -93.5t97 -160.5t36.5 -232 q0 -133 -40 -231.5t-104.5 -164t-146 -98.5t-165.5 -33t-151 28t-118 79q0 -68 1 -149t3 -161.5t5.5 -157.5t9.5 -138q-43 8 -77 13t-52 5t-52 -5t-79 -13zM309 483q0 -362 244 -362q59 0 103 29.5t73 80t43 120t14 149.5q0 104 -20.5 172.5t-52 108.5t-72.5 56.5t-82 16.5 q-68 0 -116 -29.5t-77.5 -80t-43 -118t-13.5 -143.5z" />
<glyph unicode="&#xff;" horiz-adv-x="970" d="M-14 1010q57 -12 98 -18.5t57 -6.5q20 0 50 3t65 11q53 -166 123 -343t139 -351q72 160 140.5 341t123.5 355q61 -16 90 -16q12 0 48 7t90 24q-14 -29 -47 -99.5t-78 -168t-98.5 -216t-109.5 -242.5t-110.5 -248t-100.5 -233.5t-80 -196.5t-50 -138q-29 6 -52.5 11 t-37.5 5t-54.5 -8.5t-95.5 -24.5q100 166 174 307.5t127 262.5q-25 59 -60.5 147t-76.5 187.5t-84 202t-81 191.5t-67.5 156.5t-41.5 98.5zM166 1272q0 57 41 98t96 41q57 0 98 -41t41 -98q0 -55 -41 -96t-98 -41q-55 0 -96 41t-41 96zM549 1272q0 57 40 98t97 41t97 -41 t40 -98q0 -55 -40 -96t-97 -41t-97 41t-40 96z" />
<glyph unicode="&#x152;" horiz-adv-x="2060" d="M84 674q0 184 56.5 324.5t154.5 236.5t233.5 145.5t292.5 49.5q92 0 164 -13.5t127 -35t95 -48t69 -53.5q-2 41 -4 68.5t-4 58.5q41 -2 87 -4t93 -4t93 -3t85 -1t86 1t96.5 3t96.5 5t88 5q-10 -35 -17.5 -62.5t-7.5 -39.5t8.5 -42t18.5 -71q-41 8 -82 15.5t-94.5 13.5 t-126 10t-179.5 4q0 -12 -1 -24.5t-3 -22.5q-4 -61 -5 -127t-1 -127v-121q92 0 153.5 1t102.5 3t67.5 4t49.5 4h14.5t25.5 1t24.5 1h15.5q-12 -35 -19.5 -59.5t-7.5 -34.5q0 -8 7.5 -32.5t19.5 -59.5h-15.5t-25.5 1t-26.5 1h-14.5q-23 2 -49.5 4t-68.5 4t-102.5 3t-150.5 1 v-157q0 -143 6 -285q2 -18 3 -25.5t1 -29.5q188 2 309.5 11t184.5 19q-10 -37 -17.5 -64.5t-7.5 -39.5q0 -14 6.5 -40t16.5 -60q-41 2 -89 5t-99.5 5t-99.5 3t-89 1q-84 0 -187.5 -4t-189.5 -8q2 25 5.5 41t6.5 30.5t4 30.5t-1 41q-72 -63 -186.5 -114.5t-291.5 -51.5 q-145 0 -274 49t-224 140.5t-150.5 222.5t-55.5 297zM350 698q0 -152 38 -261t101.5 -181t148.5 -106.5t179 -34.5q106 0 193.5 42t147 118.5t92 184t32.5 238.5q0 160 -34 270.5t-92 179.5t-140 100.5t-176 31.5q-102 0 -192.5 -35t-156 -105.5t-103.5 -181t-38 -260.5z " />
<glyph unicode="&#x153;" horiz-adv-x="1837" d="M80 492q0 143 45 242.5t117.5 161.5t164 90t183.5 28q100 0 200.5 -37t172.5 -109q121 146 354 146q113 0 195.5 -35t137 -94.5t81 -138t26.5 -166.5q0 -18 -2 -57.5t-4 -57.5h-41.5t-48.5 1t-48.5 1h-39.5q-70 2 -137.5 3t-137.5 1q-41 0 -84 -1t-84 -3h-15t-8 -1t-8 -1 h-18v-16q0 -68 19.5 -126.5t57.5 -101.5t93.5 -67.5t126.5 -24.5q72 0 152 45t137 111l53 -49l-16 -127q-35 -27 -77 -51.5t-89 -44t-96 -31t-99 -11.5q-117 0 -211 40t-161 112q-74 -84 -174.5 -118t-206.5 -34q-92 0 -183.5 28t-164 89.5t-117.5 160.5t-45 243zM328 492 q0 -74 13 -142.5t44 -122t81 -85t124 -31.5q76 0 127 31.5t81.5 85t43 122t12.5 142.5t-12.5 143.5t-43 122.5t-81.5 84.5t-127 31.5q-74 0 -124 -31.5t-81 -84.5t-44 -123t-13 -143zM1092 614h32q45 -2 90.5 -3t85.5 -1q45 0 89.5 1t89.5 3h41q-2 43 -12.5 89.5t-33 84 t-59.5 62t-94 24.5t-97 -23.5t-68 -61t-43 -84t-21 -91.5z" />
<glyph unicode="&#x178;" horiz-adv-x="1193" d="M-35 1419q68 -10 118 -17t71 -7q25 0 58.5 4t70.5 10q43 -84 83 -162t81.5 -154.5t87 -156.5t94.5 -166q41 68 85 146.5t89 161.5t88 168t82 165q61 -16 98 -16q20 0 62.5 8t97.5 20q-104 -160 -187 -287.5t-145.5 -229t-108 -179.5t-73.5 -135q0 -72 1 -155t3 -166 t6 -158.5t8 -130.5q-45 8 -79.5 13t-57.5 5q-16 0 -52 -5t-87 -13q16 139 18 286.5t2 300.5q-20 37 -62 106.5t-92.5 153.5t-105.5 176.5t-105.5 174.5t-90 145.5t-58.5 93.5zM289 1606q0 57 40 97t97 40t97 -40t40 -97t-40 -97.5t-97 -40.5t-97 40.5t-40 97.5zM670 1606 q0 57 40 97t97 40t97 -40t40 -97t-40 -97.5t-97 -40.5t-97 40.5t-40 97.5z" />
<glyph unicode="&#x2c6;" horiz-adv-x="724" d="M-18 1083l294 402h170l295 -402h-161l-220 191q-51 -45 -110.5 -96.5t-106.5 -94.5h-161z" />
<glyph unicode="&#x2dc;" horiz-adv-x="804" d="M35 1130q8 47 26.5 97.5t49 90.5t73.5 65.5t99 25.5q20 0 36.5 -2t34 -8t39 -15.5t49.5 -23.5q49 -25 69.5 -33t41.5 -8q29 0 49.5 29.5t30.5 66.5h133q-6 -31 -21.5 -80t-45 -94t-77 -78t-114.5 -33q-61 0 -160 50q-45 23 -67.5 32t-38.5 9q-29 0 -43.5 -18.5 t-32.5 -72.5h-131z" />
<glyph unicode="&#x2000;" horiz-adv-x="929" />
<glyph unicode="&#x2001;" horiz-adv-x="1858" />
<glyph unicode="&#x2002;" horiz-adv-x="929" />
<glyph unicode="&#x2003;" horiz-adv-x="1858" />
<glyph unicode="&#x2004;" horiz-adv-x="619" />
<glyph unicode="&#x2005;" horiz-adv-x="464" />
<glyph unicode="&#x2006;" horiz-adv-x="309" />
<glyph unicode="&#x2007;" horiz-adv-x="309" />
<glyph unicode="&#x2008;" horiz-adv-x="232" />
<glyph unicode="&#x2009;" horiz-adv-x="371" />
<glyph unicode="&#x200a;" horiz-adv-x="103" />
<glyph unicode="&#x2010;" d="M63 387v199h560v-199h-560z" />
<glyph unicode="&#x2011;" d="M63 387v199h560v-199h-560z" />
<glyph unicode="&#x2012;" d="M63 387v199h560v-199h-560z" />
<glyph unicode="&#x2013;" horiz-adv-x="1202" d="M78 401v168h1044v-168h-1044z" />
<glyph unicode="&#x2014;" horiz-adv-x="2224" d="M104 401v168h2016v-168h-2016z" />
<glyph unicode="&#x2018;" horiz-adv-x="360" d="M-18 899q0 29 11 50.5t21 43.5v2l2 4q59 102 129 219t129 220l101 -35l-160 -508q-10 -35 -39 -67.5t-84 -32.5q-18 0 -37.5 6t-36 18t-26.5 31.5t-10 48.5z" />
<glyph unicode="&#x2019;" horiz-adv-x="360" d="M-16 821l161 508q10 35 39 68t84 33q35 0 72 -25t37 -80q0 -29 -10.5 -50.5t-20.5 -43.5q-2 -2 -2 -3t-2 -3q-59 -102 -128 -219t-128 -220z" />
<glyph unicode="&#x201a;" horiz-adv-x="360" d="M-16 -311l161 508q10 33 39 66.5t84 33.5q35 0 72 -24.5t37 -79.5q0 -29 -10.5 -51.5t-20.5 -45.5q-2 -2 -2 -3t-2 -3q-59 -102 -128 -218t-128 -218z" />
<glyph unicode="&#x201c;" horiz-adv-x="770" d="M23 899q0 29 10 50.5t20 43.5q59 102 130 221t132 224l101 -35l-160 -508q-10 -35 -39 -67.5t-84 -32.5q-37 0 -73.5 24.5t-36.5 79.5zM356 899q0 29 10.5 50.5t20.5 43.5q59 102 130 221t132 224l101 -35l-162 -508q-10 -35 -38 -67.5t-83 -32.5q-37 0 -74 24.5 t-37 79.5z" />
<glyph unicode="&#x201d;" horiz-adv-x="772" d="M23 821l161 508q10 35 38 68t83 33q37 0 74 -25t37 -80q0 -29 -10.5 -50.5t-20.5 -43.5q-2 -2 -2 -3t-2 -3q-59 -102 -129 -219t-129 -220zM356 821l160 508q10 35 39 68t84 33q37 0 74 -25t37 -80q0 -29 -10.5 -50.5t-20.5 -43.5q-2 -2 -2 -3t-2 -3q-59 -102 -129 -219 t-129 -220z" />
<glyph unicode="&#x201e;" horiz-adv-x="772" d="M23 -311l161 508q10 33 38 66.5t83 33.5q37 0 74 -24.5t37 -79.5q0 -29 -10.5 -51.5t-20.5 -45.5q-2 -2 -2 -3t-2 -3q-59 -102 -129 -218t-129 -218zM356 -311l160 508q10 33 39 66.5t84 33.5q37 0 74 -24.5t37 -79.5q0 -29 -10.5 -51.5t-20.5 -45.5q-2 -2 -2 -3t-2 -3 q-59 -102 -129 -218t-129 -218z" />
<glyph unicode="&#x2022;" horiz-adv-x="819" d="M41 698q0 76 28.5 142.5t79 117t118 79t143.5 28.5t143.5 -28.5t117.5 -79t78.5 -117t28.5 -142.5q0 -78 -28.5 -144.5t-78.5 -116.5t-118 -78.5t-143 -28.5q-76 0 -143.5 28.5t-118 78.5t-79 116.5t-28.5 144.5z" />
<glyph unicode="&#x2026;" horiz-adv-x="1765" d="M88 125q0 61 44 105t106 44q61 0 105 -44t44 -105q0 -59 -44 -103.5t-105 -44.5t-105.5 44.5t-44.5 103.5zM733 125q0 61 44 105t106 44q61 0 105 -44t44 -105q0 -59 -44 -103.5t-105 -44.5t-105.5 44.5t-44.5 103.5zM1378 125q0 61 44 105t106 44q61 0 105 -44t44 -105 q0 -59 -44 -103.5t-105 -44.5t-105.5 44.5t-44.5 103.5z" />
<glyph unicode="&#x202f;" horiz-adv-x="371" />
<glyph unicode="&#x2039;" horiz-adv-x="403" d="M-27 487l295 439q18 -35 54 -62.5t81 -34.5l-235 -340q25 -41 54.5 -87l59 -92t57.5 -91t52 -82q-39 -4 -78 -33.5t-55 -68.5z" />
<glyph unicode="&#x203a;" horiz-adv-x="399" d="M-4 147l235 336l-223 357q39 4 78 33.5t55 68.5l285 -455l-295 -436q-18 35 -54 62.5t-81 33.5z" />
<glyph unicode="&#x205f;" horiz-adv-x="464" />
<glyph unicode="&#x20ac;" horiz-adv-x="1181" d="M2 465q23 55 36 109.5t21 101.5q23 -6 48.5 -9t52.5 -8q0 16 -1 17.5t1 19.5q-70 -6 -158 -24q23 55 36 109.5t21 101.5q31 -6 63 -11.5t60 -7.5q27 111 79 205t125 164t164 108.5t193 38.5q90 0 188.5 -29.5t170.5 -74.5l16 -45q-29 -78 -49 -178l-82 -2 q-45 80 -115.5 124t-134.5 44q-104 0 -185 -88.5t-116 -268.5h277q53 0 113.5 3t158.5 22q-25 -55 -41 -116.5t-24 -92.5q4 0 8 2q-25 -55 -42.5 -116.5t-23.5 -92.5q-68 10 -123 14t-96 4h-213q29 -168 112 -260t193 -92q70 0 149 44t160 134l48 -86q-8 -35 -12.5 -68.5 t-8.5 -66.5q-29 -25 -72 -47t-93 -37.5t-102 -25t-97 -9.5q-104 0 -193.5 33t-159 97.5t-115.5 159.5t-65 222q-39 -4 -83 -8t-89 -14zM418 655h235q51 0 110.5 3.5t154.5 19.5q-68 12 -122.5 16t-95.5 4h-282v-43z" />
<glyph unicode="&#x2122;" horiz-adv-x="1781" d="M33 1251q16 35 26.5 55.5t10.5 24.5q0 12 -35 78q37 -2 85 -5t97 -5t97 -3t85 -1t85 1t97.5 3t97.5 5t85 5q-16 -33 -25.5 -53.5t-9.5 -24.5t10.5 -25.5t26.5 -56.5q-63 4 -139 10.5t-138 6.5v-236q0 -86 1.5 -171t3.5 -171q0 -16 1 -39.5l2 -47t2 -46.5t1 -35 q-35 10 -60.5 16.5t-40.5 6.5q-10 0 -36.5 -6.5t-61.5 -16.5v76q4 76 7 176t3 244v250q-66 -2 -144.5 -6.5t-133.5 -8.5zM672 510q12 57 26.5 132t27.5 155t25.5 158.5t22.5 148.5q8 72 19.5 158t21.5 153h76q51 -111 112.5 -230.5t126.5 -232.5q20 -33 35 -57.5t37 -63.5 l66 119q61 109 129.5 233t126.5 232h73l27 -280q6 -66 16.5 -150t21.5 -170t22.5 -165t21.5 -134q-37 10 -64.5 18.5t-37.5 8.5t-35 -6.5t-60 -16.5q-4 92 -10 204t-20 226q-4 25 -5 34t-2.5 14.5t-2.5 13.5t-5 35q-4 -12 -12 -24.5t-14 -23.5q-31 -53 -64 -115.5 t-63.5 -124t-57 -116.5t-43.5 -96h-65q-33 72 -71 145.5t-79 149.5l-63 121l-39 71q-4 -23 -5 -48t-3 -48q-12 -90 -19.5 -193.5t-9.5 -228.5q-70 27 -82 27q-8 0 -34.5 -9.5t-67.5 -23.5z" />
<glyph unicode="&#x25fc;" horiz-adv-x="1024" d="M0 0v1024h1024v-1024h-1024z" />
<glyph unicode="&#xfb01;" horiz-adv-x="1038" d="M18 829q4 27 8.5 49.5t4.5 28.5t-3 28.5t-8 49.5h24.5t34 -1t34 -1h24.5h31q4 57 18.5 121.5t38 126t54 117t67.5 92.5q41 39 101.5 69.5t123.5 30.5q23 0 78 -16q0 -41 -1 -60.5t-3 -36.5v3q-2 -23 -3 -58t-1 -57l-53 -25q-57 35 -105 35q-66 0 -92 -47t-26 -109 q0 -29 5 -81t11 -105h65h32t41.5 1t41 1h31.5q-4 -27 -6 -49.5t-2 -28.5t3 -28.5t7 -49.5h-23.5t-33 1t-34 1h-24.5q-16 0 -26.5 1.5t-19.5 2.5t-19.5 1h-26.5v-209t2 -219.5t3 -219t5 -206.5q-43 8 -74.5 13t-50.5 5q-16 0 -50 -5t-77 -13q12 215 16.5 428t4.5 426 q-18 0 -26.5 -1t-26.5 -4q-12 0 -47 -1t-48 -1zM702 1292q0 57 41 97.5t97 40.5q57 0 98 -40t41 -98q0 -57 -41 -97t-98 -40q-55 0 -96.5 40t-41.5 97zM709 -18q12 113 17 218t5 191v201q0 86 -5 190.5t-17 221.5q86 -18 131 -19q43 0 133 19q-12 -117 -17.5 -221.5 t-5.5 -190.5v-201q0 -86 5.5 -190.5t17.5 -218.5q-45 8 -79 13t-54 5t-54 -5t-77 -13z" />
<glyph unicode="&#xfb02;" horiz-adv-x="1050" d="M18 829q4 27 8.5 49.5t4.5 28.5t-3 28.5t-8 49.5h24.5t34 -1t34 -1h24.5h31q4 57 18.5 121.5t38 126t54 117t67.5 92.5q41 39 101.5 69.5t123.5 30.5q23 0 78 -16q0 -41 -1 -60.5t-3 -36.5v3q-2 -23 -3 -58t-1 -57l-51 -25q-57 35 -107 35q-66 0 -92 -47t-26 -109 q0 -29 5 -81t11 -105h65q27 0 74 1t72 1q-4 -27 -6 -49.5t-2 -28.5t3 -28.5t7 -49.5q-16 0 -56 1t-57 1q-16 0 -27.5 1.5t-20.5 2.5t-19.5 1h-26.5v-209t2 -219.5t3 -219t5 -206.5q-43 8 -74.5 13t-50.5 5q-16 0 -50 -5t-77 -13q12 215 16.5 428t4.5 426q-18 0 -26.5 -1 t-26.5 -4q-12 0 -47 -1t-48 -1zM723 -18q6 61 9 138t5 157.5t3 161.5t1 149v350q0 68 -1 147.5t-3 161.5t-5 159t-9 138q43 -10 77 -15t52 -5t52 5t79 15q-6 -61 -10 -138t-6 -159t-3 -161.5t-1 -147.5v-350q0 -68 1 -149t3 -161.5t6 -157.5t10 -138q-45 8 -79 13t-52 5 t-52 -5t-77 -13z" />
</font>
</defs>
</svg>
