<svg
  id="ml-mobile-logo"
  xmlns="http://www.w3.org/2000/svg"
  xml:space="preserve"
  width="284px"
  height="50px"
  version="1.1"
  style="shape-rendering:geometricPrecision; text-rendering:geometricPrecision; image-rendering:optimizeQuality; fill-rule:evenodd; clip-rule:evenodd"
  viewBox="0 0 960 169"
  xmlns:xlink="http://www.w3.org/1999/xlink"
>
    <g id="Layer_x0020_1">
        <path 
            style="fill: #19232D"
            d="M25 136l0 -77 26 -8 0 64 25 -9 0 -64 25 -8 0 64 26 -9c0,-7 0,-89 0,-89 -43,14 -85,28 -127,42l0 127 127 -41 0 -26 -102 34zm696 -29l38 0c2,0 3,1 3,2l0 16c0,2 -1,3 -3,3l-57 0c-1,0 -2,-1 -2,-3l0 -122c0,-2 1,-3 2,-3l17 0c2,0 2,1 2,3l0 104zm56 -107c-1,0 -2,1 -2,3l0 122c0,2 1,3 2,3l17 0c2,0 3,-1 3,-3l0 -122c0,-2 -1,-3 -3,-3l-17 0zm88 0c-2,0 -3,1 -4,3l-17 85 -16 -85c-1,-2 -2,-3 -4,-3l-15 0c-2,0 -3,1 -3,4l27 121c0,2 2,3 4,3l15 0c2,0 4,-1 4,-3l27 -121c0,-3 -1,-4 -3,-4l-15 0zm95 3c0,-2 -1,-3 -3,-3l-59 0c-1,0 -2,1 -2,3l0 122c0,2 1,3 2,3l59 0c2,0 3,-1 3,-3l0 -16c0,-2 -1,-2 -3,-2l-40 0 0 -33 31 0c1,0 2,-1 2,-2l0 -16c0,-2 -1,-3 -2,-3l-31 0 0 -32 40 0c2,0 3,-1 3,-2l0 -16zm-721 -3c-2,0 -3,1 -3,3l-18 79 -18 -79c0,-2 -1,-3 -3,-3l-21 0c-2,0 -3,1 -3,3l0 122c0,2 1,3 3,3l15 0c2,0 3,-1 3,-3l0 -72 1 0 16 72c0,2 1,3 3,3l8 0c2,0 3,-1 4,-3l15 -72 1 0 0 72c0,2 2,3 4,3l14 0c3,0 4,-1 4,-3l0 -122c0,-2 -1,-3 -4,-3l-21 0zm87 0c-2,0 -4,1 -4,3l0 97c0,5 -2,7 -6,7l-8 0c-4,0 -7,-2 -7,-7l0 -97c0,-2 -1,-3 -3,-3l-15 0c-2,0 -3,1 -3,3l0 102c0,15 8,23 23,23l17 0c16,0 23,-8 23,-23l0 -102c0,-2 -1,-3 -3,-3l-14 0zm97 0c-2,0 -3,1 -4,3l-17 79 -18 -79c0,-2 -2,-3 -3,-3l-22 0c-2,0 -3,1 -3,3l0 122c0,2 1,3 3,3l15 0c2,0 3,-1 3,-3l0 -72 1 0 16 72c1,2 2,3 4,3l8 0c1,0 3,-1 3,-3l16 -72 1 0 0 72c0,2 1,3 3,3l15 0c2,0 3,-1 3,-3l0 -122c0,-2 -1,-3 -3,-3l-21 0zm104 23c0,-15 -8,-23 -23,-23l-38 0c-2,0 -3,1 -3,3l0 122c0,2 1,3 3,3l38 0c15,0 23,-8 23,-23l0 -30c0,-6 -4,-10 -10,-11l0 0c6,-1 10,-6 10,-12l0 -29zm-21 24c0,4 -2,6 -6,6l-15 0 0 -32 15 0c4,0 6,2 6,6l0 20zm0 53c0,5 -2,7 -6,7l-15 0 0 -33 15 0c4,0 6,3 6,7l0 19zm111 28c2,0 2,-1 2,-3l-26 -123c-1,-1 -2,-2 -3,-2l-22 0c-2,0 -3,1 -3,2l-26 123c-1,2 0,3 2,3l17 0c1,0 2,-1 2,-3l5 -23 28 0 4 23c1,2 2,3 3,3l17 0zm-28 -44l-20 0 10 -56 10 56zm47 -84c-2,0 -2,1 -2,3l0 122c0,2 0,3 2,3l17 0c1,0 2,-1 2,-3l0 -122c0,-2 -1,-3 -2,-3l-17 0z"
        ></path>
    </g>
</svg>