<svg xmlns="http://www.w3.org/2000/svg" viewBox="0 0 908.66 595.33"><title>fit</title><path fill="#43dbc0" d="M136.07 131v123.29h191.36c13.61 0 21.26 7.65 21.26 21.26V364c0 13.61-7.65 21.26-21.26 21.26H136.07v188.81c0 13.61-7.65 21.26-21.26 21.26H21.26C7.65 595.33 0 587.68 0 574.07V21.26C0 7.65 7.65 0 21.26 0h310.43c13.61 0 21.26 7.65 21.26 21.26v88.45c0 13.61-7.65 21.26-21.26 21.26zM450.28 1.41A27.16 27.16 0 0 0 441.22 0h-24.71a27.16 27.16 0 0 0-9.06 1.41c-7.89 2.79-12.2 9.65-12.2 19.85v552.81c0 13.61 7.65 21.26 21.26 21.26h24.71c13.61 0 21.26-7.65 21.26-21.26V21.26c0-10.2-4.31-17.06-12.2-19.85zm458.38 19.85v88.45c0 13.61-7.65 21.26-21.26 21.26H772.58v443.1c0 13.61-7.65 21.26-21.26 21.26h-93.55c-13.61 0-21.26-7.65-21.26-21.26V131H521.69c-13.61 0-21.26-7.65-21.26-21.26V21.26C500.43 7.65 508.08 0 521.69 0h365.7c13.61 0 21.27 7.65 21.27 21.26z" data-name="Layer 1"/></svg>