<?xml version="1.0" encoding="utf-8"?>
<!-- Generator: Adobe Illustrator 19.2.1, SVG Export Plug-In . SVG Version: 6.00 Build 0)  -->
<svg version="1.1" id="Layer_1" xmlns="http://www.w3.org/2000/svg" xmlns:xlink="http://www.w3.org/1999/xlink" x="0px" y="0px"
	 viewBox="0 0 533 172" style="enable-background:new 0 0 533 172;" preserveAspectRatio="xMinYMid meet" xml:space="preserve">
<style type="text/css">
	.st0{fill:none;}
	.st1{fill:#999999;}
	.st2{enable-background:new    ;}
</style>
<rect x="5" y="12" class="st0" width="495.6" height="151"/>
<path class="st1" d="M8.8,16.1h18.3v37.2c1.4-1.3,3-2.4,4.9-3.6c1.9-1.1,3.9-2.1,6.1-2.9c2.2-0.8,4.4-1.5,6.7-2.1
	c2.3-0.5,4.6-0.8,6.9-0.8c6,0,11.6,1.1,16.8,3.4c5.2,2.3,9.7,5.3,13.6,9.2c3.8,3.8,6.9,8.4,9.2,13.6c2.3,5.2,3.4,10.8,3.4,16.8
	s-1.1,11.6-3.4,16.8c-2.3,5.2-5.3,9.7-9.2,13.6c-3.8,3.8-8.4,6.9-13.6,9.2s-10.8,3.4-16.8,3.4s-11.6-1.1-16.8-3.3s-9.8-5.2-13.7-9.1
	c-3.9-3.8-6.9-8.4-9.2-13.6c-2.2-5.2-3.3-10.9-3.3-17L8.8,16.1L8.8,16.1z M27.1,86.9c0,3.4,0.7,6.5,2,9.5s3.1,5.6,5.3,7.8
	c2.2,2.2,4.8,4,7.8,5.3s6.2,2,9.5,2c3.4,0,6.5-0.7,9.5-2c3-1.3,5.6-3.1,7.8-5.3c2.2-2.2,4-4.8,5.3-7.8s2-6.2,2-9.5
	c0-3.4-0.7-6.5-2-9.5s-3.1-5.6-5.3-7.8c-2.2-2.2-4.8-4-7.8-5.3c-3-1.3-6.2-2-9.5-2c-3.4,0-6.5,0.7-9.5,2c-3,1.3-5.6,3.1-7.8,5.3
	c-2.2,2.2-4,4.8-5.3,7.8C27.8,80.4,27.1,83.6,27.1,86.9"/>
<path class="st1" d="M98.3,86.9c0-6,1.1-11.6,3.4-16.8s5.3-9.7,9.2-13.6c3.9-3.8,8.4-6.9,13.6-9.2s10.8-3.4,16.8-3.4
	s11.6,1.1,16.8,3.4c5.2,2.3,9.7,5.3,13.6,9.2c3.8,3.8,6.9,8.4,9.2,13.6s3.4,10.8,3.4,16.8s-1.1,11.6-3.4,16.8
	c-2.3,5.2-5.3,9.7-9.2,13.6c-3.8,3.8-8.4,6.9-13.6,9.2c-5.2,2.3-10.8,3.4-16.8,3.4s-11.6-1.1-16.8-3.4c-5.2-2.3-9.8-5.3-13.6-9.2
	c-3.9-3.8-7-8.4-9.2-13.6C99.4,98.5,98.3,92.9,98.3,86.9 M116.6,86.9c0,3.4,0.7,6.5,2,9.5s3.1,5.6,5.3,7.8c2.2,2.2,4.8,4,7.8,5.3
	s6.2,2,9.6,2s6.6-0.7,9.6-2s5.6-3.1,7.8-5.3c2.2-2.2,4-4.8,5.3-7.8s2-6.2,2-9.5c0-3.4-0.7-6.5-2-9.5s-3.1-5.6-5.3-7.8
	c-2.2-2.2-4.8-4-7.8-5.3c-3-1.3-6.2-2-9.6-2s-6.6,0.7-9.6,2c-3,1.3-5.6,3.1-7.8,5.3c-2.2,2.2-4,4.8-5.3,7.8
	C117.3,80.4,116.6,83.6,116.6,86.9"/>
<rect x="188.4" y="16.1" class="st1" width="18.3" height="110.5"/>
<path class="st1" d="M297.9,86.9c0,6.1-1.1,11.8-3.3,17c-2.2,5.2-5.3,9.7-9.2,13.6c-3.9,3.8-8.4,6.9-13.7,9.1
	c-5.2,2.2-10.8,3.3-16.8,3.3c-6,0-11.6-1.1-16.8-3.4c-5.2-2.3-9.7-5.3-13.6-9.2c-3.8-3.8-6.9-8.4-9.2-13.6s-3.4-10.8-3.4-16.8
	s1.1-11.6,3.4-16.8c2.3-5.2,5.3-9.7,9.2-13.6c3.8-3.8,8.4-6.9,13.6-9.2C243.4,45.1,249,44,255,44c2.3,0,4.6,0.3,6.9,0.8
	s4.5,1.2,6.7,2.1c2.2,0.8,4.2,1.8,6.1,2.9c1.9,1.1,3.5,2.3,4.9,3.6V16.1h18.3V86.9z M279.6,86.9c0-3.4-0.7-6.5-2-9.5
	s-3.1-5.6-5.3-7.8c-2.2-2.2-4.8-4-7.8-5.3c-3-1.3-6.2-2-9.5-2c-3.4,0-6.5,0.7-9.5,2c-3,1.3-5.6,3.1-7.8,5.3c-2.2,2.2-4,4.8-5.3,7.8
	s-2,6.2-2,9.5c0,3.4,0.7,6.5,2,9.5s3.1,5.6,5.3,7.8s4.8,4,7.8,5.3s6.2,2,9.5,2c3.4,0,6.5-0.7,9.5-2s5.6-3.1,7.8-5.3
	c2.2-2.2,4-4.8,5.3-7.8C279,93.5,279.6,90.3,279.6,86.9"/>
<path class="st1" d="M342,104.5c0.1-3.2-1-5.4-3.2-6.8c-2.3-1.4-5.6-2.6-10-3.8c-2.9-0.7-5.8-1.6-8.7-2.7c-2.8-1.1-5.4-2.4-7.8-4.2
	c-2.4-1.7-4.3-3.9-5.9-6.5s-2.6-5.8-3-9.5c-0.3-3.8,0.2-7.3,1.6-10.6s3.4-6.1,6-8.5s5.7-4.3,9.2-5.8c3.5-1.4,7.3-2.1,11.3-2.1
	c3.4,0,6.5,0.6,9.5,1.7c2.9,1.2,5.6,2.7,7.9,4.5s4.2,3.9,5.7,6.2s2.5,4.5,3,6.7H339c-1.1-2-3.8-3-8.2-3c-2.6,0-5,0.8-7.1,2.4
	c-2.1,1.6-2.8,3.8-2.2,6.8c0.4,1.8,2,3.2,4.7,4.3c2.7,1.1,6.7,2.5,12.1,4.3c3.2,1.1,6.1,2.3,8.8,3.8c2.7,1.5,5.1,3.3,7.2,5.4
	s3.7,4.6,4.8,7.6c1.2,2.9,1.7,6.4,1.7,10.3c0,4-0.8,7.5-2.4,10.7c-1.6,3.1-3.8,5.7-6.5,7.9c-2.7,2.2-5.9,3.8-9.5,5
	s-7.3,1.7-11.2,1.7c-3.5,0-7-0.7-10.5-2s-6.7-3.2-9.5-5.5c-2.8-2.4-5.1-5.3-6.9-8.7c-1.8-3.4-2.7-7.2-2.7-11.3h18.3
	c0.1,2.8,1.2,5.3,3.3,7.5c2.1,2.2,4.8,3.2,8.2,3.2c3.2,0,5.7-0.9,7.6-2.8C340.8,108.6,341.9,106.6,342,104.5"/>
<path class="st1" d="M426.2,126.5H403l-20.5-27c0,4.5,0,9.2,0.1,14s0.1,9.1,0.1,13h-18.3L364.2,16h18.3v49.7L403,47.6h24l-35.3,33.5
	L426.2,126.5z"/>
<path class="st1" d="M480,47.6h18.3v43.9c0,4-0.5,7.9-1.6,11.6s-2.7,7.2-4.9,10.3c-2.2,3.2-5,5.9-8.3,8.2c-3.3,2.3-7.3,4-11.8,5.1
	v31.1h-18.3v-31.2c-7.9-2.6-14.3-7.1-19.3-13.3c-4.9-6.3-7.5-13.5-7.6-21.7v-44h18.3l0.2,43.9c0,2.4,0.4,4.7,1.3,6.8
	c0.9,2.1,2.1,3.9,3.7,5.5s3.4,2.8,5.5,3.8c2.1,0.9,4.4,1.4,6.8,1.4s4.7-0.4,6.8-1.3c2.1-0.9,4-2.1,5.5-3.7c1.6-1.6,2.9-3.4,3.8-5.5
	c1-2.1,1.4-4.4,1.4-6.8V47.6H480z"/>
<g class="st2">
	<path class="st1" d="M514.2,23.7c2.1,0,4.1,0.5,6.1,1.6s3.6,2.6,4.7,4.6c1.1,2,1.7,4.1,1.7,6.3c0,2.2-0.5,4.2-1.6,6.2
		c-1.1,2-2.6,3.5-4.6,4.6c-2,1.1-4.1,1.6-6.2,1.6S510,48.1,508,47c-2-1.1-3.5-2.6-4.6-4.6s-1.7-4.1-1.7-6.2c0-2.2,0.6-4.3,1.7-6.3
		c1.1-2,2.7-3.5,4.7-4.6S512.1,23.7,514.2,23.7z M514.2,25.8c-1.8,0-3.5,0.5-5.1,1.3c-1.7,0.9-3,2.2-3.9,3.9
		c-0.9,1.7-1.4,3.4-1.4,5.2c0,1.8,0.5,3.5,1.4,5.2c0.9,1.7,2.2,2.9,3.9,3.9c1.7,0.9,3.4,1.4,5.2,1.4s3.5-0.5,5.2-1.4
		c1.7-0.9,2.9-2.2,3.9-3.9c0.9-1.7,1.4-3.4,1.4-5.2c0-1.8-0.5-3.6-1.4-5.2s-2.2-3-3.9-3.9C517.7,26.2,516,25.8,514.2,25.8z
		 M508.7,43.1V29.7h4.6c1.6,0,2.7,0.1,3.4,0.4c0.7,0.2,1.3,0.7,1.7,1.3c0.4,0.6,0.6,1.3,0.6,2c0,1-0.4,1.8-1.1,2.6
		c-0.7,0.7-1.6,1.1-2.8,1.2c0.5,0.2,0.9,0.4,1.1,0.7c0.5,0.5,1.2,1.4,2,2.7l1.6,2.6h-2.7l-1.2-2.1c-0.9-1.7-1.7-2.7-2.3-3.1
		c-0.4-0.3-1-0.5-1.7-0.5h-1.3v5.7H508.7z M510.9,35.5h2.6c1.3,0,2.1-0.2,2.6-0.6c0.5-0.4,0.7-0.9,0.7-1.5c0-0.4-0.1-0.8-0.3-1.1
		s-0.5-0.5-0.9-0.7c-0.4-0.2-1.1-0.2-2.2-0.2h-2.5V35.5z"/>
</g>
</svg>
