<?xml version="1.0" encoding="utf-8"?>
<!-- Generator: Adobe Illustrator 19.2.1, SVG Export Plug-In . SVG Version: 6.00 Build 0)  -->
<svg version="1.1" id="Layer_1" xmlns="http://www.w3.org/2000/svg" xmlns:xlink="http://www.w3.org/1999/xlink" x="0px" y="0px"
	 viewBox="0 0 483.3 127.3" style="enable-background:new 0 0 483.3 127.3;" preserveAspectRatio="xMinYMid meet" xml:space="preserve">
<style type="text/css">
	.st0{fill:#073756;}
	.st1{fill:#11666D;}
</style>
<g>
	<path class="st0" d="M75.3,89.5c12.5-7.9,26-15.8,39.5-24.3c0,10.9,0,20.3,0,30.8c-13,8-39.5,24.4-39.5,24.4S75.3,102.8,75.3,89.5z
		"/>
	<path class="st1" d="M75.3,89.5c0,10.6,0,20.5,0,30.9c-12.5-8.1-26.1-16.2-38.8-24.5c0-9.7,0-19.4,0-29.9
		C50.3,74.2,62.3,81.8,75.3,89.5z"/>
</g>
<g>
	<path class="st0" d="M154,75.2h-14.6v-9.6c0-2.8-0.2-4.5-0.5-5.2c-0.3-0.7-1-1-2.1-1c-1.2,0-2,0.4-2.3,1.3
		c-0.3,0.8-0.5,2.7-0.5,5.4v25.6c0,2.7,0.2,4.4,0.5,5.2c0.3,0.8,1.1,1.2,2.2,1.2c1.1,0,1.8-0.4,2.1-1.2c0.3-0.8,0.5-2.7,0.5-5.8
		v-6.9H154v2.1c0,5.7-0.4,9.7-1.2,12.1c-0.8,2.4-2.6,4.5-5.4,6.3c-2.8,1.8-6.3,2.7-10.4,2.7c-4.3,0-7.8-0.8-10.6-2.3
		c-2.8-1.5-4.6-3.6-5.5-6.3c-0.9-2.7-1.4-6.7-1.4-12.1V70.6c0-4,0.1-6.9,0.4-8.9c0.3-2,1.1-3.9,2.5-5.7c1.4-1.8,3.3-3.3,5.7-4.3
		c2.4-1.1,5.2-1.6,8.4-1.6c4.3,0,7.9,0.8,10.7,2.4c2.8,1.6,4.6,3.7,5.5,6.1c0.9,2.4,1.3,6.2,1.3,11.4V75.2z"/>
	<path class="st0" d="M184.1,51.2l8.4,55.1h-14.9l-0.8-9.9h-5.2l-0.9,9.9h-15.1l7.5-55.1H184.1z M176.3,86.6
		c-0.7-6.2-1.5-13.9-2.2-23.1c-1.5,10.5-2.4,18.3-2.8,23.1H176.3z"/>
	<path class="st0" d="M194.5,51.2h10.3c6.9,0,11.6,0.3,14,0.8c2.4,0.5,4.4,1.9,6,4c1.5,2.1,2.3,5.6,2.3,10.3c0,4.3-0.5,7.2-1.6,8.6
		c-1.1,1.5-3.2,2.4-6.4,2.7c2.9,0.7,4.8,1.6,5.8,2.8c1,1.2,1.6,2.3,1.9,3.2c0.2,1,0.4,3.7,0.4,8.1v14.5h-13.6V87.9
		c0-2.9-0.2-4.8-0.7-5.5c-0.5-0.7-1.7-1.1-3.7-1.1v24.8h-14.6V51.2z M209.1,60.6v12.2c1.6,0,2.8-0.2,3.5-0.7c0.7-0.4,1-1.9,1-4.3v-3
		c0-1.7-0.3-2.9-1-3.4C212,60.9,210.8,60.6,209.1,60.6z"/>
	<path class="st0" d="M232.3,51.2h24.4v11H247v10.4h9.1v10.5H247v12.1h10.7v11h-25.3V51.2z"/>
	<path class="st0" d="M261.4,51.2h24.4v11h-9.8v10.4h9.1v10.5h-9.1v12.1h10.7v11h-25.3V51.2z"/>
	<path class="st0" d="M290.6,51.2h10.3c6.9,0,11.6,0.3,14,0.8c2.4,0.5,4.4,1.9,6,4c1.5,2.1,2.3,5.6,2.3,10.3c0,4.3-0.5,7.2-1.6,8.6
		c-1.1,1.5-3.2,2.4-6.4,2.7c2.9,0.7,4.8,1.6,5.8,2.8c1,1.2,1.6,2.3,1.9,3.2c0.2,1,0.4,3.7,0.4,8.1v14.5h-13.6V87.9
		c0-2.9-0.2-4.8-0.7-5.5c-0.5-0.7-1.7-1.1-3.7-1.1v24.8h-14.6V51.2z M305.2,60.6v12.2c1.6,0,2.8-0.2,3.5-0.7c0.7-0.4,1-1.9,1-4.3v-3
		c0-1.7-0.3-2.9-1-3.4C308,60.9,306.8,60.6,305.2,60.6z"/>
	<path class="st1" d="M343,51.2v55.1h-14.6V51.2H343z"/>
	<path class="st1" d="M381.1,51.2v55.1h-12.8l-7.6-25v25h-12.2V51.2h12.2l8.2,24.8V51.2H381.1z"/>
	<path class="st1" d="M386.5,51.2h10.9c7.1,0,11.8,0.3,14.3,1c2.5,0.6,4.4,1.7,5.7,3.1c1.3,1.5,2.1,3.1,2.4,4.8
		c0.3,1.8,0.5,5.3,0.5,10.5v19.3c0,4.9-0.2,8.2-0.7,9.9c-0.5,1.7-1.3,3-2.5,3.9c-1.2,0.9-2.6,1.6-4.4,2c-1.7,0.4-4.3,0.6-7.8,0.6
		h-18.4V51.2z M401.1,60.6v36.2c2.1,0,3.4-0.4,3.9-1.2c0.5-0.8,0.7-3.1,0.7-6.8V67.4c0-2.5-0.1-4.1-0.2-4.8
		c-0.2-0.7-0.5-1.2-1.1-1.5C403.8,60.8,402.7,60.6,401.1,60.6z"/>
	<path class="st1" d="M440,51.2v55.1h-14.6V51.2H440z"/>
	<path class="st1" d="M470.7,51.2l8.4,55.1h-14.9l-0.8-9.9h-5.2l-0.9,9.9h-15.1l7.5-55.1H470.7z M462.9,86.6
		c-0.7-6.2-1.5-13.9-2.2-23.1c-1.5,10.5-2.4,18.3-2.8,23.1H462.9z"/>
</g>
<path class="st0" d="M76.3-6.5"/>
<path class="st0" d="M76.7,78.3c24.7-13.8,49.2-27.5,74.5-41.6C132.5,29,78.3,3.5,78.3,3.5c-0.6,0-74.9,32.3-74.9,32.3l13.8,9
	c0,0,0,25.3,0,38.7c-4,1.4-6.2,4.9-6.2,9.1c0,5.4,4.4,9.8,9.8,9.8c5.4,0,9.8-4.4,9.8-9.8c0-3.8-2.5-7.1-5.6-8.7
	c-0.2-0.2-0.8-0.4-0.8-0.5c0-11.9,0-22.9,0-35.1C42.2,58.6,59.4,68.4,76.7,78.3z"/>
</svg>
