<?xml version="1.0" encoding="utf-8"?>
<!-- Generator: Adobe Illustrator 19.2.1, SVG Export Plug-In . SVG Version: 6.00 Build 0)  -->
<svg version="1.1"
	 id="Layer_1" inkscape:version="0.48.2 r9819" sodipodi:docname="clickinNewlogoFinal-45.svg" xmlns:cc="http://creativecommons.org/ns#" xmlns:dc="http://purl.org/dc/elements/1.1/" xmlns:inkscape="http://www.inkscape.org/namespaces/inkscape" xmlns:rdf="http://www.w3.org/1999/02/22-rdf-syntax-ns#" xmlns:sodipodi="http://sodipodi.sourceforge.net/DTD/sodipodi-0.dtd" xmlns:svg="http://www.w3.org/2000/svg"
	 xmlns="http://www.w3.org/2000/svg" xmlns:xlink="http://www.w3.org/1999/xlink" x="0px" y="0px" viewBox="0 0 8344 1632"
	 style="enable-background:new 0 0 8344 1632;" preserveAspectRatio="xMinYMid meet" xml:space="preserve">
<style type="text/css">
	.st0{fill:#999999;}
	.st1{enable-background:new    ;}
</style>
<sodipodi:namedview  bordercolor="#666666" borderopacity="1" gridtolerance="10" guidetolerance="10" id="namedview3265" inkscape:current-layer="Layer_1" inkscape:cx="107.75" inkscape:cy="34.25" inkscape:guide-bbox="true" inkscape:pageopacity="0" inkscape:pageshadow="2" inkscape:window-height="1017" inkscape:window-maximized="1" inkscape:window-width="1920" inkscape:window-x="-8" inkscape:window-y="-8" inkscape:zoom="8.1670534" objecttolerance="10" pagecolor="#ffffff" showgrid="false" showguides="true">
	</sodipodi:namedview>
<g id="g3135">
	<path id="path3137" inkscape:connector-curvature="0" class="st0" d="M317.1,484.3c-148.3,0-268.6,120.3-268.6,268.6v537.2
		c0,148.3,120.3,268.6,268.6,268.6h617.4c148.3,0,268.6-120.3,268.6-268.6v-20H381.2c-36.1,0-64.1-28.1-64.1-64.1V817.1
		c0-36.1,28.1-64.1,64.1-64.1h184.4c16,4,28.1,4,44.1,4h304.7c156.4,0,288.7-124.3,292.7-280.6L317.1,484.3L317.1,484.3L317.1,484.3
		L317.1,484.3z"/>
</g>
<g id="g3145">
	<path id="path3147" inkscape:connector-curvature="0" class="st0" d="M1740.4,748.9V536.4c0-148.3-136.3-268.6-300.7-268.6v481.1
		V793v240.6v32.1v224.5c0,148.3,136.3,268.6,300.7,268.6v-493.1l0,0L1740.4,748.9L1740.4,748.9L1740.4,748.9L1740.4,748.9z"/>
</g>
<g id="g3155">
	<path id="path3157" inkscape:connector-curvature="0" class="st0" d="M2277.6,1009.5v-44.1V752.9c0-148.3-136.3-268.6-300.7-268.6
		v485.1v40.1v24.1v48.1v208.5c0,148.3,136.3,268.6,300.7,268.6v-441v-88.2V1009.5L2277.6,1009.5z"/>
</g>
<g id="g3165">
	<path id="path3167" inkscape:connector-curvature="0" class="st0" d="M1976.9,404.1c4-12,8-356.8,441-308.7
		C2413.9,456.3,1972.9,416.2,1976.9,404.1L1976.9,404.1z"/>
</g>
<g id="g3175" transform="translate(0.24488633,-0.61221589)">
	<path id="path3177" inkscape:connector-curvature="0" class="st0" d="M2792.4,464.4c-148.3,0-268.6,120.3-268.6,268.6v537.2
		c0,148.3,120.3,268.6,268.6,268.6h617.4c148.3,0,268.6-120.3,268.6-268.6v-16h-817.9c-36.1,0-64.1-28.1-64.1-64.1V801.2
		c0-36.1,28.1-64.1,64.1-64.1H3045c16,4,28.1,4,44.1,4h304.7c156.4,0,288.7-124.3,292.7-280.6L2792.4,464.4
		C2792.4,460.4,2792.4,464.4,2792.4,464.4L2792.4,464.4L2792.4,464.4z"/>
</g>
<g id="g3185">
	<path id="path3187" inkscape:connector-curvature="0" class="st0" d="M4206.1,752.9V540.5c0-148.3-136.3-268.6-300.7-268.6V753v44
		v240.6v32.1v224.5c0,148.3,136.3,268.6,300.7,268.6v-493.1l0,0V752.9L4206.1,752.9L4206.1,752.9z"/>
</g>
<g id="g3195">
	<path id="path3197" inkscape:connector-curvature="0" class="st0" d="M4206.1,1137.8l513.2,380.9c0,0,248.6,112.3,449-20
		c-172.4-144.3-665.5-521.2-665.5-521.2l561.3-421c0,0-224.5-136.3-457.1-36.1c-204.5,148.3-417,324.8-417,324.8L4206.1,1137.8
		L4206.1,1137.8L4206.1,1137.8z"/>
</g>
<g id="g3205">
	<path id="path3207" inkscape:connector-curvature="0" class="st0" d="M5404.9,1538.8c4-12,8-356.8,441-308.7
		C5837.9,1590.9,5400.9,1550.8,5404.9,1538.8L5404.9,1538.8z"/>
</g>
<g id="g3215">
	<path id="path3217" inkscape:connector-curvature="0" class="st0" d="M6387.1,1009.5v-44.1V752.9c0-148.3-136.3-268.6-300.7-268.6
		v485.1v40.1v24.1v48.1v208.5c0,148.3,136.3,268.6,300.7,268.6v-441v-88.2V1009.5L6387.1,1009.5z"/>
</g>
<g id="g3225">
	<path id="path3227" inkscape:connector-curvature="0" class="st0" d="M6082.4,404.1c4-12,8-356.8,441-308.7
		C6519.4,456.3,6082.4,416.2,6082.4,404.1L6082.4,404.1z"/>
</g>
<g id="g3235">
	<path id="path3237" inkscape:connector-curvature="0" class="st0" d="M7642,1145.9v-48.1V793c0-32.1-28.1-60.1-64.1-60.1h-168.4
		l0,0H7185l0,0h-192.4c-36.1,0-64.1,28.1-64.1,60.1v769.8h-20c-152.4,0-276.6-112.3-276.6-252.6V736.9
		c0-140.3,124.3-252.6,276.6-252.6H7185h16h168.4h40.1h252.6c152.4,0,276.6,112.3,276.6,252.6v360.8v48.1h-24.1h24.1
		c0,0,0,24.1,0,96.2c40.1,212.5,188.4,224.5,188.4,224.5c52.1,64.1-16,92.2-16,92.2s-52.1,0-172.4,0
		c-244.6-8-288.7-252.6-288.7-252.6L7642,1145.9L7642,1145.9L7642,1145.9L7642,1145.9z"/>
</g>
<g class="st1">
	<path class="st0" d="M8145.5,71.5c29.8,0,58.8,7.6,87.2,22.9c28.3,15.3,50.4,37.1,66.2,65.5c15.8,28.4,23.7,58.1,23.7,88.9
		c0,30.5-7.8,59.9-23.4,88.1c-15.6,28.2-37.4,50.1-65.5,65.7c-28.1,15.6-57.5,23.4-88.2,23.4c-30.7,0-60.1-7.8-88.2-23.4
		c-28.1-15.6-50-37.5-65.7-65.7c-15.7-28.2-23.5-57.6-23.5-88.1c0-30.9,7.9-60.5,23.8-88.9c15.9-28.4,38-50.3,66.4-65.5
		C8086.6,79.1,8115.7,71.5,8145.5,71.5z M8145.5,100.8c-24.9,0-49.1,6.4-72.7,19.1c-23.6,12.8-42,31-55.3,54.7
		c-13.3,23.7-20,48.4-20,74.1c0,25.5,6.5,50,19.6,73.4c13.1,23.4,31.4,41.7,54.9,54.7c23.5,13.1,48,19.6,73.5,19.6
		c25.5,0,50-6.5,73.5-19.6c23.5-13.1,41.7-31.3,54.7-54.7c13-23.4,19.5-47.9,19.5-73.4c0-25.7-6.6-50.4-19.8-74.1
		c-13.2-23.7-31.7-42-55.3-54.7C8194.4,107.2,8170.2,100.8,8145.5,100.8z M8067.7,346.8V156h65.5c22.4,0,38.6,1.8,48.6,5.3
		c10,3.5,18,9.7,24,18.4c6,8.8,8.9,18.1,8.9,28c0,13.9-5,26.1-14.9,36.4c-9.9,10.3-23.1,16.1-39.6,17.4c6.7,2.8,12.1,6.2,16.2,10.1
		c7.7,7.5,17.1,20.1,28.2,37.8l23.3,37.4h-37.6l-16.9-30.1c-13.3-23.6-24-38.4-32.2-44.4c-5.6-4.4-13.9-6.6-24.7-6.6h-18.1v81
		H8067.7z M8098.5,239.4h37.4c17.9,0,30-2.7,36.5-8c6.5-5.3,9.7-12.4,9.7-21.1c0-5.6-1.6-10.7-4.7-15.2c-3.1-4.5-7.5-7.8-13-10
		c-5.6-2.2-15.9-3.3-30.9-3.3h-35V239.4z"/>
</g>
</svg>
