<?xml version="1.0" encoding="utf-8"?>
<!-- Generator: Adobe Illustrator 19.2.1, SVG Export Plug-In . SVG Version: 6.00 Build 0)  -->
<svg version="1.2" baseProfile="tiny" id="Layer_1" xmlns="http://www.w3.org/2000/svg" xmlns:xlink="http://www.w3.org/1999/xlink"
	 x="0px" y="0px" viewBox="0 0 314.5 61" preserveAspectRatio="xMinYMid meet" xml:space="preserve">
<path fill="#FFFFFF" d="M22.1,5.7H7.3l-1.4,8.8h10.4l0,0h2.4c6.7,0,10.8,4,9.7,11.2c-1.2,7.8-7.1,11.2-13.3,11.2H14v0H2.4L1,45.8
	h14.8c11.1,0,21.8-8.8,23.6-20.1C41.1,14.4,33.3,5.7,22.1,5.7"/>
<g>
	<path d="M21.8,5.7H7l-1.4,8.8H16l0,0h2.4c6.7,0,10.8,4,9.7,11.2c-1.2,7.8-7.1,11.2-13.3,11.2h-1.1v0H2.1l-1.4,8.8h14.8
		c11.1,0,21.8-8.8,23.6-20.1C40.8,14.4,33,5.7,21.8,5.7"/>
	<path d="M53.8,22.9h0.1c2.4-3.4,5.8-4.8,9.6-4.8h1.9l-1.5,9.3c-1.2-0.7-2.5-0.9-4-0.9c-5.4,0-7.3,3.6-8,8.2l-1.7,11h-9.7l4.3-27.3
		h9.7L53.8,22.9z"/>
	<path d="M74.3,45.8h-9.7l4.3-27.3h9.7L74.3,45.8z M80.8,8c-0.5,3-3.3,5.4-6.3,5.4c-3,0-5-2.4-4.6-5.4c0.5-3,3.3-5.4,6.3-5.4
		C79.2,2.6,81.3,5,80.8,8"/>
	<polygon points="96.2,32.5 104.9,18.5 115.7,18.5 97.1,45.8 91,45.8 81,18.5 91.8,18.5 	"/>
	<path d="M143.7,33.7h-20.4c-0.6,3.9,1.1,6.1,5.1,6.1c2.1,0,3.7-0.7,5-2.5h9.3c-2.6,6.4-9.1,9.4-15.4,9.4c-9,0-15-5.1-13.5-14.5
		c1.4-9.1,8.5-14.6,17.4-14.6c9.5,0,14,5.9,12.5,15.2L143.7,33.7z M135.6,28.2c-0.1-2.6-2.2-4.3-4.8-4.3c-2.8,0-5.4,1.5-6.4,4.3
		H135.6z"/>
	<path fill="#EA2728" d="M173.2,16c-1.7-1.6-3.9-2.7-6.5-2.7c-1.9,0-4.6,1.1-5,3.4c-0.4,2.3,2.3,3.2,4,3.8l2.5,0.8
		c5.3,1.7,9.2,4.5,8.2,11c-0.6,4-2.2,8.1-5.9,10.8c-3.6,2.7-7.9,3.8-12,3.8c-5.1,0-9.7-1.7-13.4-4.6l5.8-8.4c2.2,2.3,5,4.1,8.6,4.1
		c2.4,0,5.2-1.2,5.7-4c0.5-2.9-3.5-3.9-5.6-4.6c-6.2-1.9-10.3-3.6-9.1-11.3c1.3-8.1,7.9-13.5,16-13.5c4,0,8.8,1.3,12,3.3L173.2,16z"
		/>
	<path fill="#EA2728" d="M192.2,21.6h0.1c2.2-2.7,5.7-4,8.9-4c8.1,0,12.7,6.8,11.5,14.6c-1.2,7.9-7.9,14.5-16,14.5
		c-3.1,0-6.2-1.1-7.9-3.5l-2.6,16.2h-9.7l6.5-40.9h9.7L192.2,21.6z M190.2,32.1c-0.5,3.5,1.3,6.1,5.3,6.1c3.9,0,6.6-2.7,7.2-6.1
		c0.5-3.4-1.3-6.2-5.2-6.2C193.5,26,190.8,28.8,190.2,32.1"/>
	<path fill="#EA2728" d="M245.2,45.8h-9.7l0.5-3h-0.1c-2.1,2.7-5.7,3.9-8.9,3.9c-8.1,0-12.7-6.8-11.5-14.6c1.2-7.8,7.9-14.5,16-14.5
		c3.1,0,6.3,1.2,7.9,3.6l0.4-2.7h9.7L245.2,45.8z M225.5,32.1c-0.5,3.5,1.3,6.1,5.3,6.1c3.9,0,6.6-2.7,7.2-6.1
		c0.5-3.4-1.3-6.2-5.2-6.2C228.8,26,226,28.8,225.5,32.1"/>
	<path fill="#EA2728" d="M264.9,22.9h0.1c2.4-3.4,5.8-4.8,9.6-4.8h1.9l-1.5,9.3c-1.2-0.7-2.5-0.9-4-0.9c-5.4,0-7.3,3.6-8,8.2
		l-1.7,11h-9.7l4.3-27.3h9.7L264.9,22.9z"/>
	<polygon fill="#EA2728" points="288.2,28.3 299.8,18.5 313,18.5 297.3,31.1 309.5,45.8 296,45.8 287.2,34.6 285.4,45.8 275.7,45.8 
		282.7,1.6 292.4,1.6 	"/>
	<path fill="#EA2728" d="M8.6,23.1c-1.7,1.7-1.4,5,1,6.1c3.2,1.4,5.6,2.5,9.3,4.2c-1.7-3.8-2.8-6.2-4.2-9.3
		C13.7,21.9,10.5,21.2,8.6,23.1"/>
</g>
</svg>
