<?xml version="1.0" encoding="utf-8"?>
<!-- Generator: Adobe Illustrator 19.2.1, SVG Export Plug-In . SVG Version: 6.00 Build 0)  -->
<svg version="1.1" id="Layer_1" xmlns="http://www.w3.org/2000/svg" xmlns:xlink="http://www.w3.org/1999/xlink" x="0px" y="0px"
	 viewBox="0 0 335 59.3" style="enable-background:new 0 0 335 59.3;" preserveAspectRatio="xMinYMid meet" xml:space="preserve">
<style type="text/css">
	.st0{fill:#999999;}
	.st1{enable-background:new    ;}
</style>
<rect x="216.4" y="30.4" class="st0" width="7.5" height="7.4"/>
<polygon class="st0" points="314.2,15.4 261.6,15.4 261.6,22.8 284.1,22.8 284.1,52.8 291.6,52.8 291.6,22.8 314.2,22.8 "/>
<path class="st0" d="M186.3,15.4h-45.1v37.5h52.7V30.4h-7.5v-15H186.3z M148.7,22.8h30.1v7.6h-30.1V22.8z M186.3,45.3h-37.6v-7.6
	h37.6L186.3,45.3L186.3,45.3z"/>
<rect x="66" y="15.4" class="st0" width="7.5" height="37.5"/>
<rect x="231.5" y="30.4" class="st0" width="7.5" height="7.4"/>
<path class="st0" d="M254,15.4h-22.5V7.7H224v7.7h-22.6v37.5H254V15.4z M246.5,45.3h-37.6V22.8h37.6V45.3z"/>
<polygon class="st0" points="81,15.4 81,22.8 119.1,22.8 81,45.4 81,52.8 133.8,52.8 133.8,45.4 95.5,45.4 133.8,22.8 133.8,15.4 
	"/>
<polygon class="st0" points="58.5,30.4 58.5,52.8 5.8,52.8 5.8,15.4 58.5,15.4 58.5,22.8 13.3,22.8 13.3,45.4 50.9,45.4 50.9,37.7 
	35.9,37.7 35.9,30.4 "/>
<g class="st1">
	<path class="st0" d="M325.2,4.9c1.3,0,2.5,0.3,3.7,1c1.2,0.6,2.1,1.6,2.8,2.8c0.7,1.2,1,2.5,1,3.8c0,1.3-0.3,2.5-1,3.7
		s-1.6,2.1-2.8,2.8c-1.2,0.7-2.4,1-3.7,1s-2.5-0.3-3.7-1s-2.1-1.6-2.8-2.8c-0.7-1.2-1-2.4-1-3.7c0-1.3,0.3-2.6,1-3.8
		c0.7-1.2,1.6-2.1,2.8-2.8C322.7,5.3,323.9,4.9,325.2,4.9z M325.2,6.2c-1.1,0-2.1,0.3-3.1,0.8s-1.8,1.3-2.3,2.3
		c-0.6,1-0.8,2-0.8,3.1c0,1.1,0.3,2.1,0.8,3.1c0.6,1,1.3,1.8,2.3,2.3c1,0.6,2,0.8,3.1,0.8s2.1-0.3,3.1-0.8c1-0.6,1.8-1.3,2.3-2.3
		c0.5-1,0.8-2,0.8-3.1c0-1.1-0.3-2.1-0.8-3.1c-0.6-1-1.3-1.8-2.3-2.3C327.3,6.4,326.2,6.2,325.2,6.2z M321.9,16.6V8.5h2.8
		c0.9,0,1.6,0.1,2.1,0.2s0.8,0.4,1,0.8c0.3,0.4,0.4,0.8,0.4,1.2c0,0.6-0.2,1.1-0.6,1.5s-1,0.7-1.7,0.7c0.3,0.1,0.5,0.3,0.7,0.4
		c0.3,0.3,0.7,0.9,1.2,1.6l1,1.6h-1.6l-0.7-1.3c-0.6-1-1-1.6-1.4-1.9c-0.2-0.2-0.6-0.3-1-0.3h-0.8v3.4H321.9z M323.2,12h1.6
		c0.8,0,1.3-0.1,1.5-0.3c0.3-0.2,0.4-0.5,0.4-0.9c0-0.2-0.1-0.5-0.2-0.6c-0.1-0.2-0.3-0.3-0.6-0.4c-0.2-0.1-0.7-0.1-1.3-0.1h-1.5V12
		z"/>
</g>
</svg>
