<?xml version="1.0" encoding="utf-8"?>
<!-- Generator: Adobe Illustrator 19.2.1, SVG Export Plug-In . SVG Version: 6.00 Build 0)  -->
<svg version="1.1" id="Layer_1" xmlns="http://www.w3.org/2000/svg" xmlns:xlink="http://www.w3.org/1999/xlink" x="0px" y="0px"
	 viewBox="0 0 172 39.8" style="enable-background:new 0 0 172 39.8;" preserveAspectRatio="xMinYMid meet" xml:space="preserve">
<style type="text/css">
	.st0{fill:#2A2A86;}
	.st1{fill:#F47321;}
</style>
<g id="Background_xA0_Image_1_">
</g>
<g id="www.goodreturns.in">
</g>
<g id="A_oneindia.in_Product">
</g>
<g id="good">
	<g>
		<path class="st0" d="M10.4,19.6c0,1.2-0.1,2.1-0.2,2.6c-0.1,0.6-0.3,1-0.6,1.4c-0.4,0.5-0.9,0.9-1.6,1.2c-0.7,0.3-1.6,0.4-2.5,0.4
			c-1.4,0-2.4-0.3-3.1-0.8c-0.7-0.5-1.1-1.3-1.1-2.3h3.1c0,0.3,0.1,0.5,0.3,0.6s0.5,0.2,0.8,0.2c0.6,0,1-0.2,1.3-0.6
			c0.2-0.4,0.4-1,0.4-2v-0.9c-0.3,0.5-0.6,0.9-1,1.1c-0.4,0.3-0.9,0.4-1.5,0.4c-1.3,0-2.3-0.5-2.8-1.5S1,16.5,1,13.7
			C1,11,1.3,9.2,1.8,8.1c0.5-1,1.5-1.6,2.8-1.6c0.7,0,1.2,0.1,1.7,0.4c0.5,0.3,0.8,0.7,1.1,1.3V7h3L10.4,19.6L10.4,19.6z M5.6,9.2
			C5,9.2,4.8,9.5,4.5,10c-0.2,0.5-0.3,1.9-0.3,4c0,1.9,0.1,3,0.3,3.5s0.6,0.8,1.1,0.8c0.6,0,1.1-0.3,1.3-0.9
			c0.2-0.6,0.3-2.1,0.3-4.5c0-1.5-0.1-2.5-0.3-3C6.6,9.5,6.3,9.2,5.6,9.2z"/>
		<path class="st0" d="M12.6,13.8c0-2.8,0.4-4.6,1.1-5.7c0.7-1,2-1.5,3.7-1.5c1.8,0,3,0.5,3.8,1.5c0.7,1,1.1,2.9,1.1,5.7
			s-0.4,4.6-1.1,5.7c-0.7,1-2,1.5-3.8,1.5s-3-0.5-3.7-1.5S12.6,16.6,12.6,13.8z M15.9,13.7V14c0,2.1,0.1,3.4,0.3,3.9
			s0.6,0.7,1.2,0.7c0.6,0,1.1-0.2,1.3-0.7c0.2-0.4,0.3-1.6,0.3-3.5v-0.6V13c0-1.8-0.1-2.9-0.3-3.4s-0.6-0.7-1.2-0.7
			c-0.6,0-1,0.2-1.2,0.6c-0.2,0.4-0.3,1.4-0.3,3v1.2H15.9z"/>
		<path class="st0" d="M24.3,13.8c0-2.8,0.4-4.6,1.1-5.7c0.7-1,2-1.5,3.7-1.5c1.8,0,3,0.5,3.8,1.5c0.7,1,1.1,2.9,1.1,5.7
			s-0.4,4.6-1.1,5.7c-0.7,1-2,1.5-3.8,1.5s-3-0.5-3.7-1.5C24.6,18.5,24.3,16.6,24.3,13.8z M27.4,13.7V14c0,2.1,0.1,3.4,0.3,3.9
			s0.6,0.7,1.2,0.7c0.6,0,1.1-0.2,1.3-0.7c0.2-0.4,0.3-1.6,0.3-3.5v-0.6V13c0-1.8-0.1-2.9-0.3-3.4s-0.6-0.7-1.2-0.7
			c-0.6,0-1,0.2-1.2,0.6c-0.2,0.4-0.3,1.4-0.3,3v1.2H27.4z"/>
		<path class="st0" d="M42.3,19.2c-0.3,0.6-0.6,1-1.1,1.3s-1,0.5-1.7,0.5c-1.3,0-2.2-0.5-2.8-1.6c-0.5-1-0.8-2.9-0.8-5.6
			c0-2.8,0.3-4.7,0.8-5.7s1.4-1.6,2.7-1.6c0.6,0,1.2,0.1,1.6,0.4C41.4,7.2,41.8,7.5,42,8V2.3h3.2v18.2h-3V19.2z M39.1,13.6
			c0,2.1,0.1,3.4,0.3,4c0.2,0.5,0.6,0.8,1.1,0.8c0.6,0,1.1-0.2,1.3-0.7c0.2-0.5,0.3-1.5,0.3-3c0-2.4-0.1-3.9-0.3-4.5
			c-0.2-0.6-0.7-0.9-1.3-0.9s-0.9,0.3-1.1,0.8C39.1,10.6,39.1,11.8,39.1,13.6z"/>
	</g>
</g>
<g id="_x60_">
	<g>
		<path class="st1" d="M51,1.4h23.9l0,0c-1.4,2.2-2.2,3.3-2.4,3.5h-6.4c0.9,1,1.5,2.3,1.8,3.7h6.8c0.1,0,0.1,0,0.1,0.1
			c-1.5,2.3-2.3,3.4-2.3,3.4h-4.4c-0.1,1.2-0.7,2.6-1.7,4.2c-1.4,1.7-2.7,2.8-3.9,3.3c-2.3,1.1-4.5,1.7-6.7,1.7l0,0
			c0,0.2,0.5,0.9,1.6,2.1l11.8,14.2v0.7c0,0.1,0,0.1-0.1,0.1h-5.2c-9.3-10.9-14-16.3-14-16.4v-3.3v-0.1c0.8,0.1,1.8,0.2,2.9,0.2
			c5.2,0,8.5-1.7,9.8-5.1c0.2-0.5,0.3-1,0.3-1.5H48.6c-0.1,0-0.1,0-0.1-0.1c1.6-2.3,2.4-3.4,2.4-3.4h11.3l0,0
			c-0.6-1.3-1.9-2.3-3.7-3.1C57.2,5.2,56,5,54.9,5h-6.3V4.9C50,2.5,50.9,1.4,51,1.4z"/>
	</g>
</g>
<g id="eturns">
	<g>
		<path class="st0" d="M85.4,22.8h5.1c-0.5,1.8-1.4,3.1-2.8,4.1s-3.1,1.5-5.2,1.5c-2.5,0-4.5-0.8-5.9-2.3c-1.5-1.5-2.2-3.6-2.2-6.2
			c0-2.7,0.7-4.8,2.2-6.4s3.4-2.3,5.9-2.3c2.6,0,4.6,0.8,6.1,2.4s2.2,3.8,2.2,6.6c0,0.3,0,0.5,0,0.6s0,0.3,0,0.3H79.9
			c0,1.1,0.2,2,0.7,2.6s1.2,0.9,2.2,0.9c0.7,0,1.3-0.1,1.7-0.4C84.8,23.9,85.1,23.4,85.4,22.8z M79.5,18.1h6c0-1-0.3-1.9-0.8-2.4
			c-0.5-0.6-1.3-0.9-2.2-0.9c-0.9,0-1.6,0.3-2.1,0.9S79.6,17.1,79.5,18.1z"/>
		<path class="st0" d="M91.8,15v-3.2H94V7.2h5.3v4.6h2.7V15h-2.7v7c0,1.1,0.1,1.8,0.4,2.1c0.3,0.3,0.8,0.5,1.6,0.5
			c0.2,0,0.3,0,0.4,0s0.2,0,0.3,0V28c-0.6,0.1-1.1,0.2-1.6,0.3c-0.5,0.1-1,0.1-1.5,0.1c-1.8,0-3.1-0.4-3.8-1.3s-1-2.8-1-5.7V15H91.8
			z"/>
		<path class="st0" d="M119.6,11.8V28h-5.2v-2.2c-0.6,0.9-1.4,1.6-2.1,2c-0.8,0.4-1.7,0.6-2.8,0.6c-1.8,0-3.1-0.5-4-1.4
			s-1.4-2.3-1.4-4.1V11.8h5.3v9c0,1.3,0.2,2.2,0.5,2.7s0.9,0.8,1.7,0.8c0.9,0,1.6-0.3,2-0.9s0.6-1.6,0.6-3v-8.6L119.6,11.8
			L119.6,11.8z"/>
		<path class="st0" d="M123.4,27.9V11.7h5.1v2.8c0.6-1.1,1.3-1.9,2.1-2.4c0.8-0.5,1.9-0.8,3.2-0.8v5.2c-0.2,0-0.5-0.1-0.7-0.1
			s-0.4,0-0.6,0c-0.8,0-1.5,0.1-2,0.4c-0.5,0.2-1,0.6-1.3,1.1c-0.2,0.3-0.3,0.8-0.4,1.4s-0.1,1.6-0.1,3.1v5.4h-5.3V27.9z"/>
		<path class="st0" d="M136.3,27.9V11.7h5.2v2.2c0.6-0.9,1.2-1.5,2-2s1.8-0.6,2.9-0.6c1.9,0,3.3,0.5,4.1,1.4
			c0.8,0.9,1.3,2.5,1.3,4.6v10.5h-5.3v-8.1c0-1.9-0.2-3.1-0.5-3.6s-0.9-0.8-1.8-0.8s-1.6,0.3-2,0.9c-0.4,0.6-0.6,1.6-0.6,3v8.7
			L136.3,27.9L136.3,27.9z"/>
		<path class="st0" d="M154.5,23h5.3c0.1,0.7,0.3,1.2,0.8,1.6s1.2,0.5,2,0.5c0.7,0,1.3-0.1,1.8-0.4c0.4-0.3,0.6-0.7,0.6-1.2
			c0-0.6-0.8-1.1-2.5-1.6c-0.9-0.2-1.6-0.4-2.2-0.6c-2-0.7-3.4-1.4-4.1-2.1s-1.1-1.7-1.1-2.8c0-1.6,0.6-2.9,1.9-3.9s3-1.4,5.2-1.4
			c2.3,0,4.1,0.4,5.4,1.2s2,2,2.1,3.6h-5.1c-0.1-0.5-0.4-0.9-0.7-1.2s-0.9-0.4-1.6-0.4c-0.6,0-1.1,0.1-1.5,0.4
			c-0.3,0.2-0.5,0.6-0.5,1c0,0.6,0.9,1.2,2.6,1.7c0.4,0.1,0.7,0.2,1,0.3c1.6,0.5,2.7,0.8,3.3,1s1.1,0.5,1.4,0.7
			c0.6,0.4,1,0.9,1.3,1.5s0.4,1.2,0.4,2c0,1.8-0.7,3.1-2.1,4.1s-3.3,1.5-5.7,1.5c-2.4,0-4.3-0.5-5.7-1.4
			C155.5,26.1,154.6,24.7,154.5,23z"/>
	</g>
</g>
</svg>
