<svg data-name="Layer 1" xmlns="http://www.w3.org/2000/svg" viewBox="0 0 33.87 33.87"><defs><style>.cls-1{fill:#361250;}.cls-2{fill:#ffc000;}</style></defs><title>svg</title><circle class="cls-1" cx="16.93" cy="16.93" r="16.93"/><path class="cls-2" d="M24.14 21.85a1 1 0 0 1-.22-1.41 8.88 8.88 0 0 0 1.22-4.25A9.35 9.35 0 0 0 20.52 8a8.94 8.94 0 0 0-9.52.14 9.19 9.19 0 0 0-.8 15 8.86 8.86 0 0 0 10.13.86 1.09 1.09 0 0 1 1.56.23c.75.82 1.56 1.59 2.35 2.37a1.65 1.65 0 1 0 2.33-2.31c-.8-.84-1.57-1.66-2.43-2.44zm-8.28-.08a5.85 5.85 0 1 1 5.89-5.85 5.84 5.84 0 0 1-5.89 5.85z"/><path class="cls-1" d="M16 10.08a5.85 5.85 0 1 0 5.8 5.85 5.84 5.84 0 0 0-5.8-5.85z"/></svg>