<svg width="56px" height="56px" viewBox="0 0 56 56" version="1.1" xmlns="http://www.w3.org/2000/svg" xmlns:xlink="http://www.w3.org/1999/xlink">
    <g id="Symbols" stroke="none" stroke-width="1" fill="none" fill-rule="evenodd">
        <g id="Flipboad-icon">
            <rect id="Rectangle-7" fill="#FFFFFF" x="0" y="0" width="56" height="56"></rect>
            <path d="M0,56 L56,56 L56,0 L0,0 L0,56 Z M23.0588235,10.9803922 L45.0196078,10.9803922 L45.0196078,21.9607843 L43.9215686,21.9607843 L34.0392157,21.9607843 L23.0588235,21.9607843 L23.0588235,10.9803922 Z M10.9803922,32.9411765 L10.9803922,21.9607843 L10.9803922,10.9803922 L21.9607843,10.9803922 L21.9607843,21.9607843 L21.9607843,23.0588235 L21.9607843,34.0392157 L21.9607843,45.0196078 L10.9803922,45.0196078 L10.9803922,32.9411765 Z M23.0588235,34.0392157 L34.0392157,34.0392157 L34.0392157,23.0588235 L23.0588235,23.0588235 L23.0588235,34.0392157 Z" id="Page-1" fill="#E02B28"></path>
        </g>
    </g>
</svg>