<?xml version="1.0" encoding="UTF-8" standalone="no"?>
<svg width="20px" height="20px" viewBox="0 0 20 20" version="1.1" xmlns="http://www.w3.org/2000/svg" xmlns:xlink="http://www.w3.org/1999/xlink">
    <!-- Generator: Sketch 39.1 (31720) - http://www.bohemiancoding.com/sketch -->
    <title>Group 6</title>
    <desc>Created with Sketch.</desc>
    <defs>
        <path d="M0,20 L20,20 L20,0 L0,0 L0,20 L0,20 Z M14.1426667,14.6706667 L13.7153333,13.7673333 C15.164,13.0826667 16.0593333,11.6326667 16.052,9.98266667 C16.0446667,8.32133333 15.1506667,6.87866667 13.72,6.21866667 L14.1386667,5.31133333 C15.9266667,6.13533333 17.0426667,7.92333333 17.052,9.978 C17.0613333,12.0206667 15.9466667,13.8193333 14.1426667,14.6706667 L14.1426667,14.6706667 Z M12.6746667,12.3793333 C13.59,11.948 14.1566667,11.03 14.1513333,9.98466667 C14.1466667,8.91533333 13.596,8.02466667 12.6786667,7.60133333 L13.098,6.69333333 C14.358,7.27466667 15.1446667,8.534 15.1513333,9.97933333 C15.158,11.418 14.3726667,12.6846667 13.1013333,13.2846667 L12.6746667,12.3793333 L12.6746667,12.3793333 Z M11.818,17.42 L7.15866667,12.8026667 L3.448,12.8026667 L3.448,7.23666667 L7.13333333,7.23666667 L11.818,2.578 L11.818,17.42 L11.818,17.42 Z" id="path-1"></path>
    </defs>
    <g id="Page-1" stroke="none" stroke-width="1" fill="none" fillRule="evenodd">
        <g id="Group-6">
            <mask id="mask-2" fill="white">
                <use xlink:href="#path-1"></use>
            </mask>
            <g id="Clip-5"></g>
            <polygon id="Fill-4" fill-opacity="0.9" fill="#00EDB4" mask="url(#mask-2)" points="-3.33333333 -3.33333333 23.3333333 -3.33333333 23.3333333 23.3333333 -3.33333333 23.3333333"></polygon>
        </g>
    </g>
</svg>