<?xml version="1.0" encoding="UTF-8" standalone="no"?>
<svg width="16px" height="16px" viewBox="0 0 16 16" version="1.1" xmlns="http://www.w3.org/2000/svg" xmlns:xlink="http://www.w3.org/1999/xlink">
    <!-- Generator: Sketch 39.1 (31720) - http://www.bohemiancoding.com/sketch -->
    <title>Group 8</title>
    <desc>Created with Sketch.</desc>
    <defs></defs>
    <g id="Symbols" stroke="none" stroke-width="1" fill="none" fillRule="evenodd">
        <g id="Header-Desktop" transform="translate(-1092.000000, -117.000000)" fill="#333333">
            <g id="Group-8" transform="translate(1092.000000, 117.000000)">
                <path d="M7.01425891,1.73538462 C3.98011257,1.73538462 1.51106942,4.20442777 1.51106942,7.23932458 C1.51106942,10.2734709 3.98011257,12.7425141 7.01425891,12.7425141 C10.0491557,12.7425141 12.5181989,10.2734709 12.5181989,7.23932458 C12.5181989,4.20442777 10.0491557,1.73538462 7.01425891,1.73538462 M7.01425891,13.8682176 C3.35947467,13.8682176 0.385365854,10.8941088 0.385365854,7.23932458 C0.385365854,3.58378987 3.35947467,0.609681051 7.01425891,0.609681051 C10.6697936,0.609681051 13.6439024,3.58378987 13.6439024,7.23932458 C13.6439024,10.8941088 10.6697936,13.8682176 7.01425891,13.8682176" id="Combined-Shape"></path>
                <polygon id="Line" points="11.3535534 12.0606602 14.8890873 15.5961941 15.2426407 15.9497475 15.9497475 15.2426407 15.5961941 14.8890873 12.0606602 11.3535534 11.7071068 11 11 11.7071068"></polygon>
            </g>
        </g>
    </g>
</svg>