
<svg xmlns="http://www.w3.org/2000/svg" viewBox="0 0 139.8 84.1"><style>.st0{fill:#54D9C0;} .st1{fill:#E1306C;}</style><title>fit</title><g id="Layer_2_1_"><g id="Layer_1-2"><path class="st0" d="M55.3 84L29.7 53S19 52.8 15 52.5c-10.8-.7-15.3-8-15-18.3 0 0 0-14.5.5-21.2C1 3 6-.6 16 0c7.5.6 15 1.6 22.3 3C44.5 4.3 48.8 7.2 51 15.7c1 4.2 3.3 16.5 4.3 22 1 6 .7 12.6-7.7 14l7.7 32.4z"/><path class="st1" d="M74.3 14.5V25h16.2c1 0 1.7.6 1.8 1.5v7.8c0 1-.6 1.7-1.5 1.8H74.3v16c0 1-.6 1.8-1.5 2h-8.3c-.8 0-1.6-.7-1.7-1.6V5.3c0-1 .6-1.7 1.5-1.8H91c.8 0 1.6.6 1.7 1.5v7.7c0 1-.6 1.7-1.5 1.8h-17zM101 3.5H97c-.7.3-1 1-1 1.7v47c0 .8.6 1.6 1.5 1.7h2.3c1 0 1.8-.7 2-1.6V5.3c0-.7-.4-1.4-1-1.7zM139.8 5.2v7.5c0 1-.6 1.7-1.5 1.8h-10V52c0 1-.6 1.8-1.5 2h-8.3c-.8 0-1.6-.7-1.7-1.6V14.6H107c-1 0-1.7-.6-1.8-1.5V5.2c0-1 .6-1.7 1.5-1.8H138c1 0 1.7.5 1.8 1.4v.4z"/></g></g></svg>
