<svg width="65" height="44" viewBox="0 0 65 44" fill="none" xmlns="http://www.w3.org/2000/svg">
<path fill-rule="evenodd" clip-rule="evenodd" d="M16.0619 0H15.2764C15.1555 0.0500488 15.0347 0.0500488 14.9259 0.00634766H14.5632C14.5028 0.0500488 14.4424 0.0500488 14.382 0.00634766H14.1403C13.9696 0.0458984 13.7971 0.0544434 13.6249 0.0629883C13.498 0.0690918 13.3715 0.0754395 13.246 0.0939941C11.3848 0.357178 9.63232 0.971191 7.98267 1.91113C6.30273 2.86987 4.8584 4.1106 3.61365 5.60815C2.89453 6.4729 2.28418 7.41284 1.76453 8.42163C1.03943 9.8252 0.525757 11.3167 0.211548 12.877C0.140991 13.2427 0.106934 13.6106 0.072998 13.9783C0.0516357 14.209 0.0302734 14.4395 0 14.6689V14.9172C0.065918 14.946 0.0556641 14.9961 0.0456543 15.0447C0.0421143 15.062 0.0385742 15.0791 0.0385742 15.095V15.283V15.2893C0.0476074 15.3315 0.0466309 15.3667 0.022583 15.3921C0.0178223 15.4043 0.0106201 15.4163 0 15.4272V16.6724C0.0506592 16.6987 0.0499268 16.7461 0.0385742 16.7993V16.9246L0.0410156 16.9426C0.0467529 16.9819 0.0526123 17.0212 0.0113525 17.0381C0.00805664 17.0422 0.00439453 17.0461 0 17.05V17.3008C0.0373535 17.4714 0.0446777 17.6445 0.052002 17.8169C0.0565186 17.9231 0.0610352 18.0291 0.0725098 18.134C0.290039 19.9763 0.845947 21.7183 1.66785 23.3601C2.62866 25.2776 3.92175 26.9316 5.52917 28.3167C7.15479 29.7202 8.96765 30.7478 10.9919 31.3745C12.1522 31.7317 13.3365 31.9697 14.5511 31.9885L14.8364 31.9924C15.7445 32.0054 16.6525 32.0183 17.5605 31.8821C19.5063 31.6001 21.3313 30.9546 23.0414 29.9458C23.0615 29.9338 23.0815 29.9219 23.1016 29.9099C21.7941 29.5198 20.5906 28.8887 19.5427 28.0676C19.5051 28.0837 19.4675 28.0999 19.4297 28.116L19.4766 28.0154C18.5842 27.3049 17.8071 26.4561 17.1776 25.5012C16.6981 26.5579 16.1475 27.5769 15.5259 28.5544L15.5074 28.5835C15.4344 28.6995 15.3894 28.7708 15.2721 28.5796C14.0876 26.6997 13.1027 24.7195 12.5105 22.5452C12.5043 22.5195 12.5013 22.4939 12.4982 22.4666L12.4978 22.4634C12.495 22.4382 12.4919 22.4116 12.4863 22.3823H15.7726C15.5311 21.4858 15.4023 20.543 15.4023 19.5701V19.1804C15.0916 19.1804 14.7806 19.1804 14.4694 19.1804L13.8715 19.1797C13.275 19.1785 12.6804 19.1772 12.0824 19.1868C11.9071 19.1868 11.8588 19.1428 11.8225 18.9548C11.478 16.981 11.472 15.0134 11.8165 13.0396C11.8588 12.814 11.9313 12.7827 12.1187 12.7891C12.6798 12.7891 13.2426 12.7876 13.806 12.7859L14.016 12.7854C14.481 12.7839 14.9467 12.7827 15.4122 12.7827C15.4601 11.6604 15.6794 10.5825 16.0447 9.57446H12.4806C12.7163 8.67212 13.0305 7.82617 13.387 6.98657C13.9188 5.73975 14.5472 4.54297 15.2664 3.40234L15.2823 3.37769C15.3617 3.25562 15.401 3.19531 15.5201 3.38354C16.2439 4.53223 16.8932 5.71851 17.4225 6.96338C18.0754 6.05444 18.8661 5.25073 19.7642 4.58374C19.6622 4.36475 19.5588 4.14648 19.4546 3.92871C19.4546 3.92554 19.4562 3.92065 19.4592 3.91089C19.4623 3.90161 19.4668 3.8877 19.4728 3.86597C19.7451 3.98047 20.0127 4.10034 20.2751 4.22656C21.4011 3.48682 22.674 2.95215 24.0403 2.67578C22.3292 1.46704 20.4452 0.640869 18.3643 0.219238C17.9076 0.131348 17.4507 0.0854492 16.994 0.0395508L16.9857 0.0388184L16.9246 0.0327148L16.8628 0.0263672C16.7771 0.0178223 16.6914 0.00927734 16.6057 0H16.364C16.3345 0.0358887 16.2969 0.0339355 16.2578 0.0322266L16.2311 0.03125C16.2152 0.029541 16.1985 0.0302734 16.1813 0.03125C16.1395 0.0332031 16.0962 0.0354004 16.0619 0ZM6.73303 12.7837L6.12939 12.783L5.6543 12.7834C5.0271 12.7844 4.3999 12.7854 3.77271 12.7705C3.59143 12.7642 3.50671 12.8145 3.45837 13.0024C3.2771 13.7041 3.15625 14.406 3.10193 15.1267C3.01123 16.4175 3.12 17.6895 3.46448 18.9363C3.50073 19.0742 3.53088 19.1746 3.71228 19.1746C5.33777 19.1682 6.95728 19.1682 8.57678 19.1746C8.74597 19.1746 8.78223 19.1182 8.77014 18.9614C8.76208 18.8274 8.75879 18.6921 8.75549 18.5569L8.75537 18.55L8.75525 18.543C8.7511 18.3794 8.74695 18.2151 8.73389 18.053C8.59485 16.3735 8.55261 14.6943 8.75195 13.0212C8.78223 12.7957 8.69763 12.7769 8.51624 12.7769C7.92017 12.7861 7.32739 12.7849 6.73303 12.7837ZM4.76453 22.3701H5.73743H8.99451H9.01831C9.14099 22.3694 9.24487 22.3687 9.28455 22.5454C9.71362 24.4629 10.4871 26.2424 11.3331 27.9907C11.3365 28.0015 11.338 28.0122 11.3409 28.0337L11.3512 28.1035C8.55334 26.9255 6.26917 25.1709 4.76453 22.3701ZM11.3624 3.89746C10.9817 4.69312 10.6191 5.47656 10.2988 6.27856C9.89404 7.2749 9.53748 8.29004 9.30176 9.34888C9.25952 9.53076 9.19299 9.59326 9.00574 9.59326C8.0116 9.58398 7.01746 9.58521 6.02576 9.58643L5.02344 9.58716C5.005 9.58716 4.98645 9.58789 4.96838 9.58887C4.85583 9.59375 4.76465 9.5979 4.88452 9.39282C6.41333 6.81738 8.57068 5.02539 11.2596 3.89746C11.267 3.88965 11.2834 3.89136 11.3074 3.89404L11.3112 3.89429C11.3257 3.89575 11.3429 3.89746 11.3624 3.89746Z" transform="translate(0.00976562 6)" fill="#E51063"/>
<path d="M6.17188 8.55859V10.7656H4.28711V21H1.60156V10.7656H0V8.55859H1.50391C1.13932 7.82292 0.957031 7.14909 0.957031 6.53711C0.957031 5.45638 1.39323 4.61003 2.26562 3.99805C3.13802 3.37956 4.35872 3.07031 5.92773 3.07031C7.75716 3.07031 9.49219 3.52604 11.1328 4.4375C12.7799 5.34245 14.3978 6.76497 15.9863 8.70508H12.9297C11.901 7.57227 10.8333 6.72266 9.72656 6.15625C8.61979 5.58333 7.47721 5.29688 6.29883 5.29688C5.44596 5.29688 4.79167 5.44987 4.33594 5.75586C3.88021 6.06185 3.65234 6.49479 3.65234 7.05469C3.65234 7.57552 3.78906 8.07682 4.0625 8.55859H6.17188ZM11.8262 17.5527C11.0905 17.5527 10.5143 17.696 10.0977 17.9824C9.6875 18.2689 9.48242 18.6725 9.48242 19.1934C9.48242 19.5059 9.54427 19.8021 9.66797 20.082C9.79818 20.3555 10.0586 20.6875 10.4492 21.0781C10.8464 21.4753 11.4583 21.9831 12.2852 22.6016L10.5469 24.3789C9.12109 23.168 8.14128 22.1556 7.60742 21.3418C7.07357 20.5345 6.80664 19.7207 6.80664 18.9004C6.80664 18.4382 6.89779 18.0117 7.08008 17.6211C7.26888 17.2305 7.55208 16.8757 7.92969 16.5566C7.33724 15.9577 7.04102 15.2513 7.04102 14.4375C7.04102 13.9948 7.12565 13.6139 7.29492 13.2949C7.4707 12.9759 7.7181 12.709 8.03711 12.4941C8.36263 12.2728 8.74349 12.1165 9.17969 12.0254C9.61589 11.9342 10.2181 11.8887 10.9863 11.8887H13.0273V10.7656H5.89844V8.55859H17.5781V10.7656H15.6934V14.0957H11.0156C10.638 14.0957 10.3646 14.125 10.1953 14.1836C10.026 14.2357 9.89258 14.3268 9.79492 14.457C9.70378 14.5872 9.6582 14.7402 9.6582 14.916C9.6582 15.1374 9.76237 15.362 9.9707 15.5898C10.6283 15.4206 11.3281 15.3359 12.0703 15.3359C13.4635 15.3359 14.5508 15.6257 15.332 16.2051C16.1133 16.7845 16.5039 17.5397 16.5039 18.4707C16.5039 19.3171 16.2402 20.0039 15.7129 20.5312C15.1921 21.0521 14.401 21.4362 13.3398 21.6836L12.6172 19.5547C13.4505 19.3594 13.8672 19.0273 13.8672 18.5586C13.8672 18.2266 13.6947 17.9759 13.3496 17.8066C13.0111 17.6374 12.5033 17.5527 11.8262 17.5527ZM25.3906 15.707H22.2168V16.2246C22.2168 16.7389 22.1061 17.1198 21.8848 17.3672C21.6699 17.6081 21.3411 17.7285 20.8984 17.7285C20.5013 17.7285 20.0618 17.569 19.5801 17.25C19.0983 16.931 18.7012 16.5436 18.3887 16.0879C18.0827 15.6257 17.9297 15.2025 17.9297 14.8184C17.9297 14.3561 18.0469 14.0208 18.2812 13.8125C18.5156 13.6042 18.8672 13.5 19.3359 13.5H25.3906V15.707ZM17.3047 10.7656V8.55859H25.3516V10.7656H17.3047ZM24.6387 15.6191C24.6387 14.5059 25.0488 13.6302 25.8691 12.9922C26.696 12.3477 27.8646 11.9863 29.375 11.9082V10.7656H23.9062V8.55859H35.3516V10.7656H32.0508V14.0957H31.0254C30.2051 14.0957 29.5866 14.1315 29.1699 14.2031C28.7533 14.2682 28.4017 14.3789 28.1152 14.5352C27.8353 14.6849 27.6302 14.8639 27.5 15.0723C27.3763 15.2806 27.3145 15.5247 27.3145 15.8047C27.3145 16.3841 27.5423 16.8203 27.998 17.1133C28.4538 17.3997 29.1406 17.543 30.0586 17.543C30.2083 17.543 30.3288 17.5365 30.4199 17.5234C30.4004 17.3672 30.3906 17.2272 30.3906 17.1035C30.3906 16.6738 30.5469 16.3385 30.8594 16.0977C31.1784 15.8503 31.5853 15.7266 32.0801 15.7266C32.7441 15.7266 33.2715 15.9056 33.6621 16.2637C34.0592 16.6152 34.2578 17.0677 34.2578 17.6211C34.2578 18.0117 34.1764 18.3372 34.0137 18.5977C33.8574 18.8581 33.584 19.0794 33.1934 19.2617C33.4993 19.8216 33.9779 20.5312 34.6289 21.3906L32.4512 22.3672C31.9889 21.625 31.5137 20.7266 31.0254 19.6719C30.8496 19.7109 30.4557 19.7305 29.8438 19.7305C28.2682 19.7305 27.0052 19.3757 26.0547 18.666C25.1107 17.9564 24.6387 16.9408 24.6387 15.6191ZM41.25 8.55859V10.7656H39.3652V21H36.6797V10.7656H35.0781V8.55859H36.6992C36.237 7.43229 35.7324 6.60547 35.1855 6.07812C34.6452 5.55078 34.0332 5.28711 33.3496 5.28711C32.8483 5.28711 32.4609 5.41732 32.1875 5.67773C31.9141 5.93164 31.7773 6.28971 31.7773 6.75195C31.7773 7.42904 31.9564 8.08333 32.3145 8.71484L29.7168 8.70508C29.3001 7.9043 29.0918 7.11654 29.0918 6.3418C29.0918 5.33268 29.4466 4.53516 30.1562 3.94922C30.8594 3.36328 31.8229 3.07031 33.0469 3.07031C34.4857 3.07031 35.7031 3.51628 36.6992 4.4082C37.7018 5.29362 38.5286 6.67708 39.1797 8.55859H41.25Z" transform="translate(17.8438 8.96631)" fill="#00C5C5"/>
</svg>
