<?xml version="1.0" encoding="utf-8"?>
<!-- Generator: Adobe Illustrator 22.1.0, SVG Export Plug-In . SVG Version: 6.00 Build 0)  -->
<svg version="1.1" id="Layer_1" xmlns="http://www.w3.org/2000/svg" xmlns:xlink="http://www.w3.org/1999/xlink" x="0px" y="0px"
	 viewBox="0 0 1118 139.5" style="enable-background:new 0 0 1118 139.5;" xml:space="preserve">
<style type="text/css">
	.st0{fill:none;stroke:#B22429;stroke-miterlimit:10;}
	.st1{fill:#B0282F;}
	.st2{fill:none;stroke:#B0282F;stroke-width:0.8;stroke-linecap:round;stroke-miterlimit:10;}
	.st3{fill:none;stroke:#B0282F;stroke-linecap:round;stroke-miterlimit:10;}
	.st4{fill:none;stroke:#B0282F;stroke-width:2;stroke-linecap:round;stroke-miterlimit:10;}
	.st5{fill:none;stroke:#B0282F;stroke-width:5;stroke-linecap:round;stroke-miterlimit:10;}
	.st6{fill:none;stroke:#B0282F;stroke-miterlimit:10;}
</style>
<g>
	<g>
		<g>
			<polygon class="st0" points="483.9,121.4 403.7,121.4 403.7,117.6 406,117.6 406,111.1 480.9,111.1 480.9,117.3 483.9,117.3 			
				"/>
			<path class="st0" d="M420.3,110.8h-9c0,0-0.1,0-0.1-0.1V99.3c0,0,0-0.1,0.1-0.1h9c0,0,0.1,0,0.1,0.1L420.3,110.8
				C420.4,110.8,420.4,110.8,420.3,110.8z"/>
			<rect x="436.5" y="92.1" class="st0" width="13.8" height="19"/>
			<path class="st0" d="M462,111.1h-36.7V75.2c0,0,3.2-37.3,18.5-36.7c16.4,0.7,18.1,36.7,18.1,36.7V111.1z"/>
			<polygon class="st0" points="447.7,31.3 443.4,30 443.4,33.2 			"/>
			<path class="st0" d="M415.4,90l-5.2,9.5c0,0.1,0,0.1,0.1,0.1l10.8,0c0.1,0,0.1-0.1,0.1-0.1l-5.6-9.6
				C415.5,89.9,415.5,89.9,415.4,90z"/>
			<path class="st0" d="M476.6,110.8h-9c0,0-0.1,0-0.1-0.1V99.3c0,0,0-0.1,0.1-0.1h9c0,0,0.1,0,0.1,0.1L476.6,110.8
				C476.7,110.8,476.7,110.8,476.6,110.8z"/>
			<path class="st0" d="M471.7,90l-5.2,9.5c0,0.1,0,0.1,0.1,0.1l10.8,0c0.1,0,0.1-0.1,0.1-0.1l-5.6-9.6
				C471.8,89.9,471.7,89.9,471.7,90z"/>
			<line class="st0" x1="443.1" y1="28.9" x2="443.1" y2="38.4"/>
			<line class="st0" x1="437.7" y1="45.4" x2="449.7" y2="45.4"/>
			<path class="st0" d="M447.7,45.4c0,0,5.9,13.8,6.5,30.4"/>
			<path class="st0" d="M439.8,45.4c0,0-5.9,13.8-6.5,30.4"/>
			<polygon class="st0" points="443.1,79.6 435.3,91.8 451,91.8 			"/>
			<path class="st0" d="M384.3,72.1"/>
			<line class="st0" x1="406" y1="117.6" x2="480.9" y2="117.3"/>
			<line class="st0" x1="406" y1="114.4" x2="480.9" y2="114.4"/>
		</g>
		<polyline class="st0" points="440.4,110.8 440.4,95.9 446.2,95.9 446.2,110.8 		"/>
	</g>
	<g>
		<g>
			<path class="st1" d="M690,121H590V82.1h100V121z M590.8,120.2h98.5V82.9h-98.5V120.2z"/>
		</g>
		<g>
			<g>
				<path class="st1" d="M659,82.3h-38V71.1l-3.2-0.7v-4.9h44.3v4.9l-3.2,0.7V82.3z M621.7,81.5h36.4V70.4l3.2-0.7v-3.5h-42.7v3.5
					l3.2,0.7V81.5z"/>
			</g>
			<g>
				<path class="st1" d="M660.4,66.3h-39.6v-4.4h39.6V66.3z M621.6,65.5h38v-2.8h-38V65.5z"/>
			</g>
			<g>
				<path class="st1" d="M658.8,64.6h-36.4V60h36.4V64.6z M623.2,63.8H658v-3h-34.8V63.8z"/>
			</g>
			<g>
				<path class="st1" d="M656.8,60.4H656v-9.3c-1.9-10.2-13.9-11.7-14-11.7l-0.3,0l-1.4-5.5l-1.8,5.7l-0.2,0
					c-11.7,1.9-13.2,11.5-13.2,11.6l0,9.1h-0.8v-9.1c0-0.2,0.4-2.7,2.3-5.5c1.7-2.5,5.1-5.8,11.3-6.8l2.5-7.9l2,7.7
					c1.9,0.3,12.6,2.4,14.4,12.4L656.8,60.4z"/>
			</g>
		</g>
		<g>
			<g>
				<path class="st1" d="M608.9,82.9h-16.6V66.7h16.6V82.9z M593.1,82.1h15V67.5h-15V82.1z"/>
			</g>
			<g>
				<path class="st1" d="M608.4,66.8h-0.8v-3.7c-0.9-4-6.3-4.5-6.4-4.5l-0.2,0l-0.6-1.1l-0.7,1.2l-0.2,0c-5.3,0.7-6,4.5-6,4.5l0,3.6
					h-0.8v-3.7c0-0.2,0.8-4.3,6.5-5.2l1.3-2.2l1,2c1.1,0.2,6,1.1,6.8,5.2l0,0.1V66.8z"/>
			</g>
		</g>
		<g>
			<g>
				<path class="st1" d="M686.7,82.9h-16.6V66.7h16.6V82.9z M671,82.1h15V67.5h-15V82.1z"/>
			</g>
			<g>
				<path class="st1" d="M684.8,80.8H672v-7.1l0.1-0.1c2.5-3.7,6.2-4.6,6.4-4.7l0.1,0l0.1,0c3.8,0.5,6,4.5,6.1,4.7l0,0.1V80.8z
					 M672.8,80.1H684V74c-0.3-0.6-2.3-3.7-5.4-4.2c-0.5,0.1-3.6,1.1-5.8,4.2V80.1z"/>
			</g>
			<g>
				<path class="st1" d="M686.3,66.8h-0.8v-3.7c-0.9-4-6.3-4.5-6.4-4.5l-0.2,0l-0.6-1.1l-0.7,1.2l-0.2,0c-5.3,0.7-6,4.5-6,4.5l0,3.6
					h-0.8v-3.7c0-0.2,0.8-4.3,6.5-5.2l1.3-2.2l1,2c1.1,0.2,6,1.1,6.8,5.2l0,0.1V66.8z"/>
			</g>
		</g>
		<g>
			<g>
				<line class="st2" x1="596.7" y1="100.9" x2="596.7" y2="115.3"/>
				<line class="st2" x1="618.8" y1="100.9" x2="618.8" y2="115.3"/>
				<line class="st2" x1="596.7" y1="115.4" x2="618.8" y2="115.4"/>
			</g>
			<path class="st2" d="M607.8,87.3c0,0-8.1,2.2-11.1,13.6"/>
			<path class="st2" d="M607.8,87.3c0,0,8.1,2.2,11.1,13.6"/>
		</g>
		<g>
			<g>
				<line class="st2" x1="624.2" y1="76.1" x2="624.2" y2="82"/>
				<line class="st2" x1="633.4" y1="76.1" x2="633.4" y2="82"/>
				<line class="st2" x1="624.2" y1="82.1" x2="633.4" y2="82.1"/>
			</g>
			<path class="st2" d="M628.8,70.4c0,0-3.4,0.9-4.6,5.6"/>
			<path class="st2" d="M628.8,70.4c0,0,3.4,0.9,4.6,5.6"/>
		</g>
		<g>
			<g>
				<line class="st2" x1="647.2" y1="76.1" x2="647.2" y2="82"/>
				<line class="st2" x1="656.4" y1="76.1" x2="656.4" y2="82"/>
				<line class="st2" x1="647.2" y1="82.1" x2="656.4" y2="82.1"/>
			</g>
			<path class="st2" d="M651.8,70.4c0,0-3.4,0.9-4.6,5.6"/>
			<path class="st2" d="M651.8,70.4c0,0,3.4,0.9,4.6,5.6"/>
		</g>
		<g>
			<g>
				<line class="st2" x1="636" y1="74.9" x2="636" y2="81.9"/>
				<line class="st2" x1="645.2" y1="74.9" x2="645.2" y2="81.9"/>
				<line class="st2" x1="636" y1="81.9" x2="645.2" y2="81.9"/>
			</g>
			<path class="st2" d="M640.6,68.3c0,0-3.4,1.1-4.6,6.6"/>
			<path class="st2" d="M640.6,68.3c0,0,3.4,1.1,4.6,6.6"/>
		</g>
		<g>
			<g>
				<line class="st3" x1="628.2" y1="100.9" x2="628.2" y2="115.3"/>
				<line class="st3" x1="650.4" y1="100.9" x2="650.4" y2="115.3"/>
				<line class="st3" x1="628.2" y1="115.4" x2="650.4" y2="115.4"/>
			</g>
			<path class="st3" d="M639.3,87.3c0,0-8.1,2.2-11.1,13.6"/>
			<path class="st3" d="M639.3,87.3c0,0,8.1,2.2,11.1,13.6"/>
		</g>
		<g>
			<g>
				<line class="st2" x1="661.1" y1="100.7" x2="661.1" y2="115.1"/>
				<line class="st2" x1="683.2" y1="100.7" x2="683.2" y2="115.1"/>
				<line class="st2" x1="661.1" y1="115.2" x2="683.2" y2="115.2"/>
			</g>
			<path class="st2" d="M672.2,87.1c0,0-8.1,2.2-11.1,13.6"/>
			<path class="st2" d="M672.2,87.1c0,0,8.1,2.2,11.1,13.6"/>
		</g>
	</g>
	<g>
		<line class="st0" x1="8.7" y1="121.4" x2="106.5" y2="121.4"/>
		<line class="st0" x1="26.8" y1="67.6" x2="26.8" y2="121.4"/>
		<line class="st0" x1="88.5" y1="67.6" x2="88.5" y2="121.4"/>
		<line class="st0" x1="43.5" y1="83.9" x2="43.5" y2="121.4"/>
		<line class="st0" x1="71.7" y1="83.9" x2="71.7" y2="121.4"/>
		<line class="st0" x1="22" y1="94.9" x2="48.5" y2="94.9"/>
		<line class="st0" x1="21.8" y1="111.7" x2="48.4" y2="111.7"/>
		<line class="st0" x1="66.5" y1="111.7" x2="93.1" y2="111.7"/>
		<line class="st0" x1="66.8" y1="94.9" x2="93.3" y2="94.9"/>
		<path class="st0" d="M91,67.5H23.6c-0.8,0-1.5-0.7-1.5-1.5l-3.4-7.8c0-0.8,0.7-1.5,1.5-1.5h74.7c0.8,0,1.5,0.7,1.5,1.5l-2.9,7.8
			C93.4,66.9,91.8,67.5,91,67.5z"/>
		<path class="st0" d="M25.6,56.8V45c0-0.8,0.7-1.5,1.5-1.5h61.3c0.8,0,1.5,0.7,1.5,1.5v11.8"/>
		<path class="st0" d="M38.6,43.4V35c0-0.8,0.7-1.5,1.5-1.5h35.1c0.8,0,1.5,0.7,1.5,1.5v8.4"/>
		<line class="st0" x1="25.6" y1="50.2" x2="89.8" y2="50.2"/>
		<path class="st0" d="M49.3,33.5l2.7-4c0,0,0.6-0.7,1.1-0.7s8.6,0,8.6,0s0.8-0.1,1.4,0.8c0.6,0.9,2.8,4.2,2.8,4.2"/>
		<circle class="st0" cx="79.2" cy="75.8" r="4.5"/>
		<circle class="st0" cx="36.1" cy="75.9" r="4.5"/>
		<path class="st0" d="M43.4,85.6c0-7.9,6.3-14.3,14.1-14.3s14.1,6.4,14.1,14.3"/>
	</g>
	<g>
		<line class="st3" x1="116.7" y1="115" x2="224" y2="115"/>
		<line class="st3" x1="116.5" y1="121.7" x2="223.8" y2="121.7"/>
		<g>
			<line class="st3" x1="215.7" y1="60.6" x2="216.9" y2="114.8"/>
			<line class="st3" x1="209.7" y1="60.7" x2="208.6" y2="115"/>
			<line class="st3" x1="205.4" y1="91.9" x2="219.8" y2="91.9"/>
			<line class="st3" x1="206.3" y1="78.4" x2="218.8" y2="78.4"/>
			<line class="st3" x1="206.6" y1="65.4" x2="218.8" y2="65.4"/>
			<path class="st3" d="M209.7,61.3c0-2,1.4-3.6,3.1-3.6c1.7,0,3.1,1.6,3.1,3.6"/>
			<line class="st3" x1="212.6" y1="53.8" x2="212.6" y2="57.7"/>
		</g>
		<g>
			<line class="st3" x1="131.2" y1="60.6" x2="132.4" y2="114.8"/>
			<line class="st3" x1="125.2" y1="60.7" x2="124" y2="115"/>
			<line class="st3" x1="120.9" y1="91.9" x2="135.3" y2="91.9"/>
			<line class="st3" x1="121.8" y1="78.4" x2="134.3" y2="78.4"/>
			<line class="st3" x1="122.1" y1="65.4" x2="134.3" y2="65.4"/>
			<path class="st3" d="M125.2,61.3c0-2,1.4-3.6,3.1-3.6c1.7,0,3.1,1.6,3.1,3.6"/>
			<line class="st3" x1="128.1" y1="53.8" x2="128.1" y2="57.7"/>
		</g>
		<line class="st3" x1="187" y1="85.8" x2="187" y2="91.5"/>
		<line class="st3" x1="197.9" y1="85.8" x2="197.9" y2="91.4"/>
		<path class="st3" d="M187,85.8c0-2.9,2.4-5.3,5.5-5.3s5.5,2.4,5.5,5.3"/>
		<line class="st3" x1="192.4" y1="77.5" x2="192.4" y2="80.4"/>
		<line class="st3" x1="187" y1="85.8" x2="197.9" y2="85.8"/>
		<line class="st3" x1="142.8" y1="85.9" x2="142.8" y2="91.3"/>
		<line class="st3" x1="153.7" y1="85.9" x2="153.7" y2="91.2"/>
		<path class="st3" d="M142.8,85.9c0-2.9,2.4-5.3,5.5-5.3s5.5,2.4,5.5,5.3"/>
		<line class="st3" x1="148.3" y1="77.5" x2="148.3" y2="80.4"/>
		<line class="st3" x1="142.8" y1="85.9" x2="153.7" y2="85.9"/>
		<path class="st3" d="M140.3,114.9V93.3c0-1,0.8-1.8,1.8-1.8h56.4c1,0,1.8,0.8,1.8,1.8v21.6"/>
		<line class="st3" x1="146.9" y1="95.6" x2="146.9" y2="101.6"/>
		<line class="st3" x1="189.1" y1="96" x2="189.1" y2="102.1"/>
		<g>
			<line class="st3" x1="152.6" y1="95.6" x2="152.6" y2="101.6"/>
			<line class="st3" x1="147" y1="105.6" x2="147" y2="111.3"/>
			<line class="st3" x1="152.6" y1="105.7" x2="152.6" y2="111.3"/>
		</g>
		<g>
			<line class="st3" x1="194.7" y1="96" x2="194.7" y2="102.1"/>
			<line class="st3" x1="189.1" y1="106.1" x2="189.1" y2="111.8"/>
			<line class="st3" x1="194.7" y1="106.2" x2="194.7" y2="111.8"/>
		</g>
		<line class="st3" x1="158.6" y1="84.1" x2="158.8" y2="115"/>
		<line class="st3" x1="182" y1="84" x2="182.2" y2="115"/>
		<path class="st3" d="M158.6,84.1c0,0-5.3-10.9,2.5-17.3c7.9-6.5,10.6-9,8.7-7.2"/>
		<path class="st3" d="M182,84c0,0,5.3-10.9-2.5-17.3c-7.8-6.3-9.7-8.3-8.8-7.4"/>
		<line class="st3" x1="170.4" y1="51.2" x2="170.4" y2="59.1"/>
		<line class="st3" x1="158.6" y1="84.1" x2="182" y2="84.1"/>
		<path class="st3" d="M164.5,115v-11.7c0,0,0.1-5.6,5.8-6.9"/>
		<path class="st3" d="M176.2,114.9v-11.7c0,0-0.1-5.6-5.8-6.9"/>
		<path class="st3" d="M176.2,115"/>
		<path class="st3" d="M176.2,103.2"/>
		<circle class="st3" cx="194.8" cy="41.7" r="11.7"/>
	</g>
	<g>
		<g>
			<path class="st3" d="M300.4,121.4c31.5,0,64.6-0.7,96.2-0.7"/>
			<path class="st3" d="M300.4,121.4c5.6-6,12-11.1,18.7-13.8c3.3-1.2,5.1-1.7,8.5-2.7c3.5-0.8,6.9-1.2,10.6-1.8
				c3.9-0.4,7.7-0.6,11.6-0.6c16.9,0.6,35.6,4.5,46.8,18.2"/>
		</g>
		<path class="st3" d="M393.7,117l-20.3-54c0,0-1.2-1.7-2.6-0.1c0,0.2-6.3,9.6-6.3,9.6"/>
		<path class="st3" d="M379.1,107.5L352,42.7c0,0-1.2-1.1-2,0c-0.1,0-25.9,63.1-25.9,63.1"/>
		<polyline class="st3" points="351.6,102 349.4,89 357.1,73 351.1,59.5 351.1,42.7 		"/>
		<line class="st3" x1="338" y1="91.8" x2="348.8" y2="65.7"/>
		<line class="st3" x1="334.1" y1="100.4" x2="336.9" y2="93.9"/>
		<g>
			<line class="st4" x1="388.4" y1="55.2" x2="394" y2="55.2"/>
			<line class="st4" x1="391.3" y1="52.5" x2="391.3" y2="57.9"/>
		</g>
		<g>
			<line class="st4" x1="373.8" y1="40.6" x2="378.1" y2="40.6"/>
			<line class="st4" x1="376" y1="38.6" x2="376" y2="42.7"/>
		</g>
		<g>
			<line class="st4" x1="328.6" y1="45.5" x2="334.3" y2="45.5"/>
			<line class="st4" x1="331.5" y1="42.8" x2="331.5" y2="48.3"/>
		</g>
		<g>
			<line class="st4" x1="309.3" y1="63" x2="315.8" y2="63"/>
			<line class="st4" x1="312.6" y1="59.9" x2="312.6" y2="66.2"/>
		</g>
		<line class="st3" x1="315.8" y1="77.3" x2="315.8" y2="108.8"/>
		<path class="st5" d="M304.9,87.8"/>
		<path class="st5" d="M304.9,87.8"/>
		<g>
			<path class="st3" d="M315.6,80c0,0,0.8,8.9-10.1,7.8"/>
			<path class="st3" d="M315.8,79.5c0,0-0.8,8.9,10.1,7.8"/>
		</g>
		<g>
			<path class="st3" d="M315.7,88.8c0,0,0.8,8.9-10.1,7.8"/>
			<path class="st3" d="M315.9,88.3c0,0-0.8,8.9,10.1,7.8"/>
		</g>
		<g>
			<path class="st3" d="M315.5,97.5c0,0,0.8,8.9-10.1,7.8"/>
			<path class="st3" d="M315.7,97.1c0,0-0.6,7.4,7.6,7.4"/>
		</g>
		<circle class="st3" cx="313.2" cy="39.7" r="8.5"/>
	</g>
	<g>
		<path class="st3" d="M797.7,121.4V64.7c0-2.1,1.7-3.8,3.8-3.8l0,0c2.1,0,3.8,1.7,3.8,3.8V121"/>
		<path class="st3" d="M899.3,121.4V64.5c0-2.1,1.7-3.8,3.8-3.8h0c2.1,0,3.8,1.7,3.8,3.8v56.8"/>
		<path class="st3" d="M805.3,121.8v-64c0-3.5,2.9-6.4,6.4-6.4l0,0c3.5,0,6.4,2.9,6.4,6.4v64"/>
		<path class="st3" d="M886.6,121.4v-64c0-3.5,2.9-6.4,6.4-6.4h0c3.5,0,6.4,2.9,6.4,6.4v64"/>
		<path class="st3" d="M827.4,121.5V43.4c0-3.5,2.9-6.4,6.4-6.4l0,0c3.5,0,6.4,2.9,6.4,6.4v78.2"/>
		<path class="st3" d="M864.2,121.5V43.4c0-3.5,2.9-6.4,6.4-6.4l0,0c3.5,0,6.4,2.9,6.4,6.4v78.2"/>
		<path class="st3" d="M845.9,121.4V38.9c0-3.5,2.9-6.4,6.4-6.4l0,0c3.5,0,6.4,2.9,6.4,6.4v82.5"/>
		<line class="st3" x1="791.9" y1="121.4" x2="913.1" y2="121.4"/>
		<polyline class="st3" points="877,48.3 886.6,48.3 886.6,61.2 		"/>
		<polyline class="st3" points="858.5,41 864.2,41 864.2,53.9 		"/>
		<polyline class="st3" points="840.1,41.4 845.9,41.4 845.9,53.9 		"/>
		<polyline class="st3" points="827,48.4 818,48.4 818,61.2 		"/>
		<line class="st3" x1="797.7" y1="98.5" x2="907" y2="98.5"/>
		<line class="st3" x1="805.3" y1="105.8" x2="899.3" y2="105.8"/>
		<line class="st3" x1="812.3" y1="111.1" x2="812.3" y2="116.1"/>
		<line class="st3" x1="833.8" y1="111.1" x2="833.8" y2="116.1"/>
		<line class="st3" x1="851.7" y1="111.1" x2="851.7" y2="116.1"/>
		<line class="st3" x1="870.2" y1="111.1" x2="870.2" y2="116.1"/>
		<line class="st3" x1="891.9" y1="111.1" x2="891.9" y2="116.1"/>
		<line class="st3" x1="891.9" y1="90.1" x2="891.9" y2="94.1"/>
		<line class="st3" x1="891.9" y1="75" x2="891.9" y2="78.9"/>
		<line class="st3" x1="870.2" y1="73.4" x2="870.2" y2="77.4"/>
		<line class="st3" x1="870.2" y1="58.7" x2="870.2" y2="62.7"/>
		<line class="st3" x1="852.2" y1="40.3" x2="852.2" y2="44.3"/>
		<line class="st3" x1="852.2" y1="56" x2="852.2" y2="59.9"/>
		<line class="st3" x1="852.2" y1="71.4" x2="852.2" y2="75.4"/>
		<line class="st3" x1="834.2" y1="73.4" x2="834.2" y2="77.4"/>
		<line class="st3" x1="834.2" y1="59.2" x2="834.2" y2="63.1"/>
		<line class="st3" x1="834.2" y1="44.3" x2="834.2" y2="48.3"/>
		<line class="st3" x1="812.4" y1="58.9" x2="812.4" y2="62.9"/>
		<line class="st3" x1="812.8" y1="75.4" x2="812.8" y2="79.3"/>
		<line class="st3" x1="870.2" y1="44.3" x2="870.2" y2="48.3"/>
		<line class="st3" x1="891.9" y1="58.7" x2="891.9" y2="62.7"/>
		<line class="st3" x1="870.2" y1="89.8" x2="870.2" y2="93.7"/>
		<line class="st3" x1="852.2" y1="89.8" x2="852.2" y2="93.7"/>
		<line class="st3" x1="834.2" y1="89.8" x2="834.2" y2="93.7"/>
		<line class="st3" x1="812.8" y1="90.1" x2="812.8" y2="94.1"/>
		<path class="st3" d="M805.3,89c0-3.7,2.8-6.7,6.4-6.7c3.5,0,6.4,3,6.4,6.7"/>
		<path class="st3" d="M827.4,90c0-3.7,2.8-6.7,6.4-6.7c3.5,0,6.4,3,6.4,6.7"/>
		<path class="st3" d="M827.4,73.4c0-3.7,2.8-6.7,6.4-6.7c3.5,0,6.4,3,6.4,6.7"/>
		<path class="st3" d="M827.4,60.8c0-3.7,2.8-6.7,6.4-6.7c3.5,0,6.4,3,6.4,6.7"/>
		<path class="st3" d="M845.8,86.9c0-3.7,2.8-6.7,6.4-6.7c3.5,0,6.4,3,6.4,6.7"/>
		<path class="st3" d="M845.8,70.4c0-3.7,2.8-6.7,6.4-6.7c3.5,0,6.4,3,6.4,6.7"/>
		<path class="st3" d="M845.8,57.8c0-3.7,2.8-6.7,6.4-6.7c3.5,0,6.4,3,6.4,6.7"/>
		<path class="st3" d="M864.2,88c0-3.7,2.8-6.7,6.4-6.7s6.4,3,6.4,6.7"/>
		<path class="st3" d="M864.2,71.4c0-3.7,2.8-6.7,6.4-6.7s6.4,3,6.4,6.7"/>
		<path class="st3" d="M864.2,58.8c0-3.7,2.8-6.7,6.4-6.7s6.4,3,6.4,6.7"/>
		<path class="st3" d="M886.6,90.2c0-3.7,2.8-6.7,6.4-6.7c3.5,0,6.4,3,6.4,6.7"/>
		<path class="st3" d="M886.6,75.4c0-3.7,2.8-6.7,6.4-6.7c3.5,0,6.4,3,6.4,6.7"/>
		<path class="st3" d="M805.3,74.8c0-3.7,2.8-6.7,6.4-6.7c3.5,0,6.4,3,6.4,6.7"/>
	</g>
	<g>
		<g>
			<line class="st3" x1="949" y1="50.6" x2="949" y2="120.4"/>
			<line class="st3" x1="941.6" y1="64.2" x2="941.6" y2="116"/>
			<line class="st3" x1="928.8" y1="92.8" x2="928.7" y2="116"/>
			<line class="st3" x1="943.4" y1="50.9" x2="943.3" y2="64"/>
			<line class="st3" x1="940.4" y1="50.6" x2="951.9" y2="50.6"/>
			<line class="st3" x1="936.6" y1="80.6" x2="918" y2="80.6"/>
			<path class="st3" d="M941.6,92.8l-18.5,0c0,0-4.1-1.6-3.4-5.1"/>
			<line class="st3" x1="919.7" y1="87.7" x2="941.6" y2="87.7"/>
			<path class="st3" d="M923.1,92.8v26.3c0,0-0.1,1.3,1.3,1.3c1.4,0,24.5,0,24.5,0"/>
			<line class="st3" x1="941.6" y1="108.2" x2="949" y2="108.2"/>
			<path class="st3" d="M923.7,87.7v-7.1v-4.8c0,0,0.1-1.3,1.8-1.3c0.1,0,16.1,0,16.1,0"/>
			<line class="st3" x1="928.8" y1="80.6" x2="928.8" y2="87.7"/>
			<path class="st3" d="M928.7,105.3c0-3.3,3-6,6.5-6s6.4,2.7,6.4,6"/>
			<path class="st3" d="M942.4,50.6c0,0,1.2-2.9,2.9-3.9c0.5-0.4,0.9-2.3,0.9-3.2"/>
			<path class="st3" d="M949.9,50.6c0,0-1.2-2.9-2.9-3.9c-0.5-0.4-0.9-2.3-0.9-3.2"/>
		</g>
		<g>
			<line class="st3" x1="970.7" y1="50.6" x2="970.7" y2="120.4"/>
			<line class="st3" x1="978" y1="64.2" x2="978.1" y2="116"/>
			<line class="st3" x1="990.9" y1="92.8" x2="990.9" y2="116"/>
			<line class="st3" x1="976.3" y1="50.9" x2="976.3" y2="64"/>
			<line class="st3" x1="979.2" y1="50.6" x2="967.7" y2="50.6"/>
			<line class="st3" x1="983.1" y1="80.6" x2="1001.6" y2="80.6"/>
			<path class="st3" d="M978.1,92.8l18.5,0c0,0,4.1-1.6,3.4-5.1"/>
			<line class="st3" x1="999.9" y1="87.7" x2="978.1" y2="87.7"/>
			<path class="st3" d="M996.5,92.8v26.3c0,0,0.1,1.3-1.3,1.3s-24.5,0-24.5,0"/>
			<line class="st3" x1="978.1" y1="108.2" x2="970.7" y2="108.2"/>
			<path class="st3" d="M995.9,87.7v-7.1v-4.8c0,0-0.1-1.3-1.8-1.3c-0.1,0-16.1,0-16.1,0"/>
			<line class="st3" x1="990.9" y1="80.6" x2="990.9" y2="87.7"/>
			<path class="st3" d="M990.9,105.3c0-3.3-3-6-6.5-6c-3.5,0-6.4,2.7-6.4,6"/>
			<path class="st3" d="M977.3,50.6c0,0-1.2-2.9-2.9-3.9c-0.5-0.4-0.9-2.3-0.9-3.2"/>
			<path class="st3" d="M969.7,50.6c0,0,1.2-2.9,2.9-3.9c0.5-0.4,0.9-2.3,0.9-3.2"/>
		</g>
		<line class="st3" x1="936.7" y1="64.1" x2="983.8" y2="64.1"/>
		<line class="st3" x1="941.6" y1="74.5" x2="978.1" y2="74.5"/>
		<line class="st3" x1="941.6" y1="87.7" x2="978.1" y2="87.7"/>
		<line class="st3" x1="956.2" y1="79.2" x2="956.2" y2="87.7"/>
		<line class="st3" x1="963.5" y1="79.2" x2="963.5" y2="87.7"/>
		<line class="st3" x1="954.4" y1="102.5" x2="954.4" y2="120.4"/>
		<line class="st3" x1="964.9" y1="102.1" x2="964.9" y2="120.4"/>
		<line class="st3" x1="948.9" y1="120.4" x2="970.8" y2="120.4"/>
		<path class="st3" d="M954.4,102.6c0-3.4,2.4-6.2,5.3-6.2c2.9,0,5.3,2.8,5.3,6.2"/>
	</g>
	<g>
		<g>
			<line class="st3" x1="724.4" y1="38.9" x2="764.8" y2="38.9"/>
			<path class="st3" d="M763.2,32.3c0,0,2.1-0.2,3.5,1.5c0.3,0.6,1.2,2.6-1.5,4.5c0-0.1-0.5,0.6-0.5,0.6v6.4"/>
			<path class="st3" d="M725.8,32.3c0,0-2.1-0.2-3.5,1.5c-0.3,0.6-1.2,2.6,1.5,4.5c0-0.1,0.5,0.6,0.5,0.6v6.4"/>
		</g>
		<g>
			<line class="st3" x1="721.5" y1="51.5" x2="767.8" y2="51.5"/>
			<line class="st3" x1="767.8" y1="51.5" x2="767.8" y2="57.9"/>
			<line class="st3" x1="721.5" y1="51.5" x2="721.5" y2="57.9"/>
		</g>
		<g>
			<line class="st3" x1="718.6" y1="63.8" x2="770.8" y2="63.8"/>
			<line class="st3" x1="770.8" y1="63.8" x2="770.8" y2="70.2"/>
			<line class="st3" x1="718.6" y1="63.8" x2="718.6" y2="70.2"/>
		</g>
		<g>
			<line class="st3" x1="715.4" y1="76.2" x2="774" y2="76.2"/>
			<line class="st3" x1="774" y1="76.2" x2="774" y2="82.5"/>
			<line class="st3" x1="715.4" y1="76.2" x2="715.4" y2="82.5"/>
		</g>
		<g>
			<line class="st3" x1="708.5" y1="88.5" x2="781.2" y2="88.5"/>
			<line class="st3" x1="777" y1="88.5" x2="777" y2="111.4"/>
			<line class="st3" x1="767.7" y1="88.5" x2="767.7" y2="111.4"/>
			<line class="st3" x1="721.5" y1="88.5" x2="721.5" y2="111.4"/>
			<line class="st3" x1="712.2" y1="88.5" x2="712.2" y2="111.4"/>
			<line class="st3" x1="704.5" y1="116.2" x2="784.5" y2="116.2"/>
			<line class="st3" x1="698.3" y1="122.4" x2="790.8" y2="122.4"/>
			<line class="st3" x1="729.2" y1="94.6" x2="759.8" y2="94.6"/>
			<line class="st3" x1="733.5" y1="94.6" x2="733.5" y2="116.2"/>
			<line class="st3" x1="755.3" y1="94.6" x2="755.3" y2="116.2"/>
			<line class="st3" x1="744.5" y1="94.6" x2="744.5" y2="116.2"/>
			<path class="st3" d="M746.2,108.4H743c-0.8,0-1.5-0.7-1.5-1.5v0c0-0.8,0.7-1.5,1.5-1.5h3.2c0.8,0,1.5,0.7,1.5,1.5v0
				C747.7,107.8,747,108.4,746.2,108.4z"/>
		</g>
		<line class="st3" x1="739.9" y1="88.4" x2="739.9" y2="39"/>
		<line class="st3" x1="749.3" y1="39" x2="749.3" y2="88.4"/>
		<path class="st3" d="M744.6,33.1c0,0-3.6,0.9-4.6,5.8"/>
		<path class="st3" d="M744.7,33.1c0,0,3.6,0.9,4.6,5.8"/>
		<line class="st3" x1="758.4" y1="38.9" x2="758.4" y2="34.5"/>
		<line class="st3" x1="730.7" y1="38.9" x2="730.7" y2="34.5"/>
		<ellipse class="st3" cx="755.4" cy="45.3" rx="1.5" ry="1.5"/>
		<ellipse class="st3" cx="733.8" cy="45.3" rx="1.5" ry="1.5"/>
		<ellipse class="st3" cx="733.8" cy="57.6" rx="1.5" ry="1.5"/>
		<ellipse class="st3" cx="727.7" cy="57.6" rx="1.5" ry="1.5"/>
		<ellipse class="st3" cx="761.6" cy="57.6" rx="1.5" ry="1.5"/>
		<ellipse class="st3" cx="755.4" cy="57.6" rx="1.5" ry="1.5"/>
		<ellipse class="st3" cx="761.6" cy="70" rx="1.5" ry="1.5"/>
		<ellipse class="st3" cx="755.4" cy="70" rx="1.5" ry="1.5"/>
		<ellipse class="st3" cx="733.8" cy="70" rx="1.5" ry="1.5"/>
		<ellipse class="st3" cx="727.6" cy="70" rx="1.5" ry="1.5"/>
		<ellipse class="st3" cx="721.5" cy="82.3" rx="1.5" ry="1.5"/>
		<ellipse class="st3" cx="727.7" cy="82.3" rx="1.5" ry="1.5"/>
		<ellipse class="st3" cx="733.8" cy="82.3" rx="1.5" ry="1.5"/>
		<ellipse class="st3" cx="755.4" cy="82.3" rx="1.5" ry="1.5"/>
		<ellipse class="st3" cx="761.6" cy="82.3" rx="1.5" ry="1.5"/>
		<ellipse class="st3" cx="767.7" cy="82.3" rx="1.5" ry="1.5"/>
	</g>
	<g>
		<line class="st0" x1="490.2" y1="103.3" x2="490.2" y2="121.8"/>
		<line class="st0" x1="490.2" y1="103.3" x2="519.7" y2="103.3"/>
		<line class="st0" x1="505.5" y1="103.3" x2="505.5" y2="112.5"/>
		<line class="st0" x1="490.2" y1="112.5" x2="519.7" y2="112.5"/>
		<line class="st0" x1="496.4" y1="112.5" x2="496.4" y2="121.8"/>
		<line class="st0" x1="514.6" y1="112.5" x2="514.6" y2="121.8"/>
		<g>
			<line class="st0" x1="495.1" y1="91.2" x2="516" y2="91.2"/>
			<line class="st0" x1="493.4" y1="103.3" x2="495" y2="91.2"/>
			<line class="st0" x1="517.6" y1="103.2" x2="516" y2="91.2"/>
		</g>
		<g>
			<line class="st0" x1="497.9" y1="78.9" x2="513.2" y2="78.9"/>
			<line class="st0" x1="496.2" y1="91" x2="497.8" y2="78.9"/>
			<line class="st0" x1="514.8" y1="91.1" x2="513.2" y2="78.9"/>
		</g>
		<rect x="499.2" y="73.1" class="st0" width="12.3" height="5.8"/>
		<line class="st0" x1="502.4" y1="66.8" x2="502.4" y2="73.1"/>
		<line class="st0" x1="508.6" y1="66.8" x2="508.6" y2="73.1"/>
		<line class="st0" x1="502.4" y1="66.8" x2="505.5" y2="63.7"/>
		<line class="st0" x1="505.5" y1="63.7" x2="508.6" y2="66.8"/>
		<g>
			<line class="st0" x1="581.1" y1="103" x2="581.1" y2="121.6"/>
			<line class="st0" x1="581.1" y1="103" x2="551.6" y2="103"/>
			<line class="st0" x1="565.8" y1="103" x2="565.8" y2="112.3"/>
			<line class="st0" x1="581.1" y1="112.3" x2="551.6" y2="112.3"/>
			<line class="st0" x1="574.9" y1="112.3" x2="574.9" y2="121.6"/>
			<line class="st0" x1="556.7" y1="112.3" x2="556.7" y2="121.6"/>
			<g>
				<line class="st0" x1="576.2" y1="91" x2="555.2" y2="91"/>
				<line class="st0" x1="577.9" y1="103.1" x2="576.2" y2="91"/>
				<line class="st0" x1="553.6" y1="103" x2="555.2" y2="91"/>
			</g>
			<g>
				<line class="st0" x1="573.4" y1="78.7" x2="558" y2="78.7"/>
				<line class="st0" x1="575" y1="90.8" x2="573.4" y2="78.7"/>
				<line class="st0" x1="556.4" y1="90.9" x2="558" y2="78.7"/>
			</g>
			
				<rect x="559.8" y="72.9" transform="matrix(-1 -4.490287e-11 4.490287e-11 -1 1131.8893 151.6032)" class="st0" width="12.3" height="5.8"/>
			<line class="st0" x1="568.9" y1="66.6" x2="568.9" y2="72.9"/>
			<line class="st0" x1="562.7" y1="66.6" x2="562.7" y2="72.9"/>
			<line class="st0" x1="568.9" y1="66.6" x2="565.8" y2="63.4"/>
			<line class="st0" x1="565.8" y1="63.4" x2="562.7" y2="66.6"/>
			<line class="st0" x1="538.8" y1="33.6" x2="538.8" y2="39.1"/>
			<line class="st0" x1="532.7" y1="33.6" x2="532.7" y2="39.1"/>
			<line class="st0" x1="538.8" y1="33.6" x2="535.8" y2="30.4"/>
			<line class="st0" x1="535.8" y1="30.4" x2="532.7" y2="33.6"/>
		</g>
		<line class="st0" x1="490.2" y1="121.8" x2="581.1" y2="121.6"/>
		<path class="st0" d="M551.6,81.3c0,13.5,0,27,0,40.4h-31.9V81.3"/>
		<path class="st0" d="M521.8,81.2V55.8c0-2.2,1.8-4,4-4h20c2.2,0,4,1.8,4,4v25.4"/>
		<g>
			<line class="st0" x1="523.5" y1="45.5" x2="523.5" y2="52.4"/>
			<g>
				<line class="st0" x1="523.5" y1="45.5" x2="547.9" y2="45.5"/>
				<line class="st0" x1="547.9" y1="45.5" x2="547.9" y2="52.4"/>
			</g>
		</g>
		<g>
			<line class="st0" x1="528" y1="39.1" x2="528" y2="45.5"/>
			<g>
				<line class="st0" x1="528" y1="39.1" x2="543.2" y2="39.1"/>
				<line class="st0" x1="543.2" y1="39.2" x2="543.2" y2="45.4"/>
			</g>
		</g>
		<line class="st0" x1="519.7" y1="81.3" x2="529.4" y2="81.2"/>
		<line class="st0" x1="541.9" y1="81.2" x2="551.6" y2="81.3"/>
		<path class="st0" d="M529.4,100V79.1c0-3.4,2.8-6.2,6.2-6.2l0,0c3.4,0,6.2,2.8,6.2,6.2v13.2"/>
		<line class="st0" x1="519.7" y1="100" x2="551.6" y2="100"/>
		<line class="st0" x1="541.9" y1="95.5" x2="541.9" y2="100"/>
		<rect x="529.7" y="109.3" class="st0" width="11.9" height="12.4"/>
		<path class="st0" d="M541.7,70.2"/>
		<g>
			<line class="st0" x1="529.3" y1="70.2" x2="521.8" y2="70.2"/>
			<line class="st0" x1="549.6" y1="70.2" x2="541.8" y2="70.2"/>
			<path class="st0" d="M529.4,70.2c0.6-2.9,3.1-5,6.2-5c3.1,0,5.6,2.2,6.2,5"/>
		</g>
		<g>
			<line class="st0" x1="529.4" y1="63.8" x2="521.8" y2="63.8"/>
			<line class="st0" x1="549.7" y1="63.8" x2="541.9" y2="63.8"/>
			<path class="st0" d="M529.4,63.8c0.6-2.9,3.1-5,6.2-5c3.1,0,5.6,2.2,6.2,5"/>
		</g>
	</g>
	<g>
		<line class="st3" x1="1026.3" y1="78.6" x2="1026.3" y2="120.6"/>
		<g>
			<path class="st3" d="M1026,82.2c0,0,1.1,11.9-13.4,10.4"/>
			<path class="st3" d="M1026.3,81.6c0,0-1.1,11.9,13.4,10.4"/>
		</g>
		<g>
			<path class="st3" d="M1026.2,93.9c0,0,1.1,11.9-13.4,10.4"/>
			<path class="st3" d="M1026.5,93.3c0,0-1.1,11.9,13.4,10.4"/>
		</g>
		<g>
			<path class="st3" d="M1025.9,105.6c0,0,1.1,11.9-13.4,10.4"/>
			<path class="st3" d="M1026.2,105c0,0-0.8,9.9,10.1,9.9"/>
		</g>
		<g>
			<line class="st3" x1="1011.5" y1="121.5" x2="1106" y2="121.5"/>
			<line class="st3" x1="1069.8" y1="80.5" x2="1069.8" y2="121.5"/>
			<line class="st3" x1="1047.5" y1="77.7" x2="1047.5" y2="121.5"/>
			<path class="st3" d="M1073.3,44.8v32c0,0.5-0.4,0.9-0.9,0.9h-26.9c-0.5,0-0.9-0.4-0.9-0.9V44.6"/>
			<line class="st3" x1="1044.6" y1="48.8" x2="1069.8" y2="48.8"/>
			<line class="st3" x1="1050.9" y1="48.8" x2="1053.8" y2="43.2"/>
			<line class="st3" x1="1066.1" y1="48.8" x2="1063.3" y2="43.2"/>
			<line class="st3" x1="1053.8" y1="43.2" x2="1063.2" y2="43.2"/>
			<line class="st3" x1="1058.9" y1="43.2" x2="1058.9" y2="30"/>
			<line class="st3" x1="1061.9" y1="104.1" x2="1061.9" y2="121.5"/>
			<line class="st3" x1="1055.6" y1="104.1" x2="1055.6" y2="121.5"/>
			<line class="st3" x1="1047.5" y1="99.3" x2="1066.6" y2="99.3"/>
			<line class="st3" x1="1055.6" y1="99.3" x2="1055.6" y2="82.1"/>
			<line class="st3" x1="1062.3" y1="99.3" x2="1062.3" y2="82.1"/>
			<ellipse class="st3" cx="1058.8" cy="63.2" rx="7.9" ry="8.2"/>
			<line class="st3" x1="1058.8" y1="59" x2="1058.8" y2="63.1"/>
			<line class="st3" x1="1058.8" y1="63.1" x2="1060.7" y2="65.1"/>
		</g>
		<path class="st3" d="M1105.6,120.8L1095.2,93c0,0-0.6-0.9-1.4-0.1c0,0.1-3.3,4.9-3.3,4.9"/>
		<path class="st3" d="M1098.1,115.9l-14-33.4c0,0-0.6-0.6-1,0c0,0-13.3,32.5-13.3,32.5"/>
	</g>
	<g>
		<g>
			<line class="st3" x1="261" y1="29.2" x2="255.3" y2="43.7"/>
			<line class="st3" x1="261" y1="29.2" x2="266.8" y2="43.7"/>
			<path class="st3" d="M271.5,56.1c-1.1,7.8-4.4,15-10.5,15s-9.3-7.3-10.7-15c-1.6-8.3,4.5-14.2,10.6-14.2
				C267,41.9,272.7,47.8,271.5,56.1z"/>
			<line class="st3" x1="271.8" y1="51.6" x2="271.8" y2="63.3"/>
			<line class="st3" x1="249.8" y1="51.7" x2="249.8" y2="63.4"/>
			<path class="st3" d="M250.3,56.5c0,0,2.8-5.9,10.5-3.6"/>
			<path class="st3" d="M271.3,56.5c0,0-2.8-5.9-10.5-3.6"/>
		</g>
		<path class="st6" d="M255.6,68.9v4l-8.7,3.5c0,0-3.5,1.7-3.1,4.6v12.5l0,1.5c0,0-7,2-6.5,10.9c0.2,0.4-2.2,3.6-1.7,5.9
			c0.1,0-0.1,1.4-0.1,1.4h-2.1c0,0-1.3,0.4-1.1,1.5c0.1,0.2,0,4.8,0,4.8s0,1.5,1.3,1.9h13.6"/>
		<path class="st6" d="M266.2,68.9v4l8.7,3.5c0,0,3.5,1.7,3.1,4.6v12.5l0,1.5c0,0,7,2,6.5,10.9c-0.2,0.4,2.2,3.6,1.7,5.9
			c-0.1,0,0.1,1.4,0.1,1.4h2.1c0,0,1.3,0.4,1.1,1.5c-0.1,0.2,0,4.8,0,4.8s0,1.5-1.3,1.9h-29.7"/>
		<line class="st6" x1="235.5" y1="113.3" x2="286.2" y2="113.3"/>
		<path class="st6" d="M241.7,105.8"/>
		<path class="st6" d="M241.7,105.8"/>
		<g>
			<path class="st6" d="M241.6,106c0,0-5.4,0.9-6.1,7.2"/>
			<path class="st6" d="M241.6,106c0,0,5.4,0.9,6.1,7.2"/>
		</g>
		<g>
			<path class="st6" d="M254.4,106c0,0-5.4,0.9-6.1,7.2"/>
			<path class="st6" d="M254.4,106c0,0,5.4,0.9,6.1,7.2"/>
		</g>
		<g>
			<path class="st6" d="M267.4,106c0,0-5.4,0.9-6.1,7.2"/>
			<path class="st6" d="M267.4,106c0,0,5.4,0.9,6.1,7.2"/>
		</g>
		<g>
			<path class="st6" d="M280.3,106.2c0,0-5.4,0.9-6.1,7.2"/>
			<path class="st6" d="M280.3,106.2c0,0,5.4,0.9,6.1,7.2"/>
		</g>
		<circle class="st6" cx="270.5" cy="81.2" r="1.8"/>
		<circle class="st6" cx="251.3" cy="120" r="1.8"/>
		<line class="st6" x1="267.4" y1="73.4" x2="250.7" y2="90.1"/>
		<line class="st6" x1="266.8" y1="84.8" x2="255.5" y2="96.4"/>
		<line class="st6" x1="250.3" y1="84.1" x2="250.4" y2="91.9"/>
		<line class="st6" x1="250.4" y1="91.9" x2="255.5" y2="96.4"/>
		<path class="st6" d="M255.5,96.5h9.9c0,0,1.1,0.1,1.1,1.4c0,0.1-0.5,2.7-3.5,4.4c-0.8,0.2-12.7,0-12.7,0l-6.6-7.1"/>
	</g>
</g>
</svg>
