<?xml version="1.0" encoding="utf-8"?>
<!-- Generator: Adobe Illustrator 24.0.1, SVG Export Plug-In . SVG Version: 6.00 Build 0)  -->
<svg version="1.1" id="Layer_1" xmlns="http://www.w3.org/2000/svg" xmlns:xlink="http://www.w3.org/1999/xlink" x="0px" y="0px"
	 viewBox="0 0 167.4 355.4" style="enable-background:new 0 0 167.4 355.4;" xml:space="preserve">
<style type="text/css">
	.st0{fill:#FAA800;}
	.st1{fill:#F9AB00;}
	.st2{fill:#E2E2E2;}
	.st3{fill:#F9AA00;}
</style>
<g>
	<polygon class="st0" points="19.7,6.3 23.2,13.4 31.1,14.6 25.4,20.1 26.8,28 19.7,24.3 12.7,28 14,20.1 8.3,14.6 16.2,13.4 	"/>
	<polygon class="st1" points="51.2,6.3 54.7,13.4 62.6,14.6 56.9,20.1 58.2,28 51.2,24.3 44.2,28 45.5,20.1 39.8,14.6 47.7,13.4 	
		"/>
	<polygon class="st0" points="82.7,6.3 86.2,13.4 94.1,14.6 88.4,20.1 89.7,28 82.7,24.3 75.6,28 77,20.1 71.3,14.6 79.1,13.4 	"/>
	<polygon class="st0" points="114.1,6.3 117.7,13.4 125.5,14.6 119.8,20.1 121.2,28 114.1,24.3 107.1,28 108.4,20.1 102.7,14.6 
		110.6,13.4 	"/>
	<polygon class="st0" points="145.6,6.3 149.1,13.4 157,14.6 151.3,20.1 152.7,28 145.6,24.3 138.6,28 139.9,20.1 134.2,14.6 
		142.1,13.4 	"/>
	<polygon class="st0" points="19.7,38.6 23.2,45.7 31.1,46.9 25.4,52.4 26.8,60.3 19.7,56.6 12.7,60.3 14,52.4 8.3,46.9 16.2,45.7 	
		"/>
	<polygon class="st0" points="51.2,38.6 54.7,45.7 62.6,46.9 56.9,52.4 58.2,60.3 51.2,56.6 44.2,60.3 45.5,52.4 39.8,46.9 
		47.7,45.7 	"/>
	<polygon class="st0" points="82.7,38.6 86.2,45.7 94.1,46.9 88.4,52.4 89.7,60.3 82.7,56.6 75.6,60.3 77,52.4 71.3,46.9 79.1,45.7 
			"/>
	<polygon class="st0" points="114.1,38.6 117.7,45.7 125.5,46.9 119.8,52.4 121.2,60.3 114.1,56.6 107.1,60.3 108.4,52.4 
		102.7,46.9 110.6,45.7 	"/>
	<polygon class="st2" points="145.6,38.6 149.1,45.7 157,46.9 151.3,52.4 152.7,60.3 145.6,56.6 138.6,60.3 139.9,52.4 134.2,46.9 
		142.1,45.7 	"/>
	<polygon class="st0" points="19.7,70.9 23.2,78.1 31.1,79.2 25.4,84.8 26.8,92.6 19.7,88.9 12.7,92.6 14,84.8 8.3,79.2 16.2,78.1 	
		"/>
	<polygon class="st0" points="51.2,70.9 54.7,78.1 62.6,79.2 56.9,84.8 58.2,92.6 51.2,88.9 44.2,92.6 45.5,84.8 39.8,79.2 
		47.7,78.1 	"/>
	<polygon class="st0" points="82.7,70.9 86.2,78.1 94.1,79.2 88.4,84.8 89.7,92.6 82.7,88.9 75.6,92.6 77,84.8 71.3,79.2 79.1,78.1 
			"/>
	<polygon class="st2" points="114.1,70.9 117.7,78.1 125.5,79.2 119.8,84.8 121.2,92.6 114.1,88.9 107.1,92.6 108.4,84.8 
		102.7,79.2 110.6,78.1 	"/>
	<polygon class="st2" points="145.6,70.9 149.1,78.1 157,79.2 151.3,84.8 152.7,92.6 145.6,88.9 138.6,92.6 139.9,84.8 134.2,79.2 
		142.1,78.1 	"/>
	<polygon class="st0" points="19.7,103.3 23.2,110.4 31.1,111.5 25.4,117.1 26.8,124.9 19.7,121.2 12.7,124.9 14,117.1 8.3,111.5 
		16.2,110.4 	"/>
	<polygon class="st0" points="51.2,103.3 54.7,110.4 62.6,111.5 56.9,117.1 58.2,124.9 51.2,121.2 44.2,124.9 45.5,117.1 
		39.8,111.5 47.7,110.4 	"/>
	<polygon class="st2" points="82.7,103.3 86.2,110.4 94.1,111.5 88.4,117.1 89.7,124.9 82.7,121.2 75.6,124.9 77,117.1 71.3,111.5 
		79.1,110.4 	"/>
	<polygon class="st2" points="114.1,103.3 117.7,110.4 125.5,111.5 119.8,117.1 121.2,124.9 114.1,121.2 107.1,124.9 108.4,117.1 
		102.7,111.5 110.6,110.4 	"/>
	<polygon class="st2" points="145.6,103.3 149.1,110.4 157,111.5 151.3,117.1 152.7,124.9 145.6,121.2 138.6,124.9 139.9,117.1 
		134.2,111.5 142.1,110.4 	"/>
	<polygon class="st0" points="19.7,135.6 23.2,142.7 31.1,143.9 25.4,149.4 26.8,157.2 19.7,153.5 12.7,157.2 14,149.4 8.3,143.9 
		16.2,142.7 	"/>
	<polygon class="st2" points="51.2,135.6 54.7,142.7 62.6,143.9 56.9,149.4 58.2,157.2 51.2,153.5 44.2,157.2 45.5,149.4 
		39.8,143.9 47.7,142.7 	"/>
	<polygon class="st2" points="82.7,135.6 86.2,142.7 94.1,143.9 88.4,149.4 89.7,157.2 82.7,153.5 75.6,157.2 77,149.4 71.3,143.9 
		79.1,142.7 	"/>
	<polygon class="st2" points="114.1,135.6 117.7,142.7 125.5,143.9 119.8,149.4 121.2,157.2 114.1,153.5 107.1,157.2 108.4,149.4 
		102.7,143.9 110.6,142.7 	"/>
	<polygon class="st2" points="145.6,135.6 149.1,142.7 157,143.9 151.3,149.4 152.7,157.2 145.6,153.5 138.6,157.2 139.9,149.4 
		134.2,143.9 142.1,142.7 	"/>
	<polygon class="st2" points="19.7,167.9 23.2,175 31.1,176.2 25.4,181.7 26.8,189.6 19.7,185.9 12.7,189.6 14,181.7 8.3,176.2 
		16.2,175 	"/>
	<polygon class="st2" points="51.2,167.9 54.7,175 62.6,176.2 56.9,181.7 58.2,189.6 51.2,185.9 44.2,189.6 45.5,181.7 39.8,176.2 
		47.7,175 	"/>
	<polygon class="st2" points="82.7,167.9 86.2,175 94.1,176.2 88.4,181.7 89.7,189.6 82.7,185.9 75.6,189.6 77,181.7 71.3,176.2 
		79.1,175 	"/>
	<polygon class="st2" points="114.1,167.9 117.7,175 125.5,176.2 119.8,181.7 121.2,189.6 114.1,185.9 107.1,189.6 108.4,181.7 
		102.7,176.2 110.6,175 	"/>
	<polygon class="st2" points="145.6,167.9 149.1,175 157,176.2 151.3,181.7 152.7,189.6 145.6,185.9 138.6,189.6 139.9,181.7 
		134.2,176.2 142.1,175 	"/>
	<polygon class="st0" points="19.7,200.2 23.2,207.4 31.1,208.5 25.4,214 26.8,221.9 19.7,218.2 12.7,221.9 14,214 8.3,208.5 
		16.2,207.4 	"/>
	<polygon class="st3" points="51.2,200.2 54.7,207.4 62.6,208.5 56.9,214 58.2,221.9 51.2,218.2 44.2,221.9 45.5,214 39.8,208.5 
		47.7,207.4 	"/>
	<polygon class="st3" points="82.7,200.2 86.2,207.4 94.1,208.5 88.4,214 89.7,221.9 82.7,218.2 75.6,221.9 77,214 71.3,208.5 
		79.1,207.4 	"/>
	<polygon class="st3" points="114.1,200.2 117.7,207.4 125.5,208.5 119.8,214 121.2,221.9 114.1,218.2 107.1,221.9 108.4,214 
		102.7,208.5 110.6,207.4 	"/>
	<polygon class="st0" points="19.7,232.5 23.2,239.7 31.1,240.8 25.4,246.4 26.8,254.2 19.7,250.5 12.7,254.2 14,246.4 8.3,240.8 
		16.2,239.7 	"/>
	<polygon class="st0" points="51.2,232.5 54.7,239.7 62.6,240.8 56.9,246.4 58.2,254.2 51.2,250.5 44.2,254.2 45.5,246.4 
		39.8,240.8 47.7,239.7 	"/>
	<polygon class="st0" points="82.7,232.5 86.2,239.7 94.1,240.8 88.4,246.4 89.7,254.2 82.7,250.5 75.6,254.2 77,246.4 71.3,240.8 
		79.1,239.7 	"/>
	<polygon class="st2" points="114.1,232.5 117.7,239.7 125.5,240.8 119.8,246.4 121.2,254.2 114.1,250.5 107.1,254.2 108.4,246.4 
		102.7,240.8 110.6,239.7 	"/>
	<polygon class="st2" points="145.6,232.5 149.1,239.7 157,240.8 151.3,246.4 152.7,254.2 145.6,250.5 138.6,254.2 139.9,246.4 
		134.2,240.8 142.1,239.7 	"/>
	<polygon class="st0" points="19.7,264.9 23.2,272 31.1,273.1 25.4,278.7 26.8,286.5 19.7,282.8 12.7,286.5 14,278.7 8.3,273.1 
		16.2,272 	"/>
	<polygon class="st0" points="51.2,264.9 54.7,272 62.6,273.1 56.9,278.7 58.2,286.5 51.2,282.8 44.2,286.5 45.5,278.7 39.8,273.1 
		47.7,272 	"/>
	<polygon class="st2" points="82.7,264.9 86.2,272 94.1,273.1 88.4,278.7 89.7,286.5 82.7,282.8 75.6,286.5 77,278.7 71.3,273.1 
		79.1,272 	"/>
	<polygon class="st2" points="114.1,264.9 117.7,272 125.5,273.1 119.8,278.7 121.2,286.5 114.1,282.8 107.1,286.5 108.4,278.7 
		102.7,273.1 110.6,272 	"/>
	<polygon class="st2" points="145.6,264.9 149.1,272 157,273.1 151.3,278.7 152.7,286.5 145.6,282.8 138.6,286.5 139.9,278.7 
		134.2,273.1 142.1,272 	"/>
	<polygon class="st0" points="19.7,297.2 23.2,304.3 31.1,305.5 25.4,311 26.8,318.9 19.7,315.2 12.7,318.9 14,311 8.3,305.5 
		16.2,304.3 	"/>
	<polygon class="st2" points="51.2,297.2 54.7,304.3 62.6,305.5 56.9,311 58.2,318.9 51.2,315.2 44.2,318.9 45.5,311 39.8,305.5 
		47.7,304.3 	"/>
	<polygon class="st2" points="82.7,297.2 86.2,304.3 94.1,305.5 88.4,311 89.7,318.9 82.7,315.2 75.6,318.9 77,311 71.3,305.5 
		79.1,304.3 	"/>
	<polygon class="st2" points="114.1,297.2 117.7,304.3 125.5,305.5 119.8,311 121.2,318.9 114.1,315.2 107.1,318.9 108.4,311 
		102.7,305.5 110.6,304.3 	"/>
	<polygon class="st2" points="145.6,297.2 149.1,304.3 157,305.5 151.3,311 152.7,318.9 145.6,315.2 138.6,318.9 139.9,311 
		134.2,305.5 142.1,304.3 	"/>
	<polygon class="st2" points="19.7,329.5 23.2,336.6 31.1,337.8 25.4,343.3 26.8,351.2 19.7,347.5 12.7,351.2 14,343.3 8.3,337.8 
		16.2,336.6 	"/>
	<polygon class="st2" points="51.2,329.5 54.7,336.6 62.6,337.8 56.9,343.3 58.2,351.2 51.2,347.5 44.2,351.2 45.5,343.3 
		39.8,337.8 47.7,336.6 	"/>
	<polygon class="st2" points="82.7,329.5 86.2,336.6 94.1,337.8 88.4,343.3 89.7,351.2 82.7,347.5 75.6,351.2 77,343.3 71.3,337.8 
		79.1,336.6 	"/>
	<polygon class="st2" points="114.1,329.5 117.7,336.6 125.5,337.8 119.8,343.3 121.2,351.2 114.1,347.5 107.1,351.2 108.4,343.3 
		102.7,337.8 110.6,336.6 	"/>
	<polygon class="st2" points="145.6,329.5 149.1,336.6 157,337.8 151.3,343.3 152.7,351.2 145.6,347.5 138.6,351.2 139.9,343.3 
		134.2,337.8 142.1,336.6 	"/>
	<polygon class="st2" points="157,208.5 149.1,207.4 145.6,200.2 145.5,200.4 145.5,218.2 145.6,218.2 152.7,221.9 151.3,214 	"/>
	<polygon class="st3" points="142.1,207.4 134.2,208.5 139.9,214 138.6,221.9 145.5,218.2 145.5,200.4 	"/>
	<polygon class="st3" points="110.6,239.5 102.7,240.7 108.4,246.2 107.1,254.1 114.1,250.4 114.1,232.5 	"/>
	<polygon class="st3" points="79.1,272 71.3,273.1 77,278.7 75.6,286.5 82.6,282.9 82.6,265 	"/>
	<polygon class="st3" points="47.7,304.3 39.9,305.5 45.6,311 44.2,318.9 51.2,315.2 51.2,297.3 	"/>
	<polygon class="st3" points="16.2,336.6 8.3,337.8 14,343.3 12.7,351.2 19.6,347.5 19.6,329.7 	"/>
</g>
</svg>
