<svg xmlns="http://www.w3.org/2000/svg" viewBox="0 0 24 24">    <path d="M 12 2 C 11.172 2 10.5 2.672 10.5 3.5 L 10.5 4.1953125 C 7.9131836 4.862095 6 7.2048001 6 10 L 6 16 L 4.4648438 17.15625 L 4.4628906 17.15625 A 1 1 0 0 0 4 18 A 1 1 0 0 0 5 19 L 12 19 L 19 19 A 1 1 0 0 0 20 18 A 1 1 0 0 0 19.537109 17.15625 L 18 16 L 18 10 C 18 7.2048001 16.086816 4.862095 13.5 4.1953125 L 13.5 3.5 C 13.5 2.672 12.828 2 12 2 z M 5.8359375 2.5332031 C 5.5626875 2.5117031 5.2809063 2.6006406 5.0664062 2.8066406 C 3.4314062 4.3806406 2.3285 6.5038594 2.0625 8.8808594 C 1.9955 9.4758594 2.4635 10 3.0625 10 C 3.5685 10 3.9928281 9.6191875 4.0488281 9.1171875 C 4.2598281 7.2021875 5.1507031 5.4944688 6.4707031 4.2304688 C 6.8317031 3.8844687 6.8616406 3.3198281 6.5566406 2.9238281 C 6.3751406 2.6878281 6.1091875 2.5547031 5.8359375 2.5332031 z M 18.164062 2.5332031 C 17.890812 2.5545781 17.624859 2.6878281 17.443359 2.9238281 C 17.138359 3.3198281 17.168297 3.8844687 17.529297 4.2304688 C 18.851297 5.4954687 19.741172 7.2060469 19.951172 9.1230469 C 20.006172 9.6230469 20.4335 10 20.9375 10 C 21.5385 10 22.0045 9.4710469 21.9375 8.8730469 C 21.6705 6.4990469 20.567594 4.3805937 18.933594 2.8085938 C 18.719094 2.6020937 18.437313 2.5118281 18.164062 2.5332031 z M 10 20 C 10 21.1 10.9 22 12 22 C 13.1 22 14 21.1 14 20 L 10 20 z"></path></svg>