<svg xmlns="http://www.w3.org/2000/svg" xmlns:xlink="http://www.w3.org/1999/xlink" width="33" height="33" viewBox="0 0 33 33"><defs><style>.a{fill:#f7b825;}.b{fill:#000;}.c{filter:url(#a);}</style><filter id="a" x="0" y="0" width="33" height="33" filterUnits="userSpaceOnUse"><feOffset dy="2" input="SourceAlpha"/><feGaussianBlur stdDeviation="1.5" result="b"/><feFlood flood-opacity="0.161"/><feComposite operator="in" in2="b"/><feComposite in="SourceGraphic"/></filter></defs><g transform="translate(5.686 3.916)"><g class="c" transform="matrix(1, 0, 0, 1, -5.69, -3.92)"><circle class="a" cx="12" cy="12" r="12" transform="translate(4.5 2.5)"/></g><path class="b" d="M39.336,29.711a.931.931,0,0,0-1.293,0l-3.557,3.557L30.9,29.711A.915.915,0,1,0,29.611,31l3.581,3.557-3.557,3.581a.931.931,0,0,0,0,1.293.9.9,0,0,0,1.293,0l3.557-3.581,3.582,3.581a.9.9,0,0,0,1.293,0,.931.931,0,0,0,0-1.293l-3.581-3.581,3.581-3.581A.879.879,0,0,0,39.336,29.711Z" transform="translate(-23.536 -23.866)"/></g></svg>