<svg xmlns="http://www.w3.org/2000/svg" width="247" height="132"><style><![CDATA[.B{fill-rule:nonzero}]]></style><g fill-rule="evenodd"><path d="M98.06 23.997c-1.85 0-1.85 1.846-1.85 3.692V56.3c0 1.846 0 2.77.925 4.615 0 .923 0 .923.925 1.846.925 0 1.85.923 1.85.923h.925c.925 0 1.85 0 1.85-1.846V56.3c0-2.77 0-5.538.925-9.23v-1.846c.925-1.846.925-3.692 1.85-4.615s.925-2.77.925-4.615c0-.923.925-2.77 1.85-3.692l3.7-3.692h.925l.925.923h.925l1.85-1.846v-1.846c-.925-.923-1.85-.923-2.775-.923h-2.775c-.925 0-1.85 0-2.775.923 0 0-.925 0-.925.923-.925.923-1.85 1.846-2.775 1.846 0-.923-.925-1.846-.925-2.77v-2.77c0-.923-.925-1.846-1.85-1.846h-2.775l-.925 2.77z" fill="#2b2a29"/><path d="M79.293 16.086H75.33c-1.32 0-1.32 1.318-1.32 1.318 0 1.32 0 2.637 1.322 3.956 0 0 0 1.32 1.322 1.32l1.32 1.318s1.322 1.32 1.322 0c1.322 0 1.322 0 1.322-1.32l1.322-1.32s0-1.32 1.322-1.32v-3.956l-1.324-1.317h-3.965l1.322 1.32z" fill="#f01945"/><g fill="#2b2a29"><path d="M85.1 56.3c0 .923-.925 1.846-.925 1.846-.925.923-.925 1.846-1.85 2.77s-.925 1.846-1.85 2.77h-1.85V52.6c0-.923.925-1.846.925-2.77s0-2.77.925-3.692c0-.923.925-2.77.925-3.692s.925-1.846.925-2.77v-2.77c0-.923.925-1.846 0-2.77v-3.692s0-.923-.925-.923c0 0-.925 0-.925-.923h-1.85c-.925.923-1.85.923-2.775.923s-.925.923-1.85 1.846v.923c-.925 1.846-.925 3.692-.925 4.615 0 1.846-.925 3.692-.925 4.615v.923c0 2.77-.925 5.538-.925 8.307V60c0 2.77.925 4.615 2.775 6.46l1.85 1.846h.925c.925.923.925.923 1.85.923s1.85 0 2.775.923h.925s0-.923.925-.923c.925-.923 1.85-.923 1.85-1.846s.925-.923.925-1.846c.925-.923 1.85-1.846 2.775-3.692 0-.923.925-.923.925-1.846s0-.923.925-1.846.925-1.846.925-3.692V52.6c.925-.923.925-1.846.925-2.77v-2.77c-.925 0-.925 0-.925-.923v.923l.925-.923V44.3h.925v-1.846l.925-.923V40.6h.925v-.923c.925-.923.925-1.846 1.85-3.692v-.923c0-.923.925-.923.925-1.846v-3.692h-3.7c-.925.923-.925.923-.925 1.846s-.925 2.77-.925 3.692v.923c0 .923 0 1.846-.925 2.77v.923s0 .923-.925.923v.923c0 .923-.925 1.846-.925 2.77v.923c-.925.923-.925 2.77-1.85 3.692 0 .923-.925.923-.925 1.846l-.925.923c-.925 1.846-1.85 2.77-2.775 3.692l1.85.923zm-38.855-2.768h0z"/><path d="M42.554 54.455v.923-.923c-.925.923-.925 1.846-.925 2.77v.923l-.925.923v3.692l-.925.923v5.538c0 .923 0 .923-.925.923s-.925.923-.925.923l-.925.923h-.925V45.225c0-.923-.925-.923-.925-1.846v-3.692h-2.775c-.925.923-1.85.923-2.775.923 0 0-.925 0-.925.923 0 2.77-.925 4.615-.925 7.384v20.305c0 1.846.925 2.77 1.85 4.615 0 .923.925.923 1.85.923 0 0 .925 0 .925.923.925.923 1.85.923 2.775 1.846h4.625c.925 0 1.85-.923 1.85-1.846s.925-.923.925-1.846.925-1.846.925-2.77c.925-.923.925-1.846.925-2.77v-3.692c.925-1.846.925-2.77.925-4.615 0 .923.925.923.925 1.846 0 1.846.925 2.77 2.775 3.692.925 0 .925.923 1.85.923.925.923.925.923 1.85.923s1.85.923 1.85.923c.925 0 1.85.923 3.7.923.925 0 1.85 0 1.85-.923l2.775-2.77v-.923c0-.923.925-1.846.925-2.77.925-.923.925-1.846.925-2.77s0-1.846.925-1.846c0-.923 0-1.846.925-1.846V35.996s0-.923-.925-.923h-1.85c-.925 0-.925 0-1.85-.923h-.925c-.925 0-.925.923-.925.923l-.925.923v.923c.925 0 .925.923.925.923V52.61c0 .923 0 1.846-.925 1.846v4.615c0 .923 0 1.846-.925 1.846h-.925v.923c0 .923-.925.923-.925 1.846-.925 0-.925.923-.925.923h-.925l-.925-.923c0-.923-.925-1.846-.925-2.77-.925-.923 0-1.846-.925-2.77V56.3c0-.923-.925-2.77-.925-3.692v-1.846c0-.923 0-.923-.925-1.846v-9.23h-3.7s-.925.923-1.85.923h-.925v1.846c0 .923 0 2.77-.925 3.692v1.846h-.925c0 .923-.925.923 0 1.846v3.692s0 .923-.925.923h1.85z"/><path d="M19.427 107.987h-.925c-.925 0-.925 0-1.85-.923 0 0-.925 0-.925-.923l-.925-.923c0-.923-.925-.923-.925-1.846s0-.923-.925-1.846c0-.923-.925-1.846-.925-1.846v-2.77c-.925-.923 0-1.846 0-2.77.925 0 .925-.923.925-1.846v.923c0 .923.925 1.846.925 1.846v.923c0 .923.925 1.846.925 2.77v.923c.925.923.925 1.846.925 2.77s0 1.846.925 1.846v1.846c0 .923 0 .923-.925.923l3.7.923zm9.25-45.225c0-.923 0-.923-.925-.923s-.925.923-1.85.923l-1.85 1.846c-.925.923-1.85.923-2.775 1.846s-1.85.923-2.775 1.846l-.925.923c-1.85.923-2.775 2.77-3.7 3.692h-1.85c-.925-.923-1.85-2.77-1.85-3.692 0 0 0-.923-.925-.923 0-.923-.925-1.846-.925-2.77s0-.923-.925-1.846c0-.923-.925-2.77-.925-3.692v-6.46s0-.923.925-.923h.925l.925.923v1.846c.925.923.925 1.846.925 3.692 0 .923 0 1.846.925 2.77v-.923c0-.923 0-1.846.925-1.846.925-.923.925-.923.925-1.846v-6.46c0-.923 0-1.846-.925-2.77s-1.85-1.846-3.7-1.846c-.925 0-.925 0-1.85.923-.925 0-1.85.923-1.85.923-.925 0-1.85.923-2.775.923C.925 49.84 0 49.84 0 50.763v6.46c0 .923 0 2.77.925 3.692v1.846c.925.923.925 1.846.925 2.77v1.846c0 .923.925 1.846.925 2.77s.925 1.846.925 2.77c.925.923.925 2.77 1.85 3.692 0 .923.925 1.846.925 1.846 0 .923 0 .923.925 1.846 0 .923.925 1.846 1.85 1.846 0 .923 0 1.846-.925 2.77 0 .923-.925 1.846-.925 2.77 0 1.846-.925 4.615-.925 6.46s0 4.615.925 6.46c0 .923 0 .923.925 1.846v.923c.925.923.925.923.925 1.846s.925.923.925 1.846h.925s.925 0 .925.923c0 0 0 .923.925.923h7.4c.925 0 1.85-.923 2.775-.923.925-.923 1.85-.923 1.85-.923.925 0 .925-.923.925-1.846V96.91c-.925-.923-1.85-2.77-1.85-3.692-.925-.923-1.85-2.77-1.85-3.692-.925-.923-.925-1.846-1.85-2.77s-.925-1.846-1.85-3.692c-.925-.923-1.85-2.77-1.85-3.692v-.923c0-1.846 0-2.77 1.85-3.692l.925-.923c0-.923.925-.923.925-1.846l.925-.923c.925-1.846 2.775-3.692 4.625-4.615.925-.923 1.85-1.846 1.85-2.77s.925-.923.925-1.846v-1.846 2.77z" class="B"/><path d="M174.843 43.38c0 .923-.925 1.846-.925 1.846V43.38l.925-.923c0-.923 0-1.846.925-1.846 0-.923 0-.923.925-.923 0 0 .925 0 0 .923 0 .923-.925 1.846-.925 1.846l-.925.923zm5.55-11.076v.923l.925-.923v-1.846s0 .923-.925.923v.923zm1.85-3.692v.923s0-.923.925-.923h-.925zm2.777-3.692v1.846s0-.923.925-.923c0 0 0-.923.925-.923h-1.85z"/><path d="M171.142 47.07v.923-.923h.925v.923c0 .923-.925.923-.925 1.846s-.925.923-.925 1.846v.923h-1.85v.923c0 .923-.925 1.846-.925 1.846 0 .923-.925 1.846 0 2.77v2.77c0 .923.925 2.77 1.85 3.692s.925 1.846 1.85 2.77c.925 1.846 1.85 2.77 3.7 3.692h5.55l.925-.923h.925c.925 0 .925-.923 1.85-.923h.925s.925 0 .925-.923.925-.923.925-1.846l.925-.923s.925-.923 0-.923h-.925c-1.85.923-3.7 1.846-6.476 1.846-.925 0-1.85 0-1.85.923h-2.775c-.925 0-1.85 0-1.85-.923V62.76c0-1.846.925-3.692 1.85-5.538V56.3c0-.923.925-1.846.925-2.77.925-1.846 1.85-3.692 2.775-4.615s.925-1.846 1.85-3.692c0-.923.925-.923.925-1.846.925-.923.925-1.846 1.85-1.846h13.876v-1.846c0-.923-.925-.923-1.85-.923-.925-.923-1.85-.923-3.7-.923h-6.476c-.925 0-.925 0 0-.923 0-.923.925-1.846 1.85-2.77v-.923c0-.923.925-1.846 1.85-3.692 0-.923.925-1.846.925-1.846 0-.923 0-.923-.925-1.846v-.923s0-.923-.925-.923-1.85-.923-1.85-.923h-1.85s-.925 0-.925.923 0 .923-.925 1.846v.923s0 .923-.925.923c0 .923-.925.923-.925 1.846s-.925.923-.925 1.846-.925.923-.925 1.846c0 0 0 .923-.925.923-.925.923-1.85 2.77-1.85 3.692-.925.923-.925.923-1.85.923h-8.326s-.925.923 0 .923l.925.923c.925.923.925.923.925 1.846 0 0 .925.923.925 0h3.7s.925 0 .925.923v.923l-.925.923c-.925.923-.925 1.846-.925 2.77h-.925v1.846-2.77z"/><path d="M139.69 78.452c-.925 0-.925 0-.925-.923 0 0-.925-.923-.925-1.846v-6.46c0-.923 0-1.846.925-1.846 0-.923.925-1.846.925-1.846v-.923c0-.923.925-1.846.925-1.846.925 0 .925 0 1.85-.923v4.615c-.925.923 0 1.846-.925 3.692v.923c0 .923 0 1.846-.925 2.77 0 .923-.925.923-.925 1.846s-.925.923-.925 1.846-.925.923-.925.923h1.85zm32.378-33.227v-.923H160.04c-1.85 0-3.7.923-5.55.923h-1.85V40.6c0-.923 0-1.846.925-2.77 0-.923 0-.923.925-1.846 0-.923.925-2.77.925-3.692v-1.846c0-.923 0-.923.925-.923v-.923c0-.923.925-1.846.925-2.77l.925-.923s.925 0 .925.923v.923s0 .923-.925.923v.923c0 .923-.925 2.77-.925 3.692s-.925 1.846-.925 2.77v-.923c0-.923.925-.923 1.85-1.846.925 0 .925-.923.925-.923 0-.923.925-1.846 1.85-1.846s.925-.923 1.85-1.846v-.923c.925-.923.925-1.846.925-2.77 0-1.846-.925-2.77-1.85-3.692-.925 0-.925-.923-1.85-.923h-8.326v.923c0 .923-.925.923-.925 1.846s-.925.923-.925.923 0 .923-.925.923c-.925.923-.925 1.846-.925 3.692 0 0 0 .923-.925.923v.923c0 .923 0 1.846-.925 2.77 0 .923 0 .923-.925 1.846 0 .923 0 1.846-.925 2.77 0 .923-.925 1.846-.925 2.77v11.076l-1.85 1.846c-.925.923-1.85 1.846-1.85 2.77-1.85 1.846-2.775 3.692-3.7 5.538s-1.85 3.692-2.775 6.46c0 .923 0 .923-.925 1.846v7.384c.925.923.925.923 1.85.923.925.923 1.85 1.846 2.775 1.846s.925.923 1.85.923 1.85 0 2.775.923h2.775c.925 0 .925 0 1.85-.923l1.85-1.846c.925-.923.925-2.77 1.85-3.692 0-.923.925-.923.925-1.846s0-2.77.925-4.615V50.763l2.775-2.77h.925c.925 0 .925-.923 1.85-.923h.925c1.85-.923 4.625-.923 6.476-1.846.925 0 2.775-.923 3.7-.923s.925-.923 1.85-.923c0 0 0-.923.925-1.846l.925 3.692z" class="B"/><path d="M119.337 27.7v-.923c0-.923 0-.923.925-1.846v.923c0 .923 0 .923-.925 1.846zm13.876 19.38v-.923s0 .923-.925.923h.925zm-18.5-4.614h0v.923z"/><path d="M121.187 23.074c-.925 0-.925.923-.925 1.846s-.925 1.846-.925 2.77 0 .923-.925 1.846c0 .923-.925 1.846-.925 2.77l.925.923v.923-1.846l-.925.923c0 .923-.925 1.846-.925 3.692-.925.923-.925 2.77-.925 3.692-.925.923-.925 2.77-.925 3.692s0 1.846-.925 2.77c0 .923-.925 1.846-.925 2.77v.923c0 1.846-.925 4.615-.925 6.46v.923c0 1.846 0 3.692.925 4.615 0 1.846.925 2.77 1.85 3.692l1.85 1.846h.925c.925 0 2.775.923 3.7.923l.925-.923c.925 0 1.85-.923 1.85-1.846l2.775-2.77c.925-.923 1.85-1.846 1.85-2.77l.925-.923c.925-.923 1.85-2.77 2.775-3.692s.925-1.846 1.85-2.77 1.85-1.846 1.85-2.77c0 0 .925-.923.925-1.846l2.775-2.77v-.923c.925-.923.925-1.846 1.85-2.77 0-.923.925-.923.925-.923l1.85-1.846v-.923s0-.923-.925-.923l-.925-.923h-2.775c-.925 0-.925 0-1.85.923-.925 0-.925.923-.925 1.846l-1.85 1.846s-.925 0-.925.923c0 0 0 .923-.925.923h-.925l-.925.923c0 .923-.925.923-.925 1.846s-.925 1.846-.925 1.846 0 .923-.925.923v-.923c-.925.923-.925 1.846-1.85 1.846l-.925.923c-.925.923-.925 1.846-1.85 2.77l-.925.923c-.925 1.846-2.775 3.692-4.625 5.538h-.925c-.925-.923-.925-2.77-.925-3.692v-1.846c0-1.846 0-2.77.925-4.615 0-1.846.925-3.692.925-4.615s.925-1.846.925-3.692c.925-1.846.925-3.692 1.85-4.615l2.775-8.307 2.775-7.384c.925-1.846 1.85-4.615 2.775-6.46V12.92c0-.923.925-.923.925-1.846s.925-1.846.925-2.77V6.46c0-.923 0-.923.925-1.846 0-.923 0-.923.925-1.846 0-.923 0-1.846-.925-1.846S130.438 0 129.513 0h-3.7l-2.775 5.538c0 .923-.925 1.846-.925 2.77l-.925.923c0 .923-.925 1.846-.925 1.846 0 .923-.925 1.846-.925 2.77 0 0 0 .923-.925.923v.923h-.925c0 .923-.925.923-.925 1.846l4.625 5.538zm111.937 21.228c-1.85-.923-1.85.923-2.775 1.846 0 .923-.925 1.846-.925 2.77-.925.923-.925 1.846-1.85 2.77v.923c-.925.923-.925.923-.925 1.846-.925.923-.925 1.846-1.85 2.77v.923c-.925.923-.925.923-.925 1.846-.925.923-1.85 2.77-1.85 3.692l-.925.923c0 .923-.925.923-.925 1.846s-.925.923-.925 1.846c-.925.923-.925 1.846-1.85 2.77s-.925 2.77-1.85 4.615v1.846l2.775 2.77c.925.923 1.85.923 2.775 0s.925-.923.925-1.846.925-.923.925-.923l.925-.923c.925-2.77 2.775-5.538 4.625-7.384 0-.923.925-.923.925-1.846l3.7-3.692c.925-.923 1.85-1.846 2.775-3.692.925-.923 1.85-1.846 2.775-1.846s1.85-.923 2.775-.923.925 0 .925-.923h.925v.923l.925.923H247V56.3c0-.923-.925-1.846-1.85-2.77-.925 0-1.85-.923-2.775-.923h-4.625c-.925 0-1.85.923-2.775.923 0-.923 0-1.846.925-2.77s.925-1.846 1.85-2.77c0-.923 0-1.846-.925-2.77-.925 0-.925-.923-1.85-.923h-1.85z"/><path d="M200.745 47.994l3.7-3.692c.925 0 .925-.923 1.85-1.846h.925c.925 0 .925-.923 1.85-.923.925-.923.925 0 1.85 0v1.846c0 .923-.925 2.77-1.85 3.692-1.85 1.846-4.625 3.692-7.4 5.538h-.925v-.923c0-.923.925-.923.925-1.846v-1.846h-.925zm19.427 11.076h-.925c-.925 0-.925.923-.925.923-.925 0-.925.923-1.85.923h-1.85v.923c-1.85.923-3.7 1.846-5.55 1.846-.925 0-1.85.923-2.775.923h-1.85c-.925 0-.925 0-1.85.923-.925 0-.925 0-1.85.923h-4.625s0-.923-.925-.923v-3.69c0-.923 0-1.846.925-2.77l.925-.923c.925 0 1.85 0 2.775-.923.925 0 .925-.923 1.85-.923s.925-.923 1.85-.923 1.85-.923 1.85-.923c.925-.923 1.85-.923 2.775-1.846s1.85-.923 1.85-1.846v-.923c.925-.923.925-1.846 1.85-1.846v-1.846c.925-.923.925-1.846 1.85-2.77s.925-1.846.925-3.692c0-.923 0-.923-.925-1.846 0-.923-.925-.923-1.85-1.846l-1.85-1.846c-1.85-.923-2.775-.923-3.7-1.846h-1.85l-1.85 1.846c-1.85.923-3.7 2.77-4.625 3.692s-1.85 1.846-1.85 2.77v1.846s0 .923-.925.923h-1.85v1.846l-.925.923c-.925.923-.925 1.846-.925 2.77s-.925.923-.925.923h-.925v3.692c0 .923-.925.923-.925 1.846v3.692c0 .923.925 1.846.925 2.77s.925.923.925 1.846c.925.923 2.775 3.692 3.7 3.692.925.923 2.775 1.846 4.625 1.846h2.775c.925 0 .925 0 1.85-.923h.925c.925 0 2.775 0 3.7-.923 1.85-.923 2.775-.923 4.625-1.846.925 0 .925-.923 1.85-.923s1.85-.923 1.85-.923l2.775-2.77c0-.923 0-.923.925-.923s1.85-.923 1.85-1.846c.925 0 .925-.923.925-.923s0-.923.925-.923c0 0 .925 0 0-.923 0-.923 0-.923.925-.923h.925v-.923h-.925c-.925 0-1.85.923-1.85.923s-.925 0-.925.923l-1.85 3.692zm-45.217 47.88c.7-.18.693-.42 1.146-.718s.68-.705.68-1.222c0-.62-.298-1.1-.894-1.436s-1.58-.504-2.953-.504c-1.528 0-2.687.278-3.477.834a2.63 2.63 0 0 0-1.185 2.27 4.23 4.23 0 0 0 .447 1.882c.298.608.835 1.287 1.612 2.037s1.904 1.668 3.38 2.755l-3.38 3.453-3.846-3.453c-1.088-1.086-1.93-2.192-2.525-3.318s-.894-2.348-.894-3.667c0-.983.188-1.856.563-2.62a6.69 6.69 0 0 1 1.496-1.998 7.24 7.24 0 0 1-1.146-1.843c-.298-.686-.447-1.48-.447-2.386 0-.828.15-1.533.447-2.115s.693-1.054 1.185-1.416c.648-.517 1.418-.886 2.312-1.106s2.13-.33 3.7-.33h3.963v-2.173H161.9V85.6h22.107v4.268h-3.652v6.44h-9.014c-.725 0-1.23.032-1.515.097a1.6 1.6 0 0 0-.699.33c-.337.26-.505.647-.505 1.164 0 .44.18.88.544 1.32 1.217-.3 2.525-.466 3.924-.466 2.098 0 3.795.3 5.1.873s2.24 1.34 2.836 2.27.894 1.914.894 2.95c0 3.182-2.046 5.25-6.14 6.208l-.816-4.113zm-21.95-17.073h-3.108V85.6h2.914c-.3-.673-.563-1.332-.758-1.98a6.69 6.69 0 0 1-.29-1.94c0-2.044.816-3.673 2.448-4.9s4.028-1.824 7.188-1.824c2.875 0 5.5.504 7.848 1.513a24.76 24.76 0 0 1 6.43 3.997c1.93 1.657 3.607 3.182 5.187 5.122h-5.944c-1.917-2.12-3.866-3.48-6.003-4.617s-4.397-1.707-6.78-1.707c-1.684 0-2.96.304-3.827.912a2.89 2.89 0 0 0-1.302 2.503c0 .543.078 1.067.233 1.57a6.05 6.05 0 0 0 .583 1.339h4.08v4.268h-3.7v19.867h-5.206V89.878zm24.05-12.03a2.83 2.83 0 0 1 .835-2.056c.557-.57 1.237-.854 2.04-.854a2.68 2.68 0 0 1 2.02.854 2.87 2.87 0 0 1 .816 2.057c0 .828-.272 1.52-.816 2.076a2.71 2.71 0 0 1-2.02.834c-.803 0-1.483-.278-2.04-.834s-.835-1.248-.835-2.076zm23 34.534l-1.515-2.716-1.243-2.483c-.673.078-1.438.116-2.292.116a16.24 16.24 0 0 1-3.613-.407c-1.19-.27-2.28-.7-3.264-1.32a6.76 6.76 0 0 1-2.351-2.445c-.583-1.022-.874-2.296-.874-3.822 0-1.138.214-2.128.64-2.968a6.24 6.24 0 0 1 1.73-2.115c.83-.647 1.82-1.145 2.972-1.494s2.428-.563 3.827-.64v-2.212H184.01V85.6h21.68v4.268h-6.4v6.48h-1.98c-1.502 0-2.668.065-3.497.194s-1.528.336-2.098.62c-1.088.517-1.632 1.345-1.632 2.483 0 .983.4 1.8 1.204 2.425s2.2.95 4.157.95h.3a2.41 2.41 0 0 0 .408-.04 4.54 4.54 0 0 1-.078-.815c0-.957.35-1.643 1.05-2.056a4.35 4.35 0 0 1 2.253-.621c1.373 0 2.422.37 3.147 1.106s1.088 1.597 1.088 2.58c0 .905-.2 1.6-.602 2.057s-.9.84-1.496 1.125c.75 1.268 1.684 2.65 2.797 4.152l-4.235 1.862zm8.198-22.505h-2.564V85.6h2.603c-.83-2.07-1.768-3.647-2.817-4.734s-2.273-1.63-3.672-1.63c-1.036 0-1.807.265-2.312.795s-.758 1.222-.758 2.076c0 .75.097 1.436.3 2.057s.294.892.605 1.436H194.6a8.46 8.46 0 0 1-.792-2.115c-.182-.738-.272-1.468-.272-2.192 0-1.94.673-3.48 2.02-4.617s3.225-1.707 5.634-1.707c2.228 0 4.1.48 5.614 1.436s2.77 2.238 3.77 3.84 1.845 3.4 2.545 5.355h4.04v4.268h-3.7v19.867h-5.206V89.878z" class="B"/></g><path d="M97.468 115.848H87.14v15.58h10.328v-3.67H92.01v-8.24h5.457v-3.672zm44.795 0h5.19l-8.294 15.58h-6.045l-6.693-11.91h-6.742v11.908h-4.815V119.52h-7.494c.377 1.272.377 2.55.377 3.026v1.7c0 4.468-2.25 7.18-6.96 7.18h-3.32v-3.67h2.62c1.928 0 2.782-.85 2.782-2.445v-3.403c0-1.436-.907-2.39-2.782-2.39h-2.62v-3.672h32.216l6.477 11.592 6.102-11.592zm-62.07 11.115v-11.115h4.977v15.58h-5.138c-2.622 0-4.924-1.54-6.102-4.095l-2.782-5.477c-.16-.372-.855-1.543-1.98-1.543h-.16v11.114h-5.03v-15.58h5.2c2.57 0 4.87 1.542 6.155 4.096l2.73 5.477c.266.477.91 1.544 1.98 1.544h.16v-.001z" fill="#ccc" class="B"/><path d="M88.96 123.217c0 1.488-1.22 2.732-2.802 2.732a2.75 2.75 0 0 1-2.75-2.732c0-1.5 1.222-2.784 2.75-2.784 1.58 0 2.802 1.294 2.802 2.784" fill="#ed1c24"/><path d="M45.704 131.466L45.17 130l-.516-1.465h-5.23l-1.05 2.93h-1.682l1.25-3.368 1.14-2.937 1.107-2.656 1.15-2.507h1.482l1.15 2.507 1.107 2.656 1.14 2.937 1.25 3.368h-1.765zm-1.516-4.253l-1.058-2.788-1.1-2.6-1.107 2.6-1.04 2.788H44.2zm4.746-4.104l1.416-.28c.588-.1 1.266-.15 2.032-.15.688 0 1.26.097 1.715.3s.82.463 1.1.8a3.15 3.15 0 0 1 .575 1.25c.11.486.167 1.02.167 1.605v4.832h-1.55v-4.5c0-.53-.036-.982-.108-1.357s-.192-.678-.358-.9-.4-.4-.666-.505-.622-.157-1.033-.157l-.516.017-.508.04-.433.058-.275.05v7.265h-1.55v-8.357zm109.18-.25a43.19 43.19 0 0 1-1.524 4.633l-1.7 3.972h-1.4l-1.7-3.972a43.19 43.19 0 0 1-1.524-4.633h1.665l.475 1.73.583 1.82.625 1.746.6 1.506.6-1.506.625-1.746.583-1.82.475-1.73h1.6zm1.116 4.32c0-.76.1-1.426.333-1.994s.516-1.04.883-1.415.788-.656 1.266-.844a3.97 3.97 0 0 1 1.466-.28c1.166 0 2.06.36 2.68 1.084s.933 1.823.933 3.3v.256a2.33 2.33 0 0 1-.017.29h-5.93c.067.894.328 1.572.783 2.035s1.166.695 2.132.695c.544 0 1.002-.047 1.374-.14s.652-.185.84-.273l.217 1.3c-.2.1-.52.204-1 .314s-1.008.165-1.607.165c-.755 0-1.407-.113-1.957-.34s-1.002-.538-1.357-.935a3.79 3.79 0 0 1-.79-1.415c-.17-.545-.258-1.145-.258-1.795zm5.945-.844c.01-.695-.164-1.266-.525-1.713s-.858-.67-1.5-.67c-.355 0-.67.07-.94.207a2.21 2.21 0 0 0-.69.538 2.47 2.47 0 0 0-.441.761c-.105.287-.175.58-.208.877h4.297zm3.847-3.227l1.416-.28c.588-.1 1.266-.15 2.032-.15.688 0 1.26.097 1.715.3s.82.463 1.1.8a3.15 3.15 0 0 1 .575 1.25c.11.486.167 1.02.167 1.605v4.832h-1.55v-4.5c0-.53-.036-.982-.108-1.357s-.192-.678-.358-.9-.4-.4-.666-.505-.622-.157-1.033-.157l-.516.017-.508.04-.433.058-.275.05v7.265h-1.55v-8.357zm11.008-.248h3.28v1.3h-3.28v3.972c0 .43.033.786.1 1.067s.167.502.3.662a1.08 1.08 0 0 0 .5.339c.2.066.433.1.7.1.466 0 .84-.052 1.124-.157l.6-.223.3 1.274c-.155.077-.427.174-.816.3s-.833.174-1.332.174c-.588 0-1.074-.074-1.457-.223a2.12 2.12 0 0 1-.924-.67c-.233-.298-.397-.665-.5-1.1s-.142-.94-.142-1.514v-7.678l1.55-.265v2.664zm12.14 8.357l-1.407.28c-.583.1-1.257.15-2.023.15-.666 0-1.227-.097-1.682-.3s-.822-.466-1.1-.82-.477-.77-.6-1.25-.183-1.012-.183-1.597v-4.832h1.55v4.5c0 1.048.167 1.798.5 2.25s.894.678 1.682.678l.516-.017.5-.04.425-.05c.128-.017.22-.036.275-.058v-7.265h1.55v8.357zm5.862-8.54c.133 0 .286.008.458.025l.508.066.458.083.308.074-.266 1.34a5.12 5.12 0 0 0-.608-.157c-.283-.06-.647-.1-1.1-.1a4.08 4.08 0 0 0-.858.091l-.558.124v7.232h-1.55v-8.24c.366-.132.822-.256 1.366-.372s1.155-.174 1.832-.174zm2.748 4.5c0-.76.1-1.426.333-1.994s.516-1.04.883-1.415.788-.656 1.266-.844a3.97 3.97 0 0 1 1.466-.28c1.166 0 2.06.36 2.68 1.084s.933 1.823.933 3.3v.256a2.33 2.33 0 0 1-.017.29h-5.93c.067.894.328 1.572.783 2.035s1.166.695 2.132.695c.544 0 1.002-.047 1.374-.14s.652-.185.84-.273l.217 1.3c-.2.1-.52.204-1 .314s-1.008.165-1.607.165c-.755 0-1.407-.113-1.957-.34s-1.002-.538-1.357-.935a3.79 3.79 0 0 1-.79-1.415c-.17-.545-.258-1.145-.258-1.795zm5.945-.844c.01-.695-.164-1.266-.525-1.713s-.858-.67-1.5-.67c-.355 0-.67.07-.94.207a2.21 2.21 0 0 0-.69.538 2.47 2.47 0 0 0-.441.761c-.105.287-.175.58-.208.877h4.297z" fill="#bebebe" class="B"/></g></svg>