<?xml version="1.0" encoding="UTF-8"?>
<svg width="15px" height="15px" viewBox="0 0 15 15" version="1.1" xmlns="http://www.w3.org/2000/svg" xmlns:xlink="http://www.w3.org/1999/xlink">
    <!-- Generator: Sketch 52.2 (67145) - http://www.bohemiancoding.com/sketch -->
    <title>Shape</title>
    <desc>Created with Sketch.</desc>
    <g id="Page-1" stroke="none" stroke-width="1" fill="none" fill-rule="evenodd">
        <g id="Artboard" transform="translate(-967.000000, -410.000000)" fill="#A1A1A1" fill-rule="nonzero">
            <g id="search" transform="translate(781.000000, 400.000000)">
                <g transform="translate(186.000000, 10.000000)" id="Shape">
                    <path d="M14.6665543,13.0349794 L11.5746129,9.94312525 C12.3197427,8.86747257 12.6924971,7.66833516 12.6924971,6.3463445 C12.6924971,5.48697164 12.5256638,4.66507676 12.1919972,3.88084929 C11.8585516,3.09649553 11.4077796,2.42043955 10.8398707,1.85252348 C10.2719618,1.2846074 9.5960091,0.833829742 8.81182311,0.500348363 C8.02738454,0.166772263 7.20556319,0 6.34620118,0 C5.48690232,0 4.66501782,0.166772263 3.88080026,0.500348363 C3.09645641,0.833829742 2.42040897,1.2846074 1.85250007,1.85252348 C1.28452803,2.42043955 0.833819208,3.09662183 0.500310469,3.88084929 C0.166770156,4.66517148 0,5.48697164 0,6.3463445 C0,7.20565422 0.166770156,8.02726494 0.500310469,8.81171342 C0.833787635,9.59594089 1.28452803,10.2719021 1.85250007,10.8398182 C2.42040897,11.4079237 3.0965827,11.858512 3.88080026,12.1921828 C4.66511254,12.5256957 5.48690232,12.6924364 6.34620118,12.6924364 C7.6684593,12.6924364 8.86739212,12.3196458 9.94309435,11.5745697 L13.0350358,14.657457 C13.251376,14.8857664 13.521454,15 13.8462485,15 C14.1587294,15 14.4293126,14.8857979 14.6574928,14.657457 C14.8857677,14.4291791 14.9999999,14.1587189 14.9999999,13.846234 C15.0000947,13.527908 14.8889251,13.257353 14.6665543,13.0349794 Z M9.19929062,9.19915425 C8.40904256,9.98953858 7.45808642,10.384715 6.34620118,10.384715 C5.23450538,10.384715 4.28354924,9.98944386 3.49323804,9.19915425 C2.70292683,8.4088962 2.30778702,7.45805434 2.30778702,6.34615506 C2.30778702,5.23444522 2.70302155,4.2833192 3.49323804,3.49315588 C4.28339138,2.70280311 5.23450538,2.30768988 6.34620118,2.30768988 C7.45796012,2.30768988 8.40891627,2.70296098 9.19929062,3.49315588 C9.98966497,4.2833192 10.3848048,5.23444522 10.3848048,6.34615506 C10.3848048,7.45805434 9.98953867,8.4088962 9.19929062,9.19915425 Z"></path>
                </g>
            </g>
        </g>
    </g>
</svg>