<svg id="Layer_1" data-name="Layer 1" xmlns="http://www.w3.org/2000/svg" width="78" height="98.61" viewBox="0 0 78 98.61"><defs><style>.cls-1,.cls-3{fill:#fff;}.cls-1,.cls-2{fill-rule:evenodd;}.cls-2{fill:#e3000f;}</style></defs><title>Indian Express Group Logo white</title><path class="cls-1" d="M275.47,314.87s6.17,0.59,6.15,2.65a1.59,1.59,0,0,1-1.84,1.48s-6.18-.51-6.19-2.6A1.77,1.77,0,0,1,275.47,314.87Zm7.68,0h6.73c1.8,2.29,3,3,3,4.13,0,5.59-3,11.4-3.36,14h-2.61c0.47-5.14-.43-0.15,0-4.85,0.32-3.42-.74-2.77-0.76-4.49V321.6a9.56,9.56,0,0,1,1.53-3.37c-1.7-1.11-3.39-.12-4.49-2.42v-0.95Zm-8.26,4.49c0.69,0,6.94,1.21,7,2.65a1.67,1.67,0,0,1-1.89,1.66c-0.15,0-6.92-.71-6.91-2.61A1.65,1.65,0,0,1,274.89,319.36Zm0.76,5.07c0.23,0,6.36.64,6.37,2.43,0,1.3-1.13,1.49-2.24,1.48,0,0-6-.37-6-2.42C273.79,324.56,274.61,324.41,275.65,324.43Zm1.31,4.85s5.06,0.36,5.07,2.25c0,1.24-1.15,1.5-2.06,1.48,0,0-4.68-.13-4.66-2.25A1.61,1.61,0,0,1,277,329.27Zm12.16,5.43c0.43,0,1.1.55,2.06,2.6H276c0.24-.47,1-1.8,1.53-2.6h11.58Zm-6.47-50.22s2.73,6.08,7.59,8.53c-3.06,4.59-.78,14.94-7.67,14.94-5.6,0-5-6.54-8-14.76,3.7-1.86,6.75-7.15,7.31-8.79v8.43c-1.25.11-1.44,0.93-1.44,1.84a1.86,1.86,0,0,0,1.8,1.88,2,2,0,0,0,1.88-2.06,1.71,1.71,0,0,0-1.44-1.66v-8.35Zm8.53,8.12c0,0.76-3.93,12.47-3.95,17.23H277.9c0-4.22-4.3-15.65-4.31-17,0,0,8.48-6,8.48-12.16,0.74,1.76-.19,1.39,3.32,6.51C289,292.49,291.17,291.84,291.18,292.61Zm-2.83,19.07v1.53H277v-1.53h11.39Z" transform="translate(-267.8 -238.7)"/><path class="cls-2" d="M280.12,241.91a4.33,4.33,0,0,0,.54,6L293,258.93c1.62,1.41.55,3.74,0.55,3.74l0.25,0.22,2.58-3.21a4.21,4.21,0,0,0,.94-2.65v0a4.34,4.34,0,0,0-1.48-3.25l-12.34-11.07c-1.62-1.41-.55-3.75-0.55-3.75l-0.25-.22Z" transform="translate(-267.8 -238.7)"/><path class="cls-2" d="M274.43,249a4.33,4.33,0,0,0,.54,6L287.31,266c1.62,1.41.55,3.74,0.55,3.74l0.25,0.22,2.58-3.21a4.33,4.33,0,0,0-.54-6l-12.34-11.07c-1.62-1.41-.55-3.74-0.55-3.74l-0.25-.22Z" transform="translate(-267.8 -238.7)"/><path class="cls-2" d="M268.74,256.09a4.2,4.2,0,0,0-.94,2.64v0.07a4.34,4.34,0,0,0,1.48,3.24l12.34,11.07c1.62,1.41.55,3.75,0.55,3.75l0.25,0.22,2.58-3.21a4.33,4.33,0,0,0-.53-6l-12.34-11.07c-1.62-1.41-.55-3.75-0.55-3.75l-0.25-.22Z" transform="translate(-267.8 -238.7)"/><path class="cls-1" d="M338,327.56v-0.27h-1.17v-3h1c2.13,0,3.16-.61,3.16-1.94s-1-2-3-2h-3.73v0.28h1.11v6.67h-1.11v0.27H338ZM336.83,324v-3.37h0.93c1.15,0,1.63.29,1.63,1.62S338.9,324,337.48,324h-0.66Zm-7.9,1.36v-4.75H330v-0.27h-3.67v0.27h1.1v5c0,1.41,1,2.12,2.82,2.12s2.66-.75,2.66-2.29v-4.84H334v-0.27h-2.51v0.27h1.1v4.84a1.78,1.78,0,0,1-2.06,1.93c-1.32,0-1.63-.66-1.63-1.85v-0.17Zm-8.38-.5v-1.79c0-1.82.51-2.62,1.85-2.62s1.85,0.79,1.85,2.62v1.79c0,1.82-.51,2.62-1.85,2.62S320.55,326.68,320.55,324.85Zm-1.61-.89a3.48,3.48,0,1,0,3.47-3.79A3.54,3.54,0,0,0,318.94,324Zm-5.44-.41v-2.93h0.85c1.1,0,1.51.27,1.51,1.47s-0.51,1.46-1.76,1.46h-0.6Zm1.1,4v-0.27h-1.1V323.8c1.65,0,2,.37,2.05,1.53l0,0.69c0.06,1.21.54,1.67,2.09,1.67a2.75,2.75,0,0,0,.61-0.1v-0.31a1.17,1.17,0,0,1-.34.07c-0.61,0-.78-0.25-0.78-0.86V326c0-1.4-.61-2-2.06-2.24V323.7c1.56-.24,2.3-0.76,2.3-1.7,0-1.22-.89-1.67-2.73-1.67h-3.74v0.28H312v6.67h-1.11v0.27h3.67Zm-10.9-3.39v-2.24c0-2.29.64-3.27,2.32-3.27a2.73,2.73,0,0,1,2.82,2.41h0.37v-2.59h-0.28l-0.54.52a3.62,3.62,0,0,0-2.31-.68,4.75,4.75,0,0,0,0,9.47c2.22,0,3.66-1.22,3.71-3.2h0.92v-0.34h-4.36v0.34h1.4v0.87c0,1.41-.5,2-1.76,2C304.34,327.44,303.7,326.45,303.7,324.17Zm37.66-10.67,0.43-.46a2.82,2.82,0,0,0,1.7.56,2.27,2.27,0,0,0,2.31-2.45,2.17,2.17,0,0,0-1.94-2.29l-0.8-.22c-0.85-.22-1.33-0.43-1.33-1.1a1.32,1.32,0,0,1,1.49-1.24,2,2,0,0,1,1.94,1.83h0.26v-2h-0.17l-0.44.45a2.36,2.36,0,0,0-1.59-.52,1.92,1.92,0,0,0-2.05,2c0,1.18.62,1.82,2,2.18l0.72,0.2c0.94,0.25,1.35.64,1.35,1.3a1.58,1.58,0,0,1-1.74,1.55c-1,0-1.68-.65-2-1.94h-0.32v2.16h0.23Zm-5.91,0,0.43-.46a2.82,2.82,0,0,0,1.7.56,2.27,2.27,0,0,0,2.31-2.45,2.17,2.17,0,0,0-1.94-2.29l-0.8-.22c-0.85-.22-1.33-0.43-1.33-1.1a1.32,1.32,0,0,1,1.49-1.24,2,2,0,0,1,1.94,1.83h0.26v-2h-0.17l-0.44.45a2.36,2.36,0,0,0-1.59-.52,1.92,1.92,0,0,0-2.05,2c0,1.18.62,1.82,2,2.18l0.72,0.2c0.94,0.25,1.35.64,1.35,1.3a1.58,1.58,0,0,1-1.74,1.55c-1,0-1.68-.65-2-1.94h-0.32v2.16h0.23Zm-5.28-3.75h0.08c1.13,0,1.53.25,1.64,1.34h0.26v-2.9h-0.26c-0.11,1.06-.51,1.33-1.59,1.33h-0.14v-3.06h1.42c1.19,0,1.64.32,2,1.66h0.26l-0.08-1.95H327.6v0.28h1.1v6.67h-1.1v0.27H334l0.07-2.39h-0.26c-0.24,1.55-.83,2.12-2.29,2.12h-1.36v-3.39Zm-7.71-.36v-2.93h0.85c1.1,0,1.51.27,1.51,1.47s-0.51,1.46-1.76,1.46h-0.6Zm1.1,4v-0.27h-1.1v-3.49c1.65,0,2,.37,2.05,1.53l0,0.69c0.06,1.21.54,1.67,2.09,1.67a2.75,2.75,0,0,0,.61-0.1v-0.31a1.17,1.17,0,0,1-.34.07c-0.61,0-.78-0.25-0.78-0.86v-0.47c0-1.4-.61-2-2.06-2.24v-0.09c1.56-.24,2.3-0.76,2.3-1.7,0-1.22-.89-1.67-2.73-1.67h-3.74v0.28H321v6.67h-1.11v0.27h3.67Zm-7.1,0v-0.27h-1.17v-3h1c2.13,0,3.16-.61,3.16-1.94s-1-2-3-2h-3.73v0.28h1.11v6.67h-1.11v0.27h3.74Zm-1.17-3.57v-3.37h0.93c1.15,0,1.63.29,1.63,1.62s-0.49,1.75-1.91,1.75h-0.66Zm-6.44,3.57h3.63v-0.27h-0.82l-2.62-4,1.92-2.7h1.13v-0.28h-2.72v0.28h1.22l-1.74,2.44-1.57-2.44h1.09v-0.28h-3.53v0.28h0.8l2.37,3.64-2.15,3h-1.06v0.27h2.74v-0.27h-1.33l2-2.77,1.81,2.77h-1.15v0.27Zm-9.74-4.57h0.1c1.42,0,1.91.31,2.05,1.68h0.33V306.9h-0.33c-0.14,1.32-.64,1.66-2,1.66h-0.17v-3.82h1.77c1.49,0,2.05.4,2.52,2.08h0.33l-0.1-2.43h-7.72v0.35h1.37v8.34h-1.37v0.34h8l0.09-3h-0.33c-0.3,1.94-1,2.64-2.86,2.64h-1.7v-4.23Z" transform="translate(-267.8 -238.7)"/><path class="cls-1" d="M325,292.06h-3.33v0.16h0.86v7h-0.86v0.16H325v-0.16H324.1v-7H325v-0.16Zm-11.12,7.29h3.44c2.5,0,3.87-1.34,3.87-3.64s-1.35-3.65-3.87-3.65h-3.44v0.16h0.81v7h-0.81v0.16Zm2.43-.16v-7h0.86c1.84,0,2.27,1,2.27,3.48s-0.44,3.47-2.27,3.47h-0.86Zm-7.7-7.12h-2.17v0.16h0.37l0.49,0.6v5.28c0,0.76,0,1.06-.91,1.08v0.16h2.05v-0.16c-0.85,0-.91-0.31-0.91-1.08v-5l4.72,6.2h0.54v-6c0-.76.05-1.06,0.91-1.08v-0.16h-2.05v0.16c0.87,0,.91.34,0.91,1.08v3.87Zm-2.45-1.78H302v0.2H303v8.65H302v0.2h4.14v-0.2H305v-8.65h1.06v-0.2Z" transform="translate(-267.8 -238.7)"/><path class="cls-3" d="M327.06,296.84l0.94-2.65,0.94,2.65h-1.88ZM327,297h2l0.78,2.17h-0.84v0.16h3.26v-0.16h-0.68l-2.8-7.3h-0.14l-2.2,6.19a1.2,1.2,0,0,1-1.17,1.1v0.16h1.93v-0.16c-0.5-.07-0.71-0.15-0.71-0.4a1.72,1.72,0,0,1,.12-0.57Z" transform="translate(-267.8 -238.7)"/><path class="cls-1" d="M334.67,292.05h-2.17v0.16h0.37l0.49,0.6v5.28c0,0.76,0,1.06-.91,1.08v0.16h2.05v-0.16c-0.85,0-.91-0.31-0.91-1.08v-5l4.72,6.2h0.53v-6c0-.76.05-1.06,0.91-1.08v-0.16H337.7v0.16c0.87,0,.91.34,0.91,1.08v3.87Z" transform="translate(-267.8 -238.7)"/></svg>