<svg xmlns="http://www.w3.org/2000/svg" xmlns:xlink="http://www.w3.org/1999/xlink" width="50" height="127" viewBox="0 0 50 127"><defs><style>.a{clip-path:url(#b);}</style><clipPath id="b"><rect width="50" height="127"/></clipPath></defs><g id="a" class="a"><path d="M20.279,16.145l-.02-.265c-.31-4.045-2.19-6.58-3.85-8.816-1.537-2.071-2.864-3.86-2.864-6.5a.566.566,0,0,0-.893-.46,14.371,14.371,0,0,0-5.3,7.667,25.042,25.042,0,0,0-.58,5.73c-2.3-.492-2.823-3.939-2.829-3.976A.561.561,0,0,0,3.14,9.1C3.02,9.156.177,10.6.012,16.375Q0,16.662,0,16.95a10.159,10.159,0,1,0,20.317,0c0-.281-.019-.544-.038-.806Zm-10.12,9.846a3.508,3.508,0,0,1-3.387-3.61c0-.069,0-.137.005-.221a4.563,4.563,0,0,1,.357-1.794A2.06,2.06,0,0,0,9,21.716a.564.564,0,0,0,.564-.564,11.313,11.313,0,0,1,.217-2.57,5.459,5.459,0,0,1,1.142-2.166,7.307,7.307,0,0,0,1.164,2.137,6.446,6.446,0,0,1,1.447,3.528c.007.1.014.194.014.3a3.508,3.508,0,0,1-3.386,3.61Zm3.567-.738a4.85,4.85,0,0,0,.948-2.873c0-.133-.008-.256-.025-.488a7.4,7.4,0,0,0-1.642-3.99,4.488,4.488,0,0,1-1.122-2.646.565.565,0,0,0-.9-.45,6.587,6.587,0,0,0-2.3,3.513,10.286,10.286,0,0,0-.238,2.005,2.692,2.692,0,0,1-.514-1.214.566.566,0,0,0-.816-.426c-.143.073-1.392.79-1.464,3.429-.005.089-.005.178-.005.267a4.841,4.841,0,0,0,.948,2.873,9.051,9.051,0,0,1-5.463-8.3c0-.169,0-.338.01-.526.1-3.387,1.18-5.066,1.887-5.807.493,1.765,1.783,4.073,4.311,4.073a.564.564,0,0,0,.564-.565A25.244,25.244,0,0,1,8.449,8.05a13.41,13.41,0,0,1,4.038-6.372c.315,2.42,1.632,4.2,3.016,6.06,1.645,2.216,3.346,4.509,3.63,8.221l.02.27c.018.236.036.47.036.722a9.052,9.052,0,0,1-5.463,8.3Z" transform="translate(15 9.998)"/><g transform="translate(11 47)"><path d="M13.77,0A13.77,13.77,0,1,0,27.54,13.77,13.785,13.785,0,0,0,13.77,0Zm0,26.622A12.852,12.852,0,1,1,26.622,13.77,12.866,12.866,0,0,1,13.77,26.622Z"/><path d="M14.229,11.944V7.288a.459.459,0,0,0-.918,0v4.656A1.834,1.834,0,0,0,12,13.255H8.721a.459.459,0,1,0,0,.918H12a1.832,1.832,0,1,0,2.23-2.229Zm-.459,2.688a.919.919,0,1,1,.876-.918.919.919,0,0,1-.876.918Zm0-10.1a.459.459,0,0,0,.459-.459V3.616a.459.459,0,0,0-.918,0v.46a.459.459,0,0,0,.459.458Zm0,18.36a.459.459,0,0,0-.459.46v.458a.459.459,0,0,0,.918,0v-.459a.459.459,0,0,0-.459-.459Zm10.1-9.639h-.459a.459.459,0,0,0,0,.918h.459a.459.459,0,0,0,0-.918Zm-19.737,0H3.672a.459.459,0,1,0,0,.918h.459a.459.459,0,0,0,0-.918ZM20.586,6.25l-.325.324a.459.459,0,1,0,.65.649l.324-.325a.459.459,0,0,0-.65-.649ZM6.63,20.206l-.325.324a.46.46,0,1,0,.65.65l.324-.325a.46.46,0,0,0-.65-.65Zm14.28,0a.459.459,0,1,0-.649.649l.325.324a.459.459,0,0,0,.649-.649ZM6.954,6.25A.459.459,0,1,0,6.3,6.9l.325.325a.459.459,0,1,0,.649-.65l-.325-.324Z"/></g><g transform="translate(14 85)"><path d="M14.025,0a.467.467,0,0,0-.468.468V6.682a.467.467,0,1,0,.935,0V.943A13.091,13.091,0,1,1,4.753,4.785a.467.467,0,1,0-.662-.66A14.025,14.025,0,1,0,14.025,0Z"/><path d="M13.35,15.676a1.665,1.665,0,1,0,2.325-2.327L9.624,8.97a.468.468,0,1,0-.653.653l4.378,6.052Zm1.776-1.57a.732.732,0,1,1-1.02,1.022l-2.67-3.692,3.69,2.67Z"/></g></g></svg>