<svg xmlns="http://www.w3.org/2000/svg" xmlns:xlink="http://www.w3.org/1999/xlink" width="13.452" height="12.327" viewBox="0 0 13.452 12.327"><defs><style>.a,.c{fill:#fff;}.a{stroke:#707070;}.b{clip-path:url(#a);}</style><clipPath id="a"><rect class="a" width="13.452" height="12.327"/></clipPath></defs><g class="b"><g transform="translate(1.283 0)"><path class="c" d="M11.338,2.779l.147-.2.144-.2.325-.446a.114.114,0,0,0-.036-.165.138.138,0,0,0-.181.033l-.348.478-.146.2-.149.2a4.729,4.729,0,0,0-3.1,0l-.148-.2-.146-.2L7.354,1.8a.138.138,0,0,0-.181-.033.113.113,0,0,0-.036.165l.324.446.145.2.147.2A2.733,2.733,0,0,0,5.9,5.166h7.29A2.733,2.733,0,0,0,11.338,2.779ZM7.983,4.212a.359.359,0,1,1,.39-.358A.375.375,0,0,1,7.983,4.212Zm3.124,0a.359.359,0,1,1,.391-.358A.375.375,0,0,1,11.107,4.212Z" transform="translate(-3.817 -1.747)"/><path class="c" d="M5.957,8.069H5.9v5.249a.793.793,0,0,0,.824.756h.6a.659.659,0,0,0-.031.2v1.511a.784.784,0,0,0,1.562,0V14.272a.678.678,0,0,0-.031-.2h1.45a.659.659,0,0,0-.031.2v1.511a.784.784,0,0,0,1.562,0V14.272a.66.66,0,0,0-.031-.2h.595a.793.793,0,0,0,.825-.756V8.069H5.957Z" transform="translate(-3.817 -4.172)"/><path class="c" d="M3.585,8.069a.75.75,0,0,0-.781.716v3.061a.751.751,0,0,0,.781.716.751.751,0,0,0,.781-.716V8.785A.75.75,0,0,0,3.585,8.069Z" transform="translate(-2.804 -4.172)"/><path class="c" d="M18.294,8.069a.75.75,0,0,0-.781.716v3.061a.784.784,0,0,0,1.562,0V8.785A.75.75,0,0,0,18.294,8.069Z" transform="translate(-7.619 -4.172)"/></g></g></svg>