<svg width="38px" height="17px" viewBox="0 0 38 17" version="1.1" xmlns="http://www.w3.org/2000/svg" xmlns:xlink="http://www.w3.org/1999/xlink">
    <g id="rev2" stroke="none" stroke-width="1" fill="none" fill-rule="evenodd">
        <g id="sidebar" transform="translate(-46.000000, -376.000000)" fill="#000000" fill-rule="nonzero">
            <g id="Group-13" transform="translate(35.000000, 364.000000)">
                <g id="Group-8">
                    <g id="Apple_Pay_Mark_RGB_041619-Copy-4" transform="translate(5.000000, 4.000000)">
                        <g id="Group" transform="translate(6.760059, 8.755541)">
                            <g id="Path">
                                <path d="M6.88234187,2.004877 C7.31022818,1.46968398 7.60058909,0.751077482 7.5240083,0.0167472366 C6.89764293,0.0478928094 6.1332842,0.429981601 5.69075802,0.965594276 C5.29341647,1.42426386 4.94173658,2.17295923 5.03341917,2.8765062 C5.73654648,2.93749609 6.43902467,2.52505275 6.88234187,2.004877"></path>
                                <path d="M7.51601962,3.0138746 C6.49490918,2.95305076 5.62671577,3.59340386 5.13908346,3.59340386 C4.65118244,3.59340386 3.90445858,3.04452503 3.09681426,3.05931888 C2.04561495,3.07475882 1.07022352,3.66911514 0.536784639,4.61442071 C-0.560408438,6.50549681 0.247235877,9.31062422 1.31419818,10.8507994 C1.83233903,11.612773 2.45678723,12.4517621 3.27959373,12.4216249 C4.05700727,12.3911194 4.36172124,11.9182357 5.30670074,11.9182357 C6.25098584,11.9182357 6.52546903,12.4216249 7.34840837,12.4063752 C8.201817,12.3911164 8.73534948,11.6440212 9.25348428,10.8813049 C9.8478889,10.0126948 10.0912175,9.17398041 10.1065215,9.12793835 C10.0912144,9.11268861 8.46090855,8.4872622 8.44579166,6.61190381 C8.43040002,5.04163979 9.7257642,4.29473478 9.78672994,4.24841495 C9.05522562,3.16651689 7.91226522,3.04452503 7.51601962,3.0138746"></path>
                            </g>
                            <g transform="translate(12.076608, 0.839679)">
                                <path d="M4.33044886,0.0490985167 C6.54981548,0.0490985167 8.09524093,1.57893005 8.09524093,3.80624609 C8.09524093,6.04151458 6.51801475,7.57929252 4.27479683,7.57929252 L1.8175331,7.57929252 L1.8175331,11.4870354 L0.0421599724,11.4870354 L0.0421599724,0.0490985167 L4.33044886,0.0490985167 L4.33044886,0.0490985167 Z M1.81753008,6.08906321 L3.85464861,6.08906321 C5.40037899,6.08906321 6.28011462,5.25687621 6.28011462,3.81419552 C6.28011462,2.37166881 5.40037899,1.54728028 3.86259803,1.54728028 L1.81753008,1.54728028 L1.81753008,6.08906321 L1.81753008,6.08906321 Z" id="Shape"></path>
                                <path d="M8.55910949,9.11707348 C8.55910949,7.65849092 9.67674525,6.76285644 11.6585197,6.65185731 L13.9411828,6.51716086 L13.9411828,5.87517138 C13.9411828,4.94773315 13.3149413,4.3928915 12.2688594,4.3928915 C11.2778197,4.3928915 10.6595276,4.86838379 10.5090832,5.61357393 L8.89210385,5.61357393 C8.98720412,4.10744274 10.2711831,2.99775943 12.3321559,2.99775943 C14.3533756,2.99775943 15.645304,4.06784354 15.645304,5.74032095 L15.645304,11.4870384 L14.0044794,11.4870384 L14.0044794,10.1157577 L13.9650341,10.1157577 C13.4815924,11.0431959 12.4272562,11.6296843 11.3334717,11.6296843 C9.70059353,11.6296843 8.55910949,10.6150982 8.55910949,9.11707348 Z M13.9411828,8.36408488 L13.9411828,7.70619654 L11.8881594,7.83294357 C10.8656239,7.90434349 10.287085,8.35613545 10.287085,9.06952486 C10.287085,9.79866216 10.8894752,10.2743054 11.808964,10.2743054 C13.0057952,10.2743054 13.9411828,9.44991688 13.9411828,8.36408488 Z" id="Shape"></path>
                                <path d="M17.1943977,14.5546449 L17.1943977,13.1674653 C17.3209907,13.199115 17.6062855,13.199115 17.7490854,13.199115 C18.5416732,13.199115 18.9697678,12.8662686 19.2312113,12.0102333 C19.2312113,11.9943315 19.3819606,11.5029403 19.3819606,11.4949909 L16.3700061,3.14835776 L18.2245747,3.14835776 L20.3332471,9.93351259 L20.3647429,9.93351259 L22.4734183,3.14835776 L24.2805922,3.14835776 L21.1573307,11.9229315 C20.4442492,13.9443052 19.6198577,14.5942441 17.8918852,14.5942441 C17.7490884,14.5942441 17.3209938,14.5783422 17.1943977,14.5546449 Z" id="Path"></path>
                            </g>
                        </g>
                    </g>
                </g>
            </g>
        </g>
    </g>
</svg>
