<?xml version="1.0" encoding="UTF-8"?>
<svg width="18px" height="20px" viewBox="0 0 18 20" version="1.1" xmlns="http://www.w3.org/2000/svg" xmlns:xlink="http://www.w3.org/1999/xlink">
    <!-- Generator: Sketch 52.2 (67145) - http://www.bohemiancoding.com/sketch -->
    <title>noti</title>
    <desc>Created with Sketch.</desc>
    <g id="Page-1" stroke="none" stroke-width="1" fill="none" fill-rule="evenodd">
        <g id="Artboard" transform="translate(-1104.000000, -58.000000)" fill="#393939" fill-rule="nonzero" stroke="#393939" stroke-width="0.8">
            <g id="noti" transform="translate(1105.000000, 59.000000)">
                <path d="M14.6983366,13.9063584 C14.3116131,13.197885 14.1095163,12.4171843 14.1077938,11.6253832 L14.1077938,7.50024721 C14.1119769,4.81437118 12.0594306,2.49244465 9.18660395,1.93326372 L9.18660395,1.20003955 C9.18660395,0.537280209 8.59905489,0 7.87428665,0 C7.14951841,0 6.56196935,0.537280209 6.56196935,1.20003955 L6.56196935,1.9356638 C3.68701021,2.49008207 1.63229041,4.81347115 1.64077946,7.50024721 L1.64077946,11.6253832 C1.63950815,12.4167343 1.43806744,13.197135 1.05220515,13.9054583 L0.035159237,15.7655196 C-0.0463684755,15.9134995 0.0187142608,16.0938805 0.180498378,16.1684329 C0.226388474,16.1895836 0.27707673,16.2005715 0.328462154,16.200534 L5.60397771,16.200534 C5.78405225,17.3470968 6.94647832,18.143098 8.20035649,17.9784301 C9.20813416,17.8460882 9.99987159,17.1220894 10.1445956,16.200534 L15.4201111,16.200534 C15.601293,16.201434 15.7490107,16.0678546 15.7499949,15.9021741 C15.750282,15.8550726 15.7384301,15.8085711 15.7153825,15.7664197 L14.6983366,13.9063584 Z M0.859294504,15.6005142 L1.64077946,14.1745672 C2.07175266,13.3825411 2.29632296,12.5100373 2.29693811,11.6253832 L2.29693811,7.50024721 C2.28762886,5.00829008 4.25758117,2.87855738 6.94647832,2.47358153 C7.4067326,2.40052912 7.87539392,2.38207851 8.34081545,2.41867972 C8.49677616,2.43109263 8.6516296,2.44958074 8.80537578,2.47418155 C11.4893107,2.88598262 13.4543418,5.01166519 13.4516352,7.50024721 L13.4516352,11.6253832 C13.4525784,12.5104499 13.6777639,13.3832911 14.1094342,14.1754672 L14.8892788,15.6005142 L0.859294504,15.6005142 Z" id="Shape"></path>
            </g>
        </g>
    </g>
</svg>