<?xml version="1.0" encoding="UTF-8"?>
<!DOCTYPE svg PUBLIC "-//W3C//DTD SVG 1.1//EN" "http://www.w3.org/Graphics/SVG/1.1/DTD/svg11.dtd">
<!-- Creator: CorelDRAW 2017 -->
<svg xmlns="http://www.w3.org/2000/svg" xml:space="preserve" width="1.94764in" height="1.58205in" version="1.1" style="shape-rendering:geometricPrecision; text-rendering:geometricPrecision; image-rendering:optimizeQuality; fill-rule:evenodd; clip-rule:evenodd"
viewBox="0 0 2753.98 2237.02"
 xmlns:xlink="http://www.w3.org/1999/xlink">
 <defs>
  <style type="text/css">
   <![CDATA[
    .fil0 {fill:white}
   ]]>
  </style>
 </defs>
 <g id="Layer_x0020_1">
  <metadata id="CorelCorpID_0Corel-Layer"/>
  <path class="fil0" d="M2753.98 264.68c-101.36,44.91 -210.12,75.38 -324.39,88.97 116.68,-69.87 205.99,-180.69 248.32,-312.34 -109.45,64.7 -230.26,111.69 -358.98,137.16 -103.08,-109.96 -249.71,-178.46 -412.33,-178.46 -312,0 -564.98,252.98 -564.98,564.81 0,44.22 4.99,87.42 14.63,128.72 -469.46,-23.58 -885.75,-248.5 -1164.36,-590.27 -48.71,83.29 -76.41,180.35 -76.41,283.95 0,196.01 99.82,368.96 251.26,470.15 -92.59,-3.1 -179.67,-28.57 -255.9,-70.9l0 7.05c0,273.63 194.8,501.99 453.12,553.97 -47.32,12.73 -97.23,19.79 -148.86,19.79 -36.48,0 -71.76,-3.61 -106.35,-10.5 71.93,224.58 280.51,387.89 527.63,392.37 -193.26,151.44 -436.94,241.44 -701.61,241.44 -45.6,0 -90.52,-2.75 -134.75,-7.74 250.05,160.57 546.91,254.18 865.97,254.18 1039.25,0 1607.33,-860.8 1607.33,-1607.33l-1.9 -73.13c111,-79.17 207.02,-178.64 282.57,-291.88z"/>
 </g>
</svg>
