<?xml version="1.0" encoding="UTF-8" standalone="no"?>
<svg width="190px" height="610px" viewBox="0 0 190 610" version="1.1" xmlns="http://www.w3.org/2000/svg" xmlns:xlink="http://www.w3.org/1999/xlink">
    <!-- Generator: Sketch 50.2 (55047) - http://www.bohemiancoding.com/sketch -->
    <title>Mobile</title>
    <desc>Created with Sketch.</desc>
    <defs></defs>
    <g id="Mobile" stroke="none" stroke-width="1" fill="none" fill-rule="evenodd">
        <g id="white" transform="translate(21.000000, 19.000000)" fill="#FFFFFF" fill-rule="nonzero">
            <g id="pint" transform="translate(1.000000, 0.000000)">
                <path d="M45.5700935,23 C45.5700935,10.2974508 35.3688806,7.77806814e-16 22.7850467,0 C10.2012129,-7.77806814e-16 1.54107518e-15,10.2974508 0,23 C-1.54107518e-15,35.7025492 10.2012129,46 22.7850467,46 C28.8280168,46 34.6234826,43.5767927 38.8965078,39.263456 C43.1695329,34.9501193 45.5700935,29.0999793 45.5700935,23 Z M2.07126925,23 C2.07126925,11.452173 11.3451433,2.09080952 22.7850467,2.09080952 C34.2249501,2.09080952 43.4988242,11.452173 43.4988242,23 C43.4988242,34.547827 34.2249501,43.9091905 22.7850467,43.9091905 C17.2914114,43.9091905 12.022781,41.7062642 8.13819421,37.7850304 C4.2536074,33.8637965 2.07126925,28.5454621 2.07126925,23 Z" id="Path_7"></path>
                <path d="M28.7659959,15.2305805 C26.0104509,12.237814 21.3587758,12.4397395 18.2666882,14.7479292 C15.6301643,16.7179345 13.7676884,21.0880631 15.9831236,24.063592 C16.4388536,24.6564285 17.0984764,25.05893 17.8341078,25.1930618 C18.0161329,25.238275 18.2016529,25.1328823 18.2560173,24.9533778 C18.4258155,24.5725898 18.5407815,24.1696559 18.5974849,23.7565995 C18.6016756,23.6874659 18.5765588,23.6197637 18.5282922,23.5700912 C18.4800255,23.5204188 18.4130721,23.4933691 18.3438467,23.4955738 C16.3352621,21.2916303 17.6994908,18.5500395 19.6571836,16.8541932 C21.3883258,15.3553475 24.5666012,13.9508978 26.6014525,15.6779359 C28.0059022,16.8697891 28.1126108,19.0975368 28.0453023,20.7794289 C27.9632187,22.8897972 27.2244667,25.1134407 25.0279107,25.7865259 C24.3107145,26.0677763 23.4941202,25.8665054 22.989776,25.2841745 C22.5638641,24.5630225 22.5030212,23.6832336 22.8256089,22.910318 C23.1416306,21.6921981 23.8926952,19.9676225 23.1810307,18.7618151 C22.3224367,17.3015486 20.5921153,18.6296606 20.0922265,19.6122007 C19.7876965,20.2105899 19.2393783,22.1272409 20.0487222,22.6189214 C19.2070264,24.8329554 18.5931534,27.1270031 18.2166172,29.4655109 C17.9840382,30.5146147 17.9357095,31.5961781 18.0737918,32.6618446 C18.1740716,33.0606591 18.3269958,33.4443495 18.5285347,33.802806 C18.4940596,33.9998066 18.7846354,34.0703984 18.9003732,33.9160813 C19.750353,32.918545 20.4383881,31.7937019 20.9393288,30.5826681 C21.1387017,29.8938284 21.2914492,29.1923415 21.3965342,28.4829707 C21.4933928,27.9970361 21.6928558,27.4437929 21.7437476,26.9233831 L21.7527768,26.9233831 C22.466637,27.4691437 23.2906418,27.8531378 24.1676751,28.0487487 C25.5162264,28.2278389 26.8825749,27.8896977 27.991948,27.1023253 C28.1595732,26.9850174 28.3176658,26.8546459 28.4647493,26.7124284 C28.9701138,26.3745048 29.4096113,25.9472465 29.7616695,25.451625 C31.9245712,22.4342334 31.1907442,17.8654626 28.7659959,15.2305805 Z M17.888283,23.993821 C17.9049171,24.0107468 17.9230495,24.0261319 17.9424581,24.0397878 C17.9309664,24.0660545 17.9178331,24.0915004 17.9063414,24.1161255 C17.8800746,24.0824712 17.852987,24.0496378 17.8242578,24.0168044 C17.8304524,23.9853677 17.8304524,23.9530242 17.8242578,23.9215875 L17.888283,23.993821 Z M16.5470377,18.0189589 C16.3468527,18.365249 16.174747,18.7270279 16.0323738,19.1008202 C16.1452153,18.7001784 16.2961152,18.311247 16.4830125,17.9393378 C16.510992,17.951298 16.5405903,17.9590434 16.5708419,17.9623212 L16.5470377,18.0189589 Z M28.8316628,16.5233965 C28.8007393,16.4835292 28.7625909,16.449836 28.7192083,16.4240754 C28.7091792,16.4117436 28.6984929,16.3999612 28.6871957,16.3887795 C28.6740623,16.3436335 28.6576456,16.3009501 28.6428706,16.2574458 C28.7651751,16.4142254 28.8833754,16.5751091 28.9925465,16.7425596 C28.9424756,16.6686844 28.8874796,16.59563 28.8316628,16.5233965 Z" id="pint-4"></path>
            </g>
            <g id="facebook" transform="translate(1.000000, 59.000000)">
                <path d="M45.5700935,23 C45.5700935,10.2974508 35.3688806,7.77806814e-16 22.7850467,0 C10.2012129,-7.77806814e-16 1.54107518e-15,10.2974508 0,23 C-1.54107518e-15,35.7025492 10.2012129,46 22.7850467,46 C28.8280168,46 34.6234826,43.5767927 38.8965078,39.263456 C43.1695329,34.9501193 45.5700935,29.0999793 45.5700935,23 Z M2.07126925,23 C2.07126925,11.452173 11.3451433,2.09080952 22.7850467,2.09080952 C34.2249501,2.09080952 43.4988242,11.452173 43.4988242,23 C43.4988242,34.547827 34.2249501,43.9091905 22.7850467,43.9091905 C17.2914114,43.9091905 12.022781,41.7062642 8.13819421,37.7850304 C4.2536074,33.8637965 2.07126925,28.5454621 2.07126925,23 Z" id="Path_7"></path>
                <path d="M22.9403389,33.7607619 L22.9403389,23.7471306 L26.2140114,23.7471306 L26.7312516,20.4285301 L22.9403389,20.4285301 L22.9403389,18.7646861 C22.9403389,17.8988924 23.2218748,17.0727533 24.4527756,17.0727533 L26.9137589,17.0727533 L26.9137589,13.7607619 L23.4199319,13.7607619 C20.4826293,13.7607619 19.681398,15.7129285 19.681398,18.4193599 L19.681398,20.4268778 L17.6656342,20.4268778 L17.6656342,23.7471306 L19.681398,23.7471306 L19.681398,33.7607619 L22.9403389,33.7607619 Z" id="Path_8"></path>
            </g>
            <g id="twitter" transform="translate(0.000000, 121.000000)">
                <path d="M45.5700935,23 C45.5700935,10.2974508 35.3688806,7.77806814e-16 22.7850467,0 C10.2012129,-7.77806814e-16 1.54107518e-15,10.2974508 0,23 C-1.54107518e-15,35.7025492 10.2012129,46 22.7850467,46 C28.8280168,46 34.6234826,43.5767927 38.8965078,39.263456 C43.1695329,34.9501193 45.5700935,29.0999793 45.5700935,23 Z M2.07126925,23 C2.07126925,11.452173 11.3451433,2.09080952 22.7850467,2.09080952 C34.2249501,2.09080952 43.4988242,11.452173 43.4988242,23 C43.4988242,34.547827 34.2249501,43.9091905 22.7850467,43.9091905 C17.2914114,43.9091905 12.022781,41.7062642 8.13819421,37.7850304 C4.2536074,33.8637965 2.07126925,28.5454621 2.07126925,23 Z" id="Path_13"></path>
                <g id="Path_18" transform="translate(9.680018, 14.379381)">
                    <path d="M9.18195536,17.7191429 L9.18113294,17.7191429 C7.08991145,17.7191429 5.01866175,17.1350937 3.19131084,16.0301247 L1.90496612,15.2525635 L1.42831283,14.9644432 L1.98381229,14.973896 L3.48275133,14.9993935 L3.48522802,14.9994354 L3.48924999,14.9996452 C3.53812888,15.0021248 3.61200202,15.0058632 3.73006816,15.0058632 C4.21532398,15.0058632 5.86793051,14.9326248 7.61032764,14.0329704 C6.29077882,13.5284691 5.2557683,12.4549255 4.80582943,11.1040955 L4.56967732,10.3953857 L4.48212321,10.1326447 L4.74790586,10.2023964 L4.78759411,10.2128105 C3.97752138,9.39011383 3.48913426,8.29527283 3.42614536,7.12643433 L3.39082852,6.47071457 L3.37774204,6.22777557 L3.59864794,6.32509613 L4.09228392,6.54256821 C3.5539978,5.60888672 2.91802329,3.8443718 4.04619585,1.7710762 L4.34047961,1.22990417 L4.44960995,1.0292244 L4.58831156,1.21034622 L4.96242222,1.6988945 C6.68007629,3.94051743 9.24793325,5.35162354 12.029542,5.58919144 C12.0211204,5.48756027 12.0147603,5.39391327 12.0147603,5.35100555 C12.0147603,3.1061058 13.7070454,0.784076691 16.5390095,0.784076691 C17.6896496,0.784076691 18.8204478,1.24134445 19.655086,2.04138947 C20.6842109,1.77971649 21.6401678,1.19490051 21.6813461,1.16952515 L22.6280066,0.581245422 L22.979233,0.362995148 L22.8466131,0.757213593 L22.4889075,1.82053375 C22.3668688,2.18260956 22.2015961,2.52497101 21.9955077,2.84326935 C22.0185523,2.83346558 22.0416914,2.82345963 22.0649174,2.81325912 L23.1996629,2.25362396 L23.5767757,2.06763458 L23.3996065,2.45171356 L22.9216063,3.48795319 C22.5305469,4.33644867 21.8754549,5.05613708 21.0708715,5.52366257 C21.2208373,8.36454391 20.0401915,11.5486526 17.9758537,13.8566666 C16.4146722,15.6026955 13.6344404,17.6900063 9.25521405,17.7183266 L9.18278722,17.7191353 L9.18195536,17.7191429 Z M5.5089417,15.9320908 C6.69365818,16.3816261 7.92642168,16.6091957 9.18069693,16.6091957 L9.2484779,16.6088257 C13.227064,16.5832863 15.7468128,14.6938553 17.1600106,13.1133156 C19.1317297,10.908493 20.2005459,7.89671326 19.9493848,5.25328445 L19.9224894,4.96825409 L19.9125335,4.8627739 L20.0076955,4.8180542 L20.2643154,4.69744492 C20.4865441,4.59289169 20.6953987,4.46569443 20.8891107,4.31712341 C20.7038241,4.35034943 20.5073988,4.37944794 20.2935293,4.40555573 L19.9860397,4.44320297 L19.8720448,4.45716476 L19.8299122,4.34933472 L19.5901355,3.73570633 L19.5491121,3.63070297 L19.6376967,3.5618248 L19.916783,3.34484482 L19.9242429,3.33905411 L19.9323565,3.33425522 C20.1183649,3.22428131 20.2923352,3.09828186 20.4530995,2.95728302 C20.1458404,3.06281281 19.8528246,3.14198685 19.5771375,3.19382477 L19.3573898,3.23514557 L19.2759986,3.25045395 L19.2202841,3.18864441 L19.0699121,3.02186584 C18.4222327,2.30449295 17.4998253,1.893013 16.539257,1.893013 C14.3953428,1.893013 13.1142085,3.65089417 13.1142085,5.35038376 C13.1142085,5.43965912 13.1609024,5.88447189 13.1823003,6.03516388 L13.3596037,6.54406357 L13.4308113,6.7484436 L13.2162361,6.74380493 L12.6372287,6.73126602 C11.0739366,6.69722366 9.56907326,6.34276581 8.16444442,5.67774582 C6.84009621,5.05072784 5.66905539,4.17822266 4.68001318,3.08206177 C4.0865785,5.02946091 5.34342398,6.56450653 5.90155245,7.00600433 L6.84192101,7.75043488 L7.19033393,8.02623367 L6.74763051,8.01844406 L5.55305025,7.99740601 C5.25338514,7.9922142 4.9561294,7.95867538 4.66637744,7.89750671 C5.03836782,9.16460419 6.07445537,10.1431351 7.36479831,10.4228554 L8.94675415,10.7661133 L8.95577899,11.0571556 L7.3983123,11.4995956 C7.11399437,11.580143 6.79248731,11.6209755 6.44262797,11.6209755 C6.38753798,11.6209755 6.33155898,11.6199493 6.27491297,11.6179047 C6.90851347,12.5609703 7.96194235,13.1690102 9.08680276,13.2244034 L10.2144153,13.2802734 L10.6321047,13.3009758 L10.2951338,13.5509644 L9.38581221,14.225563 C8.01106239,15.246254 6.59094749,15.7169914 5.5089417,15.9320908 Z" id="Shape"></path>
                    <path d="M9.18113294,17.5691452 L9.25426315,17.568325 C13.5789348,17.5403633 16.3241263,15.4800949 17.8655547,13.7561455 C19.9422538,11.4343147 21.0967221,8.27262497 20.9170965,5.43880463 C21.734317,4.98709488 22.3923188,4.28075409 22.7868966,3.42463303 L23.2648967,2.3883934 L22.1272792,2.94944382 C21.9424045,3.03075409 21.7627676,3.09996414 21.5798939,3.16030502 C21.9151312,2.75066376 22.1765655,2.28151321 22.348206,1.77230453 L22.7059116,0.708984375 L21.7587864,1.29754639 C21.7475418,1.30447388 20.7033328,1.94764328 19.6106312,2.20669556 C18.7954022,1.39510345 17.6886632,0.934074402 16.5390095,0.934074402 C13.8001875,0.934074402 12.163359,3.17976379 12.163359,5.35100555 C12.163359,5.40322495 12.1757722,5.57037354 12.1934251,5.75214386 C9.29506834,5.55626297 6.63729135,4.12985611 4.84485138,1.79063416 L4.47074072,1.30208588 L4.17643713,1.84328461 C3.10775897,3.80725479 3.62026408,5.65621567 4.46712488,6.8527565 C4.35481424,6.81597519 4.24419778,6.7734642 4.13550321,6.72527313 L3.53920874,6.46257401 L3.57452558,7.11828613 C3.6483392,8.48801422 4.32280643,9.71692657 5.35374054,10.5163536 L4.71051858,10.3475647 L4.94668061,11.0562935 C5.42343299,12.4876251 6.58114134,13.5809364 7.98218387,14.0014648 C6.11836694,15.0631561 4.30065531,15.1558647 3.73006816,15.1558647 C3.60696951,15.1558647 3.52878708,15.1518364 3.480245,15.1493759 L1.98130593,15.1238747 L3.26767048,15.9014435 C5.07178049,16.9923553 7.11684755,17.5691452 9.18113294,17.5691452 Z M5.99632832,11.4494934 C6.13508921,11.4624748 6.28546076,11.470974 6.44262797,11.470974 C6.77861822,11.470974 7.08659298,11.4321136 7.35806168,11.3552055 L8.91552884,10.9127655 L7.33360275,10.5695152 C5.88844601,10.2562332 4.77609991,9.11475372 4.46051722,7.69400406 C4.81540907,7.78954315 5.18153508,7.8409462 5.55564575,7.84742355 L6.75022624,7.86846542 L5.80989712,7.12407303 C5.16674461,6.61531448 3.82016817,4.91687393 4.62217205,2.79097366 C6.64920904,5.14070511 9.53671848,6.51371384 12.6404182,6.58129501 L13.2194256,6.59383392 L13.0373635,6.0712738 C13.0185212,5.94581604 12.9656107,5.45763397 12.9656107,5.35038376 C12.9656107,3.57705307 14.3025181,1.74301529 16.539257,1.74301529 C17.5417292,1.74301529 18.5037146,2.17205429 19.1798067,2.92090607 L19.3301768,3.08768463 L19.5499246,3.04636383 C20.0643604,2.94963455 20.5788567,2.76628494 21.0147357,2.57885361 C20.739264,2.93142319 20.3984092,3.23254395 20.0074574,3.46368408 L19.7283711,3.68066406 L19.9681478,4.29429626 L20.2756866,4.25663376 C20.6967743,4.20523453 21.062089,4.14005661 21.4045084,4.05263519 C21.0985247,4.37604523 20.7340244,4.64195633 20.3270325,4.83342361 L20.0704145,4.9540329 L20.0973005,5.23896408 C20.3523634,7.92338562 19.2688467,10.979023 17.27032,13.2138138 C15.8371405,14.8167038 13.2816287,16.732933 9.24927008,16.7588234 L9.18069693,16.7591934 C7.73710613,16.7591934 6.30317362,16.4551849 4.96627591,15.8727264 C6.1223595,15.7075844 7.73915673,15.2619247 9.2978124,14.1046944 L10.207134,13.4300957 L9.07956116,13.3742256 C7.78914501,13.3106766 6.62269903,12.5626335 5.99632832,11.4494934 Z M9.18278722,17.8691444 L9.18113294,17.8691444 C7.06302496,17.8691444 4.96537437,17.2777138 3.1149512,16.1588058 L1.8286164,15.3812561 L0.875329653,14.8050156 L1.98631865,14.8239136 L3.48525767,14.8494148 L3.49020113,14.8495064 L3.49514448,14.8497543 C3.54410261,14.8522339 3.61572686,14.8558655 3.73006816,14.8558655 C4.17942139,14.8558655 5.64818797,14.7918053 7.24994979,14.0433273 C6.03653453,13.4813805 5.09356504,12.4386139 4.66497825,11.1519051 L4.42882614,10.443203 L4.25372806,9.91772461 L4.34807596,9.94248199 C3.71296785,9.14914322 3.33356287,8.16996765 3.27776514,7.13458633 L3.24244842,6.47886658 L3.21628514,5.99298477 L3.65808725,6.18762589 L3.76084175,6.2328949 C3.5563486,5.80143356 3.37916331,5.27598572 3.30831695,4.67102432 C3.18966636,3.65786362 3.39409775,2.65788651 3.91594466,1.69885635 L4.21021849,1.15772629 L4.42847941,0.756355286 L4.7058824,1.1186142 L5.07999307,1.60716629 C6.73641241,3.76886749 9.19530389,5.146595 11.8686557,5.42334366 C11.8670742,5.39402771 11.8661625,5.3691864 11.8661625,5.35100555 C11.8661625,3.03237534 13.6140336,0.634075165 16.5390095,0.634075165 C17.6997528,0.634075165 18.840917,1.08456039 19.6966442,1.87542343 C20.6765696,1.60897827 21.5942769,1.04743576 21.6039173,1.04149628 L22.550111,0.453514099 L23.2525638,0.0169944763 L22.9873258,0.805446625 L22.6296202,1.86876297 C22.5565203,2.08563995 22.4684194,2.29563904 22.3657937,2.4979248 L23.1344384,2.11884308 L23.8886528,1.74688339 L23.5343163,2.51503372 L23.0563142,3.55127335 C22.6652566,4.39974594 22.0185901,5.12350845 21.2236432,5.60690689 C21.2830404,6.98733521 21.0396112,8.4650116 20.5161888,9.89354324 C19.9693382,11.385994 19.1290447,12.7911835 18.0861433,13.9571838 C16.5049706,15.7255859 13.6895115,17.839653 9.25616495,17.8683167 L9.18443205,17.8691254 L9.18278722,17.8691444 Z M6.04990716,15.9634514 C7.0667681,16.2928009 8.11583691,16.4591942 9.18069693,16.4591942 L9.24768525,16.4588242 C13.1719835,16.4336357 15.6565248,14.5709648 17.0497012,13.0128136 C18.9943652,10.8382454 20.0487775,7.87046432 19.8014617,5.26760483 L19.7745548,4.98248291 L19.7546525,4.77151489 L19.9449671,4.68206406 L20.1830149,4.5701828 L20.003941,4.59211349 L19.7759512,4.62003326 L19.691686,4.40437317 L19.4519094,3.79074478 L19.3698436,3.58073425 L19.5470223,3.44298553 L19.7029249,3.32177734 C19.6698356,3.32865143 19.6369825,3.3351593 19.6043504,3.34129333 L19.3846046,3.38261414 L19.2218297,3.41321564 L19.11038,3.28961563 L18.9600099,3.12283325 C18.3404939,2.43664551 17.4581178,2.04301453 16.539257,2.04301453 C14.9287004,2.04301453 13.2628062,3.28013611 13.2628062,5.35038376 C13.2628062,5.42395782 13.3053545,5.83786774 13.3273769,5.99943924 L13.4997912,6.49430466 L13.6421979,6.90306473 L13.2130457,6.8937645 L12.6340382,6.88122559 C11.0498735,6.84673309 9.52486031,6.4875145 8.10134947,5.81355667 C6.84047506,5.21659088 5.71679442,4.40013504 4.75434701,3.38246155 C4.36350628,5.12688446 5.48292628,6.48428345 5.99320777,6.88794327 L6.9336257,7.63239288 L7.63043216,8.18401337 L6.74504517,8.16841507 L5.55046467,8.1473732 C5.32744121,8.14351654 5.10569199,8.12442398 4.88716796,8.09037399 C5.29692282,9.19001389 6.24006497,10.0256157 7.39600378,10.2762032 L8.97798938,10.6194649 L8.99603905,11.2015457 L7.43857237,11.6439857 C7.17639539,11.7182579 6.88505174,11.7602501 6.57081793,11.7691727 C7.18719638,12.5386391 8.11226477,13.0262299 9.09404483,13.074585 L10.221706,13.130455 L11.0570858,13.1718445 L10.3831336,13.671833 L9.47381201,14.3464355 C8.28563653,15.2285957 7.06443407,15.7061615 6.04990716,15.9634514 Z" id="Shape"></path>
                </g>
            </g>
            <g id="mail" transform="translate(1.000000, 184.000000)">
                <path d="M45.5700935,23 C45.5700935,10.2974508 35.3688806,7.77806814e-16 22.7850467,0 C10.2012129,-7.77806814e-16 1.54107518e-15,10.2974508 0,23 C-1.54107518e-15,35.7025492 10.2012129,46 22.7850467,46 C28.8280168,46 34.6234826,43.5767927 38.8965078,39.263456 C43.1695329,34.9501193 45.5700935,29.0999793 45.5700935,23 Z M2.07126925,23 C2.07126925,11.452173 11.3451433,2.09080952 22.7850467,2.09080952 C34.2249501,2.09080952 43.4988242,11.452173 43.4988242,23 C43.4988242,34.547827 34.2249501,43.9091905 22.7850467,43.9091905 C17.2914114,43.9091905 12.022781,41.7062642 8.13819421,37.7850304 C4.2536074,33.8637965 2.07126925,28.5454621 2.07126925,23 Z" id="Path_11-2"></path>
                <path d="M33.4755737,17.5413333 C33.4737812,16.926668 32.9799645,16.429172 32.3710414,16.4285714 L13.0395567,16.4548571 C12.74634,16.4545655 12.4650655,16.5720902 12.2578316,16.7814846 C12.0505978,16.9908789 11.9344477,17.2749223 11.9350245,17.5709048 L11.9502145,28.5364286 C11.9505021,28.8318419 12.0670338,29.1150405 12.2741738,29.3237239 C12.4813138,29.5324072 12.7620943,29.6494811 13.0547468,29.6491905 L32.3862314,29.6229048 C32.9955754,29.6210939 33.4885963,29.1219523 33.4885937,28.5068571 L33.4755737,17.5413333 Z M31.1590939,17.5413333 L22.7145216,23.4676667 L14.2515042,17.5654286 L31.1590939,17.5413333 Z M26.2841789,24.5935714 L31.2925492,28.5145238 L14.116964,28.538619 L19.1557143,24.5957619 C19.367151,24.3991514 19.393807,24.0716885 19.2170006,23.8428752 C19.0401942,23.6140619 18.7190637,23.5604317 18.4786729,23.7195714 L13.0536618,27.968 L13.0406417,18.0889524 L22.4009559,24.6187619 C22.5902074,24.751202 22.8410058,24.751202 23.0302572,24.6187619 L32.3721264,18.0626667 L32.3862314,27.9669048 L26.9612203,23.7206667 C26.7208295,23.561527 26.399699,23.6151571 26.2228926,23.8439704 C26.0460861,24.0727838 26.0727422,24.4002466 26.2841789,24.5968571 L26.2841789,24.5935714 Z" id="Path_19"></path>
            </g>
            <g id="g+" transform="translate(1.000000, 246.000000)">
                <path d="M45.5700935,23 C45.5700935,10.2974508 35.3688806,7.77806814e-16 22.7850467,0 C10.2012129,-7.77806814e-16 1.54107518e-15,10.2974508 0,23 C-1.54107518e-15,35.7025492 10.2012129,46 22.7850467,46 C28.8280168,46 34.6234826,43.5767927 38.8965078,39.263456 C43.1695329,34.9501193 45.5700935,29.0999793 45.5700935,23 Z M2.07126925,23 C2.07126925,11.452173 11.3451433,2.09080952 22.7850467,2.09080952 C34.2249501,2.09080952 43.4988242,11.452173 43.4988242,23 C43.4988242,34.547827 34.2249501,43.9091905 22.7850467,43.9091905 C17.2914114,43.9091905 12.022781,41.7062642 8.13819421,37.7850304 C4.2536074,33.8637965 2.07126925,28.5454621 2.07126925,23 Z" id="Path_11-2"></path>
                <path d="M14.9011974,18.5558737 C14.7723958,19.9834022 15.4141465,21.3713746 16.5851528,22.1979167 C17.3490891,22.653588 18.2245801,22.88811 19.1140022,22.8753317 C19.248152,22.8753317 19.3556385,22.8694991 19.4306291,22.865333 C19.361487,23.6778379 19.5993172,24.486758 20.0972122,25.1325485 L20.0588836,25.1325485 C18.5949007,25.1325485 13.818,25.4383435 13.818,29.3653508 C13.818,33.364849 18.2049496,33.5639906 19.0848392,33.5639906 C19.1539972,33.5639906 19.1939922,33.5639906 19.1939922,33.5639906 C19.1939922,33.5639906 19.2664831,33.5639906 19.3739696,33.5639906 C20.5400607,33.5657586 21.6929063,33.3168326 22.7543788,32.8340822 C24.4689483,32.0549842 25.5237748,30.2974925 25.4048796,28.4179696 C25.4048796,26.4132212 24.0458834,25.2200375 23.0535079,24.3468138 C22.5169223,24.0190485 22.1161742,23.5091668 21.9244829,22.9103273 C22.0314527,22.3991144 22.3446946,21.954727 22.7902076,21.6821481 C23.82666,20.7892972 24.3886974,19.4650447 24.3108502,18.0992643 C24.3108502,16.4436387 24.0958771,15.3312783 22.7727098,14.6271999 C23.0564685,14.5488529 23.346815,14.4966966 23.640101,14.4713862 C24.3566777,14.3738984 25.4048796,14.263079 25.4048796,13.6764859 L25.4048796,13.564 L20.180535,13.564 C20.1355407,13.5723323 14.9011974,13.7656414 14.9011974,18.5558737 Z M23.334306,28.7945891 C23.4342935,30.3927219 22.0677983,31.5717406 20.0155557,31.7208886 C17.9324838,31.8733694 16.2151992,30.9351538 16.116045,29.3395207 C16.0879325,28.5251622 16.4379732,27.7435689 17.0642594,27.2222863 C17.7871791,26.5948932 18.6975078,26.2245503 19.6531012,26.1690851 C19.7714197,26.1607528 19.8880717,26.1565867 20.0047238,26.1565867 C21.9336484,26.1565867 23.2401512,27.2897779 23.334306,28.7945891 Z M21.9703105,17.4626775 C22.4827462,19.2657846 21.7086766,21.1497149 20.475498,21.4971713 C20.3335726,21.5380986 20.1865949,21.558855 20.0388861,21.5588302 C18.9090279,21.5588302 17.7891684,20.4148071 17.372554,18.8408379 C17.1390965,18.0545088 17.1574514,17.2148487 17.4250474,16.4394726 C17.6098696,15.7867025 18.104046,15.2666643 18.7465483,15.0488137 C18.8884967,15.0079942 19.0354592,14.9872399 19.1831602,14.9871548 C20.5521551,14.9871548 21.4278785,15.5529171 21.968644,17.4626775 L21.9703105,17.4626775 Z M30.7725394,21.3888516 L30.7725394,17.9809458 L28.6144769,17.9809458 L28.6144769,21.3888516 L25.2065711,21.3888516 L25.2065711,23.5469141 L28.6144769,23.5469141 L28.6144769,26.9556531 L30.7725394,26.9556531 L30.7725394,23.5469141 L34.1804452,23.5469141 L34.1804452,21.3888516 L30.7725394,21.3888516 Z" id="g_4"></path>
            </g>
            <g id="in" transform="translate(1.000000, 308.000000)">
                <path d="M45.5700935,23 C45.5700935,10.2974508 35.3688806,7.77806814e-16 22.7850467,0 C10.2012129,-7.77806814e-16 1.54107518e-15,10.2974508 0,23 C-1.54107518e-15,35.7025492 10.2012129,46 22.7850467,46 C28.8280168,46 34.6234826,43.5767927 38.8965078,39.263456 C43.1695329,34.9501193 45.5700935,29.0999793 45.5700935,23 Z M2.07126925,23 C2.07126925,11.452173 11.3451433,2.09080952 22.7850467,2.09080952 C34.2249501,2.09080952 43.4988242,11.452173 43.4988242,23 C43.4988242,34.547827 34.2249501,43.9091905 22.7850467,43.9091905 C17.2914114,43.9091905 12.022781,41.7062642 8.13819421,37.7850304 C4.2536074,33.8637965 2.07126925,28.5454621 2.07126925,23 Z" id="Path_11-2"></path>
                <path d="M32.2964093,23.2140698 L32.2964093,30.1773211 L28.261858,30.1773211 L28.261858,23.6843832 C28.261858,22.0528875 27.6778087,20.9393513 26.2176853,20.9393513 C25.2849751,20.9445456 24.4562211,21.5355019 24.1473842,22.4156129 C24.0435522,22.7326835 23.998243,23.0659928 24.0136676,23.3992749 L24.0136676,30.1773211 L19.9775793,30.1773211 C19.9775793,30.1773211 20.0313733,19.1795185 19.9775793,18.0398538 L24.0128991,18.0398538 L24.0128991,19.7604938 C24.0052143,19.7735581 23.9944555,19.7873909 23.9867706,19.7996866 L24.0128991,19.7996866 L24.0128991,19.7566514 C24.7572983,18.4630934 26.158944,17.6904558 27.6501432,17.7516715 C30.3060307,17.7516715 32.2964093,19.4853759 32.2964093,23.2140698 Z M15.7555174,12.1855277 C14.9692334,12.115981 14.2102027,12.4925246 13.7898694,13.1606556 C13.369536,13.8287867 13.3586702,14.6760142 13.7617302,15.3547055 C14.1647903,16.0333967 14.9139144,16.4292827 15.7017234,16.3799241 L15.7286204,16.3799241 C16.5180005,16.4489827 17.2792403,16.0687066 17.6981076,15.3960698 C18.116975,14.7234331 18.1224316,13.8725123 17.712225,13.1945591 C17.3020185,12.5166058 16.5457183,12.1265983 15.7555174,12.1855277 Z M13.7113448,30.1734787 L17.7458961,30.1734787 L17.7458961,18.0352429 L13.7113448,18.0352429 L13.7113448,30.1773211 L13.7113448,30.1734787 Z" id="in-2"></path>
            </g>
            <g id="sms" transform="translate(2.000000, 383.000000)">
                <path d="M45.5700935,23 C45.5700935,10.2974508 35.3688806,7.77806814e-16 22.7850467,0 C10.2012129,-7.77806814e-16 1.54107518e-15,10.2974508 0,23 C-1.54107518e-15,35.7025492 10.2012129,46 22.7850467,46 C28.8280168,46 34.6234826,43.5767927 38.8965078,39.263456 C43.1695329,34.9501193 45.5700935,29.0999793 45.5700935,23 Z M2.07126925,23 C2.07126925,11.452173 11.3451433,2.09080952 22.7850467,2.09080952 C34.2249501,2.09080952 43.4988242,11.452173 43.4988242,23 C43.4988242,34.547827 34.2249501,43.9091905 22.7850467,43.9091905 C17.2914114,43.9091905 12.022781,41.7062642 8.13819421,37.7850304 C4.2536074,33.8637965 2.07126925,28.5454621 2.07126925,23 Z" id="Path_11-2"></path>
                <path d="M13.8773551,30.035059 L22.3283061,30.035059 L29.5242082,35.9375 L29.5242082,30.035059 L32.1226449,30.035059 C33.4337857,30.035059 34.5,28.9502937 34.5,27.6164142 L34.5,15.3561447 C34.5,14.0222653 33.4338327,12.9375 32.1226449,12.9375 L13.8773551,12.9375 C12.5662143,12.9375 11.5,14.0222653 11.5,15.3561447 L11.5,27.6163673 C11.5,28.9502467 12.5662143,30.035059 13.8773551,30.035059 Z M28.583649,22.0514433 C27.6585327,21.7399216 27.3012816,21.2368135 27.3103878,20.7056454 C27.3103878,19.8727626 28.0249367,19.2412732 29.132551,19.2412732 C29.6547918,19.2412732 30.121551,19.3598476 30.3967061,19.4973788 L30.1496204,20.4586429 C29.9481592,20.3484677 29.5635429,20.2018334 29.1788796,20.2018334 C28.8398408,20.2018334 28.6475327,20.3393647 28.6475327,20.5681142 C28.6475327,20.7786106 28.8215816,20.8887858 29.3711878,21.0810292 C30.2226102,21.3736409 30.5798612,21.8044407 30.5890143,22.4633331 C30.5890143,23.2962159 29.9299469,23.9094523 28.6475327,23.9094523 C28.0614551,23.9094523 27.5392143,23.781728 27.2009265,23.5986345 L27.4480122,22.6008644 C27.7042041,22.7566487 28.235551,22.939789 28.6475796,22.939789 C29.0687143,22.939789 29.2428102,22.7931547 29.2428102,22.5644052 C29.2427633,22.3349519 29.1051857,22.2254806 28.583649,22.0514433 Z M20.7188224,19.3416415 L20.7827061,19.9457748 L20.8100714,19.9457748 C21.0023796,19.6623131 21.396149,19.2413201 22.1654286,19.2413201 C22.7424,19.2413201 23.2000531,19.5339318 23.3923612,20.0005339 L23.4106204,20.0005339 C23.5755633,19.7717844 23.7770245,19.588644 23.9875918,19.4609666 C24.2353816,19.3143323 24.5097857,19.2413671 24.8397184,19.2413671 C25.7002469,19.2413671 26.3509122,19.8455004 26.3509122,21.1814913 L26.3509122,23.8183748 L24.9955551,23.8183748 L24.9955551,21.3835886 C24.9955551,20.7331423 24.7842837,20.3577585 24.3357837,20.3577585 C24.0157082,20.3577585 23.7861776,20.577358 23.6949286,20.8433174 C23.6584102,20.9436387 23.640198,21.09032 23.640198,21.2004482 L23.640198,23.8183748 L22.2848408,23.8183748 L22.2848408,21.3099195 C22.2848408,20.7422453 22.0833796,20.3577585 21.6432816,20.3577585 C21.2866878,20.3577585 21.0754163,20.632821 20.9933204,20.8615705 C20.9476959,20.9710418 20.9385898,21.099423 20.9385898,21.2095982 L20.9385898,23.8184217 L19.5832327,23.8184217 L19.5832327,20.7696953 C19.5832327,20.211875 19.5649735,19.7354191 19.5467143,19.3417822 L20.7188224,19.3417822 L20.7188224,19.3416415 Z M16.7362082,22.0514433 C15.8110918,21.7399216 15.4538408,21.2368135 15.4629469,20.7056454 C15.4629469,19.8727626 16.1774959,19.2412732 17.2851102,19.2412732 C17.807351,19.2412732 18.2748143,19.3598476 18.5492184,19.4973788 L18.3021327,20.4586429 C18.1006714,20.3484677 17.7160551,20.2018334 17.3313918,20.2018334 C16.9923531,20.2018334 16.8000449,20.3393647 16.8000449,20.5681142 C16.8000449,20.7786106 16.9740939,20.8887858 17.5237,21.0810292 C18.3751224,21.3736409 18.7323735,21.8044407 18.7415265,22.4633331 C18.7415265,23.2962159 18.0824592,23.9094523 16.8000449,23.9094523 C16.2139673,23.9094523 15.6917265,23.781728 15.3534388,23.5986345 L15.6005245,22.6008644 C15.8567163,22.7566487 16.3880633,22.939789 16.8000918,22.939789 C17.2212265,22.939789 17.3953224,22.7931547 17.3953224,22.5644052 C17.3953224,22.3349519 17.2577449,22.2254806 16.7362082,22.0514433 Z" id="Shape"></path>
            </g>
            <g id="whatsapp" transform="translate(2.000000, 454.000000)">
                <path d="M45.5700935,23 C45.5700935,10.2974508 35.3688806,7.77806814e-16 22.7850467,0 C10.2012129,-7.77806814e-16 1.54107518e-15,10.2974508 0,23 C-1.54107518e-15,35.7025492 10.2012129,46 22.7850467,46 C28.8280168,46 34.6234826,43.5767927 38.8965078,39.263456 C43.1695329,34.9501193 45.5700935,29.0999793 45.5700935,23 Z M2.07126925,23 C2.07126925,11.452173 11.3451433,2.09080952 22.7850467,2.09080952 C34.2249501,2.09080952 43.4988242,11.452173 43.4988242,23 C43.4988242,34.547827 34.2249501,43.9091905 22.7850467,43.9091905 C17.2914114,43.9091905 12.022781,41.7062642 8.13819421,37.7850304 C4.2536074,33.8637965 2.07126925,28.5454621 2.07126925,23 Z" id="Path_11-2"></path>
                <path d="M33.5,22.0038702 C33.5,27.8045884 28.760989,32.5070373 22.9138651,32.5070373 C21.0583384,32.5070373 19.3153104,32.0324331 17.7979832,31.2013484 L11.9375,33.0625 L13.8478699,27.4256081 C12.8845991,25.8435941 12.3298395,23.985958 12.3298395,22.0031671 C12.3305426,16.2024489 17.0681474,11.5 22.9152713,11.5 C28.7616921,11.5014062 33.5,16.203152 33.5,22.0038702 Z M22.9131619,13.1748255 C18.0061059,13.1748255 14.0145087,17.1361887 14.0145087,22.0059796 C14.0145087,23.9381461 14.6445018,25.7268766 15.7097246,27.1823295 L14.5987992,30.4609658 L18.0173558,29.3746495 C19.4235905,30.2971394 21.1061503,30.8343211 22.9131619,30.8343211 C27.820218,30.8343211 31.8132215,26.873661 31.8132215,22.0038702 C31.8146277,17.1361887 27.8209211,13.1748255 22.9131619,13.1748255 Z M28.2596663,24.423297 C28.1935733,24.3171263 28.0206064,24.2524395 27.7618592,24.1230659 C27.5038152,23.9936923 26.2262509,23.3714335 25.9893004,23.2870594 C25.7502405,23.2005759 25.5772736,23.1569827 25.4043067,23.4150267 C25.2334492,23.6730708 24.7356421,24.2524395 24.5830657,24.4254064 C24.4318954,24.5976701 24.2807252,24.6194668 24.0212749,24.4922025 C23.7618246,24.3614227 22.9251149,24.0914256 21.9337195,23.2146383 C21.1623997,22.5312082 20.6413898,21.6895767 20.4909227,21.4315327 C20.3383462,21.1741917 20.4754541,21.0349745 20.6041245,20.9070071 C20.7201389,20.7909928 20.8635749,20.6060729 20.9936516,20.4549027 C21.1237283,20.3051387 21.1666184,20.1989679 21.2531019,20.0267042 C21.3381791,19.8544404 21.2952889,19.7046764 21.2313052,19.5745997 C21.1666184,19.4452261 20.6484209,18.1796149 20.4311577,17.6642299 C20.2153006,17.149548 19.9994436,17.2346252 19.8475703,17.2346252 C19.6964,17.2346252 19.5234332,17.2135316 19.3504663,17.2135316 C19.1774994,17.2135316 18.8962525,17.2761091 18.6593019,17.5341532 C18.4223514,17.7921972 17.7515774,18.4144561 17.7515774,19.6814736 C17.7515774,20.9498973 18.6803955,22.1726184 18.8104722,22.344179 C18.941252,22.5150365 20.6062339,25.2002417 23.2436271,26.2310118 C25.8824265,27.2610787 25.8824265,26.9172543 26.3577339,26.873661 C26.8344475,26.8300677 27.8933422,26.2514022 28.1084961,25.6509399 C28.3250562,25.0476652 28.3250562,24.530874 28.2596663,24.423297 Z" id="Shape"></path>
            </g>
            <g id="font" transform="translate(1.020027, 524.874429)">
                <path d="M46.5500668,23.1255714 C46.5500668,10.4230222 36.3488539,0.125571429 23.76502,0.125571429 C11.1811862,0.125571429 0.979973298,10.4230222 0.979973298,23.1255714 C0.979973298,35.8281207 11.1811862,46.1255714 23.76502,46.1255714 C29.8079901,46.1255714 35.6034559,43.7023641 39.8764811,39.3890274 C44.1495062,35.0756907 46.5500668,29.2255507 46.5500668,23.1255714 Z M3.05124255,23.1255714 C3.05124255,11.5777444 12.3251166,2.21638095 23.76502,2.21638095 C35.2049234,2.21638095 44.4787975,11.5777444 44.4787975,23.1255714 C44.4787975,34.6733985 35.2049234,44.0347619 23.76502,44.0347619 C18.2713847,44.0347619 13.0027543,41.8318357 9.11816751,37.9106018 C5.23358069,33.9893679 3.05124255,28.6710335 3.05124255,23.1255714 Z" id="Path_11-5"></path>
                <path d="M22.2069568,25.9589524 L18.2315087,25.9589524 L17.2419866,29.6937143 L14,29.6937143 L18.2315087,15.8170476 L22.3545171,15.8170476 L25.9241745,27.2666667 L28.2590992,19.7095238 L31.2580454,19.7095238 L34.4045518,29.6937143 L31.9307468,29.6937143 L31.1506302,26.9775238 L28.2590992,26.9775238 L27.5397428,29.6937143 L23.278939,29.6937143 L22.2069568,25.9589524 Z M18.6806996,23.7016667 L21.7534259,23.7016667 L20.8854241,20.7532857 L20.5208634,19.4127143 L20.1845127,18.0732381 L20.1443676,18.0732381 L19.832972,19.4247619 L19.5074713,20.7872381 L18.6806996,23.7016667 Z M28.5889399,25.3445238 L30.8229595,25.3445238 L30.1925732,23.2000476 L29.9267477,22.2252857 L29.6826222,21.251619 L29.6522421,21.251619 L29.4254766,22.2373333 L29.1878611,23.2230476 L28.5889399,25.3445238 Z M27.0797018,15.8170476 L32.2356324,15.8170476 L29.6576671,18.4193333 L27.0797018,15.8170476 Z" id="Path_25"></path>
            </g>
        </g>
        <g id="black" transform="translate(121.000000, 19.000000)">
            <g id="pint" transform="translate(1.000000, 0.000000)" fill="#000000" fill-rule="nonzero">
                <path d="M45.5700935,23 C45.5700935,10.2974508 35.3688806,7.77806814e-16 22.7850467,0 C10.2012129,-7.77806814e-16 1.54107518e-15,10.2974508 0,23 C-1.54107518e-15,35.7025492 10.2012129,46 22.7850467,46 C28.8280168,46 34.6234826,43.5767927 38.8965078,39.263456 C43.1695329,34.9501193 45.5700935,29.0999793 45.5700935,23 Z M2.07126925,23 C2.07126925,11.452173 11.3451433,2.09080952 22.7850467,2.09080952 C34.2249501,2.09080952 43.4988242,11.452173 43.4988242,23 C43.4988242,34.547827 34.2249501,43.9091905 22.7850467,43.9091905 C17.2914114,43.9091905 12.022781,41.7062642 8.13819421,37.7850304 C4.2536074,33.8637965 2.07126925,28.5454621 2.07126925,23 Z" id="Path_7"></path>
                <path d="M28.7659959,15.2305805 C26.0104509,12.237814 21.3587758,12.4397395 18.2666882,14.7479292 C15.6301643,16.7179345 13.7676884,21.0880631 15.9831236,24.063592 C16.4388536,24.6564285 17.0984764,25.05893 17.8341078,25.1930618 C18.0161329,25.238275 18.2016529,25.1328823 18.2560173,24.9533778 C18.4258155,24.5725898 18.5407815,24.1696559 18.5974849,23.7565995 C18.6016756,23.6874659 18.5765588,23.6197637 18.5282922,23.5700912 C18.4800255,23.5204188 18.4130721,23.4933691 18.3438467,23.4955738 C16.3352621,21.2916303 17.6994908,18.5500395 19.6571836,16.8541932 C21.3883258,15.3553475 24.5666012,13.9508978 26.6014525,15.6779359 C28.0059022,16.8697891 28.1126108,19.0975368 28.0453023,20.7794289 C27.9632187,22.8897972 27.2244667,25.1134407 25.0279107,25.7865259 C24.3107145,26.0677763 23.4941202,25.8665054 22.989776,25.2841745 C22.5638641,24.5630225 22.5030212,23.6832336 22.8256089,22.910318 C23.1416306,21.6921981 23.8926952,19.9676225 23.1810307,18.7618151 C22.3224367,17.3015486 20.5921153,18.6296606 20.0922265,19.6122007 C19.7876965,20.2105899 19.2393783,22.1272409 20.0487222,22.6189214 C19.2070264,24.8329554 18.5931534,27.1270031 18.2166172,29.4655109 C17.9840382,30.5146147 17.9357095,31.5961781 18.0737918,32.6618446 C18.1740716,33.0606591 18.3269958,33.4443495 18.5285347,33.802806 C18.4940596,33.9998066 18.7846354,34.0703984 18.9003732,33.9160813 C19.750353,32.918545 20.4383881,31.7937019 20.9393288,30.5826681 C21.1387017,29.8938284 21.2914492,29.1923415 21.3965342,28.4829707 C21.4933928,27.9970361 21.6928558,27.4437929 21.7437476,26.9233831 L21.7527768,26.9233831 C22.466637,27.4691437 23.2906418,27.8531378 24.1676751,28.0487487 C25.5162264,28.2278389 26.8825749,27.8896977 27.991948,27.1023253 C28.1595732,26.9850174 28.3176658,26.8546459 28.4647493,26.7124284 C28.9701138,26.3745048 29.4096113,25.9472465 29.7616695,25.451625 C31.9245712,22.4342334 31.1907442,17.8654626 28.7659959,15.2305805 Z M17.888283,23.993821 C17.9049171,24.0107468 17.9230495,24.0261319 17.9424581,24.0397878 C17.9309664,24.0660545 17.9178331,24.0915004 17.9063414,24.1161255 C17.8800746,24.0824712 17.852987,24.0496378 17.8242578,24.0168044 C17.8304524,23.9853677 17.8304524,23.9530242 17.8242578,23.9215875 L17.888283,23.993821 Z M16.5470377,18.0189589 C16.3468527,18.365249 16.174747,18.7270279 16.0323738,19.1008202 C16.1452153,18.7001784 16.2961152,18.311247 16.4830125,17.9393378 C16.510992,17.951298 16.5405903,17.9590434 16.5708419,17.9623212 L16.5470377,18.0189589 Z M28.8316628,16.5233965 C28.8007393,16.4835292 28.7625909,16.449836 28.7192083,16.4240754 C28.7091792,16.4117436 28.6984929,16.3999612 28.6871957,16.3887795 C28.6740623,16.3436335 28.6576456,16.3009501 28.6428706,16.2574458 C28.7651751,16.4142254 28.8833754,16.5751091 28.9925465,16.7425596 C28.9424756,16.6686844 28.8874796,16.59563 28.8316628,16.5233965 Z" id="pint-4"></path>
            </g>
            <g id="facebook" transform="translate(1.000000, 59.000000)" fill="#000000" fill-rule="nonzero">
                <path d="M45.5700935,23 C45.5700935,10.2974508 35.3688806,7.77806814e-16 22.7850467,0 C10.2012129,-7.77806814e-16 1.54107518e-15,10.2974508 0,23 C-1.54107518e-15,35.7025492 10.2012129,46 22.7850467,46 C28.8280168,46 34.6234826,43.5767927 38.8965078,39.263456 C43.1695329,34.9501193 45.5700935,29.0999793 45.5700935,23 Z M2.07126925,23 C2.07126925,11.452173 11.3451433,2.09080952 22.7850467,2.09080952 C34.2249501,2.09080952 43.4988242,11.452173 43.4988242,23 C43.4988242,34.547827 34.2249501,43.9091905 22.7850467,43.9091905 C17.2914114,43.9091905 12.022781,41.7062642 8.13819421,37.7850304 C4.2536074,33.8637965 2.07126925,28.5454621 2.07126925,23 Z" id="Path_7"></path>
                <path d="M22.9403389,33.7607619 L22.9403389,23.7471306 L26.2140114,23.7471306 L26.7312516,20.4285301 L22.9403389,20.4285301 L22.9403389,18.7646861 C22.9403389,17.8988924 23.2218748,17.0727533 24.4527756,17.0727533 L26.9137589,17.0727533 L26.9137589,13.7607619 L23.4199319,13.7607619 C20.4826293,13.7607619 19.681398,15.7129285 19.681398,18.4193599 L19.681398,20.4268778 L17.6656342,20.4268778 L17.6656342,23.7471306 L19.681398,23.7471306 L19.681398,33.7607619 L22.9403389,33.7607619 Z" id="Path_8"></path>
            </g>
            <g id="twitter" transform="translate(0.000000, 121.000000)" fill="#000000" fill-rule="nonzero">
                <path d="M45.5700935,23 C45.5700935,10.2974508 35.3688806,7.77806814e-16 22.7850467,0 C10.2012129,-7.77806814e-16 1.54107518e-15,10.2974508 0,23 C-1.54107518e-15,35.7025492 10.2012129,46 22.7850467,46 C28.8280168,46 34.6234826,43.5767927 38.8965078,39.263456 C43.1695329,34.9501193 45.5700935,29.0999793 45.5700935,23 Z M2.07126925,23 C2.07126925,11.452173 11.3451433,2.09080952 22.7850467,2.09080952 C34.2249501,2.09080952 43.4988242,11.452173 43.4988242,23 C43.4988242,34.547827 34.2249501,43.9091905 22.7850467,43.9091905 C17.2914114,43.9091905 12.022781,41.7062642 8.13819421,37.7850304 C4.2536074,33.8637965 2.07126925,28.5454621 2.07126925,23 Z" id="Path_13"></path>
                <g id="Path_18" transform="translate(9.680018, 14.379381)">
                    <path d="M9.18195536,17.7191429 L9.18113294,17.7191429 C7.08991145,17.7191429 5.01866175,17.1350937 3.19131084,16.0301247 L1.90496612,15.2525635 L1.42831283,14.9644432 L1.98381229,14.973896 L3.48275133,14.9993935 L3.48522802,14.9994354 L3.48924999,14.9996452 C3.53812888,15.0021248 3.61200202,15.0058632 3.73006816,15.0058632 C4.21532398,15.0058632 5.86793051,14.9326248 7.61032764,14.0329704 C6.29077882,13.5284691 5.2557683,12.4549255 4.80582943,11.1040955 L4.56967732,10.3953857 L4.48212321,10.1326447 L4.74790586,10.2023964 L4.78759411,10.2128105 C3.97752138,9.39011383 3.48913426,8.29527283 3.42614536,7.12643433 L3.39082852,6.47071457 L3.37774204,6.22777557 L3.59864794,6.32509613 L4.09228392,6.54256821 C3.5539978,5.60888672 2.91802329,3.8443718 4.04619585,1.7710762 L4.34047961,1.22990417 L4.44960995,1.0292244 L4.58831156,1.21034622 L4.96242222,1.6988945 C6.68007629,3.94051743 9.24793325,5.35162354 12.029542,5.58919144 C12.0211204,5.48756027 12.0147603,5.39391327 12.0147603,5.35100555 C12.0147603,3.1061058 13.7070454,0.784076691 16.5390095,0.784076691 C17.6896496,0.784076691 18.8204478,1.24134445 19.655086,2.04138947 C20.6842109,1.77971649 21.6401678,1.19490051 21.6813461,1.16952515 L22.6280066,0.581245422 L22.979233,0.362995148 L22.8466131,0.757213593 L22.4889075,1.82053375 C22.3668688,2.18260956 22.2015961,2.52497101 21.9955077,2.84326935 C22.0185523,2.83346558 22.0416914,2.82345963 22.0649174,2.81325912 L23.1996629,2.25362396 L23.5767757,2.06763458 L23.3996065,2.45171356 L22.9216063,3.48795319 C22.5305469,4.33644867 21.8754549,5.05613708 21.0708715,5.52366257 C21.2208373,8.36454391 20.0401915,11.5486526 17.9758537,13.8566666 C16.4146722,15.6026955 13.6344404,17.6900063 9.25521405,17.7183266 L9.18278722,17.7191353 L9.18195536,17.7191429 Z M5.5089417,15.9320908 C6.69365818,16.3816261 7.92642168,16.6091957 9.18069693,16.6091957 L9.2484779,16.6088257 C13.227064,16.5832863 15.7468128,14.6938553 17.1600106,13.1133156 C19.1317297,10.908493 20.2005459,7.89671326 19.9493848,5.25328445 L19.9224894,4.96825409 L19.9125335,4.8627739 L20.0076955,4.8180542 L20.2643154,4.69744492 C20.4865441,4.59289169 20.6953987,4.46569443 20.8891107,4.31712341 C20.7038241,4.35034943 20.5073988,4.37944794 20.2935293,4.40555573 L19.9860397,4.44320297 L19.8720448,4.45716476 L19.8299122,4.34933472 L19.5901355,3.73570633 L19.5491121,3.63070297 L19.6376967,3.5618248 L19.916783,3.34484482 L19.9242429,3.33905411 L19.9323565,3.33425522 C20.1183649,3.22428131 20.2923352,3.09828186 20.4530995,2.95728302 C20.1458404,3.06281281 19.8528246,3.14198685 19.5771375,3.19382477 L19.3573898,3.23514557 L19.2759986,3.25045395 L19.2202841,3.18864441 L19.0699121,3.02186584 C18.4222327,2.30449295 17.4998253,1.893013 16.539257,1.893013 C14.3953428,1.893013 13.1142085,3.65089417 13.1142085,5.35038376 C13.1142085,5.43965912 13.1609024,5.88447189 13.1823003,6.03516388 L13.3596037,6.54406357 L13.4308113,6.7484436 L13.2162361,6.74380493 L12.6372287,6.73126602 C11.0739366,6.69722366 9.56907326,6.34276581 8.16444442,5.67774582 C6.84009621,5.05072784 5.66905539,4.17822266 4.68001318,3.08206177 C4.0865785,5.02946091 5.34342398,6.56450653 5.90155245,7.00600433 L6.84192101,7.75043488 L7.19033393,8.02623367 L6.74763051,8.01844406 L5.55305025,7.99740601 C5.25338514,7.9922142 4.9561294,7.95867538 4.66637744,7.89750671 C5.03836782,9.16460419 6.07445537,10.1431351 7.36479831,10.4228554 L8.94675415,10.7661133 L8.95577899,11.0571556 L7.3983123,11.4995956 C7.11399437,11.580143 6.79248731,11.6209755 6.44262797,11.6209755 C6.38753798,11.6209755 6.33155898,11.6199493 6.27491297,11.6179047 C6.90851347,12.5609703 7.96194235,13.1690102 9.08680276,13.2244034 L10.2144153,13.2802734 L10.6321047,13.3009758 L10.2951338,13.5509644 L9.38581221,14.225563 C8.01106239,15.246254 6.59094749,15.7169914 5.5089417,15.9320908 Z" id="Shape"></path>
                    <path d="M9.18113294,17.5691452 L9.25426315,17.568325 C13.5789348,17.5403633 16.3241263,15.4800949 17.8655547,13.7561455 C19.9422538,11.4343147 21.0967221,8.27262497 20.9170965,5.43880463 C21.734317,4.98709488 22.3923188,4.28075409 22.7868966,3.42463303 L23.2648967,2.3883934 L22.1272792,2.94944382 C21.9424045,3.03075409 21.7627676,3.09996414 21.5798939,3.16030502 C21.9151312,2.75066376 22.1765655,2.28151321 22.348206,1.77230453 L22.7059116,0.708984375 L21.7587864,1.29754639 C21.7475418,1.30447388 20.7033328,1.94764328 19.6106312,2.20669556 C18.7954022,1.39510345 17.6886632,0.934074402 16.5390095,0.934074402 C13.8001875,0.934074402 12.163359,3.17976379 12.163359,5.35100555 C12.163359,5.40322495 12.1757722,5.57037354 12.1934251,5.75214386 C9.29506834,5.55626297 6.63729135,4.12985611 4.84485138,1.79063416 L4.47074072,1.30208588 L4.17643713,1.84328461 C3.10775897,3.80725479 3.62026408,5.65621567 4.46712488,6.8527565 C4.35481424,6.81597519 4.24419778,6.7734642 4.13550321,6.72527313 L3.53920874,6.46257401 L3.57452558,7.11828613 C3.6483392,8.48801422 4.32280643,9.71692657 5.35374054,10.5163536 L4.71051858,10.3475647 L4.94668061,11.0562935 C5.42343299,12.4876251 6.58114134,13.5809364 7.98218387,14.0014648 C6.11836694,15.0631561 4.30065531,15.1558647 3.73006816,15.1558647 C3.60696951,15.1558647 3.52878708,15.1518364 3.480245,15.1493759 L1.98130593,15.1238747 L3.26767048,15.9014435 C5.07178049,16.9923553 7.11684755,17.5691452 9.18113294,17.5691452 Z M5.99632832,11.4494934 C6.13508921,11.4624748 6.28546076,11.470974 6.44262797,11.470974 C6.77861822,11.470974 7.08659298,11.4321136 7.35806168,11.3552055 L8.91552884,10.9127655 L7.33360275,10.5695152 C5.88844601,10.2562332 4.77609991,9.11475372 4.46051722,7.69400406 C4.81540907,7.78954315 5.18153508,7.8409462 5.55564575,7.84742355 L6.75022624,7.86846542 L5.80989712,7.12407303 C5.16674461,6.61531448 3.82016817,4.91687393 4.62217205,2.79097366 C6.64920904,5.14070511 9.53671848,6.51371384 12.6404182,6.58129501 L13.2194256,6.59383392 L13.0373635,6.0712738 C13.0185212,5.94581604 12.9656107,5.45763397 12.9656107,5.35038376 C12.9656107,3.57705307 14.3025181,1.74301529 16.539257,1.74301529 C17.5417292,1.74301529 18.5037146,2.17205429 19.1798067,2.92090607 L19.3301768,3.08768463 L19.5499246,3.04636383 C20.0643604,2.94963455 20.5788567,2.76628494 21.0147357,2.57885361 C20.739264,2.93142319 20.3984092,3.23254395 20.0074574,3.46368408 L19.7283711,3.68066406 L19.9681478,4.29429626 L20.2756866,4.25663376 C20.6967743,4.20523453 21.062089,4.14005661 21.4045084,4.05263519 C21.0985247,4.37604523 20.7340244,4.64195633 20.3270325,4.83342361 L20.0704145,4.9540329 L20.0973005,5.23896408 C20.3523634,7.92338562 19.2688467,10.979023 17.27032,13.2138138 C15.8371405,14.8167038 13.2816287,16.732933 9.24927008,16.7588234 L9.18069693,16.7591934 C7.73710613,16.7591934 6.30317362,16.4551849 4.96627591,15.8727264 C6.1223595,15.7075844 7.73915673,15.2619247 9.2978124,14.1046944 L10.207134,13.4300957 L9.07956116,13.3742256 C7.78914501,13.3106766 6.62269903,12.5626335 5.99632832,11.4494934 Z M9.18278722,17.8691444 L9.18113294,17.8691444 C7.06302496,17.8691444 4.96537437,17.2777138 3.1149512,16.1588058 L1.8286164,15.3812561 L0.875329653,14.8050156 L1.98631865,14.8239136 L3.48525767,14.8494148 L3.49020113,14.8495064 L3.49514448,14.8497543 C3.54410261,14.8522339 3.61572686,14.8558655 3.73006816,14.8558655 C4.17942139,14.8558655 5.64818797,14.7918053 7.24994979,14.0433273 C6.03653453,13.4813805 5.09356504,12.4386139 4.66497825,11.1519051 L4.42882614,10.443203 L4.25372806,9.91772461 L4.34807596,9.94248199 C3.71296785,9.14914322 3.33356287,8.16996765 3.27776514,7.13458633 L3.24244842,6.47886658 L3.21628514,5.99298477 L3.65808725,6.18762589 L3.76084175,6.2328949 C3.5563486,5.80143356 3.37916331,5.27598572 3.30831695,4.67102432 C3.18966636,3.65786362 3.39409775,2.65788651 3.91594466,1.69885635 L4.21021849,1.15772629 L4.42847941,0.756355286 L4.7058824,1.1186142 L5.07999307,1.60716629 C6.73641241,3.76886749 9.19530389,5.146595 11.8686557,5.42334366 C11.8670742,5.39402771 11.8661625,5.3691864 11.8661625,5.35100555 C11.8661625,3.03237534 13.6140336,0.634075165 16.5390095,0.634075165 C17.6997528,0.634075165 18.840917,1.08456039 19.6966442,1.87542343 C20.6765696,1.60897827 21.5942769,1.04743576 21.6039173,1.04149628 L22.550111,0.453514099 L23.2525638,0.0169944763 L22.9873258,0.805446625 L22.6296202,1.86876297 C22.5565203,2.08563995 22.4684194,2.29563904 22.3657937,2.4979248 L23.1344384,2.11884308 L23.8886528,1.74688339 L23.5343163,2.51503372 L23.0563142,3.55127335 C22.6652566,4.39974594 22.0185901,5.12350845 21.2236432,5.60690689 C21.2830404,6.98733521 21.0396112,8.4650116 20.5161888,9.89354324 C19.9693382,11.385994 19.1290447,12.7911835 18.0861433,13.9571838 C16.5049706,15.7255859 13.6895115,17.839653 9.25616495,17.8683167 L9.18443205,17.8691254 L9.18278722,17.8691444 Z M6.04990716,15.9634514 C7.0667681,16.2928009 8.11583691,16.4591942 9.18069693,16.4591942 L9.24768525,16.4588242 C13.1719835,16.4336357 15.6565248,14.5709648 17.0497012,13.0128136 C18.9943652,10.8382454 20.0487775,7.87046432 19.8014617,5.26760483 L19.7745548,4.98248291 L19.7546525,4.77151489 L19.9449671,4.68206406 L20.1830149,4.5701828 L20.003941,4.59211349 L19.7759512,4.62003326 L19.691686,4.40437317 L19.4519094,3.79074478 L19.3698436,3.58073425 L19.5470223,3.44298553 L19.7029249,3.32177734 C19.6698356,3.32865143 19.6369825,3.3351593 19.6043504,3.34129333 L19.3846046,3.38261414 L19.2218297,3.41321564 L19.11038,3.28961563 L18.9600099,3.12283325 C18.3404939,2.43664551 17.4581178,2.04301453 16.539257,2.04301453 C14.9287004,2.04301453 13.2628062,3.28013611 13.2628062,5.35038376 C13.2628062,5.42395782 13.3053545,5.83786774 13.3273769,5.99943924 L13.4997912,6.49430466 L13.6421979,6.90306473 L13.2130457,6.8937645 L12.6340382,6.88122559 C11.0498735,6.84673309 9.52486031,6.4875145 8.10134947,5.81355667 C6.84047506,5.21659088 5.71679442,4.40013504 4.75434701,3.38246155 C4.36350628,5.12688446 5.48292628,6.48428345 5.99320777,6.88794327 L6.9336257,7.63239288 L7.63043216,8.18401337 L6.74504517,8.16841507 L5.55046467,8.1473732 C5.32744121,8.14351654 5.10569199,8.12442398 4.88716796,8.09037399 C5.29692282,9.19001389 6.24006497,10.0256157 7.39600378,10.2762032 L8.97798938,10.6194649 L8.99603905,11.2015457 L7.43857237,11.6439857 C7.17639539,11.7182579 6.88505174,11.7602501 6.57081793,11.7691727 C7.18719638,12.5386391 8.11226477,13.0262299 9.09404483,13.074585 L10.221706,13.130455 L11.0570858,13.1718445 L10.3831336,13.671833 L9.47381201,14.3464355 C8.28563653,15.2285957 7.06443407,15.7061615 6.04990716,15.9634514 Z" id="Shape"></path>
                </g>
            </g>
            <g id="mail" transform="translate(1.000000, 184.000000)">
                <g id="google-2">
                    <g id="Group_85-2"></g>
                </g>
                <path d="M45.5700935,23 C45.5700935,10.2974508 35.3688806,7.77806814e-16 22.7850467,0 C10.2012129,-7.77806814e-16 1.54107518e-15,10.2974508 0,23 C-1.54107518e-15,35.7025492 10.2012129,46 22.7850467,46 C28.8280168,46 34.6234826,43.5767927 38.8965078,39.263456 C43.1695329,34.9501193 45.5700935,29.0999793 45.5700935,23 Z M2.07126925,23 C2.07126925,11.452173 11.3451433,2.09080952 22.7850467,2.09080952 C34.2249501,2.09080952 43.4988242,11.452173 43.4988242,23 C43.4988242,34.547827 34.2249501,43.9091905 22.7850467,43.9091905 C17.2914114,43.9091905 12.022781,41.7062642 8.13819421,37.7850304 C4.2536074,33.8637965 2.07126925,28.5454621 2.07126925,23 Z" id="Path_11-2" fill="#000000" fill-rule="nonzero"></path>
                <path d="M33.4755737,17.5413333 C33.4737812,16.926668 32.9799645,16.429172 32.3710414,16.4285714 L13.0395567,16.4548571 C12.74634,16.4545655 12.4650655,16.5720902 12.2578316,16.7814846 C12.0505978,16.9908789 11.9344477,17.2749223 11.9350245,17.5709048 L11.9502145,28.5364286 C11.9505021,28.8318419 12.0670338,29.1150405 12.2741738,29.3237239 C12.4813138,29.5324072 12.7620943,29.6494811 13.0547468,29.6491905 L32.3862314,29.6229048 C32.9955754,29.6210939 33.4885963,29.1219523 33.4885937,28.5068571 L33.4755737,17.5413333 Z M31.1590939,17.5413333 L22.7145216,23.4676667 L14.2515042,17.5654286 L31.1590939,17.5413333 Z M26.2841789,24.5935714 L31.2925492,28.5145238 L14.116964,28.538619 L19.1557143,24.5957619 C19.367151,24.3991514 19.393807,24.0716885 19.2170006,23.8428752 C19.0401942,23.6140619 18.7190637,23.5604317 18.4786729,23.7195714 L13.0536618,27.968 L13.0406417,18.0889524 L22.4009559,24.6187619 C22.5902074,24.751202 22.8410058,24.751202 23.0302572,24.6187619 L32.3721264,18.0626667 L32.3862314,27.9669048 L26.9612203,23.7206667 C26.7208295,23.561527 26.399699,23.6151571 26.2228926,23.8439704 C26.0460861,24.0727838 26.0727422,24.4002466 26.2841789,24.5968571 L26.2841789,24.5935714 Z" id="Path_19" fill="#000000" fill-rule="nonzero"></path>
            </g>
            <g id="g+" transform="translate(1.000000, 246.000000)" fill="#000000" fill-rule="nonzero">
                <path d="M45.5700935,23 C45.5700935,10.2974508 35.3688806,7.77806814e-16 22.7850467,0 C10.2012129,-7.77806814e-16 1.54107518e-15,10.2974508 0,23 C-1.54107518e-15,35.7025492 10.2012129,46 22.7850467,46 C28.8280168,46 34.6234826,43.5767927 38.8965078,39.263456 C43.1695329,34.9501193 45.5700935,29.0999793 45.5700935,23 Z M2.07126925,23 C2.07126925,11.452173 11.3451433,2.09080952 22.7850467,2.09080952 C34.2249501,2.09080952 43.4988242,11.452173 43.4988242,23 C43.4988242,34.547827 34.2249501,43.9091905 22.7850467,43.9091905 C17.2914114,43.9091905 12.022781,41.7062642 8.13819421,37.7850304 C4.2536074,33.8637965 2.07126925,28.5454621 2.07126925,23 Z" id="Path_11-2"></path>
                <path d="M14.9011974,18.5558737 C14.7723958,19.9834022 15.4141465,21.3713746 16.5851528,22.1979167 C17.3490891,22.653588 18.2245801,22.88811 19.1140022,22.8753317 C19.248152,22.8753317 19.3556385,22.8694991 19.4306291,22.865333 C19.361487,23.6778379 19.5993172,24.486758 20.0972122,25.1325485 L20.0588836,25.1325485 C18.5949007,25.1325485 13.818,25.4383435 13.818,29.3653508 C13.818,33.364849 18.2049496,33.5639906 19.0848392,33.5639906 C19.1539972,33.5639906 19.1939922,33.5639906 19.1939922,33.5639906 C19.1939922,33.5639906 19.2664831,33.5639906 19.3739696,33.5639906 C20.5400607,33.5657586 21.6929063,33.3168326 22.7543788,32.8340822 C24.4689483,32.0549842 25.5237748,30.2974925 25.4048796,28.4179696 C25.4048796,26.4132212 24.0458834,25.2200375 23.0535079,24.3468138 C22.5169223,24.0190485 22.1161742,23.5091668 21.9244829,22.9103273 C22.0314527,22.3991144 22.3446946,21.954727 22.7902076,21.6821481 C23.82666,20.7892972 24.3886974,19.4650447 24.3108502,18.0992643 C24.3108502,16.4436387 24.0958771,15.3312783 22.7727098,14.6271999 C23.0564685,14.5488529 23.346815,14.4966966 23.640101,14.4713862 C24.3566777,14.3738984 25.4048796,14.263079 25.4048796,13.6764859 L25.4048796,13.564 L20.180535,13.564 C20.1355407,13.5723323 14.9011974,13.7656414 14.9011974,18.5558737 Z M23.334306,28.7945891 C23.4342935,30.3927219 22.0677983,31.5717406 20.0155557,31.7208886 C17.9324838,31.8733694 16.2151992,30.9351538 16.116045,29.3395207 C16.0879325,28.5251622 16.4379732,27.7435689 17.0642594,27.2222863 C17.7871791,26.5948932 18.6975078,26.2245503 19.6531012,26.1690851 C19.7714197,26.1607528 19.8880717,26.1565867 20.0047238,26.1565867 C21.9336484,26.1565867 23.2401512,27.2897779 23.334306,28.7945891 Z M21.9703105,17.4626775 C22.4827462,19.2657846 21.7086766,21.1497149 20.475498,21.4971713 C20.3335726,21.5380986 20.1865949,21.558855 20.0388861,21.5588302 C18.9090279,21.5588302 17.7891684,20.4148071 17.372554,18.8408379 C17.1390965,18.0545088 17.1574514,17.2148487 17.4250474,16.4394726 C17.6098696,15.7867025 18.104046,15.2666643 18.7465483,15.0488137 C18.8884967,15.0079942 19.0354592,14.9872399 19.1831602,14.9871548 C20.5521551,14.9871548 21.4278785,15.5529171 21.968644,17.4626775 L21.9703105,17.4626775 Z M30.7725394,21.3888516 L30.7725394,17.9809458 L28.6144769,17.9809458 L28.6144769,21.3888516 L25.2065711,21.3888516 L25.2065711,23.5469141 L28.6144769,23.5469141 L28.6144769,26.9556531 L30.7725394,26.9556531 L30.7725394,23.5469141 L34.1804452,23.5469141 L34.1804452,21.3888516 L30.7725394,21.3888516 Z" id="g_4"></path>
            </g>
            <g id="in" transform="translate(1.000000, 308.000000)" fill="#000000" fill-rule="nonzero">
                <path d="M45.5700935,23 C45.5700935,10.2974508 35.3688806,7.77806814e-16 22.7850467,0 C10.2012129,-7.77806814e-16 1.54107518e-15,10.2974508 0,23 C-1.54107518e-15,35.7025492 10.2012129,46 22.7850467,46 C28.8280168,46 34.6234826,43.5767927 38.8965078,39.263456 C43.1695329,34.9501193 45.5700935,29.0999793 45.5700935,23 Z M2.07126925,23 C2.07126925,11.452173 11.3451433,2.09080952 22.7850467,2.09080952 C34.2249501,2.09080952 43.4988242,11.452173 43.4988242,23 C43.4988242,34.547827 34.2249501,43.9091905 22.7850467,43.9091905 C17.2914114,43.9091905 12.022781,41.7062642 8.13819421,37.7850304 C4.2536074,33.8637965 2.07126925,28.5454621 2.07126925,23 Z" id="Path_11-2"></path>
                <path d="M32.2964093,23.2140698 L32.2964093,30.1773211 L28.261858,30.1773211 L28.261858,23.6843832 C28.261858,22.0528875 27.6778087,20.9393513 26.2176853,20.9393513 C25.2849751,20.9445456 24.4562211,21.5355019 24.1473842,22.4156129 C24.0435522,22.7326835 23.998243,23.0659928 24.0136676,23.3992749 L24.0136676,30.1773211 L19.9775793,30.1773211 C19.9775793,30.1773211 20.0313733,19.1795185 19.9775793,18.0398538 L24.0128991,18.0398538 L24.0128991,19.7604938 C24.0052143,19.7735581 23.9944555,19.7873909 23.9867706,19.7996866 L24.0128991,19.7996866 L24.0128991,19.7566514 C24.7572983,18.4630934 26.158944,17.6904558 27.6501432,17.7516715 C30.3060307,17.7516715 32.2964093,19.4853759 32.2964093,23.2140698 Z M15.7555174,12.1855277 C14.9692334,12.115981 14.2102027,12.4925246 13.7898694,13.1606556 C13.369536,13.8287867 13.3586702,14.6760142 13.7617302,15.3547055 C14.1647903,16.0333967 14.9139144,16.4292827 15.7017234,16.3799241 L15.7286204,16.3799241 C16.5180005,16.4489827 17.2792403,16.0687066 17.6981076,15.3960698 C18.116975,14.7234331 18.1224316,13.8725123 17.712225,13.1945591 C17.3020185,12.5166058 16.5457183,12.1265983 15.7555174,12.1855277 Z M13.7113448,30.1734787 L17.7458961,30.1734787 L17.7458961,18.0352429 L13.7113448,18.0352429 L13.7113448,30.1773211 L13.7113448,30.1734787 Z" id="in-2"></path>
            </g>
            <g id="whatsapp" transform="translate(2.000000, 454.000000)" fill="#000000" fill-rule="nonzero">
                <path d="M45.5700935,23 C45.5700935,10.2974508 35.3688806,7.77806814e-16 22.7850467,0 C10.2012129,-7.77806814e-16 1.54107518e-15,10.2974508 0,23 C-1.54107518e-15,35.7025492 10.2012129,46 22.7850467,46 C28.8280168,46 34.6234826,43.5767927 38.8965078,39.263456 C43.1695329,34.9501193 45.5700935,29.0999793 45.5700935,23 Z M2.07126925,23 C2.07126925,11.452173 11.3451433,2.09080952 22.7850467,2.09080952 C34.2249501,2.09080952 43.4988242,11.452173 43.4988242,23 C43.4988242,34.547827 34.2249501,43.9091905 22.7850467,43.9091905 C17.2914114,43.9091905 12.022781,41.7062642 8.13819421,37.7850304 C4.2536074,33.8637965 2.07126925,28.5454621 2.07126925,23 Z" id="Path_11-2"></path>
                <path d="M33.5,22.0038702 C33.5,27.8045884 28.760989,32.5070373 22.9138651,32.5070373 C21.0583384,32.5070373 19.3153104,32.0324331 17.7979832,31.2013484 L11.9375,33.0625 L13.8478699,27.4256081 C12.8845991,25.8435941 12.3298395,23.985958 12.3298395,22.0031671 C12.3305426,16.2024489 17.0681474,11.5 22.9152713,11.5 C28.7616921,11.5014062 33.5,16.203152 33.5,22.0038702 Z M22.9131619,13.1748255 C18.0061059,13.1748255 14.0145087,17.1361887 14.0145087,22.0059796 C14.0145087,23.9381461 14.6445018,25.7268766 15.7097246,27.1823295 L14.5987992,30.4609658 L18.0173558,29.3746495 C19.4235905,30.2971394 21.1061503,30.8343211 22.9131619,30.8343211 C27.820218,30.8343211 31.8132215,26.873661 31.8132215,22.0038702 C31.8146277,17.1361887 27.8209211,13.1748255 22.9131619,13.1748255 Z M28.2596663,24.423297 C28.1935733,24.3171263 28.0206064,24.2524395 27.7618592,24.1230659 C27.5038152,23.9936923 26.2262509,23.3714335 25.9893004,23.2870594 C25.7502405,23.2005759 25.5772736,23.1569827 25.4043067,23.4150267 C25.2334492,23.6730708 24.7356421,24.2524395 24.5830657,24.4254064 C24.4318954,24.5976701 24.2807252,24.6194668 24.0212749,24.4922025 C23.7618246,24.3614227 22.9251149,24.0914256 21.9337195,23.2146383 C21.1623997,22.5312082 20.6413898,21.6895767 20.4909227,21.4315327 C20.3383462,21.1741917 20.4754541,21.0349745 20.6041245,20.9070071 C20.7201389,20.7909928 20.8635749,20.6060729 20.9936516,20.4549027 C21.1237283,20.3051387 21.1666184,20.1989679 21.2531019,20.0267042 C21.3381791,19.8544404 21.2952889,19.7046764 21.2313052,19.5745997 C21.1666184,19.4452261 20.6484209,18.1796149 20.4311577,17.6642299 C20.2153006,17.149548 19.9994436,17.2346252 19.8475703,17.2346252 C19.6964,17.2346252 19.5234332,17.2135316 19.3504663,17.2135316 C19.1774994,17.2135316 18.8962525,17.2761091 18.6593019,17.5341532 C18.4223514,17.7921972 17.7515774,18.4144561 17.7515774,19.6814736 C17.7515774,20.9498973 18.6803955,22.1726184 18.8104722,22.344179 C18.941252,22.5150365 20.6062339,25.2002417 23.2436271,26.2310118 C25.8824265,27.2610787 25.8824265,26.9172543 26.3577339,26.873661 C26.8344475,26.8300677 27.8933422,26.2514022 28.1084961,25.6509399 C28.3250562,25.0476652 28.3250562,24.530874 28.2596663,24.423297 Z" id="Shape"></path>
            </g>
            <g id="sms" transform="translate(2.000000, 383.000000)" fill="#000000" fill-rule="nonzero">
                <path d="M45.5700935,23 C45.5700935,10.2974508 35.3688806,7.77806814e-16 22.7850467,0 C10.2012129,-7.77806814e-16 1.54107518e-15,10.2974508 0,23 C-1.54107518e-15,35.7025492 10.2012129,46 22.7850467,46 C28.8280168,46 34.6234826,43.5767927 38.8965078,39.263456 C43.1695329,34.9501193 45.5700935,29.0999793 45.5700935,23 Z M2.07126925,23 C2.07126925,11.452173 11.3451433,2.09080952 22.7850467,2.09080952 C34.2249501,2.09080952 43.4988242,11.452173 43.4988242,23 C43.4988242,34.547827 34.2249501,43.9091905 22.7850467,43.9091905 C17.2914114,43.9091905 12.022781,41.7062642 8.13819421,37.7850304 C4.2536074,33.8637965 2.07126925,28.5454621 2.07126925,23 Z" id="Path_11-2"></path>
                <path d="M13.8773551,30.035059 L22.3283061,30.035059 L29.5242082,35.9375 L29.5242082,30.035059 L32.1226449,30.035059 C33.4337857,30.035059 34.5,28.9502937 34.5,27.6164142 L34.5,15.3561447 C34.5,14.0222653 33.4338327,12.9375 32.1226449,12.9375 L13.8773551,12.9375 C12.5662143,12.9375 11.5,14.0222653 11.5,15.3561447 L11.5,27.6163673 C11.5,28.9502467 12.5662143,30.035059 13.8773551,30.035059 Z M28.583649,22.0514433 C27.6585327,21.7399216 27.3012816,21.2368135 27.3103878,20.7056454 C27.3103878,19.8727626 28.0249367,19.2412732 29.132551,19.2412732 C29.6547918,19.2412732 30.121551,19.3598476 30.3967061,19.4973788 L30.1496204,20.4586429 C29.9481592,20.3484677 29.5635429,20.2018334 29.1788796,20.2018334 C28.8398408,20.2018334 28.6475327,20.3393647 28.6475327,20.5681142 C28.6475327,20.7786106 28.8215816,20.8887858 29.3711878,21.0810292 C30.2226102,21.3736409 30.5798612,21.8044407 30.5890143,22.4633331 C30.5890143,23.2962159 29.9299469,23.9094523 28.6475327,23.9094523 C28.0614551,23.9094523 27.5392143,23.781728 27.2009265,23.5986345 L27.4480122,22.6008644 C27.7042041,22.7566487 28.235551,22.939789 28.6475796,22.939789 C29.0687143,22.939789 29.2428102,22.7931547 29.2428102,22.5644052 C29.2427633,22.3349519 29.1051857,22.2254806 28.583649,22.0514433 Z M20.7188224,19.3416415 L20.7827061,19.9457748 L20.8100714,19.9457748 C21.0023796,19.6623131 21.396149,19.2413201 22.1654286,19.2413201 C22.7424,19.2413201 23.2000531,19.5339318 23.3923612,20.0005339 L23.4106204,20.0005339 C23.5755633,19.7717844 23.7770245,19.588644 23.9875918,19.4609666 C24.2353816,19.3143323 24.5097857,19.2413671 24.8397184,19.2413671 C25.7002469,19.2413671 26.3509122,19.8455004 26.3509122,21.1814913 L26.3509122,23.8183748 L24.9955551,23.8183748 L24.9955551,21.3835886 C24.9955551,20.7331423 24.7842837,20.3577585 24.3357837,20.3577585 C24.0157082,20.3577585 23.7861776,20.577358 23.6949286,20.8433174 C23.6584102,20.9436387 23.640198,21.09032 23.640198,21.2004482 L23.640198,23.8183748 L22.2848408,23.8183748 L22.2848408,21.3099195 C22.2848408,20.7422453 22.0833796,20.3577585 21.6432816,20.3577585 C21.2866878,20.3577585 21.0754163,20.632821 20.9933204,20.8615705 C20.9476959,20.9710418 20.9385898,21.099423 20.9385898,21.2095982 L20.9385898,23.8184217 L19.5832327,23.8184217 L19.5832327,20.7696953 C19.5832327,20.211875 19.5649735,19.7354191 19.5467143,19.3417822 L20.7188224,19.3417822 L20.7188224,19.3416415 Z M16.7362082,22.0514433 C15.8110918,21.7399216 15.4538408,21.2368135 15.4629469,20.7056454 C15.4629469,19.8727626 16.1774959,19.2412732 17.2851102,19.2412732 C17.807351,19.2412732 18.2748143,19.3598476 18.5492184,19.4973788 L18.3021327,20.4586429 C18.1006714,20.3484677 17.7160551,20.2018334 17.3313918,20.2018334 C16.9923531,20.2018334 16.8000449,20.3393647 16.8000449,20.5681142 C16.8000449,20.7786106 16.9740939,20.8887858 17.5237,21.0810292 C18.3751224,21.3736409 18.7323735,21.8044407 18.7415265,22.4633331 C18.7415265,23.2962159 18.0824592,23.9094523 16.8000449,23.9094523 C16.2139673,23.9094523 15.6917265,23.781728 15.3534388,23.5986345 L15.6005245,22.6008644 C15.8567163,22.7566487 16.3880633,22.939789 16.8000918,22.939789 C17.2212265,22.939789 17.3953224,22.7931547 17.3953224,22.5644052 C17.3953224,22.3349519 17.2577449,22.2254806 16.7362082,22.0514433 Z" id="Shape"></path>
            </g>
            <g id="font" transform="translate(1.020027, 524.874429)" fill-rule="nonzero">
                <path d="M46.5500668,23.1255714 C46.5500668,10.4230222 36.3488539,0.125571429 23.76502,0.125571429 C11.1811862,0.125571429 0.979973298,10.4230222 0.979973298,23.1255714 C0.979973298,35.8281207 11.1811862,46.1255714 23.76502,46.1255714 C29.8079901,46.1255714 35.6034559,43.7023641 39.8764811,39.3890274 C44.1495062,35.0756907 46.5500668,29.2255507 46.5500668,23.1255714 Z M3.05124255,23.1255714 C3.05124255,11.5777444 12.3251166,2.21638095 23.76502,2.21638095 C35.2049234,2.21638095 44.4787975,11.5777444 44.4787975,23.1255714 C44.4787975,34.6733985 35.2049234,44.0347619 23.76502,44.0347619 C18.2713847,44.0347619 13.0027543,41.8318357 9.11816751,37.9106018 C5.23358069,33.9893679 3.05124255,28.6710335 3.05124255,23.1255714 Z" id="Path_11-5" fill="#000000"></path>
                <path d="M22.2069568,25.9589524 L18.2315087,25.9589524 L17.2419866,29.6937143 L14,29.6937143 L18.2315087,15.8170476 L22.3545171,15.8170476 L25.9241745,27.2666667 L28.2590992,19.7095238 L31.2580454,19.7095238 L34.4045518,29.6937143 L31.9307468,29.6937143 L31.1506302,26.9775238 L28.2590992,26.9775238 L27.5397428,29.6937143 L23.278939,29.6937143 L22.2069568,25.9589524 Z M18.6806996,23.7016667 L21.7534259,23.7016667 L20.8854241,20.7532857 L20.5208634,19.4127143 L20.1845127,18.0732381 L20.1443676,18.0732381 L19.832972,19.4247619 L19.5074713,20.7872381 L18.6806996,23.7016667 Z M28.5889399,25.3445238 L30.8229595,25.3445238 L30.1925732,23.2000476 L29.9267477,22.2252857 L29.6826222,21.251619 L29.6522421,21.251619 L29.4254766,22.2373333 L29.1878611,23.2230476 L28.5889399,25.3445238 Z M27.0797018,15.8170476 L32.2356324,15.8170476 L29.6576671,18.4193333 L27.0797018,15.8170476 Z" id="Path_25" fill="#010002"></path>
            </g>
        </g>
    </g>
</svg>