<?xml version="1.0" encoding="UTF-8" standalone="no"?>
<svg width="300px" height="310px" viewBox="0 0 300 310" version="1.1" xmlns="http://www.w3.org/2000/svg" xmlns:xlink="http://www.w3.org/1999/xlink" xmlns:sketch="http://www.bohemiancoding.com/sketch/ns">
    <!-- Generator: Sketch 3.4.2 (15855) - http://www.bohemiancoding.com/sketch -->
    <title>DECK shape Copy 2 + DECK shape Copy + Rectangle 309</title>
    <desc>Created with Sketch.</desc>
    <defs></defs>
    <g id="Home-Page" stroke="none" stroke-width="1" fill="none" fill-rule="evenodd" sketch:type="MSPage">
        <g id="Desktop-/-Desktop-Home-Page" sketch:type="MSArtboardGroup" transform="translate(-741.000000, -3281.000000)">
            <g id="Group" sketch:type="MSLayerGroup" transform="translate(60.000000, 2858.000000)">
                <g transform="translate(681.000000, 423.000000)" id="DECK-shape-Copy-2-+-DECK-shape-Copy-+-DECK-shape" sketch:type="MSShapeGroup">
                    <g>
                        <g id="DECK-shape-Copy-2-+-DECK-shape-Copy-+-Rectangle-309">
                            <g id="DECK-shape-Copy-2" transform="translate(16.000000, 0.819014)" fill="#D4D1B2">
                                <path d="M0,0 L244.140351,0 L244.140351,39.7362254 L0,39.7362254 L0,0 Z M0,39.7362254 L284,39.7362254 L284,293.054662 L0,293.054662 L0,39.7362254 Z M244.140351,0 L284,39.7362254 L244.140351,39.7362254 L244.140351,0 Z" id="Rectangle-309"></path>
                            </g>
                            <g id="DECK-shape-Copy" transform="translate(8.000000, 8.793291)" fill="#DDDAC1">
                                <path d="M0,0 L244.140351,0 L244.140351,39.7362254 L0,39.7362254 L0,0 Z M0,39.7362254 L284,39.7362254 L284,293.054662 L0,293.054662 L0,39.7362254 Z M244.140351,0 L284,39.7362254 L244.140351,39.7362254 L244.140351,0 Z" id="Rectangle-309"></path>
                            </g>
                            <path d="M0,16.9453376 L244.140351,16.9453376 L244.140351,56.681563 L0,56.681563 L0,16.9453376 Z M0,56.681563 L284,56.681563 L284,310 L0,310 L0,56.681563 Z M244.140351,16.9453376 L284,56.681563 L244.140351,56.681563 L244.140351,16.9453376 Z" id="Rectangle-309" fill="#E9E8D8"></path>
                        </g>
                    </g>
                </g>
            </g>
        </g>
    </g>
</svg>