<?xml version="1.0" encoding="UTF-8" standalone="no"?>
<svg width="104px" height="137px" viewBox="0 0 104 137" version="1.1" xmlns="http://www.w3.org/2000/svg" xmlns:xlink="http://www.w3.org/1999/xlink" xmlns:sketch="http://www.bohemiancoding.com/sketch/ns">
    <!-- Generator: Sketch 3.4.2 (15855) - http://www.bohemiancoding.com/sketch -->
    <title>FRESH CATCH</title>
    <desc>Created with Sketch.</desc>
    <defs></defs>
    <g id="Article-Page" stroke="none" stroke-width="1" fill="none" fill-rule="evenodd" sketch:type="MSPage">
        <g id="Desktop-/-Desktop-Article-Page-CN" sketch:type="MSArtboardGroup" transform="translate(-1272.000000, -2589.000000)" fill="#FFFFFF">
            <g id="Desktop-/-Subscribe-widget" sketch:type="MSLayerGroup" transform="translate(1080.000000, 2589.000000)">
                <path d="M257.749762,104.390553 C253.977391,104.390553 250.921759,101.337371 250.921759,97.5637753 C250.921759,93.7987558 253.977391,90.7394478 257.749762,90.7394478 C261.523358,90.7394478 264.57654,93.7987558 264.57654,97.5637753 C264.57654,101.337371 261.523358,104.390553 257.749762,104.390553 M226.310073,101.381478 L243.722522,108.259714 L226.310073,115.13795 C237.53652,128.205864 252.019532,133.72291 267.668928,135.84372 C270.315346,126.976995 271.661834,117.715757 271.661834,108.259714 C271.661834,98.8012207 270.315346,89.5399834 267.668928,80.6757087 C252.019532,82.7965186 237.53652,88.3123395 226.310073,101.381478 Z M273.227508,80.6750961 C275.831044,89.6508634 277.171406,98.97091 277.171406,108.467385 C277.171406,117.965084 275.831044,127.283906 273.227508,136.259673 C275.660743,136.24252 278.071923,136.083245 280.461051,135.814928 C282.937167,126.991084 284.243223,117.827863 284.243223,108.467385 C284.243223,99.1056813 282.937167,89.9436846 280.461051,81.1198413 C278.071923,80.8527492 275.660743,80.6922488 273.227508,80.6750961 Z M212.972862,100.203455 C212.972862,104.631304 209.35364,108.233373 204.904963,108.233373 C200.456285,108.233373 196.838289,104.617827 196.838289,100.17405 C196.838289,98.0287363 197.675096,96.013293 199.198012,94.4965035 L203.222772,90.4864453 C205.663357,88.0593371 207.006169,84.8285019 207.006169,81.3930595 L207.890602,0.226654053 L203.053538,0.226654053 L202.169106,81.3942847 C202.170331,83.537148 201.329848,85.5525913 199.806933,87.0669304 L195.782172,91.0782138 C193.342812,93.5077724 192,96.7484091 192,100.203455 C192,107.292424 197.787814,113.060635 204.904963,113.060635 C212.019661,113.060635 217.807475,107.292424 217.807475,100.203455 L217.807475,98.7834554 L217.644524,94.113018 L212.972862,100.203455 Z M292.512298,82.371744 C290.478477,81.6929868 288.40545,81.1355238 286.31527,80.6748511 C288.219221,89.2230258 289.247158,98.0297164 289.247158,106.999358 C289.247158,115.966549 288.219221,124.773239 286.31527,133.321414 C288.40545,132.861966 290.473577,132.304503 292.512298,131.625746 C294.370917,123.639935 295.3719,115.401734 295.3719,106.999358 C295.3719,98.5945306 294.370917,90.357555 292.512298,82.371744 Z" id="FRESH-CATCH" sketch:type="MSShapeGroup"></path>
            </g>
        </g>
    </g>
</svg>