<?xml version="1.0" encoding="UTF-8" standalone="no"?>
<svg width="15px" height="15px" viewBox="0 0 15 15" version="1.1" xmlns="http://www.w3.org/2000/svg" xmlns:xlink="http://www.w3.org/1999/xlink">
    <!-- Generator: Sketch 3.6 (26304) - http://www.bohemiancoding.com/sketch -->
    <title>Fill 4</title>
    <desc>Created with Sketch.</desc>
    <defs></defs>
    <g id="Article-Page" stroke="none" stroke-width="1" fill="none" fill-rule="evenodd">
        <g id="Mobile-/-Mobile-Article-Page" transform="translate(-279.000000, -7.000000)" fill="#FFFFFF">
            <g id="Mobile-/-Header-Sticky">
                <path d="M286.6365,7 C282.569,7 279.2725,10.27175 279.2725,14.30675 C279.2725,15.68675 279.65875,16.97875 280.32925,18.07975 L279,22 L283.077,20.7045 C284.13225,21.284 285.345,21.6135 286.6365,21.6135 C290.7035,21.6135 294,18.3425 294,14.30675 C294,10.27175 290.7035,7 286.6365,7 Z M290.2495,16.8415 C290.0985,17.25925 289.36175,17.6635 289.031,17.69275 C288.7,17.7225 288.7,17.962 286.86525,17.24525 C285.02975,16.528 283.872,14.6605 283.78125,14.541 C283.69125,14.42175 283.045,13.57025 283.045,12.689 C283.045,11.80775 283.51075,11.37425 283.676,11.195 C283.84125,11.016 284.03675,10.9715 284.15725,10.9715 C284.278,10.9715 284.398,10.9865 284.50325,10.9865 C284.60925,10.9865 284.759,10.926 284.90925,11.285 C285.05975,11.6435 285.42125,12.52475 285.46575,12.61425 C285.51125,12.70425 285.542,12.8085 285.481,12.928 C285.42125,13.0475 285.39125,13.1225 285.301,13.2265 C285.2105,13.33125 285.111,13.4605 285.02975,13.54075 C284.94,13.62975 284.84575,13.7265 284.951,13.90575 C285.05625,14.0855 285.41875,14.67125 285.95525,15.14625 C286.64425,15.75575 287.226,15.94525 287.406,16.03475 C287.58675,16.124 287.692,16.109 287.79775,15.98975 C287.903,15.87 288.249,15.467 288.36925,15.28775 C288.4895,15.10825 288.60975,15.1385 288.7755,15.198 C288.9405,15.25725 289.82775,15.691 290.00825,15.78025 C290.18925,15.87 290.309,15.91475 290.35475,15.98975 C290.39975,16.0645 290.39975,16.423 290.2495,16.8415 Z" id="Fill-4"></path>
            </g>
        </g>
    </g>
</svg>