<?xml version="1.0" encoding="UTF-8" standalone="no"?>
<svg width="30px" height="31px" viewBox="0 0 30 31" version="1.1" xmlns="http://www.w3.org/2000/svg" xmlns:xlink="http://www.w3.org/1999/xlink" xmlns:sketch="http://www.bohemiancoding.com/sketch/ns">
    <!-- Generator: Sketch 3.4.2 (15855) - http://www.bohemiancoding.com/sketch -->
    <title>Fill 10</title>
    <desc>Created with Sketch.</desc>
    <defs></defs>
    <g id="Home-Page" stroke="none" stroke-width="1" fill="none" fill-rule="evenodd" sketch:type="MSPage">
        <g id="iPad-V-/-iPad-V-Wire" sketch:type="MSArtboardGroup" transform="translate(-342.000000, -1826.000000)" fill="#43D854">
            <g id="Group-Copy-7" sketch:type="MSLayerGroup" transform="translate(234.000000, 1826.933333)">
                <g id="Social-Media-Icon/-Whatsapp-Colored" transform="translate(108.000000, 0.000000)" sketch:type="MSShapeGroup">
                    <g id="Social-/-Whatsapp-/-30-fill">
                        <path d="M22.5,19.359918 C22.1975,20.1812295 20.7225,20.9784426 20.0635,21.0359836 C19.3995,21.0935246 19.3995,21.5641803 15.7325,20.1571311 C12.0605,18.7451639 9.746,15.0709016 9.5605,14.8358197 C9.38,14.6002459 8.091,12.9241803 8.091,11.1905738 C8.091,9.45647541 9.0235,8.60663934 9.3505,8.25106557 C9.6825,7.90040984 10.073,7.81385246 10.3125,7.81385246 C10.5565,7.81385246 10.796,7.84286885 11.006,7.84286885 C11.2205,7.84286885 11.5185,7.72286885 11.8165,8.42860656 C12.119,9.13483607 12.842,10.8684426 12.9295,11.0464754 C13.0225,11.2240164 13.086,11.4256557 12.964,11.6612295 C12.842,11.8963115 12.783,12.0453279 12.6025,12.2469672 C12.422,12.4535246 12.2215,12.7082787 12.0605,12.8666393 C11.88,13.0392623 11.6895,13.2315574 11.8995,13.5871311 C12.1145,13.9377869 12.837,15.090082 13.911,16.0269672 C15.288,17.222541 16.45,17.5972951 16.8115,17.7748361 C17.173,17.9479508 17.383,17.9189344 17.5975,17.6838525 C17.8075,17.4482787 18.496,16.6559836 18.74,16.3053279 C18.9795,15.9497541 19.2185,16.0077869 19.551,16.1277869 C19.883,16.2428689 21.6555,17.097623 22.0165,17.2756557 C22.378,17.4482787 22.617,17.5348361 22.71,17.6838525 C22.798,17.8328689 22.798,18.5386066 22.5,19.359918 M15.2735,8.19672132e-05 C7.1385,8.19672132e-05 0.547,6.43581967 0.547,14.3745082 C0.547,17.0882787 1.3185,19.6289344 2.661,21.7948361 L0,29.5082787 L8.1545,26.9577869 C10.2635,28.1007377 12.6905,28.7494262 15.2735,28.7494262 C23.408,28.7494262 30,22.3136885 30,14.3745082 C30,6.43581967 23.408,8.19672132e-05 15.2735,8.19672132e-05" id="Fill-10"></path>
                    </g>
                </g>
            </g>
        </g>
    </g>
</svg>