<svg xmlns="http://www.w3.org/2000/svg" xmlns:xlink="http://www.w3.org/1999/xlink" width="72.843" height="44.618" viewBox="0 0 72.843 44.618">
  <defs>
    <filter id="Path_18" x="0" y="0" width="18.756" height="25.791" filterUnits="userSpaceOnUse">
      <feOffset dy="1" input="SourceAlpha"/>
      <feGaussianBlur stdDeviation="0.5" result="blur"/>
      <feFlood flood-opacity="0.259"/>
      <feComposite operator="in" in2="blur"/>
      <feComposite in="SourceGraphic"/>
    </filter>
    <filter id="Path_19" x="14.147" y="22.321" width="15.05" height="22.298" filterUnits="userSpaceOnUse">
      <feOffset dy="1" input="SourceAlpha"/>
      <feGaussianBlur stdDeviation="0.5" result="blur-2"/>
      <feFlood flood-opacity="0.18"/>
      <feComposite operator="in" in2="blur-2"/>
      <feComposite in="SourceGraphic"/>
    </filter>
    <filter id="Path_20" x="27.688" y="2.323" width="15.8" height="20.396" filterUnits="userSpaceOnUse">
      <feOffset dy="1" input="SourceAlpha"/>
      <feGaussianBlur stdDeviation="0.5" result="blur-3"/>
      <feFlood flood-opacity="0.18"/>
      <feComposite operator="in" in2="blur-3"/>
      <feComposite in="SourceGraphic"/>
    </filter>
    <filter id="Path_21" x="27.17" y="22.435" width="15.334" height="14.118" filterUnits="userSpaceOnUse">
      <feOffset dy="1" input="SourceAlpha"/>
      <feGaussianBlur stdDeviation="0.5" result="blur-4"/>
      <feFlood flood-opacity="0.18"/>
      <feComposite operator="in" in2="blur-4"/>
      <feComposite in="SourceGraphic"/>
    </filter>
    <filter id="Path_22" x="48.208" y="22.454" width="15.871" height="14" filterUnits="userSpaceOnUse">
      <feOffset dy="1" input="SourceAlpha"/>
      <feGaussianBlur stdDeviation="0.5" result="blur-5"/>
      <feFlood flood-opacity="0.18"/>
      <feComposite operator="in" in2="blur-5"/>
      <feComposite in="SourceGraphic"/>
    </filter>
    <filter id="Path_23" x="62.567" y="18.843" width="10.275" height="17.637" filterUnits="userSpaceOnUse">
      <feOffset dy="1" input="SourceAlpha"/>
      <feGaussianBlur stdDeviation="0.5" result="blur-6"/>
      <feFlood flood-opacity="0.18"/>
      <feComposite operator="in" in2="blur-6"/>
      <feComposite in="SourceGraphic"/>
    </filter>
    <filter id="Path_24" x="21.029" y="5.07" width="10.3" height="17.628" filterUnits="userSpaceOnUse">
      <feOffset dy="1" input="SourceAlpha"/>
      <feGaussianBlur stdDeviation="0.5" result="blur-7"/>
      <feFlood flood-opacity="0.18"/>
      <feComposite operator="in" in2="blur-7"/>
      <feComposite in="SourceGraphic"/>
    </filter>
    <filter id="Path_25" x="41.721" y="8.646" width="12.47" height="14.07" filterUnits="userSpaceOnUse">
      <feOffset dy="1" input="SourceAlpha"/>
      <feGaussianBlur stdDeviation="0.5" result="blur-8"/>
      <feFlood flood-opacity="0.18"/>
      <feComposite operator="in" in2="blur-8"/>
      <feComposite in="SourceGraphic"/>
    </filter>
    <filter id="Path_26" x="40.898" y="22.465" width="9.212" height="14.06" filterUnits="userSpaceOnUse">
      <feOffset dy="1" input="SourceAlpha"/>
      <feGaussianBlur stdDeviation="0.5" result="blur-9"/>
      <feFlood flood-opacity="0.18"/>
      <feComposite operator="in" in2="blur-9"/>
      <feComposite in="SourceGraphic"/>
    </filter>
    <filter id="Path_27" x="20.354" y="31.613" width="3.055" height="3.073" filterUnits="userSpaceOnUse">
      <feOffset dy="1" input="SourceAlpha"/>
      <feGaussianBlur stdDeviation="0.5" result="blur-10"/>
      <feFlood flood-opacity="0.18"/>
      <feComposite operator="in" in2="blur-10"/>
      <feComposite in="SourceGraphic"/>
    </filter>
    <filter id="Path_28" x="53.417" y="25.881" width="3" height="3" filterUnits="userSpaceOnUse">
      <feOffset dy="1" input="SourceAlpha"/>
      <feGaussianBlur stdDeviation="0.5" result="blur-11"/>
      <feFlood flood-opacity="0.18"/>
      <feComposite operator="in" in2="blur-11"/>
      <feComposite in="SourceGraphic"/>
    </filter>
  </defs>
  <g id="Group_26740" data-name="Group 26740" transform="translate(-14000.15 -3863.539)">
    <g transform="matrix(1, 0, 0, 1, 14000.15, 3863.54)" filter="url(#Path_18)">
      <path id="Path_18-2" data-name="Path 18" d="M15.746,22.781,14.3,21.217c-1.908-2.086-3.866-4.165-5.78-6.269a1.094,1.094,0,0,0-.89-.388c-1.164,0-2.334-.038-3.5-.108a4.623,4.623,0,0,1-2.308-.706A3.936,3.936,0,0,1,.156,11.2,8.158,8.158,0,0,1,0,9.256V7.476C0,6.433.035,5.4.073,4.354a8.724,8.724,0,0,1,.28-2.181A2.785,2.785,0,0,1,2.686.094,7.993,7.993,0,0,1,4.74.037Q6.164.145,7.576.342a33.064,33.064,0,0,1,3.319.572,3.86,3.86,0,0,1,2.836,2.543A15.973,15.973,0,0,1,14.367,6c.305,1.488.579,2.976.846,4.451a5.017,5.017,0,0,1,0,1.958,2.276,2.276,0,0,1-1.666,1.768l-.261.07c-.223.051-.223.051-.159.254l2.588,8.183v.1Z" transform="translate(1.51 0.5)" fill="#febf0f"/>
    </g>
    <g transform="matrix(1, 0, 0, 1, 14000.15, 3863.54)" filter="url(#Path_19)">
      <path id="Path_19-2" data-name="Path 19" d="M28.445,44.441a3.891,3.891,0,0,1-1.176,1.31,3.179,3.179,0,0,1-4.883-1.908,5.57,5.57,0,0,1,.114-2.957,7.8,7.8,0,0,1,3.529-4.75,5.831,5.831,0,0,1,3.135-.877,1.825,1.825,0,0,1,1.825,1.246,7.154,7.154,0,0,0,.369-.636.636.636,0,0,1,.515-.369c.782-.114,1.558-.261,2.334-.4h.083l-.757,2.4q-2.607,8.342-5.227,16.7c-.045.134-.089.191-.242.191H25.521c-.165,0-.184-.038-.14-.191q1.412-4.451,2.81-8.845c.1-.3.178-.591.267-.89,0,0,.038-.057,0-.07S28.445,44.421,28.445,44.441Zm-3.421-.5a4.687,4.687,0,0,0,.038.636.935.935,0,0,0,1.272.909,2.327,2.327,0,0,0,1.214-.788,9.652,9.652,0,0,0,1.908-3.4c.407-1.17.757-2.353,1.138-3.529a1.208,1.208,0,0,0,.045-.6,1.539,1.539,0,0,0-2.1-1.214A2.95,2.95,0,0,0,27.263,37a9.569,9.569,0,0,0-1.418,2.823,14.122,14.122,0,0,0-.82,4.114Z" transform="translate(-6.59 -12.28)" fill="#35144f"/>
    </g>
    <g transform="matrix(1, 0, 0, 1, 14000.15, 3863.54)" filter="url(#Path_20)">
      <path id="Path_20-2" data-name="Path 20" d="M48.739,13.308c.07,0,.083-.1.114-.153a8.628,8.628,0,0,1,1.971-2.365,3.491,3.491,0,0,1,2.823-.757,1.85,1.85,0,0,1,1.571,1.736,6.664,6.664,0,0,1-.451,2.842c-.35,1.011-.852,1.965-1.272,2.944a5.087,5.087,0,0,0-.369,1.081,1.621,1.621,0,0,0,0,.731.687.687,0,0,0,.718.553,1.685,1.685,0,0,0,1.272-.6,4.8,4.8,0,0,0,.636-.909c.051-.1.108-.114.2-.064l.1.045c.343.14.35.146.153.477a4.209,4.209,0,0,1-2.995,2.111,2.391,2.391,0,0,1-1.958-.4,1.8,1.8,0,0,1-.687-1.45,5.385,5.385,0,0,1,.464-2.1c.35-.9.795-1.768,1.106-2.683a5.373,5.373,0,0,0,.337-1.806,2.1,2.1,0,0,0-.051-.426.68.68,0,0,0-.808-.566,2.149,2.149,0,0,0-1.316.668,10.078,10.078,0,0,0-1.437,1.939c-.089.14-.165.292-.261.432a11.668,11.668,0,0,0-1.335,3.325c-.286.9-.572,1.812-.846,2.721a.191.191,0,0,1-.229.159H43.7c-.159,0-.191,0-.14-.191q1.437-4.584,2.861-9.169l2.143-6.88c.064-.2.051-.216-.159-.216H47.22c-.114,0-.146,0-.114-.14.114-.458.114-.464.585-.477l3.376-.07H51.5c.223,0,.223,0,.153.216L50.768,6.7l-2,6.441C48.752,13.188,48.714,13.245,48.739,13.308Z" transform="translate(-14.35 -0.83)" fill="#35144f"/>
    </g>
    <g transform="matrix(1, 0, 0, 1, 14000.15, 3863.54)" filter="url(#Path_21)">
      <path id="Path_21-2" data-name="Path 21" d="M49.542,42.968c-.134.216-.261.426-.394.636a7.63,7.63,0,0,1-1.908,2.13,3.1,3.1,0,0,1-2.8.477,1.965,1.965,0,0,1-1.4-1.812,6.994,6.994,0,0,1,.388-2.543c.343-1.1.846-2.13,1.272-3.179a7.288,7.288,0,0,0,.362-1.049,1.857,1.857,0,0,0,0-.82.483.483,0,0,0-.636-.432,1.412,1.412,0,0,0-.636.5,3.517,3.517,0,0,0-.458.706c-.045.089-.089.108-.178.07a2.653,2.653,0,0,0-.356-.121c-.1,0-.1-.076-.057-.153a3.389,3.389,0,0,1,2.543-2.047,2.753,2.753,0,0,1,1.208.051,1.66,1.66,0,0,1,1.272,1.513,4.6,4.6,0,0,1-.42,2.181c-.337.846-.719,1.679-1.062,2.543a5.723,5.723,0,0,0-.471,2.035,2.092,2.092,0,0,0,.038.5.718.718,0,0,0,.884.636,2.365,2.365,0,0,0,1.494-.916,14.134,14.134,0,0,0,1.5-2.206c.089-.153.172-.318.267-.464a8.03,8.03,0,0,0,.814-2.136c.362-1.119.706-2.245,1.049-3.37a.178.178,0,0,1,.184-.153l2.6-.127c.172,0,.165.045.127.184q-.909,2.887-1.812,5.78-.483,1.545-.966,3.1c-.153.49.045.744.553.769a1.52,1.52,0,0,0,1.316-.636,5.627,5.627,0,0,0,.547-.839c.045-.083.089-.108.178-.07a3.967,3.967,0,0,0,.388.134c.076,0,.1.057.051.127a4.158,4.158,0,0,1-2.944,2.384,2.423,2.423,0,0,1-1.812-.324,1.939,1.939,0,0,1-.865-1.5,3.815,3.815,0,0,1,.121-1.335A.242.242,0,0,0,49.542,42.968Z" transform="translate(-14.05 -12.35)" fill="#35144f"/>
    </g>
    <g transform="matrix(1, 0, 0, 1, 14000.15, 3863.54)" filter="url(#Path_22)">
      <path id="Path_22-2" data-name="Path 22" d="M81.054,38.686c.121-.191.235-.375.35-.553a7.973,7.973,0,0,1,1.812-2.047,3.612,3.612,0,0,1,2.607-.757,1.908,1.908,0,0,1,1.761,1.908,7.249,7.249,0,0,1-.566,2.963c-.362.973-.852,1.908-1.272,2.855a4.228,4.228,0,0,0-.318,1.043,1.468,1.468,0,0,0,.038.553.687.687,0,0,0,.744.566,1.812,1.812,0,0,0,1.38-.769,4.222,4.222,0,0,0,.49-.706c.064-.127.14-.14.248-.076h.051c.362.146.369.153.159.5a4.235,4.235,0,0,1-2.982,2.1A2.759,2.759,0,0,1,84.24,46.2a1.908,1.908,0,0,1-1.361-2.086,8.679,8.679,0,0,1,.795-2.543,16.436,16.436,0,0,0,.96-2.543,4.679,4.679,0,0,0,.14-1.272c0-.75-.394-1.036-1.125-.858a2.226,2.226,0,0,0-1.017.636A9.7,9.7,0,0,0,81.175,39.5c-.2.324-.369.636-.572.973a8.1,8.1,0,0,0-.795,2.047q-.553,1.717-1.075,3.44a.2.2,0,0,1-.229.165H75.961c-.146,0-.184,0-.134-.178q1.373-4.165,2.7-8.342a1.665,1.665,0,0,0,.089-.477.636.636,0,0,0-.928-.636,1.272,1.272,0,0,0-.547.42,3.435,3.435,0,0,0-.445.744c-.045.1-.1.14-.2.083h-.083c-.375-.127-.382-.134-.184-.471a3.535,3.535,0,0,1,2.543-1.857,2.245,2.245,0,0,1,1.45.178,1.908,1.908,0,0,1,.979,1.628,4.178,4.178,0,0,1-.114,1.335A.254.254,0,0,0,81.054,38.686Zm-.038.051Z" transform="translate(-26.1 -12.36)" fill="#35144f"/>
    </g>
    <g transform="matrix(1, 0, 0, 1, 14000.15, 3863.54)" filter="url(#Path_23)">
      <path id="Path_23-2" data-name="Path 23" d="M100.787,33.871H99.179c-.178,0-.191-.051-.153-.2.114-.451.108-.451.572-.451h1.221c.14,0,.191-.051.229-.178q.477-1.574.96-3.135a.21.21,0,0,1,.229-.178c.852,0,1.71-.051,2.543-.1.165,0,.172.038.127.178-.343,1.062-.68,2.13-1.024,3.179-.07.216-.07.216.159.216h1.488c.121,0,.153,0,.127.153-.089.5-.1.5-.6.5h-1.272c-.108,0-.165,0-.2.14q-1.3,4.165-2.62,8.323a1.1,1.1,0,0,0-.057.331.483.483,0,0,0,.509.509,1.768,1.768,0,0,0,1.437-.725,4.572,4.572,0,0,0,.521-.769c.057-.1.114-.114.21-.07s.369.089.407.191-.114.286-.2.42a3.936,3.936,0,0,1-2.626,1.977,3.065,3.065,0,0,1-1.227.038,1.908,1.908,0,0,1-1.513-1.64,3.98,3.98,0,0,1,.178-1.838l2.136-6.727A1.5,1.5,0,0,0,100.787,33.871Z" transform="translate(-34.32 -10.29)" fill="#35144f"/>
    </g>
    <g transform="matrix(1, 0, 0, 1, 14000.15, 3863.54)" filter="url(#Path_24)">
      <path id="Path_24-2" data-name="Path 24" d="M39.241,12.186H38.5c-.248,0-.216.038-.261.191q-1.056,3.389-2.124,6.772l-.471,1.507a1.4,1.4,0,0,0-.057.242.5.5,0,0,0,.521.6,1.73,1.73,0,0,0,1.348-.636A4.8,4.8,0,0,0,38.1,20c.051-.089.1-.108.178-.064h.051c.134.057.356.07.382.184s-.114.261-.191.388a3.936,3.936,0,0,1-2.632,2,2.639,2.639,0,0,1-1.64-.083,1.946,1.946,0,0,1-1.176-1.717A4.979,4.979,0,0,1,33.4,18.69c.674-2.1,1.335-4.2,2.009-6.3.045-.146,0-.184-.127-.178H33.824c-.153,0-.165-.057-.14-.178.1-.477.1-.477.591-.477h1.2a.218.218,0,0,0,.248-.184q.477-1.574.954-3.135a.2.2,0,0,1,.216-.172l2.582-.1c.14,0,.172,0,.127.165-.35,1.075-.687,2.149-1.036,3.224-.045.146-.045.2.14.2h1.507c.134,0,.165.038.14.165-.1.49-.1.49-.591.49Z" transform="translate(-10.53 -2.4)" fill="#35144f"/>
    </g>
    <g transform="matrix(1, 0, 0, 1, 14000.15, 3863.54)" filter="url(#Path_25)">
      <path id="Path_25-2" data-name="Path 25" d="M65.608,20.541a7.2,7.2,0,0,1,4.349-6.562,4.775,4.775,0,0,1,3.605-.064,2.225,2.225,0,0,1,1.456,1.647,2.276,2.276,0,0,1-.8,2.283,5.386,5.386,0,0,1-2.276,1.125,11.668,11.668,0,0,1-3.052.356.2.2,0,0,0-.235.172,9.2,9.2,0,0,0-.451,2.963,2.822,2.822,0,0,0,.114.763,1.068,1.068,0,0,0,1.03.8,4.063,4.063,0,0,0,2.868-.928,9.055,9.055,0,0,0,1-.941c.083-.089.127-.089.2,0,.267.331.273.324,0,.636a5.525,5.525,0,0,1-2.715,1.7,4.088,4.088,0,0,1-3.484-.54,3.815,3.815,0,0,1-1.539-2.467A4.031,4.031,0,0,1,65.608,20.541Zm3.236-1.825a6.034,6.034,0,0,0,2.264-.286,2.047,2.047,0,0,0,1.2-1,4.069,4.069,0,0,0,.267-2.607.636.636,0,0,0-.636-.54,1.59,1.59,0,0,0-1.272.362,3.065,3.065,0,0,0-.7.9,10.32,10.32,0,0,0-.738,1.844c-.121.439-.248.877-.388,1.329Z" transform="translate(-22.38 -4.45)" fill="#35144f"/>
    </g>
    <g transform="matrix(1, 0, 0, 1, 14000.15, 3863.54)" filter="url(#Path_26)">
      <path id="Path_26-2" data-name="Path 26" d="M64.66,44.288a6.358,6.358,0,0,1,.56-2.4c.35-.865.782-1.691,1.157-2.543a6.485,6.485,0,0,0,.54-1.679,2,2,0,0,0,0-.712.636.636,0,0,0-.947-.432,2.442,2.442,0,0,0-.738.674,3.486,3.486,0,0,0-.21.312c-.165.261-.159.267-.458.165s-.312-.108-.153-.388a3.573,3.573,0,0,1,3.243-1.952,1.908,1.908,0,0,1,1.99,1.977,6.524,6.524,0,0,1-.572,2.467c-.356.89-.808,1.736-1.208,2.6a6.436,6.436,0,0,0-.572,1.647,1.781,1.781,0,0,0,0,.712.636.636,0,0,0,.687.54,1.825,1.825,0,0,0,1.488-.808,4.743,4.743,0,0,0,.464-.7c.051-.089.1-.108.178-.064a2.583,2.583,0,0,0,.318.127c.114.038.114.089.064.184a4.228,4.228,0,0,1-3.707,2.359,1.908,1.908,0,0,1-2.124-2.086Z" transform="translate(-21.91 -12.36)" fill="#35144f"/>
    </g>
    <g transform="matrix(1, 0, 0, 1, 14000.15, 3863.54)" filter="url(#Path_27)">
      <path id="Path_27-2" data-name="Path 27" d="M32,49.762s0-.064.038-.045,0,.045,0,.07Z" transform="translate(-10.15 -17.6)" fill="#35144f"/>
    </g>
    <g transform="matrix(1, 0, 0, 1, 14000.15, 3863.54)" filter="url(#Path_28)">
      <path id="Path_28-2" data-name="Path 28" d="M84,40.7Z" transform="translate(-29.08 -14.32)" fill="#35144f"/>
    </g>
  </g>
</svg>
