<svg xmlns="http://www.w3.org/2000/svg" width="500" height="192" fill-rule="evenodd"><g fill-rule="nonzero"><path d="M72.703 27.378H54.527V45.63h18.176V27.378z" fill="#000"/><g fill="#fff"><path d="M263.903 63.883h.14l-.494 1.395c3.622.224 6.863 1.527 10.408 1.527v-2.923h-10.053zm-118.497.224h63.615c-.536 0-.947.34-1.367-.023-.56-.465-1.104.023-1.653.023h-60.595zm69.334-.224h-5.718c1.745.24 3.486 0 5.718 0z"/><path d="M214.428 64.084c-1.832-.465-3.61.023-5.407.023h5.718c-.105-.017-.2.006-.31-.023z"/></g><g fill="#000"><path d="M381.036 63.884h-107.45v.278l-10.943.087v-.365H118.307l-116.282.15c-.678 0-.326.206-2.025.237v18.22c0-.025.975-.355 1.47-.355h69.66v14.307s-1.115-.003-1.647 0c-10.877.014-21.75-.07-32.627.09-6.292.09-12.47.962-18.28 3.683-11.725 5.49-11.063 21.864-1.113 27.824 4.735 2.833 9.926 4.113 15.328 4.807 8.067 1.03 16.16.546 24.254.363 6.448-.15 12.927-.607 19.31.73 1.714.36 3.426.934 5.004 1.685 2.378 1.127 3.516 3.045 3.322 5.755-.345 4.758-3.05 7.665-7.33 9.42-4.106 1.685-8.473 2.108-12.834 2.118-7.087.014-14.174-.198-21.254-.462-5.27-.194-10.052-1.853-14.207-5.138-1.487-1.173-3.078-2.224-4.662-3.267-.345-.23-.973-.412-1.29-.257L3.53 153.465c1.627 3.024 3.944 5.276 6.786 7.035 4.687 2.893 9.917 4.183 15.342 4.737 3.384.345 6.804.39 10.205.564 5.81.296 10.518 2.692 14.595 6.546 5.86 5.54 9.827 12.628 13.15 19.303h25.4c-4.874-11.125-11.674-19.874-22.386-25.96.643-.103 1.22.04 1.8-.003 4.846-.34 9.724-.416 14.53-1.06 6.358-.85 12.396-2.802 17.778-6.362 8.1-5.36 10.77-13.435 8.876-22.04-1.918-8.704-10.73-15.122-20.392-15.132-14.93-.015-29.86.017-44.8-.025-1.57-.003-3.198-.174-4.702-.595-2.47-.687-3.696-2.65-3.667-5.338.033-2.8 1.297-4.673 3.875-5.3 1.48-.367 3.054-1.193 4.584-1.197l48.475-.72h2.222V82.136h25.17v91.26h22.98v-91.26h82.076v11.8h-1.79c-5.598 0-11.197.74-16.793.803-6.002.063-12.02.41-18.004.8-5.87.395-11.418 2.36-16.387 5.565-4.218 2.717-6.95 6.523-7.228 11.61-.438 8.034 3.327 14.054 10.93 17.54 6.08 2.787 12.586 3.852 19.202 4.112 6.68.26 13.374.175 20.058.276l13.64.362c2.905.155 5.784.715 8.377 2.153 2.317 1.283 3.042 3.198 2.183 5.675-.855 2.463-2.822 3.902-5.06 4.995-5.596 2.735-11.627 3.803-17.803 4.032-9.11.338-18.068-.754-26.832-3.218-5.582-1.572-11.12-3.26-14.742-8.225-.044-.06-.162-.063-.338-.123l-17.465 11.02c2.4 3.204 7.224 6.74 11.864 8.83 7.723 3.467 15.95 4.898 24.315 5.574 12.99 1.048 25.988 1.184 38.95-.472 7.016-.894 13.886-2.375 20.227-5.62 6.66-3.408 11.344-8.36 12.256-15.98.988-8.292-1.807-15.418-10.083-19.418-2.342-1.13-4.885-1.963-7.425-2.583-7.137-1.748-14.43-1.652-21.71-1.342l-20.71.954c-3.72.096-7.47-.198-10.946-1.777-2.425-1.104-3.395-2.6-3.244-4.757.165-2.33 1.376-4.014 3.854-4.623 2.048-.504 4.2-1.472 6.322-1.482l45.61-.73h1.752V82.134h1.887l30.174.047c3.505-.096 5.916 1.14 7.98 3.613.086.106.18.236.266.342 2.68 3.126 3.91 6.745 3.452 10.813-.53 4.69-3.635 7.237-7.93 8.56-5.442 1.67-11.023 1.675-16.62.97-2.328-.293-4.64-.67-7.055-1.026 0 .402-.035.664.004.914.804 5.262 2.016 10.425 3.966 15.4 3.588 9.145 9.178 16.697 17.99 21.652 8.058 4.533 16.873 5.928 26.004 5.87 9.774-.063 19.79-2.53 28.482-6.843.757-.374 1.142-.744 3.33-1.224v16.07h25.17V82.135h20.792V157.3h22.98V82.135h44.386l9.812-18.252-82.445.001zM340.34 83.89c0 11.292-.847 22.586-.87 33.878 0 .546-.498 1.227-.82 1.615-5.29 6.318-11.84 11.168-20.124 13.07-6.667 1.53-13.38 1.4-19.727-1.43-4.34-1.93-7.52-5.157-9.827-9.19-.082-.144-.13-.317-.188-.496 2.858-.275 5.648-.458 8.42-.832 3.85-.514 7.54-1.56 10.954-3.45 6.143-3.405 9.11-8.92 9.7-15.695.636-7.29-1.87-14.928-6.918-19.223h29.396a354.16 354.16 0 0 1 .002 1.753z"/><path d="M196.048 0h-8.713v18.127h.03v27.54c-2.063.098-2.895-.383-4.264-1.196-2.043-1.213-3.213-3.008-4.28-4.992l-12.25-22.87c-3.24-5.913-7.82-10.567-14.34-13.433C148.2 1.406 143.96.82 139.575.74c-2.714-.054-5.42-.348-8.134-.426-.23-.007-.444-.315-.673-.315h-12.624l.128 63.883h22.688V18.967c2.063-.226 3.15.253 4.8 1.372 1.863 1.273 2.787 3.004 3.813 4.905l12.08 22.7c2.95 5.4 6.856 10.24 12.624 13.207 2.2 1.126 4.4 1.754 6.845 2.722h27.912V0H196.06zM475.3.001c-2.072 4.8-4.13 7.172-6.215 10.643l-21.352 35.64c-.156.26-.333.566-.56.915-.194-.252-.355-.402-.482-.6L417.2.5c-.062-.095-.114-.5-.17-.5H218.1v63.474h75.6c.236 0 .473-.414.708-.465 5.633-1.226 10.54-3.658 14.245-7.634 4.12-4.422 5.948-9.712 6.426-15.252.382-4.393.338-8.854.365-13.264.01-1.762-.186-3.238-.486-4.982-.337-1.953-.895-3.603-1.362-5.526h34.34v47.124h22.193V16.35h1.866l28.674-.378c.965-.005 1.42.104 1.87.8l30.1 46.33c.4.602.797.78 1.6.78l26.034-.02c.876.002 1.313-.252 1.717-.92l35.356-58.437c.86-1.415 1.664-2.58 2.497-4.503L475.3.001zM292.324 40.387c-.255 4.83-3.737 7.884-9.3 8.43-1.122.112-2.256-.285-3.382-.285-12.043.013-24.085-.446-36.126-.446h-1.005V16.35h.844l36.503-.323c1.9.01 3.836.088 5.655.54 4.082 1.024 6.497 3.647 6.794 7.324.132 1.628.12 3.22.117 4.855-.004 3.895.098 7.752-.1 11.64z"/></g></g><ellipse fill="#ec1c24" cx="213.616" cy="31.942" rx="13.683" ry="13.689"/></svg>