<svg xmlns="http://www.w3.org/2000/svg" width="575" height="130" fill-rule="evenodd"><path d="M499.555 81.524c1.24-.317 1.227-.735 2.03-1.256s1.204-1.233 1.204-2.138c0-1.086-.528-1.923-1.583-2.51s-2.798-.882-5.23-.882c-2.707 0-4.76.486-6.16 1.46s-2.1 2.296-2.1 3.97c0 1.13.264 2.228.79 3.292s1.48 2.25 2.856 3.563 3.372 2.918 5.986 4.82l-5.986 6.04-6.812-6.04c-1.927-1.9-3.418-3.834-4.473-5.803s-1.583-4.106-1.583-6.413c0-1.72.333-3.246.998-4.58a11.71 11.71 0 0 1 2.649-3.495c-.826-.95-1.502-2.025-2.03-3.224s-.79-2.6-.79-4.174c0-1.448.264-2.68.79-3.7s1.227-1.844 2.1-2.477c1.147-.905 2.512-1.55 4.094-1.934s3.773-.577 6.57-.577h7.02v-3.8h-23.464v-7.465h39.153v7.465h-6.468V62.93h-15.964c-1.284 0-2.18.057-2.684.17s-.917.305-1.24.577c-.596.452-.895 1.13-.895 2.036 0 .77.32 1.538.963 2.307 2.156-.543 4.473-.814 6.95-.814 3.716 0 6.72.51 9.014 1.527s3.968 2.34 5.023 3.97 1.583 3.348 1.583 5.158c0 5.565-3.624 9.185-10.872 10.86l-1.445-7.194zm-38.878-29.86h-5.505v-7.465h5.16a26.1 26.1 0 0 1-1.342-3.461c-.344-1.13-.516-2.262-.516-3.393 0-3.574 1.445-6.425 4.335-8.55s7.133-3.2 12.73-3.2c5.092 0 9.725.882 13.9 2.647s7.97 4.095 11.388 7 6.388 5.565 9.186 8.958h-10.528c-3.395-3.7-6.847-6.085-10.63-8.076s-7.787-2.986-12.007-2.986c-2.982 0-5.24.532-6.778 1.595s-2.305 2.522-2.305 4.377c0 .95.138 1.866.413 2.75s.62 1.663 1.032 2.34h7.225v7.465h-6.537V86.41h-9.22V51.663zm42.594-21.04c0-1.403.493-2.602 1.48-3.597s2.2-1.493 3.613-1.493 2.615.498 3.578 1.493 1.445 2.194 1.445 3.597c0 1.448-.482 2.658-1.445 3.63s-2.156 1.46-3.578 1.46-2.626-.486-3.613-1.46-1.48-2.183-1.48-3.63zm40.736 60.402c-.917-1.493-1.812-3.077-2.684-4.75l-2.202-4.343c-1.193.136-2.546.204-4.06.204a29.05 29.05 0 0 1-6.399-.713c-2.1-.475-4.037-1.244-5.78-2.307a11.89 11.89 0 0 1-4.163-4.276c-1.032-1.787-1.548-4.015-1.548-6.685 0-1.99.378-3.72 1.135-5.192s1.778-2.703 3.062-3.7c1.468-1.13 3.223-2.002 5.264-2.613s4.3-.984 6.778-1.12v-3.868h-17.822v-7.465h38.396v7.465H542.63v11.334h-3.51c-2.66 0-4.725.113-6.193.34s-2.707.588-3.716 1.086c-1.927.905-2.9 2.353-2.9 4.343 0 1.72.71 3.133 2.133 4.242s3.876 1.663 7.363 1.663h.516c.206 0 .447-.023.723-.068-.092-.498-.138-.973-.138-1.425 0-1.674.62-2.873 1.858-3.597s2.57-1.086 3.99-1.086c2.43 0 4.29.645 5.574 1.934s1.927 2.794 1.927 4.513c0 1.584-.356 2.783-1.067 3.597s-1.594 1.47-2.65 1.968c1.33 2.217 2.982 4.638 4.954 7.262l-7.5 3.258zm14.52-39.363h-4.54v-7.465h4.6c-1.468-3.62-3.13-6.38-4.99-8.28s-4.025-2.85-6.503-2.85c-1.835 0-3.2.464-4.094 1.39s-1.342 2.138-1.342 3.63c0 1.312.172 2.51.516 3.597s.52 1.56 1.07 2.51h-8.923a14.62 14.62 0 0 1-1.403-3.699c-.32-1.29-.482-2.568-.482-3.834 0-3.393 1.193-6.085 3.578-8.076s5.71-2.986 9.977-2.986c3.945 0 7.26.837 9.943 2.51s4.908 3.914 6.675 6.72 3.268 5.927 4.507 9.366h7.156v7.465h-6.537V86.41h-9.22V51.663z" fill="#1a1919" fill-rule="nonzero"/><path d="M174.403 110.734c-14.108-9.627-45.33-37.02-18.965-56.388-35.733 1.72-16.074 65.556 18.965 56.388zM162.84 51.366c14.224-9.054 43.018-6.762 61.636-3.094-15.496-7.68-53.195-17.306-61.636 3.094z" fill="#6d6e71"/><path d="M250.263 84.145c.347-10.086 9.945-11.002 18.965-12.492-5.204-5.5-17.462-2.407-25.325-1.605.347 22.807-9.367 35.643-26.83 40.686 16.2 6.533 42.44 1.834 61.636 1.605-21.972 6.877-56.433 11.002-82.105 4.7 4.394-2.52 10.986-2.75 15.843-4.7-15.843-1.5-50.535-18.337-25.325-31.288-6.36-2.52-17.81 3.21-20.584 9.398 1.272 15.93 13.53 20.973 26.83 25.1-5.782 3.667-18.387.573-26.83 1.605 67.303 32.778 137.612-11.92 206.88-9.398-17.23-7.335-40.243-9.513-63.14-7.793-20.12 1.375-40.82 13.524-53.657 3.094 6.36-17.764 43.828-12.95 61.636-14.097-9.02-12.607-47.875-10.315-67.997-4.814z" fill="#ca3d2c"/><path d="M155.438 117.152c-3.007-5.387-11.448-5.387-14.224-11.002-2.66 4.928 7.054 10.888 14.224 11.002z" fill="#6d6e71"/><g fill="#1a1919"><path d="M50.373 26h-.352c-2.46 0-3.867-2.516-4.452-3.595l-6.2-12.82C36.43 3.595 31.157 0 25.416 0H13.582v36.425h11.482v-26h.352c2.578 0 4.1 2.756 4.452 3.595l6.327 12.82c2.695 5.99 7.967 9.585 13.826 9.585h11.717V0H50.373v26z"/><path d="M190.62 0l-13.826 27.08L162.033 0h-96.78v36.425h30.932c10.662 0 15.818-6.35 15.818-16.775v-3.954c0-1.078 0-4.074-.82-7.07h16.99v27.918h10.897V8.627h15.466l15.232 27.918h13.71L202.338 0H190.62zM100.99 22.166c0 3.714-1.992 5.75-6.327 5.75H76.384V8.627H94.78c4.218 0 6.327 2.277 6.327 5.63v7.908h-.117z" fill-rule="nonzero"/></g><path d="M72.317 19.207c0 3.44-2.823 6.327-6.437 6.327-3.5 0-6.324-2.886-6.324-6.327s2.823-6.438 6.324-6.438c3.614-.11 6.437 2.997 6.437 6.438z" fill="#e92629"/><g fill="#1a1919"><path d="M48.195 59.868H14.9c-1.746 0-2.56-1.318-2.56-4.074s.815-4.074 2.56-4.074h45.75v-12.7H15.017c-4.424 0-8.032 1.677-10.826 4.913C1.397 47.287 0 51.24 0 55.795s1.397 8.507 4.074 11.622c2.9 3.355 6.52 5.032 10.943 5.032h33.178c1.746 0 2.56 1.318 2.56 4.074s-.815 4.074-2.56 4.074H2.56v12.7h45.634c4.424 0 8.032-1.677 10.943-5.032 2.677-3.235 3.958-7.19 3.958-11.742s-1.28-8.507-3.958-11.742c-2.9-3.235-6.636-4.913-10.943-4.913z"/><path d="M119.323 39.02H68.218v54.398h12.34V75.684h38.882c4.54 0 8.265-1.917 11.06-5.87 2.56-3.475 3.958-7.668 3.958-12.46 0-4.913-1.28-9.106-3.958-12.58-2.794-3.834-6.52-5.75-11.176-5.75zm0 23.964H80.557V51.72h38.882c1.746 0 2.677 1.917 2.677 5.75-.116 3.595-.93 5.512-2.794 5.512z" fill-rule="nonzero"/><path d="M293.476 39.02h-51.222v54.398h12.34V51.72h38.183c2.212 0 3.376 1.917 3.376 5.63s-1.164 5.63-3.376 5.63h-31.78l26.426 30.434h16.88l-15.483-17.73h4.773c4.773 0 8.498-1.917 11.176-5.75 2.56-3.475 3.842-7.668 3.842-12.58s-1.28-9.106-3.842-12.58c-2.794-3.834-6.52-5.75-11.292-5.75zm18.742 12.7h23.865v41.577h12.34V51.72h23.748v-12.7H312.22zM436.43 64.9c-2.9-3.355-6.52-5.032-10.943-5.032h-33.294c-1.746 0-2.56-1.318-2.56-4.074s.815-4.074 2.56-4.074h45.75v-12.7H392.3c-4.424 0-8.032 1.677-10.826 4.913-2.794 3.355-4.2 7.3-4.2 11.862s1.397 8.507 4.074 11.622c2.9 3.355 6.52 5.032 10.943 5.032h33.178c1.746 0 2.56 1.318 2.56 4.074s-.815 4.074-2.56 4.074h-45.634v12.7h45.634c4.424 0 8.032-1.677 10.943-5.032 2.677-3.235 3.958-7.2 3.958-11.742s-1.28-8.387-3.958-11.622z"/></g></svg>