<svg xmlns="http://www.w3.org/2000/svg" width="25" height="25" viewBox="0 0 25 25"><g fill="none"><circle cx="12.5" cy="12.5" r="9" fill="#FFF"/><path fill="#1D1D1D" d="M12.5 25C5.596 25 0 19.404 0 12.5S5.596 0 12.5 0 25 5.596 25 12.5 19.404 25 12.5 25zM7.3 7.8A1.3 1.3 0 0 0 6 9.1v7.8a1.3 1.3 0 0 0 1.3 1.3h10.4a1.3 1.3 0 0 0 1.3-1.3V9.1a1.3 1.3 0 0 0-1.3-1.3h-1.95l-1.3-1.3h-3.9l-1.3 1.3H7.3zm5.2 1.95a3.25 3.25 0 1 1 0 6.5 3.25 3.25 0 0 1 0-6.5zm0 1.3a1.95 1.95 0 1 0 0 3.9 1.95 1.95 0 0 0 0-3.9z"/></g></svg>