<svg xmlns="http://www.w3.org/2000/svg" width="188.549" height="53.7" viewBox="0 0 188.549 53.7"><g fill="#6e6e6e"><path d="M167.4 7.486C157.21 5.75 145.644 9.65 141.51 19.82c-2.09 5.136-1.91 10.947.68 15.862 2.465 4.677 6.707 8.138 11.72 9.775 6.405 2.092 13.94 1.575 20.168-.89.52-.206 3.098-.98 3.098-1.56V35.86c-7.855 5.022-20.712 7.69-27.348-.816-3.1-3.973-3.508-9.774-1.21-14.225 2.49-4.855 7.842-7.423 13.13-7.613 5.45-.195 10.32 1.74 15.02 4.3v-6.66c0-.194.09-.496-.108-.575-.942-.378-1.896-.73-2.853-1.066-2.09-.735-4.23-1.32-6.408-1.72zM131.46.016H187.807c.618 0 .7-.15.7.462v52.316c0 .51.218.905-.327.905h-56.646c-.17 0-.073-1.383-.073-1.555V.016zM87.62 29.62v10.55h6.85s.136-.003.36-.012c.23-.01.557-.02.95-.055.75-.07 1.726-.205 2.675-.526.86-.29 1.698-.725 2.336-1.364.247-.246.45-.503.615-.762.538-.846.674-1.705.703-2.193.016-.212.015-.334.015-.334s.003-.096 0-.26c-.007-.203-.032-.6-.14-1.02-.13-.5-.37-1.082-.802-1.612-.08-.1-.167-.2-.265-.298-.188-.188-.39-.37-.614-.533-.374-.276-.802-.513-1.268-.716-.615-.265-1.305-.464-2.06-.605-.39-.074-.8-.135-1.22-.173-.26-.026-.52-.044-.79-.06-.233-.014-.478-.024-.723-.024-2.43 0-6.62-.004-6.62-.004zM87.62 13.58v10.002h3.316s.22 0 .513-.008c.228-.008.502-.023.744-.036.683-.05 1.627-.146 2.57-.41.186-.052.37-.11.553-.173.74-.263 1.45-.648 2-1.19.44-.432.73-.912.92-1.38.236-.57.32-1.12.354-1.507.03-.347.03-.567.03-.567s.006-.163-.01-.423c-.02-.437-.112-1.145-.454-1.827-.167-.326-.395-.64-.702-.945-.374-.37-.826-.65-1.313-.866-.932-.413-2-.577-2.9-.637-.39-.026-.748-.03-1.05-.03-.68-.002-4.57-.002-4.57-.002zM80.694 7.544v38.662h14.554s7.1.195 11.017-3.724c3.188-3.188 2.96-6.88 2.96-6.88s.23-3.853-2.724-6.807c-2.515-2.516-5.728-3.186-5.728-3.186s1.45-.682 2.566-1.797c.52-.523 2.38-2.2 2.38-6.273 0-4.104-2.73-6.463-2.73-6.463s-2.992-3.534-9.746-3.534H80.694zM65.73.016h57.045V53.7H65.73V.016zM21.89 29.62v10.55h6.848s.138-.003.36-.012c.233-.01.56-.02.954-.055.746-.07 1.723-.205 2.673-.526.86-.29 1.697-.725 2.337-1.364.246-.246.45-.503.613-.762.538-.846.673-1.705.703-2.193.016-.212.014-.334.014-.334s.004-.096 0-.26c-.008-.203-.03-.6-.14-1.02-.128-.5-.37-1.082-.8-1.612-.082-.1-.17-.2-.266-.298-.19-.188-.393-.37-.615-.533-.374-.276-.802-.513-1.27-.716-.613-.265-1.302-.464-2.06-.605-.387-.074-.798-.135-1.217-.173-.26-.026-.52-.044-.79-.06-.233-.014-.48-.024-.723-.024-2.43 0-6.62-.004-6.62-.004zM21.89 13.58v10.002h3.316s.22 0 .513-.008c.228-.008.502-.023.745-.036.683-.05 1.626-.146 2.57-.41.185-.052.37-.11.552-.173.74-.263 1.45-.648 2.002-1.19.437-.432.727-.912.92-1.38.233-.57.315-1.12.35-1.507.03-.347.03-.567.03-.567s.006-.163-.008-.423c-.023-.437-.114-1.145-.457-1.827-.166-.326-.393-.64-.7-.945-.374-.37-.826-.65-1.313-.866-.934-.413-2.002-.577-2.902-.637-.39-.026-.748-.03-1.052-.03-.68-.002-4.57-.002-4.57-.002zM14.964 7.544v38.662h14.554s7.097.195 11.016-3.724c3.19-3.188 2.96-6.88 2.96-6.88s.232-3.853-2.723-6.807c-2.515-2.516-5.728-3.186-5.728-3.186s1.45-.682 2.566-1.797c.52-.523 2.38-2.2 2.38-6.273 0-4.104-2.73-6.463-2.73-6.463s-2.99-3.534-9.746-3.534H14.964zM0 .016h57.044V53.7H0V.016z"/></g></svg>
