<?xml version="1.0" encoding="UTF-8" standalone="no"?>
<svg width="166px" height="35px" viewBox="0 0 166 35" version="1.1" xmlns="http://www.w3.org/2000/svg" xmlns:xlink="http://www.w3.org/1999/xlink" xmlns:sketch="http://www.bohemiancoding.com/sketch/ns">
    <!-- Generator: Sketch 3.5.1 (25234) - http://www.bohemiancoding.com/sketch -->
    <title>Group 2</title>
    <desc>Created with Sketch.</desc>
    <defs>
        <path id="path-1" d="M0,0 L165.302509,0 L165.302509,24.0263158 L0,24.0263158 L0,0 Z"></path>
    </defs>
    <g id="Home-Page" stroke="none" stroke-width="1" fill="none" fill-rule="evenodd" sketch:type="MSPage">
        <g id="Mobile-/-Mobile-Home-Page" sketch:type="MSArtboardGroup" transform="translate(-77.000000, -10629.000000)">
            <g id="Mobile-footer" sketch:type="MSLayerGroup" transform="translate(0.000000, 10602.000000)">
                <g id="Group-2" transform="translate(77.000000, 27.000000)">
                    <g id="Page-1" transform="translate(0.000000, 10.921053)">
                        <path d="M66.9973816,23.7294816 L66.9973816,20.9810167 L68.0086711,20.8033675 C68.6886886,20.7050781 68.8139167,20.3941921 68.8139167,19.8182886 L68.8139167,5.08651667 C68.8139167,4.88775351 68.8139167,4.2849114 68.1622939,4.08250789 L66.7702237,3.56412193 L67.1539167,0.601604386 L74.8838377,0.000218421052 L74.8860219,19.8510518 C74.8860219,20.4597184 75.0025132,20.7676921 75.6606886,20.8688939 L76.4768553,20.9890254 L76.4768553,23.7294816 L66.9973816,23.7294816 Z" id="Fill-1" fill="#231F20" sketch:type="MSShapeGroup"></path>
                        <path d="M85.6292798,20.8040228 C84.9427096,20.712286 84.8196658,20.4647421 84.8196658,19.8182158 L84.8196658,12.0307772 C84.8196658,8.56079474 83.6088851,6.93574211 81.0082184,6.91899649 L77.4501395,7.79559298 L77.4501395,11.344207 C77.9685254,11.4009965 78.6536395,11.7279 78.6536395,13.0690053 L78.6536395,23.7294088 L86.7352184,23.7294088 L86.7352184,20.9838561 L85.6292798,20.8040228 Z" id="Fill-3" fill="#231F20" sketch:type="MSShapeGroup"></path>
                        <path d="M56.4418202,14.6591833 C56.4418202,11.8866921 57.3162325,10.8972447 58.07925,10.5586921 L58.07925,6.56158684 C55.7836447,6.70356053 53.8411535,7.46585 52.4374342,8.80404298 C50.8109254,10.3541044 49.9510746,12.6366044 49.9510746,15.4054553 C49.9510746,17.8481307 50.6791447,19.9005605 52.0588377,21.3399553 C53.5775921,22.9256921 55.8003904,23.7294816 58.6646184,23.7294816 L59.4269079,23.7294816 L64.8976272,22.3658061 L64.8976272,19.0225079 C63.9008991,19.1615693 61.2631009,19.5103149 59.9300044,19.5103149 C57.5819781,19.5103149 56.4418202,17.9223939 56.4418202,14.6591833" id="Fill-5" fill="#231F20" sketch:type="MSShapeGroup"></path>
                        <path d="M60.6346307,6.70938509 L60.6346307,11.3086044 L60.9950254,13.2896833 L65.1384728,13.4302009 L65.1384728,7.9296307 L60.6346307,6.70938509 Z" id="Fill-7" fill="#231F20" sketch:type="MSShapeGroup"></path>
                        <path d="M11.0440237,13.2897561 L10.6829009,11.3086772 L10.6829009,6.70945789 L15.1860149,7.92970351 L15.1860149,13.4302737 L11.0440237,13.2897561 Z" id="Fill-9" fill="#231F20" sketch:type="MSShapeGroup"></path>
                        <path d="M9.97900263,19.5100237 C7.63097632,19.5100237 6.49081842,17.9228307 6.49081842,14.6588921 C6.49081842,11.9126114 7.3506693,10.9166114 8.10640614,10.5693219 L8.10640614,6.56275175 C5.81953772,6.70836579 3.88578333,7.46992719 2.48570439,8.80447982 C0.859923684,10.3545412 7.28070175e-05,12.6370412 7.28070175e-05,15.405164 C7.28070175e-05,17.8485675 0.727414912,19.9002693 2.10783596,21.339664 C3.62659035,22.9254009 5.8493886,23.7291904 8.71361667,23.7291904 L9.47590614,23.7291904 L14.9466254,22.3655149 L14.9466254,19.0229447 C13.9491693,19.1612781 11.3113711,19.5100237 9.97900263,19.5100237" id="Fill-11" fill="#231F20" sketch:type="MSShapeGroup"></path>
                        <mask id="mask-2" sketch:name="Clip 14" fill="white">
                            <use xlink:href="#path-1"></use>
                        </mask>
                        <g id="Clip-14"></g>
                        <path d="M46.2710439,10.489307 L48.4130263,10.489307 L48.4130263,6.88608772 L46.2710439,6.88608772 L46.2710439,10.489307 Z" id="Fill-13" fill="#231F20" sketch:type="MSShapeGroup" mask="url(#mask-2)"></path>
                        <path d="M43.7403447,16.7360035 L43.7403447,1.30455614 L39.9740377,1.30455614 L38.3089412,5.55794211 L35.1083447,7.0861614 L35.1083447,10.4891614 L36.9743886,10.4891614 C37.5735904,10.4891614 37.5735904,10.9900737 37.5735904,11.1546175 L37.5735904,17.9693544 C37.5735904,20.1688544 37.9092307,21.5318018 38.6598711,22.3894684 C39.4556518,23.2973719 40.8244237,23.7240211 42.9642219,23.7291175 L48.173564,22.3690825 L48.173564,19.542714 L45.9951781,19.542714 C43.8968798,19.542714 43.7403447,18.4316789 43.7403447,16.7360035" id="Fill-15" fill="#231F20" sketch:type="MSShapeGroup" mask="url(#mask-2)"></path>
                        <path d="M33.7329474,19.782686 C33.0485614,19.689493 32.9262456,19.4426772 32.9262456,18.7968789 L32.9262456,12.2253175 C32.9262456,8.37746667 31.3019211,6.81648421 26.964807,6.56748421 L27.3317544,14.1328614 L23.5545263,14.3825895 C19.3229825,14.6767298 17.5173684,16.0316684 17.5173684,18.9104579 C17.5173684,19.8314667 17.6724474,21.1478175 18.4114386,22.1802211 C19.1380526,23.1980632 20.2869474,23.7193614 21.8260877,23.7295544 L24.4180175,23.0029404 L24.4180175,19.8678702 C23.4460439,19.6021246 23.2727632,18.8878877 23.2727632,18.4233789 C23.2727632,17.8824228 23.5246754,16.6228614 25.8676053,16.6228614 L26.953886,16.6228614 L26.953886,20.7604842 C26.953886,23.1929667 28.7857105,23.7208175 30.3408684,23.7295544 L34.9058684,22.605414 L34.9058684,19.990914 L33.7329474,19.782686 Z" id="Fill-16" fill="#231F20" sketch:type="MSShapeGroup" mask="url(#mask-2)"></path>
                        <path d="M24.5908614,6.93872719 L19.4157386,7.95729737 L19.3108965,12.1182184 L23.3611509,12.6511658 L23.8453175,11.5677974 C24.0309754,11.1236746 24.2865281,10.806236 24.5908614,10.5921833 L24.5908614,6.93872719 Z" id="Fill-17" fill="#231F20" sketch:type="MSShapeGroup" mask="url(#mask-2)"></path>
                        <path d="M124.72825,14.6342833 C124.72825,9.67685351 122.544039,7.50502018 119.264083,7.13880088 L119.264083,9.52250263 C120.70275,9.88726579 121.799224,11.1111518 121.850917,14.0328974 L114.071487,14.0328974 C114.261513,11.3921868 115.312118,10.0947658 116.723118,9.6135114 L116.723118,7.21160789 C113.455539,7.81881842 111.003399,10.5068535 111.003399,15.5509237 C111.003399,20.2629939 112.870171,24.0263886 118.593531,24.0263886 C120.870206,24.0263886 122.768285,23.4883447 124.348925,22.6030114 L123.432285,20.4530202 C121.755539,21.2750114 120.648145,21.5909939 118.877478,21.5909939 C115.430794,21.5909939 114.134101,19.4096956 114.038724,16.2149237 L124.664908,16.2149237 C124.696215,15.6776079 124.72825,15.0449149 124.72825,14.6342833" id="Fill-18" fill="#B5B5B5" sketch:type="MSShapeGroup" mask="url(#mask-2)"></path>
                        <path d="M107.145792,21.7180421 C106.671818,21.6547 106.640511,21.5913579 106.640511,21.0846211 L106.640511,12.8632526 C106.640511,9.41656842 105.280476,7.07582281 101.643038,7.07582281 C100.558941,7.07582281 99.5556605,7.31754211 98.6230026,7.69177018 L98.6230026,10.0434368 C99.3860202,9.73400702 100.186897,9.54252456 101.011073,9.54252456 C103.35109,9.54252456 103.76245,11.5352526 103.76245,13.5905947 L103.76245,21.0846211 C103.76245,21.5280158 103.604459,21.686007 103.193099,21.7180421 L101.674345,21.9073404 L101.674345,23.6467 L108.948494,23.6467 L108.948494,21.9393754 L107.145792,21.7180421 Z" id="Fill-19" fill="#B5B5B5" sketch:type="MSShapeGroup" mask="url(#mask-2)"></path>
                        <path d="M96.1095588,21.0849123 L96.1095588,13.7525175 L96.1095588,13.2938333 L95.530743,8.02551754 L95.4455588,7.39209649 L91.3021114,7.39209649 L91.0188921,9.06884211 L92.8208658,9.66877193 C93.1375763,9.76414912 93.2314974,9.98548246 93.2314974,10.3335 L93.2314974,21.0849123 C93.2314974,21.559614 93.1688833,21.6549912 92.7262167,21.7183333 L91.1448482,21.9076316 L91.1448482,23.6469912 L98.3862342,23.6469912 L98.3862342,21.9389386 L96.6148395,21.7183333 C96.1408658,21.6549912 96.1095588,21.5909211 96.1095588,21.0849123" id="Fill-20" fill="#B5B5B5" sketch:type="MSShapeGroup" mask="url(#mask-2)"></path>
                        <path d="M162.307738,9.83324298 L162.509413,10.8882167 L162.708904,11.9140675 L164.827589,12.0414798 L164.827589,7.96137456 C164.365264,7.76333947 163.221466,7.41605 161.806097,7.22019912 L162.301185,9.80339211 C162.304825,9.81212895 162.305554,9.82377807 162.307738,9.83324298" id="Fill-21" fill="#B5B5B5" sketch:type="MSShapeGroup" mask="url(#mask-2)"></path>
                        <path d="M165.302509,19.0929851 C165.302509,15.6776079 162.615202,14.9189588 160.147772,14.2862658 C158.091702,13.74895 156.195079,13.3688974 156.195079,11.5669237 C156.195079,10.2068886 157.238404,9.19487105 159.546386,9.19487105 C159.564588,9.19487105 159.579877,9.19705526 159.598079,9.19705526 L159.194,7.0943886 C156.188526,7.26111667 153.538351,8.64080965 153.538351,12.0095904 C153.538351,15.4875816 156.321763,16.1202746 158.788465,16.6896254 C160.8125,17.1643272 162.615202,17.6069939 162.615202,19.5036167 C162.615202,21.2116693 161.254439,22.0023535 159.135754,22.0023535 C158.870737,22.0023535 158.623193,21.9899763 158.384386,21.9725026 L158.728763,24.0212921 C158.780456,24.0212921 158.831421,24.0263886 158.882386,24.0263886 C162.234421,24.0263886 165.302509,22.7610026 165.302509,19.0929851" id="Fill-22" fill="#B5B5B5" sketch:type="MSShapeGroup" mask="url(#mask-2)"></path>
                        <path d="M155.277346,18.8715061 L153.15939,18.74555 L153.15939,22.9516114 C153.516145,23.1693044 154.669408,23.5362518 156.111715,23.7801553 L155.504504,20.1732956 L155.277346,18.8715061 Z" id="Fill-23" fill="#B5B5B5" sketch:type="MSShapeGroup" mask="url(#mask-2)"></path>
                        <path d="M162.329798,9.9537386 L162.509632,10.8885807 L162.307956,9.83287895 C162.315237,9.8707386 162.323246,9.90859825 162.329798,9.9537386" id="Fill-24" fill="#162883" sketch:type="MSShapeGroup" mask="url(#mask-2)"></path>
                        <path d="M130.579095,9.38453333 L132.60313,9.13189298 L132.60313,7.39253333 L126.247805,7.39253333 L125.867025,9.13189298 L127.22706,9.41584035 C127.607112,9.51121754 127.765104,9.57455965 127.89106,9.95388421 L131.446226,20.8720246 L132.732726,16.2859105 L130.579095,9.38453333 Z" id="Fill-25" fill="#B5B5B5" sketch:type="MSShapeGroup" mask="url(#mask-2)"></path>
                        <path d="M141.078522,7.86657982 L137.757794,7.86657982 L134.631461,18.9317904 L133.309285,23.6467728 L135.829136,23.6467728 L139.307127,11.1239658 L141.567057,20.442536 L142.990434,15.8702553 L141.078522,7.86657982 Z" id="Fill-26" fill="#B5B5B5" sketch:type="MSShapeGroup" mask="url(#mask-2)"></path>
                        <path d="M145.948219,7.39231491 L145.600202,9.13167456 L147.656272,9.38431491 L145.946035,14.8994465 L145.956228,14.9023588 L143.230333,23.6464816 L145.726886,23.6464816 L149.996289,9.95366579 C150.122246,9.54303421 150.24893,9.41635 150.786974,9.32097281 L151.924947,9.13167456 L151.924947,7.39231491 L145.948219,7.39231491 Z" id="Fill-27" fill="#B5B5B5" sketch:type="MSShapeGroup" mask="url(#mask-2)"></path>
                    </g>
                    <g id="Catch-3-colors-strip-Copy-2" sketch:type="MSShapeGroup">
                        <rect id="Rectangle-56-Copy-3" fill="#ED1B23" x="123.264276" y="0" width="42.119403" height="3.64035088"></rect>
                        <rect id="Rectangle-56-Copy-4" fill="#009AA6" x="82.1761838" y="0" width="41.2935323" height="3.64035088"></rect>
                        <rect id="Rectangle-56-Copy-5" fill="#00243C" x="0" y="0" width="82.5870647" height="3.64035088"></rect>
                    </g>
                </g>
            </g>
        </g>
    </g>
</svg>