<?xml version="1.0" encoding="UTF-8" standalone="no"?>
<svg width="200px" height="30px" viewBox="0 0 200 30" version="1.1" xmlns="http://www.w3.org/2000/svg" xmlns:xlink="http://www.w3.org/1999/xlink" xmlns:sketch="http://www.bohemiancoding.com/sketch/ns">
    <!-- Generator: Sketch 3.4.2 (15855) - http://www.bohemiancoding.com/sketch -->
    <title>logo</title>
    <desc>Created with Sketch.</desc>
    <defs>
        <path id="path-1" d="M0,0.566086957 L199.651304,0.566086957 L199.651304,29.5652174 L0,29.5652174"></path>
        <path id="path-3" d="M0,0.869565217 L199.651304,0.869565217 L199.651304,29.8686957 L0,29.8686957 L0,0.869565217 Z"></path>
    </defs>
    <g id="Home-Page" stroke="none" stroke-width="1" fill="none" fill-rule="evenodd" sketch:type="MSPage">
        <g id="Desktop-/-Desktop-Home-Page" sketch:type="MSArtboardGroup" transform="translate(-147.000000, -10.000000)">
            <g id="Group" sketch:type="MSLayerGroup">
                <g id="Group-Copy-10-+-TOPICS-TRENDING-TODA-+-Group-+-Page-1">
                    <g id="Catch-logo" transform="translate(147.000000, 10.000000)">
                        <g id="logo">
                            <path d="M91.6257391,24.577913 L91.6231304,0.566608696 L82.597913,1.26834783 L82.1753043,4.53356522 L83.7109565,5.10486957 C84.3309565,5.29791304 84.6518261,5.7813913 84.6518261,6.53965217 L84.6518261,24.5387826 C84.6518261,25.3118261 84.4553043,25.8205217 83.4770435,25.9622609 L82.4326957,26.1457391 L82.4326957,29.0935652 L93.5683478,29.0935652 L93.5683478,26.1605217 L92.7622609,26.0422609 C91.8109565,25.8953043 91.6257391,25.3944348 91.6257391,24.577913" id="Fill-1" fill="#FEFEFE" sketch:type="MSShapeGroup"></path>
                            <path d="M103.761478,24.5525217 L103.761478,15.0377391 C103.761478,10.9481739 102.351913,9.03426087 99.3266957,9.01513043 L95.2023478,10.0377391 L95.2023478,14.0090435 C95.8266957,14.1394783 97.251913,14.0446957 97.251913,16.3064348 L97.251913,29.1073043 L106.101478,29.1073043 L106.101478,26.1646957 L104.93713,25.976 C103.944087,25.8429565 103.761478,25.3916522 103.761478,24.5525217" id="Fill-3" fill="#FEFEFE" sketch:type="MSShapeGroup"></path>
                            <path d="M68.8353043,18.2353913 C68.8353043,14.8684348 69.8926957,13.571913 70.8353043,13.0858261 L70.8353043,8.5806087 C68.1796522,8.78843478 65.9309565,9.70669565 64.3187826,11.2432174 C62.3770435,13.0936522 61.350087,15.8266957 61.350087,19.1466957 C61.350087,22.0745217 62.2187826,24.5284348 63.864,26.2432174 C65.6761739,28.1353913 68.3370435,29.0936522 71.7726957,29.0936522 L72.6770435,29.0936522 L79.1657391,27.4771304 L79.1657391,23.8223478 C77.7526957,24.0145217 74.857913,24.384087 73.3196522,24.384087 C70.3022609,24.384087 68.8353043,22.3727826 68.8353043,18.2353913" id="Fill-5" fill="#FEFEFE" sketch:type="MSShapeGroup"></path>
                            <path d="M79.459913,16.503913 L79.459913,10.183913 L74.4025217,8.81347826 L74.4025217,14.1421739 L74.8068696,16.3456522 L79.459913,16.503913 Z" id="Fill-7" fill="#FEFEFE" sketch:type="MSShapeGroup"></path>
                            <path d="M18.1084348,16.503913 L18.1084348,10.183913 L13.051913,8.81347826 L13.051913,14.1421739 L13.4562609,16.3456522 L18.1084348,16.503913 Z" id="Fill-9" fill="#FEFEFE" sketch:type="MSShapeGroup"></path>
                            <g id="Group-13">
                                <mask id="mask-2" sketch:name="Clip 12" fill="white">
                                    <use xlink:href="#path-1"></use>
                                </mask>
                                <g id="Clip-12"></g>
                                <path d="M7.48513043,18.2353913 C7.48513043,14.8936522 8.5286087,13.5945217 9.45904348,13.1006087 L9.45904348,8.58234783 C6.81469565,8.79452174 4.57469565,9.71191304 2.9686087,11.2432174 C1.026,13.0936522 -8.69565217e-05,15.8266957 -8.69565217e-05,19.1466957 C-8.69565217e-05,22.0745217 0.869478261,24.5284348 2.51382609,26.2432174 C4.32513043,28.1353913 6.98686957,29.0936522 10.4225217,29.0936522 L11.3268696,29.0936522 L17.8164348,27.4771304 L17.8164348,23.8223478 C16.4025217,24.0145217 13.5051304,24.384087 11.9686087,24.384087 C8.95208696,24.384087 7.48513043,22.3727826 7.48513043,18.2353913" id="Fill-11" fill="#FEFEFE" sketch:type="MSShapeGroup" mask="url(#mask-2)"></path>
                            </g>
                            <mask id="mask-4" sketch:name="Clip 15" fill="white">
                                <use xlink:href="#path-3"></use>
                            </mask>
                            <g id="Clip-15"></g>
                            <path d="M55.5869565,13.1408696 L58.9243478,13.1408696 L58.9243478,8.73913043 L55.5869565,8.73913043 L55.5869565,13.1408696 Z" id="Fill-14" fill="#FEFEFE" sketch:type="MSShapeGroup" mask="url(#mask-4)"></path>
                            <path d="M52.9938261,20.7727826 L52.9938261,2.14234783 L48.7668696,2.14234783 L46.7555652,7.27973913 L42.892087,9.12321739 L42.892087,12.9188696 L44.9503478,12.9188696 C45.306,12.9188696 45.9042609,13.0536522 45.9042609,13.9536522 L45.9042609,22.2788696 C45.9042609,24.9084348 46.2964348,26.5275652 47.1773043,27.5327826 C48.1016522,28.5875652 49.7103478,29.084087 52.2390435,29.0936522 L58.4094783,27.4832174 L58.4094783,24.4232174 L55.9703478,24.4232174 C53.2129565,24.4232174 52.9938261,22.8414783 52.9938261,20.7727826" id="Fill-16" fill="#FEFEFE" sketch:type="MSShapeGroup" mask="url(#mask-4)"></path>
                            <path d="M39.7817391,23.2897391 L39.7817391,15.261913 C39.7817391,10.7549565 37.926087,8.92713043 32.9547826,8.58713043 L33.4026087,17.8001739 L28.5686957,18.1193043 C23.5452174,18.4688696 21.4008696,20.0566957 21.4008696,23.4297391 C21.4008696,24.5227826 21.5834783,26.0801739 22.4521739,27.2949565 C23.2913043,28.4706087 24.6243478,29.0749565 26.413913,29.094087 L29.3869565,28.2601739 L29.3869565,24.7636522 C28.173913,24.3566957 27.9878261,23.3888696 27.9878261,22.834087 C27.9878261,22.1062609 28.3182609,20.4114783 31.3808696,20.4114783 L32.9304348,20.4114783 L32.9304348,25.6888696 C32.9304348,27.9253913 34.2382609,29.0706087 36.8191304,29.094087 L42.2008696,27.7688696 L42.2008696,24.9358261 L40.9504348,24.714087 C39.9634783,24.5784348 39.7817391,24.1288696 39.7817391,23.2897391" id="Fill-17" fill="#FEFEFE" sketch:type="MSShapeGroup" mask="url(#mask-4)"></path>
                            <path d="M29.5983478,9.074 L23.7157391,10.2313913 L23.5974783,14.9366087 L28.1826957,15.540087 L28.7070435,14.367913 C28.920087,13.8566087 29.2209565,13.447913 29.5983478,13.154 L29.5983478,9.074 Z" id="Fill-18" fill="#FEFEFE" sketch:type="MSShapeGroup" mask="url(#mask-4)"></path>
                            <path d="M150.750261,18.2455652 C150.750261,12.2707826 148.117217,9.65252174 144.164174,9.21078261 L144.164174,12.0846957 C145.897217,12.5238261 147.218957,13.9994783 147.281565,17.5212174 L137.905913,17.5212174 C138.133739,14.3377391 139.401565,12.7733913 141.100696,12.1942609 L141.100696,9.2986087 C137.162435,10.0307826 134.208522,13.2707826 134.208522,19.3507826 C134.208522,25.029913 136.457217,29.5655652 143.355478,29.5655652 C146.099826,29.5655652 148.386783,28.916 150.292,27.849913 L149.186783,25.2577391 C147.166783,26.2490435 145.83287,26.6307826 143.698087,26.6307826 C139.544174,26.6307826 137.980696,24.0003478 137.866783,20.1507826 L150.673739,20.1507826 C150.710261,19.502087 150.750261,18.7403478 150.750261,18.2455652" id="Fill-19" fill="#6F7072" sketch:type="MSShapeGroup" mask="url(#mask-4)"></path>
                            <path d="M129.558,26.7833043 C128.987565,26.7067826 128.949304,26.6302609 128.949304,26.0198261 L128.949304,16.1111304 C128.949304,11.9554783 127.310174,9.13547826 122.925826,9.13547826 C121.619739,9.13547826 120.410174,9.42678261 119.285826,9.87808696 L119.285826,12.712 C120.204957,12.3389565 121.171043,12.1085217 122.164087,12.1085217 C124.984957,12.1085217 125.480609,14.5102609 125.480609,16.9867826 L125.480609,26.0198261 C125.480609,26.5528696 125.290174,26.7450435 124.793652,26.7833043 L122.963217,27.0111304 L122.963217,29.1076522 L131.731043,29.1076522 L131.731043,27.0502609 L129.558,26.7833043 Z" id="Fill-20" fill="#6F7072" sketch:type="MSShapeGroup" mask="url(#mask-4)"></path>
                            <path d="M116.257217,26.019913 L116.257217,17.1825217 L116.257217,16.6303478 L115.558957,10.279913 L115.456348,9.51643478 L110.463304,9.51643478 L110.120696,11.5373043 L112.293739,12.2607826 C112.675478,12.3755652 112.788522,12.6416522 112.788522,13.0616522 L112.788522,26.019913 C112.788522,26.5912174 112.71287,26.7068696 112.178957,26.7833913 L110.27287,27.0112174 L110.27287,29.1077391 L118.999826,29.1077391 L118.999826,27.0503478 L116.865913,26.7833913 C116.293739,26.7068696 116.257217,26.6303478 116.257217,26.019913" id="Fill-21" fill="#6F7072" sketch:type="MSShapeGroup" mask="url(#mask-4)"></path>
                            <path d="M196.034696,12.4226957 L196.041652,12.4592174 C196.039913,12.447913 196.038174,12.4331304 196.034696,12.4226957" id="Fill-22" fill="#6F7072" sketch:type="MSShapeGroup" mask="url(#mask-4)"></path>
                            <path d="M196.041565,12.4587826 L196.285913,13.730087 L196.525913,14.9666087 L199.078957,15.1196522 L199.078957,10.2031304 C198.522435,9.964 197.143304,9.54486957 195.438087,9.30921739 L196.034609,12.4222609 C196.038087,12.4335652 196.039826,12.4474783 196.041565,12.4587826" id="Fill-23" fill="#6F7072" sketch:type="MSShapeGroup" mask="url(#mask-4)"></path>
                            <path d="M199.651391,23.620087 C199.651391,19.5026957 196.412261,18.587913 193.438348,17.8261739 C190.960957,17.1774783 188.675739,16.720087 188.675739,14.547913 C188.675739,12.9096522 189.931391,11.6896522 192.714,11.6896522 C192.735739,11.6896522 192.75313,11.6922609 192.776609,11.6922609 L192.288783,9.15834783 C188.667043,9.35921739 185.472261,11.0218261 185.472261,15.0818261 C185.472261,19.274 188.828783,20.0357391 191.800957,20.7226957 C194.240087,21.2931304 196.412261,21.827913 196.412261,24.1131304 C196.412261,26.1731304 194.77313,27.1253043 192.219217,27.1253043 C191.900087,27.1253043 191.601826,27.1105217 191.31313,27.0896522 L191.727913,29.5592174 C191.790522,29.5592174 191.852261,29.5653043 191.914,29.5653043 C195.954,29.5653043 199.651391,28.0392174 199.651391,23.620087" id="Fill-24" fill="#6F7072" sketch:type="MSShapeGroup" mask="url(#mask-4)"></path>
                            <path d="M187.568348,23.3517391 L185.016174,23.1995652 L185.016174,28.2691304 C185.446609,28.5326087 186.836174,28.9743478 188.573565,29.2691304 L187.842261,24.9213043 L187.568348,23.3517391 Z" id="Fill-25" fill="#6F7072" sketch:type="MSShapeGroup" mask="url(#mask-4)"></path>
                            <path d="M196.068696,12.604 L196.286087,13.730087 L196.041739,12.4587826 C196.051304,12.504 196.06,12.550087 196.068696,12.604" id="Fill-26" fill="#6F7072" sketch:type="MSShapeGroup" mask="url(#mask-4)"></path>
                            <path d="M157.801043,11.917913 L160.241043,11.6135652 L160.241043,9.51704348 L152.581043,9.51704348 L152.122783,11.6135652 L153.761043,11.9553043 C154.218435,12.0709565 154.410609,12.1466087 154.561913,12.604 L158.84713,25.764 L160.396696,20.2353043 L157.801043,11.917913 Z" id="Fill-27" fill="#6F7072" sketch:type="MSShapeGroup" mask="url(#mask-4)"></path>
                            <path d="M170.455565,10.0883478 L166.452957,10.0883478 L162.68513,23.4248696 L161.091217,29.1074783 L164.129478,29.1074783 L168.320783,14.0135652 L171.044261,25.2448696 L172.759043,19.7361739 L170.455565,10.0883478 Z" id="Fill-28" fill="#6F7072" sketch:type="MSShapeGroup" mask="url(#mask-4)"></path>
                            <path d="M176.32513,9.51678261 L175.90687,11.6133043 L178.383391,11.9176522 L176.322522,18.5646087 L176.334696,18.568087 L173.049478,29.1072174 L176.058174,29.1072174 L181.203391,12.6037391 C181.355565,12.108087 181.508609,11.955913 182.157304,11.842 L183.528609,11.6133043 L183.528609,9.51678261 L176.32513,9.51678261 Z" id="Fill-29" fill="#6F7072" sketch:type="MSShapeGroup" mask="url(#mask-4)"></path>
                        </g>
                    </g>
                </g>
            </g>
        </g>
    </g>
</svg>