<svg id="Layer_1" data-name="Layer 1" xmlns="http://www.w3.org/2000/svg" viewBox="0 0 1200 1200"><defs><style>.cls-1{fill:#fff;}</style></defs><title>video-play</title><path class="cls-1" d="M600,50a547.2,547.2,0,0,1,307.48,93.9,551.75,551.75,0,0,1,199.32,242,549.21,549.21,0,0,1-50.7,521.54,551.75,551.75,0,0,1-242,199.32,549.21,549.21,0,0,1-521.54-50.7,551.75,551.75,0,0,1-199.32-242,549.21,549.21,0,0,1,50.7-521.54,551.75,551.75,0,0,1,242-199.32A546.51,546.51,0,0,1,600,50m0-50C268.63,0,0,268.63,0,600s268.63,600,600,600,600-268.63,600-600S931.37,0,600,0Z"/><path class="cls-1" d="M818.22,561.27c29,17,29,60.49,0,77.45l-166,97L483.5,834.26c-28.42,16.6-63.5-4.79-63.5-38.73V404.47c0-33.94,35.08-55.33,63.5-38.73l168.75,98.58Z"/></svg>