<svg xmlns="http://www.w3.org/2000/svg" xmlns:xlink="http://www.w3.org/1999/xlink" width="65.095" height="65.095" viewBox="0 0 65.095 65.095">
  <defs>
    <linearGradient id="linear-gradient" x1="0.5" x2="0.5" y2="1" gradientUnits="objectBoundingBox">
      <stop offset="0" stop-color="#00b2ff"/>
      <stop offset="1" stop-color="#006aff"/>
    </linearGradient>
    <filter id="Bubble_Solid_3_" x="0" y="0" width="65.095" height="65.095" filterUnits="userSpaceOnUse">
      <feOffset dy="2" input="SourceAlpha"/>
      <feGaussianBlur stdDeviation="5" result="blur"/>
      <feFlood flood-opacity="0.302"/>
      <feComposite operator="in" in2="blur"/>
      <feComposite in="SourceGraphic"/>
    </filter>
  </defs>
  <g id="Messenger_Logo_Color_RGB" transform="translate(15 13)">
    <g transform="matrix(1, 0, 0, 1, -15, -13)" filter="url(#Bubble_Solid_3_)">
      <path id="Bubble_Solid_3_2" data-name="Bubble_Solid_3_" d="M32.548,11.5C22.662,11.5,15,18.741,15,28.521a16.652,16.652,0,0,0,5.511,12.59,1.414,1.414,0,0,1,.473,1l.1,3.121a1.406,1.406,0,0,0,1.97,1.243l3.481-1.536a1.4,1.4,0,0,1,.936-.071,19.085,19.085,0,0,0,5.081.674c9.886,0,17.548-7.241,17.548-17.021S42.433,11.5,32.548,11.5Z" transform="translate(0 1.5)" fill-rule="evenodd" fill="url(#linear-gradient)"/>
    </g>
    <path id="Bolt_4_" d="M209.865,356.278l5.155-8.177a2.635,2.635,0,0,1,3.806-.7l4.1,3.075a1.054,1.054,0,0,0,1.268,0l5.536-4.2a.833.833,0,0,1,1.207,1.109l-5.151,8.174a2.635,2.635,0,0,1-3.806.7l-4.1-3.075a1.054,1.054,0,0,0-1.268,0l-5.54,4.205A.833.833,0,0,1,209.865,356.278Z" transform="translate(-202.853 -334.278)" fill="#fff" fill-rule="evenodd"/>
  </g>
</svg>
