<?xml version="1.0" encoding="utf-8"?>
<!-- Generator: Adobe Illustrator 21.1.0, SVG Export Plug-In . SVG Version: 6.00 Build 0)  -->
<svg version="1.1" id="Layer_1" xmlns="http://www.w3.org/2000/svg" xmlns:xlink="http://www.w3.org/1999/xlink" x="0px" y="0px"
	 viewBox="0 0 423.2 205.8" style="enable-background:new 0 0 423.2 205.8;" xml:space="preserve">
<style type="text/css">
	.st0{fill:#08A3F9;}
	.st1{fill:#292C2D;}
	.st2{fill:#FFFFFF;}
</style>
<path class="st0" d="M95.5,146.7c0-3.7,0-7.3,0-11.1c13.4,0,26.9,0,40.4,0c0,3.6,0,7.3,0,11.1C122.5,146.7,109,146.7,95.5,146.7z"/>
<path class="st0" d="M21.5,177.7c0-3.7,0-7.3,0-11.1c30.7,0,61.5,0,92.4,0c0,3.6,0,7.3,0,11.1C83.2,177.7,52.5,177.7,21.5,177.7z"/>
<path class="st0" d="M78.9,69.7c0-3.7,0-7.3,0-11.1c18.6,0,37.2,0,55.9,0c0,3.6,0,7.3,0,11.1C116.3,69.7,97.7,69.7,78.9,69.7z"/>
<path class="st1" d="M414.5,184.9c-1.1,2-2.1,4.2-3.4,6.1c-4.1,5.8-9.9,8.2-16.9,8.2c-53.6,0-107.2,0-160.8,0c-26.3,0-52.5,0-78.8,0
	c-14,0-21.7-7.8-21.7-21.8c0-48.3,0-96.5,0-144.8c0-1.5,0-2.9,0-4.4c0.2-13.1,7.9-20.8,21-20.8c63.2-0.1,126.4,0,189.6,0
	c15.7,0,31.5,0.3,47.2-0.1c11.7-0.3,19.8,3.9,23.7,15.2C414.5,76.7,414.5,130.8,414.5,184.9z M402.4,39c-1.1,0.8-1.7,1.1-2.2,1.5
	c-29.7,23-59.4,46.1-89.2,69c-4.9,3.8-9.9,7.8-15.5,10.5c-18.8,8.9-36.8,6.4-53.2-6.2c-28.4-21.9-56.7-43.9-85.1-65.8
	c-3.7-2.9-7.5-5.7-11.6-8.9c0,43.1,0,85.5,0,128.5c11.4-8.8,22.2-17.2,33.1-25.6c10.9-8.4,21.7-16.8,32.6-25.2
	c4-3.1,7.4-2.8,9.8,0.4c2.2,3,1.3,6.3-2.4,9.2c-13.1,10.1-26.1,20.2-39.2,30.3c-11.2,8.6-22.3,17.3-33.4,25.9
	c1.8,4.2,5.3,4.3,8.9,4.3c79.5,0,158.9,0,238.4,0c1.2,0,2.5,0.1,3.5-0.3c1.9-0.8,3.6-2,5.8-3.3c-1.4-1.2-2-1.8-2.6-2.2
	c-22.7-17.5-45.3-35-68-52.6c-1.6-1.2-3.2-2.4-4.6-3.9c-2.2-2.4-2.2-5.2-0.3-7.7c1.9-2.4,4.6-3.3,7.5-1.6c1.7,1,3.3,2.2,4.9,3.4
	c20.1,15.6,40.2,31.2,60.4,46.8c0.8,0.6,1.7,1.1,2.8,1.7C402.4,124.5,402.4,82.1,402.4,39z M146,23.8c0.7,0.6,1.2,1,1.7,1.4
	c33.9,26.3,67.8,52.6,101.7,78.8c15.7,12.1,33.4,12,49.2-0.2c26.8-20.7,53.5-41.4,80.3-62.1c7.7-5.9,15.3-11.9,23-17.9
	c-2.1-4.3-5.7-4.3-9.4-4.3c-68.2,0-136.5,0-204.7,0c-11.2,0-22.4,0-33.6,0.1C150.9,19.6,147.8,20,146,23.8z"/>
<rect x="132.8" y="91.5" class="st2" width="13.1" height="20.8"/>
<path class="st0" d="M7.3,107.9c0-3.8,0-7.3,0-11.1c50.1,0,100.1,0,150.5,0c0,3.6,0,7.3,0,11.1C107.8,107.9,57.8,107.9,7.3,107.9z"
	/>
</svg>
