<?xml version="1.0" encoding="UTF-8"?>
<!DOCTYPE svg PUBLIC "-//W3C//DTD SVG 1.1//EN" "http://www.w3.org/Graphics/SVG/1.1/DTD/svg11.dtd">
<!-- Creator: CorelDRAW 2017 -->
<svg xmlns="http://www.w3.org/2000/svg" xml:space="preserve" width="2.19655in" height="1.84233in" version="1.1" style="shape-rendering:geometricPrecision; text-rendering:geometricPrecision; image-rendering:optimizeQuality; fill-rule:evenodd; clip-rule:evenodd"
viewBox="0 0 266.45 223.49"
 xmlns:xlink="http://www.w3.org/1999/xlink">
 <defs>
  <style type="text/css">
   <![CDATA[
    .fil0 {fill:white}
   ]]>
  </style>
 </defs>
 <g id="Layer_x0020_1">
  <metadata id="CorelCorpID_0Corel-Layer"/>
  <path class="fil0" d="M266.45 114.61c0,-22.18 -17.46,-40.23 -38.93,-40.23 -7.53,0 -14.53,2.28 -20.48,6.1 -18.47,-10.73 -41.76,-17.39 -67.2,-18.3l14.66 -42.09 30.37 7.27c-0.1,1 -0.3,1.97 -0.3,3 0,16.74 13.62,30.36 30.37,30.36 16.72,0 30.37,-13.61 30.37,-30.36 0,-16.75 -13.64,-30.36 -30.37,-30.36 -10.92,0 -20.41,5.83 -25.76,14.48l-43.42 -10.39 -20.27 58.17c-25.32,1.3 -48.36,8.36 -66.49,19.37 0.36,-0.25 0.68,-0.54 1.04,-0.79 -6.1,-4.07 -13.34,-6.47 -21.12,-6.47 -21.48,0 -38.93,18.04 -38.93,40.23 0,14.84 7.9,27.71 19.53,34.66 4.76,41.48 54.21,74.22 114.42,74.22 60.6,0 110.3,-33.18 114.5,-75.04 10.79,-7.12 18.01,-19.61 18.01,-33.83zm-154.95 14.53c0,-9.92 -8.04,-17.95 -17.95,-17.95 -9.92,0 -17.95,8.04 -17.95,17.95 0,9.92 8.04,17.95 17.95,17.95 9.92,0 17.95,-8.04 17.95,-17.95zm56.36 39.91c-38.04,25.11 -68.72,1.45 -70.09,0.38 -2.91,-2.34 -7.15,-1.88 -9.48,1.02 -2.33,2.92 -1.89,7.16 1.01,9.5 0.25,0.21 17.79,13.99 43.25,13.99 12.66,0 27.29,-3.42 42.75,-13.61 3.12,-2.06 3.98,-6.25 1.93,-9.35 -2.07,-3.12 -6.26,-3.99 -9.37,-1.93zm20.84 -39.91c0,-9.92 -8.04,-17.95 -17.95,-17.95 -9.92,0 -17.95,8.04 -17.95,17.95 0,9.92 8.04,17.95 17.95,17.95 9.92,0 17.95,-8.04 17.95,-17.95z"/>
 </g>
</svg>
