<svg xmlns="http://www.w3.org/2000/svg" width="30" height="30" viewBox="0 0 30 30"><g fill="none"><rect width="29" height="29" x=".5" y=".5" stroke="#00B4E6" rx="3"/><path fill="#00B4E6" d="M23.33 9.253c-.283.168-1.13.502-1.921.586.507-.294 1.257-1.258 1.442-2.023-.487.334-1.606.823-2.158.823v.002c-.63-.71-1.517-1.152-2.501-1.152-1.91 0-3.46 1.668-3.46 3.726 0 .286.032.563.09.83h-.002c-2.592-.072-5.621-1.47-7.329-3.865-1.048 1.956-.14 4.13 1.05 4.922-.407.034-1.158-.05-1.511-.42-.025 1.298.556 3.017 2.668 3.64-.407.237-1.126.17-1.44.117.11 1.097 1.535 2.53 3.092 2.53-.555.69-2.448 1.946-4.791 1.546 1.592 1.044 3.447 1.648 5.412 1.648 5.581 0 9.916-4.871 9.683-10.88l-.002-.021.002-.047-.002-.056a6.232 6.232 0 0 0 1.677-1.906z"/></g></svg>