<svg xmlns="http://www.w3.org/2000/svg" width="182" height="68" viewBox="0 0 182 68">
    <defs>
        <style>
            .cls-1,.cls-3{fill:#4285f4}.cls-2{fill:#fff}.cls-3,.cls-4,.cls-5,.cls-6{fill-rule:evenodd}.cls-4{fill:#34a853}.cls-5{fill:#fbbc05}.cls-6{fill:#ea4335}.cls-7{filter:url(#Rectangle_1395)}
        </style>
        <filter id="Rectangle_1395" width="182" height="68" x="0" y="0" filterUnits="userSpaceOnUse">
            <feOffset dy="1"/>
            <feGaussianBlur result="blur" stdDeviation="3"/>
            <feFlood flood-opacity=".122"/>
            <feComposite in2="blur" operator="in"/>
            <feComposite in="SourceGraphic"/>
        </filter>
    </defs>
    <g id="Group_27327" data-name="Group 27327" transform="translate(-24 -451)">
        <g class="cls-7" transform="translate(24 451)">
            <rect id="Rectangle_1395-2" width="164" height="50" class="cls-1" data-name="Rectangle 1395" rx="5" transform="translate(9 8)"/>
        </g>
        <g id="Group_27759" data-name="Group 27759" transform="translate(-25)">
            <rect id="Rectangle_1661" width="46" height="46" class="cls-2" data-name="Rectangle 1661" rx="5" transform="translate(60 461)"/>
            <g id="Group_27317" data-name="Group 27317" transform="translate(-108.452 -15.453)">
                <path id="Shape" d="M20.6 9.834a13.879 13.879 0 0 0-.22-2.471H9v4.672h6.5a5.557 5.557 0 0 1-2.41 3.646v3.031h3.9a11.78 11.78 0 0 0 3.6-8.878z" class="cls-3" transform="translate(182.531 489.972)"/>
                <path id="Shape-2" d="M11.751 20.494a11.532 11.532 0 0 0 7.994-2.926l-3.9-3.031A7.287 7.287 0 0 1 4.993 10.71H.957v3.13a12.074 12.074 0 0 0 10.794 6.654z" class="cls-4" data-name="Shape" transform="translate(179.78 491.116)"/>
                <path id="Shape-3" d="M5.32 12.678a7.141 7.141 0 0 1 0-4.59v-3.13H1.285a12.094 12.094 0 0 0 0 10.849l4.035-3.13z" class="cls-5" data-name="Shape" transform="translate(179.453 489.149)"/>
                <path id="Shape-4" d="M11.751 4.8a6.525 6.525 0 0 1 4.618 1.81l3.464-3.464A11.608 11.608 0 0 0 11.751 0 12.074 12.074 0 0 0 .957 6.654l4.035 3.13A7.2 7.2 0 0 1 11.751 4.8z" class="cls-6" data-name="Shape" transform="translate(179.78 487.453)"/>
            </g>
        </g>
        <path id="Path_132850" d="M97.808.862a4.665 4.665 0 0 1-2.052 1.348 8.592 8.592 0 0 1-2.938.479 5.821 5.821 0 0 1-2.97-.739 4.93 4.93 0 0 1-1.971-2.145 7.552 7.552 0 0 1-.712-3.305v-.887a8.02 8.02 0 0 1 .658-3.382 4.871 4.871 0 0 1 1.9-2.186 5.471 5.471 0 0 1 2.907-.757 5.448 5.448 0 0 1 3.628 1.106 4.728 4.728 0 0 1 1.55 3.221h-2.616a2.6 2.6 0 0 0-.792-1.64 2.532 2.532 0 0 0-1.689-.52 2.383 2.383 0 0 0-2.087 1.03A5.417 5.417 0 0 0 89.9-4.45v.833a5.157 5.157 0 0 0 .779 3.1A2.669 2.669 0 0 0 92.961.531a2.981 2.981 0 0 0 2.159-.645v-2.249h-2.445v-1.98h5.133zm1.6-3.288A5.749 5.749 0 0 1 99.967-5a4.066 4.066 0 0 1 1.6-1.747 4.666 4.666 0 0 1 2.423-.618 4.414 4.414 0 0 1 3.2 1.2 4.818 4.818 0 0 1 1.386 3.265l.018.663a5.066 5.066 0 0 1-1.245 3.579 4.329 4.329 0 0 1-3.342 1.348 4.35 4.35 0 0 1-3.346-1.344 5.156 5.156 0 0 1-1.25-3.655zm2.592.189a3.614 3.614 0 0 0 .52 2.11 1.715 1.715 0 0 0 1.487.73 1.719 1.719 0 0 0 1.469-.721 3.954 3.954 0 0 0 .529-2.307 3.578 3.578 0 0 0-.529-2.1 1.719 1.719 0 0 0-1.487-.744 1.691 1.691 0 0 0-1.469.739 4.021 4.021 0 0 0-.52 2.293zm7.785-.188A5.749 5.749 0 0 1 110.341-5a4.066 4.066 0 0 1 1.6-1.747 4.666 4.666 0 0 1 2.423-.618 4.414 4.414 0 0 1 3.2 1.2 4.818 4.818 0 0 1 1.387 3.265l.018.663a5.066 5.066 0 0 1-1.245 3.579 4.329 4.329 0 0 1-3.342 1.348 4.35 4.35 0 0 1-3.346-1.344 5.156 5.156 0 0 1-1.25-3.655zm2.589.188a3.614 3.614 0 0 0 .52 2.11 1.715 1.715 0 0 0 1.487.73 1.719 1.719 0 0 0 1.469-.721 3.954 3.954 0 0 0 .529-2.307 3.577 3.577 0 0 0-.529-2.1 1.719 1.719 0 0 0-1.487-.744 1.691 1.691 0 0 0-1.469.739 4.021 4.021 0 0 0-.519 2.293zm7.812-.17A5.681 5.681 0 0 1 121.249-6a3.44 3.44 0 0 1 2.862-1.362 3.017 3.017 0 0 1 2.482 1.093l.108-.914h2.347v9.371a4.143 4.143 0 0 1-.578 2.213 3.711 3.711 0 0 1-1.626 1.433 5.716 5.716 0 0 1-2.455.493 5.315 5.315 0 0 1-2.079-.427 3.689 3.689 0 0 1-1.532-1.1l1.147-1.577a3.033 3.033 0 0 0 2.347 1.084 2.22 2.22 0 0 0 1.6-.551 2.067 2.067 0 0 0 .573-1.563v-.52a3 3 0 0 1-2.356 1.012 3.431 3.431 0 0 1-2.827-1.366 5.68 5.68 0 0 1-1.08-3.624zm2.589.188a3.528 3.528 0 0 0 .525 2.064 1.682 1.682 0 0 0 1.451.748 1.8 1.8 0 0 0 1.693-.887V-4.37a1.794 1.794 0 0 0-1.675-.887 1.693 1.693 0 0 0-1.465.762 3.976 3.976 0 0 0-.528 2.275zm10.992 4.73h-2.6V-11.25h2.6zm6.594.179a4.759 4.759 0 0 1-3.472-1.308 4.649 4.649 0 0 1-1.338-3.482v-.251a5.856 5.856 0 0 1 .564-2.611 4.142 4.142 0 0 1 1.6-1.774 4.488 4.488 0 0 1 2.361-.623 4.023 4.023 0 0 1 3.131 1.254 5.1 5.1 0 0 1 1.142 3.557v1.057h-6.173a2.4 2.4 0 0 0 .757 1.523 2.288 2.288 0 0 0 1.6.573 2.8 2.8 0 0 0 2.338-1.084l1.272 1.422a3.887 3.887 0 0 1-1.577 1.286 5.173 5.173 0 0 1-2.204.461zm-.3-7.955a1.621 1.621 0 0 0-1.25.52 2.685 2.685 0 0 0-.614 1.487h3.6v-.206a1.914 1.914 0 0 0-.466-1.33 1.673 1.673 0 0 0-1.264-.472z" class="cls-2" data-name="Path 132850" transform="translate(22.835 488.25)"/>
    </g>
</svg>
