<svg width="113" height="43" viewBox="0 0 113 43" fill="none" xmlns="http://www.w3.org/2000/svg">
<path fill-rule="evenodd" clip-rule="evenodd" d="M44.4982 35.3763H44.1932V39.5696H44.4982C45.4897 39.5696 46.3789 38.7565 46.3789 37.4862C46.3789 36.1643 45.4897 35.3763 44.4982 35.3763ZM39.3646 39.5696H39.5935V35.3763H39.3646C38.272 35.3763 37.4082 36.1643 37.4082 37.4862C37.4082 38.7565 38.272 39.5696 39.3646 39.5696ZM19.4925 28.0828C19.4925 28.8708 19.8479 29.4808 20.3051 29.8115H27.141C27.3956 29.5316 27.7763 28.8201 27.7763 28.0828C27.7763 26.2279 26.506 25.0845 23.685 25.0845C20.864 25.0845 19.4925 26.2279 19.4925 28.0828ZM46.2262 41.8821C45.5147 41.8821 44.7778 41.806 44.1932 41.3995V42.5475H39.5934V41.501C39.1615 41.7295 38.577 42.0091 37.5605 41.984C35.0702 41.9329 33.0111 39.8745 33.0111 37.3331C33.0111 35.0206 35.0702 33.0637 37.5605 33.0637C38.272 33.0637 38.9581 33.1402 39.5934 33.3437V31.9203H31.9442V42.5475H27.4463V35.7067C26.9633 35.4274 25.9976 35.224 25.5403 35.3763C26.0737 35.9609 26.506 36.952 26.506 37.765C26.506 39.5696 25.083 40.891 23.4562 40.891C21.8301 40.891 20.559 39.8745 20.254 38.4515L20.1782 37.9939C19.8986 35.4274 21.8301 33.3437 24.295 33.1402C25.3622 33.0637 26.3026 33.1914 27.4463 33.3945V31.9203H19.6187V42.5475H14.9935V31.9203H12.3509L13.8247 34.2583C12.6305 33.9787 11.3087 33.9787 10.0383 34.1313C8.23419 34.2583 6.50583 34.7156 5.59124 36.0878C4.85399 37.2316 4.93014 38.7565 5.89622 39.4169C6.50583 39.8745 7.67499 40.1541 8.3865 39.748C7.97997 39.163 7.67499 38.5784 7.67499 37.9939C7.67499 36.5451 9.09801 35.224 10.7245 35.224C12.4271 35.224 13.8501 36.5451 13.8501 37.9939C13.8501 38.9092 13.2913 39.748 12.4271 40.1541C12.8336 40.8149 13.3674 41.2976 14.0024 41.2976L11.8679 42.8775C11.0041 42.6995 9.86064 41.984 9.40299 41.2976C6.96348 42.6744 2.74485 42.3906 0.991106 39.9257C-0.0547038 38.5784 0 36.2916 0.940335 34.9444C2.54141 32.6318 5.89622 32.581 8.23419 32.6318L7.75115 31.9203H0V29.8115H5.89622L2.13488 25.7702L6.73465 23.6361L9.07441 28.3481L8.23419 23.8388L12.6559 23.483C12.3509 25.2876 12.1221 27.4989 13.2913 29.0739L12.1982 29.8115H15.0446C14.5873 29.3027 14.435 28.5659 14.435 27.8547C14.435 24.8807 18.5518 23 23.6088 23C28.7674 23 32.8338 24.8807 32.8338 27.8547C32.8338 28.5659 32.6557 29.3027 32.2495 29.8115H50.8768V31.9203H44.1932V33.3437C44.7778 33.1402 45.4897 33.0637 46.2005 33.0637C48.7419 33.0637 50.7491 35.0206 50.8263 37.3331C50.9025 39.9761 48.7673 41.8821 46.2262 41.8821ZM90.2953 31.9204H82.5699C83.2049 32.632 83.5864 33.3946 83.5864 34.4111C83.5864 34.8426 83.4598 35.4022 83.3576 35.631H84.1205C84.6787 33.9788 86.4324 33.0385 88.3388 33.0385C88.9992 33.0385 89.6095 33.1404 90.2953 33.3438V31.9204ZM95.1747 35.3764H94.7932V39.5697H95.1747C96.1154 39.5697 97.1061 38.7566 97.1061 37.4863C97.1061 36.1645 96.1154 35.3764 95.1747 35.3764ZM62.2651 29.8117H112.964V31.9204H110.575C111.388 32.632 111.769 33.5723 111.769 34.5888C111.769 36.6221 110.041 38.3501 108.034 38.4517C107.678 38.4694 107.397 38.4623 107.165 38.4565C107.065 38.454 106.974 38.4517 106.89 38.4517C107.627 40.3831 110.321 40.5358 111.591 39.8747L110.321 42.6996C106.89 43.6907 104.018 42.1365 103.332 39.417C103.078 38.4517 102.824 37.7652 101.757 37.4863L102.824 35.2241C103.554 35.1095 103.978 35.3501 104.386 35.5819C104.702 35.7614 105.009 35.9356 105.442 35.9356C106.458 35.9356 107.347 35.0207 107.347 33.9788C107.347 33.0639 106.458 32.0985 105.442 31.9204H94.7932V33.3438C95.4539 33.1404 96.1154 33.0385 96.8522 33.0385C99.4441 33.0385 101.452 35.0207 101.452 37.3333C101.452 39.8747 99.4441 41.933 96.8522 41.933C96.1154 41.933 95.4539 41.7042 94.7932 41.2977V42.5477H90.2953V41.5011C89.9399 41.7042 89.3042 42.0349 88.2119 42.0349C85.6197 42.0349 83.6883 39.8747 83.6883 37.3333H82.4176C81.2484 38.6297 79.7489 38.5278 78.8343 38.4517C79.5712 40.3831 82.2395 40.5358 83.5864 39.8747L82.2395 42.6996C78.4532 43.6907 75.9875 41.9588 75.3272 39.417C75.0479 38.3751 74.5903 37.7652 73.7007 37.4863L74.8191 35.2241C75.5076 35.1043 75.967 35.3727 76.3791 35.6134C76.6664 35.7812 76.9307 35.9356 77.2336 35.9356C78.3766 35.9356 79.19 35.0207 79.19 33.9788C79.19 33.0639 78.3766 32.0985 77.3598 31.9204H73.3957V42.5477H68.9486V31.9204H67.7033V42.5477H63.2812V37.0537H61.0198V39.3916C61.0198 40.51 60.7656 41.0438 60.2321 41.2977C58.2749 42.2638 56.0135 40.5358 55.0224 38.9093C53.8786 37.0537 53.9551 34.8934 56.9538 34.5888V31.6408C56.6756 31.3027 56.1018 31.6335 55.6341 31.9032C55.5038 31.9783 55.3817 32.0487 55.2766 32.0985L54.1328 30.6755C55.2766 29.5575 56.9538 28.8202 58.4026 29.0741C60.0537 29.1502 61.0706 30.294 61.0198 31.9204V35.0207H63.2812V31.9204H62.2651V29.8117ZM89.9903 39.5697H90.2953V35.3764H89.9903C88.8723 35.3764 88.0592 36.1645 88.0592 37.4863C88.0592 38.7566 88.8723 39.5697 89.9903 39.5697Z" fill="#CACED1"/>
<path fill-rule="evenodd" clip-rule="evenodd" d="M56 20.4995L56.7783 24L57.1046 20.424L58.3097 23.7989L58.184 20.2225L59.8411 23.3959L59.2388 19.8447L61.2971 22.7915L60.2428 19.3666L62.6526 21.9855L61.1715 18.7369L63.8829 21.0284L62 18.0065L65.0126 19.9454L62.728 17.1502L65.9915 18.6865L63.3806 16.2183L66.745 17.3265L63.8577 15.236L67.3474 15.8153L64.2092 14.1786L67.7994 14.3297L64.4102 13.0956L68 12.7682L64.4856 11.9622L68 11.2066L64.4102 10.8792L67.7994 9.62031L64.2092 9.74624L67.3474 8.10914L63.8577 8.71361L66.745 6.64834L63.3806 7.70616L65.9915 5.28869L62.728 6.77427L65.0126 4.02938L62 5.91794L63.8829 2.92119L61.1715 5.18795L62.6526 1.96452L60.2428 4.58348L61.2971 1.20894L59.2388 4.07976L59.8411 0.604467L58.184 3.70196L58.3097 0.201488L57.1046 3.50047L56.7783 0L56 3.42491L55.2217 0L54.8954 3.50047L53.6903 0.201488L53.816 3.70196L52.1589 0.604467L52.7617 4.07976L50.7029 1.20894L51.7572 4.58348L49.3474 1.96452L50.8285 5.18795L48.1171 2.92119L50 5.91794L46.9874 4.02938L49.272 6.77427L46.0081 5.28869L48.6194 7.70616L45.255 6.64834L48.1423 8.71361L44.6526 8.10914L47.7908 9.74624L44.2006 9.62031L47.5898 10.8792L44 11.2066L47.5144 11.9622L44 12.7682L47.5898 13.0956L44.2006 14.3297L47.7908 14.1786L44.6526 15.8153L48.1423 15.236L45.255 17.3265L48.6194 16.2183L46.0081 18.6865L49.272 17.1502L46.9874 19.9454L50 18.0065L48.1171 21.0284L50.8285 18.7369L49.3474 21.9855L51.7572 19.3666L50.7029 22.7915L52.7617 19.8447L52.1589 23.3959L53.816 20.2225L53.6903 23.7989L54.8954 20.424L55.2217 24L56 20.4995Z" fill="#CACED1"/>
</svg>
