
<svg width="40px" height="16px" viewBox="0 0 40 16" version="1.1" xmlns="http://www.w3.org/2000/svg" xmlns:xlink="http://www.w3.org/1999/xlink">
    <g id="rev2" stroke="none" stroke-width="1" fill="none" fill-rule="evenodd">
        <g id="sidebar" transform="translate(-115.000000, -377.000000)" fill-rule="nonzero">
            <g id="Group-13" transform="translate(35.000000, 364.000000)">
                <g id="Group-10" transform="translate(70.000000, 0.000000)">
                    <g id="google-pay-mark_800_gray-copy-4" transform="translate(5.000000, 4.000000)">
                        <g id="GPay-logo" transform="translate(5.736357, 9.056604)">
                            <g id="Pay" transform="translate(16.890577, 0.897035)" fill="#3C4043">
                                <path d="M1.43260391,6.78158491 L1.43260391,11.3385229 L0.00884323402,11.3385229 L0.00884323402,0.089703504 L3.78490416,0.089703504 C4.69575727,0.0717628032 5.58008067,0.421606469 6.22563675,1.0674717 C7.51674892,2.28743935 7.59633802,4.3416496 6.38481496,5.66029111 C6.33175556,5.71411321 6.27869615,5.76793531 6.22563675,5.82175741 C5.5623942,6.45865229 4.74881667,6.78158491 3.78490416,6.78158491 L1.43260391,6.78158491 Z M1.43260391,1.47113747 L1.43260391,5.40015094 L3.82027709,5.40015094 C4.35087114,5.41809165 4.86377871,5.20280324 5.22635131,4.81707816 C5.96918296,4.03665768 5.95149649,2.78080862 5.18213514,2.02729919 C4.81956254,1.66848518 4.33318467,1.47113747 3.82027709,1.47113747 L1.43260391,1.47113747 Z" id="Shape"></path>
                                <path d="M10.5322917,3.39079245 C11.5846366,3.39079245 12.4159006,3.67784367 13.0260838,4.24297574 C13.6362668,4.80810781 13.9369368,5.59749865 13.9369368,6.59320755 L13.9369368,11.3385229 L12.5750788,11.3385229 L12.5750788,10.2710512 L12.5131761,10.2710512 C11.9206794,11.1501456 11.1424749,11.5896927 10.1608759,11.5896927 C9.32961189,11.5896927 8.62215316,11.3385229 8.06502942,10.8361833 C7.51674892,10.3697251 7.20723573,9.67900808 7.2249222,8.95240971 C7.2249222,8.15404852 7.52559215,7.52612399 8.11808884,7.05069542 C8.71058551,6.57526685 9.50647658,6.34203774 10.4969188,6.34203774 C11.3458692,6.34203774 12.0356415,6.50350405 12.583922,6.80849595 L12.583922,6.47659299 C12.583922,5.98322372 12.3716844,5.51676549 12.0002686,5.19383288 C11.6200095,4.85295956 11.1336316,4.66458221 10.6295673,4.66458221 C9.83367624,4.66458221 9.20580661,5.00545553 8.74595845,5.68720215 L7.49021921,4.88884096 C8.162305,3.89313207 9.17927692,3.39079245 10.5322917,3.39079245 Z M8.69289905,8.97932075 C8.69289905,9.35607547 8.86976372,9.70591914 9.16159045,9.92120755 C9.47994687,10.1723774 9.86904916,10.3069326 10.2669947,10.2979623 C10.8683346,10.2979623 11.4431448,10.0557628 11.86762,9.62518599 C12.3363114,9.17666846 12.5750788,8.64741779 12.5750788,8.03743396 C12.1329171,7.67861994 11.5138907,7.49921294 10.7179996,7.50818329 C10.1431894,7.50818329 9.65681155,7.65170889 9.26770926,7.92978975 C8.88745019,8.20787062 8.69289905,8.55771428 8.69289905,8.97932075 Z" id="Shape"></path>
                                <polygon id="Path" points="21.7543556 3.64196226 16.9966958 14.7203451 15.5287189 14.7203451 17.2973658 10.8451536 14.1757041 3.64196226 15.7232701 3.64196226 17.9782948 9.16769812 18.0048245 9.16769812 20.2067898 3.64196226"></polygon>
                            </g>
                            <g id="Super-G">
                                <path d="M12.5662355,6.6918814 C12.5662355,6.25233424 12.5308626,5.81278706 12.4601167,5.38221025 L6.45556084,5.38221025 L6.45556084,7.86699731 L9.89557887,7.86699731 C9.75408713,8.66535849 9.29423895,9.38298652 8.62215316,9.83150405 L8.62215316,11.4461671 L10.6737835,11.4461671 C11.8764633,10.3248733 12.5662355,8.66535849 12.5662355,6.6918814 Z" id="Path" fill="#4285F4"></path>
                                <path d="M6.45556084,13.0070081 C8.17114824,13.0070081 9.62143861,12.4329056 10.6737835,11.4461671 L8.62215316,9.83150405 C8.04734296,10.2261995 7.31335454,10.4504582 6.45556084,10.4504582 C4.79303284,10.4504582 3.38695864,9.31122372 2.88289429,7.78626415 L0.76936136,7.78626415 L0.76936136,9.45474933 C1.84823591,11.6345445 4.05020118,13.0070081 6.45556084,13.0070081 Z" id="Path" fill="#34A853"></path>
                                <path d="M2.88289429,7.78626415 C2.61759727,6.98790296 2.61759727,6.11777898 2.88289429,5.31044744 L2.88289429,3.65093261 L0.76936136,3.65093261 C-0.141491745,5.47191374 -0.141491745,7.62479785 0.76936136,9.44577898 L2.88289429,7.78626415 Z" id="Path" fill="#FBBC04"></path>
                                <path d="M6.45556084,2.64625336 C7.36641394,2.62831267 8.24189411,2.97815633 8.89629342,3.61505121 L10.7179996,1.76715904 C9.55953598,0.67277628 8.03849973,0.0717628032 6.45556084,0.089703504 C4.05020118,0.089703504 1.84823591,1.47113747 0.76936136,3.65093261 L2.88289429,5.31941779 C3.38695864,3.78548787 4.79303284,2.64625336 6.45556084,2.64625336 Z" id="Path" fill="#EA4335"></path>
                            </g>
                        </g>
                    </g>
                </g>
            </g>
        </g>
    </g>
</svg>
