<svg xmlns="http://www.w3.org/2000/svg" xmlns:xlink="http://www.w3.org/1999/xlink" width="24" height="24" viewBox="0 0 24 24">
  <defs>
    <linearGradient id="a" x1="0%" x2="110.694%" y1="0%" y2="109.202%">
      <stop offset="0%" stop-color="#724AC6"/>
      <stop offset="53.59%" stop-color="#E5375E"/>
      <stop offset="100%" stop-color="#FC9949"/>
    </linearGradient>
    <path id="b" d="M7 3.406c.646 0 1.245.162 1.797.485.552.323.99.76 1.312 1.312.323.552.485 1.151.485 1.797 0 .646-.162 1.245-.485 1.797-.323.552-.76.99-1.312 1.312A3.497 3.497 0 0 1 7 10.594a3.497 3.497 0 0 1-1.797-.485 3.604 3.604 0 0 1-1.312-1.312A3.497 3.497 0 0 1 3.406 7c0-.646.162-1.245.485-1.797.323-.552.76-.99 1.312-1.312A3.497 3.497 0 0 1 7 3.406zm0 5.938c.646 0 1.198-.23 1.656-.688.459-.458.688-1.01.688-1.656 0-.646-.23-1.198-.688-1.656A2.258 2.258 0 0 0 7 4.656c-.646 0-1.198.23-1.656.688A2.258 2.258 0 0 0 4.656 7c0 .646.23 1.198.688 1.656.458.459 1.01.688 1.656.688zm4.594-6.094a.974.974 0 0 1-.266.594.761.761 0 0 1-.578.25.811.811 0 0 1-.594-.25.811.811 0 0 1-.25-.594c0-.23.084-.427.25-.594a.811.811 0 0 1 .594-.25c.23 0 .427.084.594.25.166.167.25.365.25.594zm2.375.844C13.989 4.677 14 5.646 14 7s-.016 2.328-.047 2.922c-.031.594-.12 1.11-.265 1.547-.188.52-.474.974-.86 1.36a3.642 3.642 0 0 1-1.36.858c-.437.146-.952.235-1.546.266C9.328 13.984 8.354 14 7 14s-2.328-.016-2.922-.047c-.594-.031-1.11-.13-1.547-.297a3.331 3.331 0 0 1-1.36-.828 3.642 3.642 0 0 1-.859-1.36c-.145-.437-.234-.952-.265-1.546C.016 9.328 0 8.354 0 7s.016-2.328.047-2.922c.031-.594.12-1.11.266-1.547A3.642 3.642 0 0 1 2.531.312c.437-.145.952-.234 1.546-.265C4.672.016 5.646 0 7 0s2.328.016 2.922.047c.594.031 1.11.12 1.547.266a3.642 3.642 0 0 1 2.219 2.219c.145.437.24.958.28 1.562zm-1.5 7.031c.125-.354.208-.917.25-1.688.02-.458.031-1.104.031-1.937v-1c0-.854-.01-1.5-.031-1.938-.042-.791-.125-1.354-.25-1.687a2.255 2.255 0 0 0-1.344-1.344c-.333-.125-.896-.208-1.688-.25A45.593 45.593 0 0 0 7.5 1.25h-1c-.833 0-1.48.01-1.938.031-.77.042-1.333.125-1.687.25a2.255 2.255 0 0 0-1.344 1.344c-.125.333-.208.896-.25 1.688-.02.458-.031 1.104-.031 1.937v1c0 .833.01 1.48.031 1.938.042.77.125 1.333.25 1.687.271.646.719 1.094 1.344 1.344.354.125.917.208 1.688.25.458.02 1.104.031 1.937.031h1c.854 0 1.5-.01 1.938-.031.791-.042 1.354-.125 1.687-.25.646-.271 1.094-.719 1.344-1.344z"/>
  </defs>
  <g fill="none" fill-rule="evenodd">
    <path fill="url(#a)" fill-rule="nonzero" d="M12 0c6.627 0 12 5.373 12 12s-5.373 12-12 12S0 18.627 0 12 5.373 0 12 0z"/>
    <use fill="#FFF" fill-rule="nonzero" transform="translate(5 5)" xlink:href="#b"/>
  </g>
</svg>
