<svg xmlns="http://www.w3.org/2000/svg" class="" width="24" height="24" viewBox="0 0 24 24"><path fill="#4AC959" d="M17.883 5.29a9.058 9.058 0 0 1 1.933 2.831 8.237 8.237 0 0 1 .684 3.3 8.295 8.295 0 0 1-1.191 4.337 8.882 8.882 0 0 1-3.204 3.164 8.504 8.504 0 0 1-4.355 1.172 8.442 8.442 0 0 1-4.14-1.055L3 20.25l1.25-4.492a8.4 8.4 0 0 1-1.172-4.336A8.4 8.4 0 0 1 4.25 7.086a8.775 8.775 0 0 1 3.164-3.164A8.4 8.4 0 0 1 11.75 2.75c1.146 0 2.246.221 3.3.664a9.102 9.102 0 0 1 2.833 1.875zM11.75 18.647a7.104 7.104 0 0 0 3.633-.976 7.42 7.42 0 0 0 2.676-2.637 6.896 6.896 0 0 0 .996-3.613c0-.938-.196-1.85-.586-2.734a7.726 7.726 0 0 0-1.621-2.364 7.238 7.238 0 0 0-2.344-1.582 7.07 7.07 0 0 0-2.754-.547 7 7 0 0 0-3.613.977A7.312 7.312 0 0 0 5.5 7.809a7 7 0 0 0-.977 3.613 6.93 6.93 0 0 0 1.133 3.828l.156.273-.742 2.657 2.735-.703.273.156a6.965 6.965 0 0 0 3.672 1.015zm3.945-5.43l.117.079c.183.078.287.143.313.195.026.052.033.182.02.39a2.023 2.023 0 0 1-.157.645c-.09.222-.3.443-.625.664-.325.222-.605.345-.84.372a3.578 3.578 0 0 1-1.054 0c-.39-.079-.912-.26-1.563-.547-1.328-.573-2.539-1.641-3.633-3.203l-.078-.079c-.573-.807-.86-1.55-.86-2.226 0-.677.235-1.263.704-1.758l.04-.039c.181-.182.377-.273.585-.273h.469c.104 0 .189.02.254.058.065.04.123.137.175.293l.665 1.602c.078.156.09.286.039.39-.13.26-.3.495-.508.703a.875.875 0 0 0-.196.254c-.026.065 0 .137.079.215.364.677.794 1.211 1.289 1.602.364.286.911.612 1.64.976.209.104.365.091.469-.039.339-.39.573-.677.703-.86.052-.103.117-.155.195-.155.079 0 .17.013.274.039.208.078.703.312 1.484.703z"></path><use fill="#4AC959" fill-rule="evenodd"></use></svg>