<svg width="24" height="24" viewBox="0 0 24 24" xmlns="http://www.w3.org/2000/svg">
    <g fill="none" fillRule="evenodd">
      <circle cx="12" cy="12" r="12" fill="#F61C0D" />
      <path
        fill="#FFF"
        d="M19.367 8.315c.131.497.225 1.252.281 2.265l.028 1.38-.028 1.382c-.056 1.031-.15 1.795-.281 2.293a1.92 1.92 0 0 1-.506.828c-.244.24-.535.405-.872.497-.488.13-1.632.221-3.432.277l-2.559.027-2.56-.027c-1.8-.056-2.943-.148-3.43-.277a1.958 1.958 0 0 1-.872-.497 1.92 1.92 0 0 1-.507-.828c-.13-.498-.225-1.262-.28-2.293L4.32 11.96c0-.405.01-.866.028-1.381.056-1.013.15-1.768.281-2.265A1.958 1.958 0 0 1 6.007 6.96c.488-.129 1.632-.221 3.432-.276l2.56-.028 2.558.028c1.8.055 2.944.147 3.432.276a1.958 1.958 0 0 1 1.378 1.354zm-8.944 5.91l4.022-2.264-4.022-2.238v4.503z"
      />
    </g>
  </svg>