<?xml version="1.0" encoding="UTF-8" standalone="no"?>
<svg width="40px" height="40px" viewBox="0 0 40 40" version="1.1" xmlns="http://www.w3.org/2000/svg" xmlns:xlink="http://www.w3.org/1999/xlink">
    <!-- Generator: Sketch 39.1 (31720) - http://www.bohemiancoding.com/sketch -->
    <title>Page 1 Copy 3</title>
    <desc>Created with Sketch.</desc>
    <defs>
        <polygon id="path-1" points="0 0 40 0 40 40 0 40"></polygon>
        <path d="M0,40 L40,40 L40,0 L0,0 L0,40 L0,40 Z M29.9306667,18.8013333 C29.9306667,23.8253333 26.18,27.9773333 21.3333333,28.632 L21.3333333,32.288 L24.908,32.288 L24.908,34.9546667 L15.092,34.9546667 L15.092,32.288 L18.6666667,32.288 L18.6666667,28.632 C13.82,27.9773333 10.0693333,23.824 10.0693333,18.8013333 L10.0693333,14.4786667 L12.736,14.4786667 L12.736,18.8013333 C12.736,22.8066667 15.9933333,26.0653333 20,26.0653333 C24.0053333,26.0653333 27.264,22.8066667 27.264,18.8013333 L27.264,14.4786667 L29.9306667,14.4786667 L29.9306667,18.8013333 L29.9306667,18.8013333 Z M15.12,10.372 C15.12,7.67733333 17.304,5.492 20,5.492 C22.6946667,5.492 24.88,7.67733333 24.88,10.372 L24.88,18.1493333 C24.88,20.8453333 22.6946667,23.0293333 20,23.0293333 C17.304,23.0293333 15.12,20.8453333 15.12,18.1493333 L15.12,10.372 L15.12,10.372 Z" id="path-3"></path>
    </defs>
    <g id="Page-1" stroke="none" stroke-width="1" fill="none" fillRule="evenodd">
        <g id="Article-Type-Widgets" transform="translate(-104.000000, -4332.000000)">
            <g id="Page-1-Copy-3" transform="translate(104.000000, 4332.000000)">
                <g id="Group-3">
                    <mask id="mask-2" fill="white">
                        <use xlink:href="#path-1"></use>
                    </mask>
                    <g id="Clip-2"></g>
                    <polygon id="Fill-1" fill-opacity="0.5" fill="#000000" mask="url(#mask-2)" points="-6.66666667 -6.66666667 46.6666667 -6.66666667 46.6666667 46.6666667 -6.66666667 46.6666667"></polygon>
                </g>
                <g id="Group-6">
                    <mask id="mask-4" fill="white">
                        <use xlink:href="#path-3"></use>
                    </mask>
                    <g id="Clip-5"></g>
                    <polygon id="Fill-4" fill-opacity="0.8" fill="#00EDB4" mask="url(#mask-4)" points="-6.66666667 -6.66666667 46.6666667 -6.66666667 46.6666667 46.6666667 -6.66666667 46.6666667"></polygon>
                </g>
            </g>
        </g>
    </g>
</svg>