<?xml version="1.0" encoding="UTF-8" standalone="no"?>
<svg width="56px" height="56px" viewBox="0 0 56 56" version="1.1" xmlns="http://www.w3.org/2000/svg" xmlns:xlink="http://www.w3.org/1999/xlink">
    <!-- Generator: Sketch 40.3 (33839) - http://www.bohemiancoding.com/sketch -->
    <title>Group 2</title>
    <desc>Created with Sketch.</desc>
    <defs></defs>
    <g id="Symbols" stroke="none" stroke-width="1" fill="none" fillRule="evenodd">
        <g id="Checkbox/Rounded/Checked">
            <g id="Group-2">
                <path d="M56,28 C56,43.464 43.463,56 28,56 C12.536,56 0,43.464 0,28 C0,12.536 12.535,0 28,0 C43.464,0 56,12.536 56,28 Z" id="outline" fill="#FFBF00"></path>
                <path d="M37.3969442,18.6673563 L37.2964754,18.5617607 C36.9421906,18.1907866 36.4623197,17.9893213 35.9639414,18.0004367 C35.4655631,18.0101626 34.993624,18.2352479 34.6552026,18.6215055 L24.4351427,30.3384491 L24.234205,30.4287612 L24.0385552,30.3315021 L21.5030391,27.2206 C21.1355347,26.7732082 20.6093953,26.5050509 20.046241,26.4814308 C19.4830868,26.4578108 18.935796,26.6842855 18.5378866,27.1011103 C17.9033466,27.7694193 17.8200632,28.8212071 18.3422367,29.5881646 L23.5732259,37.2869177 C23.8706665,37.7259731 24.3505374,37.983015 24.8621353,37.983015 L25.3182109,37.983015 C26.1788058,37.983015 26.9838784,37.5411808 27.471681,36.7992327 L37.6296089,21.3794959 C38.1848314,20.5361205 38.0856845,19.3940207 37.3969442,18.6673563" id="check" fill="#FFFFFF"></path>
            </g>
        </g>
    </g>
</svg>