<svg xmlns="http://www.w3.org/2000/svg" xmlns:xlink="http://www.w3.org/1999/xlink" width="283" height="161"><defs><path d="M55.135 38.808V1H71.75v53.005h-17.15c-8.757 0-16.44-5.246-20.37-13.93l-9.29-18.632c-.537-1.266-2.857-5.247-6.613-5.247h-.537v37.808H1V1h17.327c8.576 0 16.258 5.247 20.546 13.924l9.113 18.637c.894 1.627 3.043 5.247 6.613 5.247h.537v.001z" id="A"/><path d="M35.43 0v12.48H16.77v28.037h18.66v12.486H.127V0H35.43zm153.1 0h17.745l-28.35 53.004h-20.67l-22.87-40.523h-23.044v40.523h-16.46V12.48H69.27c1.29 4.342 1.29 8.683 1.29 10.3v5.8c0 15.195-7.7 24.423-23.785 24.423h-11.34V40.52H44.4c6.58 0 9.5-2.893 9.5-8.317V20.62c0-4.886-3.1-8.14-9.5-8.14h-8.965V.001h110.1l22.135 39.435L188.53 0z" id="B"/><path d="M20.565 10.476c0 5.543-4.514 10.156-10.345 10.156C4.58 20.632.065 16.02.065 10.476.065 4.94 4.58.133 10.22.133c5.83 0 10.345 4.806 10.345 10.343z" id="C"/></defs><g transform="translate(-1 -1)" fill="none" fill-rule="evenodd"><path d="M62.475 97.317V139.6H51.41v-18.247H36.054v1.404c0 2.422-.495 4.114-1.486 5.078s-2.422 1.445-4.293 1.445c-1.156 0-2.422-.372-3.798-1.115s-2.683-1.72-3.922-2.93-2.257-2.518-3.055-3.922-1.197-2.738-1.197-4.004c0-1.43.4-2.628 1.197-3.59s2.353-1.445 4.665-1.445H25V97.317h-9.247v-9.082h54.575v9.082h-7.843zm-11.064 0H36.054v14.944H51.41V97.317z" fill="#69a7c7" fill-rule="nonzero"/><path d="M61.98 159.818c-3.303 1.266-6.495 1.9-9.577 1.9-2.972 0-5.504-.55-7.596-1.65s-3.702-2.56-4.83-4.376a11.05 11.05 0 0 1-1.693-5.945c0-3.743 1.32-6.784 3.963-9.123s6.302-3.51 10.98-3.51c4.128 0 7.775.784 10.94 2.353s6.04 3.647 8.628 6.234 5.01 5.477 7.266 8.67l-8.01 4.79c-2.697-4.348-5.518-7.72-8.463-10.114s-6.178-3.59-9.7-3.59c-1.816 0-3.248.344-4.293 1.032s-1.57 1.72-1.57 3.096.468 2.353 1.404 2.93 2.092.867 3.468.867c1.1 0 2.174-.124 3.22-.372s2.037-.592 2.972-1.032l2.89 7.843z" fill="#73a34c"/><g fill-rule="nonzero"><path d="M146.55 97.317h-7.844V139.6H127.64v-10.32c-1.872 1.046-3.743 1.816-5.614 2.312s-4.1.743-6.688.743c-3.192 0-6.068-.55-8.628-1.65s-4.582-2.766-6.068-4.995-2.23-4.995-2.23-8.298c0-4.57 1.6-8.215 4.83-10.94s7.527-4.087 12.92-4.087c1.76 0 3.468.07 5.12.206s2.945.316 3.88.537l-.826 9.165c-1.872-.44-3.963-.66-6.275-.66-2.917 0-5.078.51-6.48 1.527s-2.105 2.436-2.105 4.252c0 2.202.674 3.715 2.023 4.54s2.96 1.24 4.83 1.24c2.422 0 4.555-.468 6.4-1.404s3.48-2.174 4.913-3.715V97.316H95.358v-9.082h51.2l.001 9.083zm-1.238 0v-9.082 9.082z" fill="#ecb649"/><path d="M146.55 97.317v-9.082 9.082zm-20.146-8.504c-.99-1.926-1.68-3.674-2.064-5.243s-.578-3.096-.578-4.582c0-4.073 1.404-7.32 4.21-9.743s6.66-3.633 11.56-3.633c4.403 0 8.077 1.018 11.022 3.055s5.34 4.76 7.183 8.174 3.316 7.21 4.417 11.394h8.67v9.082h-7.844V139.6h-11.064V97.317H145.3v-9.082h7.018c-1.376-4.403-3-7.76-4.87-10.073s-4.128-3.468-6.77-3.468c-1.98 0-3.454.55-4.417 1.65s-1.445 2.504-1.445 4.21c0 1.65.22 3.15.66 4.5a28.01 28.01 0 0 0 1.569 3.839l-10.65-.082z" fill="#d57d4a"/></g><path d="M262.284 97.317V139.6H251.22v-27.33h-7.1c-2.202 0-3.88-.055-5.036-.165 1.43 1.486 2.546 3.096 3.344 4.83s1.197 3.564 1.197 5.5c0 2.642-.633 4.87-1.9 6.688s-2.958 3.192-5.078 4.128-4.5 1.404-7.142 1.404c-3.358 0-6.59-.757-9.7-2.27s-6.055-4.197-8.834-8.05-5.38-9.33-7.802-16.43l9.412-3.468c2.367 6.825 4.83 12.013 7.39 15.563s5.408 5.325 8.545 5.325c1.266 0 2.27-.344 3.014-1.032s1.115-1.693 1.115-3.014c0-1.98-.702-3.853-2.105-5.614s-3.344-3.358-5.82-4.79l3.55-7.678h22.953v-5.862h-49.704v-9.082h68.61v9.082h-7.843z" fill="#c85249"/><mask id="D" fill="#fff"><use xlink:href="#A"/></mask><path fill="#000" mask="url(#D)" d="M.312 54.674h72.126V.33H.312z"/><g transform="translate(77.667 1)"><mask id="E" fill="#fff"><use xlink:href="#B"/></mask><path fill="#000" mask="url(#E)" d="M-.585 53.674H206.98V-.67H-.585z"/></g><g transform="translate(62.923 18.692)"><mask id="F" fill="#fff"><use xlink:href="#C"/></mask><path fill="#ec1d24" mask="url(#F)" d="M-.64 21.34h21.913V-.574H-.64z"/></g></g></svg>