<svg xmlns="http://www.w3.org/2000/svg" xmlns:xlink="http://www.w3.org/1999/xlink" width="386" height="132"><style><![CDATA[.B{fill:#fff}.C{fill:#204f8c}.D{stroke:#204f8c}.E{stroke-linejoin:round}.F{stroke-width:2.142}]]></style><defs><path d="M.378.435h18.756c13.71 0 23.18 8.733 23.18 21.526 0 12.73-9.596 21.526-23.616 21.526H.378V.435zM11.47 9.168v25.586h7.914c6.792 0 11.652-5.167 11.652-12.732 0-7.626-5.1-12.854-12.15-12.854H11.47z" id="A"/><path d="M23.6.066c13.484 0 23.55 9.355 23.55 21.85 0 12.556-10.068 22.096-23.55 22.096-13.422 0-23.488-9.48-23.488-22.096C.102 9.36 10.168.066 23.6.066zm.124 9.17c-6.71 0-12.303 5.477-12.303 12.74S17.066 34.84 23.714 34.84c6.712 0 12.055-5.6 12.055-12.864s-5.344-12.74-12.055-12.74z" id="B"/><path d="M23.564.066c6.47 0 13.188 2.832 17.543 7.263l-6.408 7.51c-2.86-3.446-7.092-5.6-10.95-5.6-6.904 0-12.13 5.416-12.13 12.494 0 7.2 5.226 12.68 12.13 12.68 3.67 0 7.9-1.97 10.95-5.047l6.47 6.77c-4.666 4.74-11.57 7.878-17.978 7.878C10.065 44.01.298 34.47.298 21.854.298 9.42 10.313.066 23.564.066z" id="C"/><path id="D" d="M37.777 9.23H24.57v34.257H13.43V9.23H.35V.373h37.427z"/><path d="M23.97.066c13.494 0 23.568 9.355 23.568 21.85 0 12.556-10.074 22.096-23.568 22.096-13.432 0-23.506-9.48-23.506-22.096C.463 9.36 10.537.066 23.97.066zm.124 9.17c-6.716 0-12.312 5.477-12.312 12.74S17.44 34.84 24.093 34.84c6.717 0 12.064-5.6 12.064-12.864S30.8 9.236 24.093 9.236z" id="E"/><path d="M26.184 43.487l-6.44-12.116h-8.67v12.116H.05V.435h19.383c11.457 0 18.022 5.413 18.022 15.007 0 6.58-2.787 11.316-7.865 13.838l9.104 14.207h-12.5zm-15.1-20.726h8.36c4.77 0 7.555-2.4 7.555-6.95 0-4.5-2.786-6.766-7.555-6.766h-8.36V22.76z" id="F"/><path d="M38.375.003H57.34c1.908 0 3.448 1.527 3.448 3.41v19.58c0 1.887 1.34 2.648 2.99 1.705l17.168-9.8c1.654-.943 3.762-.385 4.714 1.244l9.483 16.228c.953 1.632.386 3.713-1.264 4.654l-17.193 9.8c-1.65.942-1.65 2.466 0 3.407l17.193 9.797c1.65.94 2.216 3.023 1.264 4.652L85.663 80.93c-.953 1.632-3.063 2.186-4.714 1.244l-17.168-9.79c-1.654-.943-2.99-.177-2.99 1.708v19.594c0 1.888-1.544 3.414-3.448 3.414H38.375c-1.908 0-3.448-1.526-3.448-3.41V74.07c0-1.883-1.337-2.646-2.987-1.704l-17.193 9.8c-1.65.942-3.76.384-4.712-1.245L.552 64.702a3.38 3.38 0 0 1 1.263-4.652l17.194-9.797c1.65-.94 1.65-2.466 0-3.407l-17.194-9.8C.165 36.095-.4 34.012.552 32.382l9.483-16.228a3.47 3.47 0 0 1 4.712-1.245l17.193 9.8c1.65.94 2.987.176 2.987-1.71V3.417c0-1.888 1.544-3.414 3.448-3.414z" id="G"/><path d="M3.558.398c1.358 0 3.26 1.767 3.222 3.368L4.463 81.244c-.015.59-.814.33-.844-.277L.08 4.044C.015 2.22 1.66.398 3.558.398z" id="H"/><path d="M11.02 1.912c.86.73 1.535 1.4 1.535 2.12 0 .756-.565.53-1.163.807-.316.147-.287.463-.802.463-1.238 0-1.8-.704-3.48-.704-1.393 0-3.14 1.7-3.162 4.72-.024 3.415 1.8 6.074 3.912 7.648l.218 6.452C5.823 22.487 0 16.393 0 9.38 0 3.278 4.03.293 8.042.293c1.44 0 2.086.86 2.978 1.618z" id="I"/><path d="M2 1.176C.66 1.217.36.635.24.052 1.558-.163 1.426.65 2 1.176z" id="J"/><path d="M8.807 5.1l.786-4.92C11.3.977 12.83 2.334 12.71 5.88c-.27 8.038-9.124 10.848-9.124 13.393 0 1.8 1.716 3.297 1.716 3.297l.16 4.538c-1.28-.643-5.35-3.537-5.35-7.872 0-5.63 6.41-7.92 8.695-14.138z" id="K"/><path d="M5.432.432c.556.154 2.923 2.097 2.923 4.795 0 2.308-1.782 4.446-3.98 6.628-2.565 2.55-2.725 5.78-1.21 9.12l.13 2.733C2.194 22.857.08 20.16.08 15.724c0-5.34 4.944-6.847 5.134-11.8l.22-3.5z" id="L"/><path d="M2.062.307S3.5 1.106 3.5 3.185c0 1.957-2.377 3.745-2.74 4.01-.35.256-.486-.078-.203-.35.292-.28 1.445-2.294 1.445-4.197l.06-2.343z" id="M"/></defs><g fill="none" fill-rule="evenodd"><path d="M310.347 119.807c.888-.227.88-.527 1.455-.9s.863-.884.863-1.532c0-.778-.378-1.378-1.134-1.8s-2.006-.632-3.748-.632c-1.94 0-3.4.35-4.414 1.046s-1.504 1.646-1.504 2.845a5.27 5.27 0 0 0 .567 2.36c.377.763 1.06 1.613 2.047 2.553s2.417 2.1 4.3 3.453l-4.3 4.33-4.882-4.33c-1.38-1.362-2.45-2.748-3.206-4.158s-1.134-2.943-1.134-4.596c0-1.232.238-2.326.715-3.283a8.24 8.24 0 0 1 1.9-2.505c-.592-.68-1.077-1.45-1.455-2.3s-.567-1.856-.567-3c0-1.038.2-1.92.567-2.65s.88-1.32 1.504-1.775c.822-.65 1.8-1.1 2.934-1.386s2.704-.413 4.7-.413h5.03V98.42h-16.817v-5.35h28.06v5.35h-4.636v8.074h-11.44c-.92 0-1.562.04-1.923.122s-.658.22-.888.413c-.427.324-.64.8-.64 1.46 0 .55.23 1.102.7 1.654 1.545-.4 3.206-.584 4.98-.584 2.663 0 4.817.365 6.46 1.094s2.844 1.678 3.6 2.845 1.134 2.4 1.134 3.696c0 3.988-2.597 6.582-7.792 7.782l-1.036-5.156zm-27.864-21.4h-3.945v-5.35h3.7c-.395-.843-.715-1.67-.962-2.48s-.37-1.62-.37-2.432c0-2.562 1.036-4.604 3.107-6.128s5.112-2.286 9.124-2.286c3.65 0 6.97.632 9.962 1.897a31.55 31.55 0 0 1 8.162 5.01c2.45 2.075 4.578 3.988 6.584 6.42H310.3c-2.433-2.66-4.907-4.36-7.62-5.788a18.21 18.21 0 0 0-8.606-2.14c-2.137 0-3.756.38-4.858 1.143a3.61 3.61 0 0 0-1.652 3.137 6.62 6.62 0 0 0 .296 1.97 7.47 7.47 0 0 0 .74 1.678h5.178v5.35h-4.685V123.3h-6.608V98.406zM313 83.33a3.53 3.53 0 0 1 1.06-2.578c.707-.713 1.57-1.07 2.6-1.07s1.874.357 2.564 1.07a3.57 3.57 0 0 1 1.036 2.578c0 1.038-.345 1.905-1.036 2.602s-1.545 1.046-2.564 1.046-1.882-.35-2.6-1.046S313 84.367 313 83.33zm29.195 43.287c-.658-1.07-1.3-2.205-1.923-3.405l-1.578-3.113c-.855.097-1.825.146-2.9.146a20.82 20.82 0 0 1-4.586-.511c-1.512-.34-2.893-.892-4.143-1.654a8.52 8.52 0 0 1-2.984-3.064c-.74-1.28-1.1-2.878-1.1-4.8 0-1.427.27-2.667.814-3.72a7.86 7.86 0 0 1 2.195-2.651c1.052-.8 2.3-1.435 3.773-1.873s3.082-.705 4.858-.803v-2.772h-12.773v-5.35h27.52v5.35h-8.137v8.122h-2.515c-1.907 0-3.386.08-4.44.243s-1.94.422-2.663.778c-1.38.65-2.07 1.686-2.07 3.113 0 1.232.5 2.245 1.53 3.04s2.778 1.192 5.277 1.192h.37c.148 0 .32-.016.518-.05a5.62 5.62 0 0 1-.1-1.02c0-1.2.444-2.06 1.332-2.578a5.58 5.58 0 0 1 2.86-.778c1.743 0 3.074.462 3.995 1.386s1.38 2.002 1.38 3.234c0 1.135-.255 1.994-.764 2.578s-1.142 1.054-1.9 1.4c.953 1.6 2.137 3.324 3.55 5.204l-5.376 2.335zm10.406-28.2h-3.255v-5.35h3.304c-1.052-2.594-2.244-4.572-3.575-5.934s-2.885-2.043-4.66-2.043c-1.315 0-2.293.332-2.934.997s-.962 1.532-.962 2.602c0 .94.123 1.8.37 2.578s.373 1.12.768 1.8h-6.396a10.44 10.44 0 0 1-1.005-2.65c-.23-.923-.345-1.84-.345-2.748 0-2.432.855-4.36 2.564-5.788s4.093-2.14 7.15-2.14c2.828 0 5.203.6 7.126 1.8s3.518 2.805 4.784 4.815 2.343 4.248 3.23 6.712h5.13v5.35H359.2v24.902h-6.608V98.406zm-69.295-44.36l-13.814 24.896-14.326-24.896h-91.84V68.4h-4.86V54.057h-11.512v23.9c-2.814 0-4.093-2.263-4.86-3.27L135.7 62.86c-3.07-5.533-8.186-8.802-14.07-8.802h-12.023v33.447h11.512v-23.9c2.814 0 4.35 2.515 4.86 3.27l6.395 11.82c2.814 5.533 7.93 8.802 14.07 8.802h11.768V71.912h4.86v15.592h26.86c10.5 0 15.605-5.784 15.605-15.34V68.4c0-1.006 0-3.772-.767-6.538h17.14v25.65h10.744v-25.65h15.093l15.093 25.65h13.56l18.675-33.447h-11.768zm-88.513 20.37c0 3.52-2.047 5.28-6.14 5.28h-14.07V61.853h14.07c4.093 0 6.14 2.012 6.14 5.03v7.544z" fill="#151616" fill-rule="nonzero"/><path d="M168.188 70.906c0 3.772-3.326 7.04-7.42 7.04s-7.163-3.27-7.163-7.04 3.326-7.293 7.163-7.293c4.093 0 7.42 3.27 7.42 7.293" fill="#d8232a"/><g transform="translate(109.275 5.036)"><mask id="N" class="B"><use xlink:href="#A"/></mask><path mask="url(#N)" d="M.37 43.492h41.944V.415H.37z" class="C"/></g><g transform="translate(156.253 5.036)"><mask id="O" class="B"><use xlink:href="#B"/></mask><path mask="url(#O)" d="M.047 44.033h47.128V.02H.047z" class="C"/></g><g transform="translate(207.316 5.036)"><mask id="P" class="B"><use xlink:href="#C"/></mask><path mask="url(#P)" d="M.276 44.033H41.18V.02H.276z" class="C"/></g><g transform="translate(251.74 5.036)"><mask id="Q" class="B"><use xlink:href="#D"/></mask><path mask="url(#Q)" d="M.335 43.492h37.48V.358H.335z" class="C"/></g><g transform="translate(291.059 5.036)"><mask id="R" class="B"><use xlink:href="#E"/></mask><path mask="url(#R)" d="M.428 44.033H47.6V.02H.428z" class="C"/></g><g transform="translate(346.717 5.036)"><mask id="S" class="B"><use xlink:href="#F"/></mask><path mask="url(#S)" d="M.028 43.492h38.675V.415H.028z" class="C"/></g><mask id="T" class="B"><use xlink:href="#G"/></mask><path mask="url(#T)" d="M.067 97.137h95.58V0H.067z" class="C"/><g transform="translate(44.935 7.554)"><mask id="U" class="B"><use xlink:href="#H"/></mask><path mask="url(#U)" d="M.048 81.564h6.748V.375H.048z" class="C"/></g><path d="M48.382 8.058c1.345 0 3.23 1.765 3.19 3.364L49.28 88.804c-.015.6-.807.328-.836-.277L44.937 11.7c-.064-1.82 1.565-3.642 3.445-3.642z" class="B"/><g transform="translate(37.276 13.597)"><mask id="V" class="B"><use xlink:href="#I"/></mask><path mask="url(#V)" d="M-.047 23.423h12.652V.246H-.047z" class="C"/></g><path d="M48.48 15.722c.874.733 1.56 1.403 1.56 2.124 0 .758-.574.53-1.183.81-.32.147-.292.464-.815.464-1.26 0-1.82-.706-3.538-.706-1.416 0-3.194 1.713-3.215 4.728-.024 3.42 1.832 6.085 3.978 7.662l.222 6.463c-2.294-.93-8.215-7.037-8.215-14.062 0-6.113 4.098-9.103 8.177-9.103 1.464 0 2.12.862 3.028 1.62z" class="B D E F"/><g transform="translate(45.446 15.611)" class="B"><mask id="W"><use xlink:href="#J"/></mask><path mask="url(#W)" d="M.194 1.226h1.838V0H.194z"/></g><g transform="translate(41.361 33.237)"><mask id="X" class="B"><use xlink:href="#K"/></mask><path mask="url(#X)" d="M.066 27.138h12.652V.13H.066z" class="C"/></g><path d="M50.168 38.7c-2.313 6.277-8.807 8.59-8.807 14.276 0 4.378 4.12 7.3 5.418 7.95l-.162-4.583s-1.738-1.513-1.738-3.33c0-2.57 8.968-5.407 9.24-13.524.12-3.582-1.427-4.953-3.156-5.76l-.796 4.97z" class="B D E F"/><g transform="translate(44.935 57.41)"><mask id="Y" class="B"><use xlink:href="#L"/></mask><path mask="url(#Y)" d="M.048 23.726h8.333V.41H.048z" class="C"/></g><path d="M50.22 57.913c.55.157 2.885 2.133 2.885 4.876 0 2.346-1.76 4.52-3.93 6.74-2.532 2.594-2.7 5.876-1.195 9.274l.13 2.78c-1.086-.867-3.175-3.608-3.175-8.12 0-5.43 4.88-6.962 5.068-12l.217-3.55z" class="B D E F"/><g transform="translate(46.978 80.071)"><mask id="Z" class="B"><use xlink:href="#M"/></mask><path mask="url(#Z)" d="M.384 7.327h3.163V.302H.384z" class="C"/></g><path d="M49.13 80.07s1.423.806 1.423 2.907c0 1.977-2.353 3.783-2.712 4.05-.347.26-.48-.08-.2-.353.29-.283 1.43-2.316 1.43-4.24l.06-2.366z" stroke-width="1.192" class="B D E"/></g></svg>