<svg xmlns="http://www.w3.org/2000/svg" xmlns:xlink="http://www.w3.org/1999/xlink" width="65.091" height="65.091" viewBox="0 0 65.091 65.091">
  <defs>
    <linearGradient id="linear-gradient" x1="0.667" y1="0.167" x2="0.417" y2="0.75" gradientUnits="objectBoundingBox">
      <stop offset="0" stop-color="#37aee2"/>
      <stop offset="1" stop-color="#1e96c8"/>
    </linearGradient>
    <filter id="Ellipse_19" x="0" y="0" width="65.091" height="65.091" filterUnits="userSpaceOnUse">
      <feOffset dy="3" input="SourceAlpha"/>
      <feGaussianBlur stdDeviation="5" result="blur"/>
      <feFlood flood-opacity="0.282"/>
      <feComposite operator="in" in2="blur"/>
      <feComposite in="SourceGraphic"/>
    </filter>
    <linearGradient id="linear-gradient-2" x1="0.66" y1="0.437" x2="0.851" y2="0.802" gradientUnits="objectBoundingBox">
      <stop offset="0" stop-color="#eff7fc"/>
      <stop offset="1" stop-color="#fff"/>
    </linearGradient>
  </defs>
  <g id="Telegram_logo" transform="translate(15 12)">
    <g transform="matrix(1, 0, 0, 1, -15, -12)" filter="url(#Ellipse_19)">
      <circle id="Ellipse_19-2" data-name="Ellipse 19" cx="17.546" cy="17.546" r="17.546" transform="translate(15 12)" fill="url(#linear-gradient)"/>
    </g>
    <path id="Path_131753" data-name="Path 131753" d="M84.339,93.89c-.568,0-.472-.215-.668-.756L82,87.633,94.867,80" transform="translate(-70.011 -68.303)" fill="#c8daea"/>
    <path id="Path_131754" data-name="Path 131754" d="M98,148.88a1.124,1.124,0,0,0,.877-.439l2.339-2.275-2.918-1.76" transform="translate(-83.671 -123.293)" fill="#a9c9dd"/>
    <path id="Path_131755" data-name="Path 131755" d="M56.393,82.741l7.071,5.224c.807.445,1.389.215,1.59-.749l2.878-13.563c.295-1.181-.45-1.717-1.222-1.367L49.81,78.8c-1.154.463-1.147,1.106-.21,1.393l4.337,1.354,10.041-6.335c.474-.287.909-.133.552.184" transform="translate(-41.766 -61.627)" fill="url(#linear-gradient-2)"/>
  </g>
</svg>
