<?xml version="1.0" encoding="UTF-8"?>
<svg width="66px" height="500px" viewBox="0 0 66 500" version="1.1" xmlns="http://www.w3.org/2000/svg" xmlns:xlink="http://www.w3.org/1999/xlink">
    <!-- Generator: Sketch 53.2 (72643) - https://sketchapp.com -->
    <title>ICON SPRITE</title>
    <desc>Created with Sketch.</desc>
    <g id="ICON-SPRITE" stroke="none" stroke-width="1" fill="none" fill-rule="evenodd">
        <g id="iconfinder_38-instagram_1161953" transform="translate(15.000000, 97.000000)" fill-rule="nonzero">
            <path d="M34.04,3.626 C32.116,1.628 29.378,0.592 26.27,0.592 L11.026,0.592 C4.588,0.592 0.296,4.884 0.296,11.322 L0.296,26.492 C0.296,29.674 1.332,32.412 3.404,34.41 C5.402,36.334 8.066,37.296 11.1,37.296 L26.196,37.296 C29.378,37.296 32.042,36.26 33.966,34.41 C35.964,32.486 37,29.748 37,26.566 L37,11.322 C37,8.214 35.964,5.55 34.04,3.626 Z" id="Shape" fill="#B16B4F"></path>
            <path d="M33.744,26.566 C33.744,28.86 32.93,30.71 31.598,31.968 C30.266,33.226 28.416,33.892 26.196,33.892 L11.1,33.892 C8.88,33.892 7.03,33.226 5.698,31.968 C4.366,30.636 3.7,28.786 3.7,26.492 L3.7,11.322 C3.7,9.102 4.366,7.252 5.698,5.92 C6.956,4.662 8.88,3.996 11.1,3.996 L26.344,3.996 C28.564,3.996 30.414,4.662 31.746,5.994 C33.004,7.326 33.744,9.176 33.744,11.322 L33.744,26.566 L33.744,26.566 Z" id="Path" fill="#FFFFFF"></path>
            <path d="M18.648,9.398 C13.468,9.398 9.176,13.616 9.176,18.87 C9.176,24.124 13.394,28.342 18.648,28.342 C23.902,28.342 28.12,24.05 28.12,18.87 C28.12,13.69 23.828,9.398 18.648,9.398 Z M18.648,24.938 C15.318,24.938 12.58,22.2 12.58,18.87 C12.58,15.54 15.318,12.802 18.648,12.802 C21.978,12.802 24.716,15.54 24.716,18.87 C24.716,22.2 21.978,24.938 18.648,24.938 Z" id="Shape" fill="#B16B4F"></path>
            <circle id="Oval" fill="#B16B4F" cx="28.49" cy="9.176" r="2.146"></circle>
        </g>
        <g id="iconfinder_social_style_3_rss_341106" transform="translate(15.000000, 30.000000)" fill-rule="nonzero">
            <rect id="rect2989" fill="#FC5345" transform="translate(18.500000, 18.500000) rotate(180.000000) translate(-18.500000, -18.500000) " x="0" y="0" width="37" height="37" rx="6"></rect>
            <path d="M5.85759357,19.2985048 C9.01589768,19.2985048 11.9849085,20.5322337 14.2161299,22.7762121 C16.451435,25.0201891 17.682102,28.009099 17.682102,31.1908735 L22.5491564,31.1908735 C22.5491564,21.9491335 15.0610661,14.4309402 5.85759357,14.4309402 L5.85759357,19.2985048 Z M5.86525156,10.6700586 C17.121367,10.6700586 26.2794292,19.8781228 26.2794292,31.1969966 L31.1464844,31.1969966 C31.1464844,17.1938191 19.8046504,5.8030034 5.86525156,5.8030034 L5.86525156,10.6700586 Z M12.5956535,27.7968447 C12.5956535,29.6581521 11.0858923,31.1679133 9.2245849,31.1679133 C7.3632775,31.1679133 5.85351562,29.6586623 5.85351562,27.7968447 C5.85351562,25.9345162 7.36276658,24.4257755 9.22407398,24.4257755 C11.0853828,24.4257755 12.5956535,25.9345162 12.5956535,27.7968447 L12.5956535,27.7968447 Z" id="path3844" fill="#FFFFFF"></path>
        </g>
        <g id="iconfinder_social_style_3_youtube_341094" transform="translate(15.000000, 232.000000)" fill-rule="nonzero">
            <rect id="rect2989" fill="#CC3333" transform="translate(18.500000, 18.500000) rotate(180.000000) translate(-18.500000, -18.500000) " x="0" y="0" width="37" height="37" rx="6"></rect>
            <g id="g3294" transform="translate(5.795370, 4.346597)" fill="#FFFFFF">
                <path d="M21.2079559,17.8763049 C20.9393755,17.8763049 20.7452399,18.0049114 20.6738042,18.2234533 C20.6452745,18.3205211 20.6109497,18.2177696 20.6109497,18.9019251 L20.6109497,20.0903652 L21.7737577,20.0903652 L21.7737577,18.9019251 C21.7737577,18.2647991 21.7365354,18.3591922 21.7080057,18.2606756 C21.6336724,18.0192877 21.4480065,17.8763049 21.2079559,17.8763049 Z M15.6028737,18.2864192 C15.3543533,18.2864192 15.1630038,18.4335255 15.0915681,18.6749134 C15.0571319,18.7847973 15.0199095,19.0021134 15.0199095,19.734747 L15.0199095,21.9174916 C15.0199095,22.6259419 15.0628155,22.853065 15.1000378,22.9700814 C15.1799433,23.2258456 15.3686182,23.3729519 15.61725,23.3729519 C15.8743516,23.3729519 16.0628036,23.220162 16.1398115,22.952919 C16.1713502,22.8344539 16.2114701,22.5986381 16.2114701,21.8272219 L16.2114701,19.7346356 C16.2114701,19.0447965 16.1626576,18.8132156 16.1285557,18.7005456 C16.0456412,18.4392091 15.8542917,18.2864192 15.6028737,18.2864192 Z M25.1903002,15.1424691 C24.9761046,13.1855103 23.242034,11.588516 21.2908703,11.4513283 C15.5628653,11.2070428 9.846339,11.2070428 4.11543643,11.4513283 C2.16995638,11.5884046 0.432988278,13.1855103 0.218792674,15.1424691 C0.00459707007,18.234932 0.00459707007,21.2760193 0.218792674,24.3700425 C0.432988278,26.3255525 2.16995638,27.9239955 4.11543643,28.0610718 C9.846339,28.3068061 15.5627538,28.3039085 21.2908703,28.0610718 C23.242034,27.9239955 24.9761046,26.3255525 25.1903002,24.3700425 C25.4047187,21.2760193 25.4047187,18.234932 25.1903002,15.1424691 Z M7.40370672,15.7380265 L5.77818274,15.7380265 L5.77818274,24.8570533 L4.07565088,24.8570533 L4.07565088,15.7380265 L2.45581055,15.7380265 L2.45581055,14.0083022 L7.40370672,14.0083022 L7.40370672,15.7380265 Z M12.1005193,24.868532 L10.4690888,24.868532 L10.4919348,24.4142858 L9.98341527,24.2884654 C9.85480876,24.5414435 9.69778399,24.7298955 9.52069928,24.8527069 C9.34640067,24.9699462 9.14936746,25.0268941 8.92079556,25.0268941 C8.65789888,25.0268941 8.43779673,24.971172 8.27219077,24.8626255 C8.10090115,24.7497326 7.97786684,24.6026263 7.89807285,24.4155117 C7.80668867,24.2055509 7.74940639,23.987009 7.72956933,23.7613347 C7.7037143,23.5183865 7.692347,23.0200083 7.692347,22.2772333 L7.692347,16.6279078 L9.30349468,16.6279078 L9.30349468,21.8101709 C9.30349468,22.7458558 9.33224726,22.9843462 9.36077696,23.0886579 C9.42363145,23.3314947 9.62345076,23.4771521 9.89492864,23.4771521 C10.1778853,23.4771521 10.3836111,23.3256996 10.4405591,23.0713841 C10.4661912,22.9657351 10.4919348,22.7243471 10.4919348,21.7445304 L10.4919348,16.6279078 L12.1005193,16.6279078 L12.1005193,24.868532 L12.1005193,24.868532 Z M17.8197202,18.9135153 L17.8197202,23.2214993 C17.8197202,23.1915209 17.785284,23.6872243 17.7226524,24.0042828 C17.662584,24.2855678 17.5310799,24.5228323 17.3168843,24.7326816 C17.1111585,24.9312751 16.8711078,25.0270056 16.5911602,25.0270056 C16.3883319,25.0270056 16.2082382,24.9699462 16.0313764,24.8528184 C15.8457105,24.7298955 15.674198,24.5370972 15.5141642,24.2799956 L15.1569858,23.7029379 L15.0257046,24.3741659 L14.9314229,24.8569418 L13.4086504,24.8569418 L13.4086504,14.0081908 L15.0197981,14.0081908 L15.0197981,17.9391593 L15.5112667,17.1806706 C15.6656168,16.9450778 15.8369064,16.7678816 16.0168886,16.6564375 C16.1968709,16.5449934 16.3825368,16.4920574 16.5910488,16.4920574 C16.8367831,16.4920574 17.0509787,16.5435446 17.2252773,16.6407239 C17.3965669,16.7377917 17.5223873,16.8706331 17.6109854,17.0421456 C17.7080532,17.2321578 17.7681216,17.4150376 17.7851725,17.5921223 C17.8826861,18.4849012 17.8197202,18.9292289 17.8197202,18.9135153 L17.8197202,18.9135153 Z M23.3907005,20.9861531 L20.6109497,20.9861531 L20.6109497,22.8217493 C20.6109497,23.3873282 20.6566418,23.5731055 20.6967617,23.6730709 C20.7825737,23.884369 20.9710257,24.0058431 21.213751,24.0058431 C21.491024,24.0058431 21.7024335,23.8601856 21.7938176,23.6087676 C21.8595697,23.4272252 21.8936716,23.1216454 21.8936716,22.6501253 L21.8936716,21.7659276 L23.3908119,21.7659276 L23.3908119,22.1488496 C23.3908119,22.6659504 23.3620593,23.0672607 23.3106836,23.3372898 C23.262094,23.5943914 23.1450776,23.8742275 22.9594117,24.1742351 C22.7822156,24.4571918 22.5593273,24.6757337 22.2909699,24.8141473 C22.0251756,24.9556813 21.6739038,25.0270056 21.256657,25.0270056 C20.8453167,25.0270056 20.4824546,24.9542325 20.1711912,24.81281 C19.8712951,24.6712759 19.6340305,24.4800378 19.4683131,24.2386498 C19.2970235,23.9843343 19.1739892,23.7029379 19.1054511,23.3986955 C19.0369129,23.0801882 18.9999135,22.6030959 18.9999135,22.2773447 L18.9999135,19.7490119 C18.9999135,18.7248404 19.0798189,18.1504574 19.234169,17.7450237 C19.3798265,17.3565295 19.6139706,17.069338 19.9455169,16.8665097 C20.2768402,16.6607838 20.671241,16.5565836 21.1083248,16.5565836 C21.6481602,16.5565836 22.0939367,16.6821811 22.4367388,16.9263552 C22.7852246,17.1777731 23.0252752,17.5020755 23.1681466,17.9177621 C23.313804,18.3532857 23.3910348,19.286073 23.3910348,20.0946001 L23.3910348,20.9861531 L23.3907005,20.9861531 Z" id="path3047"></path>
                <g id="g3289" transform="translate(4.346321, 0.000000)">
                    <path d="M2.64883177,4.40783683 L1.29757178,0.0625190385 L0.0749183116,0.0625190385 L1.89457795,6.26338148 L1.90327059,6.31197112 L1.90327059,6.36200953 L1.90327059,10.7172458 L3.33744501,10.7172458 L3.33744501,6.36200953 L3.33744501,6.31052234 L3.34881231,6.26059537 L4.92574665,0.0626304826 L3.70008418,0.0626304826 C3.34034256,1.69952176 2.88609631,3.27366999 2.64883177,4.40783683 L2.64883177,4.40783683 Z" id="path3051"></path>
                    <path d="M9.25969714,3.73359989 C9.09665439,3.47638685 8.85682664,3.26364002 8.54244277,3.09792261 C8.22538424,2.92507278 7.82830883,2.84082102 7.37127648,2.84082102 C6.83411581,2.84082102 6.39134831,2.97221364 6.05701594,3.23087545 C5.72859011,3.48652827 5.50848797,3.81083067 5.38289044,4.22785457 C5.24860027,4.67073352 5.18284824,5.31064567 5.18284824,6.12619376 L5.18284824,7.61898779 C5.18284824,8.37457894 5.22007058,8.94461563 5.29429236,9.30736625 C5.3628305,9.64727082 5.47995827,9.93869721 5.63709448,10.1744015 C5.79144459,10.4029734 6.01433284,10.577272 6.30275023,10.6943998 C6.61702266,10.81866 7.00562831,10.884412 7.46266066,10.884412 C7.86842871,10.884412 8.22538424,10.8100788 8.53107547,10.6629726 C8.82539939,10.5244475 9.0595435,10.3158241 9.2424233,10.0230604 C9.43087531,9.72873648 9.55368674,9.41167795 9.61096902,9.07600825 C9.6710374,8.71180886 9.7023532,8.11758879 9.7023532,7.30906168 L9.7023532,5.9234769 C9.7023532,5.30072714 9.66791696,4.83923703 9.60528537,4.54647332 C9.54521698,4.27354666 9.42820065,3.99928268 9.25969714,3.73359989 L9.25969714,3.73359989 Z M8.04261587,8.62165056 C8.04261587,9.22155428 7.99692378,9.43441255 7.95702679,9.5529891 C7.86842871,9.80150949 7.6827628,9.94438086 7.44271216,9.94438086 C7.20288441,9.94438086 7.01699561,9.79303974 6.92862042,9.5272455 C6.88861198,9.40298531 6.84002235,9.18020851 6.84002235,8.53026638 L6.84002235,5.22349637 C6.84002235,4.52362728 6.88571444,4.29929026 6.93140653,4.17213251 C7.0200046,3.92216335 7.20845662,3.77940342 7.44839581,3.77940342 C7.691344,3.77940342 7.87700991,3.92650967 7.96271044,4.18506003 C8.00271888,4.3079829 8.04261587,4.52931093 8.04261587,5.22349637 L8.04261587,8.62165056 L8.04261587,8.62165056 Z" id="path3053"></path>
                    <path d="M13.839159,2.85943219 L13.839159,8.02609317 C13.839159,9.07879435 13.8106293,9.05171343 13.7818768,9.1774224 C13.750561,9.31884499 13.6334332,9.64738227 13.2220929,9.64738227 C12.8335987,9.64738227 12.7107873,9.33310984 12.6764625,9.20026845 C12.6451467,9.0703246 12.6107105,9.10598672 12.6107105,8.09474275 L12.6107105,2.85954363 L10.9509731,2.85954363 L10.9509731,8.04046946 C10.9509731,8.82180421 10.9651266,9.34748613 10.9879726,9.59890408 C11.0080325,9.82457842 11.0621944,10.0431203 11.1507925,10.250295 C11.2309208,10.4359609 11.3508347,10.5859647 11.5223472,10.7016437 C11.6993204,10.8230063 11.9336874,10.8845235 12.2193187,10.8845235 C12.4678391,10.8845235 12.6764625,10.821669 12.8621284,10.6917251 C13.0450082,10.5631186 13.1964608,10.3732178 13.3248444,10.1103212 L13.839159,10.3189446 L13.8190991,10.7174687 L15.4990078,10.7174687 L15.4990078,2.85965508 L13.839159,2.85965508 L13.839159,2.85943219 Z" id="path3055"></path>
                </g>
            </g>
        </g>
        <g id="iconfinder_google_plus_986946" transform="translate(15.000000, 165.000000)">
            <rect id="Rectangle" fill="#FC5345" x="0" y="0" width="36.4527364" height="36.4527364" rx="6"></rect>
            <path d="M6.4466254,20.2775672 C7.38431637,24.028331 10.6662348,26.3725585 14.0653645,26.4897698 C19.6915103,26.8414039 23.0906401,21.6841036 22.3873719,16.6440147 L14.6514214,16.6440147 L14.6514214,19.5742989 L19.1054535,19.8087217 C19.1054535,20.9808354 17.5817056,22.3873719 16.4095919,22.8562173 C16.0579578,22.9734287 15.5891123,23.0906401 15.1202669,23.2078514 C12.4244053,23.4422742 10.0801779,21.5668923 9.61133242,18.8710307 C9.2596983,16.4095919 10.7834461,13.9481531 13.4793077,13.3620963 C15.9407464,12.8932508 16.5268033,13.4793077 17.8161284,14.4169986 L20.0431444,12.1899826 C18.8710307,10.431812 15.7063237,9.84575516 13.8309418,9.84575516 C8.67364145,10.1973893 5.15730032,15.471901 6.4466254,20.2775672 Z M26.4897698,20.5119899 L26.4897698,18.2849739 L24.1455424,18.2849739 L24.1455424,16.761226 L26.4897698,16.761226 L26.4897698,14.53421 L28.0135177,14.53421 L28.0135177,16.761226 L30.2405337,16.761226 L30.2405337,18.2849739 L28.0135177,18.2849739 L28.0135177,20.5119899 L26.4897698,20.5119899 Z" id="Shape" fill="#FFFFFF"></path>
            <path d="M27.4274608,13.9481531 L36.4527364,22.9734287" id="Path"></path>
        </g>
        <g id="iconfinder_4_939755" transform="translate(15.000000, 299.000000)">
            <rect id="Rectangle" fill="#00C7FF" x="0" y="0" width="36.4527364" height="36.4527364" rx="6"></rect>
            <path d="M30.0625,11.7166667 C29.2145833,12.1020833 27.9041667,12.5645833 26.9791667,12.71875 C27.98125,12.1020833 28.90625,10.7145833 29.2916667,9.63541667 C28.5208333,10.0979167 27.6729167,10.7145833 26.825,11.0229167 L26.2083333,10.40625 C25.3604167,9.48125 24.5125,8.86458333 23.125,8.86458333 C20.5041667,8.86458333 18.5,10.86875 18.5,13.4895833 C18.5,13.7979167 18.5,14.0291667 18.5770833,14.2604167 L18.5,14.2604167 C13.875,14.2604167 10.7916667,13.2583333 8.47916667,10.40625 C8.09375,11.1 7.70833333,11.8708333 7.70833333,12.71875 C7.70833333,14.3375 8.71041667,15.725 10.0208333,16.5729167 C9.25,16.5729167 8.325,16.1875 7.70833333,15.8020833 C7.70833333,18.1145833 10.9458333,20.7354167 13.1041667,21.1979167 C12.3333333,21.96875 9.55833333,21.275 9.25,21.1979167 C9.86666667,23.0479167 11.79375,24.2041667 13.875,24.28125 C12.25625,25.5145833 10.3291667,26.2083333 8.09375,26.2083333 C7.70833333,26.2083333 7.32291667,26.2083333 6.9375,26.13125 C9.01875,27.4416667 11.9479167,28.1354167 14.6458333,28.1354167 C23.35625,28.1354167 27.75,21.275 27.75,15.03125 C27.75,14.8 27.75,14.4916667 27.75,14.2604167 C28.675,13.5666667 29.4458333,12.6416667 30.0625,11.7166667 Z" id="Brid_1_" fill="#FFFFFF" fill-rule="nonzero"></path>
        </g>
        <g id="iconfinder_Popular_Social_Media-22_2329259" transform="translate(15.000000, 366.000000)">
            <rect id="Rectangle" fill="#0077B5" x="0" y="0" width="36.4527364" height="36.4527364" rx="6"></rect>
            <path d="M12.4401321,27.9315481 C11.184775,27.9183338 9.91607143,27.9183338 8.6475,27.9315481 C8.40964286,27.9315481 8.34357143,27.8656088 8.34357143,27.6145374 L8.34357143,14.2151196 C8.34357143,13.9640481 8.42285714,13.8981088 8.66071429,13.8981088 C9.91607143,13.9113231 11.1846429,13.9113231 12.4401321,13.8981088 C12.6910714,13.8981088 12.757275,13.9773946 12.7439286,14.2151196 L12.7439286,20.9281088 C12.7439286,23.1613231 12.7439286,25.3944053 12.757275,27.6276196 C12.757275,27.8656088 12.6779893,27.9315481 12.4401321,27.9315481 Z M10.5503571,12.1008338 C9.14964286,12.1140481 8,10.9381088 8,9.5504767 C8.01321429,8.21583385 9.03071429,7.01333385 10.537275,7.00011956 C11.9642857,6.98690527 13.1008464,8.0704767 13.1008464,9.5504767 C13.1008464,11.0041803 11.9907143,12.0877517 10.5503571,12.1008338 Z M28.6010714,27.9315481 L24.8878571,27.9315481 C24.5839286,27.9315481 24.5708464,27.9183338 24.5708464,27.601191 L24.5708464,20.8090481 C24.5708464,20.1748946 24.5575,19.5404767 24.3725,18.9194053 C24.0819179,17.9548946 23.4607143,17.4922624 22.4432143,17.4658338 C21.7296429,17.4526196 21.0557143,17.5847624 20.5535714,18.1397624 C20.1439286,18.5758338 19.9721429,19.1044053 19.8928571,19.685966 C19.84,20.201191 19.8003571,20.7297624 19.8003571,21.258466 C19.787275,23.3858338 19.787275,25.5133338 19.8003571,27.6276196 C19.8003571,27.8656088 19.7342857,27.9315481 19.5096429,27.9315481 C18.2410714,27.9183338 16.9594179,27.9183338 15.6907143,27.9315481 C15.4662036,27.9315481 15.3869179,27.8656088 15.3869179,27.6276196 C15.4001321,23.1613231 15.4001321,18.6815481 15.3869179,14.2019053 C15.3869179,13.9640481 15.4794179,13.8981088 15.6907143,13.8981088 C16.9064286,13.9113231 18.122275,13.9113231 19.3378571,13.8981088 C19.5757143,13.8981088 19.655,13.9906088 19.6417857,14.2151196 C19.6285714,14.7040481 19.6417857,15.206191 19.6417857,15.6951196 C20.3289286,14.6776196 21.2540607,14.0301196 22.4169179,13.7395374 C23.7646429,13.4091803 25.0992857,13.5147624 26.3679893,14.0698946 C27.5967857,14.5983338 28.2575,15.6026196 28.6012036,16.8447624 C28.8389286,17.6508338 28.944775,18.4833338 28.9579893,19.3290481 C28.9710714,22.0644053 28.9842857,24.7998946 28.9975,27.5483338 C28.9975,27.9315481 28.9975,27.9315481 28.6010714,27.9315481 Z" id="Shape" fill="#FFFFFF" fill-rule="nonzero"></path>
        </g>
        <g id="F_icon" transform="translate(15.000000, 433.000000)">
            <rect id="Rectangle" fill="#305891" x="0" y="0" width="36.4527364" height="36.4527364" rx="6"></rect>
            <path d="M25.487,36.901 L25.487,22.6434286 L30.2725714,22.6434286 L30.9891429,17.087 L25.487,17.087 L25.487,13.5395714 C25.487,11.9308571 25.9337143,10.8345714 28.2405714,10.8345714 L31.1828571,10.8332857 L31.1828571,5.86357143 C30.674,5.79585714 28.9274286,5.64457143 26.8954286,5.64457143 C22.6532857,5.64457143 19.749,8.234 19.749,12.9892857 L19.749,17.087 L14.9511429,17.087 L14.9511429,22.6434286 L19.749,22.6434286 L19.749,36.901 L25.487,36.901 Z" id="f" fill="#FFFFFF" fill-rule="nonzero"></path>
        </g>
    </g>
</svg>