<svg width="18" height="18" xmlns="http://www.w3.org/2000/svg"><path d="M13.481 8.98c0-1.796-.997-3.292-2.494-3.99v2.194L13.48 9.68v-.7zm2.495 0c0 .898-.2 1.797-.499 2.595l1.497 1.497c.698-1.198.998-2.695.998-4.191 0-4.291-2.994-7.883-6.985-8.781v2.095c2.894.998 4.989 3.592 4.989 6.785zM1.308 0L.01 1.297l4.69 4.69H.01v5.987h3.991l4.99 4.989v-6.685l4.29 4.29c-.699.5-1.397.898-2.295 1.198v2.095c1.397-.3 2.594-.898 3.692-1.796l1.995 1.996 1.298-1.297-8.98-8.98L1.307 0zM8.99.998L6.896 3.093 8.99 5.19V.998z"/></svg>