<?xml version="1.0" encoding="UTF-8"?>
<svg width="66px" height="300px" viewBox="0 0 66 300" version="1.1" xmlns="http://www.w3.org/2000/svg" xmlns:xlink="http://www.w3.org/1999/xlink">
    <!-- Generator: Sketch 53.2 (72643) - https://sketchapp.com -->
    <title>ICON SPRITE</title>
    <desc>Created with Sketch.</desc>
    <g id="ICON-SPRITE" stroke="none" stroke-width="1" fill="none" fill-rule="evenodd">
        <g id="iconfinder_facebook_317746-(1)" transform="translate(27.000000, 20.000000)" fill="#3B5998" fill-rule="nonzero">
            <path d="M7.5,20 L7.5,11.25 L11.25,11.25 L11.875,7.5 L7.5,7.5 L7.5,5.625 C7.5,4.375 8.12625,3.75 9.375,3.75 L11.25,3.75 L11.25,0 C10.625,0 9.225,0 8.125,0 C5,0 3.75,1.875 3.75,5 L3.75,7.5 L0,7.5 L0,11.25 L3.75,11.25 L3.75,20 L7.5,20 Z" id="f_1_"></path>
        </g>
        <g id="iconfinder_Google_Plus_Color_1435163" transform="translate(23.000000, 64.000000)" fill="#D24A38" fill-rule="nonzero">
            <path d="M6.35294118,5.09313725 L6.35294118,7.60784314 C6.35294118,7.60784314 8.78921569,7.60294118 9.78431373,7.60294118 C9.24509804,9.23039216 8.41176471,10.1176471 6.35294118,10.1176471 C4.26960784,10.1176471 2.64705882,8.43137255 2.64705882,6.34803922 C2.64705882,4.26470588 4.2745098,2.57843137 6.35294118,2.57843137 C7.45588235,2.57843137 8.16666667,2.96568627 8.81862745,3.50490196 C9.34313725,2.98039216 9.29901961,2.90686275 10.627451,1.65196078 C9.5,0.62745098 8,0 6.35784314,0 C2.85294118,0 0.00980392157,2.84313725 0.00980392157,6.34803922 C0.00980392157,9.85294118 2.85294118,12.6960784 6.35784314,12.6960784 C11.5980392,12.6960784 12.877451,8.13235294 12.4509804,5.09313725 C11.2107843,5.09313725 6.35294118,5.09313725 6.35294118,5.09313725 Z M17.7941176,5.21568627 L17.7941176,3.01470588 L16.2254902,3.01470588 L16.2254902,5.21568627 L13.9656863,5.21568627 L13.9656863,6.78431373 L16.2254902,6.78431373 L16.2254902,9.04411765 L17.7941176,9.04411765 L17.7941176,6.78431373 L19.995098,6.78431373 L19.995098,5.21568627 L17.7941176,5.21568627 Z" id="XMLID_31_"></path>
        </g>
        <g id="iconfinder_LinkedIn_1298749" transform="translate(23.000000, 100.000000)">
            <rect id="Rectangle" x="0" y="0" width="20" height="20"></rect>
            <path d="M0.50453125,6.73953125 L4.40265625,6.73953125 L4.40265625,19.0909375 L0.50453125,19.0909375 L0.50453125,6.73953125 Z M2.35421875,5.1946875 L2.3259375,5.1946875 C0.91484375,5.1946875 0,4.25046875 0,3.05359375 C0,1.8334375 0.941875,0.9090625 2.38125,0.9090625 C3.819375,0.9090625 4.70375,1.83109375 4.731875,3.05015625 C4.731875,4.246875 3.819375,5.1946875 2.35421875,5.1946875 Z M20,19.0909375 L15.5796875,19.0909375 L15.5796875,12.6992188 C15.5796875,11.02625 14.8882813,9.8840625 13.3678125,9.8840625 C12.2048437,9.8840625 11.558125,10.6548438 11.2570312,11.3975 C11.1442188,11.6640625 11.1617187,12.0354688 11.1617187,12.406875 L11.1617187,19.0907813 L6.78265625,19.0907813 C6.78265625,19.0907813 6.8390625,7.76859375 6.78265625,6.739375 L11.1617188,6.739375 L11.1617188,8.6778125 C11.4204688,7.8303125 12.8196875,6.620625 15.0528125,6.620625 C17.8232813,6.620625 19.9998438,8.3971875 19.9998438,12.2229688 L19.9998438,19.0909375 L20,19.0909375 Z" id="LinkedIn_1_" fill="#007EBB"></path>
        </g>
        <g id="iconfinder_Reddit_1298758" transform="translate(23.000000, 140.000000)">
            <rect id="Rectangle" x="0" y="0" width="20" height="20"></rect>
            <path d="M20,9.82109375 C20,8.5075 18.921875,7.43921875 17.59625,7.43921875 C17.0225,7.43921875 16.495625,7.63984375 16.081875,7.97375 C14.61625,7.0609375 12.75625,6.5109375 10.7625,6.39453125 L11.8025,3.13640625 L14.660625,3.8034375 C14.735625,4.83453125 15.605625,5.65078125 16.665,5.65078125 C17.773125,5.65078125 18.675,4.7571875 18.675,3.6584375 C18.675,2.56046875 17.773125,1.66671875 16.665,1.66671875 C15.89,1.66671875 15.21625,2.10390625 14.880625,2.7425 L11.559375,1.96765625 C11.28125,1.90265625 11,2.06125 10.91375,2.33125 L9.6225,6.3753125 C7.474375,6.42734375 5.455,6.9790625 3.881875,7.9453125 C3.47375,7.62890625 2.960625,7.439375 2.40375,7.439375 C1.078125,7.43921875 0,8.5075 0,9.82109375 C0,10.6329687 0.4125,11.3507813 1.040625,11.780625 C1.014375,11.9695312 1.000625,12.1596875 1.000625,12.3521875 C1.000625,13.9939063 1.96375,15.5210938 3.7125,16.6520313 C5.38875,17.7364063 7.6075,18.3334375 9.959375,18.3334375 C12.31125,18.3334375 14.53,17.7364063 16.20625,16.6520313 C17.955,15.52125 18.918125,13.9940625 18.918125,12.3521875 C18.918125,12.176875 18.90625,12.0029688 18.884375,11.8301563 C19.554375,11.4070312 20,10.6645312 20,9.82109375 M16.665,2.74921875 C17.17125,2.74921875 17.583125,3.15734375 17.583125,3.65828125 C17.583125,4.15984375 17.17125,4.56796875 16.665,4.56796875 C16.15875,4.56796875 15.746875,4.15984375 15.746875,3.65828125 C15.746875,3.15734375 16.15875,2.74921875 16.665,2.74921875 M5.67125,11.294375 C5.67125,10.554375 6.298125,9.933125 7.045,9.933125 C7.7925,9.933125 8.39875,10.5542188 8.39875,11.294375 C8.39875,12.035 7.7925,12.6357813 7.045,12.6357813 C6.298125,12.6357813 5.67125,12.035 5.67125,11.294375 M13.2925,15.239375 C12.59625,15.9285938 11.5225,16.26375 10.01,16.26375 C10.006875,16.26375 10.003125,16.263125 9.999375,16.263125 C9.99625,16.263125 9.9925,16.26375 9.98875,16.26375 C8.47625,16.26375 7.403125,15.92875 6.7075,15.239375 C6.49375,15.0275 6.49375,14.6851562 6.7075,14.4739062 C6.920625,14.2626562 7.26625,14.2626562 7.48,14.4739062 C7.96,14.9495312 8.780625,15.1810937 9.98875,15.1810937 C9.9925,15.1810937 9.99625,15.1817187 9.999375,15.1817187 C10.003125,15.1817187 10.006875,15.1810937 10.01,15.1810937 C11.218125,15.1810937 12.039375,14.9495312 12.52,14.4739062 C12.73375,14.2620312 13.079375,14.2626562 13.2925,14.4739062 C13.505625,14.685625 13.505625,15.028125 13.2925,15.239375 M12.975,12.6357812 C12.2275,12.6357812 11.599375,12.035 11.599375,11.294375 C11.599375,10.55375 12.2275,9.933125 12.975,9.933125 C13.7225,9.933125 14.32875,10.5535937 14.32875,11.294375 C14.32875,12.035 13.7225,12.6357812 12.975,12.6357812" id="Reddit_1_" fill="#FF5400"></path>
        </g>
        <g id="iconfinder_twitter_294655" transform="translate(23.000000, 182.000000)" fill="#2CA7E0">
            <path d="M19.9991304,1.96265217 C19.2633478,2.289 18.4726522,2.50952174 17.6427391,2.60865217 C18.4896957,2.10086957 19.1403478,1.29686957 19.4466522,0.33873913 C18.6538696,0.808913043 17.7757826,1.1503913 16.8412174,1.33434783 C16.0928261,0.536913043 15.0265217,0.0387391304 13.8464348,0.0387391304 C11.5806087,0.0387391304 9.74347826,1.87569565 9.74347826,4.14152174 C9.74347826,4.46308696 9.77973913,4.77621739 9.84973913,5.07652174 C6.43986957,4.9053913 3.4166087,3.272 1.39304348,0.789695652 C1.03986957,1.39565217 0.837521739,2.1003913 0.837521739,2.85234783 C0.837521739,4.27578261 1.56182609,5.5316087 2.66273913,6.2673913 C1.99017391,6.24604348 1.35752174,6.06152174 0.804391304,5.75417391 C0.804,5.77134783 0.804,5.78843478 0.804,5.80582609 C0.804,7.79369565 2.21830435,9.45186957 4.09521739,9.82891304 C3.75095652,9.92265217 3.38847826,9.97286957 3.01430435,9.97286957 C2.74991304,9.97286957 2.49291304,9.94708696 2.24234783,9.89926087 C2.76447826,11.5291739 4.27965217,12.7154783 6.07508696,12.7485217 C4.67091304,13.8490435 2.90182609,14.5048696 0.979521739,14.5048696 C0.648347826,14.5048696 0.321782609,14.4854783 0.000782608696,14.4474783 C1.81652174,15.6116087 3.97317391,16.2909565 6.29013043,16.2909565 C13.8368261,16.2909565 17.9637391,10.0390435 17.9637391,4.61721739 C17.9637391,4.43934783 17.9597391,4.26243478 17.9518696,4.08643478 C18.7535652,3.508 19.4491304,2.7853913 19.9991304,1.96265217 Z" id="Path"></path>
        </g>
        <g id="envelope" transform="translate(23.000000, 222.000000)" fill="#828A90" fill-rule="nonzero">
            <path d="M1.91820313,4.87222656 C2.17101563,5.050625 2.93308594,5.58046875 4.20445313,6.46148438 C5.47585938,7.3425 6.44984375,8.02085938 7.12644531,8.49660156 C7.20078125,8.54875 7.35871094,8.66210938 7.6003125,8.83683594 C7.84195313,9.01167969 8.04273438,9.15296875 8.2025,9.26074219 C8.36238281,9.36847656 8.55566406,9.48933594 8.78253906,9.623125 C9.00933594,9.75679688 9.223125,9.85734375 9.42386719,9.92390625 C9.62464844,9.99101562 9.81050781,10.0242578 9.98148438,10.0242578 L9.99269531,10.0242578 L10.0039453,10.0242578 C10.1749219,10.0242578 10.3608594,9.99097656 10.5616406,9.92390625 C10.7623047,9.85734375 10.9762891,9.75667969 11.2028906,9.623125 C11.4296094,9.48917969 11.6228906,9.3684375 11.7827734,9.26074219 C11.9426563,9.15296875 12.1432813,9.01167969 12.385,8.83683594 C12.6265625,8.66195313 12.7846875,8.54875 12.8590234,8.49660156 C13.5429297,8.02085938 15.2828906,6.81261719 18.0783594,4.87199219 C18.6210938,4.49296875 19.0745313,4.035625 19.4387891,3.50027344 C19.8033203,2.96515625 19.9853906,2.40378906 19.9853906,1.81648438 C19.9853906,1.32570313 19.8087109,0.905585938 19.4555078,0.556171875 C19.1023438,0.206679688 18.6840625,0.03203125 18.2009375,0.03203125 L1.78433594,0.03203125 C1.211875,0.03203125 0.771328125,0.2253125 0.462773438,0.611875 C0.154257813,0.998515625 0,1.48179688 0,2.06167969 C0,2.53007813 0.20453125,3.03765625 0.613398438,3.58410156 C1.02222656,4.13058594 1.45730469,4.56 1.91820313,4.87222656 Z" id="Path"></path>
            <path d="M18.87,6.06542969 C16.4315625,7.71585938 14.58,8.99851563 13.3162109,9.913125 C12.8924219,10.2252734 12.5486328,10.4689453 12.2846094,10.6435547 C12.0205859,10.8182813 11.6694531,10.9967188 11.2307031,11.1787891 C10.7921094,11.3611328 10.3833594,11.4520313 10.0041016,11.4520313 L9.99273437,11.4520313 L9.98152344,11.4520313 C9.60234375,11.4520313 9.19335937,11.3611328 8.75476562,11.1787891 C8.31617187,10.9967188 7.96480469,10.8182813 7.70085937,10.6435547 C7.43699219,10.4689453 7.09308594,10.2252734 6.66933594,9.913125 C5.66554687,9.17710938 3.81796875,7.894375 1.12652344,6.06542969 C0.702617187,5.78308594 0.327148438,5.45945313 0,5.09519531 L0,13.9500781 C0,14.4410938 0.174648438,14.8609766 0.524140625,15.2104297 C0.873554687,15.56 1.29371094,15.7347266 1.78445313,15.7347266 L18.2010938,15.7347266 C18.6917187,15.7347266 19.1118359,15.56 19.4612891,15.2104297 C19.8108594,14.8608594 19.9854297,14.4411328 19.9854297,13.9500781 L19.9854297,5.09519531 C19.6656641,5.45191406 19.2940234,5.77554688 18.87,6.06542969 Z" id="Path"></path>
        </g>
        <g id="printing-tool" transform="translate(23.000000, 261.000000)" fill="#828A90" fill-rule="nonzero">
            <path d="M19.2839916,8.36655462 C18.8319328,7.91453782 18.2901261,7.68865546 17.6583613,7.68865546 L16.8907983,7.68865546 L16.8907983,4.61768908 C16.8907983,4.29789916 16.8105462,3.94584034 16.6505042,3.56214286 C16.4905882,3.17827731 16.2987815,2.87441176 16.074916,2.65046218 L14.2512605,0.827016807 C14.027395,0.603277311 13.7235294,0.411260504 13.3398319,0.251218487 C12.9558824,0.0913445378 12.6042017,0.0113865546 12.2841176,0.0113865546 L4.22268908,0.0113865546 C3.90277311,0.0113865546 3.63079832,0.123277311 3.40684874,0.347226891 C3.18302521,0.57105042 3.07096639,0.842983193 3.07096639,1.16294118 L3.07096639,7.68865546 L2.30327731,7.68865546 C1.67147059,7.68865546 1.12966387,7.91466387 0.677731092,8.36655462 C0.225882353,8.81831933 0,9.36016807 0,9.99201681 L0,14.982479 C0,15.0865966 0.0380252101,15.1761345 0.11394958,15.252479 C0.189957983,15.3282773 0.279957983,15.3662185 0.383823529,15.3662185 L3.07096639,15.3662185 L3.07096639,17.2855462 C3.07096639,17.6055882 3.18289916,17.877521 3.40684874,18.1013866 C3.63079832,18.3251261 3.90277311,18.4372689 4.22268908,18.4372689 L15.7387815,18.4372689 C16.0585714,18.4372689 16.3309244,18.3251261 16.5546639,18.1013866 C16.7785294,17.8773529 16.8905462,17.6055882 16.8905462,17.2855462 L16.8905462,15.3662185 L19.5776471,15.3662185 C19.6814706,15.3662185 19.7714706,15.3282773 19.847395,15.252479 C19.9233193,15.1761765 19.9612605,15.0865966 19.9612605,14.982479 L19.9612605,9.99201681 C19.9614286,9.36016807 19.7356303,8.81831933 19.2839916,8.36655462 Z M15.355,16.9017647 L4.60655462,16.9017647 L4.60655462,13.8308824 L15.355,13.8308824 L15.355,16.9017647 L15.355,16.9017647 Z M15.355,9.2242437 L4.60655462,9.2242437 L4.60655462,1.54689076 L12.2841176,1.54689076 L12.2841176,3.46617647 C12.2841176,3.78609244 12.3962605,4.05789916 12.6198739,4.28189076 C12.8437395,4.50584034 13.1156303,4.61773109 13.4357143,4.61773109 L15.355,4.61773109 L15.355,9.2242437 L15.355,9.2242437 Z M18.1981513,10.5317647 C18.0463025,10.6836134 17.8663025,10.7598319 17.6583613,10.7598319 C17.4504202,10.7598319 17.2704202,10.6836555 17.1185294,10.5317647 C16.9667227,10.380084 16.8907983,10.199916 16.8907983,9.99197479 C16.8907983,9.78403361 16.9667227,9.60407563 17.1185294,9.45218487 C17.2703782,9.30021008 17.4503782,9.22420168 17.6583613,9.22420168 C17.8662605,9.22420168 18.0462605,9.30021008 18.1981513,9.45218487 C18.349958,9.60403361 18.4261765,9.78403361 18.4261765,9.99197479 C18.4261765,10.199916 18.3501261,10.380084 18.1981513,10.5317647 Z" id="Shape"></path>
        </g>
    </g>
</svg>