<svg xmlns="http://www.w3.org/2000/svg" width="30" height="30" viewBox="0 0 30 30"><g fill="none"><rect width="29" height="29" x=".5" y=".5" stroke="#0A2" rx="3"/><path fill="#0A2" d="M15.002 8h-.004C11.138 8 8 11.14 8 15c0 1.531.493 2.95 1.333 4.103l-.873 2.6 2.69-.86A6.94 6.94 0 0 0 15.003 22C18.862 22 22 18.86 22 15s-3.139-7-6.998-7z"/><path fill="#FFF" d="M19.075 17.885c-.169.477-.84.872-1.374.988-.366.078-.843.14-2.452-.527-2.057-.852-3.382-2.943-3.485-3.078-.099-.136-.831-1.107-.831-2.112 0-1.004.51-1.493.716-1.703.169-.173.448-.251.715-.251.087 0 .165.004.235.008.206.008.309.02.444.345.17.407.58 1.412.63 1.515.05.103.1.243.03.379-.066.14-.124.202-.227.32-.104.12-.202.21-.305.339-.094.11-.201.23-.082.435.119.202.53.873 1.136 1.412.781.695 1.415.918 1.641 1.012.17.07.37.053.494-.078.156-.169.35-.449.547-.724.14-.198.316-.223.502-.153.189.066 1.189.56 1.395.663.205.103.34.152.39.239.05.086.05.493-.12.97z"/></g></svg>