<svg width="19" height="19" viewBox="0 0 19 19" fill="none" xmlns="http://www.w3.org/2000/svg">
<path d="M7.343 0C5.464 0 3.585 0.717 2.151 2.151C-0.717 5.019 -0.717 9.668 2.151 12.536C3.585 13.97 5.464 14.687 7.343 14.687C8.907 14.687 10.467 14.183 11.775 13.19L16.294 17.709C16.489 17.904 16.745 18.002 17.001 18.002C17.257 18.002 17.513 17.904 17.708 17.709L17.709 17.708C18.099 17.318 18.099 16.685 17.709 16.295L13.19 11.776C15.377 8.898 15.164 4.779 12.537 2.152C11.102 0.717 9.222 0 7.343 0ZM7.343 12.686C5.916 12.686 4.574 12.13 3.565 11.121C1.482 9.038 1.482 5.648 3.565 3.565C4.574 2.556 5.916 2 7.343 2C8.77 2 10.112 2.556 11.121 3.565C13.204 5.648 13.204 9.038 11.121 11.121C10.112 12.13 8.77 12.686 7.343 12.686Z" fill="#7E90A0"/>
</svg>
