<svg xmlns="http://www.w3.org/2000/svg" width="20.186" height="19.176" viewBox="0 0 20.186 19.176">
    <path d="M9.379 13.834a1.009 1.009 0 0 0 1.427 0l5.046-5.046a1.009 1.009 0 0 0-1.427-1.427l-3.324 3.324V1.009a1.01 1.01 0 0 0-2.019 0v9.675L5.758 7.36a1.009 1.009 0 0 0-1.421 1.428z" data-name="Path 132903"/>
    <path d="M3.028 19.176h14.13a3.031 3.031 0 0 0 3.028-3.028v-4.037a1.01 1.01 0 1 0-2.019 0v4.037a1.01 1.01 0 0 1-1.009 1.009H3.028a1.01 1.01 0 0 1-1.009-1.009v-4.037a1.01 1.01 0 1 0-2.019 0v4.037a3.031 3.031 0 0 0 3.028 3.028z" data-name="Path 132904"/>
</svg>
