<svg width="94" height="44" viewBox="0 0 94 44" fill="none" xmlns="http://www.w3.org/2000/svg">
<path fill-rule="evenodd" clip-rule="evenodd" d="M16.0619 0H15.2763C15.1555 0.0500488 15.0346 0.0500488 14.9258 0.00634766H14.5633C14.5029 0.0500488 14.4424 0.0500488 14.382 0.00634766H14.1403C13.9697 0.0458984 13.7971 0.0544434 13.6248 0.0629883C13.498 0.0690918 13.3715 0.0754395 13.2459 0.0939941C11.3847 0.357178 9.63232 0.971191 7.9826 1.91113C6.30267 2.86987 4.85846 4.1106 3.61365 5.60815C2.89453 6.4729 2.28418 7.41284 1.76453 8.42163C1.03937 9.8252 0.525757 11.3167 0.211487 12.877C0.14093 13.2427 0.106873 13.6108 0.072876 13.9785C0.0515747 14.2092 0.0302734 14.4395 0 14.6689V14.9172C0.0657959 14.946 0.055542 14.9961 0.0455933 15.0447C0.0420532 15.062 0.0385132 15.0791 0.0385132 15.095V15.283V15.2893C0.0475464 15.3315 0.0465698 15.3667 0.022522 15.3921C0.0177002 15.4043 0.0105591 15.4163 0 15.4272V16.6724C0.0505371 16.6987 0.0499268 16.7461 0.0385132 16.7993V16.9246L0.0409546 16.9429C0.0466919 16.9822 0.0524902 17.0215 0.0113525 17.0381C0.00811768 17.0422 0.0043335 17.0461 0 17.05V17.3008C0.0373535 17.4712 0.0446777 17.6443 0.052002 17.8167L0.052124 17.8188C0.0565796 17.9243 0.0610352 18.0295 0.0725098 18.134C0.290039 19.9763 0.846008 21.7183 1.66785 23.3601C2.62866 25.2776 3.92181 26.9316 5.52924 28.3167C7.15472 29.7202 8.96759 30.7478 10.9919 31.3745C12.1522 31.7317 13.3365 31.9697 14.5512 31.9885L14.8364 31.9924C15.7444 32.0054 16.6525 32.0183 17.5605 31.8821C19.5063 31.6001 21.3313 30.9546 23.0414 29.9458C23.0615 29.9338 23.0816 29.9219 23.1016 29.9099C21.7941 29.5198 20.5906 28.8887 19.5427 28.0676C19.5051 28.0837 19.4674 28.0999 19.4296 28.116L19.4766 28.0154C18.5842 27.3049 17.8071 26.4561 17.1775 25.5012C16.6979 26.5579 16.1474 27.5769 15.5258 28.5544L15.5073 28.5835C15.4343 28.6995 15.3893 28.7708 15.272 28.5796C14.0876 26.6997 13.1026 24.7195 12.5104 22.5452C12.504 22.5186 12.5009 22.4919 12.4977 22.4634C12.4949 22.4382 12.4919 22.4116 12.4862 22.3823H15.7725C15.5311 21.4858 15.4023 20.543 15.4023 19.5701V19.1804C15.0915 19.1804 14.7805 19.1804 14.4692 19.1804L13.8713 19.1797C13.275 19.1785 12.6804 19.1772 12.0823 19.1868C11.907 19.1868 11.8587 19.1428 11.8224 18.9548C11.478 16.981 11.472 15.0134 11.8164 13.0396C11.8587 12.814 11.9312 12.7827 12.1186 12.7891C12.6798 12.7891 13.2426 12.7876 13.806 12.7859L14.0164 12.7854C14.4813 12.7839 14.9468 12.7827 15.4122 12.7827C15.4601 11.6604 15.6794 10.5825 16.0446 9.57446H12.4805C12.7161 8.67212 13.0304 7.82617 13.3869 6.98657C13.9186 5.73975 14.5471 4.54297 15.2662 3.40234L15.2823 3.37769C15.3616 3.25562 15.4009 3.19531 15.52 3.38354C16.2437 4.53223 16.893 5.71826 17.4223 6.96338C18.0753 6.0542 18.8661 5.25073 19.7642 4.58374C19.6622 4.36475 19.5589 4.14648 19.4546 3.92871C19.4546 3.92554 19.4561 3.9209 19.4591 3.91138C19.4622 3.9021 19.4667 3.88794 19.4727 3.86597C19.7451 3.98047 20.0126 4.10034 20.2751 4.22656C21.4011 3.48682 22.6739 2.95215 24.0403 2.67578C22.3292 1.46704 20.4451 0.640869 18.3643 0.219238C17.9075 0.131348 17.4506 0.0854492 16.9938 0.0395508L16.9858 0.0388184L16.9214 0.0324707L16.9175 0.0319824C16.8137 0.0217285 16.7097 0.0112305 16.6058 0H16.3641C16.3345 0.0358887 16.2969 0.0339355 16.2578 0.0322266L16.2311 0.03125C16.2153 0.029541 16.1984 0.0302734 16.1813 0.03125C16.1395 0.0332031 16.0961 0.0354004 16.0619 0ZM6.73303 12.7837L6.12939 12.783L5.65442 12.7834C5.02716 12.7844 4.3999 12.7854 3.77264 12.7705C3.59137 12.7642 3.50677 12.8145 3.45844 13.0024C3.27716 13.7041 3.15631 14.406 3.10193 15.1267C3.01123 16.4175 3.12006 17.6895 3.46448 18.9363C3.50073 19.0742 3.53094 19.1746 3.71222 19.1746C5.33777 19.1682 6.95721 19.1682 8.57672 19.1746C8.74591 19.1746 8.78217 19.1182 8.77008 18.9614C8.76202 18.8276 8.75873 18.6926 8.75543 18.5576C8.75134 18.3887 8.74725 18.22 8.73383 18.053C8.59485 16.3735 8.55255 14.6943 8.75195 13.0212C8.78217 12.7957 8.69757 12.7769 8.5163 12.7769C7.92017 12.7861 7.32739 12.7849 6.73303 12.7837ZM4.76447 22.3701H5.73737H8.99445H9.01819C9.14093 22.3694 9.24481 22.3687 9.28455 22.5454C9.71356 24.4629 10.4871 26.2424 11.3331 27.9907C11.3365 28.0015 11.338 28.0125 11.341 28.0342L11.3512 28.1035C8.55334 26.9255 6.26917 25.1709 4.76447 22.3701ZM11.3624 3.89746C10.9817 4.69312 10.6191 5.47656 10.2988 6.27856C9.89398 7.2749 9.53741 8.29004 9.30176 9.34888C9.25946 9.53076 9.19299 9.59326 9.00568 9.59326C8.01154 9.58398 7.0174 9.58521 6.02582 9.58643L5.02344 9.58716C5.00507 9.58716 4.98645 9.58789 4.96838 9.58887C4.85577 9.59375 4.76465 9.5979 4.8844 9.39282C6.41327 6.81738 8.57056 5.02539 11.2596 3.89746C11.267 3.88965 11.2834 3.89136 11.3074 3.89404L11.3111 3.89429C11.3256 3.89575 11.3428 3.89746 11.3624 3.89746Z" transform="translate(0.00982666 6)" fill="#E51063"/>
<path d="M0.4 0.815999V2.928H1.408V9.872H0.4V12H10.048V8.384H7.28V9.872H4.72V7.264H7.76V5.136H4.72V2.928H7.28V4.352H10.048V0.815999H0.4ZM15.7811 12V9.904H14.6291V7.632C14.6291 6.944 14.8211 6.144 15.6371 6.144C16.5811 6.144 16.5331 7.088 16.5331 7.632V12H20.5651V9.904H19.8131V7.232C19.8131 5.552 19.3971 3.712 16.9171 3.712C15.9091 3.712 15.1731 4.24 14.6291 4.992L14.2611 4H10.8531V6.08H11.5251V9.904H10.8531V12H15.7811ZM21.1965 13.872C21.8045 14.432 23.1005 15.264 24.8605 15.28C28.2205 15.264 29.8525 13.536 29.8525 10.88V6.096H30.8125V4H27.0045L26.6845 4.496C26.3645 4.176 25.6925 3.84 24.9885 3.84C22.3485 3.84 20.9725 5.472 20.9725 7.952C20.9725 9.968 22.0605 11.952 24.8125 11.952C25.8365 11.952 26.4605 11.36 26.6845 11.072V11.616C26.6845 12.288 26.2685 13.12 24.8285 13.12C23.6125 13.12 22.4125 12.416 22.0445 12.096L21.1965 13.872ZM24.3805 7.92C24.3805 6.704 24.8445 5.92 25.5165 5.92C26.1245 5.92 26.6685 6.752 26.6685 7.84C26.7325 9.104 26.1565 9.888 25.5325 9.888C24.8285 9.888 24.3805 8.88 24.3805 7.92ZM36.1189 12V9.904H35.1749V-9.53674e-07H31.4629V2.064H32.1349V9.904H31.4469V12H36.1189ZM37.2074 1.664C37.2074 2.432 37.9274 3.28 38.9354 3.28C40.0714 3.28 40.6954 2.544 40.6954 1.664C40.6954 0.927999 40.0394 0.0319996 38.9354 0.0319996C37.8154 0.0319996 37.2074 0.927999 37.2074 1.664ZM41.2394 12V9.904H40.4714V4H36.7594V6.08H37.4314V9.904H36.7594V12H41.2394ZM41.8806 12H43.8806L44.0246 11.024C44.4086 11.632 45.3206 12.192 46.4726 12.192C48.0246 12.192 49.4486 11.296 49.4486 9.792C49.4486 8.112 48.0886 7.648 46.8726 7.232C45.8486 6.88 44.9046 6.688 44.9046 6.24C44.9046 5.84 45.1926 5.664 45.5286 5.664C46.3286 5.664 47.1606 6.208 47.1606 6.88H49.2406V4H47.2726L47.1446 5.056C46.8086 4.368 45.8486 3.808 44.7606 3.808C43.6246 3.808 41.9446 4.496 41.9446 6.128C41.9446 7.632 42.9846 8.304 44.0726 8.688C45.2246 9.088 46.4246 9.168 46.4246 9.648C46.4246 10.096 46.0406 10.192 45.7206 10.192C45.2406 10.192 44.0246 9.968 44.0246 9.12H41.8806V12ZM55.1896 12V9.904H54.0376V7.648C54.0376 6.96 54.2296 6.16 55.0456 6.16C55.9896 6.16 55.9896 7.104 55.9896 7.648V12H60.1016V9.904H59.3496V7.232C59.3496 5.552 59.0296 3.712 56.5496 3.712C55.3816 3.712 54.2136 4.704 54.0376 4.992V-9.53674e-07H50.1656V2.08H50.8376V9.904H50.1656V12H55.1896Z" transform="translate(18 15)" fill="#00C5C5"/>
</svg>
