<svg xmlns="http://www.w3.org/2000/svg" width="182" height="68" viewBox="0 0 182 68">
    <defs>
        <style>
            .cls-1{fill:#4267b2}.cls-2{fill:#fff}.cls-3{filter:url(#Rectangle_1396)}
        </style>
        <filter id="Rectangle_1396" width="182" height="68" x="0" y="0" filterUnits="userSpaceOnUse">
            <feOffset dy="1"/>
            <feGaussianBlur result="blur" stdDeviation="3"/>
            <feFlood flood-opacity=".122"/>
            <feComposite in2="blur" operator="in"/>
            <feComposite in="SourceGraphic"/>
        </filter>
    </defs>
    <g id="Group_27326" data-name="Group 27326" transform="translate(-208 -451)">
        <g class="cls-3" transform="translate(208 451)">
            <rect id="Rectangle_1396-2" width="164" height="50" class="cls-1" data-name="Rectangle 1396" rx="5" transform="translate(9 8)"/>
        </g>
        <g id="Group_27319" data-name="Group 27319" transform="translate(1 -3)">
            <g id="f-ogo_RGB_HEX-58" transform="translate(241 475)">
                <path id="Path_132766" d="M22.824 0H1.333A1.333 1.333 0 0 0 0 1.333v21.491a1.333 1.333 0 0 0 1.333 1.333h11.579v-9.342H9.767v-3.657h3.145v-2.69c0-3.12 1.908-4.819 4.69-4.819a26.74 26.74 0 0 1 2.807.142v3.26h-1.916c-1.516 0-1.812.716-1.812 1.774v2.328H20.3l-.471 3.657H16.66v9.346h6.164a1.333 1.333 0 0 0 1.333-1.333V1.333A1.333 1.333 0 0 0 22.824 0z" class="cls-2" data-name="Path 132766"/>
                <path id="f" d="M30.343 29.269v-9.343H33.5l.471-3.657h-3.628v-2.328c0-1.058.3-1.774 1.812-1.774h1.937V8.9a26.74 26.74 0 0 0-2.812-.14c-2.786 0-4.686 1.7-4.686 4.819v2.691H23.45v3.657h3.145v9.342z" class="cls-1" transform="translate(-13.683 -5.111)"/>
            </g>
            <path id="Path_132769" d="M96.277 10.906h-4.993v5.157h-2.6V3.443H96.9V5.55h-5.616v3.259h4.993zm7.107 5.157a2.782 2.782 0 0 1-.251-.841 3.031 3.031 0 0 1-2.366 1.014 3.33 3.33 0 0 1-2.284-.8 2.565 2.565 0 0 1-.906-2.011 2.65 2.65 0 0 1 1.105-2.288 5.453 5.453 0 0 1 3.194-.806h1.153V9.8a1.545 1.545 0 0 0-.334-1.04 1.313 1.313 0 0 0-1.053-.39 1.492 1.492 0 0 0-.992.3 1.031 1.031 0 0 0-.36.832h-2.5a2.516 2.516 0 0 1 .5-1.508 3.323 3.323 0 0 1 1.421-1.088 5.18 5.18 0 0 1 2.063-.394 4.093 4.093 0 0 1 2.752.871 3.047 3.047 0 0 1 1.018 2.449V13.9a4.484 4.484 0 0 0 .373 2.02v.147zm-2.072-1.742a2.157 2.157 0 0 0 1.023-.247 1.622 1.622 0 0 0 .693-.663V11.8h-.936q-1.881 0-2 1.3l-.009.147a1 1 0 0 0 .329.771 1.279 1.279 0 0 0 .901.303zm10.054-.1a1.643 1.643 0 0 0 1.127-.381 1.336 1.336 0 0 0 .451-1.014h2.349a3.213 3.213 0 0 1-.52 1.747 3.432 3.432 0 0 1-1.4 1.231 4.381 4.381 0 0 1-1.963.438 4.071 4.071 0 0 1-3.172-1.278 5.059 5.059 0 0 1-1.161-3.532v-.165a5 5 0 0 1 1.152-3.467 4.024 4.024 0 0 1 3.164-1.291 3.945 3.945 0 0 1 2.821 1 3.545 3.545 0 0 1 1.079 2.665h-2.349a1.707 1.707 0 0 0-.451-1.183 1.679 1.679 0 0 0-2.466.182 3.688 3.688 0 0 0-.446 2.067v.26a3.734 3.734 0 0 0 .442 2.08 1.528 1.528 0 0 0 1.344.637zm9.673 2.02a4.6 4.6 0 0 1-3.359-1.265 4.5 4.5 0 0 1-1.3-3.372v-.243a5.665 5.665 0 0 1 .546-2.527 4.007 4.007 0 0 1 1.547-1.716 4.343 4.343 0 0 1 2.284-.6 3.892 3.892 0 0 1 3.029 1.213 4.931 4.931 0 0 1 1.105 3.441v1.023h-5.972a2.327 2.327 0 0 0 .732 1.473 2.214 2.214 0 0 0 1.547.555 2.7 2.7 0 0 0 2.262-1.049l1.231 1.378a3.76 3.76 0 0 1-1.525 1.244 5 5 0 0 1-2.126.441zm-.286-7.7a1.569 1.569 0 0 0-1.209.5 2.6 2.6 0 0 0-.594 1.439h3.484v-.2a1.852 1.852 0 0 0-.451-1.287 1.619 1.619 0 0 0-1.229-.453zm14.015 2.921a5.679 5.679 0 0 1-.962 3.515 3.187 3.187 0 0 1-2.687 1.261 2.928 2.928 0 0 1-2.436-1.17l-.113 1h-2.254V2.75h2.5v4.776a2.853 2.853 0 0 1 2.28-1.014 3.213 3.213 0 0 1 2.691 1.261 5.687 5.687 0 0 1 .975 3.549zm-2.5-.182a3.731 3.731 0 0 0-.451-2.076 1.524 1.524 0 0 0-1.343-.654 1.652 1.652 0 0 0-1.647.979v3.7a1.675 1.675 0 0 0 1.664.988 1.546 1.546 0 0 0 1.595-1.2 6.171 6.171 0 0 0 .179-1.738zm3.658.009a5.562 5.562 0 0 1 .534-2.489 3.934 3.934 0 0 1 1.547-1.69 4.514 4.514 0 0 1 2.345-.6 4.271 4.271 0 0 1 3.1 1.161 4.661 4.661 0 0 1 1.339 3.155l.017.641a4.9 4.9 0 0 1-1.2 3.463 4.67 4.67 0 0 1-6.47 0 4.988 4.988 0 0 1-1.209-3.536zm2.5.182a3.5 3.5 0 0 0 .5 2.041 1.808 1.808 0 0 0 2.86.009 3.825 3.825 0 0 0 .511-2.232 3.461 3.461 0 0 0-.511-2.028 1.663 1.663 0 0 0-1.439-.719 1.636 1.636 0 0 0-1.421.715 3.89 3.89 0 0 0-.499 2.213zm7.532-.182A5.562 5.562 0 0 1 146.5 8.8a3.934 3.934 0 0 1 1.547-1.69 4.514 4.514 0 0 1 2.345-.6 4.271 4.271 0 0 1 3.1 1.161 4.661 4.661 0 0 1 1.339 3.155l.017.641a4.9 4.9 0 0 1-1.2 3.463 4.67 4.67 0 0 1-6.47 0 4.988 4.988 0 0 1-1.209-3.536zm2.5.182a3.5 3.5 0 0 0 .5 2.041 1.808 1.808 0 0 0 2.86.009 3.825 3.825 0 0 0 .511-2.232 3.461 3.461 0 0 0-.511-2.028 1.663 1.663 0 0 0-1.439-.719 1.636 1.636 0 0 0-1.421.715 3.89 3.89 0 0 0-.494 2.213zm11.329.832l-.9.9v2.86h-2.5V2.75h2.5v7.376l.485-.624 2.4-2.817h3.008l-3.38 3.909 3.684 5.469H162.2z" class="cls-2" data-name="Path 132769" transform="translate(190.66 477.25)"/>
        </g>
    </g>
</svg>
